<svg width="24" height="24" viewBox="0 0 24 24" fill="none" xmlns="http://www.w3.org/2000/svg">
<path d="M21.7386 19.8752C20.3392 17.4644 18.0992 15.655 15.448 14.7939C16.7188 14.0383 17.7063 12.8863 18.2589 11.5149C18.8114 10.1436 18.8985 8.62881 18.5066 7.20321C18.1148 5.77762 17.2657 4.5201 16.0899 3.62385C14.9141 2.7276 13.4765 2.24219 11.998 2.24219C10.5195 2.24219 9.08197 2.7276 7.90614 3.62385C6.7303 4.5201 5.88124 5.77762 5.4894 7.20321C5.09756 8.62881 5.1846 10.1436 5.73717 11.5149C6.28973 12.8863 7.27725 14.0383 8.54801 14.7939C5.89685 15.655 3.65683 17.4644 2.25739 19.8752C2.18868 19.9882 2.15234 20.1179 2.15234 20.2502C2.15234 20.3824 2.18868 20.5121 2.25739 20.6252C2.32149 20.7401 2.41542 20.8356 2.52927 20.9016C2.64312 20.9676 2.77267 21.0016 2.90426 21.0002H21.0918C21.2234 21.0016 21.3529 20.9676 21.4668 20.9016C21.5806 20.8356 21.6745 20.7401 21.7386 20.6252C21.8073 20.5121 21.8437 20.3824 21.8437 20.2502C21.8437 20.1179 21.8073 19.9882 21.7386 19.8752Z" fill="currentColor"/>
</svg>
