<svg width="70" height="52" viewBox="0 0 70 52" fill="none" xmlns="http://www.w3.org/2000/svg">
<g clip-path="url(#clip0_3357_22801)">
<path d="M42.0062 57.5101L20.0027 71.383L22.3747 54.4702L28.5089 46.4783L38.8741 49.4174L42.0062 57.5101Z" fill="#4D8E31"/>
<path d="M1.62153 22.3642C-0.116955 22.8694 -0.575371 25.1176 0.826317 26.2633L12.2784 35.6233L38.17 26.7301L73 1.61792L1.62153 22.3642Z" fill="#82C167"/>
<path d="M28.5083 46.478L45.5649 60.4188L54.438 67.6716C55.7279 68.7261 57.6766 68.0598 58.051 66.4363L72.9995 1.61792L38.7705 27.1427L28.5083 46.478Z" fill="#82C167"/>
<path d="M72.9999 1.61792L28.5087 46.478L20.0025 71.3827L12.2783 35.6233L72.9999 1.61792Z" fill="#62A446"/>
</g>
<defs>
<clipPath id="clip0_3357_22801">
<rect width="73" height="73" fill="white"/>
</clipPath>
</defs>
</svg>
