<svg width="40" height="40" viewBox="0 0 40 40" fill="none" xmlns="http://www.w3.org/2000/svg">
<path d="M35.6836 24.5491L31.251 30.3456C30.364 31.5054 28.9874 32.1857 27.5274 32.1857H19.2969C18.6497 32.1857 18.125 31.661 18.125 31.0138C18.125 30.3666 18.6497 29.8419 19.2969 29.8419H26.4304C27.9636 29.8419 29.2476 28.5872 29.2183 27.0542C29.1899 25.5687 27.9767 24.3732 26.4844 24.3732H18.2813C15.926 22.1086 12.2915 21.8436 9.63266 23.7427L8.75 24.3732V37.6545H16.5625H18.125H29.13C31.5225 37.6545 33.7508 36.4379 35.0446 34.4254L39.6179 27.3112C39.8674 26.9232 40 26.4717 40 26.0104C40 23.7099 37.0809 22.7217 35.6836 24.5491Z" fill="#62A446"/>
<path d="M5.2345 22.0312H1.172C0.52481 22.0312 0.00012207 22.5559 0.00012207 23.2031V38.8281C0.00012207 39.4753 0.52481 40 1.172 40H5.2345C5.88169 40 6.40638 39.4753 6.40638 38.8281V23.2031C6.40638 22.5559 5.88169 22.0312 5.2345 22.0312Z" fill="#62A446"/>
<path d="M22.3678 6.47656C22.1294 6.65938 21.998 6.93617 21.9528 7.17625C21.8904 7.50742 21.9694 7.81508 22.1542 7.95992C22.2192 8.01094 22.291 8.0611 22.3678 8.11039V6.47656Z" fill="#F3B744"/>
<path d="M23.2031 19.5313C28.5879 19.5313 32.9688 15.1504 32.9688 9.76564C32.9688 4.38086 28.5879 0 23.2031 0C17.8184 0 13.4375 4.38086 13.4375 9.76564C13.4375 15.1504 17.8184 19.5313 23.2031 19.5313ZM20.247 12.9585C20.4831 12.5976 20.9674 12.496 21.3284 12.7324C21.7504 13.0085 22.0149 13.1281 22.368 13.1778V9.87845C21.869 9.64978 21.496 9.4297 21.19 9.18962C20.5416 8.6811 20.2456 7.79892 20.4174 6.88712C20.6046 5.89352 21.2963 5.10298 22.2223 4.82407C22.2713 4.8093 22.3199 4.79579 22.368 4.78305V4.29688C22.368 3.86547 22.7178 3.51563 23.1492 3.51563C23.5806 3.51563 23.9305 3.86547 23.9305 4.29688V4.69743C24.689 4.82876 25.2251 5.20219 25.4848 5.50024C25.7682 5.82555 25.7342 6.31907 25.4088 6.60243C25.0852 6.88431 24.5953 6.85227 24.3111 6.53173C24.2933 6.51368 24.1692 6.39415 23.9305 6.3061V8.83048C24.0692 8.88196 24.2077 8.93189 24.3438 8.98001C25.717 9.46548 26.4809 10.7367 26.2445 12.1434C26.0606 13.2367 25.2286 14.3456 23.9305 14.6749V15.2344C23.9305 15.6658 23.5806 16.0156 23.1492 16.0156C22.7178 16.0156 22.368 15.6658 22.368 15.2344V14.7499C21.7372 14.6953 21.2143 14.5249 20.4731 14.04C20.112 13.8038 20.0108 13.3196 20.247 12.9585Z" fill="#F3B744"/>
<path d="M24.7035 11.8833C24.7549 11.5779 24.7759 10.8502 23.9304 10.4941V13.0036C24.3699 12.7519 24.6324 12.3067 24.7035 11.8833Z" fill="#F3B744"/>
</svg>
