<svg width="40" height="40" viewBox="0 0 40 40" fill="none" xmlns="http://www.w3.org/2000/svg">
<mask id="mask0_5961_15936" style="mask-type:alpha" maskUnits="userSpaceOnUse" x="0" y="3" width="39" height="34">
<path d="M5.83331 36.666C4.99998 36.666 4.16665 36.4993 3.33331 35.9993C0.999979 34.666 0.166645 31.4993 1.49998 29.166L15.6666 5.49935C16.1666 4.83268 16.6666 4.16602 17.3333 3.83268C18.5 3.16602 19.8333 2.99935 21.1666 3.33268C22.5 3.66602 23.5 4.49935 24.3333 5.66602L38.3333 29.166C38.8333 29.9993 39 30.8327 39 31.666C39 32.9993 38.5 34.3327 37.5 35.166C36.6666 36.166 35.5 36.666 34.1666 36.666H5.83331ZM18.5 7.33268L4.49998 30.8327C3.99998 31.666 4.33331 32.666 5.16665 33.166C5.33331 33.3327 5.66665 33.3327 5.83331 33.3327H34C34.5 33.3327 34.8333 33.166 35.1666 32.8327C35.5 32.4993 35.6666 32.166 35.6666 31.666C35.6666 31.3327 35.6666 31.166 35.5 30.8327L21.5 7.33268C21 6.49935 20 6.33268 19.1666 6.66602C18.8333 6.83268 18.6666 6.99935 18.5 7.33268Z" fill="#061938"/>
<path d="M20 23.3327C19 23.3327 18.3333 22.666 18.3333 21.666V14.9993C18.3333 13.9993 19 13.3327 20 13.3327C21 13.3327 21.6666 13.9993 21.6666 14.9993V21.666C21.6666 22.666 21 23.3327 20 23.3327Z" fill="#061938"/>
<path d="M20 29.9993C19.5 29.9993 19.1666 29.8327 18.8333 29.4993C18.5 29.166 18.3333 28.8327 18.3333 28.3327C18.3333 28.166 18.3333 27.8327 18.5 27.666C18.6666 27.4993 18.6666 27.3327 18.8333 27.166C19 26.9993 19.1666 26.8327 19.3333 26.8327C19.6666 26.666 20 26.666 20.3333 26.666C20.5 26.666 20.5 26.666 20.6666 26.8327C20.8333 26.8327 20.8333 26.8327 21 26.9993C21 26.9993 21.1666 27.166 21.3333 27.166C21.5 27.3327 21.6666 27.4993 21.6666 27.666C21.6666 27.8327 21.8333 28.166 21.8333 28.3327C21.8333 28.8327 21.6666 29.166 21.3333 29.4993C20.8333 29.8327 20.5 29.9993 20 29.9993Z" fill="#061938"/>
</mask>
<g mask="url(#mask0_5961_15936)">
<rect width="40" height="40" fill="#F3B744"/>
</g>
</svg>
