<svg width="44" height="44" viewBox="0 0 44 44" fill="none" xmlns="http://www.w3.org/2000/svg">
<circle cx="22" cy="22" r="22" fill="#FAEEED"/>
<path d="M20.4523 14.9341C20.2761 14.7584 20.0585 14.6299 19.8196 14.5604C19.5807 14.491 19.3282 14.4829 19.0853 14.5368C18.8424 14.5907 18.617 14.7049 18.4299 14.8689C18.2428 15.0328 18.1001 15.2413 18.0148 15.475L13.0938 29.0106C13.013 29.2338 12.9869 29.4732 13.0177 29.7086C13.0485 29.944 13.1353 30.1685 13.2709 30.3634C13.4064 30.5583 13.5868 30.7178 13.7967 30.8286C14.0067 30.9394 14.2402 30.9981 14.4776 31C14.6524 30.9988 14.8256 30.9671 14.9894 30.9062L28.5241 25.9844C28.7579 25.8992 28.9665 25.7565 29.1305 25.5694C29.2946 25.3824 29.4089 25.157 29.4629 24.9141C29.5169 24.6712 29.5089 24.4186 29.4395 24.1797C29.3701 23.9407 29.2417 23.7231 29.066 23.5469L20.4523 14.9341ZM19.6713 27.61L16.3901 24.3287L17.6238 20.9341L23.066 26.3762L19.6713 27.61ZM14.5151 29.485L15.8276 25.8841L18.1198 28.1763L14.5151 29.485ZM24.6251 25.81L18.1901 19.375L19.4088 16.0122L27.9804 24.5837L24.6251 25.81ZM25.0001 16.75C25.0142 16.243 25.1369 15.7449 25.3601 15.2894C25.8569 14.2966 26.7944 13.75 28.0001 13.75C28.6282 13.75 29.0313 13.5353 29.2798 13.0741C29.4106 12.816 29.4856 12.5333 29.5001 12.2444C29.5008 12.0455 29.5805 11.855 29.7217 11.7149C29.8629 11.5747 30.054 11.4964 30.2529 11.4972C30.4518 11.4979 30.6423 11.5777 30.7824 11.7188C30.9225 11.86 31.0008 12.0511 31.0001 12.25C31.0001 13.4556 30.2013 15.25 28.0001 15.25C27.3719 15.25 26.9688 15.4647 26.7204 15.9259C26.5896 16.184 26.5145 16.4667 26.5001 16.7556C26.4997 16.8541 26.4799 16.9516 26.4419 17.0424C26.4039 17.1333 26.3483 17.2157 26.2784 17.2851C26.2085 17.3545 26.1256 17.4094 26.0345 17.4468C25.9433 17.4841 25.8457 17.5032 25.7473 17.5028C25.6488 17.5024 25.5513 17.4827 25.4605 17.4446C25.3696 17.4066 25.2871 17.3511 25.2177 17.2812C25.1484 17.2112 25.0934 17.1284 25.0561 17.0372C25.0187 16.9461 24.9997 16.8485 25.0001 16.75ZM22.7501 13.75V11.5C22.7501 11.3011 22.8291 11.1103 22.9697 10.9697C23.1104 10.829 23.3012 10.75 23.5001 10.75C23.699 10.75 23.8897 10.829 24.0304 10.9697C24.1711 11.1103 24.2501 11.3011 24.2501 11.5V13.75C24.2501 13.9489 24.1711 14.1397 24.0304 14.2803C23.8897 14.421 23.699 14.5 23.5001 14.5C23.3012 14.5 23.1104 14.421 22.9697 14.2803C22.8291 14.1397 22.7501 13.9489 22.7501 13.75ZM32.2807 21.4694C32.3503 21.5391 32.4055 21.6218 32.4432 21.7128C32.4808 21.8038 32.5002 21.9014 32.5002 21.9999C32.5001 22.0984 32.4807 22.1959 32.4429 22.2869C32.4052 22.3779 32.3499 22.4605 32.2802 22.5302C32.2105 22.5998 32.1278 22.655 32.0368 22.6926C31.9458 22.7303 31.8482 22.7497 31.7497 22.7496C31.6512 22.7496 31.5537 22.7301 31.4627 22.6924C31.3717 22.6547 31.2891 22.5994 31.2194 22.5297L29.7194 21.0297C29.5787 20.889 29.4997 20.6981 29.4997 20.4991C29.4997 20.3 29.5787 20.1092 29.7194 19.9684C29.8602 19.8277 30.051 19.7486 30.2501 19.7486C30.4491 19.7486 30.64 19.8277 30.7807 19.9684L32.2807 21.4694ZM32.7373 17.4616L30.4873 18.2116C30.2985 18.2745 30.0926 18.2598 29.9146 18.1709C29.7367 18.0819 29.6014 17.9259 29.5385 17.7372C29.4756 17.5485 29.4902 17.3425 29.5792 17.1646C29.6682 16.9866 29.8242 16.8513 30.0129 16.7884L32.2629 16.0384C32.4516 15.9755 32.6576 15.9902 32.8355 16.0791C33.0134 16.1681 33.1487 16.3241 33.2116 16.5128C33.2745 16.7015 33.2599 16.9075 33.1709 17.0854C33.082 17.2634 32.926 17.3987 32.7373 17.4616Z" fill="#F45B69"/>
</svg>
