<svg width="21" height="23" viewBox="0 0 21 23" fill="none" xmlns="http://www.w3.org/2000/svg">
<path d="M11.2838 17.931L12.7669 18.338L13.9074 18.6567L15.1813 19.0073L16.104 19.2553L17.0713 19.5209L17.7638 19.7108L18.4847 19.9094L19.041 20.0628L19.6833 20.2392L20.1196 20.3597L20.7554 20.5341C20.7896 20.5436 20.8258 20.5423 20.8592 20.5304C20.8927 20.5186 20.9216 20.4967 20.9421 20.4677C20.9627 20.4388 20.9738 20.4043 20.9739 20.3688C20.9741 20.3334 20.9633 20.2987 20.9431 20.2696L20.565 19.7264L20.3099 19.353L19.9322 18.8055L19.6062 18.3316L19.1825 17.7149L18.7718 17.1262L18.2107 16.3047L17.6708 15.5222L16.9228 14.4355L16.2569 13.4661L15.3578 12.1602L11.2838 17.931Z" fill="#C52516"/>
<path d="M19.6794 20.2406L20.1157 20.361C20.2026 20.2637 20.2837 20.1615 20.3589 20.055C20.4339 19.9497 20.5028 19.8402 20.5651 19.7271L20.3101 19.3536C20.2278 19.5147 20.1338 19.6696 20.0288 19.8169C19.9234 19.9669 19.8066 20.1085 19.6794 20.2406Z" fill="#EA928A"/>
<path d="M18.4807 19.9115L19.037 20.0648C19.2219 19.883 19.3903 19.6853 19.5404 19.4739C19.6901 19.2646 19.8214 19.0428 19.9329 18.811L19.607 18.337C19.3501 18.9372 18.9658 19.4745 18.4807 19.9115Z" fill="#EA928A"/>
<path d="M17.0662 19.5183L17.7586 19.7082C18.3778 19.1603 18.8645 18.479 19.1821 17.7157L18.7714 17.127C18.4379 18.0679 17.8471 18.8964 17.0662 19.5183Z" fill="#EA928A"/>
<path d="M12.7664 18.3366L13.907 18.6554C15.3423 17.6131 16.4006 16.1333 16.9231 14.4382L16.2572 13.4688C16.0892 14.3292 15.6595 15.3042 14.9964 16.234C14.3334 17.1638 13.5306 17.8986 12.7664 18.3366Z" fill="#EA928A"/>
<path d="M15.18 19.0018L16.1034 19.2539C17.0513 18.4701 17.7774 17.4518 18.2096 16.3002L17.6697 15.5178C17.2301 16.913 16.3579 18.1321 15.1795 18.9988L15.18 19.0018Z" fill="#EA928A"/>
<path d="M11.1934 17.8647C10.7399 17.5413 11.2921 15.9891 12.4268 14.3977C13.5616 12.8064 14.8491 11.7785 15.3027 12.1019C15.7562 12.4253 15.204 13.9775 14.0693 15.5689C12.9345 17.1603 11.647 18.1881 11.1934 17.8647Z" fill="#541812"/>
<path d="M4.87254 12.4821C4.89692 12.5128 4.90962 12.5513 4.90839 12.5905C4.78614 12.604 4.66733 12.6394 4.55761 12.695C4.55272 12.6585 4.5357 12.6247 4.50929 12.5991C4.62058 12.5345 4.74446 12.4946 4.87254 12.4821Z" fill="url(#paint0_linear_5942_19604)"/>
<path d="M0.289951 10.4365C0.418695 10.3841 0.535853 10.3068 0.634729 10.2091C0.689396 10.2596 0.72616 10.3265 0.739467 10.3997C0.640262 10.5022 0.526067 10.589 0.400788 10.6572C0.390233 10.5383 0.370954 10.4791 0.289951 10.4365Z" fill="url(#paint1_linear_5942_19604)"/>
<path d="M9.67752 6.20154C9.81569 6.4111 9.91618 6.64319 9.97445 6.88734C9.82431 6.9229 9.66734 6.9172 9.52017 6.87084C9.50961 6.71445 9.44817 6.5658 9.34524 6.44758C9.41548 6.43398 9.48178 6.40482 9.53928 6.36224C9.59678 6.31967 9.64401 6.26475 9.67752 6.20154Z" fill="url(#paint2_linear_5942_19604)"/>
<path d="M6.09524 8.6461C6.05927 8.62201 6.01862 8.60578 5.97594 8.59846C6.03109 8.53265 6.07732 8.45984 6.11341 8.38193C6.15609 8.3778 6.1988 8.38953 6.23338 8.41489C6.19708 8.49738 6.15068 8.57505 6.09524 8.6461Z" fill="url(#paint3_linear_5942_19604)"/>
<path d="M11.62 9.45909C11.6351 9.50033 11.6404 9.54453 11.6354 9.58817C11.6304 9.6318 11.6153 9.67368 11.5913 9.71046C11.4469 9.65565 11.2917 9.63499 11.138 9.6501C11.1684 9.56533 11.1673 9.47245 11.1348 9.38847C11.2996 9.37885 11.4647 9.40288 11.62 9.45909Z" fill="url(#paint4_linear_5942_19604)"/>
<path d="M7.4561 11.9684C7.38053 11.9895 7.30124 11.9939 7.2238 11.9812C7.14636 11.9685 7.07265 11.9389 7.00784 11.8947C7.02658 11.634 7.01414 11.3721 6.97077 11.1144C7.05343 11.1345 7.13991 11.133 7.22177 11.1098C7.25615 11.4061 7.33515 11.6956 7.4561 11.9684Z" fill="url(#paint5_linear_5942_19604)"/>
<path d="M10.8462 15.7142C10.8125 15.7538 10.7876 15.8002 10.7733 15.8502C10.7023 15.7752 10.6215 15.7104 10.5329 15.6574C10.5337 15.6057 10.5541 15.5562 10.5898 15.5189C10.6828 15.5734 10.7689 15.6389 10.8462 15.7142Z" fill="#F3B744"/>
<path d="M7.384 5.08706C7.53787 5.07685 7.69084 5.11737 7.81947 5.20242C7.84018 5.30811 7.8769 5.41001 7.92835 5.50462C7.82593 5.47704 7.76068 5.50982 7.6523 5.61432C7.59241 5.42504 7.50176 5.2469 7.384 5.08706Z" fill="url(#paint6_linear_5942_19604)"/>
<path d="M12.4873 15.8551C12.4564 15.7771 12.3984 15.7129 12.3238 15.6744C12.4346 15.5995 12.5571 15.5439 12.6864 15.5096C12.7304 15.5766 12.759 15.6524 12.7704 15.7317C12.668 15.7512 12.5712 15.7933 12.4873 15.8551Z" fill="#0A58BD"/>
<path d="M3.25719 13.742C3.22737 13.8164 3.1713 13.8772 3.09961 13.913C2.95436 13.7088 2.77292 13.5329 2.56429 13.3941C2.62462 13.3485 2.66802 13.2841 2.68762 13.2111C2.91305 13.3456 3.10722 13.5266 3.25719 13.742Z" fill="url(#paint7_linear_5942_19604)"/>
<path d="M9.03511 9.35446C9.03673 9.388 9.02956 9.42138 9.01432 9.4513C8.99908 9.48123 8.97629 9.50665 8.9482 9.52507C8.88377 9.51589 8.82419 9.48563 8.77878 9.43901C8.79998 9.35998 8.79862 9.27659 8.77487 9.19829C8.85009 9.26751 8.93864 9.32065 9.03511 9.35446Z" fill="url(#paint8_linear_5942_19604)"/>
<path d="M10.2141 11.6654C10.2176 11.6192 10.2332 11.5748 10.2593 11.5365C10.2854 11.4982 10.321 11.4673 10.3627 11.447C10.4487 11.4709 10.5243 11.5226 10.5777 11.5941C10.534 11.6978 10.5213 11.812 10.5412 11.9228C10.4503 11.8161 10.3391 11.7287 10.2141 11.6654Z" fill="url(#paint9_linear_5942_19604)"/>
<path d="M6.08323 9.88312C6.03766 9.81411 6.00475 9.73754 5.98605 9.65699C6.03568 9.64607 6.08728 9.64818 6.13585 9.66311C6.13894 9.71482 6.15889 9.76411 6.19264 9.80341C6.16961 9.80769 6.14784 9.81707 6.1289 9.83086C6.10997 9.84466 6.09437 9.86251 6.08323 9.88312Z" fill="url(#paint10_linear_5942_19604)"/>
<path d="M8.33111 13.3346C8.3923 13.3675 8.46348 13.3767 8.53102 13.3604C8.50399 13.4664 8.45931 13.5671 8.39885 13.6583C8.33586 13.64 8.27743 13.6087 8.22739 13.5663C8.27862 13.4977 8.31404 13.4185 8.33111 13.3346Z" fill="#0D6AE3"/>
<path d="M3.7129 11.9007C3.72044 11.9776 3.75002 12.0507 3.79809 12.1112C3.78425 12.1157 3.77155 12.1232 3.76082 12.1331C3.7501 12.1429 3.7416 12.155 3.73589 12.1684C3.67735 12.1055 3.6376 12.0275 3.62117 11.9431C3.64759 11.9213 3.67918 11.9067 3.7129 11.9007Z" fill="url(#paint11_linear_5942_19604)"/>
<path d="M12.4009 6.4671C12.3929 6.40685 12.3671 6.35035 12.3269 6.30472C12.3546 6.28968 12.3691 6.27685 12.3741 6.25728C12.4223 6.30508 12.4561 6.36533 12.4719 6.43128C12.4519 6.4494 12.4274 6.46178 12.4009 6.4671Z" fill="url(#paint12_linear_5942_19604)"/>
<path d="M11.2882 5.02413C11.2399 5.03689 11.1887 5.03221 11.1435 5.01092C11.19 4.86059 11.2088 4.70303 11.1988 4.54598C11.2441 4.55811 11.2922 4.55517 11.3357 4.53761C11.3551 4.70131 11.3389 4.86727 11.2882 5.02413Z" fill="url(#paint13_linear_5942_19604)"/>
<path d="M14.1997 8.18115C14.1669 8.23795 14.1168 8.28279 14.0567 8.30913C14.0133 8.29176 13.9673 8.28154 13.9206 8.27888C13.9538 8.24731 13.9568 8.21559 13.9431 8.15235C14.0265 8.17567 14.1132 8.1854 14.1997 8.18115Z" fill="url(#paint14_linear_5942_19604)"/>
<path d="M11.6777 7.39242C11.7969 7.46882 11.8932 7.57598 11.9565 7.70258C11.9132 7.7779 11.8455 7.83621 11.7646 7.86787C11.7042 7.74184 11.608 7.63638 11.4881 7.56463C11.5316 7.55423 11.5719 7.53299 11.605 7.50288C11.6382 7.47278 11.6632 7.43478 11.6777 7.39242Z" fill="url(#paint15_linear_5942_19604)"/>
<path d="M4.31249 10.5389C4.15731 10.4837 4.02482 10.3785 3.93575 10.24C4.09014 10.1602 4.21473 10.0328 4.29104 9.87667C4.43782 9.92601 4.57288 10.005 4.68781 10.1088C4.53657 10.2271 4.4092 10.373 4.31249 10.5389Z" fill="url(#paint16_linear_5942_19604)"/>
<path d="M9.07141 11.8859C8.97616 11.8507 8.88768 11.7994 8.80983 11.7342C8.85062 11.6869 8.90312 11.6512 8.96207 11.6306C9.0028 11.6794 9.05862 11.7133 9.12071 11.7268C9.10119 11.748 9.08664 11.7733 9.07811 11.8008C9.06958 11.8284 9.06729 11.8574 9.07141 11.8859Z" fill="url(#paint17_linear_5942_19604)"/>
<path d="M14.4849 13.1633C14.4418 13.1862 14.3924 13.1945 14.3442 13.1869C14.3562 13.1373 14.3522 13.0851 14.3328 13.0379C14.3719 13.0137 14.4158 12.9982 14.4615 12.9925C14.4576 13.0504 14.4656 13.1085 14.4849 13.1633Z" fill="#F3B744"/>
<path d="M5.38047 5.85494C5.35614 5.97385 5.37686 6.09756 5.43861 6.20205C5.24809 6.20946 5.05766 6.1851 4.87514 6.12997C4.87398 6.01653 4.897 5.90415 4.94269 5.8003C5.05322 5.8515 5.1745 5.85511 5.38047 5.85494Z" fill="url(#paint18_linear_5942_19604)"/>
<path d="M9.65835 3.86772C9.68448 3.93105 9.69356 4.00013 9.68468 4.06806C9.6758 4.13599 9.64926 4.20041 9.60772 4.25489C9.47791 4.28229 9.34265 4.26499 9.22392 4.20578C9.21012 4.03859 9.14981 3.87859 9.0498 3.74389C9.24208 3.82626 9.44918 3.8684 9.65835 3.86772Z" fill="url(#paint19_linear_5942_19604)"/>
<path d="M12.5567 12.4451C12.609 12.5146 12.6754 12.5723 12.7515 12.6143C12.6038 12.7022 12.4685 12.8095 12.3493 12.9334C12.2659 12.9132 12.1929 12.8628 12.1446 12.7919C12.2676 12.6603 12.406 12.5438 12.5567 12.4451Z" fill="#C52516"/>
<path d="M8.44436 14.4706C8.37969 14.5938 8.36513 14.743 8.458 15.0676C8.30786 15.0832 8.15665 15.0506 8.02626 14.9745C7.98355 14.762 7.99615 14.5421 8.06286 14.3358C8.17218 14.4207 8.30599 14.468 8.44436 14.4706Z" fill="#F3B744"/>
<path d="M5.30293 11.6446C5.28351 11.6052 5.27308 11.562 5.27237 11.518C5.27166 11.4741 5.2807 11.4305 5.29884 11.3904C5.44194 11.373 5.58252 11.3389 5.71777 11.2891C5.71374 11.3365 5.72173 11.3842 5.741 11.4277C5.58508 11.478 5.43746 11.5511 5.30293 11.6446Z" fill="url(#paint20_linear_5942_19604)"/>
<path d="M2.95657 8.83011C2.97116 8.76184 3.00809 8.70037 3.06152 8.65544C3.10363 8.71565 3.16408 8.76063 3.23385 8.78367C3.22177 8.84891 3.19682 8.91109 3.16045 8.96658C3.10192 8.90837 3.03269 8.86203 2.95657 8.83011Z" fill="url(#paint21_linear_5942_19604)"/>
<path d="M13.3815 13.8531C13.4993 14.0062 13.6463 14.1343 13.8139 14.2301C13.7675 14.3216 13.6926 14.3955 13.6006 14.4407C13.4269 14.3464 13.2686 14.2263 13.131 14.0844C13.2848 14.0275 13.3542 13.9763 13.3815 13.8531Z" fill="url(#paint22_linear_5942_19604)"/>
<path d="M9.63355 9.60271C9.58326 9.51814 9.54803 9.42548 9.52942 9.32885C9.58881 9.31807 9.65 9.32326 9.70672 9.34389C9.70848 9.40528 9.73007 9.46444 9.76826 9.51253C9.74054 9.51668 9.71409 9.52692 9.6908 9.54252C9.6675 9.55811 9.64796 9.57867 9.63355 9.60271Z" fill="url(#paint23_linear_5942_19604)"/>
<path d="M11.6998 13.4593C11.707 13.4479 11.7116 13.435 11.7135 13.4216C11.7154 13.4082 11.7144 13.3946 11.7107 13.3816C11.7841 13.3849 11.8566 13.399 11.9258 13.4236C11.9307 13.4558 11.9269 13.4888 11.9147 13.519C11.8495 13.4808 11.7754 13.4602 11.6998 13.4593Z" fill="#F3B744"/>
<path d="M1.40027 14.1867C1.57476 14.1847 1.74824 14.2134 1.91281 14.2714C1.87651 14.3724 1.81393 14.4619 1.73151 14.5307C1.63652 14.4777 1.52675 14.4573 1.41906 14.4727C1.43726 14.4266 1.44501 14.3771 1.44176 14.3276C1.43851 14.2781 1.42434 14.23 1.40027 14.1867Z" fill="url(#paint24_linear_5942_19604)"/>
<path d="M8.05706 7.65173C8.07702 7.67052 8.09167 7.69425 8.09954 7.72051C8.10741 7.74677 8.10822 7.77464 8.10188 7.80132C8.05874 7.83242 8.00625 7.84782 7.95314 7.84496C7.92138 7.78609 7.87354 7.73746 7.81521 7.70472C7.89858 7.70362 7.98086 7.68559 8.05706 7.65173Z" fill="url(#paint25_linear_5942_19604)"/>
<path d="M15.0227 8.58398C15.0223 8.69812 14.985 8.80907 14.9165 8.90036C14.8364 8.9106 14.7584 8.93349 14.6855 8.96819C14.7092 8.89243 14.6882 8.84184 14.6146 8.75637C14.759 8.72119 14.8968 8.66298 15.0227 8.58398Z" fill="url(#paint26_linear_5942_19604)"/>
<path d="M10.6203 16.7216C10.6206 16.6635 10.6418 16.6075 10.6803 16.5639C10.8326 16.6617 11.0014 16.731 11.1785 16.7686C11.1505 16.8153 11.1388 16.8699 11.1453 16.924C10.958 16.8942 10.7791 16.8252 10.6203 16.7216Z" fill="url(#paint27_linear_5942_19604)"/>
<path d="M3.29968 8.54214C3.31417 8.61418 3.30439 8.68898 3.27185 8.75487C3.20677 8.71513 3.13096 8.69657 3.05488 8.70174C3.03864 8.63392 3.03641 8.56349 3.0483 8.49477C3.12842 8.52608 3.21367 8.54214 3.29968 8.54214Z" fill="url(#paint28_linear_5942_19604)"/>
<path d="M2.59372 14.8616L2.90889 14.9419C2.90889 14.9419 3.16724 14.4284 3.51432 14.3391C3.57227 14.3243 3.63279 14.3227 3.69144 14.3344L3.37526 14.2542C2.94436 14.1661 2.59372 14.8616 2.59372 14.8616Z" fill="#C52516"/>
<path d="M8.45938 16.6817C8.51114 16.6918 8.56414 16.6942 8.6166 16.6886C8.19143 16.3801 7.94964 15.2658 7.14078 15.033L7.10703 15.0241L7.08426 15.0185C7.04947 15.0113 7.01401 15.0078 6.97848 15.0081C7.74156 15.3589 7.95151 16.5316 8.43525 16.6742L8.45938 16.6817Z" fill="#C52516"/>
<path d="M4.88505 15.9558C4.94273 15.97 5.00221 15.9754 5.0615 15.9721C4.56564 15.639 4.37545 14.2861 3.98856 14.1751L3.97338 14.1714C3.91473 14.1597 3.85421 14.1613 3.79626 14.1761C4.13695 14.5268 4.34396 15.8186 4.88505 15.9558Z" fill="#C52516"/>
<path d="M8.45937 16.6813L8.77437 16.7607C9.29907 16.8746 10.2054 15.9873 10.7556 16.1167L10.4406 16.0374C9.94132 15.9202 9.15212 16.6371 8.61676 16.6893C8.56419 16.6946 8.51113 16.6919 8.45937 16.6813Z" fill="#C52516"/>
<path d="M4.88506 15.9563L5.20006 16.0357C5.88995 16.2104 6.35591 15.0233 6.97481 15.0102C7.01034 15.0098 7.0458 15.0133 7.08058 15.0205L6.76558 14.9412C6.14607 14.814 5.69101 15.9295 5.05764 15.9742C4.99955 15.9767 4.94141 15.9706 4.88506 15.9563Z" fill="#C52516"/>
<path d="M10.9883 14.9613C11.3754 15.142 12.081 14.4661 12.5392 14.5496L12.3234 14.4224C11.9003 14.3435 11.2611 14.9125 10.8665 14.861C10.8383 14.8578 10.8108 14.8505 10.7848 14.8393L10.934 14.9288L10.9883 14.9613Z" fill="#4D8E31"/>
<path d="M10.4976 14.2465C10.6799 14.1232 10.8248 13.9521 10.9162 13.7519C10.9615 13.6497 10.9635 13.5931 10.9383 13.5734C10.856 13.5102 10.5124 13.8258 10.4976 14.2465Z" fill="#387E1B"/>
<path d="M9.84471 13.7627C9.98172 13.6547 10.0898 13.5143 10.1591 13.3542C10.1871 13.285 10.1877 13.2454 10.1724 13.2407C10.1246 13.2164 9.90823 13.4587 9.84471 13.7627Z" fill="#387E1B"/>
<path d="M9.99506 14.325L10.0077 14.3323C10.0251 14.3419 10.0435 14.3496 10.0626 14.3554C10.0823 14.3605 10.1023 14.3641 10.1226 14.3661C10.0997 14.3305 10.082 14.2918 10.0701 14.2511C10.0368 14.1336 10.0336 14.0097 10.0607 13.8906C9.99088 13.9467 9.9147 13.9944 9.83373 14.0327C9.83725 14.0629 9.84228 14.093 9.84882 14.1227C9.86407 14.1776 9.89105 14.2284 9.92789 14.2718C9.94769 14.2926 9.9703 14.3105 9.99506 14.325Z" fill="#4D8E31"/>
<path d="M9.21748 13.9424C9.25687 13.9651 9.30158 13.977 9.34706 13.9768C9.31309 13.9021 9.2993 13.8198 9.30706 13.738L9.09103 13.6098C9.08544 13.7876 9.13428 13.8928 9.21748 13.9424Z" fill="#4D8E31"/>
<path d="M10.7858 14.8385C10.8119 14.8497 10.8394 14.857 10.8675 14.8602C10.8597 14.8504 10.8524 14.8402 10.8457 14.8295C10.757 14.694 10.7115 14.5348 10.7151 14.3729C10.6558 14.4132 10.5911 14.4451 10.5229 14.4675C10.5451 14.5505 10.5801 14.6296 10.6267 14.7019C10.6478 14.7362 10.6743 14.7669 10.7053 14.7927C10.7297 14.812 10.7568 14.8274 10.7858 14.8385Z" fill="#4D8E31"/>
<path d="M9.21749 13.9405L9.43351 14.0687C9.53392 14.1278 9.68218 14.1061 9.83326 14.0329C9.91423 13.9947 9.99041 13.947 10.0602 13.8909C10.1963 13.7838 10.3042 13.645 10.3743 13.4866C10.4031 13.4162 10.4039 13.3776 10.3884 13.3719L10.1727 13.2457C10.1887 13.2545 10.1874 13.2901 10.1595 13.3592C10.0893 13.5179 9.98108 13.6569 9.84435 13.7637C9.70703 13.8881 9.53232 13.9635 9.34757 13.978C9.30164 13.9773 9.25673 13.9643 9.21749 13.9405Z" fill="#4D8E31"/>
<path d="M10.0071 14.3307L10.2254 14.4596C10.272 14.4813 10.3226 14.4931 10.374 14.4944C10.4254 14.4956 10.4765 14.4862 10.5241 14.4668C10.5923 14.4444 10.657 14.4125 10.7163 14.3722C10.898 14.2492 11.0419 14.0782 11.1319 13.8781C11.1774 13.7768 11.1792 13.7193 11.154 13.6996L10.9382 13.5724C10.9633 13.5921 10.9613 13.6486 10.916 13.7509C10.8254 13.9505 10.6816 14.1214 10.5005 14.245C10.3921 14.3254 10.26 14.3673 10.1251 14.364C10.1048 14.3621 10.0847 14.3585 10.065 14.3533C10.0449 14.348 10.0255 14.3404 10.0071 14.3307Z" fill="#4D8E31"/>
<path d="M13.598 12.2452L13.7781 12.6312C13.8492 12.7826 14.7302 12.247 14.9471 12.6102L14.7876 12.279C14.6831 11.9844 14.262 12.1163 13.9441 12.2122C13.7702 12.2611 13.6253 12.303 13.598 12.2452Z" fill="#0D6AE3"/>
<path d="M13.5979 12.2463C13.6253 12.3041 13.7701 12.2622 13.9514 12.2079C14.1265 11.905 14.3578 11.5281 14.2792 11.3509C14.2765 11.3443 14.2733 11.3378 14.2697 11.3317C14.2473 11.3015 14.2184 11.2768 14.1852 11.2591C14.152 11.2415 14.1154 11.2314 14.0778 11.2296C13.952 11.5961 13.541 12.1237 13.5979 12.2463Z" fill="#0A58BD"/>
<path d="M12.9613 10.6697L13.1414 11.0557C13.2613 11.3113 13.7783 11.181 14.0778 11.2297C14.1153 11.2315 14.152 11.2416 14.1852 11.2592C14.2184 11.2769 14.2472 11.3016 14.2697 11.3318L14.0879 10.9481C13.9674 10.7384 13.4207 10.8966 13.1262 10.7971C13.0914 10.7886 13.0587 10.7729 13.0303 10.7509C13.0018 10.729 12.9784 10.7013 12.9613 10.6697Z" fill="#0D6AE3"/>
<path d="M12.9618 10.6718C12.9784 10.7043 13.0018 10.7328 13.0304 10.7554C13.0589 10.7781 13.092 10.7944 13.1273 10.8033C13.1976 10.5023 13.4891 10.1185 13.3291 9.59803C13.3122 9.54254 13.2913 9.48833 13.2666 9.43581C13.2374 9.37398 13.2025 9.31504 13.1622 9.25979C13.3334 9.90942 12.8066 10.342 12.9618 10.6718Z" fill="#0D6AE3"/>
<path d="M11.7657 8.33959L11.9458 8.72557C11.9458 8.72557 12.7542 8.70045 13.1625 9.26252C13.2028 9.31777 13.2377 9.37671 13.2669 9.43854L13.0868 9.05257C12.7333 8.30861 11.7657 8.33959 11.7657 8.33959Z" fill="#0D6AE3"/>
<path d="M5.71301 13.0117C5.92487 13.0356 6.13899 12.9943 6.32676 12.8933L5.76447 12.8221C5.64452 12.8884 5.51196 12.9287 5.37541 12.9403C5.45664 12.9673 5.53977 12.9881 5.6241 13.0027L5.71301 13.0117Z" fill="#EDA418"/>
<path d="M5.10432 12.9347L5.62291 12.9997C5.53857 12.9852 5.45544 12.9643 5.37421 12.9374C4.63518 12.7053 3.88311 11.9917 3.50915 11.5852C3.13104 11.1637 2.61502 10.8908 2.05378 10.8156L1.4915 10.7444C1.58559 10.7578 1.67878 10.777 1.77055 10.8017C2.22427 10.9207 2.63334 11.1697 2.94754 11.518C3.37182 11.9765 4.27953 12.8305 5.10432 12.9347Z" fill="#EDA418"/>
<path d="M4.92109 6.87841C4.9036 6.83856 4.8774 6.80313 4.84442 6.77473C4.78595 6.72823 4.71901 6.69351 4.64731 6.6725C4.39456 6.59207 4.12136 6.68152 3.90779 6.66112C3.92988 6.7144 3.96419 6.76176 4.00793 6.79936C4.22045 6.97496 4.58735 6.78657 4.92109 6.87841Z" fill="#C52516"/>
<path d="M5.12905 7.86273L5.42813 8.07689C5.20335 7.75353 5.30499 7.65848 5.2769 7.34171C5.25294 7.13037 5.22351 7.02294 5.07939 6.94513L4.84309 6.77663C4.87607 6.80503 4.90226 6.84046 4.91976 6.88031C4.95023 6.96008 4.96883 7.0439 4.97495 7.12908C5.00489 7.44449 4.90325 7.53955 5.12905 7.86273Z" fill="#C52516"/>
<path d="M1.31991 9.28502L1.70647 9.41274C1.6918 8.79098 1.46466 8.47218 1.13294 8.37377C1.07295 8.35621 1.01113 8.34562 0.948715 8.34221C1.16729 8.49806 1.31008 8.80394 1.31991 9.28502Z" fill="url(#paint29_linear_5942_19604)"/>
<path d="M6.09292 5.79231L6.42586 6.15269C6.42586 6.15269 6.99648 6.51591 8.09231 6.78492L8.10951 6.78828C8.19396 6.80398 8.27244 6.84268 8.33632 6.90011L8.02111 6.55861C7.95723 6.49028 7.8729 6.44453 7.78079 6.42824C6.66928 6.15873 6.09292 5.79231 6.09292 5.79231Z" fill="#C52516"/>
<path d="M10.0823 10.4633L10.4023 10.8144L10.4262 10.8395C10.551 10.9632 10.7519 10.9639 11.0081 10.9657L10.6762 10.6052C10.5502 10.6096 10.4241 10.6014 10.2997 10.5809C10.2163 10.5664 10.14 10.5251 10.0823 10.4633Z" fill="#C52516"/>
<path d="M10.0819 10.4641C10.1401 10.524 10.216 10.5634 10.2984 10.5766C10.2767 10.4684 10.2663 10.3583 10.2673 10.2479C10.2643 9.89468 10.4002 9.56918 10.1705 9.31009L10.1564 9.29374C10.0948 9.23176 10.0236 9.18009 9.94555 9.14075C10.0117 9.36167 9.93261 9.61628 9.93536 9.88736C9.93729 10.1908 9.98821 10.3644 10.0819 10.4641Z" fill="#C52516"/>
<path d="M7.78792 8.21992L8.1055 8.56311L8.13487 8.59564C8.3334 8.7871 8.77826 8.83431 9.23497 8.92115C9.48156 8.95968 9.72117 9.03417 9.94615 9.14223C10.0244 9.18216 10.0958 9.23451 10.1573 9.29725L9.82335 8.93704C9.67867 8.78753 9.40563 8.66056 8.9027 8.56482C8.61045 8.52385 8.32169 8.46093 8.03888 8.37659C7.94432 8.3443 7.85845 8.2907 7.78792 8.21992Z" fill="#C52516"/>
<path d="M7.78626 8.21899C7.85721 8.28906 7.9433 8.34191 8.03789 8.37347C8.04415 7.97604 8.62873 7.24246 8.35283 6.9183L8.33511 6.89942C8.27123 6.84199 8.19275 6.8033 8.1083 6.7876L8.09109 6.78424C8.09008 7.20056 7.58338 7.85867 7.72766 8.14245C7.74389 8.17033 7.76358 8.19605 7.78626 8.21899Z" fill="#C52516"/>
<path d="M6.42376 17.4559L6.99201 17.3888L7.03451 17.3817C7.24601 17.3463 7.38789 17.1498 7.57762 16.8975L6.98593 16.9675C6.89948 17.0941 6.80119 17.2123 6.69237 17.3204C6.6197 17.3932 6.52552 17.4408 6.42376 17.4559Z" fill="#0D6AE3"/>
<path d="M6.42396 17.4571C6.52407 17.4419 6.61681 17.3954 6.68886 17.3243C6.56674 17.2683 6.45069 17.1999 6.34255 17.1201C5.9881 16.8674 5.76919 16.5046 5.35038 16.5445L5.32407 16.5489C5.21877 16.5651 5.11681 16.5984 5.0222 16.6474C5.28728 16.7393 5.48165 16.999 5.75103 17.1911C6.05095 17.4041 6.259 17.4785 6.42396 17.4571Z" fill="#0D6AE3"/>
<path d="M13.0385 6.42135L13.1248 6.75022C13.0726 6.72096 13.027 6.6813 12.9907 6.63368C12.9545 6.58607 12.9284 6.53152 12.9141 6.47341C12.8989 6.41516 12.8917 6.35514 12.8925 6.29496C12.9312 6.34738 12.9811 6.39055 13.0385 6.42135Z" fill="#EDA418"/>
<path d="M13.0138 4.76024C13.0224 4.80732 13.0262 4.85511 13.0253 4.90294C12.8459 4.65208 12.4246 4.68313 12.1007 4.49497C11.9475 4.41253 11.8312 4.27515 11.7752 4.11046C11.7723 4.09986 11.7705 4.08902 11.7697 4.07808C11.7582 4.02767 11.7537 3.97589 11.7565 3.92425C11.8241 4.02144 11.9123 4.10256 12.0147 4.16188C12.4012 4.38845 12.9291 4.29795 13.0138 4.76024Z" fill="#EDA418"/>
<path d="M13.0869 5.03062C13.1047 5.09718 13.1124 5.16603 13.1097 5.23488C13.1064 5.50073 12.8982 5.93509 12.8938 6.28748C12.8919 6.34769 12.8982 6.40788 12.9123 6.46644L12.8259 6.13656C12.7314 5.76536 13.0186 5.21892 13.0234 4.90601C13.0222 4.90172 13.0215 4.89731 13.0212 4.89285C13.0227 4.84875 13.0202 4.80459 13.0137 4.76095L13.0869 5.03062Z" fill="#EDA418"/>
<path d="M12.6107 2.21568L12.6918 2.52566L12.6979 2.56209L12.7029 2.59245C12.733 2.87767 12.3902 3.03601 12.2068 3.19573C11.9541 3.38892 11.7641 3.65795 11.7488 3.92061C11.746 3.97225 11.7504 4.02403 11.762 4.07444L11.6749 3.74675C11.6045 3.43812 11.8171 3.09872 12.1197 2.86805C12.2766 2.73044 12.5474 2.59561 12.6063 2.38184C12.6171 2.34312 12.6202 2.30266 12.6155 2.26274C12.6154 2.24694 12.6138 2.23119 12.6107 2.21568Z" fill="#EDA418"/>
<path d="M12.6092 2.20826L12.6102 2.21433C12.6144 2.22989 12.6171 2.24582 12.6182 2.26189C12.623 2.30181 12.6198 2.34227 12.609 2.38099C12.4613 2.20703 12.1802 2.10638 11.9986 2.05356C11.5682 1.9311 10.7437 1.76646 10.6576 1.43861C10.6435 1.38106 10.6507 1.32036 10.6779 1.26771C10.9333 1.49439 11.5563 1.62411 11.9123 1.72469C12.1379 1.79198 12.5334 1.93589 12.6092 2.20826Z" fill="#EDA418"/>
<defs>
<linearGradient id="paint0_linear_5942_19604" x1="5.11847" y1="10.9627" x2="5.19576" y2="11.1371" gradientUnits="userSpaceOnUse">
<stop stop-color="#AB3C00"/>
<stop offset="0.34" stop-color="#FFC700"/>
<stop offset="0.37" stop-color="#FFCD17"/>
<stop offset="0.41" stop-color="#FFD533"/>
<stop offset="0.44" stop-color="#FFDA46"/>
<stop offset="0.48" stop-color="#FFDD52"/>
<stop offset="0.52" stop-color="#FFDE56"/>
<stop offset="0.55" stop-color="#FFDD51"/>
<stop offset="0.59" stop-color="#FFD943"/>
<stop offset="0.62" stop-color="#FFD32B"/>
<stop offset="0.66" stop-color="#FFCA0B"/>
<stop offset="0.67" stop-color="#FFC700"/>
<stop offset="1" stop-color="#AB3C00"/>
</linearGradient>
<linearGradient id="paint1_linear_5942_19604" x1="2.53054" y1="12.8221" x2="2.69416" y2="13.0789" gradientUnits="userSpaceOnUse">
<stop stop-color="#005200"/>
<stop offset="0.19" stop-color="#00890B"/>
<stop offset="0.31" stop-color="#00A912"/>
<stop offset="0.33" stop-color="#11AD12"/>
<stop offset="0.37" stop-color="#3AB512"/>
<stop offset="0.41" stop-color="#5ABC12"/>
<stop offset="0.44" stop-color="#71C112"/>
<stop offset="0.48" stop-color="#7EC412"/>
<stop offset="0.51" stop-color="#83C512"/>
<stop offset="0.55" stop-color="#7FC412"/>
<stop offset="0.59" stop-color="#72C112"/>
<stop offset="0.63" stop-color="#5EBD12"/>
<stop offset="0.67" stop-color="#41B712"/>
<stop offset="0.72" stop-color="#1CAF12"/>
<stop offset="0.74" stop-color="#00A912"/>
<stop offset="0.78" stop-color="#009E10"/>
<stop offset="0.86" stop-color="#00800C"/>
<stop offset="0.95" stop-color="#005004"/>
<stop offset="1" stop-color="#003400"/>
</linearGradient>
<linearGradient id="paint2_linear_5942_19604" x1="6.90857" y1="6.00949" x2="6.39626" y2="6.1882" gradientUnits="userSpaceOnUse">
<stop stop-color="#AB3C00"/>
<stop offset="0.34" stop-color="#FFC700"/>
<stop offset="0.37" stop-color="#FFCD17"/>
<stop offset="0.41" stop-color="#FFD533"/>
<stop offset="0.44" stop-color="#FFDA46"/>
<stop offset="0.48" stop-color="#FFDD52"/>
<stop offset="0.52" stop-color="#FFDE56"/>
<stop offset="0.55" stop-color="#FFDD51"/>
<stop offset="0.59" stop-color="#FFD943"/>
<stop offset="0.62" stop-color="#FFD32B"/>
<stop offset="0.66" stop-color="#FFCA0B"/>
<stop offset="0.67" stop-color="#FFC700"/>
<stop offset="1" stop-color="#AB3C00"/>
</linearGradient>
<linearGradient id="paint3_linear_5942_19604" x1="4.63068" y1="3.80799" x2="4.80877" y2="3.91025" gradientUnits="userSpaceOnUse">
<stop stop-color="#005200"/>
<stop offset="0.19" stop-color="#00890B"/>
<stop offset="0.31" stop-color="#00A912"/>
<stop offset="0.33" stop-color="#11AD12"/>
<stop offset="0.37" stop-color="#3AB512"/>
<stop offset="0.41" stop-color="#5ABC12"/>
<stop offset="0.44" stop-color="#71C112"/>
<stop offset="0.48" stop-color="#7EC412"/>
<stop offset="0.51" stop-color="#83C512"/>
<stop offset="0.55" stop-color="#7FC412"/>
<stop offset="0.59" stop-color="#72C112"/>
<stop offset="0.63" stop-color="#5EBD12"/>
<stop offset="0.67" stop-color="#41B712"/>
<stop offset="0.72" stop-color="#1CAF12"/>
<stop offset="0.74" stop-color="#00A912"/>
<stop offset="0.78" stop-color="#009E10"/>
<stop offset="0.86" stop-color="#00800C"/>
<stop offset="0.95" stop-color="#005004"/>
<stop offset="1" stop-color="#003400"/>
</linearGradient>
<linearGradient id="paint4_linear_5942_19604" x1="10.9923" y1="9.96394" x2="11.0478" y2="9.57936" gradientUnits="userSpaceOnUse">
<stop stop-color="#920040"/>
<stop offset="0.05" stop-color="#AE0052"/>
<stop offset="0.12" stop-color="#D10069"/>
<stop offset="0.19" stop-color="#EA007A"/>
<stop offset="0.25" stop-color="#FA0084"/>
<stop offset="0.3" stop-color="#FF0087"/>
<stop offset="0.35" stop-color="#FF1A8B"/>
<stop offset="0.43" stop-color="#FF3F92"/>
<stop offset="0.5" stop-color="#FF5696"/>
<stop offset="0.55" stop-color="#FF5E97"/>
<stop offset="0.58" stop-color="#FF5696"/>
<stop offset="0.64" stop-color="#FF3F92"/>
<stop offset="0.71" stop-color="#FF198B"/>
<stop offset="0.75" stop-color="#FF0087"/>
<stop offset="0.79" stop-color="#FA0084"/>
<stop offset="0.84" stop-color="#EA007A"/>
<stop offset="0.9" stop-color="#D10069"/>
<stop offset="0.96" stop-color="#AE0053"/>
<stop offset="1" stop-color="#920040"/>
</linearGradient>
<linearGradient id="paint5_linear_5942_19604" x1="5.6573" y1="10.804" x2="6.15937" y2="10.8025" gradientUnits="userSpaceOnUse">
<stop stop-color="#400300"/>
<stop offset="0.07" stop-color="#750300"/>
<stop offset="0.14" stop-color="#A50300"/>
<stop offset="0.21" stop-color="#C80300"/>
<stop offset="0.26" stop-color="#DD0300"/>
<stop offset="0.3" stop-color="#E50300"/>
<stop offset="0.34" stop-color="#EE190C"/>
<stop offset="0.39" stop-color="#F82E18"/>
<stop offset="0.45" stop-color="#FD3C20"/>
<stop offset="0.49" stop-color="#FF4022"/>
<stop offset="0.54" stop-color="#FD3B1F"/>
<stop offset="0.6" stop-color="#F72E18"/>
<stop offset="0.66" stop-color="#EE180C"/>
<stop offset="0.7" stop-color="#E50300"/>
<stop offset="0.73" stop-color="#DB0300"/>
<stop offset="0.79" stop-color="#C20300"/>
<stop offset="0.87" stop-color="#980300"/>
<stop offset="0.95" stop-color="#5E0300"/>
<stop offset="1" stop-color="#3B0300"/>
</linearGradient>
<linearGradient id="paint6_linear_5942_19604" x1="13.1012" y1="4.96165" x2="13.5057" y2="4.83039" gradientUnits="userSpaceOnUse">
<stop stop-color="#005200"/>
<stop offset="0.19" stop-color="#00890B"/>
<stop offset="0.31" stop-color="#00A912"/>
<stop offset="0.33" stop-color="#11AD12"/>
<stop offset="0.37" stop-color="#3AB512"/>
<stop offset="0.41" stop-color="#5ABC12"/>
<stop offset="0.44" stop-color="#71C112"/>
<stop offset="0.48" stop-color="#7EC412"/>
<stop offset="0.51" stop-color="#83C512"/>
<stop offset="0.55" stop-color="#7FC412"/>
<stop offset="0.59" stop-color="#72C112"/>
<stop offset="0.63" stop-color="#5EBD12"/>
<stop offset="0.67" stop-color="#41B712"/>
<stop offset="0.72" stop-color="#1CAF12"/>
<stop offset="0.74" stop-color="#00A912"/>
<stop offset="0.78" stop-color="#009E10"/>
<stop offset="0.86" stop-color="#00800C"/>
<stop offset="0.95" stop-color="#005004"/>
<stop offset="1" stop-color="#003400"/>
</linearGradient>
<linearGradient id="paint7_linear_5942_19604" x1="4.88633" y1="13.1964" x2="4.65324" y2="13.5074" gradientUnits="userSpaceOnUse">
<stop stop-color="#0038AB"/>
<stop offset="0.11" stop-color="#0062C9"/>
<stop offset="0.27" stop-color="#0097F0"/>
<stop offset="0.35" stop-color="#00ACFF"/>
<stop offset="0.4" stop-color="#00BFFF"/>
<stop offset="0.47" stop-color="#00D2FF"/>
<stop offset="0.52" stop-color="#00D9FF"/>
<stop offset="0.66" stop-color="#00B8FF"/>
<stop offset="0.71" stop-color="#00ACFF"/>
<stop offset="0.76" stop-color="#00A2F8"/>
<stop offset="0.83" stop-color="#0086E3"/>
<stop offset="0.93" stop-color="#0059C3"/>
<stop offset="1" stop-color="#0038AB"/>
</linearGradient>
<linearGradient id="paint8_linear_5942_19604" x1="13.8214" y1="8.07485" x2="13.6929" y2="8.31907" gradientUnits="userSpaceOnUse">
<stop stop-color="#005200"/>
<stop offset="0.19" stop-color="#00890B"/>
<stop offset="0.31" stop-color="#00A912"/>
<stop offset="0.33" stop-color="#11AD12"/>
<stop offset="0.37" stop-color="#3AB512"/>
<stop offset="0.41" stop-color="#5ABC12"/>
<stop offset="0.44" stop-color="#71C112"/>
<stop offset="0.48" stop-color="#7EC412"/>
<stop offset="0.51" stop-color="#83C512"/>
<stop offset="0.55" stop-color="#7FC412"/>
<stop offset="0.59" stop-color="#72C112"/>
<stop offset="0.63" stop-color="#5EBD12"/>
<stop offset="0.67" stop-color="#41B712"/>
<stop offset="0.72" stop-color="#1CAF12"/>
<stop offset="0.74" stop-color="#00A912"/>
<stop offset="0.78" stop-color="#009E10"/>
<stop offset="0.86" stop-color="#00800C"/>
<stop offset="0.95" stop-color="#005004"/>
<stop offset="1" stop-color="#003400"/>
</linearGradient>
<linearGradient id="paint9_linear_5942_19604" x1="8.92174" y1="12.1969" x2="9.13884" y2="11.8875" gradientUnits="userSpaceOnUse">
<stop stop-color="#400300"/>
<stop offset="0.07" stop-color="#750300"/>
<stop offset="0.14" stop-color="#A50300"/>
<stop offset="0.21" stop-color="#C80300"/>
<stop offset="0.26" stop-color="#DD0300"/>
<stop offset="0.3" stop-color="#E50300"/>
<stop offset="0.34" stop-color="#EE190C"/>
<stop offset="0.39" stop-color="#F82E18"/>
<stop offset="0.45" stop-color="#FD3C20"/>
<stop offset="0.49" stop-color="#FF4022"/>
<stop offset="0.54" stop-color="#FD3B1F"/>
<stop offset="0.6" stop-color="#F72E18"/>
<stop offset="0.66" stop-color="#EE180C"/>
<stop offset="0.7" stop-color="#E50300"/>
<stop offset="0.73" stop-color="#DB0300"/>
<stop offset="0.79" stop-color="#C20300"/>
<stop offset="0.87" stop-color="#980300"/>
<stop offset="0.95" stop-color="#5E0300"/>
<stop offset="1" stop-color="#3B0300"/>
</linearGradient>
<linearGradient id="paint10_linear_5942_19604" x1="5.49996" y1="10.3059" x2="5.66904" y2="10.2481" gradientUnits="userSpaceOnUse">
<stop stop-color="#400300"/>
<stop offset="0.07" stop-color="#750300"/>
<stop offset="0.14" stop-color="#A50300"/>
<stop offset="0.21" stop-color="#C80300"/>
<stop offset="0.26" stop-color="#DD0300"/>
<stop offset="0.3" stop-color="#E50300"/>
<stop offset="0.34" stop-color="#EE190C"/>
<stop offset="0.39" stop-color="#F82E18"/>
<stop offset="0.45" stop-color="#FD3C20"/>
<stop offset="0.49" stop-color="#FF4022"/>
<stop offset="0.54" stop-color="#FD3B1F"/>
<stop offset="0.6" stop-color="#F72E18"/>
<stop offset="0.66" stop-color="#EE180C"/>
<stop offset="0.7" stop-color="#E50300"/>
<stop offset="0.73" stop-color="#DB0300"/>
<stop offset="0.79" stop-color="#C20300"/>
<stop offset="0.87" stop-color="#980300"/>
<stop offset="0.95" stop-color="#5E0300"/>
<stop offset="1" stop-color="#3B0300"/>
</linearGradient>
<linearGradient id="paint11_linear_5942_19604" x1="3.92098" y1="6.19681" x2="4.07771" y2="6.13019" gradientUnits="userSpaceOnUse">
<stop stop-color="#005200"/>
<stop offset="0.19" stop-color="#00890B"/>
<stop offset="0.31" stop-color="#00A912"/>
<stop offset="0.33" stop-color="#11AD12"/>
<stop offset="0.37" stop-color="#3AB512"/>
<stop offset="0.41" stop-color="#5ABC12"/>
<stop offset="0.44" stop-color="#71C112"/>
<stop offset="0.48" stop-color="#7EC412"/>
<stop offset="0.51" stop-color="#83C512"/>
<stop offset="0.55" stop-color="#7FC412"/>
<stop offset="0.59" stop-color="#72C112"/>
<stop offset="0.63" stop-color="#5EBD12"/>
<stop offset="0.67" stop-color="#41B712"/>
<stop offset="0.72" stop-color="#1CAF12"/>
<stop offset="0.74" stop-color="#00A912"/>
<stop offset="0.78" stop-color="#009E10"/>
<stop offset="0.86" stop-color="#00800C"/>
<stop offset="0.95" stop-color="#005004"/>
<stop offset="1" stop-color="#003400"/>
</linearGradient>
<linearGradient id="paint12_linear_5942_19604" x1="14.3076" y1="10.0789" x2="14.1866" y2="10.1366" gradientUnits="userSpaceOnUse">
<stop stop-color="#AB3C00"/>
<stop offset="0.34" stop-color="#FFC700"/>
<stop offset="0.37" stop-color="#FFCD17"/>
<stop offset="0.41" stop-color="#FFD533"/>
<stop offset="0.44" stop-color="#FFDA46"/>
<stop offset="0.48" stop-color="#FFDD52"/>
<stop offset="0.52" stop-color="#FFDE56"/>
<stop offset="0.55" stop-color="#FFDD51"/>
<stop offset="0.59" stop-color="#FFD943"/>
<stop offset="0.62" stop-color="#FFD32B"/>
<stop offset="0.66" stop-color="#FFCA0B"/>
<stop offset="0.67" stop-color="#FFC700"/>
<stop offset="1" stop-color="#AB3C00"/>
</linearGradient>
<linearGradient id="paint13_linear_5942_19604" x1="10.7894" y1="4.08711" x2="10.5479" y2="4.08892" gradientUnits="userSpaceOnUse">
<stop stop-color="#920040"/>
<stop offset="0.05" stop-color="#AE0052"/>
<stop offset="0.12" stop-color="#D10069"/>
<stop offset="0.19" stop-color="#EA007A"/>
<stop offset="0.25" stop-color="#FA0084"/>
<stop offset="0.3" stop-color="#FF0087"/>
<stop offset="0.35" stop-color="#FF1A8B"/>
<stop offset="0.43" stop-color="#FF3F92"/>
<stop offset="0.5" stop-color="#FF5696"/>
<stop offset="0.55" stop-color="#FF5E97"/>
<stop offset="0.58" stop-color="#FF5696"/>
<stop offset="0.64" stop-color="#FF3F92"/>
<stop offset="0.71" stop-color="#FF198B"/>
<stop offset="0.75" stop-color="#FF0087"/>
<stop offset="0.79" stop-color="#FA0084"/>
<stop offset="0.84" stop-color="#EA007A"/>
<stop offset="0.9" stop-color="#D10069"/>
<stop offset="0.96" stop-color="#AE0053"/>
<stop offset="1" stop-color="#920040"/>
</linearGradient>
<linearGradient id="paint14_linear_5942_19604" x1="12.6129" y1="10.8079" x2="12.5681" y2="10.9875" gradientUnits="userSpaceOnUse">
<stop stop-color="#005200"/>
<stop offset="0.19" stop-color="#00890B"/>
<stop offset="0.31" stop-color="#00A912"/>
<stop offset="0.33" stop-color="#11AD12"/>
<stop offset="0.37" stop-color="#3AB512"/>
<stop offset="0.41" stop-color="#5ABC12"/>
<stop offset="0.44" stop-color="#71C112"/>
<stop offset="0.48" stop-color="#7EC412"/>
<stop offset="0.51" stop-color="#83C512"/>
<stop offset="0.55" stop-color="#7FC412"/>
<stop offset="0.59" stop-color="#72C112"/>
<stop offset="0.63" stop-color="#5EBD12"/>
<stop offset="0.67" stop-color="#41B712"/>
<stop offset="0.72" stop-color="#1CAF12"/>
<stop offset="0.74" stop-color="#00A912"/>
<stop offset="0.78" stop-color="#009E10"/>
<stop offset="0.86" stop-color="#00800C"/>
<stop offset="0.95" stop-color="#005004"/>
<stop offset="1" stop-color="#003400"/>
</linearGradient>
<linearGradient id="paint15_linear_5942_19604" x1="11.9681" y1="5.91006" x2="11.7445" y2="6.09843" gradientUnits="userSpaceOnUse">
<stop stop-color="#AB3C00"/>
<stop offset="0.34" stop-color="#FFC700"/>
<stop offset="0.37" stop-color="#FFCD17"/>
<stop offset="0.41" stop-color="#FFD533"/>
<stop offset="0.44" stop-color="#FFDA46"/>
<stop offset="0.48" stop-color="#FFDD52"/>
<stop offset="0.52" stop-color="#FFDE56"/>
<stop offset="0.55" stop-color="#FFDD51"/>
<stop offset="0.59" stop-color="#FFD943"/>
<stop offset="0.62" stop-color="#FFD32B"/>
<stop offset="0.66" stop-color="#FFCA0B"/>
<stop offset="0.67" stop-color="#FFC700"/>
<stop offset="1" stop-color="#AB3C00"/>
</linearGradient>
<linearGradient id="paint16_linear_5942_19604" x1="4.64332" y1="12.4149" x2="4.21801" y2="12.0495" gradientUnits="userSpaceOnUse">
<stop stop-color="#005200"/>
<stop offset="0.19" stop-color="#00890B"/>
<stop offset="0.31" stop-color="#00A912"/>
<stop offset="0.33" stop-color="#11AD12"/>
<stop offset="0.37" stop-color="#3AB512"/>
<stop offset="0.41" stop-color="#5ABC12"/>
<stop offset="0.44" stop-color="#71C112"/>
<stop offset="0.48" stop-color="#7EC412"/>
<stop offset="0.51" stop-color="#83C512"/>
<stop offset="0.55" stop-color="#7FC412"/>
<stop offset="0.59" stop-color="#72C112"/>
<stop offset="0.63" stop-color="#5EBD12"/>
<stop offset="0.67" stop-color="#41B712"/>
<stop offset="0.72" stop-color="#1CAF12"/>
<stop offset="0.74" stop-color="#00A912"/>
<stop offset="0.78" stop-color="#009E10"/>
<stop offset="0.86" stop-color="#00800C"/>
<stop offset="0.95" stop-color="#005004"/>
<stop offset="1" stop-color="#003400"/>
</linearGradient>
<linearGradient id="paint17_linear_5942_19604" x1="14.1617" y1="15.5115" x2="14.2866" y2="15.3291" gradientUnits="userSpaceOnUse">
<stop stop-color="#400300"/>
<stop offset="0.07" stop-color="#750300"/>
<stop offset="0.14" stop-color="#A50300"/>
<stop offset="0.21" stop-color="#C80300"/>
<stop offset="0.26" stop-color="#DD0300"/>
<stop offset="0.3" stop-color="#E50300"/>
<stop offset="0.34" stop-color="#EE190C"/>
<stop offset="0.39" stop-color="#F82E18"/>
<stop offset="0.45" stop-color="#FD3C20"/>
<stop offset="0.49" stop-color="#FF4022"/>
<stop offset="0.54" stop-color="#FD3B1F"/>
<stop offset="0.6" stop-color="#F72E18"/>
<stop offset="0.66" stop-color="#EE180C"/>
<stop offset="0.7" stop-color="#E50300"/>
<stop offset="0.73" stop-color="#DB0300"/>
<stop offset="0.79" stop-color="#C20300"/>
<stop offset="0.87" stop-color="#980300"/>
<stop offset="0.95" stop-color="#5E0300"/>
<stop offset="1" stop-color="#3B0300"/>
</linearGradient>
<linearGradient id="paint18_linear_5942_19604" x1="4.03955" y1="6.93203" x2="4.00163" y2="7.41551" gradientUnits="userSpaceOnUse">
<stop stop-color="#005200"/>
<stop offset="0.19" stop-color="#00890B"/>
<stop offset="0.31" stop-color="#00A912"/>
<stop offset="0.33" stop-color="#11AD12"/>
<stop offset="0.37" stop-color="#3AB512"/>
<stop offset="0.41" stop-color="#5ABC12"/>
<stop offset="0.44" stop-color="#71C112"/>
<stop offset="0.48" stop-color="#7EC412"/>
<stop offset="0.51" stop-color="#83C512"/>
<stop offset="0.55" stop-color="#7FC412"/>
<stop offset="0.59" stop-color="#72C112"/>
<stop offset="0.63" stop-color="#5EBD12"/>
<stop offset="0.67" stop-color="#41B712"/>
<stop offset="0.72" stop-color="#1CAF12"/>
<stop offset="0.74" stop-color="#00A912"/>
<stop offset="0.78" stop-color="#009E10"/>
<stop offset="0.86" stop-color="#00800C"/>
<stop offset="0.95" stop-color="#005004"/>
<stop offset="1" stop-color="#003400"/>
</linearGradient>
<linearGradient id="paint19_linear_5942_19604" x1="5.94977" y1="6.50496" x2="5.87027" y2="7.0605" gradientUnits="userSpaceOnUse">
<stop stop-color="#920040"/>
<stop offset="0.05" stop-color="#AE0052"/>
<stop offset="0.12" stop-color="#D10069"/>
<stop offset="0.19" stop-color="#EA007A"/>
<stop offset="0.25" stop-color="#FA0084"/>
<stop offset="0.3" stop-color="#FF0087"/>
<stop offset="0.35" stop-color="#FF1A8B"/>
<stop offset="0.43" stop-color="#FF3F92"/>
<stop offset="0.5" stop-color="#FF5696"/>
<stop offset="0.55" stop-color="#FF5E97"/>
<stop offset="0.58" stop-color="#FF5696"/>
<stop offset="0.64" stop-color="#FF3F92"/>
<stop offset="0.71" stop-color="#FF198B"/>
<stop offset="0.75" stop-color="#FF0087"/>
<stop offset="0.79" stop-color="#FA0084"/>
<stop offset="0.84" stop-color="#EA007A"/>
<stop offset="0.9" stop-color="#D10069"/>
<stop offset="0.96" stop-color="#AE0053"/>
<stop offset="1" stop-color="#920040"/>
</linearGradient>
<linearGradient id="paint20_linear_5942_19604" x1="4.38231" y1="13.585" x2="4.43434" y2="13.8616" gradientUnits="userSpaceOnUse">
<stop stop-color="#400300"/>
<stop offset="0.07" stop-color="#750300"/>
<stop offset="0.14" stop-color="#A50300"/>
<stop offset="0.21" stop-color="#C80300"/>
<stop offset="0.26" stop-color="#DD0300"/>
<stop offset="0.3" stop-color="#E50300"/>
<stop offset="0.34" stop-color="#EE190C"/>
<stop offset="0.39" stop-color="#F82E18"/>
<stop offset="0.45" stop-color="#FD3C20"/>
<stop offset="0.49" stop-color="#FF4022"/>
<stop offset="0.54" stop-color="#FD3B1F"/>
<stop offset="0.6" stop-color="#F72E18"/>
<stop offset="0.66" stop-color="#EE180C"/>
<stop offset="0.7" stop-color="#E50300"/>
<stop offset="0.73" stop-color="#DB0300"/>
<stop offset="0.79" stop-color="#C20300"/>
<stop offset="0.87" stop-color="#980300"/>
<stop offset="0.95" stop-color="#5E0300"/>
<stop offset="1" stop-color="#3B0300"/>
</linearGradient>
<linearGradient id="paint21_linear_5942_19604" x1="6.58226" y1="7.22359" x2="6.71145" y2="7.02506" gradientUnits="userSpaceOnUse">
<stop stop-color="#005200"/>
<stop offset="0.19" stop-color="#00890B"/>
<stop offset="0.31" stop-color="#00A912"/>
<stop offset="0.33" stop-color="#11AD12"/>
<stop offset="0.37" stop-color="#3AB512"/>
<stop offset="0.41" stop-color="#5ABC12"/>
<stop offset="0.44" stop-color="#71C112"/>
<stop offset="0.48" stop-color="#7EC412"/>
<stop offset="0.51" stop-color="#83C512"/>
<stop offset="0.55" stop-color="#7FC412"/>
<stop offset="0.59" stop-color="#72C112"/>
<stop offset="0.63" stop-color="#5EBD12"/>
<stop offset="0.67" stop-color="#41B712"/>
<stop offset="0.72" stop-color="#1CAF12"/>
<stop offset="0.74" stop-color="#00A912"/>
<stop offset="0.78" stop-color="#009E10"/>
<stop offset="0.86" stop-color="#00800C"/>
<stop offset="0.95" stop-color="#005004"/>
<stop offset="1" stop-color="#003400"/>
</linearGradient>
<linearGradient id="paint22_linear_5942_19604" x1="16.0108" y1="9.20942" x2="15.7263" y2="9.52567" gradientUnits="userSpaceOnUse">
<stop stop-color="#0038AB"/>
<stop offset="0.11" stop-color="#0062C9"/>
<stop offset="0.27" stop-color="#0097F0"/>
<stop offset="0.35" stop-color="#00ACFF"/>
<stop offset="0.4" stop-color="#00BFFF"/>
<stop offset="0.47" stop-color="#00D2FF"/>
<stop offset="0.52" stop-color="#00D9FF"/>
<stop offset="0.66" stop-color="#00B8FF"/>
<stop offset="0.71" stop-color="#00ACFF"/>
<stop offset="0.76" stop-color="#00A2F8"/>
<stop offset="0.83" stop-color="#0086E3"/>
<stop offset="0.93" stop-color="#0059C3"/>
<stop offset="1" stop-color="#0038AB"/>
</linearGradient>
<linearGradient id="paint23_linear_5942_19604" x1="9.57059" y1="9.55511" x2="9.77436" y2="9.49346" gradientUnits="userSpaceOnUse">
<stop stop-color="#AB3C00"/>
<stop offset="0.34" stop-color="#FFC700"/>
<stop offset="0.37" stop-color="#FFCD17"/>
<stop offset="0.41" stop-color="#FFD533"/>
<stop offset="0.44" stop-color="#FFDA46"/>
<stop offset="0.48" stop-color="#FFDD52"/>
<stop offset="0.52" stop-color="#FFDE56"/>
<stop offset="0.55" stop-color="#FFDD51"/>
<stop offset="0.59" stop-color="#FFD943"/>
<stop offset="0.62" stop-color="#FFD32B"/>
<stop offset="0.66" stop-color="#FFCA0B"/>
<stop offset="0.67" stop-color="#FFC700"/>
<stop offset="1" stop-color="#AB3C00"/>
</linearGradient>
<linearGradient id="paint24_linear_5942_19604" x1="2.64603" y1="16.0374" x2="2.5569" y2="16.4033" gradientUnits="userSpaceOnUse">
<stop stop-color="#005200"/>
<stop offset="0.19" stop-color="#00890B"/>
<stop offset="0.31" stop-color="#00A912"/>
<stop offset="0.33" stop-color="#11AD12"/>
<stop offset="0.37" stop-color="#3AB512"/>
<stop offset="0.41" stop-color="#5ABC12"/>
<stop offset="0.44" stop-color="#71C112"/>
<stop offset="0.48" stop-color="#7EC412"/>
<stop offset="0.51" stop-color="#83C512"/>
<stop offset="0.55" stop-color="#7FC412"/>
<stop offset="0.59" stop-color="#72C112"/>
<stop offset="0.63" stop-color="#5EBD12"/>
<stop offset="0.67" stop-color="#41B712"/>
<stop offset="0.72" stop-color="#1CAF12"/>
<stop offset="0.74" stop-color="#00A912"/>
<stop offset="0.78" stop-color="#009E10"/>
<stop offset="0.86" stop-color="#00800C"/>
<stop offset="0.95" stop-color="#005004"/>
<stop offset="1" stop-color="#003400"/>
</linearGradient>
<linearGradient id="paint25_linear_5942_19604" x1="9.12475" y1="5.55748" x2="9.18564" y2="5.77402" gradientUnits="userSpaceOnUse">
<stop stop-color="#920040"/>
<stop offset="0.05" stop-color="#AE0052"/>
<stop offset="0.12" stop-color="#D10069"/>
<stop offset="0.19" stop-color="#EA007A"/>
<stop offset="0.25" stop-color="#FA0084"/>
<stop offset="0.3" stop-color="#FF0087"/>
<stop offset="0.35" stop-color="#FF1A8B"/>
<stop offset="0.43" stop-color="#FF3F92"/>
<stop offset="0.5" stop-color="#FF5696"/>
<stop offset="0.55" stop-color="#FF5E97"/>
<stop offset="0.58" stop-color="#FF5696"/>
<stop offset="0.64" stop-color="#FF3F92"/>
<stop offset="0.71" stop-color="#FF198B"/>
<stop offset="0.75" stop-color="#FF0087"/>
<stop offset="0.79" stop-color="#FA0084"/>
<stop offset="0.84" stop-color="#EA007A"/>
<stop offset="0.9" stop-color="#D10069"/>
<stop offset="0.96" stop-color="#AE0053"/>
<stop offset="1" stop-color="#920040"/>
</linearGradient>
<linearGradient id="paint26_linear_5942_19604" x1="10.7791" y1="8.19028" x2="10.8602" y2="8.50004" gradientUnits="userSpaceOnUse">
<stop stop-color="#005200"/>
<stop offset="0.19" stop-color="#00890B"/>
<stop offset="0.31" stop-color="#00A912"/>
<stop offset="0.33" stop-color="#11AD12"/>
<stop offset="0.37" stop-color="#3AB512"/>
<stop offset="0.41" stop-color="#5ABC12"/>
<stop offset="0.44" stop-color="#71C112"/>
<stop offset="0.48" stop-color="#7EC412"/>
<stop offset="0.51" stop-color="#83C512"/>
<stop offset="0.55" stop-color="#7FC412"/>
<stop offset="0.59" stop-color="#72C112"/>
<stop offset="0.63" stop-color="#5EBD12"/>
<stop offset="0.67" stop-color="#41B712"/>
<stop offset="0.72" stop-color="#1CAF12"/>
<stop offset="0.74" stop-color="#00A912"/>
<stop offset="0.78" stop-color="#009E10"/>
<stop offset="0.86" stop-color="#00800C"/>
<stop offset="0.95" stop-color="#005004"/>
<stop offset="1" stop-color="#003400"/>
</linearGradient>
<linearGradient id="paint27_linear_5942_19604" x1="7.16817" y1="19.3428" x2="7.24067" y2="19.0717" gradientUnits="userSpaceOnUse">
<stop stop-color="#005200"/>
<stop offset="0.19" stop-color="#00890B"/>
<stop offset="0.31" stop-color="#00A912"/>
<stop offset="0.33" stop-color="#11AD12"/>
<stop offset="0.37" stop-color="#3AB512"/>
<stop offset="0.41" stop-color="#5ABC12"/>
<stop offset="0.44" stop-color="#71C112"/>
<stop offset="0.48" stop-color="#7EC412"/>
<stop offset="0.51" stop-color="#83C512"/>
<stop offset="0.55" stop-color="#7FC412"/>
<stop offset="0.59" stop-color="#72C112"/>
<stop offset="0.63" stop-color="#5EBD12"/>
<stop offset="0.67" stop-color="#41B712"/>
<stop offset="0.72" stop-color="#1CAF12"/>
<stop offset="0.74" stop-color="#00A912"/>
<stop offset="0.78" stop-color="#009E10"/>
<stop offset="0.86" stop-color="#00800C"/>
<stop offset="0.95" stop-color="#005004"/>
<stop offset="1" stop-color="#003400"/>
</linearGradient>
<linearGradient id="paint28_linear_5942_19604" x1="0.197366" y1="10.0293" x2="0.156373" y2="10.2765" gradientUnits="userSpaceOnUse">
<stop stop-color="#0038AB"/>
<stop offset="0.11" stop-color="#0062C9"/>
<stop offset="0.27" stop-color="#0097F0"/>
<stop offset="0.35" stop-color="#00ACFF"/>
<stop offset="0.4" stop-color="#00BFFF"/>
<stop offset="0.47" stop-color="#00D2FF"/>
<stop offset="0.52" stop-color="#00D9FF"/>
<stop offset="0.66" stop-color="#00B8FF"/>
<stop offset="0.71" stop-color="#00ACFF"/>
<stop offset="0.76" stop-color="#00A2F8"/>
<stop offset="0.83" stop-color="#0086E3"/>
<stop offset="0.93" stop-color="#0059C3"/>
<stop offset="1" stop-color="#0038AB"/>
</linearGradient>
<linearGradient id="paint29_linear_5942_19604" x1="0.939857" y1="7.34783" x2="0.63055" y2="9.35999" gradientUnits="userSpaceOnUse">
<stop stop-color="#003400"/>
<stop offset="0.08" stop-color="#005205"/>
<stop offset="0.19" stop-color="#00780A"/>
<stop offset="0.3" stop-color="#00930F"/>
<stop offset="0.4" stop-color="#00A311"/>
<stop offset="0.47" stop-color="#00A912"/>
<stop offset="0.6" stop-color="#00A912"/>
<stop offset="0.67" stop-color="#009E10"/>
<stop offset="0.78" stop-color="#00800C"/>
<stop offset="0.92" stop-color="#005004"/>
<stop offset="1" stop-color="#003400"/>
</linearGradient>
</defs>
</svg>
