<svg width="42" height="42" viewBox="0 0 42 42" fill="none" xmlns="http://www.w3.org/2000/svg">
<path d="M30.1214 9.18787C30.0119 9.19934 29.907 9.23816 29.8164 9.30081C29.7258 9.36346 29.6525 9.44791 29.6031 9.54636L25.6646 17.4233C25.6205 17.5008 25.5926 17.5864 25.5827 17.675C25.5728 17.7637 25.581 17.8534 25.6069 17.9388C25.6328 18.0241 25.6758 18.1032 25.7333 18.1714C25.7909 18.2395 25.8617 18.2953 25.9414 18.3352C26.0212 18.3751 26.1082 18.3983 26.1973 18.4034C26.2863 18.4085 26.3754 18.3954 26.4592 18.3649C26.543 18.3344 26.6198 18.2872 26.6847 18.2261C26.7496 18.165 26.8015 18.0913 26.837 18.0095L30.5913 10.4959H37.4074C37.4979 10.5035 37.589 10.4922 37.675 10.4629C37.7609 10.4335 37.8399 10.3866 37.9068 10.3251C37.9736 10.2636 38.027 10.1889 38.0636 10.1057C38.1001 10.0225 38.119 9.93271 38.119 9.84186C38.119 9.75102 38.1001 9.66118 38.0636 9.578C38.027 9.49482 37.9736 9.42011 37.9068 9.35864C37.8399 9.29716 37.7609 9.25027 37.675 9.22088C37.589 9.19148 37.4979 9.18022 37.4074 9.18787H30.1893C30.1667 9.18671 30.144 9.18671 30.1215 9.18787H30.1214Z" fill="#3A7492"/>
<path d="M3.58869 1.19943C3.46962 1.2024 3.3536 1.23774 3.25307 1.30162C3.15254 1.3655 3.07129 1.45555 3.01802 1.56208C2.96475 1.66861 2.94148 1.78758 2.9507 1.90633C2.95992 2.02508 3.00128 2.13909 3.07035 2.23613L4.05375 3.65553C4.10294 3.72674 4.16569 3.78755 4.23842 3.83447C4.31115 3.88138 4.39242 3.91348 4.47758 3.92893C4.56274 3.94438 4.65011 3.94284 4.73468 3.92447C4.81926 3.90609 4.89937 3.87122 4.97044 3.82183C5.04151 3.77243 5.10213 3.70955 5.14883 3.63668C5.19553 3.56381 5.22739 3.48239 5.24259 3.39719C5.25779 3.31198 5.25602 3.22465 5.2374 3.14013C5.21877 3.05561 5.18365 2.97557 5.13404 2.90465L4.15064 1.4901C4.08905 1.39822 4.00524 1.32337 3.907 1.27255C3.80875 1.22174 3.69926 1.1966 3.58869 1.19943Z" fill="#3A7492"/>
<path d="M8.04084 7.60363C7.92097 7.60599 7.80404 7.64115 7.70273 7.70528C7.60143 7.76941 7.51963 7.86007 7.46621 7.96741C7.41279 8.07474 7.38979 8.19467 7.39971 8.31416C7.40964 8.43364 7.4521 8.54811 7.5225 8.64516L13.9316 17.8688C13.9805 17.9399 14.043 18.0006 14.1154 18.0475C14.1878 18.0945 14.2688 18.1266 14.3536 18.1422C14.4385 18.1578 14.5256 18.1566 14.61 18.1385C14.6943 18.1204 14.7743 18.0858 14.8453 18.0368C14.9163 17.9878 14.977 17.9252 15.0238 17.8527C15.0706 17.7802 15.1026 17.6992 15.1181 17.6144C15.1336 17.5295 15.1322 17.4423 15.1139 17.358C15.0957 17.2736 15.061 17.1937 15.0119 17.1228L8.59795 7.89429C8.5368 7.80311 8.45377 7.72874 8.35644 7.67796C8.25911 7.62718 8.1506 7.60162 8.04084 7.60363Z" fill="#3A7492"/>
<path d="M9.84262 17.0586C9.73531 17.059 9.62974 17.0857 9.53515 17.1364C9.44056 17.1871 9.35984 17.2601 9.30005 17.3493C7.44499 20.0822 6.56299 23.2949 6.56299 27.5612C6.56299 32.3898 8.12008 35.7496 10.7485 37.8264C13.377 39.9032 16.9759 40.6846 20.9992 40.6846C25.0224 40.6846 28.6214 39.9032 31.2499 37.8264C33.8783 35.7496 35.4354 32.3898 35.4354 27.5612C35.4354 23.3404 34.5092 20.066 32.7032 17.3541C32.6435 17.2634 32.5622 17.189 32.4667 17.1374C32.3712 17.0858 32.2643 17.0587 32.1558 17.0586H9.84262Z" fill="#62A446"/>
<path d="M30.4602 28.8836C30.2778 28.8914 30.1059 28.9713 29.9824 29.1057C29.8589 29.2401 29.7937 29.4182 29.8014 29.6006C29.9112 32.9357 27.2432 35.413 24.0027 35.7626C23.9127 35.7725 23.8255 35.8 23.7461 35.8435C23.6667 35.8871 23.5966 35.9459 23.54 36.0165C23.4833 36.0871 23.4411 36.1682 23.4157 36.2551C23.3904 36.3421 23.3824 36.4332 23.3923 36.5232C23.4021 36.6132 23.4296 36.7004 23.4732 36.7798C23.5168 36.8592 23.5755 36.9292 23.6462 36.9859C23.7168 37.0426 23.7979 37.0848 23.8848 37.1101C23.9718 37.1354 24.0628 37.1434 24.1529 37.1336C28.0152 36.7169 31.3169 33.6514 31.182 29.557C31.1801 29.465 31.1597 29.3743 31.1221 29.2903C31.0846 29.2063 31.0305 29.1307 30.9633 29.0679C30.896 29.0052 30.8168 28.9565 30.7304 28.9249C30.644 28.8932 30.5521 28.8792 30.4602 28.8836H30.4602Z" fill="#ADDE98"/>
<path d="M10.0366 2.1282C7.98128 1.67663 5.90823 2.00518 4.4365 3.01472C1.52169 5.01383 0.266011 10.1756 3.16243 14.2585C3.16912 14.2709 3.16039 14.2888 3.16739 14.3022L3.17706 14.2922C3.19814 14.3218 3.19914 14.3549 3.22067 14.3842C3.31759 14.5192 3.46209 14.6124 3.62501 14.645C3.78793 14.6776 3.95715 14.6471 4.09853 14.5598C4.23991 14.4725 4.34292 14.3349 4.38678 14.1746C4.43064 14.0144 4.41209 13.8434 4.33487 13.6963C4.15423 13.3491 4.08631 12.6701 4.19438 12.0589C4.30245 11.4477 4.61317 10.93 4.76117 10.8285C4.90922 10.727 5.26828 10.705 5.74458 10.8721C6.22088 11.0393 6.74631 11.3655 7.07193 11.6472C7.18165 11.7415 7.31944 11.7969 7.46389 11.8048C7.60833 11.8127 7.75134 11.7727 7.87067 11.6909C7.99001 11.6091 8.07898 11.4902 8.12377 11.3526C8.16855 11.2151 8.16664 11.0666 8.11832 10.9303C7.97272 10.525 7.85571 9.91852 7.87125 9.41397C7.88688 8.9094 8.03329 8.58053 8.18129 8.47901C8.32934 8.37757 8.69148 8.3575 9.17923 8.52269C9.66699 8.68788 10.2117 9.00745 10.5793 9.2881C10.689 9.37094 10.8219 9.41719 10.9594 9.42041C11.0968 9.42363 11.2318 9.38365 11.3453 9.30604C11.4587 9.22842 11.545 9.11715 11.5918 8.9879C11.6386 8.85864 11.6437 8.71795 11.6063 8.58566C11.4768 8.14171 11.3765 7.51612 11.398 7.00156C11.4195 6.48701 11.5697 6.15842 11.7177 6.0569C11.8658 5.95546 12.4566 5.85227 13.0547 5.97455C13.6529 6.09683 14.234 6.40957 14.4644 6.70121C14.568 6.83722 14.7204 6.92748 14.8895 6.95281C15.0585 6.97814 15.2307 6.93655 15.3696 6.83685C15.5084 6.73715 15.6029 6.58721 15.6329 6.41895C15.6629 6.25068 15.626 6.07733 15.5302 5.9358C15.5181 5.91843 15.4988 5.91048 15.4866 5.89212L15.4963 5.8872C15.4888 5.87728 15.4747 5.87729 15.4672 5.86737C14.0694 3.79777 12.0652 2.57318 10.0367 2.12752L10.0366 2.1282Z" fill="#F3B744"/>
<path d="M9.8429 17.0586C9.73559 17.059 9.63002 17.0857 9.53543 17.1364C9.44084 17.1871 9.36011 17.2601 9.30033 17.3493C8.77695 18.1203 8.34155 18.9252 7.97297 19.7617C7.91494 19.8938 7.902 20.0412 7.93615 20.1813C7.9703 20.3214 8.04963 20.4463 8.1619 20.5368C8.90577 21.1355 9.13448 21.6971 9.39721 22.2663C9.52857 22.5509 9.66044 22.8553 9.93009 23.1334C10.1997 23.4116 10.6242 23.6011 11.0782 23.6227C12.5508 23.6927 13.5792 22.8786 14.3675 22.1936C15.1558 21.5087 15.7272 20.9971 16.407 20.9971C17.0998 20.9971 17.7052 21.4845 18.398 22.1306C19.0908 22.7767 19.8435 23.622 20.9995 23.6227C22.1559 23.6234 22.908 22.7819 23.6009 22.1355C24.2937 21.4891 24.8993 20.9971 25.5919 20.9971C26.2706 20.9971 26.8116 21.5016 27.5781 22.1888C28.3447 22.8759 29.3645 23.6989 30.8384 23.6227C31.2936 23.5979 31.7147 23.4047 31.9865 23.1286C32.2583 22.8524 32.3966 22.552 32.5339 22.2663C32.8085 21.6947 33.0501 21.1287 33.808 20.5272C33.9211 20.4373 34.0014 20.3127 34.0364 20.1725C34.0714 20.0324 34.0593 19.8846 34.0018 19.7521C33.6368 18.9185 33.2101 18.1149 32.7035 17.3541C32.6438 17.2634 32.5625 17.189 32.467 17.1374C32.3715 17.0858 32.2646 17.0587 32.1561 17.0586H9.8429Z" fill="#F6CB79"/>
</svg>
