<svg width="25" height="25" viewBox="0 0 25 25" fill="none" xmlns="http://www.w3.org/2000/svg">
<g clip-path="url(#clip0_1043_31964)">
<path d="M21.2806 13.031L14.5306 19.781C14.3899 19.9218 14.199 20.0008 14 20.0008C13.801 20.0008 13.6101 19.9218 13.4694 19.781C13.3286 19.6403 13.2496 19.4494 13.2496 19.2504C13.2496 19.0514 13.3286 18.8605 13.4694 18.7198L18.9397 13.2504H4.25C4.05109 13.2504 3.86032 13.1714 3.71967 13.0307C3.57902 12.8901 3.5 12.6993 3.5 12.5004C3.5 12.3015 3.57902 12.1107 3.71967 11.9701C3.86032 11.8294 4.05109 11.7504 4.25 11.7504H18.9397L13.4694 6.28104C13.3286 6.14031 13.2496 5.94944 13.2496 5.75042C13.2496 5.55139 13.3286 5.36052 13.4694 5.21979C13.6101 5.07906 13.801 5 14 5C14.199 5 14.3899 5.07906 14.5306 5.21979L21.2806 11.9698C21.3504 12.0394 21.4057 12.1222 21.4434 12.2132C21.4812 12.3043 21.5006 12.4019 21.5006 12.5004C21.5006 12.599 21.4812 12.6966 21.4434 12.7876C21.4057 12.8787 21.3504 12.9614 21.2806 13.031Z" fill="#387E1B"/>
</g>
<defs>
<clipPath id="clip0_1043_31964">
<rect width="24" height="24" fill="white" transform="translate(0.5 0.5)"/>
</clipPath>
</defs>
</svg>
