<svg width="57" height="56" viewBox="0 0 57 56" fill="none" xmlns="http://www.w3.org/2000/svg">
<circle cx="28.0029" cy="28" r="28" fill="#F0FBEA"/>
<mask id="mask0_5891_14294" style="mask-type:alpha" maskUnits="userSpaceOnUse" x="0" y="0" width="57" height="56">
<circle cx="28.0029" cy="28" r="28" fill="#F0FBEA"/>
</mask>
<g mask="url(#mask0_5891_14294)">
<path d="M39.7539 44.0671H28.0684C28.0251 44.0704 27.9819 44.0591 27.9457 44.0351C27.9095 44.0111 27.8824 43.9756 27.8686 43.9344C27.8549 43.8932 27.8553 43.8485 27.8699 43.8076C27.8844 43.7666 27.9122 43.7317 27.9488 43.7084L29.1231 42.9311C29.2298 42.8616 29.3198 42.7694 29.3868 42.661C29.4538 42.5527 29.496 42.431 29.5106 42.3045L29.8932 38.5879H37.941L38.3237 42.3045C38.3382 42.4311 38.3806 42.553 38.4478 42.6614C38.515 42.7697 38.6053 42.8618 38.7123 42.9311L39.8854 43.7084C39.9238 43.7319 39.9528 43.768 39.9675 43.8105C39.9823 43.853 39.9819 43.8993 39.9664 43.9415C39.9509 43.9838 39.9213 44.0193 39.8825 44.0422C39.8438 44.0651 39.7984 44.0739 39.7539 44.0671Z" fill="#62A446"/>
<path d="M53.0323 10.8662H14.7855C14.2492 10.8662 13.8145 11.3009 13.8145 11.8372V37.5962C13.8145 38.1325 14.2492 38.5672 14.7855 38.5672H53.0323C53.5686 38.5672 54.0033 38.1325 54.0033 37.5962V11.8372C54.0033 11.3009 53.5686 10.8662 53.0323 10.8662Z" fill="#62A446"/>
<path d="M52.3232 12.668H15.4946V33.1929H52.3232V12.668Z" fill="#D6F1CA"/>
<path d="M22.7159 29.1973H0.354218H-0.965958C-1.4943 29.1973 -1.92261 29.6256 -1.92261 30.1539V31.4741V46.1563C-1.92261 46.6846 -1.4943 47.1129 -0.965958 47.1129H24.0313C24.5596 47.1129 24.9879 46.6846 24.9879 46.1563V31.4693C24.9879 30.8668 25.0864 29.9512 24.6603 29.5251C24.2342 29.099 23.3185 29.1973 22.7159 29.1973Z" fill="#387E1B"/>
<path d="M27.998 47.1133H-5.17505V47.4888H27.998V47.1133Z" fill="#387E1B"/>
<path d="M13.7966 47.1208C13.7956 47.1687 13.7844 47.2159 13.7638 47.2592C13.7432 47.3025 13.7136 47.3409 13.677 47.3719C13.603 47.4397 13.5059 47.4769 13.4055 47.4759H9.4474C9.39852 47.4778 9.34974 47.4701 9.30387 47.453C9.25801 47.436 9.21597 47.4101 9.18017 47.3767C9.14438 47.3434 9.11554 47.3033 9.09532 47.2587C9.07509 47.2142 9.06389 47.1661 9.06235 47.1172H9.05518V47.1435C9.05672 47.1924 9.06792 47.2405 9.08814 47.285C9.10836 47.3296 9.1372 47.3697 9.173 47.4031C9.20879 47.4364 9.25083 47.4623 9.2967 47.4794C9.34256 47.4964 9.39134 47.5042 9.44023 47.5022H13.4342C13.4831 47.5042 13.5319 47.4964 13.5778 47.4794C13.6236 47.4623 13.6657 47.4364 13.7015 47.4031C13.7373 47.3697 13.7661 47.3296 13.7863 47.285C13.8065 47.2405 13.8177 47.1924 13.8193 47.1435V47.1172L13.7966 47.1208Z" fill="#174604" stroke="#236609" stroke-miterlimit="10"/>
<path d="M-5.09019 47.4941C-5.0923 47.4949 -5.09413 47.4962 -5.09542 47.4981C-5.09672 47.4999 -5.09741 47.5021 -5.09741 47.5043C-5.09741 47.5065 -5.09672 47.5087 -5.09542 47.5105C-5.09413 47.5124 -5.0923 47.5137 -5.09019 47.5145C-3.93697 47.7954 -2.75426 47.9371 -1.56733 47.9366H24.432C25.6198 47.9374 26.8033 47.7957 27.9573 47.5145C27.9594 47.5137 27.9612 47.5124 27.9625 47.5105C27.9638 47.5087 27.9645 47.5065 27.9645 47.5043C27.9645 47.5021 27.9638 47.4999 27.9625 47.4981C27.9612 47.4962 27.9594 47.4949 27.9573 47.4941H-5.09019Z" fill="#387E1B"/>
<path d="M24.3567 30.335H-1.2229V46.1615H24.3567V30.335Z" fill="#D6F1CA"/>
<path d="M49.678 35.7512V46.9045C49.6781 46.9446 49.6749 46.9846 49.6685 47.0241C49.6691 47.0333 49.6691 47.0425 49.6685 47.0516C49.6604 47.0984 49.6472 47.1441 49.629 47.188L49.6182 47.2143C49.594 47.2688 49.5639 47.3205 49.5285 47.3685L49.5178 47.3817C49.4929 47.4131 49.4657 47.4427 49.4365 47.4702C49.4247 47.4812 49.4123 47.4915 49.3994 47.5013C49.3956 47.5055 49.3912 47.5092 49.3862 47.512L49.3444 47.5431L49.3181 47.5599L49.2882 47.5778L49.2571 47.5933L49.2416 47.6005L49.226 47.6077L49.1782 47.6268L49.1447 47.6376H49.128L49.0765 47.6495H49.0598H49.0419L49.006 47.6555H48.9809H44.2036H44.1629H44.1785C43.9919 47.6341 43.8197 47.545 43.6945 47.405C43.5693 47.265 43.4998 47.084 43.4993 46.8962V35.7512C43.4996 35.5555 43.5749 35.3674 43.7097 35.2255C43.8445 35.0836 44.0285 34.9987 44.2239 34.9883H48.9737H48.994C49.1822 35.0084 49.3562 35.0975 49.4825 35.2384C49.6089 35.3793 49.6785 35.562 49.678 35.7512Z" fill="#ADDE98"/>
<path d="M44.2634 34.8828C44.0332 34.8828 43.8124 34.9743 43.6495 35.1371C43.4867 35.2999 43.3953 35.5207 43.3953 35.751V46.9043C43.3953 47.1346 43.4867 47.3554 43.6495 47.5182C43.8124 47.681 44.0332 47.7725 44.2634 47.7725H48.9139C49.1442 47.7725 49.365 47.681 49.5278 47.5182C49.6906 47.3554 49.7821 47.1346 49.7821 46.9043V35.751C49.7821 35.5207 49.6906 35.2999 49.5278 35.1371C49.365 34.9743 49.1442 34.8828 48.9139 34.8828" fill="#387E1B"/>
<path d="M46.9014 35.4137H46.2365C46.2314 35.4137 46.2263 35.4126 46.2216 35.4106C46.2169 35.4086 46.2126 35.4057 46.209 35.402C46.2055 35.3984 46.2027 35.394 46.2008 35.3892C46.199 35.3844 46.1981 35.3793 46.1983 35.3742C46.1983 35.3641 46.2023 35.3543 46.2095 35.3471C46.2166 35.34 46.2264 35.3359 46.2365 35.3359H46.9014C46.9115 35.3359 46.9213 35.34 46.9285 35.3471C46.9356 35.3543 46.9397 35.3641 46.9397 35.3742C46.9398 35.3793 46.939 35.3844 46.9371 35.3892C46.9353 35.394 46.9325 35.3984 46.9289 35.402C46.9253 35.4057 46.921 35.4086 46.9163 35.4106C46.9116 35.4126 46.9065 35.4137 46.9014 35.4137Z" fill="#ADDE98" stroke="white" stroke-width="0.5" stroke-miterlimit="10"/>
<path d="M48.9317 35.2881H48.2298C48.2113 35.2889 48.1937 35.2963 48.1803 35.3091C48.1669 35.3218 48.1585 35.339 48.1568 35.3574V35.3658C48.1534 35.4619 48.1129 35.553 48.0438 35.6199C47.9747 35.6868 47.8823 35.7243 47.7861 35.7246H45.3658C45.2696 35.7246 45.1772 35.6871 45.1083 35.6202C45.0393 35.5532 44.9991 35.4619 44.9963 35.3658C44.9963 35.3658 44.9963 35.3658 44.9963 35.3574C44.9946 35.339 44.9862 35.3218 44.9728 35.3091C44.9594 35.2963 44.9418 35.2889 44.9234 35.2881H44.2214C44.1035 35.2957 43.9929 35.3479 43.9121 35.434C43.8312 35.5202 43.7862 35.6339 43.7861 35.7521V46.9042C43.7866 47.0214 43.8309 47.1341 43.9104 47.2202C43.9899 47.3063 44.0987 47.3595 44.2154 47.3694H48.9389C49.0556 47.3595 49.1644 47.3063 49.2439 47.2202C49.3234 47.1341 49.3677 47.0214 49.3682 46.9042V35.7521C49.3681 35.6337 49.3229 35.5198 49.2418 35.4336C49.1607 35.3474 49.0498 35.2954 48.9317 35.2881Z" fill="#D6F1CA"/>
</g>
</svg>
