<svg width="22" height="18" viewBox="0 0 22 18" fill="none" xmlns="http://www.w3.org/2000/svg">
<path fill-rule="evenodd" clip-rule="evenodd" d="M8.49942 7.1828e-05C8.53267 0.000108425 8.56619 0.00014538 8.6 0.00014538L16.2413 0.000144903C17.0463 0.000132148 17.7106 0.000121657 18.2518 0.044339C18.8139 0.0902642 19.3306 0.188829 19.816 0.436119C20.5686 0.819613 21.1805 1.43153 21.564 2.18418C21.8113 2.66952 21.9099 3.18622 21.9558 3.74832C22 4.28951 22 4.95386 22 5.75882V12.2415C22 13.0464 22 13.7108 21.9558 14.252C21.9099 14.8141 21.8113 15.3308 21.564 15.8161C21.1805 16.5688 20.5686 17.1807 19.816 17.5642C19.3306 17.8115 18.8139 17.91 18.2518 17.956C17.7106 18.0002 17.0463 18.0002 16.2413 18.0001H8.6C8.5662 18.0001 8.53267 18.0002 8.49942 18.0002C8.01262 18.0008 7.5838 18.0012 7.17616 17.8848C6.81847 17.7827 6.48291 17.6149 6.18657 17.39C5.84886 17.1338 5.59194 16.7904 5.30029 16.4007C5.28037 16.374 5.26028 16.3472 5.24 16.3201L0.92 10.5601C0.902204 10.5364 0.883781 10.5121 0.864903 10.4871C0.666533 10.2251 0.417822 9.8965 0.31589 9.50928C0.228037 9.17554 0.228037 8.82475 0.31589 8.49101C0.417821 8.10379 0.666532 7.77522 0.864902 7.51315C0.88378 7.48821 0.902203 7.46387 0.92 7.44015L5.24 1.68015C5.26028 1.6531 5.28037 1.62626 5.30029 1.59963C5.59194 1.20987 5.84886 0.866532 6.18657 0.610273C6.48291 0.385417 6.81847 0.217634 7.17616 0.115482C7.5838 -0.000937156 8.01262 -0.000464614 8.49942 7.1828e-05ZM8.6 2.00015C7.95537 2.00015 7.82837 2.00918 7.72539 2.03859C7.60616 2.07264 7.4943 2.12857 7.39552 2.20352C7.31021 2.26826 7.22678 2.36444 6.84 2.88015L2.52 8.64015C2.38256 8.8234 2.31082 8.92001 2.26362 8.99318C2.26205 8.99561 2.26057 8.99793 2.25916 9.00014C2.26057 9.00235 2.26205 9.00468 2.26362 9.00711C2.31082 9.08028 2.38256 9.17689 2.52 9.36014L6.84 15.1201C7.22678 15.6358 7.31021 15.732 7.39552 15.7968C7.4943 15.8717 7.60616 15.9276 7.72539 15.9617C7.82837 15.9911 7.95537 16.0001 8.6 16.0001H16.2C17.0566 16.0001 17.6389 15.9994 18.089 15.9626C18.5274 15.9268 18.7516 15.8618 18.908 15.7822C19.2843 15.5904 19.5903 15.2844 19.782 14.9081C19.8617 14.7517 19.9266 14.5275 19.9624 14.0891C19.9992 13.639 20 13.0567 20 12.2001V5.80015C20 4.94357 19.9992 4.36127 19.9624 3.91118C19.9266 3.47277 19.8617 3.24856 19.782 3.09216C19.5903 2.71584 19.2843 2.40988 18.908 2.21813C18.7516 2.13844 18.5274 2.07352 18.089 2.0377C17.6389 2.00092 17.0566 2.00015 16.2 2.00015H8.6ZM9.29289 5.29304C9.68342 4.90251 10.3166 4.90251 10.7071 5.29304L13 7.58593L15.2929 5.29304C15.6834 4.90251 16.3166 4.90251 16.7071 5.29304C17.0976 5.68356 17.0976 6.31673 16.7071 6.70725L14.4142 9.00014L16.7071 11.293C17.0976 11.6836 17.0976 12.3167 16.7071 12.7073C16.3166 13.0978 15.6834 13.0978 15.2929 12.7073L13 10.4144L10.7071 12.7073C10.3166 13.0978 9.68342 13.0978 9.29289 12.7073C8.90237 12.3167 8.90237 11.6836 9.29289 11.293L11.5858 9.00014L9.29289 6.70725C8.90237 6.31673 8.90237 5.68356 9.29289 5.29304Z" fill="currentColor"/>
</svg>
