<svg width="40" height="40" viewBox="0 0 40 40" fill="none" xmlns="http://www.w3.org/2000/svg">
<path d="M20 40C31.0457 40 40 31.0457 40 20C40 8.95431 31.0457 0 20 0C8.95431 0 0 8.95431 0 20C0 31.0457 8.95431 40 20 40Z" fill="#FBE3B4"/>
<path fill-rule="evenodd" clip-rule="evenodd" d="M19.4206 10.163C19.7763 9.94566 20.2237 9.94566 20.5794 10.163L30.5794 16.2741C31.103 16.5941 31.2681 17.278 30.9481 17.8016C30.6281 18.3252 29.9442 18.4903 29.4206 18.1703L20 12.4133L10.5794 18.1703C10.0558 18.4903 9.3719 18.3252 9.05191 17.8016C8.73192 17.278 8.897 16.5941 9.42061 16.2741L19.4206 10.163Z" fill="#DC9101"/>
<path fill-rule="evenodd" clip-rule="evenodd" d="M11.1111 28.8885C11.1111 28.2748 11.6086 27.7773 12.2223 27.7773H27.7778C28.3915 27.7773 28.8889 28.2748 28.8889 28.8885C28.8889 29.5021 28.3915 29.9996 27.7778 29.9996H12.2223C11.6086 29.9996 11.1111 29.5021 11.1111 28.8885Z" fill="#DC9101"/>
<path fill-rule="evenodd" clip-rule="evenodd" d="M16.6667 16.6697C16.6667 16.0561 17.1641 15.5586 17.7778 15.5586H22.2222C22.8359 15.5586 23.3334 16.0561 23.3334 16.6697C23.3334 17.2834 22.8359 17.7808 22.2222 17.7808H17.7778C17.1641 17.7808 16.6667 17.2834 16.6667 16.6697Z" fill="#DC9101"/>
<path fill-rule="evenodd" clip-rule="evenodd" d="M13.3333 18.8906C13.947 18.8906 14.4445 19.3881 14.4445 20.0017V25.5573C14.4445 26.1709 13.947 26.6684 13.3333 26.6684C12.7197 26.6684 12.2222 26.1709 12.2222 25.5573V20.0017C12.2222 19.3881 12.7197 18.8906 13.3333 18.8906Z" fill="#DC9101"/>
<path fill-rule="evenodd" clip-rule="evenodd" d="M17.7778 18.8906C18.3914 18.8906 18.8889 19.3881 18.8889 20.0017V25.5573C18.8889 26.1709 18.3914 26.6684 17.7778 26.6684C17.1641 26.6684 16.6667 26.1709 16.6667 25.5573V20.0017C16.6667 19.3881 17.1641 18.8906 17.7778 18.8906Z" fill="#DC9101"/>
<path fill-rule="evenodd" clip-rule="evenodd" d="M22.2223 18.8906C22.8359 18.8906 23.3334 19.3881 23.3334 20.0017V25.5573C23.3334 26.1709 22.8359 26.6684 22.2223 26.6684C21.6086 26.6684 21.1111 26.1709 21.1111 25.5573V20.0017C21.1111 19.3881 21.6086 18.8906 22.2223 18.8906Z" fill="#DC9101"/>
<path fill-rule="evenodd" clip-rule="evenodd" d="M26.6667 18.8906C27.2804 18.8906 27.7778 19.3881 27.7778 20.0017V25.5573C27.7778 26.1709 27.2804 26.6684 26.6667 26.6684C26.0531 26.6684 25.5556 26.1709 25.5556 25.5573V20.0017C25.5556 19.3881 26.0531 18.8906 26.6667 18.8906Z" fill="#DC9101"/>
</svg>
