<svg width="24" height="24" viewBox="0 0 24 24" fill="none" xmlns="http://www.w3.org/2000/svg">
<path d="M12.7499 11.2499V16.4999C12.7499 16.6988 12.6709 16.8896 12.5303 17.0303C12.3896 17.1709 12.1989 17.2499 11.9999 17.2499C11.801 17.2499 11.6103 17.1709 11.4696 17.0303C11.329 16.8896 11.2499 16.6988 11.2499 16.4999V11.2499C11.2499 11.051 11.329 10.8603 11.4696 10.7196C11.6103 10.579 11.801 10.4999 11.9999 10.4999C12.1989 10.4999 12.3896 10.579 12.5303 10.7196C12.6709 10.8603 12.7499 11.051 12.7499 11.2499ZM22.4868 9.19775L21.1874 18.9487C21.1393 19.3091 20.9618 19.6397 20.6882 19.879C20.4145 20.1184 20.0632 20.2502 19.6996 20.2499H4.30025C3.93668 20.2502 3.58538 20.1184 3.31171 19.879C3.03804 19.6397 2.86061 19.3091 2.81244 18.9487L1.51213 9.19869C1.48379 8.98672 1.50111 8.77114 1.56292 8.56641C1.62473 8.36168 1.7296 8.17253 1.8705 8.01165C2.0114 7.85077 2.18507 7.72188 2.37987 7.63363C2.57467 7.54537 2.78608 7.49979 2.99994 7.49994H6.40963L11.4374 1.75587C11.5078 1.67607 11.5944 1.61215 11.6914 1.56837C11.7883 1.52459 11.8935 1.50195 11.9999 1.50195C12.1063 1.50195 12.2115 1.52459 12.3085 1.56837C12.4055 1.61215 12.4921 1.67607 12.5624 1.75587L17.5903 7.49994H20.9999C21.2135 7.50007 21.4247 7.54583 21.6192 7.63415C21.8137 7.72247 21.987 7.85131 22.1277 8.01205C22.2684 8.17279 22.3731 8.36172 22.4349 8.56621C22.4967 8.77069 22.514 8.98601 22.4859 9.19775H22.4868ZM8.40275 7.49994H15.5971L11.9999 3.389L8.40275 7.49994ZM20.9999 8.99994H2.99994L4.30025 18.7499H19.6996L20.9999 8.99994ZM16.2037 11.1749L15.6787 16.4249C15.6683 16.5232 15.6775 16.6226 15.7056 16.7173C15.7338 16.8121 15.7804 16.9003 15.8428 16.977C15.9052 17.0537 15.9821 17.1172 16.0691 17.1641C16.1562 17.2109 16.2516 17.2401 16.3499 17.2499C16.3752 17.2513 16.4006 17.2513 16.4259 17.2499C16.6116 17.2497 16.7907 17.1805 16.9284 17.0558C17.0661 16.9311 17.1526 16.7598 17.1712 16.5749L17.6962 11.3249C17.7161 11.127 17.6565 10.9293 17.5307 10.7753C17.4048 10.6213 17.2229 10.5236 17.0249 10.5037C16.827 10.4838 16.6293 10.5433 16.4753 10.6692C16.3213 10.7951 16.2236 10.977 16.2037 11.1749ZM7.79619 11.1749C7.7763 10.977 7.6786 10.7951 7.52458 10.6692C7.37057 10.5433 7.17286 10.4838 6.97494 10.5037C6.77702 10.5236 6.59511 10.6213 6.46923 10.7753C6.34334 10.9293 6.2838 11.127 6.30369 11.3249L6.82869 16.5749C6.84734 16.7606 6.93453 16.9326 7.07321 17.0574C7.21189 17.1822 7.39211 17.2509 7.57869 17.2499C7.60398 17.2513 7.62933 17.2513 7.65463 17.2499C7.75263 17.2401 7.84773 17.211 7.9345 17.1644C8.02127 17.1178 8.09801 17.0546 8.16034 16.9783C8.22267 16.9021 8.26937 16.8143 8.29778 16.72C8.32618 16.6257 8.33573 16.5267 8.32588 16.4287L7.79619 11.1749Z" fill="currentColor"/>
</svg>
