<svg width="44" height="44" viewBox="0 0 44 44" fill="none" xmlns="http://www.w3.org/2000/svg">
<circle cx="22" cy="22" r="22" fill="#F0F9E8"/>
<g clip-path="url(#clip0_10695_5100)">
<path d="M31.75 20.5005C31.75 19.9038 31.5129 19.3315 31.091 18.9095C30.669 18.4875 30.0967 18.2505 29.5 18.2505H22.75V17.4067C23.3937 17.2395 23.9638 16.8635 24.371 16.3376C24.7782 15.8117 24.9994 15.1656 25 14.5005C25 11.8755 22.5212 10.1964 22.4163 10.1261C22.293 10.0439 22.1482 10 22 10C21.8518 10 21.707 10.0439 21.5837 10.1261C21.4788 10.1964 19 11.8755 19 14.5005C19.0006 15.1656 19.2218 15.8117 19.629 16.3376C20.0362 16.8635 20.6063 17.2395 21.25 17.4067V18.2505H14.5C13.9033 18.2505 13.331 18.4875 12.909 18.9095C12.4871 19.3315 12.25 19.9038 12.25 20.5005V22.6877C12.2508 23.5059 12.5136 24.3023 13 24.9602V28.7505C13 29.3472 13.2371 29.9195 13.659 30.3415C14.081 30.7634 14.6533 31.0005 15.25 31.0005H28.75C29.3467 31.0005 29.919 30.7634 30.341 30.3415C30.7629 29.9195 31 29.3472 31 28.7505V24.9602C31.4864 24.3023 31.7492 23.5059 31.75 22.6877V20.5005ZM20.5 14.5005C20.5 13.2283 21.4375 12.2074 22 11.7077C22.5625 12.2074 23.5 13.2283 23.5 14.5005C23.5 14.8983 23.342 15.2798 23.0607 15.5611C22.7794 15.8425 22.3978 16.0005 22 16.0005C21.6022 16.0005 21.2206 15.8425 20.9393 15.5611C20.658 15.2798 20.5 14.8983 20.5 14.5005ZM13.75 20.5005C13.75 20.3016 13.829 20.1108 13.9697 19.9702C14.1103 19.8295 14.3011 19.7505 14.5 19.7505H29.5C29.6989 19.7505 29.8897 19.8295 30.0303 19.9702C30.171 20.1108 30.25 20.3016 30.25 20.5005V22.6877C30.25 23.9299 29.2694 24.9667 28.0637 24.9996C27.763 25.0081 27.4637 24.9562 27.1833 24.847C26.903 24.7378 26.6474 24.5735 26.4317 24.3638C26.216 24.1542 26.0445 23.9033 25.9274 23.6262C25.8103 23.3491 25.75 23.0513 25.75 22.7505C25.75 22.5516 25.671 22.3608 25.5303 22.2202C25.3897 22.0795 25.1989 22.0005 25 22.0005C24.8011 22.0005 24.6103 22.0795 24.4697 22.2202C24.329 22.3608 24.25 22.5516 24.25 22.7505C24.25 23.3472 24.0129 23.9195 23.591 24.3415C23.169 24.7634 22.5967 25.0005 22 25.0005C21.4033 25.0005 20.831 24.7634 20.409 24.3415C19.9871 23.9195 19.75 23.3472 19.75 22.7505C19.75 22.5516 19.671 22.3608 19.5303 22.2202C19.3897 22.0795 19.1989 22.0005 19 22.0005C18.8011 22.0005 18.6103 22.0795 18.4697 22.2202C18.329 22.3608 18.25 22.5516 18.25 22.7505C18.2501 23.0514 18.1899 23.3493 18.0728 23.6265C17.9558 23.9037 17.7843 24.1547 17.5686 24.3644C17.3529 24.5742 17.0973 24.7386 16.8169 24.8479C16.5365 24.9571 16.237 25.009 15.9362 25.0005C14.7306 24.9667 13.75 23.9299 13.75 22.6877V20.5005ZM28.75 29.5005H15.25C15.0511 29.5005 14.8603 29.4215 14.7197 29.2808C14.579 29.1402 14.5 28.9494 14.5 28.7505V26.178C14.939 26.3769 15.4132 26.4865 15.895 26.5005C16.3962 26.5161 16.8955 26.4302 17.3627 26.248C17.8299 26.0658 18.2554 25.791 18.6137 25.4402C18.7537 25.3038 18.8828 25.1568 19 25.0005C19.3493 25.4662 19.8022 25.8442 20.3229 26.1046C20.8437 26.3649 21.4178 26.5005 22 26.5005C22.5822 26.5005 23.1563 26.3649 23.6771 26.1046C24.1978 25.8442 24.6507 25.4662 25 25.0005C25.1176 25.1562 25.247 25.3026 25.3872 25.4383C26.0849 26.1217 27.0234 26.5032 28 26.5005C28.0356 26.5005 28.0712 26.5005 28.1069 26.5005C28.588 26.4863 29.0616 26.3767 29.5 26.178V28.7505C29.5 28.9494 29.421 29.1402 29.2803 29.2808C29.1397 29.4215 28.9489 29.5005 28.75 29.5005Z" fill="#62A446"/>
</g>
<defs>
<clipPath id="clip0_10695_5100">
<rect width="24" height="24" fill="white" transform="translate(10 10)"/>
</clipPath>
</defs>
</svg>
