<svg width="114" height="114" viewBox="0 0 114 114" fill="none" xmlns="http://www.w3.org/2000/svg">
<circle cx="57" cy="57" r="57" fill="#F1FDEB"/>
<g clip-path="url(#clip0_657_22312)">
<path d="M66.1498 87.7382H29.308C26.8925 87.7382 25.4356 85.0637 26.7457 83.0343C31.9609 74.956 38.195 70.6172 44.5868 70.6172H45.272C51.6638 70.6172 57.8979 74.956 63.113 83.0343L66.1498 87.7382Z" fill="#ADDE98"/>
<path d="M39.4773 49.8008C38.9778 49.8008 38.573 50.2057 38.573 50.7051V52.6743C38.573 53.1737 38.9778 53.5786 39.4773 53.5786C39.9768 53.5786 40.3816 53.1737 40.3816 52.6743V50.7051C40.3816 50.2057 39.9767 49.8008 39.4773 49.8008Z" fill="#F3B744"/>
<path d="M75.8083 31.3125C75.3088 31.3125 74.9041 31.7174 74.9041 32.2168V34.1861C74.9041 34.6855 75.3088 35.0903 75.8083 35.0903C76.3079 35.0903 76.7126 34.6855 76.7126 34.1861V32.2168C76.7126 31.7174 76.3079 31.3125 75.8083 31.3125Z" fill="#F3B744"/>
<path d="M53.8129 68.1601H46.9422C40.2933 68.1601 34.884 62.751 34.884 56.1021C34.884 53.938 36.6385 52.1836 38.8026 52.1836C40.9667 52.1836 42.7211 53.938 42.7211 56.1021C42.7211 58.4296 44.6147 60.3231 46.9422 60.3231H53.8129C55.977 60.3231 57.7314 62.0775 57.7314 64.2416C57.7314 66.4057 55.9771 68.1601 53.8129 68.1601Z" fill="#82C167"/>
<path d="M57.7316 64.2418C57.7316 66.4061 55.9761 68.1604 53.813 68.1604H46.9417C45.7107 68.1604 44.5207 67.9747 43.4018 67.6287V61.6753C43.4018 60.9286 42.7965 60.3233 42.0498 60.3233C39.7228 60.3233 37.9006 58.42 37.8953 56.093C37.8924 54.8428 37.3047 53.73 36.3894 53.0143C37.0537 52.4947 37.8917 52.1836 38.802 52.1836C40.9663 52.1836 42.7206 53.9379 42.7206 56.1021C42.7206 56.9485 42.9713 57.7371 43.4018 58.3978C44.1553 59.5565 45.4611 60.3233 46.9417 60.3233H53.813C55.9761 60.3233 57.7316 62.0776 57.7316 64.2418Z" fill="#4D8E31"/>
<path d="M68.0976 57.8539H61.2269C59.0628 57.8539 57.3083 56.0994 57.3083 53.9353C57.3083 51.7712 59.0628 50.0168 61.2269 50.0168H68.0976C70.4251 50.0168 72.3186 48.1232 72.3186 45.7957V37.2974C72.3186 35.1333 74.0731 33.3789 76.2372 33.3789C78.4013 33.3789 80.1557 35.1333 80.1557 37.2974V45.7957C80.1557 52.4446 74.7463 57.8539 68.0976 57.8539Z" fill="#62A446"/>
<path d="M76.2362 33.3789C75.3259 33.3789 74.4887 33.6902 73.8236 34.2108C74.7399 34.9281 75.3295 36.0435 75.3295 37.2974V45.7957C75.3295 52.4446 69.9202 57.8539 63.2714 57.8539H68.0966C74.7454 57.8539 80.1547 52.4446 80.1547 45.7957V37.2974C80.1547 35.1332 78.4003 33.3789 76.2362 33.3789Z" fill="#387E1B"/>
<path d="M56.9988 26.25C56.4992 26.25 56.0945 26.6549 56.0945 27.1543V29.1236C56.0945 29.623 56.4992 30.0278 56.9988 30.0278C57.4983 30.0278 57.903 29.623 57.903 29.1236V27.1543C57.903 26.6549 57.4983 26.25 56.9988 26.25Z" fill="#F3B744"/>
<path d="M67.5822 80.5054H46.4165V39.243C46.4165 33.3982 51.1546 28.6602 56.9993 28.6602C62.8441 28.6602 67.5822 33.3982 67.5822 39.243V80.5054Z" fill="#82C167"/>
<path d="M46.448 32.5071C46.0948 32.8602 46.0948 33.4328 46.448 33.7859L47.8404 35.1784C48.1936 35.5316 48.7661 35.5316 49.1193 35.1784C49.4726 34.8253 49.4725 34.2527 49.1193 33.8995L47.7269 32.5071C47.3736 32.1539 46.8011 32.1539 46.448 32.5071Z" fill="#F3B744"/>
<path d="M33.6301 53.0696C33.2769 53.4227 33.2769 53.9953 33.6301 54.3485L35.0226 55.741C35.3757 56.0941 35.9482 56.0941 36.3015 55.741C36.6547 55.3878 36.6546 54.8152 36.3015 54.4621L34.909 53.0696C34.5558 52.7164 33.9834 52.7163 33.6301 53.0696Z" fill="#F3B744"/>
<path d="M78.8031 37.737C78.4499 37.3839 78.4499 36.8113 78.8031 36.4581L80.1955 35.0656C80.5487 34.7125 81.1212 34.7125 81.4744 35.0656C81.8277 35.4188 81.8276 35.9914 81.4744 36.3445L80.082 37.737C79.7288 38.0902 79.1562 38.0903 78.8031 37.737Z" fill="#F3B744"/>
<path d="M35.8004 65.3893C35.4472 65.0362 35.4472 64.4636 35.8004 64.1105L37.1929 62.718C37.546 62.3648 38.1185 62.3648 38.4717 62.718C38.8249 63.0711 38.8249 63.6437 38.4717 63.9969L37.0793 65.3893C36.7261 65.7425 36.1537 65.7425 35.8004 65.3893Z" fill="#F3B744"/>
<path d="M67.3854 32.5071C67.7386 32.8602 67.7386 33.4328 67.3854 33.7859L65.993 35.1784C65.6398 35.5316 65.0674 35.5316 64.7141 35.1784C64.3609 34.8253 64.3609 34.2527 64.7141 33.8995L66.1065 32.5071C66.4597 32.1539 67.0323 32.1539 67.3854 32.5071Z" fill="#F3B744"/>
<path d="M44.7491 43.4277C44.7491 43.9272 45.154 44.332 45.6534 44.332H47.6227C48.1221 44.332 48.527 43.9272 48.527 43.4277C48.527 42.9282 48.1221 42.5234 47.6227 42.5234H45.6534C45.154 42.5234 44.7491 42.9282 44.7491 43.4277Z" fill="#F3B744"/>
<path d="M65.9091 43.4277C65.9091 43.9272 66.3139 44.332 66.8133 44.332H68.7826C69.282 44.332 69.6869 43.9272 69.6869 43.4277C69.6869 42.9282 69.282 42.5234 68.7826 42.5234H66.8133C66.3139 42.5234 65.9091 42.9282 65.9091 43.4277Z" fill="#82C167"/>
<path d="M65.9091 59.9472C65.9091 60.4468 66.3139 60.8515 66.8133 60.8515H68.7826C69.282 60.8515 69.6869 60.4468 69.6869 59.9472C69.6869 59.4477 69.282 59.043 68.7826 59.043H66.8133C66.3139 59.043 65.9091 59.4477 65.9091 59.9472Z" fill="#82C167"/>
<path d="M78.1261 44.0293C78.1261 44.5288 78.531 44.9336 79.0304 44.9336H80.9997C81.4991 44.9336 81.9039 44.5288 81.9039 44.0293C81.9039 43.5298 81.4991 43.125 80.9997 43.125H79.0304C78.531 43.125 78.1261 43.5298 78.1261 44.0293Z" fill="#82C167"/>
<path d="M65.9091 72.7871C65.9091 73.2866 66.3139 73.6914 66.8133 73.6914H68.7826C69.282 73.6914 69.6869 73.2866 69.6869 72.7871C69.6869 72.2876 69.282 71.8828 68.7826 71.8828H66.8133C66.3139 71.8828 65.9091 72.2876 65.9091 72.7871Z" fill="#82C167"/>
<path d="M44.7491 57.7754C44.7491 58.2749 45.154 58.6796 45.6534 58.6796H47.6227C48.1221 58.6796 48.527 58.2749 48.527 57.7754C48.527 57.2758 48.1221 56.8711 47.6227 56.8711H45.6534C45.154 56.8711 44.7491 57.2758 44.7491 57.7754Z" fill="#F3B744"/>
<path d="M56.9993 28.6602C56.1693 28.6602 55.3617 28.756 54.5867 28.9366C59.2689 30.0284 62.7569 34.2282 62.7569 39.243V80.5054H67.5821V39.243C67.5821 33.3982 62.8441 28.6602 56.9993 28.6602Z" fill="#387E1B"/>
<path d="M56.9992 35.4727C56.4997 35.4727 56.095 35.8775 56.095 36.3769V53.9802C56.095 54.4796 56.4997 54.8845 56.9992 54.8845C57.4988 54.8845 57.9035 54.4796 57.9035 53.9802V36.3769C57.9035 35.8775 57.4988 35.4727 56.9992 35.4727Z" fill="#62A446"/>
<path d="M56.9994 62.2383C56.4998 62.2383 56.0951 62.6432 56.0951 63.1426V80.5047H57.9036V63.1426C57.9036 62.6432 57.4989 62.2383 56.9994 62.2383Z" fill="#62A446"/>
<path d="M51.6924 33C51.193 33 50.7881 33.4049 50.7881 33.9043V80.5029H52.5966V33.9043C52.5966 33.4049 52.1918 33 51.6924 33Z" fill="#62A446"/>
<path d="M48.1254 50.8457C48.1254 51.3452 48.5302 51.75 49.0296 51.75H50.9989C51.4983 51.75 51.9032 51.3452 51.9032 50.8457C51.9032 50.3462 51.4983 49.9414 50.9989 49.9414H49.0296C48.5302 49.9414 48.1254 50.3462 48.1254 50.8457Z" fill="#F3B744"/>
<path d="M48.1257 71.3418C48.1257 71.8413 48.5306 72.2461 49.03 72.2461H50.9993C51.4987 72.2461 51.9036 71.8413 51.9036 71.3418C51.9036 70.8423 51.4987 70.4375 50.9993 70.4375H49.03C48.5306 70.4375 48.1257 70.8423 48.1257 71.3418Z" fill="#F3B744"/>
<path d="M60.7848 66.2168C60.7848 66.7163 61.1897 67.1211 61.6891 67.1211H63.6583C64.1577 67.1211 64.5626 66.7163 64.5626 66.2168C64.5626 65.7173 64.1577 65.3125 63.6583 65.3125H61.6891C61.1897 65.3125 60.7848 65.7173 60.7848 66.2168Z" fill="#82C167"/>
<path d="M86.1824 87.7388H34.4839C32.9644 87.7388 32.3427 85.7866 33.5825 84.908C41.402 79.3668 50.7493 76.3906 60.3331 76.3906C69.9169 76.3906 79.2642 79.3668 87.0837 84.908C88.3237 85.7866 87.702 87.7388 86.1824 87.7388Z" fill="#D6F1CA"/>
</g>
<defs>
<clipPath id="clip0_657_22312">
<rect width="61.4909" height="61.4909" fill="white" transform="translate(26.2545 26.2539)"/>
</clipPath>
</defs>
</svg>
