<svg width="24" height="24" viewBox="0 0 24 24" fill="none" xmlns="http://www.w3.org/2000/svg">
<g clip-path="url(#clip0_10695_5110)">
<path d="M21.75 10.5005C21.75 9.90375 21.5129 9.33145 21.091 8.9095C20.669 8.48754 20.0967 8.25049 19.5 8.25049H12.75V7.40674C13.3937 7.23953 13.9638 6.86352 14.371 6.33761C14.7782 5.8117 14.9994 5.16559 15 4.50049C15 1.87549 12.5212 0.196425 12.4163 0.126112C12.293 0.043883 12.1482 0 12 0C11.8518 0 11.707 0.043883 11.5837 0.126112C11.4788 0.196425 9 1.87549 9 4.50049C9.00063 5.16559 9.22185 5.8117 9.629 6.33761C10.0362 6.86352 10.6063 7.23953 11.25 7.40674V8.25049H4.5C3.90326 8.25049 3.33097 8.48754 2.90901 8.9095C2.48705 9.33145 2.25 9.90375 2.25 10.5005V12.6877C2.25077 13.5059 2.51361 14.3023 3 14.9602V18.7505C3 19.3472 3.23705 19.9195 3.65901 20.3415C4.08097 20.7634 4.65326 21.0005 5.25 21.0005H18.75C19.3467 21.0005 19.919 20.7634 20.341 20.3415C20.7629 19.9195 21 19.3472 21 18.7505V14.9602C21.4864 14.3023 21.7492 13.5059 21.75 12.6877V10.5005ZM10.5 4.50049C10.5 3.2283 11.4375 2.20736 12 1.70767C12.5625 2.20736 13.5 3.2283 13.5 4.50049C13.5 4.89831 13.342 5.27984 13.0607 5.56115C12.7794 5.84245 12.3978 6.00049 12 6.00049C11.6022 6.00049 11.2206 5.84245 10.9393 5.56115C10.658 5.27984 10.5 4.89831 10.5 4.50049ZM3.75 10.5005C3.75 10.3016 3.82902 10.1108 3.96967 9.97016C4.11032 9.8295 4.30109 9.75049 4.5 9.75049H19.5C19.6989 9.75049 19.8897 9.8295 20.0303 9.97016C20.171 10.1108 20.25 10.3016 20.25 10.5005V12.6877C20.25 13.9299 19.2694 14.9667 18.0637 14.9996C17.763 15.0081 17.4637 14.9562 17.1833 14.847C16.903 14.7378 16.6474 14.5735 16.4317 14.3638C16.216 14.1542 16.0445 13.9033 15.9274 13.6262C15.8103 13.3491 15.75 13.0513 15.75 12.7505C15.75 12.5516 15.671 12.3608 15.5303 12.2202C15.3897 12.0795 15.1989 12.0005 15 12.0005C14.8011 12.0005 14.6103 12.0795 14.4697 12.2202C14.329 12.3608 14.25 12.5516 14.25 12.7505C14.25 13.3472 14.0129 13.9195 13.591 14.3415C13.169 14.7634 12.5967 15.0005 12 15.0005C11.4033 15.0005 10.831 14.7634 10.409 14.3415C9.98705 13.9195 9.75 13.3472 9.75 12.7505C9.75 12.5516 9.67098 12.3608 9.53033 12.2202C9.38968 12.0795 9.19891 12.0005 9 12.0005C8.80109 12.0005 8.61032 12.0795 8.46967 12.2202C8.32902 12.3608 8.25 12.5516 8.25 12.7505C8.25012 13.0514 8.18988 13.3493 8.07284 13.6265C7.9558 13.9037 7.78434 14.1547 7.56861 14.3644C7.35288 14.5742 7.09726 14.7386 6.81688 14.8479C6.53649 14.9571 6.23705 15.009 5.93625 15.0005C4.73062 14.9667 3.75 13.9299 3.75 12.6877V10.5005ZM18.75 19.5005H5.25C5.05109 19.5005 4.86032 19.4215 4.71967 19.2808C4.57902 19.1402 4.5 18.9494 4.5 18.7505V16.178C4.93902 16.3769 5.41322 16.4865 5.895 16.5005C6.39624 16.5161 6.89545 16.4302 7.36266 16.248C7.82986 16.0658 8.25541 15.791 8.61375 15.4402C8.75366 15.3038 8.88279 15.1568 9 15.0005C9.3493 15.4662 9.80224 15.8442 10.3229 16.1046C10.8437 16.3649 11.4178 16.5005 12 16.5005C12.5822 16.5005 13.1563 16.3649 13.6771 16.1046C14.1978 15.8442 14.6507 15.4662 15 15.0005C15.1176 15.1562 15.247 15.3026 15.3872 15.4383C16.0849 16.1217 17.0234 16.5032 18 16.5005C18.0356 16.5005 18.0712 16.5005 18.1069 16.5005C18.588 16.4863 19.0616 16.3767 19.5 16.178V18.7505C19.5 18.9494 19.421 19.1402 19.2803 19.2808C19.1397 19.4215 18.9489 19.5005 18.75 19.5005Z" fill="#62A446"/>
</g>
<defs>
<clipPath id="clip0_10695_5110">
<rect width="24" height="24" fill="white"/>
</clipPath>
</defs>
</svg>
