<svg width="20" height="20" viewBox="0 0 20 20" fill="none" xmlns="http://www.w3.org/2000/svg">
<path fill-rule="evenodd" clip-rule="evenodd" d="M4.16669 4.16732C3.70645 4.16732 3.33335 4.54041 3.33335 5.00065V16.6673C3.33335 17.1276 3.70645 17.5006 4.16669 17.5006H15.8334C16.2936 17.5006 16.6667 17.1276 16.6667 16.6673V5.00065C16.6667 4.54041 16.2936 4.16732 15.8334 4.16732H4.16669ZM1.66669 5.00065C1.66669 3.61994 2.78598 2.50065 4.16669 2.50065H15.8334C17.2141 2.50065 18.3334 3.61994 18.3334 5.00065V16.6673C18.3334 18.048 17.2141 19.1673 15.8334 19.1673H4.16669C2.78598 19.1673 1.66669 18.048 1.66669 16.6673V5.00065Z" fill="currentColor"/>
<path fill-rule="evenodd" clip-rule="evenodd" d="M13.3334 0.833984C13.7936 0.833984 14.1667 1.20708 14.1667 1.66732V5.00065C14.1667 5.46089 13.7936 5.83398 13.3334 5.83398C12.8731 5.83398 12.5 5.46089 12.5 5.00065V1.66732C12.5 1.20708 12.8731 0.833984 13.3334 0.833984Z" fill="currentColor"/>
<path fill-rule="evenodd" clip-rule="evenodd" d="M6.66669 0.833984C7.12692 0.833984 7.50002 1.20708 7.50002 1.66732V5.00065C7.50002 5.46089 7.12692 5.83398 6.66669 5.83398C6.20645 5.83398 5.83335 5.46089 5.83335 5.00065V1.66732C5.83335 1.20708 6.20645 0.833984 6.66669 0.833984Z" fill="currentColor"/>
<path fill-rule="evenodd" clip-rule="evenodd" d="M1.66669 8.33398C1.66669 7.87375 2.03978 7.50065 2.50002 7.50065H17.5C17.9603 7.50065 18.3334 7.87375 18.3334 8.33398C18.3334 8.79422 17.9603 9.16732 17.5 9.16732H2.50002C2.03978 9.16732 1.66669 8.79422 1.66669 8.33398Z" fill="currentColor"/>
</svg>
