<svg width="20" height="20" viewBox="0 0 20 20" fill="none" xmlns="http://www.w3.org/2000/svg">
<mask id="mask0_5942_18219" style="mask-type:alpha" maskUnits="userSpaceOnUse" x="0" y="0" width="20" height="20">
<path fill-rule="evenodd" clip-rule="evenodd" d="M9.99998 2.50065C5.85784 2.50065 2.49998 5.85851 2.49998 10.0007C2.49998 14.1428 5.85784 17.5006 9.99998 17.5006C14.1421 17.5006 17.5 14.1428 17.5 10.0007C17.5 5.85851 14.1421 2.50065 9.99998 2.50065ZM0.833313 10.0007C0.833313 4.93804 4.93737 0.833984 9.99998 0.833984C15.0626 0.833984 19.1666 4.93804 19.1666 10.0007C19.1666 15.0633 15.0626 19.1673 9.99998 19.1673C4.93737 19.1673 0.833313 15.0633 0.833313 10.0007Z" fill="#061938"/>
<path fill-rule="evenodd" clip-rule="evenodd" d="M9.99998 4.16732C10.4602 4.16732 10.8333 4.54041 10.8333 5.00065V9.48562L13.706 10.922C14.1176 11.1278 14.2845 11.6283 14.0787 12.04C13.8728 12.4516 13.3723 12.6185 12.9606 12.4127L9.6273 10.746C9.34498 10.6048 9.16665 10.3163 9.16665 10.0007V5.00065C9.16665 4.54041 9.53974 4.16732 9.99998 4.16732Z" fill="#061938"/>
</mask>
<g mask="url(#mask0_5942_18219)">
<rect width="20" height="20" fill="#3E8BEF"/>
</g>
</svg>
