<svg width="43" height="39" viewBox="0 0 43 39" fill="none" xmlns="http://www.w3.org/2000/svg">
<path d="M42.9864 11.6468C42.9927 11.4987 42.9981 11.3506 42.9981 11.201C42.9981 5.20093 37.9574 0 31.7403 0C27.1917 0 23.2773 2.93967 21.4999 6.68161H21.4976C19.72 2.93967 15.8051 0 11.2596 0C5.04134 0 0.000630213 5.20093 0.000630213 11.201C0.000630213 11.3506 0.00603169 11.4987 0.012286 11.6468C0.012286 11.6468 -0.624804 18.7745 7.27642 26.5563C10.8687 30.1699 14.8862 33.6041 21.4988 39C28.1113 33.6041 32.1289 30.1699 35.7211 26.5563C43.6221 18.7745 42.9864 11.6468 42.9864 11.6468Z" fill="#EC1C24"/>
</svg>
