<svg width="24" height="22" viewBox="0 0 24 22" fill="none" xmlns="http://www.w3.org/2000/svg">
<path d="M5.37866 5.72852H9.04492V7.26785H5.37866V5.72852Z" fill="#62A446"/>
<path d="M5.37866 9.22852H9.04492V10.7678H5.37866V9.22852Z" fill="#62A446"/>
<path d="M5.37866 12.7285H9.04492V14.2678H5.37866V12.7285Z" fill="#62A446"/>
<path d="M5.37866 16.2305H9.04492V17.7698H5.37866V16.2305Z" fill="#62A446"/>
<path d="M12.7928 19.8192V7.24144L20.8308 7.23206V15.7171H22.3692V6.46149C22.3692 6.0416 22.0184 5.6918 21.5991 5.6918L12.0227 5.70298C11.5982 5.70349 11.2544 6.0479 11.2544 6.47267V19.8192H3.16923V4.58867L11.2544 2.41365V4.16108H12.7928V1.4097C12.7928 0.91175 12.3051 0.536981 11.8238 0.666417L2.20026 3.25529C1.86431 3.3457 1.63077 3.65047 1.63077 3.99857V19.8192H0.769667C0.344592 19.8192 0 20.1638 0 20.5889C0 21.014 0.344592 21.3586 0.769667 21.3586H23.2303C23.6554 21.3586 24 21.014 24 20.5889C24 20.1638 23.6554 19.8192 23.2303 19.8192H12.7928Z" fill="#62A446"/>
<path d="M20.8308 17.1035H22.3692V18.5374H20.8308V17.1035Z" fill="#62A446"/>
<path d="M14.9551 9.23047H18.6213V10.7698H14.9551V9.23047Z" fill="#62A446"/>
<path d="M14.9551 12.7305H18.6213V14.2698H14.9551V12.7305Z" fill="#62A446"/>
<path d="M14.9551 16.2305H18.6213V17.7698H14.9551V16.2305Z" fill="#62A446"/>
</svg>
