<svg width="44" height="44" viewBox="0 0 44 44" fill="none" xmlns="http://www.w3.org/2000/svg">
<circle cx="22" cy="22" r="22" fill="#F0F4F9"/>
<path d="M21.2275 30.4316C21.187 30.5939 21.0933 30.7379 20.9615 30.8408C20.8297 30.9438 20.6673 30.9997 20.5 30.9997C20.4368 31 20.3738 30.9925 20.3125 30.9772L17.3125 30.2272C17.229 30.2063 17.1497 30.1711 17.0781 30.1232L14.8281 28.6232C14.6627 28.5128 14.5478 28.3412 14.5089 28.1461C14.4699 27.951 14.5101 27.7485 14.6205 27.583C14.7309 27.4175 14.9025 27.3027 15.0976 27.2638C15.2926 27.2248 15.4952 27.265 15.6606 27.3754L17.8019 28.8032L20.6763 29.5222C20.7723 29.5455 20.8628 29.5876 20.9425 29.6459C21.0223 29.7043 21.0897 29.7778 21.1409 29.8623C21.1921 29.9468 21.2262 30.0406 21.241 30.1383C21.2559 30.236 21.2513 30.3357 21.2275 30.4316ZM33.6672 21.3885C33.6057 21.5754 33.5077 21.7483 33.379 21.8971C33.2502 22.046 33.0933 22.1678 32.9172 22.2557L30.6972 23.3657L25.5335 28.5304C25.4418 28.6219 25.328 28.6882 25.2031 28.7227C25.0783 28.7572 24.9466 28.7587 24.8209 28.7272L18.8209 27.2272C18.7297 27.2043 18.6435 27.1646 18.5669 27.11L13.3619 23.3938L11.0856 22.2557C10.7299 22.0778 10.4593 21.766 10.3335 21.3887C10.2076 21.0114 10.2367 20.5996 10.4144 20.2438L12.7441 15.5854C12.9219 15.2296 13.2338 14.9591 13.611 14.8332C13.9883 14.7073 14.4001 14.7364 14.756 14.9141L16.8241 15.9454L21.7928 14.526C21.9276 14.4874 22.0705 14.4874 22.2053 14.526L27.1741 15.9454L29.2422 14.9141C29.598 14.7364 30.0098 14.7073 30.3871 14.8332C30.7644 14.9591 31.0762 15.2296 31.2541 15.5854L33.5838 20.2438C33.6726 20.4196 33.7257 20.6113 33.7401 20.8078C33.7544 21.0043 33.7296 21.2016 33.6672 21.3885ZM29.3378 22.6016L26.7869 17.4997H23.8038L19.75 21.4372C20.9369 22.1957 22.7978 22.4047 24.4675 20.7219C24.5979 20.5905 24.7723 20.5119 24.9572 20.5014C25.142 20.4908 25.3242 20.549 25.4688 20.6647L28.6947 23.2494L29.3378 22.6016ZM11.756 20.9141L13.4144 21.7438L15.7441 17.0854L14.0856 16.2557L11.756 20.9141ZM27.625 24.3116L25.0272 22.2313C23.1953 23.7313 20.8694 23.9291 18.9419 22.7C18.7523 22.5794 18.5922 22.4178 18.4735 22.227C18.3547 22.0362 18.2804 21.8212 18.2559 21.5978C18.2314 21.3744 18.2574 21.1484 18.332 20.9365C18.4066 20.7245 18.5279 20.532 18.6869 20.3732C18.6891 20.3704 18.6917 20.3679 18.6944 20.3657L22.9 16.2866L22 16.0297L17.2731 17.3807L14.7072 22.5116L19.3197 25.8069L24.7703 27.1691L27.625 24.3116ZM32.2413 20.9141L29.9144 16.2557L28.256 17.0854L30.5856 21.7438L32.2413 20.9141Z" fill="#3E8BEF"/>
</svg>
