<svg width="12" height="22" viewBox="0 0 12 22" fill="none" xmlns="http://www.w3.org/2000/svg">
<path d="M4.29447 5.82762L4.39651 16.6375C4.41734 17.0108 4.59998 17.3627 4.90662 17.6204C5.21325 17.878 5.62039 18.0218 6.04374 18.0218C6.4671 18.0218 6.87424 17.878 7.18087 17.6204C7.4875 17.3627 7.67015 17.0108 7.69098 16.6375L7.58894 3.7686C7.54727 3.02203 7.18199 2.3182 6.56873 1.80283C5.95546 1.28745 5.14118 1 4.29447 1C3.44776 1 2.63349 1.28745 2.02022 1.80283C1.40696 2.3182 1.04166 3.02203 1 3.7686L1.10204 16.6375C1.10204 17.7945 1.62268 18.9041 2.54943 19.7223C3.47618 20.5404 4.73312 21 6.04374 21C7.35436 21 8.61131 20.5404 9.53803 19.7223C10.4648 18.9041 10.9855 17.7945 10.9855 16.6375L11 6.085" stroke="currentColor" stroke-width="2" stroke-linecap="round" stroke-linejoin="round"/>
</svg>
