<svg width="57" height="56" viewBox="0 0 57 56" fill="none" xmlns="http://www.w3.org/2000/svg">
<circle cx="28.0146" cy="28" r="28" fill="#F0FBEA"/>
<path d="M23.6989 24.2802V22.1334C23.6989 21.5579 23.4673 21.006 23.0551 20.5989C22.6429 20.1919 22.0838 19.9631 21.5008 19.9629H10.7109C10.4222 19.963 10.1364 20.0192 9.86977 20.1284C9.60313 20.2375 9.36088 20.3974 9.15685 20.599C8.95282 20.8005 8.79101 21.0398 8.68065 21.3031C8.57029 21.5663 8.51355 21.8485 8.51367 22.1334V50.0572C8.51355 50.3422 8.57033 50.6244 8.68075 50.8876C8.79118 51.1509 8.95308 51.3902 9.15722 51.5917C9.36136 51.7931 9.60372 51.953 9.87046 52.0619C10.1372 52.1709 10.4231 52.227 10.7118 52.2269H47.9208C48.2095 52.227 48.4954 52.1709 48.7621 52.0619C49.0289 51.953 49.2713 51.7931 49.4754 51.5917C49.6795 51.3902 49.8414 51.1509 49.9519 50.8876C50.0623 50.6244 50.1191 50.3422 50.1189 50.0572V28.6204C50.1191 28.3354 50.0623 28.0531 49.9519 27.7898C49.8415 27.5265 49.6796 27.2872 49.4754 27.0856C49.2713 26.8841 49.029 26.7242 48.7622 26.6151C48.4955 26.506 48.2096 26.4498 47.9208 26.4498H25.8952C25.3126 26.4491 24.7541 26.2203 24.3423 25.8135C23.9305 25.4067 23.6991 24.8552 23.6989 24.2802Z" fill="#387E1B"/>
<path d="M48.7065 3.20088L23.5804 3.24849C23.4247 3.24878 23.2988 3.37355 23.2991 3.52716L23.3604 35.0121C23.3607 35.1657 23.4871 35.29 23.6427 35.2897L48.7688 35.2421C48.9244 35.2418 49.0504 35.1171 49.0501 34.9634L48.9888 3.47848C48.9885 3.32487 48.8621 3.20058 48.7065 3.20088Z" fill="#F2F2F2"/>
<path opacity="0.23" d="M45.701 13.976L28.8938 14.0078L28.8948 14.5051L45.702 14.4733L45.701 13.976Z" fill="#0E2E01"/>
<path opacity="0.23" d="M45.7054 16.2243L25.9573 16.2617L25.9581 16.671L45.7062 16.6336L45.7054 16.2243Z" fill="#0E2E01"/>
<path opacity="0.23" d="M45.7093 18.6804L25.9612 18.7178L25.962 19.1271L45.7101 19.0896L45.7093 18.6804Z" fill="#0E2E01"/>
<path opacity="0.23" d="M45.7154 21.3649L25.9673 21.4023L25.9681 21.8116L45.7162 21.7742L45.7154 21.3649Z" fill="#0E2E01"/>
<path d="M38.407 26.5341L25.9773 26.5576L25.9781 26.9669L38.4078 26.9433L38.407 26.5341Z" fill="#E6E6E7"/>
<path opacity="0.23" d="M38.4022 24.0839L25.9724 24.1074L25.9732 24.5167L38.403 24.4932L38.4022 24.0839Z" fill="#0E2E01"/>
<path d="M45.7296 28.6794L25.9814 28.7168L25.9822 29.1261L45.7304 29.0887L45.7296 28.6794Z" fill="#E6E6E7"/>
<path d="M45.7342 31.1364L25.9861 31.1738L25.9869 31.5831L45.735 31.5457L45.7342 31.1364Z" fill="#E6E6E7"/>
<path d="M45.7396 33.82L25.9915 33.8574L25.9923 34.2667L45.7404 34.2293L45.7396 33.82Z" fill="#E6E6E7"/>
<path d="M46.2717 5.7298L25.8191 5.76855L25.8314 12.1103L46.284 12.0715L46.2717 5.7298Z" fill="#3E8BEF"/>
<path d="M45.5306 22.172L39.3911 22.1836L39.4026 28.0967L45.5421 28.085L45.5306 22.172Z" fill="#82AFE9"/>
<path d="M21.5998 24.2802V22.1334C21.5999 21.8484 21.5431 21.5662 21.4327 21.3029C21.3223 21.0395 21.1604 20.8002 20.9563 20.5987C20.7521 20.3971 20.5098 20.2372 20.243 20.1281C19.9763 20.019 19.6904 19.9629 19.4016 19.9629H8.61176C8.02886 19.9634 7.47 20.1922 7.05799 20.5992C6.64599 21.0062 6.41455 21.5581 6.41455 22.1334V50.0572C6.41455 50.6326 6.64614 51.1845 7.05836 51.5914C7.47059 51.9983 8.02968 52.2269 8.61266 52.2269H45.8217C46.1104 52.227 46.3964 52.171 46.6632 52.062C46.93 51.953 47.1724 51.7932 47.3766 51.5917C47.5808 51.3902 47.7428 51.151 47.8533 50.8877C47.9638 50.6244 48.0207 50.3422 48.0207 50.0572V28.6204C48.0207 28.3353 47.9638 28.0531 47.8533 27.7897C47.7428 27.5264 47.5808 27.2871 47.3766 27.0856C47.1724 26.884 46.93 26.7241 46.6632 26.6151C46.3964 26.506 46.1105 26.4498 45.8217 26.4498H23.8032C23.5141 26.4504 23.2278 26.3947 22.9605 26.286C22.6933 26.1772 22.4504 26.0175 22.2457 25.816C22.0411 25.6145 21.8787 25.3751 21.7678 25.1116C21.657 24.848 21.5999 24.5655 21.5998 24.2802Z" fill="#82C167"/>
</svg>
