<svg width="22" height="22" viewBox="0 0 22 22" fill="none" xmlns="http://www.w3.org/2000/svg">
<g clip-path="url(#clip0_1609_17855)">
<path d="M18.1377 7.19565L13.471 2.52898C13.4091 2.4671 13.3355 2.41802 13.2546 2.38456C13.1737 2.3511 13.0869 2.33392 12.9993 2.33398H4.99935C4.64573 2.33398 4.30659 2.47446 4.05654 2.72451C3.80649 2.97456 3.66602 3.3137 3.66602 3.66732V18.334C3.66602 18.6876 3.80649 19.0267 4.05654 19.2768C4.30659 19.5268 4.64573 19.6673 4.99935 19.6673H16.9993C17.353 19.6673 17.6921 19.5268 17.9422 19.2768C18.1922 19.0267 18.3327 18.6876 18.3327 18.334V7.66732C18.3328 7.57974 18.3156 7.49302 18.2821 7.41209C18.2486 7.33115 18.1996 7.25761 18.1377 7.19565ZM12.9993 7.66732V4.00065L16.666 7.66732H12.9993Z" fill="#62A446"/>
</g>
<defs>
<clipPath id="clip0_1609_17855">
<rect width="21.3333" height="21.3333" fill="white" transform="translate(0.333008 0.333984)"/>
</clipPath>
</defs>
</svg>
