<svg width="10" height="10" viewBox="0 0 10 10" fill="none" xmlns="http://www.w3.org/2000/svg">
<path d="M0.461194 8.17771L6.51456 2.12337L2.10345 2.12337C1.8483 2.12337 1.60359 2.02201 1.42317 1.84159C1.24274 1.66116 1.14138 1.41646 1.14138 1.1613C1.14138 0.90614 1.24274 0.661433 1.42317 0.481009C1.60359 0.300585 1.8483 0.199224 2.10345 0.199224L8.83797 0.199224C8.97031 0.198773 9.10132 0.22563 9.2228 0.278114L9.24012 0.286773L9.24782 0.295432L9.25936 0.295432L9.27283 0.302166L9.2786 0.302166L9.29688 0.315635C9.45952 0.4042 9.59315 0.537824 9.68171 0.700465L9.69326 0.720669L9.69326 0.726441L9.70384 0.73991L9.70384 0.751455L9.70384 0.759152L9.7202 0.776469C9.77301 0.897884 9.8002 1.02889 9.80005 1.1613L9.80005 7.89582C9.80005 8.15098 9.69869 8.39568 9.51826 8.57611C9.33784 8.75653 9.09313 8.85789 8.83797 8.85789C8.58282 8.85789 8.33811 8.75653 8.15768 8.57611C7.97726 8.39568 7.8759 8.15098 7.8759 7.89582L7.8759 3.48471L1.82157 9.53808C1.64012 9.71333 1.3971 9.8103 1.14484 9.80811C0.892589 9.80592 0.651289 9.70474 0.472913 9.52636C0.294536 9.34798 0.193356 9.10668 0.191164 8.85443C0.188972 8.60218 0.285944 8.35916 0.461194 8.17771Z" fill="currentColor"/>
</svg>
