<svg width="57" height="56" viewBox="0 0 57 56" fill="none" xmlns="http://www.w3.org/2000/svg">
<circle cx="28.0146" cy="28" r="28" fill="#F0FBEA"/>
<path d="M12.9951 20.412L27.1546 8.00569C29.0507 6.34442 31.9561 7.74024 31.9561 10.3116V13.8668V20.412H12.9951Z" fill="#82C167"/>
<path d="M18.8296 20.4128L34.1858 12.7555C36.1308 11.6937 38.5199 13.0764 38.5199 15.2627V20.4128H18.8296Z" fill="#62A446"/>
<path d="M48.0005 38.6448V43.7497C48.0005 46.1665 46.0417 48.1253 43.6249 48.1253H12.2662C9.84944 48.1253 7.89062 46.1665 7.89062 43.7497V24.7887C7.89062 22.3719 9.84944 20.4131 12.2662 20.4131H43.6249C46.0417 20.4131 48.0005 22.3719 48.0005 24.7887V29.8936V38.6448Z" fill="#236609"/>
<path d="M41.1212 48.1253H43.6248C46.0416 48.1253 48.0004 46.1665 48.0004 43.7497V38.6448V29.8936V24.7887C48.0004 22.3719 46.0416 20.4131 43.6248 20.4131H17.3711C17.3711 33.9235 27.5189 45.225 41.1212 48.1253Z" fill="#387E1B"/>
<path d="M48.7294 38.6448H39.9781C37.5613 38.6448 37.061 36.686 37.061 34.2692C37.061 31.8524 37.5613 29.8936 39.9781 29.8936H48.7294C50.3403 29.8936 51.6464 31.1997 51.6464 32.8106V35.7277C51.6464 37.3387 50.3403 38.6448 48.7294 38.6448Z" fill="#236609"/>
<path d="M42.1663 36.4567C43.3746 36.4567 44.3541 35.4772 44.3541 34.2689C44.3541 33.0606 43.3746 32.0811 42.1663 32.0811C40.958 32.0811 39.9785 33.0606 39.9785 34.2689C39.9785 35.4772 40.958 36.4567 42.1663 36.4567Z" fill="#F2F2F2"/>
<path d="M45.0695 10.2029C45.5143 12.3878 44.5335 14.6164 42.6213 15.7636L42.1663 16.037L45.0833 18.2248L45.2117 18.1395C47.8648 16.3703 49.459 13.392 49.459 10.2029H51.1224C51.5797 10.2029 51.8087 9.65008 51.4856 9.32629L48.131 4.81356C47.6963 4.22869 46.8197 4.22869 46.3851 4.81429L43.0509 9.30441C42.719 9.63623 42.9539 10.2029 43.4228 10.2029H45.0695L45.0833 10.2364L45.0695 10.2029Z" fill="#EDA418"/>
<path d="M48.3521 5.1123L45.2389 9.30488C44.907 9.6367 45.1419 10.2033 45.6108 10.2033H47.2575C47.7031 12.3882 46.7215 14.6169 44.8093 15.764L44.3542 16.0375L46.1752 17.4034C48.2456 15.605 49.4591 12.9848 49.4591 10.2033H51.1226C51.5799 10.2033 51.8088 9.65055 51.4858 9.32676L48.3521 5.1123Z" fill="#F6CB79"/>
</svg>
