<svg width="56" height="56" viewBox="0 0 56 56" fill="none" xmlns="http://www.w3.org/2000/svg">
<rect width="56" height="56" rx="8.4" fill="#D6F1CA"/>
<path d="M35.5764 35.6532C43.0421 35.4252 42.023 14.7204 41.8657 12.0611C41.8605 11.975 41.8318 11.8921 41.7826 11.8217C41.7335 11.7512 41.6659 11.6959 41.5875 11.662L40.5517 11.2135C40.4943 11.1886 40.4325 11.1758 40.37 11.1758C40.3076 11.1758 40.2458 11.1886 40.1884 11.2135L39.0744 11.6966C39.017 11.7216 38.9552 11.7345 38.8927 11.7345C38.8302 11.7345 38.7683 11.7216 38.7109 11.6966L37.5979 11.2137C37.5405 11.1888 37.4787 11.1759 37.4162 11.1759C37.3537 11.1759 37.2919 11.1888 37.2344 11.2137L36.1211 11.6968C36.0637 11.7218 36.0019 11.7347 35.9394 11.7347C35.8769 11.7347 35.815 11.7218 35.7576 11.6968L34.6448 11.2138C34.5873 11.1889 34.5255 11.1761 34.463 11.1761C34.4004 11.1761 34.3386 11.1889 34.2811 11.2138L33.1688 11.6968C33.1113 11.7218 33.0495 11.7347 32.9869 11.7347C32.9244 11.7347 32.8625 11.7218 32.8051 11.6968L32.171 11.4218C32.1004 11.3909 32.0233 11.3784 31.9467 11.3854C31.87 11.3925 31.7964 11.4188 31.7325 11.4621C31.6686 11.5053 31.6164 11.5641 31.5808 11.633C31.5452 11.7019 31.5273 11.7788 31.5287 11.8565C31.5848 15.037 31.5572 27.8575 27.6504 32.6376L35.5764 35.6532Z" fill="#62A446"/>
<path d="M35.0845 33.211V26.7894C35.0845 24.3804 31.7926 23.8379 31.7926 23.8379L28.4941 35.6546H35.0845C36.3636 35.6546 36.9346 35.1128 36.9346 35.1128C35.4413 35.1669 35.127 33.8962 35.0845 33.211Z" fill="#387E1B"/>
<path d="M19.0081 24.2253C14.5101 30.4256 14.1718 41.4948 14.1465 43.2472C14.1455 43.3204 14.1615 43.3929 14.1933 43.4591C14.2251 43.5253 14.2719 43.5835 14.33 43.6292L15.8603 44.8339C15.9471 44.9022 16.0549 44.9394 16.166 44.9394C16.2771 44.9394 16.385 44.9022 16.4717 44.8339L17.881 43.7239C17.9677 43.6556 18.0756 43.6184 18.1867 43.6184C18.2978 43.6184 18.4056 43.6556 18.4924 43.7239L19.9023 44.8339C19.9891 44.9022 20.0969 44.9394 20.208 44.9394C20.3192 44.9394 20.427 44.9022 20.5138 44.8339L21.9243 43.7235C22.0111 43.6553 22.1189 43.6181 22.23 43.6181C22.3411 43.6181 22.449 43.6553 22.5357 43.7235L23.9458 44.8337C24.0325 44.902 24.1403 44.9392 24.2514 44.9392C24.3625 44.9392 24.4703 44.902 24.5571 44.8337L25.9686 43.7232C26.0553 43.655 26.1631 43.6178 26.2742 43.6178C26.3852 43.6178 26.493 43.655 26.5797 43.7232L27.4898 44.4394C27.562 44.496 27.6491 44.5314 27.7409 44.5415C27.8327 44.5515 27.9255 44.5358 28.0086 44.4961C28.0917 44.4565 28.1617 44.3945 28.2105 44.3173C28.2593 44.2402 28.2848 44.151 28.2842 44.0601C28.2611 34.8617 30.7575 29.13 32.7673 26.0088C32.9359 25.7358 33.1932 25.5268 33.4977 25.4158C34.0057 25.2422 34.75 25.3203 35.2477 26.8417V24.4977C35.2477 24.0989 35.0866 23.7165 34.7999 23.4345C34.5131 23.1525 34.1243 22.9941 33.7189 22.9941H21.4318C20.9573 22.9946 20.4898 23.1066 20.0682 23.3207C19.6466 23.5349 19.2831 23.845 19.0081 24.2253Z" fill="#ADDE98"/>
<path d="M28.1191 27.7194H21.1654C20.9977 27.7194 20.8369 27.6528 20.7184 27.5342C20.5998 27.4157 20.5332 27.2549 20.5332 27.0872C20.5332 26.9196 20.5998 26.7588 20.7184 26.6402C20.8369 26.5217 20.9977 26.4551 21.1654 26.4551H28.1191C28.2868 26.4551 28.4476 26.5217 28.5661 26.6402C28.6847 26.7588 28.7513 26.9196 28.7513 27.0872C28.7513 27.2549 28.6847 27.4157 28.5661 27.5342C28.4476 27.6528 28.2868 27.7194 28.1191 27.7194Z" fill="white"/>
<path d="M25.576 30.4479H19.8392C19.6715 30.4479 19.5107 30.3813 19.3922 30.2628C19.2736 30.1442 19.207 29.9834 19.207 29.8158C19.207 29.6481 19.2736 29.4873 19.3922 29.3687C19.5107 29.2502 19.6715 29.1836 19.8392 29.1836H25.576C25.7437 29.1836 25.9045 29.2502 26.023 29.3687C26.1416 29.4873 26.2082 29.6481 26.2082 29.8158C26.2082 29.9834 26.1416 30.1442 26.023 30.2628C25.9045 30.3813 25.7437 30.4479 25.576 30.4479Z" fill="white"/>
<path d="M22.7047 33.2487H19.4115C19.2438 33.2487 19.083 33.1821 18.9645 33.0635C18.8459 32.945 18.7793 32.7842 18.7793 32.6165C18.7793 32.4489 18.8459 32.2881 18.9645 32.1695C19.083 32.051 19.2438 31.9844 19.4115 31.9844H22.7047C22.8724 31.9844 23.0331 32.051 23.1517 32.1695C23.2702 32.2881 23.3369 32.4489 23.3369 32.6165C23.3369 32.7842 23.2702 32.945 23.1517 33.0635C23.0331 33.1821 22.8724 33.2487 22.7047 33.2487Z" fill="white"/>
<path d="M25.8683 33.2487H25.5716C25.404 33.2487 25.2432 33.1821 25.1246 33.0635C25.0061 32.945 24.9395 32.7842 24.9395 32.6165C24.9395 32.4489 25.0061 32.2881 25.1246 32.1695C25.2432 32.051 25.404 31.9844 25.5716 31.9844H25.869C26.0367 31.9844 26.1975 32.051 26.316 32.1695C26.4346 32.2881 26.5012 32.4489 26.5012 32.6165C26.5012 32.7842 26.4346 32.945 26.316 33.0635C26.1975 33.1821 26.0367 33.2487 25.869 33.2487H25.8683Z" fill="white"/>
<path d="M25.0192 38.6471H22.7025C22.5348 38.6471 22.374 38.5805 22.2555 38.462C22.1369 38.3434 22.0703 38.1826 22.0703 38.015C22.0703 37.8473 22.1369 37.6865 22.2555 37.568C22.374 37.4494 22.5348 37.3828 22.7025 37.3828H25.0192C25.1868 37.3828 25.3476 37.4494 25.4662 37.568C25.5847 37.6865 25.6513 37.8473 25.6513 38.015C25.6513 38.1826 25.5847 38.3434 25.4662 38.462C25.3476 38.5805 25.1868 38.6471 25.0192 38.6471Z" fill="white"/>
</svg>
