<svg width="48" height="49" viewBox="0 0 48 49" fill="none" xmlns="http://www.w3.org/2000/svg">
<path d="M39.428 7.15722V10.8809H31.8057L32.3199 7.15722C32.3199 5.19684 33.9113 3.60547 35.873 3.60547C37.8364 3.60547 39.428 5.19711 39.428 7.15722Z" fill="#4D8E31"/>
<path d="M13.752 7.1205V41.5019H25.2236V41.5488C25.2236 43.4854 26.7665 45.0561 28.6889 45.0984H28.8107C28.9325 45.0984 29.0546 45.0935 29.1719 45.0795L29.8331 44.9437C29.9972 44.8922 30.1565 44.8264 30.3115 44.7515C30.3865 44.7186 30.4662 44.6763 30.5366 44.6342C30.5741 44.6154 30.6115 44.5922 30.6493 44.5639C30.7525 44.503 30.8509 44.4372 30.9447 44.3623C30.9587 44.3528 30.9776 44.3388 30.9916 44.3248C31.0619 44.2733 31.1277 44.217 31.1886 44.1561C31.2215 44.128 31.2541 44.0952 31.287 44.0623C31.6902 43.6636 31.9951 43.1714 32.1638 42.6135C32.1684 42.5995 32.1732 42.59 32.1778 42.5806C32.2013 42.4962 32.2247 42.407 32.2436 42.3181C32.2716 42.2057 32.2905 42.093 32.2999 41.9757C32.3094 41.9243 32.3094 41.8725 32.314 41.821C32.3185 41.8022 32.3185 41.7881 32.3185 41.7695C32.3185 41.704 32.3326 41.6429 32.3326 41.5774V7.15796C32.3326 6.16389 33.0266 3.60352 36.0978 3.60352H17.2687C15.3274 3.60352 13.752 5.17926 13.752 7.1205Z" fill="#4D8E31"/>
<path opacity="0.8" d="M13.752 7.1205V41.5019H25.2236V41.5488C25.2236 43.4854 26.7665 45.0561 28.6889 45.0984H28.8107C28.9325 45.0984 29.0546 45.0935 29.1719 45.0795L29.8331 44.9437C29.9972 44.8922 30.1565 44.8264 30.3115 44.7515C30.3865 44.7186 30.4662 44.6763 30.5366 44.6342C30.5741 44.6154 30.6115 44.5922 30.6493 44.5639C30.7525 44.503 30.8509 44.4372 30.9447 44.3623C30.9587 44.3528 30.9776 44.3388 30.9916 44.3248C31.0619 44.2733 31.1277 44.217 31.1886 44.1561C31.2215 44.128 31.2541 44.0952 31.287 44.0623C31.6902 43.6636 31.9951 43.1714 32.1638 42.6135C32.1684 42.5995 32.1732 42.59 32.1778 42.5806C32.2013 42.4962 32.2247 42.407 32.2436 42.3181C32.2716 42.2057 32.2905 42.093 32.2999 41.9757C32.3094 41.9243 32.3094 41.8725 32.314 41.821C32.3185 41.8022 32.3185 41.7881 32.3185 41.7695C32.3185 41.704 32.3326 41.6429 32.3326 41.5774V7.15796C32.3326 6.16389 33.0266 3.60352 36.0978 3.60352H17.2687C15.3274 3.60352 13.752 5.17926 13.752 7.1205Z" fill="white"/>
<path d="M29.7364 5.83203V6.44039H27.5205C27.5647 6.24793 27.6264 6.04227 27.7116 5.83203H29.7364Z" fill="#4D8E31"/>
<path d="M30.9823 4.26562V4.87533H28.2637C28.4429 4.6535 28.6545 4.44622 28.9073 4.26562H30.9823Z" fill="#4D8E31"/>
<path d="M29.7367 7.54102H27.4326V8.15099H29.7367V7.54102Z" fill="#4D8E31"/>
<path d="M29.7367 9.25391H27.4326V9.86388H29.7367V9.25391Z" fill="#4D8E31"/>
<path d="M29.7367 10.9668H27.4326V11.5752H29.7367V10.9668Z" fill="#4D8E31"/>
<path d="M29.7367 12.6777H27.4326V13.2877H29.7367V12.6777Z" fill="#4D8E31"/>
<path d="M29.7367 14.3887H27.4326V14.9986H29.7367V14.3887Z" fill="#4D8E31"/>
<path d="M29.7367 16.0996H27.4326V16.708H29.7367V16.0996Z" fill="#4D8E31"/>
<path d="M29.7367 17.8105H27.4326V18.4205H29.7367V17.8105Z" fill="#4D8E31"/>
<path d="M29.7367 19.5215H27.4326V20.1315H29.7367V19.5215Z" fill="#4D8E31"/>
<path d="M29.7367 21.2344H27.4326V21.8427H29.7367V21.2344Z" fill="#4D8E31"/>
<path d="M29.7367 22.9434H27.4326V23.5533H29.7367V22.9434Z" fill="#4D8E31"/>
<path d="M29.7367 24.6562H27.4326V25.2662H29.7367V24.6562Z" fill="#4D8E31"/>
<path d="M29.7367 26.3672H27.4326V26.9755H29.7367V26.3672Z" fill="#4D8E31"/>
<path d="M29.7367 28.0781H27.4326V28.6881H29.7367V28.0781Z" fill="#4D8E31"/>
<path d="M29.7367 29.791H27.4326V30.401H29.7367V29.791Z" fill="#4D8E31"/>
<path d="M29.7367 31.5039H27.4326V32.1123H29.7367V31.5039Z" fill="#4D8E31"/>
<path d="M29.7367 33.2129H27.4326V33.8229H29.7367V33.2129Z" fill="#4D8E31"/>
<path d="M29.7367 34.9258H27.4326V35.5358H29.7367V34.9258Z" fill="#4D8E31"/>
<path opacity="0.5" d="M16.1963 5.83008H26.7079C26.6227 6.04032 26.561 6.24598 26.5168 6.43843H16.1963V5.83008Z" fill="#4D8E31"/>
<path opacity="0.5" d="M27.9055 4.26562C27.6526 4.44649 27.4397 4.6535 27.2604 4.87533H17.4424V4.26562H27.9055Z" fill="#4D8E31"/>
<path opacity="0.5" d="M26.4286 7.54102H16.1963V8.15099H26.4286V7.54102Z" fill="#4D8E31"/>
<path opacity="0.5" d="M26.4286 9.25195H16.1963V9.86193H26.4286V9.25195Z" fill="#4D8E31"/>
<path opacity="0.5" d="M26.4286 10.9648H16.1963V11.5732H26.4286V10.9648Z" fill="#4D8E31"/>
<path opacity="0.5" d="M26.4286 12.6758H16.1963V13.2858H26.4286V12.6758Z" fill="#4D8E31"/>
<path opacity="0.5" d="M26.4286 14.3867H16.1963V14.9967H26.4286V14.3867Z" fill="#4D8E31"/>
<path opacity="0.5" d="M26.4286 16.0996H16.1963V16.708H26.4286V16.0996Z" fill="#4D8E31"/>
<path opacity="0.5" d="M26.4286 17.8086H16.1963V18.4186H26.4286V17.8086Z" fill="#4D8E31"/>
<path opacity="0.5" d="M26.4286 19.5215H16.1963V20.1315H26.4286V19.5215Z" fill="#4D8E31"/>
<path opacity="0.5" d="M26.4286 21.2344H16.1963V21.8427H26.4286V21.2344Z" fill="#4D8E31"/>
<path opacity="0.5" d="M26.4286 22.9434H16.1963V23.5533H26.4286V22.9434Z" fill="#4D8E31"/>
<path opacity="0.5" d="M26.4286 24.6562H16.1963V25.2662H26.4286V24.6562Z" fill="#4D8E31"/>
<path opacity="0.5" d="M26.4286 26.3672H16.1963V26.9755H26.4286V26.3672Z" fill="#4D8E31"/>
<path opacity="0.5" d="M26.4286 28.0781H16.1963V28.6881H26.4286V28.0781Z" fill="#4D8E31"/>
<path opacity="0.5" d="M26.4286 29.791H16.1963V30.401H26.4286V29.791Z" fill="#4D8E31"/>
<path opacity="0.5" d="M26.4286 31.5039H16.1963V32.1123H26.4286V31.5039Z" fill="#4D8E31"/>
<path opacity="0.5" d="M26.4286 33.2129H16.1963V33.8229H26.4286V33.2129Z" fill="#4D8E31"/>
<path opacity="0.5" d="M26.4286 34.9258H16.1963V35.5358H26.4286V34.9258Z" fill="#4D8E31"/>
<path opacity="0.5" d="M26.4286 36.6367H16.1963V37.2451H26.4286V36.6367Z" fill="#4D8E31"/>
<path d="M29.7367 36.6367H27.4326V37.2451H29.7367V36.6367Z" fill="#4D8E31"/>
<path d="M8.57129 41.502V41.5489C8.57129 43.4855 10.1139 45.0561 12.0365 45.0984H28.6899C26.7673 45.0561 25.2247 43.4852 25.2247 41.5489V41.502H8.57129Z" fill="#4D8E31"/>
<g opacity="0.3">
<path d="M8.57129 41.502V41.5489C8.57129 43.4855 10.1139 45.0561 12.0365 45.0984H28.6899C26.7673 45.0561 25.2247 43.4852 25.2247 41.5489V41.502H8.57129Z" fill="white"/>
</g>
<path d="M16.879 38.956H16.6537V39.7126C16.6537 39.7565 16.6197 39.7905 16.5758 39.7905C16.5332 39.7905 16.4979 39.7565 16.4979 39.7126V38.956H16.2742C16.2303 38.956 16.1963 38.919 16.1963 38.8767C16.1963 38.8328 16.2303 38.7988 16.2742 38.7988H16.879C16.9214 38.7988 16.9569 38.8328 16.9569 38.8767C16.9569 38.919 16.9214 38.956 16.879 38.956Z" fill="#174604"/>
<path d="M17.8952 38.9213C17.9831 39.0148 18.0381 39.1393 18.0381 39.2798C18.0381 39.4202 17.9828 39.5461 17.8952 39.638C17.8117 39.7302 17.6869 39.7895 17.5567 39.7895C17.4206 39.7895 17.296 39.7299 17.2095 39.638C17.1216 39.5461 17.0693 39.4199 17.0693 39.2798C17.0693 39.1396 17.1216 39.0148 17.2095 38.9213C17.296 38.8278 17.4206 38.7695 17.5567 38.7695C17.6869 38.7695 17.8117 38.8278 17.8952 38.9213ZM17.8766 39.2798C17.8766 39.1835 17.8383 39.0941 17.7804 39.0318C17.7208 38.9679 17.6416 38.9313 17.5564 38.9313C17.4658 38.9313 17.3866 38.9682 17.327 39.0318C17.2674 39.0941 17.2308 39.1833 17.2308 39.2798C17.2308 39.376 17.2677 39.4655 17.327 39.5264C17.3866 39.59 17.4658 39.6283 17.5564 39.6283C17.6413 39.6283 17.7208 39.59 17.7804 39.5264C17.8383 39.4652 17.8766 39.376 17.8766 39.2798Z" fill="#174604"/>
<path d="M18.8458 38.956H18.6205V39.7126C18.6205 39.7565 18.5865 39.7905 18.5426 39.7905C18.5 39.7905 18.4647 39.7565 18.4647 39.7126V38.956H18.241C18.197 38.956 18.1631 38.919 18.1631 38.8767C18.1631 38.8328 18.197 38.7988 18.241 38.7988H18.8458C18.8882 38.7988 18.9237 38.8328 18.9237 38.8767C18.9235 38.919 18.8882 38.956 18.8458 38.956Z" fill="#174604"/>
<path d="M19.5302 39.5555H19.186L19.1168 39.7396C19.1041 39.7709 19.0742 39.7892 19.0432 39.7892C19.0332 39.7892 19.0249 39.7878 19.0162 39.7849C18.975 39.7692 18.9553 39.724 18.9693 39.683L19.2823 38.8485C19.2952 38.8175 19.3262 38.7975 19.3575 38.7989C19.3901 38.7975 19.42 38.8175 19.4327 38.8485L19.7456 39.683C19.7599 39.724 19.74 39.7695 19.699 39.7849C19.692 39.7878 19.682 39.7892 19.672 39.7892C19.641 39.7892 19.6111 39.7709 19.5998 39.7396L19.5302 39.5555ZM19.472 39.3997L19.3572 39.0951L19.2426 39.3997H19.472Z" fill="#174604"/>
<path d="M19.9385 39.7126V38.8767C19.9385 38.8341 19.9724 38.7988 20.0164 38.7988C20.0603 38.7988 20.0956 38.8341 20.0956 38.8767V39.6331H20.4795C20.5204 39.6331 20.5573 39.6684 20.5573 39.7123C20.5573 39.7546 20.5207 39.7902 20.4795 39.7902H20.0204C20.0175 39.7902 20.0175 39.7902 20.0175 39.7902C20.0161 39.7902 20.0161 39.7902 20.0161 39.7902C19.9727 39.7905 19.9385 39.7549 19.9385 39.7126Z" fill="#174604"/>
<path d="M20.8177 39.0234C20.876 39.0234 20.9239 39.0717 20.9239 39.1296C20.9239 39.1879 20.876 39.2345 20.8177 39.2345C20.7598 39.2345 20.7129 39.1879 20.7129 39.1296C20.7129 39.0717 20.7598 39.0234 20.8177 39.0234ZM20.8177 39.5871C20.876 39.5871 20.9239 39.6353 20.9239 39.6932C20.9239 39.7515 20.876 39.7981 20.8177 39.7981C20.7598 39.7981 20.7129 39.7515 20.7129 39.6932C20.7129 39.6353 20.7598 39.5871 20.8177 39.5871Z" fill="#174604"/>
<path d="M29.7369 39.0156H27.4326V39.7261H29.7369V39.0156Z" fill="#4D8E31"/>
<path d="M25.6455 38.4961C25.6897 38.4961 25.7245 38.5311 25.7245 38.5751V38.6158C25.8328 38.6287 25.925 38.6635 26.0094 38.7168C26.0388 38.7336 26.0646 38.7611 26.0646 38.8053C26.0646 38.8621 26.0186 38.9063 25.9617 38.9063C25.9434 38.9063 25.925 38.9007 25.9067 38.8899C25.8423 38.8513 25.7797 38.8236 25.7172 38.8088V39.1619C25.997 39.2319 26.1164 39.3441 26.1164 39.5408C26.1164 39.7433 25.9582 39.8775 25.7245 39.8996V40.0101C25.7245 40.0543 25.6897 40.0894 25.6455 40.0894C25.6013 40.0894 25.5644 40.0543 25.5644 40.0101V39.8961C25.4264 39.8815 25.2994 39.8319 25.1873 39.7527C25.156 39.7325 25.1377 39.7031 25.1377 39.6646C25.1377 39.6074 25.1819 39.5635 25.239 39.5635C25.2611 39.5635 25.283 39.5708 25.2997 39.5837C25.3862 39.6462 25.4708 39.6885 25.5719 39.7069V39.3446C25.3032 39.2745 25.1781 39.1735 25.1781 38.9656C25.1781 38.7689 25.3345 38.6328 25.5644 38.6142V38.5756C25.5647 38.5311 25.6016 38.4961 25.6455 38.4961ZM25.5722 39.1233V38.7977C25.4544 38.8088 25.3956 38.8713 25.3956 38.9522C25.3954 39.0295 25.4304 39.0775 25.5722 39.1233ZM25.7175 39.3791V39.7142C25.8353 39.7012 25.8997 39.6425 25.8997 39.554C25.8994 39.4729 25.859 39.4233 25.7175 39.3791Z" fill="#174604"/>
</svg>
