<svg width="57" height="56" viewBox="0 0 57 56" fill="none" xmlns="http://www.w3.org/2000/svg">
<circle cx="28.0088" cy="28" r="28" fill="#F0FBEA"/>
<path d="M31.8835 10.9829C31.8828 8.7121 31.1776 6.4973 29.8648 4.64322C28.5521 2.78914 26.6964 1.38688 24.5531 0.629346C22.4097 -0.128187 20.084 -0.203766 17.8959 0.413005C15.7077 1.02978 13.7647 2.30859 12.3341 4.07352C10.9035 5.83845 10.0556 8.00278 9.90705 10.2687C9.75851 12.5347 10.3166 14.791 11.5046 16.7272C12.6926 18.6633 14.4521 20.1843 16.541 21.0807C18.63 21.9772 20.9457 22.2051 23.1696 21.7332L26.0855 25L26.4788 20.4428C28.1255 19.4715 29.4901 18.0881 30.438 16.4292C31.3858 14.7702 31.884 12.893 31.8835 10.9829Z" fill="#F3B744"/>
<path d="M23.8838 12.9916C23.8834 12.3023 23.6078 11.6391 23.113 11.1371C22.6183 10.635 21.9417 10.3319 21.221 10.2894C21.1723 10.2867 21.038 10.2834 20.9031 10.2804C20.791 10.2781 20.6784 10.2759 20.6356 10.2736C20.3102 10.2531 20.0041 10.1191 19.7755 9.89721C19.5469 9.67528 19.4117 9.38087 19.3957 9.06999C19.3797 8.75911 19.484 8.45346 19.6887 8.21121C19.8934 7.96896 20.1843 7.80701 20.506 7.75617C20.6146 7.7403 20.7243 7.73249 20.8341 7.7328H20.8718C21.1209 7.72596 21.3663 7.79093 21.5761 7.91923C21.7859 8.04754 21.9504 8.23321 22.048 8.45205C22.081 8.54111 22.132 8.62309 22.1982 8.69332C22.2644 8.76355 22.3444 8.82065 22.4337 8.86135C22.523 8.90206 22.6198 8.92558 22.7186 8.93057C22.8174 8.93556 22.9163 8.92192 23.0096 8.89043C23.1029 8.85895 23.1888 8.81022 23.2623 8.74705C23.3359 8.68388 23.3957 8.60749 23.4384 8.52225C23.481 8.43701 23.5056 8.34459 23.5109 8.25026C23.5161 8.15593 23.5018 8.06155 23.4688 7.97249C23.3148 7.58777 23.0674 7.24341 22.747 6.96769C22.4265 6.69196 22.0421 6.49273 21.6253 6.38636V5.71925C21.6253 5.52849 21.5459 5.34555 21.4046 5.21066C21.2633 5.07578 21.0716 5 20.8718 5C20.672 5 20.4803 5.07578 20.339 5.21066C20.1977 5.34555 20.1184 5.52849 20.1184 5.71925V6.36406C19.4492 6.50244 18.8551 6.86736 18.4458 7.39138C18.0366 7.91541 17.8399 8.56312 17.892 9.21484C17.9442 9.86655 18.2417 10.4782 18.7295 10.9368C19.2174 11.3954 19.8627 11.67 20.5461 11.7097C20.5957 11.7126 20.7334 11.7158 20.8701 11.7187C20.9811 11.7212 21.0914 11.7232 21.1325 11.7255C21.4579 11.7461 21.764 11.88 21.9925 12.102C22.2211 12.3239 22.3563 12.6183 22.3723 12.9292C22.3883 13.2401 22.284 13.5457 22.0792 13.7879C21.8745 14.0302 21.5836 14.1921 21.2619 14.2429C21.1535 14.2589 21.044 14.2667 20.9344 14.2663C20.9219 14.2663 20.9095 14.2663 20.8967 14.2663C20.6462 14.273 20.3994 14.2072 20.1888 14.0775C19.9782 13.9478 19.8136 13.7603 19.7168 13.5397C19.649 13.3602 19.5093 13.2138 19.3285 13.1327C19.1476 13.0515 18.9404 13.0423 18.7524 13.107C18.5644 13.1716 18.4111 13.305 18.326 13.4776C18.241 13.6503 18.2313 13.8481 18.2991 14.0275C18.4514 14.4084 18.6953 14.7499 19.0111 15.0244C19.3269 15.2989 19.7059 15.4988 20.1174 15.6079V16.2807C20.1174 16.4715 20.1968 16.6544 20.3381 16.7893C20.4794 16.9242 20.671 17 20.8709 17C21.0707 17 21.2624 16.9242 21.4037 16.7893C21.545 16.6544 21.6243 16.4715 21.6243 16.2807V15.6406C22.262 15.5133 22.8345 15.1806 23.2459 14.6984C23.6572 14.2161 23.8824 13.6135 23.8838 12.9916Z" fill="white"/>
<path d="M41.6788 44.3927C51.013 44.1077 49.7388 18.2209 49.5422 14.8959C49.5357 14.7884 49.4998 14.6847 49.4383 14.5966C49.3769 14.5085 49.2924 14.4394 49.1943 14.397L47.8993 13.8362C47.8275 13.8051 47.7503 13.7891 47.6722 13.7891C47.5941 13.7891 47.5168 13.8051 47.445 13.8362L46.0523 14.4403C45.9805 14.4715 45.9032 14.4876 45.825 14.4876C45.7469 14.4876 45.6696 14.4715 45.5978 14.4403L44.2063 13.8364C44.1345 13.8053 44.0571 13.7893 43.979 13.7893C43.9009 13.7893 43.8236 13.8053 43.7518 13.8364L42.3598 14.4405C42.2881 14.4717 42.2107 14.4878 42.1326 14.4878C42.0544 14.4878 41.9771 14.4717 41.9054 14.4405L40.514 13.8366C40.4422 13.8055 40.3648 13.7895 40.2867 13.7895C40.2085 13.7895 40.1312 13.8055 40.0593 13.8366L38.6686 14.4405C38.5968 14.4717 38.5194 14.4879 38.4412 14.4879C38.3631 14.4879 38.2857 14.4717 38.2139 14.4405L37.4211 14.0966C37.3328 14.058 37.2364 14.0423 37.1406 14.0512C37.0448 14.06 36.9527 14.0929 36.8728 14.147C36.7929 14.2011 36.7277 14.2746 36.6832 14.3608C36.6387 14.4469 36.6162 14.543 36.618 14.6402C36.6882 18.6166 36.6537 34.6458 31.769 40.6223L41.6788 44.3927Z" fill="#62A446"/>
<path d="M41.064 41.3382V33.3094C41.064 30.2974 36.9482 29.6191 36.9482 29.6191L32.8242 44.3933H41.064C42.6633 44.3933 43.3772 43.7159 43.3772 43.7159C41.5101 43.7835 41.1172 42.1948 41.064 41.3382Z" fill="#387E1B"/>
<path d="M20.9624 30.1027C15.3386 37.8549 14.9156 51.6945 14.8841 53.8855C14.8828 53.9771 14.9029 54.0677 14.9426 54.1504C14.9824 54.2332 15.0408 54.3059 15.1135 54.3631L17.0268 55.8693C17.1353 55.9547 17.2701 56.0012 17.409 56.0012C17.5479 56.0012 17.6828 55.9547 17.7912 55.8693L19.5532 54.4815C19.6617 54.3961 19.7965 54.3495 19.9354 54.3495C20.0744 54.3495 20.2092 54.3961 20.3177 54.4815L22.0804 55.8693C22.1889 55.9547 22.3237 56.0012 22.4627 56.0012C22.6016 56.0012 22.7364 55.9547 22.8449 55.8693L24.6085 54.4811C24.717 54.3957 24.8518 54.3492 24.9907 54.3492C25.1297 54.3492 25.2645 54.3957 25.373 54.4811L27.1359 55.8691C27.2444 55.9545 27.3792 56.001 27.5181 56.001C27.657 56.001 27.7917 55.9545 27.9002 55.8691L29.665 54.4807C29.7734 54.3954 29.9082 54.3489 30.047 54.3489C30.1859 54.3489 30.3206 54.3954 30.4291 54.4807L31.567 55.376C31.6572 55.4469 31.7661 55.4912 31.8808 55.5037C31.9956 55.5163 32.1117 55.4966 32.2156 55.447C32.3195 55.3974 32.407 55.3199 32.468 55.2234C32.529 55.127 32.5609 55.0155 32.5602 54.9019C32.5313 43.4013 35.6525 36.2351 38.1653 32.3326C38.376 31.9913 38.6978 31.73 39.0785 31.5912C39.7137 31.3742 40.6442 31.4719 41.2665 33.374V30.4434C41.2664 29.9448 41.065 29.4666 40.7066 29.1141C40.3481 28.7615 39.8619 28.5635 39.355 28.5635H23.9927C23.3995 28.5641 22.815 28.7041 22.2879 28.9718C21.7607 29.2396 21.3063 29.6273 20.9624 30.1027Z" fill="#ADDE98"/>
<path d="M32.3522 34.4714H23.6581C23.4484 34.4714 23.2474 34.3881 23.0992 34.2399C22.9509 34.0917 22.8677 33.8906 22.8677 33.681C22.8677 33.4714 22.9509 33.2703 23.0992 33.1221C23.2474 32.9739 23.4484 32.8906 23.6581 32.8906H32.3522C32.5618 32.8906 32.7629 32.9739 32.9111 33.1221C33.0593 33.2703 33.1426 33.4714 33.1426 33.681C33.1426 33.8906 33.0593 34.0917 32.9111 34.2399C32.7629 34.3881 32.5618 34.4714 32.3522 34.4714Z" fill="#62A446"/>
<path d="M29.1689 37.8815H21.9962C21.7866 37.8815 21.5855 37.7983 21.4373 37.65C21.2891 37.5018 21.2058 37.3008 21.2058 37.0912C21.2058 36.8815 21.2891 36.6805 21.4373 36.5323C21.5855 36.3841 21.7866 36.3008 21.9962 36.3008H29.1689C29.3785 36.3008 29.5795 36.3841 29.7277 36.5323C29.876 36.6805 29.9592 36.8815 29.9592 37.0912C29.9592 37.3008 29.876 37.5018 29.7277 37.65C29.5795 37.7983 29.3785 37.8815 29.1689 37.8815Z" fill="#62A446"/>
<path d="M25.5819 41.3864H21.4644C21.2548 41.3864 21.0538 41.3031 20.9056 41.1549C20.7573 41.0067 20.6741 40.8057 20.6741 40.596C20.6741 40.3864 20.7573 40.1854 20.9056 40.0372C21.0538 39.8889 21.2548 39.8057 21.4644 39.8057H25.5819C25.7915 39.8057 25.9926 39.8889 26.1408 40.0372C26.289 40.1854 26.3723 40.3864 26.3723 40.596C26.3723 40.8057 26.289 41.0067 26.1408 41.1549C25.9926 41.3031 25.7915 41.3864 25.5819 41.3864Z" fill="#62A446"/>
<path d="M29.5402 41.3864H29.1693C28.9597 41.3864 28.7586 41.3031 28.6104 41.1549C28.4622 41.0067 28.3789 40.8057 28.3789 40.596C28.3789 40.3864 28.4622 40.1854 28.6104 40.0372C28.7586 39.8889 28.9597 39.8057 29.1693 39.8057H29.5412C29.7508 39.8057 29.9518 39.8889 30.1 40.0372C30.2483 40.1854 30.3315 40.3864 30.3315 40.596C30.3315 40.8057 30.2483 41.0067 30.1 41.1549C29.9518 41.3031 29.7508 41.3864 29.5412 41.3864H29.5402Z" fill="#62A446"/>
<path d="M28.4789 48.1354H25.5824C25.3727 48.1354 25.1717 48.0522 25.0235 47.9039C24.8753 47.7557 24.792 47.5547 24.792 47.3451C24.792 47.1354 24.8753 46.9344 25.0235 46.7862C25.1717 46.638 25.3727 46.5547 25.5824 46.5547H28.4789C28.6885 46.5547 28.8896 46.638 29.0378 46.7862C29.186 46.9344 29.2693 47.1354 29.2693 47.3451C29.2693 47.5547 29.186 47.7557 29.0378 47.9039C28.8896 48.0522 28.6885 48.1354 28.4789 48.1354Z" fill="#62A446"/>
</svg>
