<svg width="215" height="215" viewBox="0 0 215 215" fill="none" xmlns="http://www.w3.org/2000/svg">
<circle cx="107.5" cy="107.5" r="107.5" fill="#F0FBEA"/>
<g clip-path="url(#clip0_12224_9418)">
<path d="M54.9657 80.8171V67.8914C54.9657 60.5902 60.5902 54.9657 67.8914 54.9657H80.8171C82.4645 54.9657 83.8 53.6302 83.8 51.9829C83.8 50.3355 82.4645 49 80.8171 49H67.8914C57.2955 49 49 57.2955 49 67.8914V80.8171C49 82.4645 50.3355 83.8 51.9829 83.8C53.6302 83.8 54.9657 82.4645 54.9657 80.8171Z" fill="#62A446"/>
<path d="M159.034 80.8171V67.8914C159.034 60.5902 153.41 54.9657 146.109 54.9657H133.183C131.535 54.9657 130.2 53.6302 130.2 51.9829C130.2 50.3355 131.535 49 133.183 49H146.109C156.705 49 165 57.2955 165 67.8914V80.8171C165 82.4645 163.665 83.8 162.017 83.8C160.37 83.8 159.034 82.4645 159.034 80.8171Z" fill="#62A446"/>
<path d="M54.9657 133.183V146.109C54.9657 153.41 60.5902 159.034 67.8914 159.034H80.8171C82.4645 159.034 83.8 160.37 83.8 162.017C83.8 163.665 82.4645 165 80.8171 165H67.8914C57.2955 165 49 156.705 49 146.109V133.183C49 131.535 50.3355 130.2 51.9829 130.2C53.6302 130.2 54.9657 131.535 54.9657 133.183Z" fill="#62A446"/>
<path d="M159.034 133.183V146.109C159.034 153.41 153.41 159.034 146.109 159.034H133.183C131.535 159.034 130.2 160.37 130.2 162.017C130.2 163.665 131.535 165 133.183 165H146.109C156.705 165 165 156.705 165 146.109V133.183C165 131.535 163.665 130.2 162.017 130.2C160.37 130.2 159.034 131.535 159.034 133.183Z" fill="#62A446"/>
<path d="M80.5439 92.8089V101.099C80.5439 102.815 81.8423 104.206 83.4439 104.206C85.0456 104.206 86.3439 102.815 86.3439 101.099V92.8089C86.3439 91.0929 85.0456 89.7018 83.4439 89.7018C81.8423 89.7018 80.5439 91.0929 80.5439 92.8089Z" fill="#62A446"/>
<path d="M128.368 92.8089V101.099C128.368 102.815 129.667 104.206 131.268 104.206C132.87 104.206 134.168 102.815 134.168 101.099V92.8089C134.168 91.0929 132.87 89.7018 131.268 89.7018C129.667 89.7018 128.368 91.0929 128.368 92.8089Z" fill="#62A446"/>
<path d="M86.6014 134.67C92.258 139.95 99.1089 142.614 107 142.614C114.891 142.614 121.742 139.95 127.399 134.67C128.631 133.52 128.698 131.588 127.547 130.356C126.397 129.123 124.465 129.057 123.233 130.207C118.714 134.425 113.355 136.509 107 136.509C100.645 136.509 95.2859 134.425 90.7671 130.207C89.5346 129.057 87.6029 129.123 86.4526 130.356C85.3023 131.588 85.3689 133.52 86.6014 134.67Z" fill="#62A446"/>
<path d="M107 92.7544V114.123C107 115.49 106.332 116.158 104.957 116.158H102.93C101.244 116.158 99.8772 117.525 99.8772 119.211C99.8772 120.896 101.244 122.263 102.93 122.263H104.957C109.702 122.263 113.105 118.864 113.105 114.123V92.7544C113.105 91.0685 111.739 89.7018 110.053 89.7018C108.367 89.7018 107 91.0685 107 92.7544Z" fill="#62A446"/>
</g>
<defs>
<clipPath id="clip0_12224_9418">
<rect width="116" height="116" fill="white" transform="translate(49 49)"/>
</clipPath>
</defs>
</svg>