<svg width="44" height="44" viewBox="0 0 44 44" fill="none" xmlns="http://www.w3.org/2000/svg">
<g clip-path="url(#clip0_12046_9033)">
<path d="M2.26286 12.0686V7.16571C2.26286 4.3963 4.3963 2.26286 7.16571 2.26286H12.0686C12.6934 2.26286 13.2 1.7563 13.2 1.13143C13.2 0.506558 12.6934 0 12.0686 0H7.16571C3.14656 0 0 3.14656 0 7.16571V12.0686C0 12.6934 0.506558 13.2 1.13143 13.2C1.7563 13.2 2.26286 12.6934 2.26286 12.0686Z" fill="#387E1B"/>
<path d="M41.7371 12.0686V7.16571C41.7371 4.3963 39.6037 2.26286 36.8343 2.26286H31.9314C31.3066 2.26286 30.8 1.7563 30.8 1.13143C30.8 0.506558 31.3066 0 31.9314 0H36.8343C40.8534 0 44 3.14656 44 7.16571V12.0686C44 12.6934 43.4934 13.2 42.8686 13.2C42.2437 13.2 41.7371 12.6934 41.7371 12.0686Z" fill="#387E1B"/>
<path d="M2.26286 31.9314V36.8343C2.26286 39.6037 4.3963 41.7371 7.16571 41.7371H12.0686C12.6934 41.7371 13.2 42.2437 13.2 42.8686C13.2 43.4934 12.6934 44 12.0686 44H7.16571C3.14656 44 0 40.8534 0 36.8343V31.9314C0 31.3066 0.506558 30.8 1.13143 30.8C1.7563 30.8 2.26286 31.3066 2.26286 31.9314Z" fill="#387E1B"/>
<path d="M41.7371 31.9314V36.8343C41.7371 39.6037 39.6037 41.7371 36.8343 41.7371H31.9314C31.3066 41.7371 30.8 42.2437 30.8 42.8686C30.8 43.4934 31.3066 44 31.9314 44H36.8343C40.8534 44 44 40.8534 44 36.8343V31.9314C44 31.3066 43.4934 30.8 42.8686 30.8C42.2437 30.8 41.7371 31.3066 41.7371 31.9314Z" fill="#387E1B"/>
<path d="M11.9649 16.6172V19.7618C11.9649 20.4127 12.4574 20.9404 13.0649 20.9404C13.6724 20.9404 14.1649 20.4127 14.1649 19.7618V16.6172C14.1649 15.9663 13.6724 15.4386 13.0649 15.4386C12.4574 15.4386 11.9649 15.9663 11.9649 16.6172Z" fill="#387E1B"/>
<path d="M30.1053 16.6172V19.7618C30.1053 20.4127 30.5978 20.9404 31.2053 20.9404C31.8128 20.9404 32.3053 20.4127 32.3053 19.7618V16.6172C32.3053 15.9663 31.8128 15.4386 31.2053 15.4386C30.5978 15.4386 30.1053 15.9663 30.1053 16.6172Z" fill="#387E1B"/>
<path d="M14.2626 32.4957C16.4082 34.4982 19.0068 35.5088 22 35.5088C24.9932 35.5088 27.5918 34.4982 29.7374 32.4957C30.2049 32.0593 30.2302 31.3266 29.7938 30.8591C29.3575 30.3916 28.6248 30.3664 28.1573 30.8027C26.4433 32.4024 24.4103 33.193 22 33.193C19.5896 33.193 17.5567 32.4024 15.8427 30.8027C15.3752 30.3664 14.6425 30.3916 14.2061 30.8591C13.7698 31.3266 13.7951 32.0593 14.2626 32.4957Z" fill="#387E1B"/>
<path d="M22 16.5965V24.7018C22 25.2205 21.7465 25.4737 21.2252 25.4737H20.4561C19.8167 25.4737 19.2982 25.9921 19.2982 26.6316C19.2982 27.2711 19.8167 27.7895 20.4561 27.7895H21.2252C23.0248 27.7895 24.3158 26.5 24.3158 24.7018V16.5965C24.3158 15.957 23.7974 15.4386 23.1579 15.4386C22.5184 15.4386 22 15.957 22 16.5965Z" fill="#387E1B"/>
</g>
<defs>
<clipPath id="clip0_12046_9033">
<rect width="44" height="44" fill="white"/>
</clipPath>
</defs>
</svg>
