<svg width="24" height="24" viewBox="0 0 24 24" fill="none" xmlns="http://www.w3.org/2000/svg">
<g clip-path="url(#clip0_12074_9065)">
<path d="M1.23429 6.58286V3.90857C1.23429 2.39798 2.39798 1.23429 3.90857 1.23429H6.58286C6.9237 1.23429 7.2 0.957982 7.2 0.617143C7.2 0.276304 6.9237 0 6.58286 0H3.90857C1.7163 0 0 1.7163 0 3.90857V6.58286C0 6.9237 0.276304 7.2 0.617143 7.2C0.957982 7.2 1.23429 6.9237 1.23429 6.58286Z" fill="#536171"/>
<path d="M22.7657 6.58286V3.90857C22.7657 2.39798 21.602 1.23429 20.0914 1.23429H17.4171C17.0763 1.23429 16.8 0.957982 16.8 0.617143C16.8 0.276304 17.0763 0 17.4171 0H20.0914C22.2837 0 24 1.7163 24 3.90857V6.58286C24 6.9237 23.7237 7.2 23.3829 7.2C23.042 7.2 22.7657 6.9237 22.7657 6.58286Z" fill="#536171"/>
<path d="M1.23429 17.4171V20.0914C1.23429 21.602 2.39798 22.7657 3.90857 22.7657H6.58286C6.9237 22.7657 7.2 23.042 7.2 23.3829C7.2 23.7237 6.9237 24 6.58286 24H3.90857C1.7163 24 0 22.2837 0 20.0914V17.4171C0 17.0763 0.276304 16.8 0.617143 16.8C0.957982 16.8 1.23429 17.0763 1.23429 17.4171Z" fill="#536171"/>
<path d="M22.7657 17.4171V20.0914C22.7657 21.602 21.602 22.7657 20.0914 22.7657H17.4171C17.0763 22.7657 16.8 23.042 16.8 23.3829C16.8 23.7237 17.0763 24 17.4171 24H20.0914C22.2837 24 24 22.2837 24 20.0914V17.4171C24 17.0763 23.7237 16.8 23.3829 16.8C23.042 16.8 22.7657 17.0763 22.7657 17.4171Z" fill="#536171"/>
<path d="M6.52637 9.06473V10.78C6.52637 11.135 6.795 11.4228 7.12637 11.4228C7.45774 11.4228 7.72637 11.135 7.72637 10.78V9.06473C7.72637 8.70969 7.45774 8.42188 7.12637 8.42188C6.795 8.42188 6.52637 8.70969 6.52637 9.06473Z" fill="#536171"/>
<path d="M16.4211 9.06473V10.78C16.4211 11.135 16.6898 11.4228 17.0211 11.4228C17.3525 11.4228 17.6211 11.135 17.6211 10.78V9.06473C17.6211 8.70969 17.3525 8.42188 17.0211 8.42188C16.6898 8.42188 16.4211 8.70969 16.4211 9.06473Z" fill="#536171"/>
<path d="M7.7795 17.7242C8.94985 18.8165 10.3673 19.3677 11.9999 19.3677C13.6326 19.3677 15.05 18.8165 16.2203 17.7242C16.4753 17.4862 16.4891 17.0865 16.2511 16.8315C16.0131 16.5765 15.6134 16.5627 15.3584 16.8007C14.4235 17.6733 13.3146 18.1045 11.9999 18.1045C10.6852 18.1045 9.57629 17.6733 8.64138 16.8007C8.38638 16.5627 7.98672 16.5765 7.74872 16.8315C7.51072 17.0865 7.5245 17.4862 7.7795 17.7242Z" fill="#536171"/>
<path d="M12.0001 9.05345V13.4745C12.0001 13.7574 11.8618 13.8956 11.5774 13.8956H11.1579C10.8091 13.8956 10.5264 14.1783 10.5264 14.5271C10.5264 14.8759 10.8091 15.1587 11.1579 15.1587H11.5774C12.5591 15.1587 13.2632 14.4554 13.2632 13.4745V9.05345C13.2632 8.70464 12.9804 8.42188 12.6316 8.42188C12.2828 8.42188 12.0001 8.70464 12.0001 9.05345Z" fill="#536171"/>
</g>
<defs>
<clipPath id="clip0_12074_9065">
<rect width="24" height="24" fill="white"/>
</clipPath>
</defs>
</svg>
