<svg width="44" height="44" viewBox="0 0 44 44" fill="none" xmlns="http://www.w3.org/2000/svg">
<circle cx="22" cy="22" r="21" fill="#FFECC8" stroke="#DC9101" stroke-width="2"/>
<path d="M22.6017 10.4379L26.309 17.8769C26.339 17.9374 26.3835 17.9897 26.4386 18.0293C26.4938 18.0688 26.5578 18.0945 26.6252 18.104L34.9151 19.2969C34.9925 19.3079 35.0652 19.3402 35.125 19.39C35.1848 19.4399 35.2293 19.5053 35.2534 19.5789C35.2776 19.6525 35.2805 19.7314 35.2617 19.8065C35.2429 19.8816 35.2032 19.9501 35.1472 20.004L29.1476 25.7946C29.0988 25.8414 29.0622 25.8993 29.0411 25.9632C29.0199 26.0271 29.0148 26.0952 29.0262 26.1615L30.4424 34.3377C30.4555 34.4139 30.4469 34.4923 30.4174 34.5639C30.388 34.6356 30.3389 34.6976 30.2757 34.7431C30.2125 34.7886 30.1377 34.8157 30.0598 34.8213C29.9819 34.8269 29.9039 34.8109 29.8347 34.775L22.421 30.9146C22.3609 30.8833 22.294 30.867 22.2261 30.867C22.1582 30.867 22.0913 30.8833 22.0312 30.9146L14.6167 34.775C14.5475 34.8109 14.4695 34.8269 14.3916 34.8213C14.3137 34.8157 14.2389 34.7886 14.1757 34.7431C14.1125 34.6976 14.0634 34.6356 14.034 34.5639C14.0045 34.4923 13.9959 34.4139 14.009 34.3377L15.426 26.1615C15.4377 26.0954 15.433 26.0275 15.4124 25.9636C15.3917 25.8997 15.3557 25.8417 15.3073 25.7946L9.30622 20.004C9.25016 19.9501 9.21049 19.8816 9.1917 19.8065C9.17292 19.7314 9.17577 19.6525 9.19993 19.5789C9.22409 19.5053 9.2686 19.4399 9.3284 19.39C9.38821 19.3402 9.46092 19.3079 9.53829 19.2969L17.8281 18.104C17.8956 18.0945 17.9596 18.0688 18.0147 18.0293C18.0699 17.9897 18.1144 17.9374 18.1444 17.8769L21.8505 10.4379C21.8852 10.3686 21.9387 10.3103 22.0051 10.2695C22.0714 10.2287 22.148 10.207 22.2261 10.207C22.3042 10.207 22.3808 10.2287 22.4471 10.2695C22.5135 10.3103 22.567 10.3686 22.6017 10.4379Z" fill="#F3CC30"/>
<path d="M22.2264 12.1562L18.9228 18.4934C18.8373 18.6568 18.7117 18.7962 18.5575 18.8989C18.4033 19.0015 18.2254 19.064 18.0404 19.0807L10.8674 19.7299L18.446 20.0822C18.6805 20.0929 18.9123 20.0296 19.108 19.9013C19.3037 19.773 19.4532 19.5864 19.5348 19.3685L22.2264 12.1562Z" fill="#F7DB5E"/>
<path d="M14.172 33.3965L14.0091 34.3362C13.996 34.4124 14.0047 34.4908 14.0341 34.5624C14.0636 34.6341 14.1127 34.6962 14.1759 34.7416C14.2391 34.7871 14.3138 34.8142 14.3918 34.8198C14.4697 34.8255 14.5476 34.8094 14.6168 34.7735L22.0313 30.9131C22.0915 30.8818 22.1583 30.8655 22.2262 30.8655C22.2941 30.8655 22.361 30.8818 22.4211 30.9131L29.8357 34.7735C29.9049 34.8094 29.9828 34.8255 30.0607 34.8198C30.1386 34.8142 30.2134 34.7871 30.2766 34.7416C30.3398 34.6962 30.3889 34.6341 30.4184 34.5624C30.4478 34.4908 30.4565 34.4124 30.4433 34.3362L29.0264 26.1612C29.0149 26.0949 29.0199 26.0269 29.0409 25.963C29.0619 25.8991 29.0983 25.8412 29.147 25.7943L35.1453 20.0037C35.2014 19.9498 35.2411 19.8813 35.2598 19.8062C35.2786 19.7311 35.2758 19.6522 35.2516 19.5786C35.2275 19.505 35.1829 19.4395 35.1231 19.3897C35.0633 19.3399 34.9906 19.3076 34.9133 19.2966L32.1374 18.8984C27.6466 26.8781 20.7697 31.0803 14.172 33.3965Z" fill="#EDBD31"/>
</svg>
