<svg width="32" height="32" viewBox="0 0 32 32" fill="none" xmlns="http://www.w3.org/2000/svg">
<circle cx="16" cy="16" r="16" fill="#F1FDEB"/>
<g clip-path="url(#clip0_2363_10826)">
<path d="M23.1377 12.1957L18.471 7.52898C18.4091 7.4671 18.3355 7.41802 18.2546 7.38456C18.1737 7.3511 18.0869 7.33392 17.9993 7.33398H9.99935C9.64573 7.33398 9.30659 7.47446 9.05654 7.72451C8.80649 7.97456 8.66602 8.3137 8.66602 8.66732V23.334C8.66602 23.6876 8.80649 24.0267 9.05654 24.2768C9.30659 24.5268 9.64573 24.6673 9.99935 24.6673H21.9993C22.353 24.6673 22.6921 24.5268 22.9422 24.2768C23.1922 24.0267 23.3327 23.6876 23.3327 23.334V12.6673C23.3328 12.5797 23.3156 12.493 23.2821 12.4121C23.2486 12.3312 23.1996 12.2576 23.1377 12.1957ZM18.666 9.60982L21.0568 12.0007H18.666V9.60982ZM21.9993 23.334H9.99935V8.66732H17.3327V12.6673C17.3327 12.8441 17.4029 13.0137 17.5279 13.1387C17.653 13.2637 17.8225 13.334 17.9993 13.334H21.9993V23.334Z" fill="#62A446"/>
</g>
<defs>
<clipPath id="clip0_2363_10826">
<rect width="21.3333" height="21.3333" fill="white" transform="translate(5.33301 5.33398)"/>
</clipPath>
</defs>
</svg>
