<svg width="88" height="118" viewBox="0 0 88 118" fill="none" xmlns="http://www.w3.org/2000/svg">
<path d="M47.8945 31.8062V84.422" stroke="#003049" stroke-width="3.02" stroke-miterlimit="10"/>
<path d="M54.0782 26.9312C54.0208 28.5259 53.3313 30.0327 52.1612 31.1207C50.9911 32.2087 49.436 32.7889 47.8374 32.7339C46.238 32.7889 44.682 32.2089 43.5105 31.1212C42.3391 30.0334 41.6479 28.5266 41.5883 26.9312H54.0782Z" fill="#236609"/>
<path d="M60.9394 47.6919C60.9394 49.5068 57.9862 50.9474 54.3396 50.9474C50.693 50.9474 47.7398 49.4824 47.7398 47.6919C47.7398 45.9015 50.693 44.4365 54.3396 44.4365C57.9862 44.4365 60.9394 45.8852 60.9394 47.6919Z" fill="#236609"/>
<path d="M68.476 35.438C68.476 35.438 56.1085 49.8107 67.3095 56.9808C68.4516 57.1924 74.4232 55.4914 74.5211 48.891C75.8101 41.8349 68.476 35.438 68.476 35.438Z" fill="#4D8E31"/>
<path d="M69.0225 60.3423V101.515" stroke="#003049" stroke-width="2.36" stroke-miterlimit="10"/>
<path d="M81.8061 38.5469C81.8061 38.5469 63.8585 44.6671 69.8628 56.5168C70.7439 57.2818 76.7482 58.8363 80.1908 53.1963C84.8898 47.776 81.8061 38.5469 81.8061 38.5469Z" fill="#82C167"/>
<path d="M87.28 45.0573C87.28 45.0573 68.4677 42.5099 68.5166 55.7839C68.9572 56.8582 73.6317 60.9356 79.2444 57.4116C85.885 54.6771 87.28 45.0573 87.28 45.0573Z" fill="#D6F1CA"/>
<path d="M55.3905 39.3281C55.3905 39.3281 73.7541 44.138 68.6146 56.4191C67.7988 57.233 61.9169 59.2351 58.0745 53.8555C52.992 48.7526 55.3905 39.3281 55.3905 39.3281Z" fill="#82C167"/>
<path d="M50.5359 45.2209C50.5359 45.2209 69.2504 42.0305 69.6583 55.2801C69.2585 56.3788 64.7635 60.6109 58.9958 57.3066C52.2736 54.7837 50.5359 45.2209 50.5359 45.2209Z" fill="#D6F1CA"/>
<path d="M73.8598 56.5171C73.8598 57.8122 73.344 59.0542 72.4261 59.97C71.5081 60.8858 70.2631 61.4002 68.965 61.4002C67.6668 61.4002 66.4218 60.8858 65.5038 59.97C64.5859 59.0542 64.0702 57.8122 64.0702 56.5171H73.8598Z" fill="#236609"/>
<path d="M23.6097 49.7593V89.7766" stroke="#003049" stroke-width="3.02" stroke-miterlimit="10"/>
<path d="M29.8014 44.8848C29.7419 46.4802 29.0507 47.987 27.8792 49.0748C26.7078 50.1625 25.1518 50.7425 23.5524 50.6876C21.9538 50.7425 20.3987 50.1623 19.2286 49.0743C18.0584 47.9863 17.369 46.4795 17.3116 44.8848H29.8014Z" fill="#236609"/>
<path d="M77.0581 69.1948L68.2026 116.368C68.2026 116.786 67.9999 117.188 67.6389 117.484C67.278 117.779 66.7884 117.946 66.278 117.946H26.8371C26.3267 117.946 25.8371 117.779 25.4762 117.484C25.1152 117.188 24.9124 116.786 24.9124 116.368L14.94 69.1948" fill="#EDA418"/>
<path d="M83.3484 71.9463C83.3484 73.7189 82.5178 75.4189 81.0391 76.6723C79.5605 77.9257 77.555 78.6299 75.4639 78.6299H16.534C14.4429 78.6299 12.4374 77.9257 10.9588 76.6723C9.48014 75.4189 8.64944 73.7189 8.64944 71.9463C8.64944 70.1737 9.48014 68.4737 10.9588 67.2203C12.4374 65.9669 14.4429 65.2627 16.534 65.2627H75.4639C77.555 65.2627 79.5605 65.9669 81.0391 67.2203C82.5178 68.4737 83.3484 70.1737 83.3484 71.9463Z" fill="#F6CB79"/>
<path d="M23.4544 59.0943C23.4544 60.9011 20.5012 62.3497 16.8546 62.3497C13.208 62.3497 10.2548 60.8766 10.2548 59.0943C10.2548 57.3119 13.208 55.8389 16.8546 55.8389C20.5012 55.8389 23.4544 57.3282 23.4544 59.0943Z" fill="#236609"/>
<path d="M47.1927 0C47.1927 0 31.3907 18.3606 45.708 27.5165C47.1764 27.7932 54.796 25.6202 54.9265 17.1805C56.5663 8.13857 47.1927 0 47.1927 0Z" fill="#4D8E31"/>
<path d="M64.2512 3.97168C64.2512 3.97168 41.3109 11.7928 48.9712 26.9306C50.0889 27.9072 57.7737 29.893 62.1709 22.6904C68.167 15.7563 64.2512 3.97168 64.2512 3.97168Z" fill="#82C167"/>
<path d="M71.2182 12.2891C71.2182 12.2891 47.1848 9.03364 47.2582 25.9944C47.8211 27.3698 53.7846 32.5785 60.9636 28.0942C69.4398 24.5783 71.2182 12.2891 71.2182 12.2891Z" fill="#D6F1CA"/>
<path d="M30.4769 4.97266C30.4769 4.97266 53.9393 11.1173 47.3721 26.7677C46.3279 27.8257 38.8144 30.3568 33.9033 23.5123C27.4421 17.0096 30.4769 4.97266 30.4769 4.97266Z" fill="#82C167"/>
<path d="M24.2854 12.4924C24.2854 12.4924 48.1883 8.42316 48.7105 25.3514C48.2047 26.7512 42.4125 32.1552 35.0948 27.9313C26.4962 24.7084 24.2854 12.4924 24.2854 12.4924Z" fill="#D6F1CA"/>
<path d="M47.7973 41.7847C47.7973 43.5915 44.8441 45.0401 41.1975 45.0401C37.5509 45.0401 34.5977 43.5671 34.5977 41.7847C34.5977 40.0024 37.5509 38.5293 41.1975 38.5293C44.8441 38.5293 47.7973 39.978 47.7973 41.7847Z" fill="#236609"/>
<path d="M22.9157 17.9541C22.9157 17.9541 7.10551 36.3147 21.4228 45.4706C22.8912 45.7473 30.5189 43.5662 30.6413 35.1346C32.2811 26.1252 22.9157 17.9541 22.9157 17.9541Z" fill="#4D8E31"/>
<path d="M39.9742 21.9253C39.9742 21.9253 17.0095 29.7383 24.6861 44.876C25.8038 45.8608 33.4886 47.8466 37.8858 40.644C43.8819 33.7262 39.9742 21.9253 39.9742 21.9253Z" fill="#82C167"/>
<path d="M46.9411 30.2352C46.9411 30.2352 22.8995 26.9798 22.9729 43.9487C23.5358 45.3241 29.4993 50.5246 36.6784 46.0484C45.1545 42.5326 46.9411 30.2352 46.9411 30.2352Z" fill="#D6F1CA"/>
<path d="M6.19201 22.9185C6.19201 22.9185 29.6544 29.0631 23.0872 44.7217C22.043 45.7797 14.5295 48.3108 9.61836 41.4662C3.13276 34.9554 6.19201 22.9185 6.19201 22.9185Z" fill="#82C167"/>
<path d="M6.10352e-05 30.471C6.10352e-05 30.471 23.903 26.4017 24.4251 43.3299C23.9193 44.7216 18.1271 50.1337 10.8094 45.9098C2.21088 42.6788 6.10352e-05 30.471 6.10352e-05 30.471Z" fill="#D6F1CA"/>
</svg>
