<svg width="62" height="62" viewBox="0 0 62 62" fill="none" xmlns="http://www.w3.org/2000/svg">
<g clip-path="url(#clip0_437_20055)">
<path d="M31 5.8125C26.0184 5.8125 21.1486 7.28972 17.0066 10.0574C12.8645 12.825 9.63618 16.7587 7.7298 21.3612C5.82341 25.9636 5.32462 31.0279 6.29648 35.9138C7.26835 40.7997 9.66722 45.2877 13.1898 48.8103C16.7123 52.3328 21.2003 54.7317 26.0862 55.7035C30.9721 56.6754 36.0364 56.1766 40.6388 54.2702C45.2413 52.3638 49.175 49.1355 51.9427 44.9934C54.7103 40.8514 56.1875 35.9816 56.1875 31C56.1805 24.322 53.5245 17.9196 48.8025 13.1975C44.0804 8.47549 37.678 5.81955 31 5.8125ZM42.0583 26.5583L28.4958 40.1208C28.3159 40.3009 28.1022 40.4438 27.867 40.5413C27.6317 40.6388 27.3796 40.689 27.125 40.689C26.8704 40.689 26.6183 40.6388 26.3831 40.5413C26.1479 40.4438 25.9342 40.3009 25.7542 40.1208L19.9417 34.3083C19.5782 33.9447 19.3739 33.4516 19.3739 32.9375C19.3739 32.4234 19.5782 31.9303 19.9417 31.5667C20.3053 31.2032 20.7984 30.9989 21.3125 30.9989C21.8267 30.9989 22.3197 31.2032 22.6833 31.5667L27.125 36.0109L39.3167 23.8167C39.4967 23.6367 39.7104 23.4939 39.9456 23.3965C40.1808 23.2991 40.4329 23.2489 40.6875 23.2489C40.9421 23.2489 41.1942 23.2991 41.4294 23.3965C41.6646 23.4939 41.8783 23.6367 42.0583 23.8167C42.2383 23.9967 42.3811 24.2104 42.4785 24.4456C42.5759 24.6808 42.6261 24.9329 42.6261 25.1875C42.6261 25.4421 42.5759 25.6942 42.4785 25.9294C42.3811 26.1646 42.2383 26.3783 42.0583 26.5583Z" fill="#62A446"/>
</g>
<defs>
<clipPath id="clip0_437_20055">
<rect width="62" height="62" fill="white"/>
</clipPath>
</defs>
</svg>
