<svg width="44" height="44" viewBox="0 0 44 44" fill="none" xmlns="http://www.w3.org/2000/svg">
<circle cx="22" cy="22" r="22" fill="#FEF9F1"/>
<g clip-path="url(#clip0_10123_22080)">
<path d="M15.5428 10.0004C15.2513 10.0109 14.9889 10.18 14.8589 10.4411L11.6748 16.8062C11.3588 17.4399 11.9656 18.1398 12.6377 17.9168L16.6581 16.5777L17.649 19.5504H10.9241C10.5311 19.5505 10.1971 19.8374 10.1376 20.2257C10.0517 20.786 10.0004 21.3576 10 21.9371C9.99545 28.5212 15.354 33.8753 21.9374 33.8753C28.5209 33.8753 33.8786 28.5211 33.8749 21.9371C33.8745 21.3591 33.8248 20.7876 33.7396 20.2265C33.6805 19.8378 33.3463 19.5505 32.9531 19.5504H24.7962L27.5 12L29.5 13C30.4755 13.5615 31.2848 12.1207 30.2501 11.6776L27.0691 10.0852C26.95 10.0251 26.8177 9.996 26.6844 10.0004C26.3529 10.0125 26.0636 10.229 25.9585 10.5437L22.9563 19.5504H19.3269L18.1681 16.0749L22.19 14.735C22.8642 14.5111 22.9296 13.5831 22.2934 13.2669L15.9275 10.0852C15.8084 10.0251 15.6761 9.996 15.5428 10.0004ZM15.9275 11.8626L19.8639 13.8335L13.9597 15.799L15.9275 11.8626ZM12 21.5C18.878 21.5172 25.1374 21.5 32 21.5C32.0231 21.7658 31.9998 21.6748 32 21.9386C32.0033 27.6613 27.6607 32 21.9374 32C16.2142 32 11.996 27.6612 12 21.9386C12.0002 21.6754 11.9764 21.7658 12 21.5Z" fill="#F3B744"/>
</g>
<defs>
<clipPath id="clip0_10123_22080">
<rect width="24" height="24" fill="white" transform="translate(10 10)"/>
</clipPath>
</defs>
</svg>
