<svg width="18" height="19" viewBox="0 0 18 19" fill="none" xmlns="http://www.w3.org/2000/svg">
<path d="M17.5127 7.72159L10.0127 0.905969C9.73618 0.652993 9.37498 0.512695 9.0002 0.512695C8.62542 0.512695 8.26422 0.652993 7.9877 0.905969L0.4877 7.72159C0.334142 7.86208 0.211499 8.03298 0.127571 8.22343C0.0436425 8.41388 0.000266168 8.61972 0.000200032 8.82784V17.4622C-0.00589792 17.8404 0.127612 18.2075 0.3752 18.4935C0.51572 18.6533 0.688823 18.7811 0.88287 18.8684C1.07692 18.9558 1.28741 19.0005 1.5002 18.9997H6.0002C6.19911 18.9997 6.38988 18.9207 6.53053 18.78C6.67118 18.6394 6.7502 18.4486 6.7502 18.2497V13.7497C6.7502 13.5508 6.82922 13.36 6.96987 13.2194C7.11052 13.0787 7.30129 12.9997 7.5002 12.9997H10.5002C10.6991 12.9997 10.8899 13.0787 11.0305 13.2194C11.1712 13.36 11.2502 13.5508 11.2502 13.7497V18.2497C11.2502 18.4486 11.3292 18.6394 11.4699 18.78C11.6105 18.9207 11.8013 18.9997 12.0002 18.9997H16.5002C16.749 19.0019 16.9942 18.9406 17.2127 18.8216C17.4504 18.6921 17.649 18.5011 17.7875 18.2685C17.9261 18.036 17.9995 17.7704 18.0002 17.4997V8.82784C18.0001 8.61972 17.9568 8.41388 17.8728 8.22343C17.7889 8.03298 17.6663 7.86208 17.5127 7.72159Z" fill="currentColor"/>
</svg>
