<svg width="76" height="72" viewBox="0 0 76 72" fill="none" xmlns="http://www.w3.org/2000/svg">
<path d="M64.147 72H11.853C7.74551 71.9995 3.93092 69.9849 1.77067 66.6746C-0.389005 63.3649 -0.585813 59.2316 1.25028 55.7508L27.395 6.21147C29.4018 2.40497 33.5082 0 38 0C42.4918 0 46.5982 2.40497 48.605 6.21147L74.7497 55.7508C76.5858 59.2316 76.389 63.3649 74.2293 66.6746C72.0697 69.9849 68.2545 71.9995 64.147 72Z" fill="#FE9870"/>
<path d="M38.0003 17.9961C39.3097 17.9961 40.3713 19.0017 40.3713 20.242V47.1935C40.3713 48.4338 39.3097 49.4395 38.0003 49.4395C36.691 49.4395 35.6294 48.4338 35.6294 47.1935V20.242C35.6294 19.0017 36.691 17.9961 38.0003 17.9961Z" fill="white"/>
<path d="M35.6294 53.9307H40.3713V58.4219H35.6294V53.9307Z" fill="white"/>
</svg>
