<svg width="20" height="20" viewBox="0 0 20 20" fill="none" xmlns="http://www.w3.org/2000/svg">
<path fill-rule="evenodd" clip-rule="evenodd" d="M9.99998 2.50065C5.85784 2.50065 2.49998 5.85851 2.49998 10.0007C2.49998 14.1428 5.85784 17.5006 9.99998 17.5006C14.1421 17.5006 17.5 14.1428 17.5 10.0007C17.5 5.85851 14.1421 2.50065 9.99998 2.50065ZM0.833313 10.0007C0.833313 4.93804 4.93737 0.833984 9.99998 0.833984C15.0626 0.833984 19.1666 4.93804 19.1666 10.0007C19.1666 15.0633 15.0626 19.1673 9.99998 19.1673C4.93737 19.1673 0.833313 15.0633 0.833313 10.0007Z" fill="currentColor"/>
<path fill-rule="evenodd" clip-rule="evenodd" d="M9.99998 9.16732C10.4602 9.16732 10.8333 9.54041 10.8333 10.0007V13.334C10.8333 13.7942 10.4602 14.1673 9.99998 14.1673C9.53974 14.1673 9.16665 13.7942 9.16665 13.334V10.0007C9.16665 9.54041 9.53974 9.16732 9.99998 9.16732Z" fill="currentColor"/>
<path d="M10.8333 6.66732C10.8333 7.12755 10.4602 7.50065 9.99998 7.50065C9.53974 7.50065 9.16665 7.12755 9.16665 6.66732C9.16665 6.20708 9.53974 5.83398 9.99998 5.83398C10.4602 5.83398 10.8333 6.20708 10.8333 6.66732Z" fill="currentColor"/>

</svg>
