<svg width="57" height="56" viewBox="0 0 57 56" fill="none" xmlns="http://www.w3.org/2000/svg">
<ellipse cx="28.0029" cy="27.9277" rx="28.0029" ry="27.9277" fill="#F0FBEA"/>
<path d="M22.7174 26.0545C22.7174 26.5065 22.3502 26.8727 21.8971 26.8727H12.7983L16.088 34.4597C16.2665 34.875 16.0735 35.356 15.6571 35.534C15.5518 35.5791 15.4422 35.6004 15.3344 35.6004C15.0161 35.6004 14.7132 35.4146 14.58 35.1042L11.0107 26.8727H7.67684C7.22365 26.8727 6.85645 26.5065 6.85645 26.0545C6.85645 25.6026 7.22365 25.2363 7.67684 25.2363H21.8971C22.3502 25.2363 22.7174 25.6026 22.7174 26.0545Z" fill="#865B47"/>
<path d="M16.2766 6.75004C16.0797 7.97079 16.8923 9.1263 18.1101 9.35768C18.6476 9.4598 18.8507 10.1207 18.4628 10.5057C17.5841 11.3779 17.5604 12.789 18.4092 13.6901C18.7839 14.0878 18.5588 14.7415 18.0181 14.8256C16.7932 15.0161 15.9422 16.1438 16.098 17.3704C16.1667 17.9119 15.5992 18.3087 15.1122 18.0598C14.0089 17.4959 12.6559 17.9094 12.0589 18.993C11.7954 19.4712 11.1024 19.4597 10.8551 18.9728C10.295 17.8698 8.95662 17.4112 7.83497 17.9379C7.33989 18.1704 6.78607 17.7548 6.87292 17.216C7.06981 15.9952 6.25729 14.8397 5.0395 14.6083C4.50197 14.5062 4.29884 13.8453 4.68673 13.4603C5.56543 12.5881 5.58916 11.177 4.74032 10.2759C4.36568 9.87817 4.59079 9.22448 5.13149 9.14037C6.3564 8.9499 7.20731 7.8222 7.05166 6.59557C6.98296 6.05414 7.55046 5.65726 8.03744 5.90621C9.14071 6.47011 10.4937 6.05665 11.0907 4.97303C11.3543 4.49477 12.0472 4.50633 12.2945 4.99321C12.8547 6.09625 14.193 6.55477 15.3147 6.02807C15.8098 5.79559 16.3636 6.21123 16.2766 6.75004Z" fill="#FFDE91"/>
<path d="M15.616 11.9833C15.616 14.2097 13.8063 16.0145 11.5739 16.0145C9.34156 16.0145 7.53198 14.2097 7.53198 11.9833C7.53198 9.75698 9.34167 7.95215 11.574 7.95215C13.8064 7.95215 15.616 9.75698 15.616 11.9833Z" fill="#FFC14F"/>
<path d="M14.0003 11.9831C14.0003 13.319 12.9145 14.4018 11.5751 14.4018C10.2357 14.4018 9.1499 13.319 9.1499 11.9831C9.1499 10.6473 10.2357 9.56445 11.5751 9.56445C12.9145 9.56445 14.0003 10.6474 14.0003 11.9831Z" fill="#FFA90B"/>
<path d="M41.7624 38.0552L37.4292 32.546L33.8584 3.14551H48.5374L50.5763 14.8382C52.1044 23.6012 48.7266 32.4988 41.7624 38.0552Z" fill="#387E1B"/>
<path d="M20.8491 48.8423C20.7609 48.8724 20.6711 48.8868 20.5827 48.8868C20.2419 48.8868 19.9236 48.6735 19.8068 48.3341L16.2925 38.1222L12.9061 48.3256C12.792 48.6692 12.4714 48.887 12.1273 48.887C12.0419 48.887 11.9551 48.8735 11.8695 48.8453C11.4393 48.7032 11.2061 48.2404 11.3484 47.8114L15.3961 35.616C15.5218 35.2371 15.8984 35.0114 16.2811 35.0616C16.6596 35.0126 17.0333 35.2335 17.1621 35.6075L21.3589 47.8028C21.5059 48.2302 21.2777 48.6956 20.8491 48.8423Z" fill="#865B47"/>
<path d="M25.6402 3.14551H48.6113L40.9543 36.9643H17.9832C20.9905 26.2432 23.4706 15.3819 25.4143 4.41938L25.6402 3.14551Z" fill="#82C167"/>
<path d="M21.4031 36.9641H17.9832C20.9905 26.2432 23.4706 15.3819 25.4143 4.41927L25.6402 3.14551H29.0602L28.8343 4.41927C26.8905 15.3818 24.4105 26.2431 21.4031 36.9641Z" fill="#ADDE98"/>
<path d="M42.0479 3.14551L41.8221 4.41938C39.8783 15.3819 37.3983 26.2432 34.3909 36.9641V36.9643H24.5461C27.5535 26.2433 30.0335 15.3821 31.9773 4.41949L32.2032 3.14551H42.0479Z" fill="#62A446"/>
<path d="M49.4315 3.14437C49.4315 3.59634 49.0643 3.96256 48.6111 3.96256H25.64C25.1868 3.96256 24.8196 3.59634 24.8196 3.14437C24.8196 2.6924 25.1868 2.32617 25.64 2.32617H48.6111C49.0643 2.32617 49.4315 2.6924 49.4315 3.14437Z" fill="#4D8E31"/>
<path d="M38.7674 39.1459H11.4209C10.2126 39.1459 9.23315 38.1691 9.23315 36.9641C9.23315 35.759 10.2126 34.7822 11.4209 34.7822H40.9552L38.7674 39.1459Z" fill="#ADDE98"/>
<path d="M16.9756 39.1459H11.4209C10.2126 39.1459 9.23315 38.1691 9.23315 36.9641C9.23315 35.759 10.2126 34.7822 11.4209 34.7822H16.9756C15.7673 34.7822 14.7879 35.759 14.7879 36.9641C14.7879 38.1691 15.7675 39.1459 16.9756 39.1459Z" fill="#82C167"/>
<path d="M49.7046 25.2365H43.6293C43.6177 25.2363 43.6061 25.2363 43.5946 25.2365H28.9212C28.468 25.2365 28.1008 25.6027 28.1008 26.0547C28.1008 26.5067 28.468 26.8729 28.9212 26.8729H36.224L39.4838 35.8873L35.5262 47.8113C35.3838 48.2402 35.6171 48.7031 36.0473 48.8451C36.1328 48.8734 36.2197 48.8868 36.3051 48.8868C36.6493 48.8868 36.9698 48.6692 37.0838 48.3254L40.385 38.3796L43.9847 48.334C44.1014 48.6734 44.4198 48.8868 44.7606 48.8868C44.849 48.8868 44.9388 48.8724 45.027 48.8423C45.4556 48.6956 45.6838 48.2303 45.5367 47.8029L41.2196 35.8649L44.2041 26.8729H49.7047C50.1579 26.8729 50.5251 26.5067 50.5251 26.0547C50.5251 25.6027 50.1578 25.2365 49.7046 25.2365ZM40.3185 33.3726L37.968 26.8729H42.4757L40.3185 33.3726Z" fill="#865B47"/>
<path d="M48.8974 46.1224C43.7608 52.1651 36.0936 56.0005 27.5282 56.0005C18.3674 56.0005 10.2341 51.6135 5.12524 44.8311C5.94728 44.3321 6.85005 43.8974 7.83868 43.5639C13.0076 41.8205 15.363 44.5855 23.1527 45.4185C34.4841 46.6302 38.3133 41.7216 46.5614 45.0912C47.1406 45.3278 47.9951 45.6769 48.8974 46.1224Z" fill="#FFDE91"/>
<path d="M27.3894 56.0001C18.2854 55.9561 10.2084 51.5793 5.12524 44.8312C5.94739 44.3321 6.85016 43.8974 7.83879 43.5639C11.3109 42.3928 13.5136 43.256 16.9467 44.2014C16.4407 44.2926 15.9119 44.4289 15.35 44.6184C15.3402 44.6218 15.3302 44.625 15.3204 44.6284C13.8697 45.1215 13.4271 46.9522 14.4672 48.0749C17.9147 51.7963 22.3647 54.5801 27.3894 56.0001Z" fill="#FFCD71"/>
<path d="M16.7095 48.7354C16.7095 49.3379 16.2197 49.8263 15.6156 49.8263C15.0115 49.8263 14.5217 49.3379 14.5217 48.7354C14.5217 48.1329 15.0115 47.6444 15.6156 47.6444C16.2197 47.6444 16.7095 48.1329 16.7095 48.7354ZM31.1545 50.8303C30.5503 50.8303 30.0606 51.3187 30.0606 51.9212C30.0606 52.5237 30.5503 53.0121 31.1545 53.0121C31.7586 53.0121 32.2483 52.5237 32.2483 51.9212C32.2483 51.3187 31.7586 50.8303 31.1545 50.8303ZM40.2222 46.0645C39.6181 46.0645 39.1284 46.5529 39.1284 47.1554C39.1284 47.7579 39.6181 48.2463 40.2222 48.2463C40.8264 48.2463 41.3161 47.7579 41.3161 47.1554C41.3161 46.5529 40.8263 46.0645 40.2222 46.0645ZM18.6628 50.8303C18.0586 50.8303 17.5689 51.3187 17.5689 51.9212C17.5689 52.5237 18.0586 53.0121 18.6628 53.0121C19.2669 53.0121 19.7566 52.5237 19.7566 51.9212C19.7566 51.3187 19.2669 50.8303 18.6628 50.8303ZM26.1869 47.1554C25.5828 47.1554 25.093 47.6438 25.093 48.2463C25.093 48.8488 25.5828 49.3372 26.1869 49.3372C26.791 49.3372 27.2808 48.8488 27.2808 48.2463C27.2808 47.6438 26.791 47.1554 26.1869 47.1554Z" fill="#E4AB45"/>
</svg>
