<svg width="20" height="20" viewBox="0 0 20 20" fill="none" xmlns="http://www.w3.org/2000/svg">
<path d="M8.37891 19.3066L6.75586 17.707C6.60854 17.561 6.52494 17.3627 6.52344 17.1553C6.52194 16.9478 6.60285 16.7477 6.74805 16.5996C6.89407 16.454 7.09166 16.373 7.29785 16.373C7.50405 16.373 7.70163 16.454 7.84766 16.5996L9.21484 17.9482V10.7881C9.21484 10.6855 9.23517 10.584 9.27441 10.4893C9.31366 10.3945 9.37084 10.3079 9.44336 10.2353C9.51588 10.1628 9.60251 10.1057 9.69727 10.0664C9.79202 10.0272 9.89353 10.0068 9.99609 10.0068C10.2028 10.0076 10.4009 10.091 10.5469 10.2373C10.6929 10.3837 10.7751 10.5814 10.7754 10.7881V18.0254L12.2178 16.5996C12.3638 16.454 12.5614 16.373 12.7676 16.373C12.9738 16.373 13.1723 16.454 13.3184 16.5996C13.3911 16.6722 13.4489 16.7585 13.4883 16.8535C13.5277 16.9485 13.5479 17.0505 13.5479 17.1533C13.5479 17.2561 13.5277 17.3581 13.4883 17.4531C13.4489 17.5481 13.3911 17.6344 13.3184 17.707L11.6934 19.3066C11.477 19.5266 11.2183 19.7013 10.9336 19.8203C10.6489 19.9393 10.3437 20.0006 10.0352 20C9.72702 19.9997 9.42195 19.9383 9.1377 19.8193C8.85344 19.7004 8.5954 19.5259 8.37891 19.3066ZM13.125 14.6875C12.9175 14.6875 12.7181 14.6046 12.5713 14.458C12.4245 14.3114 12.3421 14.1128 12.3418 13.9053C12.3423 13.698 12.4255 13.4989 12.5723 13.3525C12.719 13.2061 12.9177 13.124 13.125 13.124H16.873C17.2871 13.1238 17.6838 12.9589 17.9766 12.666C18.2693 12.3731 18.4336 11.9766 18.4336 11.5625C18.4341 11.3551 18.5173 11.1563 18.6641 11.0098C18.8108 10.8632 19.0094 10.7805 19.2168 10.7803C19.3195 10.78 19.4217 10.7996 19.5166 10.8389C19.6115 10.8781 19.6979 10.9361 19.7705 11.0088C19.8431 11.0815 19.9004 11.1677 19.9395 11.2627C19.9785 11.3577 19.9984 11.4598 19.998 11.5625C19.9975 12.3911 19.668 13.1855 19.082 13.7715C18.4961 14.3574 17.7017 14.687 16.873 14.6875H13.125ZM3.125 14.6875C2.29652 14.6864 1.50281 14.3563 0.916992 13.7705C0.33117 13.1847 0.00105842 12.391 0 11.5625V3.125C0.00105842 2.29652 0.33117 1.50281 0.916992 0.916992C1.50281 0.33117 2.29652 0.00105842 3.125 0H16.875C17.7036 0.00052982 18.498 0.330079 19.084 0.916015C19.6699 1.50195 19.9995 2.29636 20 3.125V7.65527C20 7.8625 19.9179 8.06138 19.7715 8.20801C19.625 8.35463 19.426 8.43723 19.2188 8.4375C19.0115 8.43671 18.8136 8.35348 18.667 8.20703C18.5204 8.06058 18.4376 7.86252 18.4365 7.65527V3.125C18.4369 2.91975 18.3966 2.7161 18.3184 2.52637C18.2401 2.33663 18.1245 2.1648 17.9795 2.01953C17.8345 1.87426 17.6622 1.7593 17.4727 1.68066C17.2831 1.60203 17.0802 1.56152 16.875 1.56152H3.125C2.71072 1.56232 2.31414 1.72729 2.02148 2.02051C1.72883 2.31373 1.56445 2.71072 1.56445 3.125V11.5635C1.56525 11.9773 1.72992 12.3733 2.02246 12.666C2.31501 12.9587 2.71115 13.1239 3.125 13.125H6.87695C7.08366 13.1258 7.28176 13.2081 7.42773 13.3545C7.57371 13.5008 7.65599 13.6995 7.65625 13.9062C7.65625 14.1131 7.57374 14.3114 7.42773 14.458C7.28173 14.6046 7.08383 14.6877 6.87695 14.6885L3.125 14.6875ZM6.72461 9.6875C6.27296 8.97434 6.04012 8.14383 6.05469 7.2998C6.02067 6.21772 6.41693 5.16684 7.15625 4.37598C7.89557 3.58512 8.91808 3.11894 10 3.08008C11.0816 3.11946 12.1039 3.58517 12.8428 4.37598C13.5817 5.16678 13.9774 6.21805 13.9434 7.2998C13.9408 8.14544 13.6947 8.97227 13.2344 9.68164C13.1632 9.7913 13.0652 9.88214 12.9502 9.94433C12.8352 10.0065 12.7069 10.0385 12.5762 10.0381C12.4264 10.0391 12.2797 9.99592 12.1543 9.91406C12.0678 9.85866 11.9931 9.78653 11.9346 9.70215C11.8761 9.61776 11.835 9.52325 11.8135 9.42285C11.7919 9.32245 11.7899 9.21816 11.8086 9.11719C11.8273 9.01621 11.8658 8.92 11.9219 8.83398C12.2187 8.37721 12.378 7.84456 12.3809 7.2998C12.4147 6.6325 12.1833 5.97896 11.7373 5.48144C11.2913 4.98393 10.667 4.68352 10 4.64453C9.33246 4.68302 8.70749 4.98296 8.26074 5.48047C7.814 5.97797 7.58193 6.63198 7.61523 7.2998C7.60253 7.84019 7.74919 8.37261 8.03711 8.83008C8.15034 9.00424 8.18942 9.21668 8.14648 9.41992C8.10355 9.62316 7.98161 9.80058 7.80762 9.91406C7.6806 9.99585 7.53291 10.0393 7.38184 10.0391C7.25158 10.039 7.12346 10.0071 7.00879 9.94531C6.89412 9.88353 6.79627 9.79431 6.72461 9.68554V9.6875ZM15.457 7.2959C15.4542 7.19326 15.472 7.09096 15.5088 6.99512C15.5456 6.89928 15.6011 6.81165 15.6719 6.7373C15.7427 6.66296 15.827 6.60395 15.9209 6.5625C16.0148 6.52105 16.1161 6.4983 16.2188 6.49609C16.4261 6.50107 16.6234 6.5883 16.7666 6.73828C16.9098 6.88826 16.988 7.08856 16.9834 7.2959C16.9866 7.50238 16.9077 7.70169 16.7646 7.85058C16.6216 7.99948 16.4252 8.08583 16.2188 8.09082C16.1166 8.08874 16.0164 8.06642 15.9229 8.02539C15.8293 7.98436 15.7446 7.9253 15.6738 7.85156C15.6031 7.77783 15.5469 7.69091 15.5098 7.5957C15.4726 7.5005 15.4549 7.39905 15.457 7.29687V7.2959ZM2.98438 7.2959C2.98438 7.08372 3.06872 6.8805 3.21875 6.73047C3.36878 6.58044 3.57201 6.49609 3.78418 6.49609C3.99549 6.49741 4.19773 6.58253 4.34668 6.73242C4.49563 6.88231 4.57911 7.08459 4.5791 7.2959C4.57779 7.50634 4.49353 7.70764 4.34473 7.85644C4.19592 8.00525 3.99462 8.08951 3.78418 8.09082C3.57304 8.09083 3.37056 8.00713 3.2207 7.8584C3.07085 7.70966 2.98596 7.50801 2.98438 7.29687V7.2959Z" fill="currentColor"/>
</svg>
