<svg width="57" height="56" viewBox="0 0 57 56" fill="none" xmlns="http://www.w3.org/2000/svg">
<circle cx="28.0029" cy="28" r="28" fill="#F0FBEA"/>
<path d="M12.3571 45.3487V47.6116C12.3525 48.2132 12.5894 48.7915 13.0148 49.2169C13.4402 49.6423 14.0185 49.8792 14.6201 49.8745H39.5123C40.7621 49.8745 41.7752 48.8614 41.7752 47.6116V32.5254L12.3571 45.3487Z" fill="#4D8E31"/>
<path d="M37.2495 40.2651V43.0862C37.2495 44.336 36.2364 45.3492 34.9866 45.3492H10.0944C8.84457 45.3492 7.83142 44.336 7.83142 43.0862V8.38793C7.83142 7.13815 8.84457 6.125 10.0944 6.125H34.9866C36.2364 6.125 37.2495 7.13815 37.2495 8.38793V40.2651Z" fill="#ADDE98"/>
<path d="M13.8658 16.6853H11.6029V10.6508C11.6029 10.2342 11.2651 9.89648 10.8485 9.89648C10.432 9.89648 10.0942 10.2342 10.0942 10.6508V17.4396C10.0942 17.8562 10.432 18.1939 10.8485 18.1939H13.8658C14.2824 18.1939 14.6201 17.8562 14.6201 17.4396C14.6201 17.023 14.2824 16.6853 13.8658 16.6853Z" fill="#62A446"/>
<path d="M18.3915 9.89648C16.6996 9.89648 15.3743 11.7189 15.3743 14.0452C15.3743 16.3715 16.6996 18.1939 18.3915 18.1939C20.0834 18.1939 21.4088 16.3715 21.4088 14.0452C21.4088 11.7189 20.0834 9.89648 18.3915 9.89648ZM18.3915 16.6853C17.6779 16.6853 16.8829 15.6013 16.8829 14.0452C16.8829 12.489 17.6779 11.4051 18.3915 11.4051C19.1051 11.4051 19.9001 12.4898 19.9001 14.0452C19.9001 15.6006 19.1051 16.6853 18.3915 16.6853Z" fill="#62A446"/>
<path d="M25.8963 10.4123C25.7946 10.1028 25.5056 9.89355 25.1797 9.89355C24.8539 9.89355 24.5649 10.1028 24.4631 10.4123L22.2002 17.2011C22.0685 17.5969 22.2827 18.0244 22.6784 18.1561C23.0742 18.2877 23.5017 18.0736 23.6334 17.6779L23.9645 16.6852H26.3964L26.7276 17.6779C26.8127 17.9339 27.028 18.125 27.2923 18.1793C27.5566 18.2335 27.8297 18.1427 28.0089 17.9409C28.188 17.7391 28.2459 17.4571 28.1607 17.2011L25.8963 10.4123ZM24.4669 15.1766L25.1805 13.0358L25.894 15.1766H24.4669Z" fill="#62A446"/>
<path d="M34.2322 9.89661C33.8156 9.89661 33.4779 10.2343 33.4779 10.6509V14.5288L31.1199 10.2843C30.9529 9.98395 30.6039 9.83443 30.2713 9.92071C29.9386 10.007 29.7063 10.3072 29.7063 10.6509V17.4397C29.7063 17.8563 30.044 18.194 30.4606 18.194C30.8772 18.194 31.2149 17.8563 31.2149 17.4397V13.5618L33.5729 17.8063C33.706 18.0456 33.9583 18.194 34.2322 18.194C34.296 18.1941 34.3597 18.186 34.4215 18.1699C34.7542 18.0836 34.9865 17.7834 34.9865 17.4397V10.6509C34.9865 10.2343 34.6488 9.89661 34.2322 9.89661Z" fill="#62A446"/>
<path d="M20.6546 23.4744H10.8485C10.432 23.4744 10.0942 23.1367 10.0942 22.7201C10.0942 22.3035 10.432 21.9658 10.8485 21.9658H20.6546C21.0712 21.9658 21.4089 22.3035 21.4089 22.7201C21.4089 23.1367 21.0712 23.4744 20.6546 23.4744Z" fill="#F1FDEB"/>
<path d="M20.6547 27.2459H10.8487C10.4321 27.2459 10.0944 26.9082 10.0944 26.4916C10.0944 26.075 10.4321 25.7373 10.8487 25.7373H20.6547C21.0713 25.7373 21.409 26.075 21.409 26.4916C21.409 26.9082 21.0713 27.2459 20.6547 27.2459Z" fill="#F1FDEB"/>
<path d="M20.6547 31.0174H10.8487C10.4321 31.0174 10.0944 30.6797 10.0944 30.2631C10.0944 29.8465 10.4321 29.5088 10.8487 29.5088H20.6547C21.0713 29.5088 21.409 29.8465 21.409 30.2631C21.409 30.6797 21.0713 31.0174 20.6547 31.0174Z" fill="#F1FDEB"/>
<path d="M31.4714 23.4744H24.4262C24.0096 23.4744 23.6719 23.1367 23.6719 22.7201C23.6719 22.3035 24.0096 21.9658 24.4262 21.9658H31.4714C31.888 21.9658 32.2258 22.3035 32.2258 22.7201C32.2258 23.1367 31.888 23.4744 31.4714 23.4744Z" fill="#F1FDEB"/>
<path d="M27.3529 27.2459H24.4262C24.0096 27.2459 23.6719 26.9082 23.6719 26.4916C23.6719 26.075 24.0096 25.7373 24.4262 25.7373H27.3529C27.7695 25.7373 28.1072 26.075 28.1072 26.4916C28.1072 26.9082 27.7695 27.2459 27.3529 27.2459Z" fill="#F1FDEB"/>
<path d="M27.4962 31.0174H24.4262C24.0096 31.0174 23.6719 30.6797 23.6719 30.2631C23.6719 29.8465 24.0096 29.5088 24.4262 29.5088H27.4962C27.9128 29.5088 28.2505 29.8465 28.2505 30.2631C28.2505 30.6797 27.9128 31.0174 27.4962 31.0174Z" fill="#F1FDEB"/>
<path d="M20.6547 34.7899H10.8487C10.4321 34.7899 10.0944 34.4522 10.0944 34.0356C10.0944 33.619 10.4321 33.2812 10.8487 33.2812H20.6547C21.0713 33.2812 21.409 33.619 21.409 34.0356C21.409 34.4522 21.0713 34.7899 20.6547 34.7899Z" fill="#F1FDEB"/>
<path d="M28.854 34.7899H24.4262C24.0096 34.7899 23.6719 34.4522 23.6719 34.0356C23.6719 33.619 24.0096 33.2812 24.4262 33.2812H28.854C29.2706 33.2812 29.6083 33.619 29.6083 34.0356C29.6083 34.4522 29.2706 34.7899 28.854 34.7899Z" fill="#F1FDEB"/>
<path d="M18.0342 41.6538C17.938 41.6537 17.8419 41.6462 17.7468 41.6312C17.0466 41.5272 16.4733 41.0205 16.2842 40.3383L16.1507 39.8729C16.1204 39.7498 16.0132 39.661 15.8867 39.6541C15.76 39.6354 15.6365 39.7037 15.5849 39.8208C15.2804 40.4362 14.6528 40.8252 13.9662 40.8241H11.6029C11.1863 40.8241 10.8486 40.4863 10.8486 40.0697C10.8486 39.6531 11.1863 39.3154 11.6029 39.3154H13.9662C14.0817 39.3161 14.1874 39.2508 14.2385 39.1472C14.5717 38.4775 15.2824 38.0816 16.0272 38.151C16.772 38.2203 17.3974 38.7406 17.6012 39.4603L17.734 39.9257C17.765 40.0407 17.8609 40.1267 17.9786 40.1451C18.0963 40.1635 18.2139 40.1109 18.2786 40.0109L19.1461 38.712C19.4815 38.2063 20.0479 37.9023 20.6547 37.9023C21.2615 37.9023 21.8279 38.2063 22.1633 38.712L22.4778 39.1834C22.5344 39.2665 22.6285 39.316 22.729 39.3154H25.1805C25.5971 39.3154 25.9348 39.6531 25.9348 40.0697C25.9348 40.4863 25.5971 40.8241 25.1805 40.8241H22.729C22.1229 40.8248 21.5566 40.5221 21.2204 40.0177L20.9066 39.5455C20.8509 39.4601 20.7559 39.4086 20.6539 39.4086C20.552 39.4086 20.4569 39.4601 20.4012 39.5455L19.533 40.8474C19.2013 41.3517 18.6378 41.6549 18.0342 41.6538Z" fill="#F1FDEB"/>
<path d="M32.369 40.8241H28.1977C27.7811 40.8241 27.4434 40.4863 27.4434 40.0697C27.4434 39.6531 27.7811 39.3154 28.1977 39.3154H32.369C32.7856 39.3154 33.1233 39.6531 33.1233 40.0697C33.1233 40.4863 32.7856 40.8241 32.369 40.8241Z" fill="#F1FDEB"/>
<path d="M51.0722 14.0356L45.6826 24.1539L41.021 23.475L37.6945 19.8996L44.045 7.98149C44.2734 7.55226 44.6948 7.25945 45.1767 7.19498C45.6587 7.13051 46.1422 7.30228 46.4754 7.65639L50.8391 12.2924C51.2825 12.7634 51.3762 13.4646 51.0722 14.0356Z" fill="#0D6AE3"/>
<path d="M45.6826 24.1537C43.9401 27.4274 43.4197 33.13 43.3367 34.8649C43.3186 35.1551 43.0767 35.3804 42.786 35.3779C38.7128 35.4608 35.2505 37.7389 33.2289 39.4889C33.0554 39.6397 32.8895 39.783 32.7386 39.9264C32.5653 40.0828 32.3125 40.1139 32.1065 40.0041C31.9004 39.8943 31.7852 39.6672 31.8184 39.4361C31.8485 39.2173 31.8862 38.991 31.9164 38.7496C32.2332 36.0869 32.188 31.9684 29.9929 28.5589C29.8296 28.3197 29.8827 27.9945 30.1136 27.8197C31.5091 26.7787 35.952 23.1731 37.6944 19.8994L45.6826 24.1537Z" fill="#F6CB79"/>
<path d="M39.5124 30.2626C39.5124 31.5124 38.4992 32.5255 37.2494 32.5255C37.1278 32.5242 37.0066 32.5116 36.8874 32.4878C36.8818 32.5323 36.8691 32.5756 36.8496 32.616L33.2289 39.4878C33.0555 39.6387 32.8895 39.782 32.7386 39.9253C32.5653 40.0818 32.3126 40.1128 32.1065 40.003C31.9004 39.8933 31.7852 39.6661 31.8184 39.435C31.8486 39.2163 31.8863 38.99 31.9164 38.7486L35.522 31.907C35.5432 31.8693 35.5714 31.836 35.605 31.8089C34.9061 31.0696 34.7865 29.9548 35.3126 29.084C35.8388 28.2133 36.8813 27.8007 37.8609 28.0756C38.8404 28.3505 39.5161 29.2452 39.5124 30.2626Z" fill="#EDA418"/>
</svg>
