<svg width="70" height="70" viewBox="0 0 70 70" fill="none" xmlns="http://www.w3.org/2000/svg">
<rect width="70" height="70" rx="18" fill="#F0FBEA"/>
<path d="M35 17.5C31.3545 17.5041 27.8596 18.9541 25.2818 21.5318C22.7041 24.1096 21.2541 27.6045 21.25 31.25C21.25 43.0156 33.75 51.9062 34.2812 52.2812C34.4942 52.423 34.7442 52.4986 35 52.4986C35.2558 52.4986 35.5058 52.423 35.7188 52.2812C36.25 51.9062 48.75 43.0156 48.75 31.25C48.7459 27.6045 47.2959 24.1096 44.7182 21.5318C42.1404 18.9541 38.6455 17.5041 35 17.5ZM35 26.25C35.9889 26.25 36.9556 26.5432 37.7778 27.0927C38.6001 27.6421 39.241 28.423 39.6194 29.3366C39.9978 30.2502 40.0969 31.2555 39.9039 32.2254C39.711 33.1954 39.2348 34.0863 38.5355 34.7855C37.8363 35.4848 36.9454 35.961 35.9755 36.1539C35.0055 36.3469 34.0002 36.2478 33.0866 35.8694C32.173 35.491 31.3921 34.8501 30.8427 34.0278C30.2932 33.2056 30 32.2389 30 31.25C30 29.9239 30.5268 28.6521 31.4645 27.7145C32.4021 26.7768 33.6739 26.25 35 26.25Z" fill="#62A446"/>
</svg>
