<svg width="43" height="42" viewBox="0 0 43 42" fill="none" xmlns="http://www.w3.org/2000/svg">
<g clip-path="url(#clip0_7786_17487)">
<path d="M35.0343 13.0353C35.0343 20.5809 27.3512 21.3702 21.9998 25.8019C16.6484 21.3702 8.96533 20.5809 8.96533 13.0353C8.96654 8.04616 11.8156 3.49537 16.303 1.31482C20.7905 -0.865722 26.129 -0.293415 30.0522 2.7888L34.6795 10.0085C34.9158 11 35.0349 12.016 35.0343 13.0353Z" fill="#82AFE9"/>
<path d="M29.4874 21.2249C28.8392 20.3555 27.9722 19.6734 26.9746 19.248H17.025C16.0245 19.672 15.1566 20.3573 14.5122 21.2322L14.7584 29.6901H29.2412L29.4874 21.2249Z" fill="#3E8BEF"/>
<path d="M21.9999 25.8017C16.6485 21.37 8.9654 20.5807 8.96533 13.0352L8.9654 28.9662C8.96332 29.5988 9.00932 30.2306 9.10299 30.8562L12.3037 37.6703C14.7746 40.4246 18.2997 41.9989 21.9999 42.0007C25.4568 42.0007 28.7722 40.6274 31.2167 38.183C33.6611 35.7385 35.0344 32.4232 35.0344 28.9662V13.0352C35.0344 20.5807 27.3513 21.37 21.9999 25.8017Z" fill="#B1C8E7"/>
<path d="M35.0346 13.0352V28.9662C35.036 33.3355 32.8475 37.4147 29.2062 39.8296C25.5649 42.2445 20.9557 42.6736 16.9312 40.9724V37.6558C16.9312 31.5948 19.1325 28.1769 22.0001 25.8017C27.3515 21.37 35.0346 20.5807 35.0346 13.0352Z" fill="#DBE6F5"/>
<path d="M32.1382 13.0361C32.1382 14.2359 31.1655 15.2085 29.9658 15.2085C29.8664 15.2085 29.7672 15.2013 29.6689 15.1868C28.7034 18.6233 25.5697 20.9979 22.0002 20.9979C18.4307 20.9979 15.2971 18.6233 14.3316 15.1868C14.2333 15.2013 14.1341 15.2085 14.0347 15.2085C12.8349 15.2085 11.8623 14.2359 11.8623 13.0361C11.8623 11.8363 12.8349 10.8637 14.0347 10.8637C14.1341 10.8637 14.2333 10.871 14.3316 10.8854C15.2776 7.4915 18.3469 5.12682 21.8699 5.07785C21.9131 5.07183 21.9567 5.06941 22.0002 5.07061C22.8266 5.06736 23.6481 5.19694 24.4333 5.4544C26.983 6.2656 28.9516 8.30779 29.6689 10.8854C29.7672 10.871 29.8664 10.8637 29.9658 10.8637C30.5419 10.8637 31.0945 11.0926 31.5019 11.5C31.9093 11.9074 32.1382 12.46 32.1382 13.0361Z" fill="#E6C199"/>
<path d="M24.8966 7.24302C24.8966 8.44282 23.924 9.41544 22.7242 9.41544C21.5244 9.41544 20.5518 8.44282 20.5518 7.24302C20.5518 6.84309 20.876 6.51889 21.2759 6.51889C21.6758 6.51889 22 6.84309 22 7.24302C22 7.64295 22.3242 7.96716 22.7242 7.96716C23.1241 7.96716 23.4483 7.64295 23.4483 7.24302C23.4042 6.26992 22.7827 5.41744 21.8697 5.07785C21.9129 5.07183 21.9565 5.06941 22 5.07061C22.8264 5.06736 23.6479 5.19694 24.4331 5.4544C24.7444 5.99859 24.9044 6.61615 24.8966 7.24302Z" fill="#805333"/>
</g>
<defs>
<clipPath id="clip0_7786_17487">
<rect width="42" height="42" fill="white" transform="translate(1)"/>
</clipPath>
</defs>
</svg>
