<svg width="37" height="40" viewBox="0 0 37 40" fill="none" xmlns="http://www.w3.org/2000/svg">
<g clip-path="url(#clip0_7354_18571)">
<path d="M27.137 0.714203L25.4879 5.77816L25.3658 6.15188L24.601 8.5034L24.5958 8.51981L22.1305 8.46547L12.6706 8.25374L11.979 6.27389L11.8627 5.94272L10.032 0.714203C15.7111 2.68073 20.3921 -1.61835 27.137 0.714203Z" fill="#82C167"/>
<path d="M25.3658 6.15378L24.601 8.5053L22.1305 8.46736L12.6706 8.25564L11.979 6.27579C15.2307 6.21683 20.8258 6.14096 25.3658 6.15378Z" fill="#82C167"/>
<path d="M35.9367 34.7472C35.4635 36.2587 34.5198 37.5797 33.2433 38.5173C31.9667 39.455 30.424 39.9604 28.8401 39.9598H7.41492C5.90719 39.9594 4.44121 39.4644 3.24189 38.5507C2.04258 37.637 1.17617 36.355 0.77559 34.9015C0.306555 33.1982 0.0483003 31.4438 0.00661571 29.6776C0.00353981 29.5094 0.000976562 29.3413 0.000976562 29.1731C0.000976562 28.9742 0.00371069 28.7757 0.00917896 28.5774C0.183992 22.2565 3.27271 16.3697 8.22952 12.4449L13.356 8.38672L25.0839 8.65791L31.5315 14.8276C32.4444 15.69 33.2391 16.6695 33.8948 17.7405C35.4184 20.2697 36.3883 23.0932 36.7402 26.0248C37.0922 28.9564 36.8183 31.9292 35.9367 34.7472Z" fill="#82C167"/>
<path d="M16.8565 34.2971V32.0291C15.2565 31.9568 13.7058 31.5272 12.7979 31.0038L13.5156 28.2099C14.5188 28.7584 15.925 29.2598 17.4789 29.2598C18.8399 29.2598 19.7709 28.7348 19.7709 27.7803C19.7709 26.8724 19.0071 26.2992 17.24 25.7025C14.6859 24.8433 12.9419 23.6494 12.9419 21.3342C12.9419 19.2324 14.4235 17.5863 16.9775 17.0849V14.8164H19.3162V16.9183C20.9157 16.9906 21.9907 17.3248 22.7781 17.7057L22.0855 20.4043C21.4652 20.1418 20.3671 19.5912 18.6467 19.5912C17.0954 19.5912 16.5961 20.2577 16.5961 20.9287C16.5961 21.7162 17.4322 22.2175 19.4613 22.9819C22.3014 23.9846 23.4481 25.297 23.4481 27.4471C23.4481 29.572 21.9435 31.3858 19.1988 31.8641V34.2971H16.8565Z" fill="white"/>
<path d="M27.0248 7.55078H10.4324C9.74322 7.55078 9.18457 8.10944 9.18457 8.79857V9.32968C9.18457 10.0188 9.74322 10.5775 10.4324 10.5775H27.0248C27.7139 10.5775 28.2726 10.0188 28.2726 9.32968V8.79857C28.2726 8.10944 27.7139 7.55078 27.0248 7.55078Z" fill="#236609"/>
<path opacity="0.4" d="M35.9367 34.7471C35.4635 36.2587 34.5198 37.5796 33.2432 38.5173C31.9667 39.4549 30.424 39.9603 28.8401 39.9597H7.41489C5.90716 39.9594 4.44119 39.4644 3.24187 38.5507C2.04256 37.6369 1.17615 36.355 0.775566 34.9014C0.306531 33.1981 0.0482763 31.4437 0.0065918 29.6775C3.55003 33.0569 7.72658 37.4739 17.49 37.6108C29.6142 37.7815 34.8391 32.0972 35.7772 21.793C37.2049 25.9845 37.2608 30.5217 35.9367 34.7471Z" fill="#4D8E31"/>
</g>
<defs>
<clipPath id="clip0_7354_18571">
<rect width="37" height="40" fill="white"/>
</clipPath>
</defs>
</svg>
