<svg width="140" height="140" viewBox="0 0 140 140" fill="none" xmlns="http://www.w3.org/2000/svg">
<circle cx="70" cy="70" r="70" fill="#F0FBEA"/>
<circle cx="70" cy="70" r="57" fill="#F1FDEB"/>
<g clip-path="url(#clip0_655_22033)">
<path d="M79.1498 100.738H42.308C39.8925 100.738 38.4356 98.0637 39.7457 96.0343C44.9609 87.956 51.195 83.6172 57.5868 83.6172H58.272C64.6638 83.6172 70.8979 87.956 76.113 96.0343L79.1498 100.738Z" fill="#ADDE98"/>
<path d="M52.4773 62.8008C51.9778 62.8008 51.573 63.2057 51.573 63.7051V65.6743C51.573 66.1737 51.9778 66.5786 52.4773 66.5786C52.9768 66.5786 53.3816 66.1737 53.3816 65.6743V63.7051C53.3816 63.2057 52.9767 62.8008 52.4773 62.8008Z" fill="#F3B744"/>
<path d="M88.8083 44.3125C88.3088 44.3125 87.9041 44.7174 87.9041 45.2168V47.1861C87.9041 47.6855 88.3088 48.0903 88.8083 48.0903C89.3079 48.0903 89.7126 47.6855 89.7126 47.1861V45.2168C89.7126 44.7174 89.3079 44.3125 88.8083 44.3125Z" fill="#F3B744"/>
<path d="M66.8129 81.1601H59.9422C53.2933 81.1601 47.884 75.751 47.884 69.1021C47.884 66.938 49.6385 65.1836 51.8026 65.1836C53.9667 65.1836 55.7211 66.938 55.7211 69.1021C55.7211 71.4296 57.6147 73.3231 59.9422 73.3231H66.8129C68.977 73.3231 70.7314 75.0775 70.7314 77.2416C70.7314 79.4057 68.9771 81.1601 66.8129 81.1601Z" fill="#82C167"/>
<path d="M70.7316 77.2418C70.7316 79.4061 68.9761 81.1604 66.813 81.1604H59.9417C58.7107 81.1604 57.5207 80.9747 56.4018 80.6287V74.6753C56.4018 73.9286 55.7965 73.3233 55.0498 73.3233C52.7228 73.3233 50.9006 71.42 50.8953 69.093C50.8924 67.8428 50.3047 66.73 49.3894 66.0143C50.0537 65.4947 50.8917 65.1836 51.802 65.1836C53.9663 65.1836 55.7206 66.9379 55.7206 69.1021C55.7206 69.9485 55.9713 70.7371 56.4018 71.3978C57.1553 72.5565 58.4611 73.3233 59.9417 73.3233H66.813C68.9761 73.3233 70.7316 75.0776 70.7316 77.2418Z" fill="#4D8E31"/>
<path d="M81.0976 70.8539H74.2269C72.0628 70.8539 70.3083 69.0994 70.3083 66.9353C70.3083 64.7712 72.0628 63.0168 74.2269 63.0168H81.0976C83.4251 63.0168 85.3186 61.1232 85.3186 58.7957V50.2974C85.3186 48.1333 87.0731 46.3789 89.2372 46.3789C91.4013 46.3789 93.1557 48.1333 93.1557 50.2974V58.7957C93.1557 65.4446 87.7463 70.8539 81.0976 70.8539Z" fill="#62A446"/>
<path d="M89.2362 46.3789C88.3259 46.3789 87.4887 46.6902 86.8236 47.2108C87.7399 47.9281 88.3295 49.0435 88.3295 50.2974V58.7957C88.3295 65.4446 82.9202 70.8539 76.2714 70.8539H81.0966C87.7454 70.8539 93.1547 65.4446 93.1547 58.7957V50.2974C93.1547 48.1332 91.4003 46.3789 89.2362 46.3789Z" fill="#387E1B"/>
<path d="M69.9988 39.25C69.4992 39.25 69.0945 39.6549 69.0945 40.1543V42.1236C69.0945 42.623 69.4992 43.0278 69.9988 43.0278C70.4983 43.0278 70.903 42.623 70.903 42.1236V40.1543C70.903 39.6549 70.4983 39.25 69.9988 39.25Z" fill="#F3B744"/>
<path d="M80.5822 93.5054H59.4165V52.243C59.4165 46.3982 64.1546 41.6602 69.9993 41.6602C75.8441 41.6602 80.5822 46.3982 80.5822 52.243V93.5054Z" fill="#82C167"/>
<path d="M59.448 45.5071C59.0948 45.8602 59.0948 46.4328 59.448 46.7859L60.8404 48.1784C61.1936 48.5316 61.7661 48.5316 62.1193 48.1784C62.4726 47.8253 62.4725 47.2527 62.1193 46.8995L60.7269 45.5071C60.3736 45.1539 59.8011 45.1539 59.448 45.5071Z" fill="#F3B744"/>
<path d="M46.6301 66.0696C46.2769 66.4227 46.2769 66.9953 46.6301 67.3485L48.0226 68.741C48.3757 69.0941 48.9482 69.0941 49.3015 68.741C49.6547 68.3878 49.6546 67.8152 49.3015 67.4621L47.909 66.0696C47.5558 65.7164 46.9834 65.7163 46.6301 66.0696Z" fill="#F3B744"/>
<path d="M91.8031 50.737C91.4499 50.3839 91.4499 49.8113 91.8031 49.4581L93.1955 48.0656C93.5487 47.7125 94.1212 47.7125 94.4744 48.0656C94.8277 48.4188 94.8276 48.9914 94.4744 49.3445L93.082 50.737C92.7288 51.0902 92.1562 51.0903 91.8031 50.737Z" fill="#F3B744"/>
<path d="M48.8004 78.3893C48.4472 78.0362 48.4472 77.4636 48.8004 77.1105L50.1929 75.718C50.546 75.3648 51.1185 75.3648 51.4717 75.718C51.8249 76.0711 51.8249 76.6437 51.4717 76.9969L50.0793 78.3893C49.7261 78.7425 49.1537 78.7425 48.8004 78.3893Z" fill="#F3B744"/>
<path d="M80.3854 45.5071C80.7386 45.8602 80.7386 46.4328 80.3854 46.7859L78.993 48.1784C78.6398 48.5316 78.0674 48.5316 77.7141 48.1784C77.3609 47.8253 77.3609 47.2527 77.7141 46.8995L79.1065 45.5071C79.4597 45.1539 80.0323 45.1539 80.3854 45.5071Z" fill="#F3B744"/>
<path d="M57.7491 56.4277C57.7491 56.9272 58.154 57.332 58.6534 57.332H60.6227C61.1221 57.332 61.527 56.9272 61.527 56.4277C61.527 55.9282 61.1221 55.5234 60.6227 55.5234H58.6534C58.154 55.5234 57.7491 55.9282 57.7491 56.4277Z" fill="#F3B744"/>
<path d="M78.9091 56.4277C78.9091 56.9272 79.3139 57.332 79.8133 57.332H81.7826C82.282 57.332 82.6869 56.9272 82.6869 56.4277C82.6869 55.9282 82.282 55.5234 81.7826 55.5234H79.8133C79.3139 55.5234 78.9091 55.9282 78.9091 56.4277Z" fill="#82C167"/>
<path d="M78.9091 72.9472C78.9091 73.4468 79.3139 73.8515 79.8133 73.8515H81.7826C82.282 73.8515 82.6869 73.4468 82.6869 72.9472C82.6869 72.4477 82.282 72.043 81.7826 72.043H79.8133C79.3139 72.043 78.9091 72.4477 78.9091 72.9472Z" fill="#82C167"/>
<path d="M91.1261 57.0293C91.1261 57.5288 91.531 57.9336 92.0304 57.9336H93.9997C94.4991 57.9336 94.9039 57.5288 94.9039 57.0293C94.9039 56.5298 94.4991 56.125 93.9997 56.125H92.0304C91.531 56.125 91.1261 56.5298 91.1261 57.0293Z" fill="#82C167"/>
<path d="M78.9091 85.7871C78.9091 86.2866 79.3139 86.6914 79.8133 86.6914H81.7826C82.282 86.6914 82.6869 86.2866 82.6869 85.7871C82.6869 85.2876 82.282 84.8828 81.7826 84.8828H79.8133C79.3139 84.8828 78.9091 85.2876 78.9091 85.7871Z" fill="#82C167"/>
<path d="M57.7491 70.7754C57.7491 71.2749 58.154 71.6796 58.6534 71.6796H60.6227C61.1221 71.6796 61.527 71.2749 61.527 70.7754C61.527 70.2758 61.1221 69.8711 60.6227 69.8711H58.6534C58.154 69.8711 57.7491 70.2758 57.7491 70.7754Z" fill="#F3B744"/>
<path d="M69.9993 41.6602C69.1693 41.6602 68.3617 41.756 67.5867 41.9366C72.2689 43.0284 75.7569 47.2282 75.7569 52.243V93.5054H80.5821V52.243C80.5821 46.3982 75.8441 41.6602 69.9993 41.6602Z" fill="#387E1B"/>
<path d="M69.9992 48.4727C69.4997 48.4727 69.095 48.8775 69.095 49.3769V66.9802C69.095 67.4796 69.4997 67.8845 69.9992 67.8845C70.4988 67.8845 70.9035 67.4796 70.9035 66.9802V49.3769C70.9035 48.8775 70.4988 48.4727 69.9992 48.4727Z" fill="#62A446"/>
<path d="M69.9994 75.2383C69.4998 75.2383 69.0951 75.6432 69.0951 76.1426V93.5047H70.9036V76.1426C70.9036 75.6432 70.4989 75.2383 69.9994 75.2383Z" fill="#62A446"/>
<path d="M64.6924 46C64.193 46 63.7881 46.4049 63.7881 46.9043V93.5029H65.5966V46.9043C65.5966 46.4049 65.1918 46 64.6924 46Z" fill="#62A446"/>
<path d="M61.1254 63.8457C61.1254 64.3452 61.5302 64.75 62.0296 64.75H63.9989C64.4983 64.75 64.9032 64.3452 64.9032 63.8457C64.9032 63.3462 64.4983 62.9414 63.9989 62.9414H62.0296C61.5302 62.9414 61.1254 63.3462 61.1254 63.8457Z" fill="#F3B744"/>
<path d="M61.1257 84.3418C61.1257 84.8413 61.5306 85.2461 62.03 85.2461H63.9993C64.4987 85.2461 64.9036 84.8413 64.9036 84.3418C64.9036 83.8423 64.4987 83.4375 63.9993 83.4375H62.03C61.5306 83.4375 61.1257 83.8423 61.1257 84.3418Z" fill="#F3B744"/>
<path d="M73.7848 79.2168C73.7848 79.7163 74.1897 80.1211 74.6891 80.1211H76.6583C77.1577 80.1211 77.5626 79.7163 77.5626 79.2168C77.5626 78.7173 77.1577 78.3125 76.6583 78.3125H74.6891C74.1897 78.3125 73.7848 78.7173 73.7848 79.2168Z" fill="#82C167"/>
<path d="M99.1824 100.739H47.4839C45.9644 100.739 45.3427 98.7866 46.5825 97.908C54.402 92.3668 63.7493 89.3906 73.3331 89.3906C82.9169 89.3906 92.2642 92.3668 100.084 97.908C101.324 98.7866 100.702 100.739 99.1824 100.739Z" fill="#D6F1CA"/>
</g>
<defs>
<clipPath id="clip0_655_22033">
<rect width="61.4909" height="61.4909" fill="white" transform="translate(39.2545 39.2539)"/>
</clipPath>
</defs>
</svg>
