<svg width="390" height="439" viewBox="0 0 390 439" fill="none" xmlns="http://www.w3.org/2000/svg">
<g clip-path="url(#clip0_6636_16931)">
<path opacity="0.5" d="M391 13.4998C229.5 13.4998 162.575 79.3385 135.5 148.817C108.425 218.296 134 492.5 262.5 329.5C391 166.5 -37 64.9999 -50 -54.5001" stroke="url(#paint0_linear_6636_16931)" stroke-width="12"/>
<path d="M321 433C350.271 433 374 409.271 374 380C374 350.729 350.271 327 321 327C291.729 327 268 350.729 268 380C268 409.271 291.729 433 321 433Z" fill="url(#paint1_linear_6636_16931)"/>
<g filter="url(#filter0_d_6636_16931)">
<path d="M326.776 43H63.2229C56.2917 43 50.6729 48.6189 50.6729 55.5501V395.45C50.6729 402.381 56.2917 408 63.2229 408H326.776C333.707 408 339.326 402.381 339.326 395.45V55.5501C339.326 48.6189 333.707 43 326.776 43Z" fill="url(#paint2_linear_6636_16931)" fill-opacity="0.7"/>
<path d="M326.776 44.5688H63.2226C57.1578 44.5688 52.2412 49.4853 52.2412 55.5502V395.449C52.2412 401.514 57.1578 406.431 63.2226 406.431H326.776C332.841 406.431 337.757 401.514 337.757 395.449V55.5502C337.757 49.4853 332.841 44.5688 326.776 44.5688Z" stroke="white" stroke-width="3.13754"/>
</g>
<path d="M178.09 250.145L176.733 256.46H176.641L174.995 250.72H173.661L171.993 256.46H171.912L170.578 250.145H169.393L171.187 258.198H172.568L174.282 252.261H174.363L176.088 258.198H177.469L179.252 250.145H178.09ZM183.029 258.313C184.72 258.313 185.985 257.059 185.985 255.322C185.985 253.584 184.72 252.33 183.029 252.33C181.337 252.33 180.095 253.573 180.095 255.322C180.095 257.047 181.349 258.313 183.029 258.313ZM183.029 257.289C181.959 257.289 181.257 256.391 181.257 255.322C181.257 254.24 181.959 253.354 183.029 253.354C184.098 253.354 184.823 254.24 184.823 255.322C184.823 256.391 184.098 257.289 183.029 257.289ZM187.301 258.198H188.474V255.299C188.474 254.309 188.934 253.469 190.027 253.469C190.223 253.469 190.407 253.481 190.591 253.504V252.33H190.223C189.268 252.33 188.865 252.71 188.555 253.251H188.474L188.359 252.445H187.301V258.198ZM196.586 252.445H195.171L192.801 254.746H192.721V250.03H191.547V258.198H192.721V256.242L193.434 255.54L195.286 258.198H196.586L194.228 254.758L196.586 252.445ZM200.526 252.33C199.559 252.33 198.996 252.825 198.708 253.216H198.628L198.524 252.445H197.569V260.498H198.743V257.53C199.042 257.91 199.64 258.313 200.526 258.313C202.033 258.313 203.195 257.174 203.195 255.333C203.195 253.515 202.067 252.33 200.526 252.33ZM200.353 257.289C199.375 257.289 198.743 256.495 198.743 255.333C198.743 254.148 199.375 253.354 200.353 253.354C201.343 253.354 202.021 254.148 202.021 255.333C202.021 256.495 201.343 257.289 200.353 257.289ZM209.505 257.312C209.218 257.312 209.068 257.162 209.068 256.84V254.482C209.068 253.044 208.079 252.33 206.767 252.33C205.387 252.33 204.535 253.159 204.432 254.298H205.594C205.697 253.699 206.043 253.285 206.767 253.285C207.481 253.285 207.895 253.699 207.895 254.436V254.723L206.135 254.896C205.03 254.999 204.202 255.563 204.202 256.656C204.202 257.783 205.042 258.313 206.158 258.313C207.02 258.313 207.653 257.979 208.044 257.484C208.205 258.025 208.585 258.198 209.126 258.198H209.655V257.312H209.505ZM207.895 255.989C207.895 257.024 207.043 257.392 206.33 257.392C205.812 257.392 205.375 257.185 205.375 256.61C205.375 256.058 205.847 255.759 206.526 255.701L207.895 255.563V255.989ZM211.486 260.614C213.004 260.614 213.418 259.498 213.579 259.026L215.972 252.445H214.753L213.154 256.99H213.062L211.359 252.445H210.14L212.36 258.198H212.74L212.486 258.853C212.233 259.463 211.762 259.682 211.232 259.682C211.06 259.682 210.83 259.647 210.623 259.601V260.487C210.853 260.545 211.129 260.614 211.486 260.614Z" fill="#253545"/>
<path d="M208.35 186.584H181.158C174.226 186.584 168.607 192.203 168.607 199.134V226.326C168.607 233.257 174.226 238.876 181.158 238.876H208.35C215.281 238.876 220.9 233.257 220.9 226.326V199.134C220.9 192.203 215.281 186.584 208.35 186.584Z" fill="url(#paint3_linear_6636_16931)"/>
<path fill-rule="evenodd" clip-rule="evenodd" d="M213.377 206.984L209.255 202.862C207.59 201.198 204.883 201.198 203.219 202.862L194.754 211.327L186.289 202.862C184.624 201.198 181.917 201.198 180.253 202.862L176.13 206.984C174.466 208.648 174.466 211.356 176.13 213.02L184.08 220.97C185.744 222.634 188.452 222.634 190.116 220.97L193.948 217.138L194.754 216.333L197.256 213.83L205.721 205.365C206.005 205.081 206.468 205.081 206.752 205.365L210.874 209.487C211.158 209.771 211.158 210.234 210.874 210.518L202.924 218.467C202.64 218.751 202.178 218.751 201.893 218.467L197.256 213.83V218.836L199.391 220.97C201.055 222.634 203.763 222.634 205.427 220.97L213.377 213.02C215.041 211.356 215.041 208.648 213.377 206.984ZM187.613 218.467C187.329 218.751 186.867 218.751 186.583 218.467L178.633 210.518C178.349 210.234 178.349 209.771 178.633 209.487L182.755 205.365C183.039 205.081 183.502 205.081 183.786 205.365L192.251 213.83L187.613 218.467Z" fill="white"/>
<g opacity="0.4">
<path d="M115.058 76.467H87.8655C80.9343 76.467 75.3154 82.0858 75.3154 89.0171V116.209C75.3154 123.14 80.9343 128.759 87.8655 128.759H115.058C121.989 128.759 127.608 123.14 127.608 116.209V89.0171C127.608 82.0858 121.989 76.467 115.058 76.467Z" fill="#9EB7C1" fill-opacity="0.7"/>
<path d="M127.608 139.218H75.3154V147.585H127.608V139.218Z" fill="#C5D0D5" fill-opacity="0.7"/>
<path d="M111.658 97.1224V108.104C111.658 108.728 111.41 109.326 110.969 109.768C110.528 110.209 109.929 110.457 109.305 110.457H93.6178C92.9937 110.457 92.3951 110.209 91.9538 109.768C91.5125 109.326 91.2646 108.728 91.2646 108.104V97.1224M111.658 97.1224C111.658 96.4983 111.41 95.8998 110.969 95.4585C110.528 95.0172 109.929 94.7693 109.305 94.7693H93.6178C92.9937 94.7693 92.3951 95.0172 91.9538 95.4585C91.5125 95.8998 91.2646 96.4983 91.2646 97.1224M111.658 97.1224V97.3766C111.658 97.7783 111.555 98.1734 111.359 98.5242C111.164 98.8749 110.881 99.1697 110.539 99.3804L102.695 104.207C102.324 104.436 101.897 104.557 101.461 104.557C101.025 104.557 100.598 104.436 100.227 104.207L92.3837 99.3815C92.0416 99.1708 91.7591 98.876 91.5632 98.5252C91.3673 98.1745 91.2645 97.7794 91.2646 97.3776V97.1224" stroke="#53656C" stroke-width="2.09169" stroke-linecap="round" stroke-linejoin="round"/>
</g>
<g opacity="0.4">
<path d="M115.058 189.418H87.8655C80.9343 189.418 75.3154 195.037 75.3154 201.968V229.16C75.3154 236.091 80.9343 241.71 87.8655 241.71H115.058C121.989 241.71 127.608 236.091 127.608 229.16V201.968C127.608 195.037 121.989 189.418 115.058 189.418Z" fill="#9EB7C1" fill-opacity="0.7"/>
<path d="M127.608 252.169H75.3154V260.536H127.608V252.169Z" fill="#C5D0D5" fill-opacity="0.7"/>
<path d="M92.0488 211.172C92.0488 209.415 92.0488 208.536 92.3908 207.865C92.6916 207.275 93.1716 206.795 93.762 206.494C94.4331 206.152 95.3117 206.152 97.0689 206.152H105.854C107.611 206.152 108.49 206.152 109.161 206.494C109.751 206.795 110.231 207.275 110.532 207.865C110.874 208.536 110.874 209.415 110.874 211.172V216.819C110.874 218.577 110.874 219.455 110.532 220.126C110.231 220.717 109.751 221.197 109.161 221.498C108.49 221.84 107.611 221.84 105.854 221.84H99.039C98.3863 221.84 98.06 221.84 97.7479 221.904C97.4709 221.96 97.203 222.054 96.9512 222.183C96.6675 222.328 96.4126 222.532 95.903 222.94L93.4082 224.935C92.973 225.284 92.7554 225.458 92.5723 225.458C92.4131 225.458 92.2624 225.386 92.1631 225.261C92.0488 225.118 92.0488 224.839 92.0488 224.282V211.172Z" stroke="#53656C" stroke-width="2.09169" stroke-linecap="round" stroke-linejoin="round"/>
</g>
<g opacity="0.4">
<path d="M302.135 303.415H274.943C268.011 303.415 262.393 309.034 262.393 315.965V343.157C262.393 350.088 268.011 355.707 274.943 355.707H302.135C309.066 355.707 314.685 350.088 314.685 343.157V315.965C314.685 309.034 309.066 303.415 302.135 303.415Z" fill="#9EB7C1" fill-opacity="0.7"/>
<path d="M314.685 366.166H262.393V374.533H314.685V366.166Z" fill="#C5D0D5" fill-opacity="0.7"/>
<path d="M288.538 334.791C291.426 334.791 293.768 332.45 293.768 329.562C293.768 326.674 291.426 324.332 288.538 324.332C285.65 324.332 283.309 326.674 283.309 329.562C283.309 332.45 285.65 334.791 288.538 334.791Z" stroke="#53656C" stroke-width="2.09169" stroke-linecap="round" stroke-linejoin="round"/>
<path d="M294.341 323.009C294.605 323.253 294.855 323.503 295.091 323.759L297.934 324.166C298.398 324.97 298.755 325.832 298.997 326.728L297.268 329.03C297.268 329.03 297.299 329.739 297.268 330.093L298.997 332.395C298.756 333.292 298.399 334.153 297.934 334.957L295.091 335.364C295.091 335.364 294.601 335.874 294.341 336.114L293.934 338.958C293.13 339.421 292.268 339.778 291.372 340.02L289.07 338.291C288.716 338.322 288.361 338.322 288.007 338.291L285.705 340.02C284.808 339.779 283.947 339.422 283.143 338.958L282.736 336.114C282.479 335.871 282.229 335.621 281.986 335.364L279.143 334.957C278.679 334.153 278.322 333.291 278.08 332.395L279.809 330.093C279.809 330.093 279.778 329.385 279.809 329.03L278.08 326.728C278.321 325.831 278.678 324.97 279.143 324.166L281.986 323.759C282.229 323.503 282.479 323.253 282.736 323.009L283.143 320.166C283.947 319.702 284.809 319.345 285.705 319.103L288.007 320.832C288.361 320.801 288.716 320.801 289.07 320.832L291.372 319.103C292.269 319.344 293.13 319.701 293.934 320.166L294.341 323.009Z" stroke="#53656C" stroke-width="2.09169" stroke-linecap="round" stroke-linejoin="round"/>
</g>
<g opacity="0.4">
<path d="M208.742 303.415H181.55C174.619 303.415 169 309.034 169 315.965V343.157C169 350.088 174.619 355.707 181.55 355.707H208.742C215.673 355.707 221.292 350.088 221.292 343.157V315.965C221.292 309.034 215.673 303.415 208.742 303.415Z" fill="#9EB7C1" fill-opacity="0.7"/>
<path d="M221.292 366.166H169V374.533H221.292V366.166Z" fill="#C5D0D5" fill-opacity="0.7"/>
<path d="M195.146 330.346C196.879 330.346 198.283 328.941 198.283 327.208C198.283 325.476 196.879 324.071 195.146 324.071C193.413 324.071 192.008 325.476 192.008 327.208C192.008 328.941 193.413 330.346 195.146 330.346Z" stroke="#53656C" stroke-width="2.09169" stroke-linecap="round" stroke-linejoin="round"/>
<path d="M202.99 327.208C202.99 334.268 195.146 339.759 195.146 339.759C195.146 339.759 187.302 334.268 187.302 327.208C187.302 325.128 188.129 323.133 189.6 321.662C191.071 320.191 193.066 319.365 195.146 319.365C197.226 319.365 199.222 320.191 200.693 321.662C202.164 323.133 202.99 325.128 202.99 327.208Z" stroke="#53656C" stroke-width="2.09169" stroke-linecap="round" stroke-linejoin="round"/>
</g>
<g opacity="0.4">
<path d="M302.135 76.467H274.943C268.011 76.467 262.393 82.0858 262.393 89.0171V116.209C262.393 123.14 268.011 128.759 274.943 128.759H302.135C309.066 128.759 314.685 123.14 314.685 116.209V89.0171C314.685 82.0858 309.066 76.467 302.135 76.467Z" fill="#9EB7C1" fill-opacity="0.7"/>
<path d="M314.685 139.218H262.393V147.585H314.685V139.218Z" fill="#C5D0D5" fill-opacity="0.7"/>
<mask id="mask0_6636_16931" style="mask-type:alpha" maskUnits="userSpaceOnUse" x="277" y="91" width="24" height="24">
<path d="M298.997 107.759V110.896C298.998 111.188 298.938 111.476 298.822 111.743C298.705 112.01 298.534 112.249 298.319 112.446C298.104 112.643 297.851 112.793 297.575 112.886C297.299 112.98 297.007 113.014 296.717 112.988C293.498 112.638 290.407 111.539 287.691 109.777C285.164 108.172 283.022 106.029 281.416 103.502C279.649 100.774 278.549 97.6674 278.205 94.4347C278.179 94.1455 278.214 93.854 278.306 93.5788C278.399 93.3036 278.548 93.0507 278.744 92.8363C278.939 92.6218 279.178 92.4504 279.443 92.3331C279.709 92.2158 279.996 92.155 280.286 92.1548H283.424C283.932 92.1498 284.424 92.3295 284.808 92.6605C285.193 92.9914 285.445 93.451 285.516 93.9536C285.648 94.9577 285.894 95.9436 286.248 96.8924C286.389 97.2668 286.419 97.6736 286.336 98.0647C286.252 98.4558 286.058 98.8148 285.777 99.0992L284.449 100.427C285.938 103.046 288.106 105.214 290.724 106.702L292.052 105.374C292.337 105.093 292.696 104.899 293.087 104.816C293.478 104.732 293.885 104.763 294.259 104.904C295.208 105.258 296.194 105.503 297.198 105.636C297.706 105.707 298.17 105.963 298.501 106.355C298.833 106.746 299.009 107.246 298.997 107.759Z" stroke="#061938" stroke-width="2.09169" stroke-linecap="round" stroke-linejoin="round"/>
</mask>
<g mask="url(#mask0_6636_16931)">
<path d="M301.088 90.0631H275.988V115.163H301.088V90.0631Z" fill="#53656C"/>
</g>
</g>
<g opacity="0.4">
<path d="M115.058 303.415H87.8655C80.9343 303.415 75.3154 309.034 75.3154 315.965V343.157C75.3154 350.088 80.9343 355.707 87.8655 355.707H115.058C121.989 355.707 127.608 350.088 127.608 343.157V315.965C127.608 309.034 121.989 303.415 115.058 303.415Z" fill="#9EB7C1" fill-opacity="0.7"/>
<path d="M127.608 366.166H75.3154V374.533H127.608V366.166Z" fill="#C5D0D5" fill-opacity="0.7"/>
<path d="M111.92 327.47H91.0029M100.416 331.653H97.8009H95.1863M91.0029 325.587V333.536C91.0029 334.707 91.0029 335.293 91.2309 335.74C91.4314 336.134 91.7514 336.454 92.145 336.655C92.5924 336.883 93.1782 336.883 94.3496 336.883H108.573C109.745 336.883 110.33 336.883 110.778 336.655C111.171 336.454 111.491 336.134 111.692 335.74C111.92 335.293 111.92 334.707 111.92 333.536V325.587C111.92 324.416 111.92 323.83 111.692 323.383C111.491 322.989 111.171 322.669 110.778 322.469C110.33 322.241 109.745 322.241 108.573 322.241H94.3496C93.1782 322.241 92.5925 322.241 92.145 322.469C91.7514 322.669 91.4314 322.989 91.2309 323.383C91.0029 323.83 91.0029 324.416 91.0029 325.587Z" stroke="#53656C" stroke-width="2.09169" stroke-linecap="round" stroke-linejoin="round"/>
</g>
<g opacity="0.4">
<path d="M208.742 76.467H181.55C174.619 76.467 169 82.0858 169 89.0171V116.209C169 123.14 174.619 128.759 181.55 128.759H208.742C215.673 128.759 221.292 123.14 221.292 116.209V89.0171C221.292 82.0858 215.673 76.467 208.742 76.467Z" fill="#9EB7C1" fill-opacity="0.7"/>
<path d="M221.292 139.218H169V147.585H221.292V139.218Z" fill="#C5D0D5" fill-opacity="0.7"/>
<mask id="mask1_6636_16931" style="mask-type:alpha" maskUnits="userSpaceOnUse" x="182" y="92" width="26" height="22">
<path fill-rule="evenodd" clip-rule="evenodd" d="M191.138 92.6205C191.332 92.3295 191.659 92.1548 192.008 92.1548H198.283C198.633 92.1548 198.96 92.3295 199.154 92.6205L200.935 95.2923H204.558C205.391 95.2923 206.189 95.6229 206.777 96.2113C207.365 96.7997 207.696 97.5977 207.696 98.4299V109.934C207.696 110.766 207.365 111.564 206.777 112.153C206.189 112.741 205.391 113.072 204.558 113.072H185.733C184.901 113.072 184.103 112.741 183.515 112.153C182.926 111.564 182.596 110.766 182.596 109.934V98.4299C182.596 97.5977 182.926 96.7997 183.515 96.2113C184.103 95.6229 184.901 95.2923 185.733 95.2923H189.357L191.138 92.6205ZM192.568 94.2465L190.787 96.9183C190.593 97.2092 190.266 97.384 189.917 97.384H185.733C185.456 97.384 185.19 97.4942 184.994 97.6903C184.798 97.8865 184.687 98.1525 184.687 98.4299V109.934C184.687 110.212 184.798 110.478 184.994 110.674C185.19 110.87 185.456 110.98 185.733 110.98H204.558C204.836 110.98 205.102 110.87 205.298 110.674C205.494 110.478 205.604 110.212 205.604 109.934V98.4299C205.604 98.1525 205.494 97.8865 205.298 97.6903C205.102 97.4942 204.836 97.384 204.558 97.384H200.375C200.025 97.384 199.699 97.2092 199.505 96.9183L197.724 94.2465H192.568Z" fill="#061938"/>
<path fill-rule="evenodd" clip-rule="evenodd" d="M195.146 100.522C193.413 100.522 192.008 101.926 192.008 103.659C192.008 105.392 193.413 106.797 195.146 106.797C196.879 106.797 198.283 105.392 198.283 103.659C198.283 101.926 196.879 100.522 195.146 100.522ZM189.917 103.659C189.917 100.771 192.258 98.4299 195.146 98.4299C198.034 98.4299 200.375 100.771 200.375 103.659C200.375 106.547 198.034 108.888 195.146 108.888C192.258 108.888 189.917 106.547 189.917 103.659Z" fill="#061938"/>
</mask>
<g mask="url(#mask1_6636_16931)">
<path d="M207.696 90.0631H182.596V115.163H207.696V90.0631Z" fill="#53656C"/>
</g>
</g>
<g opacity="0.4">
<path d="M302.135 189.418H274.943C268.011 189.418 262.393 195.037 262.393 201.968V229.16C262.393 236.091 268.011 241.71 274.943 241.71H302.135C309.066 241.71 314.685 236.091 314.685 229.16V201.968C314.685 195.037 309.066 189.418 302.135 189.418Z" fill="#9EB7C1" fill-opacity="0.7"/>
<path d="M314.685 252.169H262.393V260.536H314.685V252.169Z" fill="#C5D0D5" fill-opacity="0.7"/>
<path d="M276.628 223.931H300.67C300.901 223.931 301.089 223.744 301.089 223.513V220.13C301.089 220.042 301.06 219.955 301.008 219.884L295.674 212.582C295.507 212.353 295.166 212.353 294.999 212.582L289.993 219.435C289.807 219.689 289.418 219.655 289.279 219.372L283.706 208.008C283.55 207.688 283.09 207.698 282.948 208.024L276.245 223.345C276.124 223.622 276.326 223.931 276.628 223.931Z" fill="#53656C"/>
</g>
</g>
<defs>
<filter id="filter0_d_6636_16931" x="25.5727" y="22.0832" width="338.854" height="415.2" filterUnits="userSpaceOnUse" color-interpolation-filters="sRGB">
<feFlood flood-opacity="0" result="BackgroundImageFix"/>
<feColorMatrix in="SourceAlpha" type="matrix" values="0 0 0 0 0 0 0 0 0 0 0 0 0 0 0 0 0 0 127 0" result="hardAlpha"/>
<feOffset dy="4.18338"/>
<feGaussianBlur stdDeviation="12.5501"/>
<feColorMatrix type="matrix" values="0 0 0 0 0.882353 0 0 0 0 0.921569 0 0 0 0 0.94902 0 0 0 0.7 0"/>
<feBlend mode="normal" in2="BackgroundImageFix" result="effect1_dropShadow_6636_16931"/>
<feBlend mode="normal" in="SourceGraphic" in2="effect1_dropShadow_6636_16931" result="shape"/>
</filter>
<linearGradient id="paint0_linear_6636_16931" x1="391" y1="44.4998" x2="-20" y2="54.9998" gradientUnits="userSpaceOnUse">
<stop stop-color="#62A446"/>
<stop offset="1" stop-color="#62A446" stop-opacity="0.19"/>
</linearGradient>
<linearGradient id="paint1_linear_6636_16931" x1="260.773" y1="249.106" x2="368.379" y2="445.447" gradientUnits="userSpaceOnUse">
<stop stop-color="#F3B744"/>
<stop offset="0.902739" stop-color="#F3B744" stop-opacity="0"/>
</linearGradient>
<linearGradient id="paint2_linear_6636_16931" x1="50.6728" y1="-1.44841" x2="513.783" y2="453.633" gradientUnits="userSpaceOnUse">
<stop stop-color="#EEF5EB"/>
<stop offset="1" stop-color="#DBE6F5"/>
</linearGradient>
<linearGradient id="paint3_linear_6636_16931" x1="192.099" y1="262.448" x2="244.392" y2="215.465" gradientUnits="userSpaceOnUse">
<stop stop-color="#62A446"/>
<stop offset="0.315271" stop-color="#62A446"/>
<stop offset="1" stop-color="#FFB417"/>
</linearGradient>
<clipPath id="clip0_6636_16931">
<rect width="390" height="439" fill="white"/>
</clipPath>
</defs>
</svg>
