<svg width="390" height="439" viewBox="0 0 390 439" fill="none" xmlns="http://www.w3.org/2000/svg">
<g clip-path="url(#clip0_6612_16594)">
<path opacity="0.5" d="M-424 -44C-354.521 164.64 -197 318.598 -127.521 345.674C-58.0422 372.749 -25 362.014 42.5 222.507C110 83 367.331 -63.3 493.731 39.5" stroke="url(#paint0_radial_6612_16594)" stroke-width="12"/>
</g>
<g clip-path="url(#clip1_6612_16594)">
<g filter="url(#filter0_d_6612_16594)">
<circle cx="330" cy="279" r="60" fill="white"/>
</g>
<circle cx="329.88" cy="278.88" r="44.88" fill="white"/>
<path d="M322.962 272.917V269.476C322.962 268.554 322.591 267.669 321.93 267.017C321.27 266.364 320.374 265.997 319.439 265.997H302.144C301.682 265.997 301.224 266.087 300.796 266.262C300.369 266.437 299.981 266.694 299.653 267.017C299.326 267.34 299.067 267.723 298.89 268.145C298.713 268.567 298.622 269.019 298.623 269.476V314.234C298.622 314.691 298.713 315.143 298.89 315.565C299.067 315.987 299.327 316.37 299.654 316.693C299.981 317.016 300.37 317.273 300.797 317.447C301.225 317.622 301.683 317.712 302.146 317.712H361.787C362.249 317.712 362.708 317.622 363.135 317.447C363.563 317.273 363.951 317.016 364.278 316.693C364.606 316.37 364.865 315.987 365.042 315.565C365.219 315.143 365.31 314.691 365.31 314.234V279.874C365.31 279.417 365.219 278.965 365.042 278.542C364.865 278.12 364.606 277.737 364.278 277.414C363.951 277.091 363.563 276.834 363.135 276.66C362.708 276.485 362.249 276.395 361.787 276.395H326.483C325.549 276.394 324.654 276.027 323.994 275.375C323.334 274.723 322.963 273.839 322.962 272.917Z" fill="#387E1B"/>
<path d="M363.046 239.13L322.772 239.206C322.523 239.206 322.321 239.406 322.321 239.653L322.419 290.119C322.42 290.365 322.622 290.564 322.872 290.564L363.145 290.487C363.395 290.487 363.597 290.287 363.596 290.041L363.498 239.575C363.498 239.328 363.295 239.129 363.046 239.13Z" fill="#F2F2F2"/>
<path opacity="0.23" d="M358.229 256.4L331.289 256.451L331.291 257.248L358.23 257.197L358.229 256.4Z" fill="#0E2E01"/>
<path opacity="0.23" d="M358.235 260.004L326.582 260.064L326.583 260.72L358.237 260.66L358.235 260.004Z" fill="#0E2E01"/>
<path opacity="0.23" d="M358.241 263.941L326.588 264.001L326.589 264.657L358.243 264.597L358.241 263.941Z" fill="#0E2E01"/>
<path opacity="0.23" d="M358.251 268.244L326.598 268.304L326.599 268.96L358.252 268.9L358.251 268.244Z" fill="#0E2E01"/>
<path d="M346.537 276.529L326.614 276.567L326.616 277.223L346.539 277.185L346.537 276.529Z" fill="#E6E6E7"/>
<path opacity="0.23" d="M346.529 272.602L326.606 272.64L326.607 273.296L346.53 273.258L346.529 272.602Z" fill="#0E2E01"/>
<path d="M358.274 279.968L326.621 280.028L326.622 280.684L358.275 280.624L358.274 279.968Z" fill="#E6E6E7"/>
<path d="M358.282 283.906L326.628 283.966L326.63 284.622L358.283 284.562L358.282 283.906Z" fill="#E6E6E7"/>
<path d="M358.29 288.208L326.637 288.268L326.638 288.924L358.291 288.864L358.29 288.208Z" fill="#E6E6E7"/>
<path d="M359.143 243.183L326.36 243.245L326.38 253.41L359.163 253.348L359.143 243.183Z" fill="#3E8BEF"/>
<path d="M357.955 269.538L348.114 269.556L348.133 279.034L357.973 279.015L357.955 269.538Z" fill="#82AFE9"/>
<path d="M319.598 272.917V269.476C319.598 269.019 319.507 268.567 319.33 268.145C319.153 267.723 318.893 267.339 318.566 267.016C318.239 266.693 317.85 266.437 317.423 266.262C316.995 266.087 316.537 265.997 316.074 265.997H298.78C297.845 265.998 296.95 266.365 296.289 267.017C295.629 267.669 295.258 268.554 295.258 269.476V314.234C295.258 315.156 295.629 316.041 296.29 316.693C296.95 317.345 297.847 317.712 298.781 317.712H358.422C358.885 317.712 359.343 317.622 359.771 317.447C360.198 317.273 360.587 317.016 360.914 316.694C361.241 316.371 361.501 315.987 361.678 315.565C361.855 315.143 361.947 314.691 361.947 314.234V279.874C361.947 279.417 361.855 278.964 361.678 278.542C361.501 278.12 361.241 277.737 360.914 277.414C360.587 277.091 360.198 276.834 359.771 276.66C359.343 276.485 358.885 276.395 358.422 276.395H323.129C322.666 276.396 322.207 276.306 321.779 276.132C321.35 275.958 320.961 275.702 320.633 275.379C320.305 275.056 320.045 274.672 319.867 274.25C319.689 273.827 319.598 273.374 319.598 272.917Z" fill="#82C167"/>
<path d="M299.478 350.752H296.624V360H299.478C302.477 360 303.904 358.058 303.904 355.376C303.904 352.628 302.424 350.752 299.478 350.752ZM299.412 358.917H297.827V351.836H299.412C301.79 351.836 302.675 353.355 302.675 355.35C302.675 357.358 301.79 358.917 299.412 358.917ZM308.516 360.132C310.431 360.132 311.845 358.679 311.845 356.697C311.845 354.729 310.418 353.262 308.516 353.262C306.587 353.262 305.2 354.716 305.2 356.697C305.2 358.652 306.613 360.132 308.516 360.132ZM308.516 359.115C307.221 359.115 306.362 358.005 306.362 356.697C306.362 355.376 307.208 354.28 308.516 354.28C309.81 354.28 310.695 355.376 310.695 356.697C310.695 358.005 309.81 359.115 308.516 359.115ZM316.249 360.132C317.835 360.132 318.997 359.234 319.248 357.847H318.086C317.835 358.613 317.227 359.115 316.249 359.115C314.928 359.115 314.123 358.071 314.123 356.737C314.123 355.35 314.994 354.28 316.236 354.28C317.227 354.28 317.888 354.901 318.059 355.627H319.222C318.984 354.095 317.703 353.262 316.236 353.262C314.334 353.262 312.96 354.729 312.96 356.737C312.96 358.666 314.241 360.132 316.249 360.132ZM326.03 353.395H324.88V357.16C324.88 358.534 324.061 359.115 323.163 359.115C322.304 359.115 321.617 358.56 321.617 357.292V353.395H320.468V357.543C320.468 359.234 321.459 360.132 322.872 360.132C323.903 360.132 324.431 359.696 324.788 359.207H324.88L324.986 360H326.03V353.395ZM327.609 360H328.758V355.944C328.758 354.795 329.538 354.28 330.238 354.28C330.965 354.28 331.572 354.808 331.572 355.891V360H332.735V355.971C332.735 354.967 333.343 354.28 334.214 354.28C334.928 354.28 335.549 354.755 335.549 355.799V360H336.711V355.574C336.711 354.029 335.8 353.262 334.545 353.262C333.422 353.262 332.827 353.857 332.51 354.425H332.431C332.22 353.923 331.718 353.262 330.634 353.262C329.736 353.262 329.194 353.685 328.851 354.187H328.758L328.653 353.395H327.609V360ZM344.164 356.565C344.164 354.359 342.816 353.262 341.218 353.262C339.434 353.262 338.06 354.623 338.06 356.763C338.06 358.798 339.394 360.132 341.27 360.132C342.737 360.132 343.833 359.379 344.124 358.071H343.001C342.776 358.798 342.129 359.181 341.27 359.181C340.042 359.181 339.276 358.283 339.21 356.975H344.137C344.15 356.816 344.164 356.697 344.164 356.565ZM341.218 354.214C342.288 354.214 343.027 354.993 343.041 356.129H339.223C339.342 355.059 340.108 354.214 341.218 354.214ZM345.542 360H346.692V356.235C346.692 354.861 347.511 354.28 348.409 354.28C349.268 354.28 349.955 354.835 349.955 356.103V360H351.104V355.852C351.104 354.161 350.113 353.262 348.7 353.262C347.669 353.262 347.141 353.698 346.784 354.187H346.692L346.586 353.395H345.542V360ZM355.114 360.132C355.524 360.132 355.841 360.053 356.079 359.987V359.075C355.867 359.141 355.629 359.181 355.418 359.181C354.771 359.181 354.586 358.824 354.586 358.349V354.333H356.237V353.395H354.586V351.598H353.529V352.417C353.529 353.13 353.251 353.395 352.472 353.395H352.023V354.333H353.423V358.507C353.423 359.273 353.74 360.132 355.114 360.132ZM359.505 360.132C360.774 360.132 361.844 359.564 361.844 358.269C361.844 356.988 360.853 356.512 359.902 356.248L359.479 356.116C358.832 355.918 358.237 355.733 358.237 355.099C358.237 354.478 358.766 354.174 359.373 354.174C360.087 354.174 360.549 354.57 360.602 355.152H361.725C361.672 354.214 360.945 353.262 359.36 353.262C358.171 353.262 357.128 353.963 357.128 355.152C357.128 356.393 358.145 356.75 358.924 356.975L359.373 357.094C360.034 357.292 360.734 357.569 360.734 358.296C360.734 358.956 360.153 359.221 359.505 359.221C358.739 359.221 358.132 358.903 358.039 357.992H356.916C356.982 359.234 357.814 360.132 359.505 360.132Z" fill="#253545"/>
<g filter="url(#filter1_d_6612_16594)">
<circle cx="51.3141" cy="127.179" r="61.6861" fill="white"/>
</g>
<ellipse cx="51.1905" cy="126.932" rx="46.1412" ry="46.0174" fill="white"/>
<path d="M42.4814 123.844C42.4814 124.589 41.8763 125.192 41.1296 125.192H26.1373L31.5578 137.694C31.8519 138.378 31.534 139.171 30.8478 139.464C30.6742 139.538 30.4937 139.573 30.3161 139.573C29.7916 139.573 29.2925 139.267 29.073 138.756L23.1918 125.192H17.6985C16.9517 125.192 16.3467 124.589 16.3467 123.844C16.3467 123.1 16.9517 122.496 17.6985 122.496H41.1296C41.8763 122.496 42.4814 123.1 42.4814 123.844Z" fill="#865B47"/>
<path d="M31.8689 92.0358C31.5445 94.0472 32.8833 95.9512 34.8899 96.3325C35.7756 96.5007 36.1103 97.5897 35.4712 98.224C34.0233 99.6612 33.9842 101.986 35.3828 103.471C36.0002 104.126 35.6292 105.204 34.7383 105.342C32.72 105.656 31.3179 107.514 31.5746 109.535C31.6878 110.427 30.7527 111.081 29.9503 110.671C28.1324 109.742 25.903 110.423 24.9192 112.209C24.485 112.997 23.3432 112.978 22.9357 112.176C22.0127 110.358 19.8075 109.603 17.9593 110.47C17.1435 110.853 16.231 110.169 16.3741 109.281C16.6985 107.269 15.3597 105.365 13.3531 104.984C12.4674 104.816 12.1327 103.727 12.7718 103.093C14.2197 101.655 14.2588 99.3302 12.8602 97.8455C12.2428 97.1901 12.6138 96.113 13.5047 95.9744C15.523 95.6605 16.9251 93.8024 16.6686 91.7812C16.5554 90.8891 17.4905 90.2352 18.2929 90.6454C20.1108 91.5745 22.3402 90.8932 23.3239 89.1077C23.7581 88.3197 24.9 88.3387 25.3075 89.141C26.2305 90.9585 28.4357 91.714 30.2839 90.8461C31.0996 90.4631 32.0122 91.148 31.8689 92.0358Z" fill="#FFDE91"/>
<path d="M30.7802 100.659C30.7802 104.328 27.7983 107.302 24.12 107.302C20.4417 107.302 17.46 104.328 17.46 100.659C17.46 96.9907 20.4418 94.0168 24.1202 94.0168C27.7985 94.0168 30.7802 96.9907 30.7802 100.659Z" fill="#FFC14F"/>
<path d="M28.1181 100.658C28.1181 102.86 26.3291 104.644 24.1221 104.644C21.915 104.644 20.126 102.86 20.126 100.658C20.126 98.4573 21.915 96.6731 24.1221 96.6731C26.3291 96.6731 28.1181 98.4575 28.1181 100.658Z" fill="#FFA90B"/>
<path d="M73.8621 143.618L66.7221 134.541L60.8384 86.0964H85.0254L88.3851 105.363C90.9028 119.802 85.3372 134.463 73.8621 143.618Z" fill="#387E1B"/>
<path d="M39.4032 161.393C39.2577 161.442 39.1097 161.466 38.9641 161.466C38.4026 161.466 37.8782 161.114 37.6857 160.555L31.8951 143.729L26.3151 160.541C26.1271 161.107 25.5988 161.466 25.032 161.466C24.8912 161.466 24.7481 161.444 24.6071 161.398C23.8983 161.163 23.514 160.401 23.7485 159.694L30.4181 139.599C30.6251 138.975 31.2457 138.603 31.8762 138.686C32.5 138.605 33.1157 138.969 33.3278 139.585L40.2431 159.68C40.4853 160.384 40.1093 161.151 39.4032 161.393Z" fill="#865B47"/>
<path d="M47.2974 86.0964H85.1476L72.5309 141.821H34.6807C39.636 124.155 43.7225 106.259 46.9252 88.1954L47.2974 86.0964Z" fill="#82C167"/>
<path d="M40.3158 141.82H34.6807C39.636 124.155 43.7225 106.259 46.9252 88.1953L47.2974 86.0964H52.9326L52.5604 88.1953C49.3575 106.259 45.2712 124.155 40.3158 141.82Z" fill="#ADDE98"/>
<path d="M74.3324 86.0964L73.9602 88.1954C70.7574 106.259 66.671 124.155 61.7157 141.82V141.821H45.4941C50.4495 124.155 54.5358 106.259 57.7387 88.1956L58.1109 86.0964H74.3324Z" fill="#62A446"/>
<path d="M86.4981 86.0946C86.4981 86.8394 85.8931 87.4428 85.1464 87.4428H47.2961C46.5494 87.4428 45.9443 86.8394 45.9443 86.0946C45.9443 85.3499 46.5494 84.7465 47.2961 84.7465H85.1464C85.8931 84.7465 86.4981 85.3499 86.4981 86.0946Z" fill="#4D8E31"/>
<path d="M68.9273 145.416H23.8675C21.8766 145.416 20.2627 143.806 20.2627 141.821C20.2627 139.835 21.8766 138.226 23.8675 138.226H72.5321L68.9273 145.416Z" fill="#ADDE98"/>
<path d="M33.0202 145.416H23.8675C21.8766 145.416 20.2627 143.806 20.2627 141.821C20.2627 139.835 21.8766 138.226 23.8675 138.226H33.0202C31.0293 138.226 29.4154 139.835 29.4154 141.821C29.4154 143.806 31.0295 145.416 33.0202 145.416Z" fill="#82C167"/>
<path d="M86.9493 122.496H76.9388C76.9197 122.496 76.9006 122.496 76.8817 122.496H52.7038C51.9571 122.496 51.3521 123.1 51.3521 123.845C51.3521 124.589 51.9571 125.193 52.7038 125.193H64.7368L70.1081 140.046L63.587 159.694C63.3524 160.4 63.7368 161.163 64.4457 161.397C64.5867 161.444 64.7298 161.466 64.8705 161.466C65.4376 161.466 65.9657 161.107 66.1537 160.541L71.5931 144.153L77.5244 160.555C77.7167 161.114 78.2414 161.466 78.8028 161.466C78.9485 161.466 79.0964 161.442 79.2419 161.392C79.9481 161.151 80.324 160.384 80.0816 159.68L72.9683 140.009L77.886 125.193H86.9495C87.6962 125.193 88.3013 124.589 88.3013 123.845C88.3013 123.1 87.696 122.496 86.9493 122.496ZM71.4835 135.903L67.6105 125.193H75.038L71.4835 135.903Z" fill="#865B47"/>
<path d="M85.619 156.912C77.1551 166.868 64.5216 173.188 50.4082 173.188C35.3137 173.188 21.9122 165.959 13.4941 154.784C14.8486 153.962 16.3362 153.245 17.9652 152.696C26.4822 149.823 30.3633 154.379 43.1986 155.752C61.8696 157.748 68.1792 149.66 81.7698 155.212C82.7242 155.602 84.1322 156.177 85.619 156.912Z" fill="#FFDE91"/>
<path d="M50.1795 173.187C35.1785 173.115 21.8699 165.903 13.4941 154.784C14.8488 153.962 16.3363 153.245 17.9653 152.696C23.6865 150.766 27.316 152.189 32.9728 153.746C32.139 153.897 31.2677 154.121 30.3418 154.433C30.3256 154.439 30.3092 154.444 30.293 154.45C27.9026 155.262 27.1734 158.279 28.8871 160.129C34.5677 166.261 41.9002 170.848 50.1795 173.187Z" fill="#FFCD71"/>
<path d="M32.5818 161.217C32.5818 162.21 31.7749 163.014 30.7794 163.014C29.784 163.014 28.9771 162.21 28.9771 161.217C28.9771 160.224 29.784 159.419 30.7794 159.419C31.7749 159.419 32.5818 160.224 32.5818 161.217ZM56.3833 164.669C55.3878 164.669 54.5809 165.473 54.5809 166.466C54.5809 167.459 55.3878 168.264 56.3833 168.264C57.3788 168.264 58.1857 167.459 58.1857 166.466C58.1857 165.473 57.3788 164.669 56.3833 164.669ZM71.3246 156.816C70.3291 156.816 69.5222 157.621 69.5222 158.613C69.5222 159.606 70.3291 160.411 71.3246 160.411C72.3201 160.411 73.127 159.606 73.127 158.613C73.127 157.621 72.3199 156.816 71.3246 156.816ZM35.8004 164.669C34.8049 164.669 33.998 165.473 33.998 166.466C33.998 167.459 34.8049 168.264 35.8004 168.264C36.7958 168.264 37.6028 167.459 37.6028 166.466C37.6028 165.473 36.7958 164.669 35.8004 164.669ZM48.1981 158.613C47.2027 158.613 46.3957 159.418 46.3957 160.411C46.3957 161.404 47.2027 162.208 48.1981 162.208C49.1936 162.208 50.0005 161.404 50.0005 160.411C50.0005 159.418 49.1936 158.613 48.1981 158.613Z" fill="#E4AB45"/>
<path d="M32.2222 208.976V200.582H31.0134V210.09H37.1118V208.976H32.2222ZM44.367 206.559C44.367 204.29 42.9816 203.163 41.3382 203.163C39.5046 203.163 38.092 204.562 38.092 206.762C38.092 208.854 39.4638 210.226 41.3925 210.226C42.9001 210.226 44.0274 209.452 44.3262 208.107H43.1717C42.9408 208.854 42.2753 209.248 41.3925 209.248C40.1293 209.248 39.3416 208.324 39.2737 206.98H44.3398C44.3534 206.817 44.367 206.694 44.367 206.559ZM41.3382 204.141C42.4383 204.141 43.1989 204.942 43.2125 206.11H39.2872C39.4095 205.01 40.1972 204.141 41.3382 204.141ZM51.4617 209.166C51.1086 209.166 50.932 209.003 50.932 208.61V205.662C50.932 204.019 49.8455 203.163 48.3243 203.163C46.7623 203.163 45.8116 204.127 45.6757 205.431H46.8574C46.9932 204.698 47.4007 204.141 48.3243 204.141C49.2343 204.141 49.7368 204.711 49.7368 205.635V206.015L47.7131 206.205C46.382 206.341 45.4041 207.007 45.4041 208.284C45.4041 209.615 46.382 210.226 47.6452 210.226C48.6502 210.226 49.4108 209.832 49.8862 209.221C50.0356 209.873 50.4567 210.09 51.095 210.09H51.6383V209.166H51.4617ZM49.7368 207.482C49.7368 208.8 48.7046 209.275 47.8081 209.275C47.1562 209.275 46.5993 209.003 46.5993 208.243C46.5993 207.523 47.2105 207.129 48.0934 207.048L49.7368 206.885V207.482ZM54.6168 210.09H56.0973L58.6779 203.299H57.4419L55.4046 208.854H55.3095L53.2722 203.299H52.0362L54.6168 210.09ZM65.6761 206.559C65.6761 204.29 64.2907 203.163 62.6473 203.163C60.8137 203.163 59.4012 204.562 59.4012 206.762C59.4012 208.854 60.773 210.226 62.7016 210.226C64.2092 210.226 65.3366 209.452 65.6354 208.107H64.4809C64.25 208.854 63.5845 209.248 62.7016 209.248C61.4385 209.248 60.6507 208.324 60.5828 206.98H65.649C65.6625 206.817 65.6761 206.694 65.6761 206.559ZM62.6473 204.141C63.7475 204.141 64.5081 204.942 64.5216 206.11H60.5964C60.7186 205.01 61.5064 204.141 62.6473 204.141ZM69.5112 210.226C70.8151 210.226 71.9152 209.642 71.9152 208.311C71.9152 206.993 70.8966 206.504 69.9186 206.233L69.484 206.097C68.8185 205.893 68.2073 205.703 68.2073 205.051C68.2073 204.413 68.7506 204.1 69.3753 204.1C70.1088 204.1 70.5842 204.508 70.6385 205.105H71.793C71.7386 204.141 70.9916 203.163 69.3618 203.163C68.1394 203.163 67.0664 203.883 67.0664 205.105C67.0664 206.382 68.1122 206.749 68.9136 206.98L69.3753 207.102C70.0545 207.306 70.7743 207.591 70.7743 208.338C70.7743 209.017 70.1767 209.289 69.5112 209.289C68.7234 209.289 68.0986 208.963 68.0035 208.025H66.8491C66.917 209.302 67.7727 210.226 69.5112 210.226Z" fill="#253545"/>
<g filter="url(#filter2_d_6612_16594)">
<circle cx="254" cy="93" r="70" fill="white"/>
</g>
<circle cx="253.86" cy="92.8599" r="52.36" fill="white"/>
<path d="M221.729 80.2791H284.332C285.622 80.2791 286.669 81.3254 286.669 82.6161V115.823C286.669 117.114 285.622 118.161 284.332 118.161H221.729V80.2791Z" fill="#62A446"/>
<path d="M221.729 73.5146H290.42C291.71 73.5146 292.757 74.561 292.757 75.8517V109.059C292.757 110.35 291.71 111.396 290.42 111.396H221.729V73.5146Z" fill="#ADDE98"/>
<circle cx="221.39" cy="73.8521" r="6.42632" fill="#82C167"/>
<rect x="214.964" y="73.5146" width="12.8526" height="38.5579" fill="#82C167"/>
<circle cx="221.39" cy="111.734" r="6.42632" fill="#62A446"/>
<path d="M239.651 104.153V81.8818H241.078V104.153H239.651ZM244.453 88.5633C244.349 87.6817 243.925 86.9973 243.183 86.5101C242.441 86.023 241.53 85.7794 240.451 85.7794C239.663 85.7794 238.972 85.907 238.381 86.1622C237.795 86.4173 237.337 86.7682 237.006 87.2148C236.681 87.6614 236.519 88.1689 236.519 88.7373C236.519 89.2129 236.632 89.6218 236.858 89.964C237.09 90.3004 237.386 90.5817 237.746 90.8079C238.105 91.0283 238.482 91.211 238.877 91.356C239.271 91.4951 239.634 91.6082 239.964 91.6952L241.774 92.1824C242.238 92.3042 242.754 92.4724 243.322 92.687C243.896 92.9016 244.445 93.1945 244.967 93.5657C245.494 93.9311 245.929 94.4009 246.272 94.9751C246.614 95.5493 246.785 96.254 246.785 97.0891C246.785 98.0519 246.533 98.9219 246.028 99.6991C245.529 100.476 244.798 101.094 243.836 101.552C242.879 102.01 241.716 102.239 240.347 102.239C239.071 102.239 237.966 102.034 237.032 101.622C236.104 101.21 235.374 100.636 234.84 99.8992C234.312 99.1626 234.013 98.3071 233.944 97.3327H236.171C236.229 98.0055 236.455 98.5623 236.85 99.0031C237.25 99.4381 237.754 99.7629 238.363 99.9775C238.978 100.186 239.639 100.291 240.347 100.291C241.171 100.291 241.91 100.157 242.565 99.8905C243.221 99.6179 243.74 99.2409 244.123 98.7595C244.505 98.2723 244.697 97.7039 244.697 97.0543C244.697 96.4628 244.532 95.9814 244.201 95.6102C243.87 95.239 243.435 94.9374 242.896 94.7054C242.357 94.4734 241.774 94.2704 241.147 94.0964L238.955 93.47C237.563 93.0698 236.461 92.4985 235.649 91.7561C234.837 91.0138 234.431 90.0423 234.431 88.8417C234.431 87.8441 234.701 86.9741 235.24 86.2318C235.785 85.4836 236.516 84.9036 237.432 84.4918C238.355 84.0742 239.384 83.8654 240.521 83.8654C241.669 83.8654 242.69 84.0713 243.583 84.4831C244.476 84.8891 245.184 85.4459 245.706 86.1535C246.234 86.861 246.512 87.6643 246.541 88.5633H244.453Z" fill="#F0FBEA"/>
<rect x="254.875" y="84.3368" width="29.0876" height="2.02936" fill="#F0FBEA"/>
<rect x="254.875" y="91.7789" width="22.323" height="2.02936" fill="#F0FBEA"/>
<rect x="254.875" y="99.2186" width="27.7346" height="2.02936" fill="#F0FBEA"/>
<path d="M232.562 176.544H228.601V187.333H229.958V183.064H232.455C234.597 183.064 235.953 181.8 235.953 179.781C235.953 177.854 234.628 176.544 232.562 176.544ZM232.331 181.815H229.958V177.793H232.439C233.657 177.793 234.52 178.517 234.52 179.796C234.52 181.045 233.734 181.815 232.331 181.815ZM244.182 186.285C243.781 186.285 243.581 186.1 243.581 185.653V182.309C243.581 180.444 242.348 179.473 240.621 179.473C238.849 179.473 237.77 180.567 237.616 182.047H238.957C239.111 181.214 239.573 180.582 240.621 180.582C241.654 180.582 242.224 181.23 242.224 182.278V182.709L239.928 182.925C238.417 183.079 237.308 183.835 237.308 185.283C237.308 186.794 238.417 187.487 239.851 187.487C240.991 187.487 241.854 187.04 242.394 186.347C242.563 187.087 243.041 187.333 243.766 187.333H244.382V186.285H244.182ZM242.224 184.374C242.224 185.869 241.053 186.408 240.036 186.408C239.296 186.408 238.664 186.1 238.664 185.237C238.664 184.42 239.358 183.973 240.359 183.881L242.224 183.696V184.374ZM246.467 190.57C248.394 190.57 248.918 189.137 249.134 188.535L252.371 179.627H250.968L248.718 185.931H248.61L246.236 179.627H244.834L247.793 187.333H248.255L247.855 188.335C247.516 189.183 246.899 189.476 246.205 189.476C245.959 189.476 245.651 189.429 245.373 189.368V190.4C245.651 190.477 246.005 190.57 246.467 190.57ZM256.212 187.487C257.692 187.487 258.94 186.825 258.94 185.314C258.94 183.819 257.784 183.264 256.675 182.956L256.181 182.802C255.426 182.571 254.733 182.355 254.733 181.615C254.733 180.891 255.349 180.536 256.058 180.536C256.89 180.536 257.43 180.999 257.491 181.677H258.802C258.74 180.582 257.892 179.473 256.043 179.473C254.655 179.473 253.438 180.29 253.438 181.677C253.438 183.126 254.625 183.542 255.534 183.804L256.058 183.942C256.829 184.174 257.646 184.497 257.646 185.345C257.646 186.116 256.967 186.424 256.212 186.424C255.318 186.424 254.609 186.054 254.501 184.991H253.191C253.268 186.439 254.239 187.487 256.212 187.487ZM260.506 187.333H261.846V176.39H260.506V187.333ZM264.367 178.394C264.845 178.394 265.246 177.993 265.246 177.5C265.246 177.007 264.845 176.621 264.367 176.621C263.874 176.621 263.458 177.007 263.458 177.5C263.458 177.993 263.874 178.394 264.367 178.394ZM263.689 187.333H265.03V179.627H263.689V187.333ZM270.68 179.473C269.339 179.473 268.584 180.182 268.198 180.721H268.106L267.983 179.627H266.873V190.416H268.214V186.316C268.599 186.855 269.385 187.487 270.68 187.487C272.714 187.487 274.225 185.946 274.225 183.495C274.225 181.091 272.745 179.473 270.68 179.473ZM270.51 186.301C269.123 186.301 268.214 185.16 268.214 183.495C268.214 181.8 269.123 180.66 270.51 180.66C271.913 180.66 272.884 181.8 272.884 183.495C272.884 185.16 271.913 186.301 270.51 186.301ZM278.55 187.487C280.029 187.487 281.278 186.825 281.278 185.314C281.278 183.819 280.122 183.264 279.012 182.956L278.519 182.802C277.764 182.571 277.07 182.355 277.07 181.615C277.07 180.891 277.687 180.536 278.396 180.536C279.228 180.536 279.767 180.999 279.829 181.677H281.139C281.077 180.582 280.23 179.473 278.38 179.473C276.993 179.473 275.776 180.29 275.776 181.677C275.776 183.126 276.962 183.542 277.872 183.804L278.396 183.942C279.166 184.174 279.983 184.497 279.983 185.345C279.983 186.116 279.305 186.424 278.55 186.424C277.656 186.424 276.947 186.054 276.839 184.991H275.529C275.606 186.439 276.577 187.487 278.55 187.487Z" fill="#253545"/>
<g filter="url(#filter3_d_6612_16594)">
<circle cx="130.299" cy="310.299" r="62.2993" fill="white"/>
</g>
<circle cx="130.423" cy="310.423" r="46.6008" fill="white"/>
<path d="M104.383 339.298V343.065C104.375 344.066 104.769 345.028 105.477 345.736C106.185 346.444 107.148 346.839 108.149 346.831H149.578C151.658 346.831 153.344 345.145 153.344 343.065V317.956L104.383 339.298Z" fill="#4D8E31"/>
<path d="M145.812 330.838V335.533C145.812 337.613 144.126 339.299 142.046 339.299H100.617C98.5373 339.299 96.8511 337.613 96.8511 335.533V277.784C96.8511 275.704 98.5373 274.018 100.617 274.018H142.046C144.126 274.018 145.812 275.704 145.812 277.784V330.838Z" fill="#ADDE98"/>
<path d="M106.894 291.593H103.128V281.55C103.128 280.857 102.566 280.295 101.873 280.295C101.179 280.295 100.617 280.857 100.617 281.55V292.849C100.617 293.542 101.179 294.104 101.873 294.104H106.894C107.588 294.104 108.15 293.542 108.15 292.849C108.15 292.156 107.588 291.593 106.894 291.593Z" fill="#62A446"/>
<path d="M114.426 280.295C111.611 280.295 109.405 283.328 109.405 287.2C109.405 291.071 111.611 294.104 114.426 294.104C117.242 294.104 119.448 291.071 119.448 287.2C119.448 283.328 117.242 280.295 114.426 280.295ZM114.426 291.593C113.239 291.593 111.916 289.789 111.916 287.2C111.916 284.61 113.239 282.806 114.426 282.806C115.614 282.806 116.937 284.611 116.937 287.2C116.937 289.788 115.614 291.593 114.426 291.593Z" fill="#62A446"/>
<path d="M126.917 281.154C126.747 280.638 126.266 280.29 125.724 280.29C125.182 280.29 124.701 280.638 124.532 281.154L120.765 292.452C120.546 293.111 120.903 293.823 121.561 294.042C122.22 294.261 122.931 293.904 123.151 293.246L123.702 291.594H127.749L128.3 293.246C128.442 293.672 128.8 293.99 129.24 294.08C129.68 294.17 130.135 294.019 130.433 293.683C130.731 293.348 130.827 292.878 130.686 292.452L126.917 281.154ZM124.538 289.083L125.725 285.52L126.913 289.083H124.538Z" fill="#62A446"/>
<path d="M140.79 280.295C140.097 280.295 139.535 280.857 139.535 281.55V288.004L135.61 280.94C135.333 280.44 134.752 280.191 134.198 280.335C133.644 280.479 133.258 280.978 133.258 281.55V292.849C133.258 293.542 133.82 294.104 134.513 294.104C135.207 294.104 135.769 293.542 135.769 292.849V286.395L139.693 293.459C139.915 293.858 140.335 294.104 140.79 294.104C140.897 294.105 141.003 294.091 141.105 294.064C141.659 293.921 142.046 293.421 142.046 292.849V281.55C142.046 280.857 141.484 280.295 140.79 280.295Z" fill="#62A446"/>
<path d="M118.193 302.893H101.873C101.179 302.893 100.617 302.331 100.617 301.638C100.617 300.944 101.179 300.382 101.873 300.382H118.193C118.886 300.382 119.448 300.944 119.448 301.638C119.448 302.331 118.886 302.893 118.193 302.893Z" fill="#F1FDEB"/>
<path d="M118.193 309.17H101.873C101.179 309.17 100.617 308.608 100.617 307.915C100.617 307.221 101.179 306.659 101.873 306.659H118.193C118.886 306.659 119.448 307.221 119.448 307.915C119.448 308.608 118.886 309.17 118.193 309.17Z" fill="#F1FDEB"/>
<path d="M118.193 315.447H101.873C101.179 315.447 100.617 314.885 100.617 314.192C100.617 313.498 101.179 312.936 101.873 312.936H118.193C118.886 312.936 119.448 313.498 119.448 314.192C119.448 314.885 118.886 315.447 118.193 315.447Z" fill="#F1FDEB"/>
<path d="M136.195 302.893H124.47C123.776 302.893 123.214 302.331 123.214 301.638C123.214 300.945 123.776 300.382 124.47 300.382H136.195C136.889 300.382 137.451 300.945 137.451 301.638C137.451 302.331 136.889 302.893 136.195 302.893Z" fill="#F1FDEB"/>
<path d="M129.341 309.17H124.47C123.776 309.17 123.214 308.608 123.214 307.915C123.214 307.221 123.776 306.659 124.47 306.659H129.341C130.034 306.659 130.596 307.221 130.596 307.915C130.596 308.608 130.034 309.17 129.341 309.17Z" fill="#F1FDEB"/>
<path d="M129.579 315.447H124.47C123.776 315.447 123.214 314.885 123.214 314.192C123.214 313.498 123.776 312.936 124.47 312.936H129.579C130.273 312.936 130.835 313.498 130.835 314.192C130.835 314.885 130.273 315.447 129.579 315.447Z" fill="#F1FDEB"/>
<path d="M118.193 321.726H101.873C101.179 321.726 100.617 321.164 100.617 320.47C100.617 319.777 101.179 319.215 101.873 319.215H118.193C118.886 319.215 119.448 319.777 119.448 320.47C119.448 321.164 118.886 321.726 118.193 321.726Z" fill="#F1FDEB"/>
<path d="M131.839 321.726H124.47C123.776 321.726 123.214 321.164 123.214 320.47C123.214 319.777 123.776 319.215 124.47 319.215H131.839C132.532 319.215 133.094 319.777 133.094 320.47C133.094 321.164 132.532 321.726 131.839 321.726Z" fill="#F1FDEB"/>
<path d="M113.832 333.149C113.671 333.149 113.512 333.137 113.353 333.112C112.188 332.939 111.234 332.095 110.919 330.96L110.697 330.185C110.646 329.981 110.468 329.833 110.257 329.821C110.047 329.79 109.841 329.904 109.755 330.099C109.248 331.123 108.204 331.77 107.061 331.769H103.128C102.435 331.769 101.873 331.206 101.873 330.513C101.873 329.82 102.435 329.258 103.128 329.258H107.061C107.253 329.259 107.429 329.15 107.514 328.978C108.069 327.863 109.252 327.204 110.491 327.32C111.731 327.435 112.772 328.301 113.111 329.499L113.332 330.273C113.384 330.465 113.543 330.608 113.739 330.639C113.935 330.669 114.131 330.582 114.238 330.415L115.682 328.253C116.24 327.412 117.183 326.906 118.193 326.906C119.203 326.906 120.145 327.412 120.704 328.253L121.227 329.038C121.321 329.176 121.478 329.259 121.645 329.258H125.725C126.419 329.258 126.981 329.82 126.981 330.513C126.981 331.206 126.419 331.769 125.725 331.769H121.645C120.636 331.77 119.694 331.266 119.134 330.426L118.612 329.641C118.52 329.499 118.361 329.413 118.192 329.413C118.022 329.413 117.864 329.499 117.771 329.641L116.326 331.807C115.774 332.647 114.836 333.151 113.832 333.149Z" fill="#F1FDEB"/>
<path d="M137.69 331.768H130.747C130.054 331.768 129.492 331.206 129.492 330.513C129.492 329.82 130.054 329.258 130.747 329.258H137.69C138.383 329.258 138.945 329.82 138.945 330.513C138.945 331.206 138.383 331.768 137.69 331.768Z" fill="#F1FDEB"/>
<path d="M168.817 287.184L159.848 304.024L152.089 302.894L146.553 296.943L157.122 277.108C157.502 276.393 158.203 275.906 159.006 275.799C159.808 275.691 160.612 275.977 161.167 276.567L168.43 284.282C169.167 285.066 169.324 286.233 168.817 287.184Z" fill="#0D6AE3"/>
<path d="M159.848 304.023C156.948 309.472 156.081 318.963 155.943 321.85C155.913 322.333 155.511 322.708 155.027 322.704C148.248 322.842 142.485 326.633 139.121 329.546C138.832 329.797 138.556 330.035 138.305 330.274C138.016 330.534 137.596 330.586 137.253 330.403C136.91 330.221 136.718 329.843 136.773 329.458C136.823 329.094 136.886 328.717 136.936 328.316C137.464 323.884 137.388 317.029 133.735 311.355C133.463 310.957 133.552 310.416 133.936 310.125C136.258 308.392 143.653 302.391 146.553 296.943L159.848 304.023Z" fill="#F6CB79"/>
<path d="M149.579 314.191C149.579 316.271 147.893 317.957 145.813 317.957C145.61 317.955 145.408 317.934 145.21 317.894C145.201 317.968 145.179 318.041 145.147 318.108L139.121 329.545C138.832 329.796 138.556 330.034 138.305 330.273C138.017 330.533 137.596 330.585 137.253 330.402C136.91 330.219 136.718 329.841 136.774 329.457C136.824 329.093 136.887 328.716 136.937 328.314L142.938 316.928C142.973 316.865 143.02 316.81 143.076 316.765C141.912 315.534 141.713 313.679 142.589 312.229C143.465 310.78 145.2 310.094 146.83 310.551C148.46 311.009 149.585 312.498 149.579 314.191Z" fill="#EDA418"/>
<path d="M114.211 392.78V384.303H112.99V393.905H119.149V392.78H114.211ZM123.582 394.042C125.571 394.042 127.039 392.534 127.039 390.476C127.039 388.432 125.558 386.91 123.582 386.91C121.58 386.91 120.139 388.418 120.139 390.476C120.139 392.506 121.607 394.042 123.582 394.042ZM123.582 392.986C122.238 392.986 121.346 391.834 121.346 390.476C121.346 389.104 122.224 387.966 123.582 387.966C124.927 387.966 125.846 389.104 125.846 390.476C125.846 391.834 124.927 392.986 123.582 392.986ZM134.178 392.973C133.821 392.973 133.643 392.808 133.643 392.41V389.433C133.643 387.774 132.545 386.91 131.009 386.91C129.432 386.91 128.471 387.883 128.334 389.2H129.528C129.665 388.46 130.076 387.897 131.009 387.897C131.928 387.897 132.436 388.473 132.436 389.406V389.79L130.392 389.982C129.048 390.119 128.06 390.791 128.06 392.081C128.06 393.425 129.048 394.042 130.323 394.042C131.338 394.042 132.107 393.645 132.587 393.027C132.738 393.686 133.163 393.905 133.807 393.905H134.356V392.973H134.178ZM132.436 391.272C132.436 392.602 131.393 393.082 130.488 393.082C129.829 393.082 129.267 392.808 129.267 392.04C129.267 391.313 129.884 390.915 130.776 390.833L132.436 390.668V391.272ZM135.43 393.905H136.624V389.996C136.624 388.569 137.474 387.966 138.407 387.966C139.298 387.966 140.012 388.542 140.012 389.859V393.905H141.205V389.598C141.205 387.842 140.176 386.91 138.709 386.91C137.639 386.91 137.09 387.362 136.72 387.87H136.624L136.514 387.047H135.43V393.905ZM145.287 394.042C146.603 394.042 147.715 393.453 147.715 392.108C147.715 390.778 146.686 390.284 145.698 390.01L145.259 389.872C144.587 389.667 143.97 389.475 143.97 388.816C143.97 388.171 144.518 387.856 145.149 387.856C145.89 387.856 146.37 388.268 146.425 388.871H147.591C147.536 387.897 146.782 386.91 145.136 386.91C143.901 386.91 142.817 387.637 142.817 388.871C142.817 390.16 143.874 390.531 144.683 390.764L145.149 390.887C145.835 391.093 146.562 391.381 146.562 392.136C146.562 392.822 145.959 393.096 145.287 393.096C144.491 393.096 143.86 392.767 143.764 391.82H142.598C142.667 393.11 143.531 394.042 145.287 394.042Z" fill="#253545"/>
</g>
<defs>
<filter id="filter0_d_6612_16594" x="257" y="210" width="146" height="146" filterUnits="userSpaceOnUse" color-interpolation-filters="sRGB">
<feFlood flood-opacity="0" result="BackgroundImageFix"/>
<feColorMatrix in="SourceAlpha" type="matrix" values="0 0 0 0 0 0 0 0 0 0 0 0 0 0 0 0 0 0 127 0" result="hardAlpha"/>
<feMorphology radius="2" operator="dilate" in="SourceAlpha" result="effect1_dropShadow_6612_16594"/>
<feOffset dy="4"/>
<feGaussianBlur stdDeviation="5.5"/>
<feComposite in2="hardAlpha" operator="out"/>
<feColorMatrix type="matrix" values="0 0 0 0 0.666875 0 0 0 0 0.649792 0 0 0 0 0.649792 0 0 0 0.12 0"/>
<feBlend mode="normal" in2="BackgroundImageFix" result="effect1_dropShadow_6612_16594"/>
<feBlend mode="normal" in="SourceGraphic" in2="effect1_dropShadow_6612_16594" result="shape"/>
</filter>
<filter id="filter1_d_6612_16594" x="-23.7374" y="56.24" width="150.103" height="150.103" filterUnits="userSpaceOnUse" color-interpolation-filters="sRGB">
<feFlood flood-opacity="0" result="BackgroundImageFix"/>
<feColorMatrix in="SourceAlpha" type="matrix" values="0 0 0 0 0 0 0 0 0 0 0 0 0 0 0 0 0 0 127 0" result="hardAlpha"/>
<feMorphology radius="2.0562" operator="dilate" in="SourceAlpha" result="effect1_dropShadow_6612_16594"/>
<feOffset dy="4.11241"/>
<feGaussianBlur stdDeviation="5.65456"/>
<feComposite in2="hardAlpha" operator="out"/>
<feColorMatrix type="matrix" values="0 0 0 0 0.666875 0 0 0 0 0.649792 0 0 0 0 0.649792 0 0 0 0.12 0"/>
<feBlend mode="normal" in2="BackgroundImageFix" result="effect1_dropShadow_6612_16594"/>
<feBlend mode="normal" in="SourceGraphic" in2="effect1_dropShadow_6612_16594" result="shape"/>
</filter>
<filter id="filter2_d_6612_16594" x="168.833" y="12.5" width="170.333" height="170.333" filterUnits="userSpaceOnUse" color-interpolation-filters="sRGB">
<feFlood flood-opacity="0" result="BackgroundImageFix"/>
<feColorMatrix in="SourceAlpha" type="matrix" values="0 0 0 0 0 0 0 0 0 0 0 0 0 0 0 0 0 0 127 0" result="hardAlpha"/>
<feMorphology radius="2.33333" operator="dilate" in="SourceAlpha" result="effect1_dropShadow_6612_16594"/>
<feOffset dy="4.66667"/>
<feGaussianBlur stdDeviation="6.41667"/>
<feComposite in2="hardAlpha" operator="out"/>
<feColorMatrix type="matrix" values="0 0 0 0 0.666875 0 0 0 0 0.649792 0 0 0 0 0.649792 0 0 0 0.12 0"/>
<feBlend mode="normal" in2="BackgroundImageFix" result="effect1_dropShadow_6612_16594"/>
<feBlend mode="normal" in="SourceGraphic" in2="effect1_dropShadow_6612_16594" result="shape"/>
</filter>
<filter id="filter3_d_6612_16594" x="54.5018" y="238.655" width="151.595" height="151.595" filterUnits="userSpaceOnUse" color-interpolation-filters="sRGB">
<feFlood flood-opacity="0" result="BackgroundImageFix"/>
<feColorMatrix in="SourceAlpha" type="matrix" values="0 0 0 0 0 0 0 0 0 0 0 0 0 0 0 0 0 0 127 0" result="hardAlpha"/>
<feMorphology radius="2.07664" operator="dilate" in="SourceAlpha" result="effect1_dropShadow_6612_16594"/>
<feOffset dy="4.15329"/>
<feGaussianBlur stdDeviation="5.71077"/>
<feComposite in2="hardAlpha" operator="out"/>
<feColorMatrix type="matrix" values="0 0 0 0 0.666875 0 0 0 0 0.649792 0 0 0 0 0.649792 0 0 0 0.12 0"/>
<feBlend mode="normal" in2="BackgroundImageFix" result="effect1_dropShadow_6612_16594"/>
<feBlend mode="normal" in="SourceGraphic" in2="effect1_dropShadow_6612_16594" result="shape"/>
</filter>
<radialGradient id="paint0_radial_6612_16594" cx="0" cy="0" r="1" gradientUnits="userSpaceOnUse" gradientTransform="translate(-1.5001 315.5) rotate(-34.0248) scale(545.973 1195.3)">
<stop offset="0.22091" stop-color="#FBCD69"/>
<stop offset="1" stop-color="#0D6AE3"/>
</radialGradient>
<clipPath id="clip0_6612_16594">
<rect width="390" height="327" fill="white"/>
</clipPath>
<clipPath id="clip1_6612_16594">
<rect width="390" height="374" fill="white" transform="translate(0 23)"/>
</clipPath>
</defs>
</svg>
