<svg width="190" height="190" viewBox="0 0 190 190" fill="none" xmlns="http://www.w3.org/2000/svg">
<circle cx="95" cy="95" r="95" fill="#ADDE98"/>
<circle cx="95" cy="95" r="80" fill="#D6F1CA"/>
<g clip-path="url(#clip0_583_14256)">
<path d="M137.196 73.853L84.6961 126.353C84.3914 126.658 84.0295 126.9 83.6311 127.065C83.2328 127.23 82.8058 127.315 82.3746 127.315C81.9434 127.315 81.5164 127.23 81.1181 127.065C80.7198 126.9 80.3579 126.658 80.0531 126.353L57.0844 103.384C56.4687 102.769 56.1228 101.933 56.1228 101.063C56.1228 100.192 56.4687 99.3569 57.0844 98.7413C57.7001 98.1256 58.5352 97.7797 59.4059 97.7797C60.2766 97.7797 61.1117 98.1256 61.7274 98.7413L82.3746 119.393L132.553 69.21C133.169 68.5943 134.004 68.2484 134.875 68.2484C135.745 68.2484 136.58 68.5943 137.196 69.21C137.812 69.8257 138.158 70.6608 138.158 71.5315C138.158 72.4022 137.812 73.2373 137.196 73.853Z" fill="#62A446"/>
</g>
<defs>
<clipPath id="clip0_583_14256">
<rect width="105" height="105" fill="white" transform="translate(43 42)"/>
</clipPath>
</defs>
</svg>
