<svg width="57" height="56" viewBox="0 0 57 56" fill="none" xmlns="http://www.w3.org/2000/svg">
<circle cx="28.0146" cy="28" r="28" fill="#F0FBEA"/>
<g clip-path="url(#clip0_5994_16574)">
<path d="M10.0341 26.3416C10.4878 16.4034 18.2382 9.5676 28.1764 10.0213C38.1146 10.475 46.4504 18.5887 45.9966 28.5317C45.5429 38.4748 37.1046 46.4798 27.1725 46.0285C17.2403 45.5773 9.58034 36.2786 10.0341 26.3416Z" fill="#62A446"/>
<g style="mix-blend-mode:overlay" opacity="0.5">
<path d="M40.4303 15.1793L40.3217 15.0791C40.0016 15.4649 39.726 15.8854 39.4999 16.3328C38.9919 17.3718 38.9376 18.4952 39.3563 19.3375C39.5419 19.6902 39.7957 20.0024 40.1032 20.256C40.4106 20.5096 40.7655 20.6994 41.1471 20.8144C41.5399 20.9371 41.9494 20.9982 42.361 20.9954C42.7403 20.9939 43.1183 20.9502 43.488 20.8651C43.7966 20.7998 44.0901 20.677 44.3532 20.5031L44.2941 20.3764C44.0414 20.5454 43.7582 20.6635 43.4603 20.7239C42.715 20.9103 41.9336 20.8945 41.1965 20.6781C40.8329 20.569 40.4947 20.3888 40.2013 20.1479C39.908 19.907 39.6655 19.6102 39.4879 19.2747C39.0957 18.4699 39.1428 17.3959 39.6315 16.3944C39.8512 15.9606 40.1192 15.553 40.4303 15.1793Z" fill="white"/>
<path d="M41.509 16.2828C41.474 16.243 41.4378 16.2043 41.4016 16.1621C41.2526 16.4477 41.1488 16.7546 41.0939 17.0719C40.9925 17.7272 41.2363 18.5489 41.8951 18.8518C42.0729 18.9321 42.2659 18.9732 42.4611 18.9725C42.7487 18.9683 43.0315 18.8981 43.2876 18.7673L43.3673 18.7251L43.2876 18.6044L43.2225 18.6394C42.7784 18.859 42.3175 18.8904 41.9567 18.7239C41.3666 18.4463 41.147 17.6982 41.2435 17.0973C41.291 16.8141 41.3805 16.5396 41.509 16.2828Z" fill="white"/>
<path d="M38.59 14.7053C38.4525 15.5729 37.7369 16.2908 36.9236 16.3741C36.9059 16.3771 36.8898 16.3865 36.8785 16.4006C36.8672 16.4146 36.8615 16.4323 36.8624 16.4503C36.8633 16.4683 36.8707 16.4854 36.8834 16.4982C36.896 16.5111 36.9129 16.5189 36.9309 16.5201H36.9393C37.8154 16.4296 38.5876 15.6598 38.7348 14.7282C38.7855 14.3954 38.767 14.0557 38.6805 13.7303L38.4923 13.5879C38.6147 13.947 38.6482 14.3304 38.59 14.7053Z" fill="white"/>
<path d="M44.8744 27.6928C44.8647 27.6928 44.8551 27.6947 44.8462 27.6984C44.8373 27.7021 44.8292 27.7075 44.8223 27.7143C44.8155 27.7212 44.8101 27.7293 44.8064 27.7382C44.8027 27.7471 44.8008 27.7567 44.8008 27.7664C44.8011 27.7858 44.8089 27.8043 44.8227 27.8181C44.8364 27.8318 44.855 27.8397 44.8744 27.84C45.273 27.8338 45.6637 27.728 46.0111 27.5323V27.3682C45.6675 27.5749 45.2753 27.6869 44.8744 27.6928Z" fill="white"/>
<path d="M42.6866 22.408C42.6704 22.4166 42.6581 22.431 42.6519 22.4482C42.6458 22.4655 42.6463 22.4845 42.6534 22.5014C42.6605 22.5182 42.6737 22.5319 42.6903 22.5396C42.7069 22.5473 42.7258 22.5486 42.7433 22.5431C43.4989 22.2243 44.341 22.1745 45.1289 22.4019C45.1096 22.3452 45.0891 22.2885 45.0698 22.233C44.2777 22.0281 43.4402 22.0896 42.6866 22.408Z" fill="white"/>
<path d="M16.9277 13.4272H16.9844C18.0125 13.4139 19.2445 12.912 19.6789 11.8235C19.7131 11.736 19.7421 11.6466 19.7658 11.5557L19.5908 11.6353C19.5764 11.68 19.5607 11.7246 19.5426 11.768C19.1335 12.7949 17.9618 13.2679 16.982 13.2812C16.9193 13.2812 16.8613 13.2812 16.7926 13.2812L16.6104 13.4139C16.7153 13.4212 16.8215 13.4272 16.9277 13.4272Z" fill="white"/>
<path d="M41.007 36.0876C40.988 36.0917 40.9713 36.1031 40.9607 36.1193C40.9501 36.1356 40.9463 36.1554 40.9503 36.1745C40.9546 36.1933 40.9661 36.2098 40.9823 36.2203C40.9985 36.2309 41.0181 36.2348 41.0371 36.2312C41.2371 36.1945 41.4433 36.2133 41.6333 36.2857C41.8233 36.358 41.9898 36.4811 42.1147 36.6415C42.2374 36.8059 42.3189 36.9973 42.3525 37.1996C42.3861 37.402 42.3708 37.6095 42.3078 37.8047C42.2408 38.0003 42.135 38.1803 41.9967 38.334C41.8584 38.4876 41.6904 38.6117 41.5029 38.6988C41.2197 38.8388 40.8962 38.8743 40.5895 38.799C40.4405 38.761 40.3028 38.6879 40.1878 38.5859C40.0728 38.4839 39.9838 38.3559 39.9282 38.2126C39.925 38.2034 39.9199 38.1951 39.9135 38.1879C39.907 38.1807 39.8991 38.1749 39.8904 38.1707C39.8816 38.1666 39.8722 38.1642 39.8625 38.1637C39.8529 38.1632 39.8432 38.1647 39.8341 38.1679C39.825 38.1712 39.8166 38.1762 39.8094 38.1827C39.8022 38.1891 39.7964 38.197 39.7923 38.2057C39.7881 38.2145 39.7857 38.2239 39.7852 38.2336C39.7848 38.2433 39.7862 38.2529 39.7894 38.262C39.8533 38.4275 39.9557 38.5753 40.0881 38.6932C40.2205 38.8112 40.3791 38.8958 40.5508 38.9402C40.6636 38.9714 40.7802 38.9868 40.8972 38.986C41.1283 38.9843 41.3561 38.9316 41.5645 38.8316C41.7705 38.7361 41.955 38.5998 42.1068 38.431C42.2586 38.2622 42.3746 38.0643 42.4477 37.8493C42.5191 37.6308 42.5368 37.3983 42.4994 37.1715C42.462 36.9447 42.3706 36.7302 42.233 36.5461C42.0901 36.3648 41.9003 36.2262 41.6841 36.1453C41.4679 36.0645 41.2337 36.0445 41.007 36.0876Z" fill="white"/>
<path d="M43.2345 27.1597C43.215 27.1597 43.1963 27.1675 43.1825 27.1813C43.1686 27.1951 43.1609 27.2138 43.1609 27.2333C43.1609 27.2529 43.1686 27.2716 43.1825 27.2854C43.1963 27.2992 43.215 27.3069 43.2345 27.3069C43.5855 27.2972 43.9288 27.2019 44.2346 27.0293C44.5404 26.8567 44.7994 26.612 44.9891 26.3166C45.1788 26.0211 45.2935 25.6838 45.3232 25.3339C45.3529 24.984 45.2968 24.6322 45.1596 24.309C45.0224 23.9858 44.8084 23.7009 44.5361 23.4792C44.2638 23.2576 43.9415 23.1057 43.5971 23.0369C43.2528 22.9681 42.8969 22.9844 42.5603 23.0845C42.2237 23.1845 41.9167 23.3652 41.6658 23.6109C41.658 23.6174 41.6517 23.6255 41.6471 23.6345C41.6426 23.6436 41.64 23.6535 41.6395 23.6637C41.639 23.6738 41.6406 23.6839 41.6442 23.6934C41.6478 23.7029 41.6533 23.7116 41.6604 23.7188C41.6675 23.7261 41.676 23.7318 41.6854 23.7356C41.6948 23.7394 41.7049 23.7412 41.715 23.741C41.7252 23.7407 41.7351 23.7383 41.7443 23.734C41.7535 23.7297 41.7617 23.7235 41.7684 23.7159C42.002 23.4872 42.2879 23.3189 42.6013 23.2257C42.9147 23.1326 43.246 23.1173 43.5667 23.1812C43.8873 23.2451 44.1875 23.3863 44.4412 23.5925C44.6949 23.7987 44.8944 24.0637 45.0225 24.3646C45.1505 24.6654 45.2032 24.9929 45.176 25.3187C45.1488 25.6445 45.0426 25.9587 44.8664 26.2341C44.6902 26.5096 44.4495 26.7378 44.1651 26.8991C43.8807 27.0604 43.5613 27.1499 43.2345 27.1597Z" fill="white"/>
<path d="M26.7645 12.6539C27.0722 12.7298 27.3876 12.7703 27.7045 12.7746C27.9752 12.7773 28.2448 12.7399 28.5045 12.6636C29.523 12.3583 30.2554 11.288 30.2265 10.2309L30.0793 10.208C30.1215 11.2108 29.4289 12.2328 28.4623 12.5236C27.9893 12.666 27.4294 12.6636 26.7983 12.5152C25.5102 12.1975 24.3798 11.4264 23.6139 10.3432L23.4558 10.3757C24.2443 11.5129 25.4209 12.323 26.7645 12.6539Z" fill="white"/>
<path d="M37.3096 40.7693C36.8076 40.6583 36.0643 40.5919 35.3789 40.9021C34.381 41.3521 33.7559 42.5745 33.9309 43.7474C33.991 44.1382 34.1227 44.5146 34.3194 44.8575L34.4558 44.8032C34.2633 44.4713 34.1347 44.1062 34.0769 43.7269C33.9164 42.6167 34.5053 41.4595 35.4453 41.036C36.0981 40.7428 36.8076 40.8067 37.2879 40.9153C38.0294 41.0819 38.7161 41.4354 39.2825 41.9422L39.3959 41.8469C38.8052 41.3136 38.0864 40.9424 37.3096 40.7693Z" fill="white"/>
<path d="M12.247 22.8417C12.5223 22.8417 12.7974 22.8272 13.0712 22.7982C13.507 22.7683 13.9318 22.6483 14.3189 22.4459C14.5169 22.34 14.688 22.1901 14.819 22.0076C14.95 21.8252 15.0373 21.6152 15.0743 21.3937C15.1226 20.9942 14.9645 20.5574 14.6037 20.0965C13.9843 19.3245 13.1268 18.7793 12.165 18.5459C12.1397 18.5905 12.1155 18.6352 12.0914 18.6798C13.0368 18.8996 13.8811 19.4303 14.4891 20.187C14.8245 20.6166 14.9717 21.016 14.9295 21.3756C14.8948 21.5745 14.8151 21.763 14.6965 21.9265C14.5779 22.09 14.4236 22.2243 14.2453 22.3192C13.8759 22.5111 13.4708 22.6245 13.0555 22.6522C12.2353 22.7395 11.4064 22.6931 10.6011 22.5147C10.5875 22.5621 10.5754 22.6092 10.5649 22.6558C11.1172 22.7786 11.6813 22.8409 12.247 22.8417Z" fill="white"/>
<path d="M45.1144 30.6333C44.9081 30.8115 44.7418 31.0312 44.6262 31.278C44.5107 31.5248 44.4484 31.7933 44.4437 32.0658C44.4389 32.3383 44.4916 32.6087 44.5985 32.8595C44.7053 33.1102 44.8638 33.3356 45.0637 33.5209C45.0818 33.469 45.0987 33.4171 45.1156 33.3652C44.9409 33.1916 44.8041 32.9836 44.7137 32.7545C44.6232 32.5254 44.5812 32.2801 44.5901 32.0339C44.5991 31.7878 44.6588 31.5462 44.7657 31.3242C44.8725 31.1023 45.0241 30.9049 45.2109 30.7443C45.3862 30.5965 45.5924 30.4897 45.8143 30.4318C45.8227 30.3811 45.83 30.3292 45.8372 30.2773C45.5708 30.3353 45.3227 30.4575 45.1144 30.6333Z" fill="white"/>
<path d="M24.2535 45.3552C23.7937 43.8553 22.283 42.7379 20.5779 42.6378C19.8166 42.6008 19.0567 42.7365 18.3552 43.0348L18.5024 43.1337C19.158 42.8689 19.8633 42.7495 20.5695 42.7838C22.1876 42.8791 23.6791 43.9784 24.1135 45.3987C24.1352 45.4687 24.1545 45.5411 24.1714 45.6135L24.3283 45.6497C24.3126 45.5507 24.2885 45.4518 24.2535 45.3552Z" fill="white"/>
<path d="M37.5487 42.4773C37.2724 42.336 36.9573 42.2895 36.6519 42.3451C36.3466 42.4008 36.0681 42.5553 35.8594 42.785C35.6852 42.9914 35.5676 43.2395 35.5183 43.505C35.469 43.7705 35.4897 44.0443 35.5782 44.2994L35.7109 44.2355C35.634 44.0068 35.6173 43.7622 35.6625 43.5252C35.7078 43.2883 35.8134 43.067 35.9692 42.8828C36.1564 42.6806 36.404 42.5445 36.675 42.4947C36.946 42.4449 37.2258 42.4841 37.4727 42.6065C37.6341 42.6967 37.7705 42.8257 37.8697 42.9817L37.9903 42.8997C37.8802 42.7247 37.7285 42.5796 37.5487 42.4773Z" fill="white"/>
<path d="M11.4529 20.0597C11.55 20.232 11.5956 20.4285 11.5843 20.6259C11.5729 20.8234 11.5052 21.0134 11.389 21.1734C11.2481 21.348 11.0695 21.4883 10.8665 21.5837C10.846 21.6465 10.8267 21.7116 10.8074 21.7756C11.0792 21.6629 11.3194 21.4856 11.5072 21.2591C11.6401 21.0763 11.7179 20.8593 11.7313 20.6337C11.7448 20.4081 11.6934 20.1834 11.5833 19.9861C11.5609 19.9495 11.5368 19.914 11.5109 19.8799C11.4867 19.933 11.465 19.9861 11.4421 20.0392C11.4461 20.0458 11.4497 20.0526 11.4529 20.0597Z" fill="white"/>
<path d="M13.6638 35.594C14.5193 35.045 15.1118 34.3077 15.3386 33.5161C15.6065 32.5725 15.3048 31.5469 14.605 31.0244C14.1476 30.6817 13.5781 30.5707 13.1328 30.5127C12.2012 30.395 11.2563 30.4412 10.3406 30.6491C10.3502 30.6974 10.3587 30.7456 10.3683 30.7939C11.2688 30.5882 12.1984 30.5424 13.1147 30.6587C13.5419 30.7142 14.0873 30.8192 14.5181 31.1414C15.1697 31.6241 15.4484 32.5894 15.1975 33.4763C14.9815 34.2329 14.4095 34.9412 13.5853 35.471C13.1649 35.7321 12.7204 35.9523 12.258 36.1286L12.328 36.2589C12.7937 36.0809 13.241 35.8583 13.6638 35.594Z" fill="white"/>
<path d="M20.3787 43.6228C20.0892 43.6363 19.8023 43.6849 19.5244 43.7676L19.7078 43.8714C19.9289 43.8142 20.1554 43.7802 20.3836 43.77C20.7874 43.749 21.1911 43.815 21.5673 43.9634C21.9434 44.1118 22.2833 44.3393 22.564 44.6304C22.7419 44.8253 22.8848 45.0494 22.9864 45.2929C23.0455 45.3122 23.107 45.3315 23.165 45.3484C23.056 45.0464 22.8887 44.7689 22.6726 44.5315C22.3774 44.225 22.0199 43.9853 21.6242 43.8285C21.2285 43.6718 20.8038 43.6017 20.3787 43.6228Z" fill="white"/>
<path d="M12.5064 34.2538C12.599 33.8771 12.5782 33.4813 12.4466 33.1163C12.315 32.7514 12.0784 32.4334 11.7667 32.2025C11.4305 31.9694 11.0264 31.8548 10.6179 31.8767C10.63 31.9237 10.6433 31.972 10.6553 32.0203C11.021 32.0075 11.3809 32.1138 11.681 32.3231C11.9682 32.539 12.1859 32.8343 12.3072 33.1724C12.4286 33.5106 12.4483 33.8768 12.364 34.2261C12.2664 34.5902 12.0627 34.917 11.7787 35.1649C11.7993 35.2107 11.821 35.2566 11.8427 35.3024C12.1669 35.0298 12.3987 34.6635 12.5064 34.2538Z" fill="white"/>
<path d="M18.3975 38.9844C18.4025 38.9756 18.4056 38.9658 18.4067 38.9558C18.4077 38.9457 18.4067 38.9355 18.4036 38.9259C18.4006 38.9162 18.3955 38.9073 18.3889 38.8997C18.3822 38.8921 18.3741 38.8859 18.3649 38.8816C18.3558 38.8773 18.3458 38.8749 18.3357 38.8746C18.3256 38.8742 18.3155 38.876 18.3061 38.8798C18.2967 38.8835 18.2882 38.8892 18.2811 38.8964C18.274 38.9036 18.2684 38.9122 18.2648 38.9216C18.0234 39.4321 17.5963 40.0873 16.9097 40.3093C16.6958 40.3787 16.4695 40.4015 16.246 40.3763C16.0226 40.351 15.8071 40.2781 15.6142 40.1627C15.4212 40.0472 15.2552 39.8918 15.1272 39.7068C14.9993 39.5219 14.9124 39.3117 14.8725 39.0904C14.8325 38.8691 14.8404 38.6418 14.8955 38.4238C14.9507 38.2058 15.0518 38.0021 15.1922 37.8265C15.3326 37.6508 15.509 37.5072 15.7095 37.4053C15.91 37.3035 16.1299 37.2457 16.3546 37.2359C16.365 37.2366 16.3754 37.2351 16.3851 37.2315C16.3949 37.2279 16.4038 37.2223 16.4112 37.215C16.4186 37.2077 16.4244 37.199 16.4282 37.1893C16.432 37.1796 16.4337 37.1692 16.4332 37.1588C16.4327 37.1484 16.4299 37.1383 16.4252 37.129C16.4205 37.1198 16.4139 37.1116 16.4058 37.1051C16.3976 37.0986 16.3883 37.0939 16.3782 37.0912C16.3681 37.0886 16.3576 37.0882 16.3474 37.0899C15.9032 37.1183 15.4873 37.3177 15.187 37.6462C14.8867 37.9747 14.7254 38.4069 14.7369 38.8518C14.7485 39.2968 14.932 39.7199 15.2489 40.0324C15.5659 40.3449 15.9916 40.5225 16.4367 40.5277C16.6124 40.528 16.7871 40.5007 16.9543 40.4469C17.6916 40.2104 18.1453 39.5214 18.3975 38.9844Z" fill="white"/>
<path d="M18.4614 42.1202C19.2722 41.9124 19.9764 41.4099 20.4367 40.7108C20.442 40.7027 20.4456 40.6936 20.4473 40.6841C20.449 40.6746 20.4488 40.6648 20.4467 40.6553C20.4445 40.6459 20.4405 40.6369 20.4349 40.6291C20.4292 40.6212 20.422 40.6145 20.4138 40.6095C20.3972 40.5994 20.3774 40.5962 20.3585 40.6005C20.3396 40.6048 20.323 40.6162 20.3124 40.6324C19.8715 41.3003 19.1972 41.7797 18.4215 41.9766C17.9946 42.0879 17.5524 42.1287 17.1123 42.0973L17.303 42.2518H17.3898C17.7512 42.2546 18.1114 42.2104 18.4614 42.1202Z" fill="white"/>
<path d="M13.724 37.888C13.9846 37.0204 14.5687 36.1987 15.4206 35.5C15.428 35.4938 15.4342 35.4862 15.4387 35.4777C15.4432 35.4691 15.446 35.4598 15.4469 35.4501C15.4478 35.4405 15.4468 35.4308 15.4439 35.4215C15.4411 35.4123 15.4364 35.4037 15.4302 35.3962C15.4243 35.3887 15.4168 35.3824 15.4084 35.3778C15.3999 35.3732 15.3906 35.3704 15.381 35.3695C15.3714 35.3686 15.3617 35.3696 15.3526 35.3725C15.3434 35.3755 15.3349 35.3803 15.3277 35.3866C14.4564 36.0997 13.8531 36.9553 13.584 37.8458C13.5508 37.9553 13.5235 38.0665 13.502 38.1788C13.5406 38.2368 13.5792 38.2935 13.6226 38.3502C13.6457 38.194 13.6795 38.0395 13.724 37.888Z" fill="white"/>
<path d="M35.7928 16.0324C35.7791 16.0462 35.7714 16.0648 35.7714 16.0843C35.7714 16.1037 35.7791 16.1224 35.7928 16.1362C35.8067 16.1496 35.8253 16.1571 35.8447 16.1571C35.864 16.1571 35.8826 16.1496 35.8966 16.1362C36.2631 15.8324 36.5526 15.4462 36.7413 15.0091C36.8356 14.786 36.8809 14.5453 36.874 14.3031C36.8672 14.061 36.8083 13.8232 36.7014 13.6058C36.4541 13.1484 35.9352 12.8818 35.4694 12.9819C35.0857 13.0604 34.7454 13.3693 34.5584 13.8073C34.3931 14.1922 34.3593 14.6085 34.3267 15.014C34.325 15.0333 34.331 15.0525 34.3435 15.0674C34.3559 15.0824 34.3737 15.0918 34.3931 15.0936C34.4027 15.0944 34.4125 15.0933 34.4217 15.0904C34.431 15.0874 34.4395 15.0827 34.4469 15.0764C34.4543 15.0701 34.4604 15.0624 34.4649 15.0538C34.4693 15.0451 34.4719 15.0357 34.4727 15.026C34.5053 14.6351 34.5379 14.2308 34.6935 13.8676C34.8613 13.4742 35.1617 13.1979 35.4984 13.1291C35.8954 13.0483 36.3587 13.2848 36.5723 13.6794C36.669 13.8778 36.722 14.0947 36.7276 14.3154C36.7333 14.5361 36.6914 14.7554 36.6049 14.9585C36.4232 15.3758 36.1449 15.7439 35.7928 16.0324Z" fill="white"/>
<path d="M26.5135 45.6654C25.7047 44.9885 25.1422 44.0633 24.9135 43.0337C24.9089 43.0148 24.8971 42.9984 24.8807 42.9881C24.8642 42.9777 24.8444 42.9742 24.8254 42.9782C24.816 42.9802 24.8071 42.984 24.7992 42.9895C24.7913 42.9949 24.7846 43.0019 24.7795 43.01C24.7743 43.0181 24.7708 43.0271 24.7691 43.0366C24.7675 43.046 24.7677 43.0557 24.7699 43.065C25.0074 44.1271 25.5895 45.0808 26.4254 45.7777C26.5183 45.8549 26.6149 45.9285 26.7138 45.9997C26.8116 46.0069 26.9093 46.0118 27.0071 46.0166C26.8353 45.91 26.6705 45.7928 26.5135 45.6654Z" fill="white"/>
<path d="M41.3725 33.8405C41.3565 33.8293 41.3367 33.8249 41.3174 33.8283C41.2982 33.8317 41.2811 33.8426 41.2699 33.8586C41.2587 33.8746 41.2543 33.8944 41.2577 33.9136C41.2611 33.9328 41.272 33.9499 41.288 33.9611C41.8998 34.3907 42.5321 34.8336 43.0618 35.3729C43.361 35.6726 43.619 36.0106 43.8293 36.3781L43.9101 36.2224C43.7015 35.8764 43.4519 35.5567 43.1668 35.2704C42.6274 34.7201 41.9915 34.2725 41.3725 33.8405Z" fill="white"/>
<path d="M13.2945 23.9458C13.2933 23.9265 13.2845 23.9085 13.27 23.8956C13.2556 23.8827 13.2366 23.8761 13.2173 23.877C12.3087 23.9301 11.0453 24.1823 10.1342 25.0705L10.1089 25.3118C10.1366 25.2804 10.1644 25.249 10.1934 25.2201C11.0742 24.3296 12.328 24.0798 13.2257 24.0267C13.2356 24.0261 13.2453 24.0235 13.2542 24.0191C13.263 24.0146 13.2709 24.0085 13.2773 24.0009C13.2838 23.9934 13.2886 23.9846 13.2915 23.9751C13.2945 23.9657 13.2955 23.9557 13.2945 23.9458Z" fill="white"/>
<path d="M43.2151 32.3287C43.0063 31.233 43.3599 30.1349 44.1177 29.5328C44.6389 29.1177 45.2881 28.9572 45.9747 28.9089C45.9747 28.8607 45.9808 28.8112 45.9832 28.7617C45.2592 28.8088 44.5798 28.9765 44.0259 29.4181C43.2259 30.0541 42.8519 31.2077 43.0703 32.3564C43.2392 33.2385 43.7267 34.1085 44.5183 34.9423C44.54 34.8928 44.5617 34.8434 44.5822 34.7927C43.8377 33.9939 43.3756 33.1673 43.2151 32.3287Z" fill="white"/>
<path d="M32.4517 44.9611C32.7799 44.2298 32.9187 43.3598 32.8776 42.3064C32.8773 42.2968 32.8751 42.2873 32.8711 42.2786C32.8671 42.2698 32.8614 42.262 32.8543 42.2555C32.8472 42.2489 32.8389 42.2439 32.8299 42.2406C32.8208 42.2374 32.8112 42.2359 32.8016 42.2364C32.7919 42.2367 32.7824 42.2389 32.7736 42.2429C32.7648 42.2469 32.7569 42.2526 32.7503 42.2597C32.7436 42.2667 32.7385 42.275 32.7351 42.2841C32.7317 42.2931 32.7301 42.3028 32.7304 42.3124C32.7714 43.3466 32.6363 44.1936 32.3177 44.9044C32.2074 45.1502 32.0694 45.3826 31.9062 45.597L32.1235 45.5475C32.2499 45.3621 32.3597 45.1659 32.4517 44.9611Z" fill="white"/>
<path d="M40.9793 40.3366C40.654 40.3006 40.3396 40.1987 40.0549 40.0374C39.378 39.6404 39.0136 38.8403 39.2103 38.1779C39.213 38.1687 39.2139 38.159 39.2129 38.1495C39.212 38.1399 39.2091 38.1307 39.2045 38.1223C39.1999 38.1139 39.1936 38.1064 39.1861 38.1004C39.1786 38.0944 39.17 38.09 39.1608 38.0874C39.1516 38.0844 39.1419 38.0834 39.1323 38.0843C39.1227 38.0852 39.1134 38.0881 39.1049 38.0927C39.0965 38.0973 39.089 38.1036 39.0831 38.1112C39.0771 38.1188 39.0728 38.1275 39.0703 38.1368C38.8555 38.8609 39.2477 39.7333 39.9813 40.1641C40.2512 40.3186 40.5474 40.4217 40.855 40.4681L40.9793 40.3366Z" fill="white"/>
<path d="M12.1372 29.5766C12.8049 29.5577 13.4666 29.4452 14.1029 29.2423C14.1139 29.2393 14.1241 29.2337 14.1325 29.2259C14.1409 29.2182 14.1474 29.2086 14.1514 29.1979C14.1554 29.1872 14.1568 29.1757 14.1555 29.1643C14.1542 29.1529 14.1502 29.1421 14.1439 29.1325L13.7409 28.4966C13.7358 28.4883 13.7292 28.4812 13.7213 28.4755C13.7134 28.4699 13.7045 28.4658 13.6951 28.4637C13.6856 28.4616 13.6758 28.4613 13.6663 28.4631C13.6567 28.4648 13.6476 28.4684 13.6395 28.4737C13.6231 28.4841 13.6114 28.5006 13.6071 28.5196C13.6028 28.5386 13.6062 28.5585 13.6166 28.575L13.9677 29.1277C13.2775 29.3232 12.4739 29.4994 11.6618 29.4016C11.0775 29.3418 10.5255 29.1048 10.0798 28.7223C10.0798 28.7922 10.0919 28.861 10.0979 28.9298C10.5471 29.2731 11.0817 29.4868 11.6437 29.5476C11.8074 29.5674 11.9723 29.5771 12.1372 29.5766Z" fill="white"/>
<path d="M31.3354 43.1117C31.3264 43.1152 31.3181 43.1204 31.3111 43.127C31.3041 43.1337 31.2984 43.1417 31.2945 43.1506C31.2906 43.1594 31.2884 43.169 31.2882 43.1787C31.288 43.1883 31.2897 43.198 31.2932 43.207C31.5743 43.9383 31.257 44.8553 30.5692 45.2958C30.2239 45.5028 29.8258 45.6048 29.4236 45.5891C29.0213 45.5735 28.6323 45.4409 28.3042 45.2077C27.9812 44.9648 27.7234 44.6457 27.5537 44.2789C27.384 43.9122 27.3077 43.5091 27.3316 43.1056C27.3323 43.096 27.331 43.0864 27.3279 43.0773C27.3248 43.0682 27.3199 43.0598 27.3135 43.0526C27.3071 43.0454 27.2993 43.0395 27.2906 43.0354C27.2819 43.0312 27.2725 43.0289 27.2629 43.0284C27.2435 43.0274 27.2246 43.0341 27.2101 43.047C27.1957 43.0598 27.1869 43.0779 27.1856 43.0972C27.1604 43.5254 27.2417 43.9532 27.4221 44.3423C27.6026 44.7314 27.8766 45.0698 28.2198 45.3271C28.6014 45.5951 29.0566 45.7384 29.523 45.7374C29.921 45.7411 30.3117 45.6306 30.6488 45.4188C31.3897 44.9422 31.7348 43.9479 31.4283 43.1539C31.4213 43.1362 31.4077 43.1219 31.3904 43.1141C31.373 43.1062 31.3533 43.1053 31.3354 43.1117Z" fill="white"/>
<path d="M31.2632 12.1182C31.1078 12.8042 31.1374 13.5192 31.3488 14.19C31.3535 14.205 31.3627 14.2181 31.3753 14.2275C31.3879 14.2368 31.4032 14.2419 31.4188 14.2419C31.426 14.2431 31.4334 14.2431 31.4406 14.2419C31.4591 14.2361 31.4746 14.2232 31.4839 14.2061C31.4931 14.189 31.4953 14.1689 31.49 14.1502C31.2856 13.5046 31.2564 12.8162 31.4056 12.1556C31.5438 11.5752 31.8659 11.055 32.3238 10.6726L32.1537 10.6279C31.7131 11.0233 31.4026 11.5429 31.2632 12.1182Z" fill="white"/>
<path d="M12.4557 25.2031C12.4654 25.2041 12.4752 25.2031 12.4844 25.2001C12.4937 25.1971 12.5022 25.1922 12.5095 25.1857C12.5168 25.1792 12.5226 25.1713 12.5266 25.1625C12.5307 25.1536 12.5328 25.144 12.5329 25.1343C12.5339 25.115 12.5273 25.096 12.5144 25.0816C12.5015 25.0671 12.4835 25.0583 12.4641 25.0571C11.7232 25.0172 11.0632 25.2537 10.6469 25.7038C10.157 26.2324 10.087 27.0493 10.4876 27.5633C10.63 27.7281 10.8039 27.8626 10.9991 27.959C11.1944 28.0554 11.407 28.1116 11.6243 28.1244C11.71 28.1329 11.7956 28.1377 11.8813 28.1377C12.2172 28.1263 12.5515 28.0859 12.8805 28.017C12.8899 28.0154 12.899 28.012 12.9071 28.0068C12.9152 28.0017 12.9222 27.995 12.9277 27.9872C12.9332 27.9793 12.9371 27.9704 12.9391 27.9611C12.9412 27.9517 12.9413 27.942 12.9396 27.9326C12.936 27.9135 12.9253 27.8966 12.9095 27.8854C12.8938 27.8741 12.8743 27.8694 12.8551 27.8722C12.4562 27.9613 12.0469 27.9954 11.6388 27.9736C11.4411 27.9629 11.2477 27.9127 11.0698 27.8258C10.892 27.739 10.7334 27.6173 10.6035 27.468C10.2559 27.0215 10.3187 26.2722 10.7543 25.8064C11.1356 25.3889 11.7739 25.1645 12.4557 25.2031Z" fill="white"/>
<path d="M32.1356 14.6388C32.1452 14.6398 32.1549 14.6388 32.1641 14.636C32.1734 14.6332 32.182 14.6286 32.1894 14.6224C32.1968 14.6162 32.2029 14.6086 32.2074 14.6C32.2118 14.5914 32.2145 14.582 32.2152 14.5724C32.2852 13.7494 32.5434 12.6417 33.376 12.0203C33.7978 11.7265 34.2928 11.5557 34.806 11.5267L34.5272 11.4121C34.0808 11.4729 33.6559 11.6415 33.2892 11.9032C32.4119 12.5524 32.1416 13.706 32.068 14.5579C32.067 14.5677 32.068 14.5776 32.0709 14.5869C32.0737 14.5963 32.0785 14.605 32.0848 14.6126C32.0911 14.6201 32.0988 14.6263 32.1075 14.6308C32.1163 14.6353 32.1258 14.638 32.1356 14.6388Z" fill="white"/>
<path d="M22.8669 12.256C23.9135 13.0595 25.194 13.4989 26.5135 13.5074C26.5312 13.5051 26.5475 13.4964 26.5594 13.483C26.5712 13.4695 26.5777 13.4522 26.5777 13.4343C26.5777 13.4165 26.5712 13.3992 26.5594 13.3857C26.5475 13.3723 26.5312 13.3636 26.5135 13.3613C25.2261 13.3519 23.9769 12.9232 22.955 12.1402C22.4738 11.7677 22.0533 11.3227 21.7085 10.8213L21.5613 10.8671C21.92 11.3965 22.3607 11.8653 22.8669 12.256Z" fill="white"/>
<path d="M14.9921 19.2597C15.2806 19.261 15.5669 19.2095 15.8368 19.1076C15.855 19.1006 15.8697 19.0866 15.8776 19.0687C15.8856 19.0508 15.8861 19.0305 15.879 19.0123C15.872 18.9941 15.858 18.9794 15.8401 18.9714C15.8222 18.9635 15.8019 18.963 15.7837 18.9701C15.3393 19.1315 14.8568 19.1564 14.3982 19.0416C13.9396 18.9268 13.5257 18.6775 13.2099 18.3257C13.0123 18.0926 12.8645 17.8216 12.7754 17.5293C12.7429 17.5812 12.7079 17.6331 12.6753 17.685C12.7701 17.954 12.9132 18.2034 13.0976 18.421C13.3361 18.6869 13.6282 18.8992 13.9548 19.0438C14.2814 19.1883 14.635 19.2619 14.9921 19.2597Z" fill="white"/>
<path d="M16.0819 14.4167C16.7943 14.591 17.418 15.0203 17.8352 15.6234C17.8406 15.6314 17.8474 15.6382 17.8555 15.6435C17.8635 15.6488 17.8724 15.6525 17.8819 15.6543C17.8913 15.6561 17.901 15.656 17.9104 15.654C17.9198 15.652 17.9287 15.6482 17.9366 15.6427C17.9446 15.6372 17.9515 15.6303 17.9568 15.6221C17.9621 15.614 17.9658 15.605 17.9676 15.5954C17.9694 15.5859 17.9693 15.5761 17.9673 15.5666C17.9653 15.5571 17.9614 15.5481 17.9559 15.5401C17.518 14.9073 16.8633 14.457 16.1157 14.2743C15.9594 14.2379 15.8004 14.2141 15.6403 14.2031C15.5884 14.249 15.5365 14.2948 15.4858 14.3419C15.6866 14.3463 15.8863 14.3713 16.0819 14.4167Z" fill="white"/>
<path d="M15.8489 15.2722C16.3533 15.3265 16.8276 15.5377 17.2861 15.7428C17.3039 15.7505 17.324 15.7509 17.342 15.7439C17.3601 15.7369 17.3747 15.7231 17.3826 15.7054C17.3866 15.6966 17.3888 15.6871 17.3891 15.6775C17.3894 15.6679 17.3877 15.6583 17.3842 15.6493C17.3807 15.6403 17.3755 15.6321 17.3688 15.6251C17.3621 15.6182 17.3541 15.6127 17.3452 15.6089C16.877 15.3989 16.3919 15.1829 15.8646 15.1262C15.2721 15.0622 14.7183 15.2384 14.3877 15.598C13.9665 16.0553 13.905 16.8276 14.2537 17.4358C14.5409 17.9414 15.0827 18.3432 15.7657 18.5664C15.7729 18.5676 15.7802 18.5676 15.7874 18.5664C15.803 18.5666 15.8182 18.5618 15.8308 18.5527C15.8434 18.5435 15.8527 18.5306 15.8574 18.5157C15.8604 18.5066 15.8616 18.4969 15.8608 18.4872C15.8601 18.4776 15.8575 18.4682 15.8531 18.4595C15.8487 18.4509 15.8427 18.4432 15.8354 18.4369C15.828 18.4306 15.8195 18.4258 15.8103 18.4228C15.1575 18.2153 14.6507 17.8424 14.3816 17.3598C14.0691 16.8059 14.1161 16.1048 14.495 15.6933C14.7955 15.3724 15.3011 15.2131 15.8489 15.2722Z" fill="white"/>
</g>
<path d="M11.9853 24.1178C13.7555 15.2487 21.6677 10.1662 30.5416 11.94C39.4155 13.7138 45.7952 22.1606 44.0214 31.0345C42.2476 39.9084 33.5583 45.9514 24.6844 44.1776C15.8105 42.4038 10.2115 32.9953 11.9853 24.1178Z" fill="#FFB552"/>
<path d="M13.332 22.3568C16.1146 14.178 24.2331 10.3516 32.4108 13.1366C40.5884 15.9216 45.5793 24.7074 42.7967 32.8863C40.0141 41.0651 31.0376 45.706 22.8587 42.9234C14.6799 40.1408 10.5494 30.5357 13.332 22.3568Z" fill="white"/>
<path d="M41.2676 27.9645C41.212 25.6531 40.5459 23.3976 39.3369 21.4268L27.9941 28.0381L41.2676 27.9645Z" fill="#FFB552"/>
<path d="M27.9943 14.6138C27.9653 14.614 27.9366 14.6084 27.9098 14.5975C27.8831 14.5865 27.8587 14.5704 27.8382 14.5499C27.8177 14.5295 27.8014 14.5053 27.7903 14.4785C27.7792 14.4518 27.7734 14.4232 27.7734 14.3942V13.0307C27.7776 12.9751 27.8025 12.9231 27.8434 12.8852C27.8842 12.8473 27.9379 12.8262 27.9937 12.8262C28.0494 12.8262 28.1031 12.8473 28.1439 12.8852C28.1848 12.9231 28.2098 12.9751 28.2139 13.0307V14.3942C28.214 14.4231 28.2085 14.4517 28.1975 14.4785C28.1865 14.5052 28.1703 14.5294 28.1499 14.5499C28.1295 14.5703 28.1052 14.5865 28.0785 14.5975C28.0518 14.6084 28.0231 14.614 27.9943 14.6138Z" fill="#62A446"/>
<path d="M21.1983 16.4502C21.1597 16.4502 21.1218 16.44 21.0884 16.4208C21.0549 16.4015 21.0271 16.3738 21.0077 16.3404L20.3271 15.1603C20.3126 15.1353 20.3032 15.1078 20.2993 15.0792C20.2955 15.0505 20.2973 15.0215 20.3047 14.9936C20.3121 14.9657 20.3249 14.9395 20.3424 14.9165C20.3599 14.8936 20.3818 14.8743 20.4067 14.8598C20.4317 14.8453 20.4593 14.8359 20.4879 14.832C20.5165 14.8282 20.5456 14.83 20.5735 14.8374C20.6014 14.8448 20.6275 14.8576 20.6505 14.8751C20.6734 14.8926 20.6927 14.9145 20.7072 14.9395L21.389 16.1208C21.4036 16.1458 21.4131 16.1734 21.417 16.2021C21.4208 16.2308 21.419 16.26 21.4114 16.288C21.4039 16.3159 21.3909 16.3421 21.3732 16.365C21.3554 16.3879 21.3333 16.407 21.3081 16.4213C21.2746 16.4402 21.2368 16.4502 21.1983 16.4502Z" fill="#62A446"/>
<path d="M16.2365 21.4353C16.198 21.4352 16.1602 21.4252 16.1267 21.4064L14.9466 20.7246C14.9194 20.7113 14.8953 20.6925 14.8757 20.6694C14.8561 20.6463 14.8415 20.6195 14.8327 20.5905C14.824 20.5616 14.8212 20.5311 14.8247 20.5011C14.8282 20.471 14.8378 20.442 14.853 20.4158C14.8681 20.3896 14.8885 20.3669 14.9129 20.3489C14.9372 20.3309 14.965 20.3181 14.9944 20.3113C15.0239 20.3045 15.0545 20.3038 15.0842 20.3093C15.114 20.3149 15.1423 20.3264 15.1674 20.3433L16.3475 21.0251C16.3897 21.0492 16.4227 21.0866 16.4413 21.1315C16.46 21.1764 16.4632 21.2262 16.4505 21.2731C16.4378 21.32 16.4099 21.3614 16.3712 21.3908C16.3325 21.4201 16.2851 21.4358 16.2365 21.4353Z" fill="#62A446"/>
<path d="M14.4325 28.234H13.0701C13.0399 28.2363 13.0094 28.2322 12.9808 28.2222C12.9521 28.2121 12.9258 28.1963 12.9036 28.1756C12.8813 28.1549 12.8636 28.1299 12.8514 28.1021C12.8393 28.0742 12.833 28.0442 12.833 28.0138C12.833 27.9834 12.8393 27.9534 12.8514 27.9255C12.8636 27.8977 12.8813 27.8726 12.9036 27.852C12.9258 27.8313 12.9521 27.8155 12.9808 27.8054C13.0094 27.7954 13.0399 27.7913 13.0701 27.7936H14.4325C14.4881 27.7977 14.54 27.8227 14.578 27.8635C14.6159 27.9044 14.637 27.958 14.637 28.0138C14.637 28.0695 14.6159 28.1232 14.578 28.1641C14.54 28.2049 14.4881 28.2299 14.4325 28.234Z" fill="#62A446"/>
<path d="M15.0888 35.7019C15.0402 35.7024 14.9929 35.6867 14.9541 35.6573C14.9154 35.6279 14.8875 35.5866 14.8748 35.5397C14.8621 35.4927 14.8653 35.443 14.884 35.3981C14.9026 35.3532 14.9356 35.3158 14.9778 35.2916L16.1592 34.6159C16.1841 34.6013 16.2118 34.5917 16.2405 34.5879C16.2692 34.584 16.2983 34.5859 16.3263 34.5934C16.3543 34.601 16.3804 34.614 16.4033 34.6317C16.4262 34.6494 16.4454 34.6715 16.4596 34.6967C16.4885 34.7474 16.4962 34.8073 16.4811 34.8636C16.466 34.9199 16.4292 34.9679 16.3788 34.9972L15.2035 35.6742C15.1686 35.6939 15.1289 35.7035 15.0888 35.7019Z" fill="#62A446"/>
<path d="M20.572 41.1649C20.5336 41.1647 20.4958 41.1548 20.4622 41.1359C20.4118 41.1067 20.375 41.0587 20.3599 41.0024C20.3447 40.9461 20.3525 40.8861 20.3814 40.8355L21.0631 39.6541C21.0944 39.6077 21.1421 39.5749 21.1967 39.5623C21.2512 39.5497 21.3085 39.5583 21.357 39.5864C21.4054 39.6144 21.4414 39.6598 21.4576 39.7134C21.4739 39.767 21.4692 39.8247 21.4444 39.875L20.7627 41.0551C20.7435 41.0886 20.7157 41.1165 20.6822 41.1358C20.6487 41.1551 20.6107 41.1651 20.572 41.1649Z" fill="#62A446"/>
<path d="M28.0509 43.1519C27.9928 43.1516 27.9371 43.1284 27.896 43.0873C27.8549 43.0461 27.8316 42.9905 27.8313 42.9323V41.5688C27.8354 41.5132 27.8604 41.4612 27.9013 41.4233C27.9421 41.3853 27.9958 41.3643 28.0515 41.3643C28.1073 41.3643 28.1609 41.3853 28.2018 41.4233C28.2426 41.4612 28.2676 41.5132 28.2717 41.5688V42.9323C28.2714 42.9907 28.248 43.0465 28.2066 43.0877C28.1653 43.1288 28.1093 43.1519 28.0509 43.1519Z" fill="#62A446"/>
<path d="M35.5226 41.1317C35.484 41.1318 35.446 41.1217 35.4126 41.1024C35.3791 41.0831 35.3513 41.0554 35.332 41.0219L34.6502 39.8406C34.6211 39.79 34.6132 39.7299 34.6284 39.6736C34.6436 39.6172 34.6805 39.5692 34.7311 39.5401C34.7816 39.511 34.8417 39.5031 34.898 39.5183C34.9544 39.5335 35.0024 39.5704 35.0315 39.621L35.7133 40.8011C35.7423 40.8519 35.75 40.9121 35.7349 40.9685C35.7197 41.025 35.6829 41.0732 35.6324 41.1028C35.5989 41.1216 35.5611 41.1315 35.5226 41.1317Z" fill="#62A446"/>
<path d="M40.983 35.6487C40.9444 35.6493 40.9064 35.6393 40.8732 35.6198L39.6991 34.938C39.674 34.9236 39.6521 34.9044 39.6345 34.8815C39.6169 34.8586 39.6039 34.8324 39.5964 34.8045C39.5889 34.7766 39.587 34.7475 39.5907 34.7189C39.5945 34.6902 39.6038 34.6626 39.6182 34.6376C39.6326 34.6125 39.6519 34.5906 39.6748 34.5729C39.6977 34.5553 39.7238 34.5424 39.7517 34.5349C39.7796 34.5274 39.8087 34.5255 39.8374 34.5292C39.866 34.5329 39.8937 34.5423 39.9187 34.5567L41.0988 35.2385C41.1409 35.2625 41.1739 35.2999 41.1925 35.3446C41.2112 35.3894 41.2145 35.4391 41.202 35.4859C41.1894 35.5328 41.1617 35.5741 41.1232 35.6036C41.0847 35.633 41.0375 35.6489 40.989 35.6487H40.983Z" fill="#62A446"/>
<path d="M42.9704 28.1699H41.6069C41.5513 28.1658 41.4993 28.1408 41.4614 28.1C41.4234 28.0591 41.4023 28.0055 41.4023 27.9497C41.4023 27.894 41.4234 27.8403 41.4614 27.7994C41.4993 27.7586 41.5513 27.7336 41.6069 27.7295H42.9704C43.026 27.7336 43.078 27.7586 43.1159 27.7994C43.1538 27.8403 43.1749 27.894 43.1749 27.9497C43.1749 28.0055 43.1538 28.0591 43.1159 28.1C43.078 28.1408 43.026 28.1658 42.9704 28.1699Z" fill="#62A446"/>
<path d="M39.7714 21.3809C39.723 21.3808 39.6759 21.3648 39.6374 21.3353C39.599 21.3057 39.5713 21.2644 39.5586 21.2176C39.546 21.1708 39.5491 21.1211 39.5675 21.0763C39.5859 21.0314 39.6186 20.9939 39.6604 20.9694L40.8406 20.2876C40.8657 20.2707 40.894 20.2592 40.9237 20.2537C40.9535 20.2482 40.984 20.2488 41.0135 20.2556C41.043 20.2624 41.0708 20.2752 41.0951 20.2932C41.1194 20.3112 41.1398 20.334 41.155 20.3602C41.1701 20.3863 41.1798 20.4154 41.1832 20.4454C41.1867 20.4755 41.184 20.5059 41.1752 20.5349C41.1664 20.5638 41.1518 20.5907 41.1322 20.6137C41.1126 20.6368 41.0885 20.6556 41.0614 20.669L39.8813 21.3507C39.848 21.3704 39.8101 21.3808 39.7714 21.3809Z" fill="#62A446"/>
<path d="M34.7854 16.4188C34.7468 16.4188 34.7088 16.4083 34.6756 16.3887C34.6252 16.3594 34.5884 16.3114 34.5733 16.2551C34.5581 16.1988 34.5658 16.1388 34.5947 16.0882L35.2765 14.9081C35.2909 14.883 35.3101 14.8611 35.333 14.8435C35.356 14.8258 35.3821 14.8129 35.41 14.8054C35.4379 14.7979 35.467 14.796 35.4957 14.7997C35.5243 14.8034 35.5519 14.8128 35.577 14.8272C35.602 14.8416 35.624 14.8608 35.6416 14.8837C35.6592 14.9067 35.6721 14.9328 35.6796 14.9607C35.6871 14.9886 35.6891 15.0177 35.6853 15.0464C35.6816 15.075 35.6722 15.1026 35.6578 15.1277L34.9761 16.309C34.9567 16.3425 34.9289 16.3702 34.8955 16.3895C34.862 16.4088 34.824 16.4189 34.7854 16.4188Z" fill="#62A446"/>
<path d="M36.9356 28.2582H27.9941C27.9652 28.2584 27.9365 28.2528 27.9097 28.2418C27.8829 28.2309 27.8586 28.2147 27.8381 28.1943C27.8175 28.1739 27.8013 28.1496 27.7901 28.1229C27.779 28.0962 27.7733 28.0675 27.7733 28.0386V18.5408C27.7711 18.5106 27.7751 18.4801 27.7851 18.4515C27.7952 18.4228 27.811 18.3965 27.8317 18.3743C27.8524 18.352 27.8774 18.3343 27.9053 18.3221C27.9331 18.31 27.9632 18.3037 27.9935 18.3037C28.0239 18.3037 28.0539 18.31 28.0818 18.3221C28.1096 18.3343 28.1347 18.352 28.1553 18.3743C28.176 18.3965 28.1919 18.4228 28.2019 18.4515C28.212 18.4801 28.216 18.5106 28.2137 18.5408V27.819H36.9356C36.9939 27.819 37.0497 27.8421 37.0909 27.8833C37.1321 27.9245 37.1552 27.9804 37.1552 28.0386C37.1552 28.0968 37.1321 28.1527 37.0909 28.1939C37.0497 28.2351 36.9939 28.2582 36.9356 28.2582Z" fill="#62A446"/>
<path d="M28.0195 28.8685C28.5093 28.8685 28.9064 28.4715 28.9064 27.9816C28.9064 27.4918 28.5093 27.0947 28.0195 27.0947C27.5297 27.0947 27.1326 27.4918 27.1326 27.9816C27.1326 28.4715 27.5297 28.8685 28.0195 28.8685Z" fill="#62A446"/>
<path d="M40.6378 26.9471C40.6231 26.9343 40.6039 26.9279 40.5844 26.9292C40.565 26.9306 40.5469 26.9396 40.5341 26.9543L40.0888 27.4611C40.023 25.6868 39.5015 23.9593 38.5744 22.445C38.5625 22.4337 38.5473 22.4268 38.531 22.4252C38.5147 22.4236 38.4984 22.4274 38.4846 22.4361C38.4707 22.4448 38.4602 22.4579 38.4546 22.4733C38.449 22.4886 38.4487 22.5054 38.4537 22.521C39.3673 24.0149 39.8817 25.7185 39.9476 27.4684L39.4649 26.9579C39.4582 26.951 39.4501 26.9455 39.4412 26.9417C39.4323 26.938 39.4227 26.936 39.413 26.936C39.4034 26.936 39.3938 26.938 39.3849 26.9417C39.376 26.9455 39.3679 26.951 39.3612 26.9579C39.3541 26.9646 39.3484 26.9726 39.3446 26.9816C39.3407 26.9905 39.3387 27.0001 39.3387 27.0098C39.3387 27.0195 39.3407 27.0292 39.3446 27.0381C39.3484 27.047 39.3541 27.055 39.3612 27.0617L39.979 27.7097C39.993 27.724 40.012 27.7323 40.0321 27.7326C40.0422 27.7325 40.0522 27.7302 40.0614 27.7258C40.0706 27.7214 40.0787 27.7151 40.0852 27.7073L40.6535 27.0593C40.661 27.0514 40.6666 27.0419 40.67 27.0315C40.6733 27.0212 40.6742 27.0102 40.6727 26.9994C40.6712 26.9886 40.6673 26.9783 40.6613 26.9692C40.6552 26.9602 40.6472 26.9526 40.6378 26.9471Z" fill="#D6F1CA"/>
</g>
<defs>
<clipPath id="clip0_5994_16574">
<rect width="36" height="36.0459" fill="white" transform="translate(10.0146 10)"/>
</clipPath>
</defs>
</svg>
