<svg width="140" height="140" viewBox="0 0 140 140" fill="none" xmlns="http://www.w3.org/2000/svg">
<circle cx="70" cy="70" r="70" fill="#F0FBEA"/>
<mask id="mask0_11662_5211" style="mask-type:alpha" maskUnits="userSpaceOnUse" x="0" y="0" width="140" height="140">
<circle cx="70" cy="70" r="70" fill="#F0FBEA"/>
</mask>
<g mask="url(#mask0_11662_5211)">
<g clip-path="url(#clip0_11662_5211)">
<path d="M121.15 10.0781H38.9781C30.1749 10.0781 23.0381 17.3102 23.0381 26.2305V116.034C23.0381 123.746 29.2087 130 36.8198 130H103.819C109.764 130 114.582 125.121 114.582 119.096V29.6307H121.144L121.15 10.0781Z" fill="#9FDB86"/>
<path d="M92.2965 115.604V111.562H14V115.485C14 123.5 21.3702 129.997 30.4615 129.997H104.791C97.5911 128.287 92.2965 122.493 92.2965 115.604Z" fill="#387E1B"/>
<path d="M121.924 10H122.68C124.622 10 126.484 10.7719 127.857 12.1459C129.23 13.5199 130.001 15.3835 130.001 17.3267V30.7544H114.604V17.3267C114.604 15.3838 115.375 13.5204 116.747 12.1465C118.12 10.7725 119.982 10.0004 121.924 10Z" fill="#387E1B"/>
<path d="M47.1893 92.0293H32.3765C32.0877 92.0293 31.8535 92.2636 31.8535 92.5526V94.4627C31.8535 94.7517 32.0877 94.986 32.3765 94.986H47.1893C47.4781 94.986 47.7123 94.7517 47.7123 94.4627V92.5526C47.7123 92.2636 47.4781 92.0293 47.1893 92.0293Z" fill="white"/>
<path d="M59.9678 92.0293H50.6343C50.3455 92.0293 50.1113 92.2636 50.1113 92.5526V94.4627C50.1113 94.7517 50.3455 94.986 50.6343 94.986H59.9678C60.2567 94.986 60.4908 94.7517 60.4908 94.4627V92.5526C60.4908 92.2636 60.2567 92.0293 59.9678 92.0293Z" fill="white"/>
<path d="M51.7157 98.1699H32.3765C32.0877 98.1699 31.8535 98.4042 31.8535 98.6933V100.603C31.8535 100.892 32.0877 101.127 32.3765 101.127H51.7157C52.0045 101.127 52.2387 100.892 52.2387 100.603V98.6933C52.2387 98.4042 52.0045 98.1699 51.7157 98.1699Z" fill="white"/>
<path d="M68.1337 98.1699H55.2931C54.8712 98.1699 54.5293 98.5121 54.5293 98.9342V100.362C54.5293 100.784 54.8712 101.127 55.2931 101.127H68.1337C68.5555 101.127 68.8974 100.784 68.8974 100.362V98.9342C68.8974 98.5121 68.5555 98.1699 68.1337 98.1699Z" fill="white"/>
<path d="M99.8289 23.1875H83.5935C83.002 23.1875 82.5225 23.6674 82.5225 24.2593V25.9283C82.5225 26.5203 83.002 27.0001 83.5935 27.0001H99.8289C100.42 27.0001 100.9 26.5203 100.9 25.9283V24.2593C100.9 23.6674 100.42 23.1875 99.8289 23.1875Z" fill="white"/>
<path d="M99.2652 94.834H88.4337C87.595 94.834 86.915 95.5144 86.915 96.3537V98.7191C86.915 99.5584 87.595 100.239 88.4337 100.239H99.2652C100.104 100.239 100.784 99.5584 100.784 98.7191V96.3537C100.784 95.5144 100.104 94.834 99.2652 94.834Z" fill="white"/>
<path d="M100.705 58.0703H45.2302C45.1225 58.0703 45.0352 58.1577 45.0352 58.2655V60.5273C45.0352 60.6351 45.1225 60.7225 45.2302 60.7225H100.705C100.813 60.7225 100.9 60.6351 100.9 60.5273V58.2655C100.9 58.1577 100.813 58.0703 100.705 58.0703Z" fill="white"/>
<path d="M39.8616 55.75H33.2581C33.1749 55.75 33.1074 55.8175 33.1074 55.9008V62.8919C33.1074 62.9752 33.1749 63.0427 33.2581 63.0427H39.8616C39.9448 63.0427 40.0123 62.9752 40.0123 62.8919V55.9008C40.0123 55.8175 39.9448 55.75 39.8616 55.75Z" fill="white"/>
<path d="M100.705 68.6797H45.2302C45.1225 68.6797 45.0352 68.7671 45.0352 68.8748V71.1367C45.0352 71.2445 45.1225 71.3318 45.2302 71.3318H100.705C100.813 71.3318 100.9 71.2445 100.9 71.1367V68.8748C100.9 68.7671 100.813 68.6797 100.705 68.6797Z" fill="white"/>
<path d="M39.8616 66.3594H33.2581C33.1749 66.3594 33.1074 66.4269 33.1074 66.5102V73.5012C33.1074 73.5845 33.1749 73.652 33.2581 73.652H39.8616C39.9448 73.652 40.0123 73.5845 40.0123 73.5012V66.5102C40.0123 66.4269 39.9448 66.3594 39.8616 66.3594Z" fill="white"/>
<path d="M100.705 79.2871H45.2302C45.1225 79.2871 45.0352 79.3745 45.0352 79.4823V81.7441C45.0352 81.8519 45.1225 81.9393 45.2302 81.9393H100.705C100.813 81.9393 100.9 81.8519 100.9 81.7441V79.4823C100.9 79.3745 100.813 79.2871 100.705 79.2871Z" fill="white"/>
<path d="M39.8616 76.9668H33.2581C33.1749 76.9668 33.1074 77.0343 33.1074 77.1176V84.1087C33.1074 84.1919 33.1749 84.2595 33.2581 84.2595H39.8616C39.9448 84.2595 40.0123 84.1919 40.0123 84.1087V77.1176C40.0123 77.0343 39.9448 76.9668 39.8616 76.9668Z" fill="white"/>
<path d="M100.175 46.9668H31.951C31.8972 46.9668 31.8535 47.0105 31.8535 47.0644V48.1953C31.8535 48.2492 31.8972 48.2929 31.951 48.2929H100.175C100.229 48.2929 100.273 48.2492 100.273 48.1953V47.0644C100.273 47.0105 100.229 46.9668 100.175 46.9668Z" fill="white"/>
<path d="M79.3108 33.5195H100.754C100.834 33.5195 100.898 33.4547 100.898 33.3747V31.404C100.898 31.324 100.834 31.2591 100.754 31.2591L79.3108 31.2591C79.2308 31.2591 79.166 31.324 79.166 31.404V33.3747C79.166 33.4547 79.2308 33.5195 79.3108 33.5195Z" fill="white"/>
<path d="M74.8867 39.1719H100.756C100.836 39.1719 100.9 39.107 100.9 39.027V37.0564C100.9 36.9764 100.836 36.9115 100.756 36.9115H74.8867C74.8068 36.9115 74.742 36.9764 74.742 37.0564V39.027C74.742 39.107 74.8068 39.1719 74.8867 39.1719Z" fill="white"/>
</g>
</g>
<defs>
<clipPath id="clip0_11662_5211">
<rect width="116" height="120" fill="white" transform="translate(14 10)"/>
</clipPath>
</defs>
</svg>
