<svg width="229" height="212" viewBox="0 0 229 212" fill="none" xmlns="http://www.w3.org/2000/svg">
<path d="M228.594 0L56.5307 83.4288L0 50.79L228.594 0Z" fill="url(#paint0_linear_590_18050)"/>
<path d="M228.596 0L84.1138 99.3451L140.636 131.984L228.596 0Z" fill="url(#paint1_linear_590_18050)"/>
<path d="M84.1115 99.3451L228.594 0L56.5298 83.4288L70.3163 135.84L84.1115 99.3451Z" fill="#174604"/>
<path d="M54.0146 81.9739L228.594 0L56.53 83.4288L54.0146 81.9739Z" fill="#A3D68D"/>
<path d="M84.1138 99.3451L228.596 0L86.3662 100.651L84.1138 99.3451Z" fill="#5C9A41"/>
<path opacity="0.4" d="M194.046 121.363L38.7046 155.869L75.4101 177.061L77.1192 178.052L97.6368 176.571L107.532 195.607L134.272 211.05L194.046 121.363Z" fill="#0E2E01"/>
<path d="M70.4038 135.642L84.1044 99.4873L101.23 109.382L70.4038 135.642Z" fill="#0E2E01"/>
<defs>
<linearGradient id="paint0_linear_590_18050" x1="135.608" y1="55.3228" x2="81.0583" y2="-79.1822" gradientUnits="userSpaceOnUse">
<stop stop-color="#ADDE98"/>
<stop offset="0.56" stop-color="#4D8E31"/>
<stop offset="1" stop-color="#236609"/>
</linearGradient>
<linearGradient id="paint1_linear_590_18050" x1="206.608" y1="78.0681" x2="164.865" y2="4.6332" gradientUnits="userSpaceOnUse">
<stop stop-color="#ADDE98"/>
<stop offset="0.56" stop-color="#4D8E31"/>
<stop offset="1" stop-color="#236609"/>
</linearGradient>
</defs>
</svg>
