<svg width="40" height="40" viewBox="0 0 40 40" fill="none" xmlns="http://www.w3.org/2000/svg">
<path d="M33.75 7.5V32.5C33.75 33.163 33.4866 33.7989 33.0178 34.2678C32.5489 34.7366 31.913 35 31.25 35H25C24.337 35 23.7011 34.7366 23.2322 34.2678C22.7634 33.7989 22.5 33.163 22.5 32.5V7.5C22.5 6.83696 22.7634 6.20107 23.2322 5.73223C23.7011 5.26339 24.337 5 25 5H31.25C31.913 5 32.5489 5.26339 33.0178 5.73223C33.4866 6.20107 33.75 6.83696 33.75 7.5ZM15 5H8.75C8.08696 5 7.45107 5.26339 6.98223 5.73223C6.51339 6.20107 6.25 6.83696 6.25 7.5V32.5C6.25 33.163 6.51339 33.7989 6.98223 34.2678C7.45107 34.7366 8.08696 35 8.75 35H15C15.663 35 16.2989 34.7366 16.7678 34.2678C17.2366 33.7989 17.5 33.163 17.5 32.5V7.5C17.5 6.83696 17.2366 6.20107 16.7678 5.73223C16.2989 5.26339 15.663 5 15 5Z" fill="#F3B744"/>
</svg>
