<svg width="57" height="56" viewBox="0 0 57 56" fill="none" xmlns="http://www.w3.org/2000/svg">
<circle cx="28.0088" cy="28" r="28" fill="#F0FBEA"/>
<path d="M10.8262 21.2725H43.1272C44.4671 21.2725 45.5533 22.3587 45.5533 23.6985V39.1038C45.5533 40.4437 44.4671 41.5299 43.1272 41.5299H10.8262V21.2725Z" fill="#62A446"/>
<path d="M10.8262 17.6553H46.3828C47.7227 17.6553 48.8089 18.7415 48.8089 20.0814V35.4867C48.8089 36.8265 47.7227 37.9127 46.3828 37.9127H10.8262V17.6553Z" fill="#ADDE98"/>
<circle cx="10.6453" cy="17.8359" r="3.43653" fill="#82C167"/>
<rect x="7.20874" y="17.6553" width="6.87307" height="20.6192" fill="#82C167"/>
<circle cx="10.6453" cy="38.0938" r="3.43653" fill="#62A446"/>
<path d="M20.4103 34.0398V22.1299H21.1733V34.0398H20.4103ZM22.9784 25.7029C22.9226 25.2314 22.6962 24.8654 22.2992 24.6049C21.9022 24.3444 21.4152 24.2141 20.8383 24.2141C20.4165 24.2141 20.0474 24.2824 19.7311 24.4188C19.4178 24.5553 19.1728 24.7429 18.996 24.9818C18.8223 25.2206 18.7355 25.492 18.7355 25.7959C18.7355 26.0502 18.796 26.2689 18.9169 26.4519C19.041 26.6318 19.1992 26.7822 19.3915 26.9032C19.5838 27.021 19.7854 27.1187 19.9963 27.1963C20.2072 27.2707 20.401 27.3312 20.5778 27.3777L21.5455 27.6382C21.7936 27.7034 22.0696 27.7933 22.3736 27.9081C22.6806 28.0228 22.9737 28.1794 23.2529 28.3779C23.5351 28.5733 23.7677 28.8246 23.9507 29.1316C24.1337 29.4387 24.2252 29.8155 24.2252 30.2621C24.2252 30.777 24.0903 31.2422 23.8205 31.6578C23.5537 32.0734 23.1629 32.4037 22.6481 32.6488C22.1363 32.8938 21.5145 33.0163 20.7825 33.0163C20.1002 33.0163 19.5093 32.9062 19.01 32.686C18.5137 32.4658 18.1229 32.1587 17.8376 31.7648C17.5553 31.3709 17.3956 30.9135 17.3584 30.3924H18.5494C18.5804 30.7522 18.7014 31.0499 18.9123 31.2856C19.1263 31.5183 19.3961 31.6919 19.7218 31.8067C20.0505 31.9184 20.4041 31.9742 20.7825 31.9742C21.2229 31.9742 21.6184 31.9028 21.9688 31.7602C22.3193 31.6144 22.5969 31.4128 22.8016 31.1554C23.0063 30.8948 23.1087 30.5909 23.1087 30.2435C23.1087 29.9272 23.0203 29.6697 22.8435 29.4712C22.6667 29.2727 22.4341 29.1115 22.1456 28.9874C21.8572 28.8633 21.5455 28.7548 21.2105 28.6617L20.0381 28.3268C19.2938 28.1128 18.7045 27.8073 18.2703 27.4103C17.836 27.0133 17.6189 26.4938 17.6189 25.8517C17.6189 25.3183 17.7631 24.853 18.0516 24.456C18.3431 24.0559 18.7339 23.7458 19.224 23.5256C19.7171 23.3023 20.2676 23.1906 20.8755 23.1906C21.4897 23.1906 22.0355 23.3007 22.5132 23.5209C22.9908 23.738 23.3692 24.0358 23.6483 24.4142C23.9306 24.7926 24.0794 25.2221 24.095 25.7029H22.9784Z" fill="#F0FBEA"/>
<rect x="28.5515" y="23.4424" width="15.5548" height="1.08522" fill="#F0FBEA"/>
<rect x="28.5515" y="27.4219" width="11.9374" height="1.08522" fill="#F0FBEA"/>
<rect x="28.5515" y="31.4004" width="14.8314" height="1.08522" fill="#F0FBEA"/>
</svg>
