<svg width="57" height="56" viewBox="0 0 57 56" fill="none" xmlns="http://www.w3.org/2000/svg">
<circle cx="28.0088" cy="28" r="28" fill="#F0FBEA"/>
<path d="M43.0635 48H16.6137C15.5501 48 14.6877 47.1377 14.6877 46.074V9.92596C14.6877 8.86232 15.5501 8 16.6137 8H43.0635C44.1272 8 44.9895 8.86232 44.9895 9.92596V46.074C44.9895 47.1377 44.1272 48 43.0635 48Z" fill="#82C167"/>
<path d="M29.8386 48H16.6137C15.5501 48 14.6877 47.1377 14.6877 46.074V9.92596C14.6877 8.86232 15.5501 8 16.6137 8H29.8386V48Z" fill="#82C167"/>
<path d="M35.1063 34.0994H24.5706V30.5498C24.5706 28.6648 26.0986 27.1367 27.9836 27.1367H31.6931C33.5781 27.1367 35.1062 28.6648 35.1062 30.5498V34.0994H35.1063Z" fill="#F0FBEA"/>
<path d="M29.8386 26.2055C31.6854 26.2055 33.1826 24.7084 33.1826 22.8616C33.1826 21.0147 31.6854 19.5176 29.8386 19.5176C27.9918 19.5176 26.4946 21.0147 26.4946 22.8616C26.4946 24.7084 27.9918 26.2055 29.8386 26.2055Z" fill="#F0FBEA"/>
<path d="M29.8384 34.0994H24.5706V30.5498C24.5706 28.6648 26.0986 27.1367 27.9836 27.1367H29.8384V34.0994Z" fill="#F0FBEA"/>
<path d="M29.8384 26.2055C27.9915 26.2055 26.4944 24.7084 26.4944 22.8616C26.4944 21.0147 27.9915 19.5176 29.8384 19.5176V26.2055Z" fill="#F0FBEA"/>
<path d="M16.421 18.6283H12.9543C11.8906 18.6283 11.0283 17.766 11.0283 16.7023C11.0283 15.6387 11.8906 14.7764 12.9543 14.7764H16.421C17.4847 14.7764 18.347 15.6387 18.347 16.7023C18.347 17.766 17.4847 18.6283 16.421 18.6283Z" fill="#003049"/>
<path d="M16.421 26.1605H12.9543C11.8906 26.1605 11.0283 25.2982 11.0283 24.2346C11.0283 23.1709 11.8906 22.3086 12.9543 22.3086H16.421C17.4847 22.3086 18.347 23.1709 18.347 24.2346C18.347 25.2982 17.4847 26.1605 16.421 26.1605Z" fill="#003049"/>
<path d="M16.421 33.6918H12.9543C11.8906 33.6918 11.0283 32.8294 11.0283 31.7658C11.0283 30.7022 11.8906 29.8398 12.9543 29.8398H16.421C17.4847 29.8398 18.347 30.7022 18.347 31.7658C18.347 32.8294 17.4847 33.6918 16.421 33.6918Z" fill="#003049"/>
<path d="M16.421 41.224H12.9543C11.8906 41.224 11.0283 40.3617 11.0283 39.298C11.0283 38.2344 11.8906 37.3721 12.9543 37.3721H16.421C17.4847 37.3721 18.347 38.2344 18.347 39.298C18.347 40.3617 17.4847 41.224 16.421 41.224Z" fill="#003049"/>
</svg>
