<svg width="216" height="215" viewBox="0 0 216 215" fill="none" xmlns="http://www.w3.org/2000/svg">
<mask id="mask0_5989_16219" style="mask-type:alpha" maskUnits="userSpaceOnUse" x="0" y="0" width="216" height="215">
<circle cx="108" cy="107.5" r="107.5" fill="#F0FBEA"/>
</mask>
<g mask="url(#mask0_5989_16219)">
<path d="M173.373 107.594C172.97 107.572 172.583 107.433 172.259 107.196C171.935 106.958 171.688 106.632 171.549 106.258C171.41 105.883 171.385 105.477 171.477 105.088C171.569 104.7 171.773 104.347 172.066 104.072L178.692 97.762C178.889 97.5705 179.122 97.4198 179.378 97.3186C179.635 97.2175 179.909 97.1679 180.185 97.1728C180.461 97.1776 180.733 97.2369 180.985 97.3471C181.238 97.4573 181.466 97.6162 181.655 97.8144C181.845 98.0127 181.993 98.2464 182.09 98.5019C182.187 98.7573 182.232 99.0294 182.221 99.3021C182.211 99.5748 182.146 99.8427 182.029 100.09C181.913 100.338 181.748 100.56 181.543 100.743L174.909 107.053C174.704 107.242 174.462 107.387 174.198 107.481C173.934 107.574 173.653 107.612 173.373 107.594Z" fill="#62A446"/>
<path d="M169.035 104.29C168.5 104.259 167.999 104.024 167.635 103.636C167.271 103.248 167.073 102.735 167.082 102.206L167.188 96.8652C167.199 96.3237 167.426 95.8084 167.819 95.4316C168.212 95.0547 168.74 94.8469 169.288 94.8534C169.837 94.8682 170.358 95.096 170.739 95.4875C171.119 95.879 171.329 96.4029 171.322 96.9459L171.224 102.286C171.212 102.829 170.983 103.344 170.588 103.72C170.194 104.097 169.665 104.305 169.116 104.298L169.035 104.29Z" fill="#62A446"/>
<path d="M176.543 112.014C176.012 111.967 175.52 111.721 175.168 111.325C174.816 110.93 174.631 110.415 174.652 109.889C174.673 109.362 174.898 108.864 175.281 108.497C175.663 108.13 176.174 107.922 176.707 107.918L182.115 108.023C182.398 108.011 182.68 108.058 182.944 108.158C183.208 108.259 183.448 108.412 183.65 108.607C183.853 108.803 184.012 109.038 184.119 109.297C184.226 109.556 184.278 109.834 184.273 110.114C184.267 110.393 184.204 110.669 184.087 110.924C183.969 111.178 183.801 111.406 183.591 111.594C183.381 111.782 183.135 111.925 182.867 112.016C182.599 112.106 182.316 112.141 182.034 112.119L176.641 112.014H176.543Z" fill="#62A446"/>
<path d="M147.678 88.117C145.754 88.117 143.908 87.3611 142.548 86.0157C141.187 84.6702 140.423 82.8454 140.423 80.9426V78.3353C140.414 70.9112 137.426 63.794 132.115 58.5467C126.804 53.2994 119.604 50.3509 112.096 50.3488H104.743C97.2356 50.3509 90.0357 53.2994 84.7246 58.5467C79.4136 63.794 76.4257 70.9112 76.4171 78.3353V116.421C76.4171 118.324 75.6527 120.148 74.2921 121.494C72.9315 122.839 71.0861 123.595 69.1619 123.595C67.2377 123.595 65.3923 122.839 64.0317 121.494C62.6711 120.148 61.9067 118.324 61.9067 116.421V78.3353C61.9197 67.107 66.4378 56.3427 74.4691 48.4053C82.5004 40.468 93.3885 36.0064 104.743 36H112.096C123.447 36.0128 134.329 40.4773 142.355 48.4139C150.381 56.3505 154.895 67.1112 154.908 78.3353V80.9426C154.906 82.8406 154.145 84.6605 152.79 86.0048C151.435 87.3491 149.597 88.1085 147.678 88.117Z" fill="#003049"/>
<path d="M159.206 106.261H57.6338C50.7661 106.261 45.1988 111.767 45.1988 118.558V202.703C45.1988 209.495 50.7661 215 57.6338 215H159.206C166.074 215 171.641 209.495 171.641 202.703V118.558C171.641 111.767 166.074 106.261 159.206 106.261Z" fill="#82C167"/>
<path d="M159.198 106.261H108.42V215H159.198C162.497 215 165.66 213.705 167.994 211.399C170.327 209.093 171.639 205.965 171.641 202.703V118.566C171.641 115.303 170.33 112.173 167.997 109.865C165.663 107.558 162.498 106.261 159.198 106.261Z" fill="#82C167"/>
<path d="M150.156 143H65.8233C63.1701 143 61.0192 145.127 61.0192 147.751V173.782C61.0192 176.406 63.1701 178.533 65.8233 178.533H150.156C152.81 178.533 154.96 176.406 154.96 173.782V147.751C154.96 145.127 152.81 143 150.156 143Z" fill="#003049"/>
<path d="M150.586 142.868H108.42V178.417H150.586C151.861 178.417 153.082 177.917 153.983 177.026C154.884 176.135 155.39 174.926 155.39 173.667V147.619C155.39 146.359 154.884 145.151 153.983 144.26C153.082 143.369 151.861 142.868 150.586 142.868Z" fill="#003049"/>
<path d="M49.9336 84.2286C49.2894 84.2308 48.6511 84.1069 48.0555 83.8642C47.4599 83.6214 46.9187 83.2645 46.4632 82.814C46.0077 82.3636 45.6468 81.8285 45.4013 81.2395C45.1558 80.6505 45.0305 80.0194 45.0327 79.3823V79.2505C45.0327 78.6253 44.7816 78.0257 44.3345 77.5837C43.8875 77.1416 43.2812 76.8932 42.649 76.8932C42.0167 76.8932 41.4104 77.1416 40.9634 77.5837C40.5163 78.0257 40.2652 78.6253 40.2652 79.2505V79.3823C40.2652 80.6676 39.7489 81.9003 38.8298 82.8092C37.9107 83.718 36.6641 84.2286 35.3643 84.2286C34.7373 84.2137 34.1281 84.4354 33.6605 84.8488C33.193 85.2622 32.9021 85.8361 32.8472 86.454C32.8291 86.7744 32.8773 87.0952 32.9889 87.3966C33.1006 87.698 33.2733 87.9736 33.4965 88.2067C33.7197 88.4397 33.9886 88.6252 34.2869 88.7519C34.5851 88.8785 34.9064 88.9435 35.231 88.943H35.3643C36.6641 88.943 37.9107 89.4536 38.8298 90.3625C39.7489 91.2713 40.2652 92.504 40.2652 93.7893V93.9212C40.2652 94.5464 40.5163 95.1459 40.9634 95.588C41.4104 96.0301 42.0167 96.2784 42.649 96.2784C43.2812 96.2784 43.8875 96.0301 44.3345 95.588C44.7816 95.1459 45.0327 94.5464 45.0327 93.9212V93.7893C45.0327 92.504 45.549 91.2713 46.4681 90.3625C47.3872 89.4536 48.6338 88.943 49.9336 88.943H50.0669C50.3908 88.9412 50.711 88.8745 51.0081 88.7471C51.3053 88.6197 51.5733 88.4341 51.796 88.2016C52.0187 87.969 52.1915 87.6943 52.304 87.394C52.4165 87.0936 52.4664 86.7739 52.4507 86.454C52.3919 85.8376 52.1 85.2659 51.6333 84.8533C51.1666 84.4407 50.5595 84.2176 49.9336 84.2286ZM42.649 88.6793C42.2302 88.6793 41.8209 88.5565 41.4728 88.3265C41.1246 88.0964 40.8533 87.7695 40.6931 87.387C40.5328 87.0044 40.4909 86.5835 40.5726 86.1774C40.6543 85.7713 40.8559 85.3983 41.152 85.1055C41.4481 84.8128 41.8253 84.6134 42.2359 84.5326C42.6466 84.4518 43.0723 84.4933 43.4591 84.6517C43.8459 84.8102 44.1766 85.0785 44.4092 85.4228C44.6418 85.767 44.766 86.1718 44.766 86.5858C44.766 87.1411 44.5429 87.6735 44.1459 88.0661C43.7489 88.4587 43.2104 88.6793 42.649 88.6793Z" fill="#F3B744"/>
<circle cx="75.6279" cy="160.739" r="5.21739" stroke="white" stroke-width="2"/>
<circle cx="97.5409" cy="160.739" r="5.21739" stroke="white" stroke-width="2"/>
<circle cx="119.454" cy="160.739" r="5.21739" stroke="white" stroke-width="2"/>
<circle cx="141.367" cy="160.739" r="5.21739" stroke="white" stroke-width="2"/>
</g>
</svg>
