<svg width="216" height="215" viewBox="0 0 216 215" fill="none" xmlns="http://www.w3.org/2000/svg">
<circle cx="108" cy="107.5" r="107.5" fill="#F0FBEA"/>
<mask id="mask0_5989_16258" style="mask-type:alpha" maskUnits="userSpaceOnUse" x="0" y="0" width="216" height="215">
<circle cx="108" cy="107.5" r="107.5" fill="#F0FBEA"/>
</mask>
<g mask="url(#mask0_5989_16258)">
<path d="M173.373 107.594C172.97 107.572 172.583 107.433 172.259 107.196C171.935 106.958 171.688 106.632 171.549 106.258C171.41 105.883 171.385 105.477 171.477 105.088C171.569 104.7 171.774 104.347 172.066 104.072L178.692 97.7619C178.889 97.5705 179.122 97.4197 179.378 97.3186C179.635 97.2174 179.909 97.1678 180.185 97.1727C180.461 97.1776 180.733 97.2369 180.985 97.347C181.238 97.4572 181.466 97.6161 181.655 97.8144C181.845 98.0127 181.993 98.2464 182.09 98.5018C182.187 98.7572 182.232 99.0293 182.221 99.302C182.211 99.5747 182.146 99.8427 182.029 100.09C181.913 100.338 181.748 100.56 181.543 100.743L174.909 107.053C174.704 107.242 174.462 107.387 174.198 107.48C173.934 107.574 173.653 107.612 173.373 107.594Z" fill="#62A446"/>
<path d="M169.035 104.29C168.5 104.259 167.999 104.024 167.635 103.636C167.271 103.248 167.073 102.735 167.082 102.206L167.188 96.8652C167.199 96.3237 167.426 95.8084 167.819 95.4316C168.212 95.0547 168.74 94.8469 169.288 94.8534C169.837 94.8682 170.358 95.096 170.739 95.4875C171.119 95.879 171.329 96.4029 171.322 96.9459L171.224 102.286C171.212 102.829 170.983 103.344 170.588 103.72C170.194 104.097 169.665 104.305 169.116 104.298L169.035 104.29Z" fill="#62A446"/>
<path d="M176.543 112.014C176.012 111.967 175.52 111.721 175.168 111.325C174.816 110.929 174.631 110.415 174.652 109.889C174.673 109.362 174.899 108.864 175.281 108.497C175.663 108.13 176.174 107.922 176.707 107.917L182.115 108.023C182.398 108.011 182.68 108.057 182.944 108.158C183.208 108.259 183.448 108.412 183.651 108.607C183.853 108.803 184.012 109.038 184.119 109.297C184.226 109.556 184.278 109.834 184.273 110.113C184.267 110.393 184.204 110.669 184.087 110.923C183.969 111.178 183.801 111.406 183.591 111.594C183.381 111.782 183.135 111.925 182.867 112.016C182.599 112.106 182.316 112.141 182.034 112.119L176.641 112.014H176.543Z" fill="#62A446"/>
<path d="M147.678 134.117C145.754 134.117 143.908 133.361 142.548 132.016C141.187 130.67 140.423 128.845 140.423 126.943V89.3353C140.414 81.9112 137.426 74.794 132.115 69.5467C126.804 64.2994 119.604 61.3509 112.096 61.3488H104.743C97.2356 61.3509 90.0357 64.2994 84.7246 69.5467C79.4136 74.794 76.4257 81.9112 76.4171 89.3353V127.421C76.4171 129.324 75.6527 131.148 74.2921 132.494C72.9315 133.839 71.0861 134.595 69.1619 134.595C67.2377 134.595 65.3923 133.839 64.0317 132.494C62.6711 131.148 61.9067 129.324 61.9067 127.421V89.3353C61.9197 78.107 66.4378 67.3427 74.4691 59.4053C82.5004 51.468 93.3885 47.0064 104.743 47H112.096C123.447 47.0128 134.329 51.4773 142.355 59.4139C150.381 67.3505 154.895 78.1112 154.908 89.3353V126.943C154.906 128.841 154.145 130.66 152.79 132.005C151.435 133.349 149.597 134.108 147.678 134.117Z" fill="#003049"/>
<path d="M159.206 106.261H57.6339C50.7662 106.261 45.1988 111.767 45.1988 118.558V202.703C45.1988 209.495 50.7662 215 57.6339 215H159.206C166.074 215 171.641 209.495 171.641 202.703V118.558C171.641 111.767 166.074 106.261 159.206 106.261Z" fill="#82C167"/>
<path d="M159.198 106.261H108.42V215H159.198C162.497 215 165.66 213.705 167.994 211.399C170.327 209.093 171.639 205.965 171.641 202.703V118.566C171.641 115.303 170.33 112.173 167.997 109.865C165.663 107.558 162.498 106.261 159.198 106.261Z" fill="#82C167"/>
<path d="M150.137 143H65.8041C63.1509 143 61 145.127 61 147.751V173.782C61 176.406 63.1509 178.533 65.8041 178.533H150.137C152.79 178.533 154.941 176.406 154.941 173.782V147.751C154.941 145.127 152.79 143 150.137 143Z" fill="#003049"/>
<path d="M49.9336 84.2287C49.2894 84.2309 48.6511 84.107 48.0555 83.8642C47.4599 83.6214 46.9187 83.2645 46.4632 82.8141C46.0077 82.3636 45.6468 81.8285 45.4013 81.2396C45.1558 80.6506 45.0305 80.0194 45.0327 79.3824V79.2505C45.0327 78.6253 44.7816 78.0258 44.3345 77.5837C43.8875 77.1417 43.2812 76.8933 42.649 76.8933C42.0167 76.8933 41.4104 77.1417 40.9634 77.5837C40.5163 78.0258 40.2652 78.6253 40.2652 79.2505V79.3824C40.2652 80.6677 39.7489 81.9004 38.8298 82.8092C37.9107 83.7181 36.6641 84.2287 35.3643 84.2287C34.7373 84.2137 34.1281 84.4355 33.6605 84.8489C33.193 85.2622 32.9021 85.8362 32.8472 86.454C32.8291 86.7745 32.8773 87.0952 32.9889 87.3966C33.1006 87.698 33.2733 87.9737 33.4965 88.2067C33.7197 88.4398 33.9886 88.6253 34.2869 88.7519C34.5851 88.8785 34.9064 88.9436 35.231 88.9431H35.3643C36.6641 88.9431 37.9107 89.4537 38.8298 90.3625C39.7489 91.2714 40.2652 92.5041 40.2652 93.7894V93.9213C40.2652 94.5464 40.5163 95.146 40.9634 95.5881C41.4104 96.0301 42.0167 96.2785 42.649 96.2785C43.2812 96.2785 43.8875 96.0301 44.3345 95.5881C44.7816 95.146 45.0327 94.5464 45.0327 93.9213V93.7894C45.0327 92.5041 45.549 91.2714 46.4681 90.3625C47.3872 89.4537 48.6338 88.9431 49.9336 88.9431H50.0669C50.3908 88.9413 50.711 88.8746 51.0081 88.7472C51.3053 88.6198 51.5733 88.4342 51.796 88.2016C52.0187 87.9691 52.1915 87.6944 52.304 87.394C52.4165 87.0937 52.4664 86.7739 52.4507 86.454C52.3919 85.8377 52.1 85.266 51.6333 84.8534C51.1666 84.4408 50.5595 84.2176 49.9336 84.2287ZM42.649 88.6794C42.2302 88.6794 41.8209 88.5566 41.4728 88.3265C41.1246 88.0965 40.8533 87.7696 40.6931 87.387C40.5328 87.0045 40.4909 86.5836 40.5726 86.1775C40.6543 85.7714 40.8559 85.3984 41.152 85.1056C41.4481 84.8128 41.8253 84.6134 42.2359 84.5327C42.6466 84.4519 43.0723 84.4933 43.4591 84.6518C43.8459 84.8102 44.1766 85.0786 44.4092 85.4228C44.6418 85.7671 44.766 86.1718 44.766 86.5859C44.766 87.1411 44.5429 87.6736 44.1459 88.0662C43.7489 88.4588 43.2104 88.6794 42.649 88.6794Z" fill="#F3B744"/>
<path d="M79.1252 161.52L78.0212 160.893L79.133 160.258C79.4199 160.08 79.6258 159.799 79.7074 159.474C79.7889 159.149 79.7399 158.805 79.5705 158.515C79.401 158.226 79.1245 158.012 78.7991 157.92C78.4736 157.827 78.1246 157.863 77.8255 158.02L76.7136 158.655V157.393C76.7276 157.215 76.7042 157.037 76.645 156.868C76.5858 156.7 76.4921 156.546 76.3697 156.415C76.2472 156.284 76.0988 156.18 75.9337 156.108C75.7685 156.037 75.5902 156 75.41 156C75.2298 156 75.0515 156.037 74.8863 156.108C74.7212 156.18 74.5727 156.284 74.4503 156.415C74.3279 156.546 74.2341 156.7 74.1749 156.868C74.1157 157.037 74.0924 157.215 74.1063 157.393V158.655L73.0023 158.02C72.8535 157.928 72.6873 157.866 72.5139 157.839C72.3404 157.811 72.1631 157.819 71.9925 157.861C71.822 157.902 71.6618 157.978 71.5214 158.082C71.381 158.187 71.2633 158.318 71.1754 158.469C71.0875 158.619 71.0312 158.785 71.0098 158.958C70.9883 159.13 71.0023 159.305 71.0507 159.472C71.0992 159.639 71.1812 159.795 71.2919 159.93C71.4025 160.065 71.5395 160.176 71.6947 160.258L72.8066 160.893L71.6947 161.52C71.5395 161.601 71.4025 161.713 71.2919 161.848C71.1812 161.983 71.0992 162.138 71.0507 162.305C71.0023 162.472 70.9883 162.647 71.0098 162.82C71.0312 162.992 71.0875 163.159 71.1754 163.309C71.2633 163.459 71.381 163.591 71.5214 163.695C71.6618 163.8 71.822 163.875 71.9925 163.917C72.1631 163.959 72.3404 163.966 72.5139 163.939C72.6873 163.911 72.8535 163.85 73.0023 163.757L74.1063 163.123V164.392C74.1318 164.717 74.2802 165.02 74.5219 165.241C74.7635 165.463 75.0807 165.585 75.41 165.585C75.7393 165.585 76.0564 165.463 76.2981 165.241C76.5398 165.02 76.6882 164.717 76.7136 164.392V163.123L77.8255 163.757C78.1235 163.902 78.466 163.929 78.7835 163.833C79.1009 163.737 79.3696 163.525 79.5349 163.24C79.7002 162.956 79.7499 162.62 79.6738 162.3C79.5977 161.981 79.4016 161.702 79.1252 161.52Z" fill="white"/>
<path d="M101.125 161.52L100.021 160.893L101.133 160.258C101.42 160.08 101.626 159.799 101.707 159.474C101.789 159.149 101.74 158.805 101.57 158.515C101.401 158.226 101.125 158.012 100.799 157.92C100.474 157.827 100.125 157.863 99.8255 158.02L98.7136 158.655V157.393C98.7276 157.215 98.7042 157.037 98.645 156.868C98.5858 156.7 98.4921 156.546 98.3697 156.415C98.2472 156.284 98.0988 156.18 97.9337 156.108C97.7685 156.037 97.5902 156 97.41 156C97.2298 156 97.0515 156.037 96.8863 156.108C96.7212 156.18 96.5727 156.284 96.4503 156.415C96.3279 156.546 96.2341 156.7 96.1749 156.868C96.1157 157.037 96.0924 157.215 96.1063 157.393V158.655L95.0023 158.02C94.8535 157.928 94.6873 157.866 94.5139 157.839C94.3404 157.811 94.1631 157.819 93.9925 157.861C93.822 157.902 93.6618 157.978 93.5214 158.082C93.381 158.187 93.2633 158.318 93.1754 158.469C93.0875 158.619 93.0312 158.785 93.0098 158.958C92.9883 159.13 93.0023 159.305 93.0507 159.472C93.0992 159.639 93.1812 159.795 93.2919 159.93C93.4025 160.065 93.5395 160.176 93.6947 160.258L94.8066 160.893L93.6947 161.52C93.5395 161.601 93.4025 161.713 93.2919 161.848C93.1812 161.983 93.0992 162.138 93.0507 162.305C93.0023 162.472 92.9883 162.647 93.0098 162.82C93.0312 162.992 93.0875 163.159 93.1754 163.309C93.2633 163.459 93.381 163.591 93.5214 163.695C93.6618 163.8 93.822 163.875 93.9925 163.917C94.1631 163.959 94.3404 163.966 94.5139 163.939C94.6873 163.911 94.8535 163.85 95.0023 163.757L96.1063 163.123V164.392C96.1318 164.717 96.2802 165.02 96.5219 165.241C96.7635 165.463 97.0807 165.585 97.41 165.585C97.7393 165.585 98.0564 165.463 98.2981 165.241C98.5398 165.02 98.6882 164.717 98.7136 164.392V163.123L99.8255 163.757C100.124 163.902 100.466 163.929 100.783 163.833C101.101 163.737 101.37 163.525 101.535 163.24C101.7 162.956 101.75 162.62 101.674 162.3C101.598 161.981 101.402 161.702 101.125 161.52Z" fill="white"/>
<path d="M123.125 161.52L122.021 160.893L123.133 160.258C123.42 160.08 123.626 159.799 123.707 159.474C123.789 159.149 123.74 158.805 123.57 158.515C123.401 158.226 123.125 158.012 122.799 157.92C122.474 157.827 122.125 157.863 121.825 158.02L120.714 158.655V157.393C120.728 157.215 120.704 157.037 120.645 156.868C120.586 156.7 120.492 156.546 120.37 156.415C120.247 156.284 120.099 156.18 119.934 156.108C119.769 156.037 119.59 156 119.41 156C119.23 156 119.051 156.037 118.886 156.108C118.721 156.18 118.573 156.284 118.45 156.415C118.328 156.546 118.234 156.7 118.175 156.868C118.116 157.037 118.092 157.215 118.106 157.393V158.655L117.002 158.02C116.853 157.928 116.687 157.866 116.514 157.839C116.34 157.811 116.163 157.819 115.993 157.861C115.822 157.902 115.662 157.978 115.521 158.082C115.381 158.187 115.263 158.318 115.175 158.469C115.088 158.619 115.031 158.785 115.01 158.958C114.988 159.13 115.002 159.305 115.051 159.472C115.099 159.639 115.181 159.795 115.292 159.93C115.403 160.065 115.54 160.176 115.695 160.258L116.807 160.893L115.695 161.52C115.54 161.601 115.403 161.713 115.292 161.848C115.181 161.983 115.099 162.138 115.051 162.305C115.002 162.472 114.988 162.647 115.01 162.82C115.031 162.992 115.088 163.159 115.175 163.309C115.263 163.459 115.381 163.591 115.521 163.695C115.662 163.8 115.822 163.875 115.993 163.917C116.163 163.959 116.34 163.966 116.514 163.939C116.687 163.911 116.853 163.85 117.002 163.757L118.106 163.123V164.392C118.132 164.717 118.28 165.02 118.522 165.241C118.764 165.463 119.081 165.585 119.41 165.585C119.739 165.585 120.056 165.463 120.298 165.241C120.54 165.02 120.688 164.717 120.714 164.392V163.123L121.825 163.757C122.124 163.902 122.466 163.929 122.783 163.833C123.101 163.737 123.37 163.525 123.535 163.24C123.7 162.956 123.75 162.62 123.674 162.3C123.598 161.981 123.402 161.702 123.125 161.52Z" fill="white"/>
<path d="M145.125 161.52L144.021 160.893L145.133 160.258C145.42 160.08 145.626 159.799 145.707 159.474C145.789 159.149 145.74 158.805 145.57 158.515C145.401 158.226 145.125 158.012 144.799 157.92C144.474 157.827 144.125 157.863 143.825 158.02L142.714 158.655V157.393C142.728 157.215 142.704 157.037 142.645 156.868C142.586 156.7 142.492 156.546 142.37 156.415C142.247 156.284 142.099 156.18 141.934 156.108C141.769 156.037 141.59 156 141.41 156C141.23 156 141.051 156.037 140.886 156.108C140.721 156.18 140.573 156.284 140.45 156.415C140.328 156.546 140.234 156.7 140.175 156.868C140.116 157.037 140.092 157.215 140.106 157.393V158.655L139.002 158.02C138.853 157.928 138.687 157.866 138.514 157.839C138.34 157.811 138.163 157.819 137.993 157.861C137.822 157.902 137.662 157.978 137.521 158.082C137.381 158.187 137.263 158.318 137.175 158.469C137.088 158.619 137.031 158.785 137.01 158.958C136.988 159.13 137.002 159.305 137.051 159.472C137.099 159.639 137.181 159.795 137.292 159.93C137.403 160.065 137.54 160.176 137.695 160.258L138.807 160.893L137.695 161.52C137.54 161.601 137.403 161.713 137.292 161.848C137.181 161.983 137.099 162.138 137.051 162.305C137.002 162.472 136.988 162.647 137.01 162.82C137.031 162.992 137.088 163.159 137.175 163.309C137.263 163.459 137.381 163.591 137.521 163.695C137.662 163.8 137.822 163.875 137.993 163.917C138.163 163.959 138.34 163.966 138.514 163.939C138.687 163.911 138.853 163.85 139.002 163.757L140.106 163.123V164.392C140.132 164.717 140.28 165.02 140.522 165.241C140.764 165.463 141.081 165.585 141.41 165.585C141.739 165.585 142.056 165.463 142.298 165.241C142.54 165.02 142.688 164.717 142.714 164.392V163.123L143.825 163.757C144.124 163.902 144.466 163.929 144.783 163.833C145.101 163.737 145.37 163.525 145.535 163.24C145.7 162.956 145.75 162.62 145.674 162.3C145.598 161.981 145.402 161.702 145.125 161.52Z" fill="white"/>
</g>
</svg>
