<svg width="12" height="15" viewBox="0 0 12 15" fill="none" xmlns="http://www.w3.org/2000/svg">
<path fill-rule="evenodd" clip-rule="evenodd" d="M8.01709 5.09224L7.19542 4.24678L3.08705 8.47576C2.40623 9.17621 2.40623 10.3125 3.08705 11.013C3.76746 11.7134 4.87125 11.7134 5.55207 11.013L10.4821 5.93853C11.6171 4.77097 11.6171 2.87753 10.4821 1.70997C9.34796 0.541989 7.5083 0.541989 6.37415 1.70997L1.1972 7.03734L1.1976 7.03776C1.19396 7.04151 1.18991 7.04526 1.18667 7.04859C-0.395557 8.67743 -0.395557 11.3176 1.18667 12.946C2.76849 14.5744 5.3339 14.5744 6.91653 12.946C6.92017 12.9423 6.92301 12.9385 6.92706 12.9348L6.92746 12.9352L10.4607 9.2983L9.63858 8.45284L6.10538 12.0897H6.10498C6.10133 12.093 6.09769 12.0972 6.09445 12.1005C4.96759 13.2602 3.13481 13.2602 2.00794 12.1005C0.881478 10.9409 0.881478 9.05454 2.00794 7.89489C2.01158 7.89114 2.01563 7.88739 2.01927 7.88406L2.01887 7.88322L7.19582 2.55543C7.87542 1.85581 8.98124 1.85581 9.66084 2.55543C10.3404 3.25505 10.3404 4.39345 9.66084 5.09266L4.73039 10.1667C4.50372 10.4 4.13539 10.4 3.90872 10.1667C3.68246 9.93375 3.68246 9.55415 3.90872 9.32122L8.01709 5.09224Z" fill="currentColor"/>
</svg>
