<svg width="70" height="70" viewBox="0 0 70 70" fill="none" xmlns="http://www.w3.org/2000/svg">
<rect width="70" height="70" rx="18" fill="#F0FBEA"/>
<path fill-rule="evenodd" clip-rule="evenodd" d="M22.6135 18.333C22.6312 18.333 22.6489 18.333 22.6667 18.333H29C29.0177 18.333 29.0355 18.333 29.0532 18.333C29.4738 18.333 29.8835 18.3329 30.2304 18.3613C30.6114 18.3924 31.0609 18.4658 31.5133 18.6963C32.1405 19.0159 32.6504 19.5258 32.97 20.153C33.2005 20.6054 33.274 21.055 33.3051 21.436C33.3334 21.7829 33.3334 22.1926 33.3333 22.6132V29.0528C33.3334 29.4735 33.3334 29.8831 33.3051 30.2301C33.274 30.6111 33.2005 31.0606 32.97 31.513C32.6504 32.1402 32.1405 32.6501 31.5133 32.9697C31.0609 33.2002 30.6114 33.2736 30.2304 33.3048C29.8834 33.3331 29.4738 33.3331 29.0531 33.333H22.6135C22.1929 33.3331 21.7832 33.3331 21.4363 33.3048C21.0553 33.2736 20.6057 33.2002 20.1534 32.9697C19.5262 32.6501 19.0162 32.1402 18.6966 31.513C18.4661 31.0606 18.3927 30.6111 18.3616 30.2301C18.3332 29.8831 18.3333 29.4735 18.3333 29.0528C18.3333 29.0351 18.3333 29.0174 18.3333 28.9997V22.6663C18.3333 22.6486 18.3333 22.6309 18.3333 22.6132C18.3333 22.1925 18.3332 21.7829 18.3616 21.436C18.3927 21.055 18.4661 20.6054 18.6966 20.153C19.0162 19.5258 19.5262 19.0159 20.1534 18.6963C20.6057 18.4658 21.0553 18.3924 21.4363 18.3613C21.7832 18.3329 22.1929 18.333 22.6135 18.333ZM21.6857 21.6854C21.6851 21.6923 21.6845 21.6997 21.6838 21.7074C21.668 21.9017 21.6667 22.1721 21.6667 22.6663V28.9997C21.6667 29.4939 21.668 29.7643 21.6838 29.9586C21.6845 29.9664 21.6851 29.9737 21.6857 29.9806C21.6927 29.9812 21.7 29.9819 21.7077 29.9825C21.902 29.9984 22.1725 29.9997 22.6667 29.9997H29C29.4942 29.9997 29.7646 29.9984 29.9589 29.9825C29.9667 29.9819 29.974 29.9812 29.9809 29.9806C29.9816 29.9737 29.9822 29.9664 29.9828 29.9586C29.9987 29.7643 30 29.4939 30 28.9997V22.6663C30 22.1721 29.9987 21.9017 29.9828 21.7074C29.9822 21.6997 29.9816 21.6923 29.9809 21.6854C29.974 21.6848 29.9667 21.6842 29.9589 21.6835C29.7646 21.6676 29.4942 21.6663 29 21.6663H22.6667C22.1725 21.6663 21.902 21.6676 21.7077 21.6835C21.7 21.6842 21.6927 21.6848 21.6857 21.6854ZM40.9468 18.333H47.3865C47.8071 18.333 48.2168 18.3329 48.5637 18.3613C48.9447 18.3924 49.3943 18.4658 49.8466 18.6963C50.4738 19.0159 50.9838 19.5258 51.3034 20.153C51.5339 20.6054 51.6073 21.055 51.6384 21.436C51.6668 21.7829 51.6667 22.1925 51.6667 22.6132V29.0529C51.6667 29.4735 51.6668 29.8831 51.6384 30.2301C51.6073 30.6111 51.5339 31.0606 51.3034 31.513C50.9838 32.1402 50.4738 32.6501 49.8466 32.9697C49.3943 33.2002 48.9447 33.2736 48.5637 33.3048C48.2168 33.3331 47.8071 33.3331 47.3865 33.333H40.9469C40.5262 33.3331 40.1166 33.3331 39.7696 33.3048C39.3886 33.2736 38.9391 33.2002 38.4867 32.9697C37.8595 32.6501 37.3496 32.1402 37.03 31.513C36.7995 31.0606 36.726 30.6111 36.6949 30.2301C36.6666 29.8831 36.6666 29.4735 36.6667 29.0528V22.6132C36.6666 22.1926 36.6666 21.7829 36.6949 21.436C36.726 21.055 36.7995 20.6054 37.03 20.153C37.3496 19.5258 37.8595 19.0159 38.4867 18.6963C38.9391 18.4658 39.3886 18.3924 39.7696 18.3613C40.1165 18.3329 40.5262 18.333 40.9468 18.333ZM40.0191 21.6854C40.0184 21.6923 40.0178 21.6997 40.0172 21.7074C40.0013 21.9017 40 22.1721 40 22.6663V28.9997C40 29.4939 40.0013 29.7643 40.0172 29.9586C40.0178 29.9664 40.0184 29.9737 40.0191 29.9806C40.026 29.9812 40.0333 29.9819 40.0411 29.9825C40.2354 29.9984 40.5058 29.9997 41 29.9997H47.3333C47.8275 29.9997 48.098 29.9984 48.2923 29.9825C48.3 29.9819 48.3073 29.9812 48.3143 29.9806C48.3149 29.9737 48.3155 29.9664 48.3162 29.9586C48.332 29.7643 48.3333 29.4939 48.3333 28.9997V22.6663C48.3333 22.1721 48.332 21.9017 48.3162 21.7074C48.3155 21.6997 48.3149 21.6923 48.3142 21.6854C48.3073 21.6848 48.3 21.6842 48.2923 21.6835C48.098 21.6676 47.8275 21.6663 47.3333 21.6663H41C40.5058 21.6663 40.2354 21.6676 40.0411 21.6835C40.0333 21.6842 40.026 21.6848 40.0191 21.6854ZM24.1667 25.833C24.1667 24.9125 24.9129 24.1663 25.8333 24.1663H25.85C26.7705 24.1663 27.5167 24.9125 27.5167 25.833C27.5167 26.7535 26.7705 27.4997 25.85 27.4997H25.8333C24.9129 27.4997 24.1667 26.7535 24.1667 25.833ZM42.5 25.833C42.5 24.9125 43.2462 24.1663 44.1667 24.1663H44.1833C45.1038 24.1663 45.85 24.9125 45.85 25.833C45.85 26.7535 45.1038 27.4997 44.1833 27.4997H44.1667C43.2462 27.4997 42.5 26.7535 42.5 25.833ZM35 36.6663C35 35.7459 35.7462 34.9997 36.6667 34.9997H36.6833C37.6038 34.9997 38.35 35.7459 38.35 36.6663C38.35 37.5868 37.6038 38.333 36.6833 38.333H36.6667C35.7462 38.333 35 37.5868 35 36.6663ZM22.6135 36.6663H29.0531C29.4738 36.6663 29.8834 36.6662 30.2304 36.6946C30.6114 36.7257 31.0609 36.7992 31.5133 37.0297C32.1405 37.3492 32.6504 37.8592 32.97 38.4864C33.2005 38.9388 33.274 39.3883 33.3051 39.7693C33.3334 40.1162 33.3334 40.5259 33.3333 40.9465V47.3862C33.3334 47.8068 33.3334 48.2165 33.3051 48.5634C33.274 48.9444 33.2005 49.3939 32.97 49.8463C32.6504 50.4735 32.1405 50.9835 31.5133 51.303C31.0609 51.5335 30.6114 51.607 30.2304 51.6381C29.8835 51.6665 29.4738 51.6664 29.0532 51.6664H22.6135C22.1928 51.6664 21.7832 51.6665 21.4363 51.6381C21.0553 51.607 20.6057 51.5335 20.1534 51.303C19.5262 50.9835 19.0162 50.4735 18.6966 49.8463C18.4661 49.3939 18.3927 48.9444 18.3616 48.5634C18.3332 48.2165 18.3333 47.8068 18.3333 47.3862V40.9465C18.3333 40.5259 18.3332 40.1162 18.3616 39.7693C18.3927 39.3883 18.4661 38.9388 18.6966 38.4864C19.0162 37.8592 19.5262 37.3492 20.1534 37.0297C20.6057 36.7992 21.0553 36.7257 21.4363 36.6946C21.7832 36.6662 22.1929 36.6663 22.6135 36.6663ZM21.6857 40.0188C21.6851 40.0257 21.6845 40.033 21.6838 40.0407C21.668 40.235 21.6667 40.5055 21.6667 40.9997V47.333C21.6667 47.8272 21.668 48.0977 21.6838 48.292C21.6845 48.2997 21.6851 48.307 21.6857 48.3139C21.6927 48.3146 21.7 48.3152 21.7077 48.3158C21.902 48.3317 22.1725 48.333 22.6667 48.333H29C29.4942 48.333 29.7646 48.3317 29.9589 48.3158C29.9667 48.3152 29.974 48.3146 29.9809 48.3139C29.9816 48.307 29.9822 48.2997 29.9828 48.292C29.9987 48.0977 30 47.8272 30 47.333V40.9997C30 40.5055 29.9987 40.235 29.9828 40.0407C29.9822 40.033 29.9816 40.0257 29.9809 40.0188C29.974 40.0181 29.9667 40.0175 29.9589 40.0169C29.7646 40.001 29.4942 39.9997 29 39.9997H22.6667C22.1725 39.9997 21.902 40.001 21.7077 40.0169C21.7 40.0175 21.6927 40.0181 21.6857 40.0188ZM40.8333 38.333C40.8333 37.4125 41.5795 36.6663 42.5 36.6663H50C50.9205 36.6663 51.6667 37.4125 51.6667 38.333C51.6667 39.2535 50.9205 39.9997 50 39.9997H42.5C41.5795 39.9997 40.8333 39.2535 40.8333 38.333ZM38.3333 40.833C39.2538 40.833 40 41.5792 40 42.4997V49.9997C40 50.9202 39.2538 51.6664 38.3333 51.6664C37.4129 51.6664 36.6667 50.9202 36.6667 49.9997V42.4997C36.6667 41.5792 37.4129 40.833 38.3333 40.833ZM50 41.6663C50.9205 41.6663 51.6667 42.4125 51.6667 43.333V49.9997C51.6667 50.9202 50.9205 51.6664 50 51.6664H43.3333C42.4129 51.6664 41.6667 50.9202 41.6667 49.9997C41.6667 49.0792 42.4129 48.333 43.3333 48.333H48.3333V43.333C48.3333 42.4125 49.0795 41.6663 50 41.6663ZM24.1667 44.1663C24.1667 43.2459 24.9129 42.4997 25.8333 42.4997H25.85C26.7705 42.4997 27.5167 43.2459 27.5167 44.1663C27.5167 45.0868 26.7705 45.833 25.85 45.833H25.8333C24.9129 45.833 24.1667 45.0868 24.1667 44.1663ZM42.5 44.1663C42.5 43.2459 43.2462 42.4997 44.1667 42.4997H44.1833C45.1038 42.4997 45.85 43.2459 45.85 44.1663C45.85 45.0868 45.1038 45.833 44.1833 45.833H44.1667C43.2462 45.833 42.5 45.0868 42.5 44.1663Z" fill="#62A446"/>
</svg>
