<svg width="20" height="20" viewBox="0 0 20 20" fill="none" xmlns="http://www.w3.org/2000/svg">
<path fill-rule="evenodd" clip-rule="evenodd" d="M0.833333 2.5C1.29357 2.5 1.66667 2.8731 1.66667 3.33333V7.5H5.83333C6.29357 7.5 6.66667 7.8731 6.66667 8.33333C6.66667 8.79357 6.29357 9.16667 5.83333 9.16667H0.833333C0.373096 9.16667 0 8.79357 0 8.33333V3.33333C0 2.8731 0.373096 2.5 0.833333 2.5Z" fill="currentColor"/>
<path fill-rule="evenodd" clip-rule="evenodd" d="M13.3333 11.6654C13.3333 11.2051 13.7063 10.832 14.1666 10.832H19.1666C19.6268 10.832 19.9999 11.2051 19.9999 11.6654V16.6654C19.9999 17.1256 19.6268 17.4987 19.1666 17.4987C18.7063 17.4987 18.3333 17.1256 18.3333 16.6654V12.4987H14.1666C13.7063 12.4987 13.3333 12.1256 13.3333 11.6654Z" fill="currentColor"/>
<path fill-rule="evenodd" clip-rule="evenodd" d="M7.68913 1.99612C9.04138 1.60498 10.4707 1.56277 11.8437 1.87342C13.2166 2.18408 14.4886 2.83748 15.5407 3.77265C16.5929 4.70782 17.391 5.89428 17.8606 7.22133C18.0141 7.65521 17.7869 8.13139 17.353 8.28493C16.9191 8.43846 16.4429 8.2112 16.2894 7.77733C15.9137 6.71569 15.2752 5.76651 14.4335 5.01838C13.5918 4.27024 12.5742 3.74752 11.4759 3.499C10.3775 3.25048 9.23403 3.28425 8.15223 3.59716C7.07042 3.91007 6.08551 4.49193 5.28941 5.28844C5.28325 5.2946 5.277 5.30066 5.27065 5.30662L1.40398 8.93996C1.06858 9.25512 0.541201 9.23871 0.226042 8.90331C-0.089118 8.56791 -0.0727107 8.04053 0.262689 7.72537L4.12008 4.10075C5.11355 3.10997 6.34116 2.38602 7.68913 1.99612ZM19.774 11.0953C20.0891 11.4307 20.0727 11.9581 19.7373 12.2733L15.8799 15.8979C14.8864 16.8887 13.6588 17.6126 12.3109 18.0025C10.9586 18.3937 9.52932 18.4359 8.15634 18.1252C6.78335 17.8146 5.51144 17.1612 4.45928 16.226C3.40712 15.2908 2.60901 14.1044 2.13941 12.7773C1.98587 12.3435 2.21313 11.8673 2.64701 11.7137C3.08088 11.5602 3.55707 11.7875 3.7106 12.2213C4.08628 13.283 4.72477 14.2321 5.5665 14.9803C6.40823 15.7284 7.42576 16.2511 8.52414 16.4997C9.62253 16.7482 10.766 16.7144 11.8478 16.4015C12.9296 16.0886 13.9145 15.5067 14.7106 14.7102C14.7143 14.7065 14.718 14.7028 14.7218 14.6992C14.7243 14.6968 14.7268 14.6944 14.7294 14.692L18.596 11.0587C18.9314 10.7435 19.4588 10.7599 19.774 11.0953Z" fill="currentColor"/>
</svg>
