<svg width="57" height="56" viewBox="0 0 57 56" fill="none" xmlns="http://www.w3.org/2000/svg">
<circle cx="28.0029" cy="28" r="28" fill="#F0FBEA"/>
<path d="M43.3731 32.4589L39.0292 38.1395C38.16 39.2761 36.8109 39.9428 35.38 39.9428H27.3141C26.6799 39.9428 26.1657 39.4286 26.1657 38.7943C26.1657 38.1601 26.6799 37.6459 27.3141 37.6459H34.305C35.8076 37.6459 37.0659 36.4162 37.0372 34.9139C37.0093 33.458 35.8204 32.2865 34.3579 32.2865H26.3188C24.0107 30.0671 20.4488 29.8074 17.8432 31.6686L16.9781 32.2865V45.3022H24.6344H26.1657H36.9507C39.2953 45.3022 41.479 44.1099 42.7469 42.1377L47.2288 35.1658C47.4733 34.7855 47.6032 34.343 47.6032 33.8909C47.6033 31.6365 44.7425 30.668 43.3731 32.4589Z" fill="#62A446"/>
<path d="M13.5328 29.9902H9.55152C8.91727 29.9902 8.40308 30.5044 8.40308 31.1387V46.4513C8.40308 47.0855 8.91727 47.5997 9.55152 47.5997H13.5328C14.167 47.5997 14.6812 47.0855 14.6812 46.4513V31.1387C14.6812 30.5044 14.167 29.9902 13.5328 29.9902Z" fill="#62A446"/>
<path d="M30.3237 14.7471C30.09 14.9262 29.9613 15.1975 29.917 15.4328C29.8558 15.7573 29.9332 16.0588 30.1143 16.2008C30.1781 16.2508 30.2484 16.2999 30.3237 16.3482V14.7471Z" fill="#F3B744"/>
<path d="M31.1423 27.5401C36.4194 27.5401 40.7126 23.2469 40.7126 17.9698C40.7126 12.6927 36.4194 8.39941 31.1423 8.39941C25.8652 8.39941 21.5719 12.6927 21.5719 17.9698C21.5719 23.2469 25.8652 27.5401 31.1423 27.5401ZM28.2452 21.0988C28.4766 20.7451 28.9512 20.6456 29.3051 20.8773C29.7186 21.1477 29.9777 21.265 30.3238 21.3137V18.0803C29.8348 17.8562 29.4693 17.6406 29.1694 17.4053C28.534 16.9069 28.2439 16.0424 28.4123 15.1488C28.5957 14.1751 29.2735 13.4003 30.181 13.127C30.2291 13.1125 30.2766 13.0993 30.3238 13.0868V12.6104C30.3238 12.1876 30.6667 11.8447 31.0894 11.8447C31.5122 11.8447 31.8551 12.1876 31.8551 12.6104V13.0029C32.5984 13.1316 33.1238 13.4976 33.3783 13.7897C33.656 14.1085 33.6227 14.5921 33.3039 14.8698C32.9867 15.1461 32.5066 15.1147 32.2281 14.8005C32.2106 14.7828 32.089 14.6657 31.8551 14.5794V17.0533C31.991 17.1038 32.1268 17.1527 32.2601 17.1999C33.6059 17.6756 34.3545 18.9215 34.1228 20.3C33.9426 21.3715 33.1272 22.4581 31.8551 22.7808V23.3292C31.8551 23.752 31.5122 24.0948 31.0894 24.0948C30.6667 24.0948 30.3238 23.752 30.3238 23.3292V22.8543C29.7056 22.8009 29.1932 22.6339 28.4668 22.1587C28.1129 21.9272 28.0137 21.4527 28.2452 21.0988Z" fill="#F3B744"/>
<path d="M32.6128 20.0459C32.6631 19.7467 32.6837 19.0335 31.8551 18.6846V21.1438C32.2858 20.8972 32.543 20.4609 32.6128 20.0459Z" fill="#F3B744"/>
</svg>
