<svg width="34" height="34" viewBox="0 0 34 34" fill="none" xmlns="http://www.w3.org/2000/svg">
<circle cx="17" cy="17" r="17" fill="#62A446"/>
<mask id="mask0_5935_15554" style="mask-type:alpha" maskUnits="userSpaceOnUse" x="5" y="8" width="22" height="22">
<path fill-rule="evenodd" clip-rule="evenodd" d="M26.7071 8.29292C27.0976 8.68345 27.0976 9.31661 26.7071 9.70713L15.7071 20.7071C15.3166 21.0977 14.6834 21.0977 14.2929 20.7071C13.9024 20.3166 13.9024 19.6834 14.2929 19.2929L25.2929 8.29292C25.6834 7.9024 26.3166 7.9024 26.7071 8.29292Z" fill="#ffffff"/>
<path fill-rule="evenodd" clip-rule="evenodd" d="M26.7071 8.29292C26.9787 8.56456 27.0708 8.96779 26.9439 9.33038L19.9439 29.3304C19.8084 29.7174 19.4504 29.9825 19.0408 29.9992C18.6311 30.0159 18.2527 29.7808 18.0862 29.4062L14.2424 20.7576L5.59387 16.9138C5.21919 16.7473 4.98412 16.3689 5.00084 15.9593C5.01755 15.5496 5.28265 15.1916 5.66965 15.0562L25.6697 8.05617C26.0322 7.92926 26.4355 8.02128 26.7071 8.29292ZM8.71108 16.1106L15.4061 19.0862C15.6324 19.1868 15.8133 19.3677 15.9138 19.5939L18.8894 26.289L24.37 10.63L8.71108 16.1106Z" fill="#ffffff"/>
</mask>
<g mask="url(#mask0_5935_15554)">
<rect x="4" y="7" width="24" height="24" fill="white"/>
</g>
</svg>
