<svg width="43" height="42" viewBox="0 0 43 42" fill="none" xmlns="http://www.w3.org/2000/svg">
<path d="M42.9864 13.6468C42.9927 13.4987 42.9981 13.3506 42.9981 13.201C42.9981 7.20093 37.9574 2 31.7403 2C27.1917 2 23.2773 4.93967 21.4999 8.68161H21.4976C19.72 4.93967 15.8051 2 11.2596 2C5.04134 2 0.000630213 7.20093 0.000630213 13.201C0.000630213 13.3506 0.00603169 13.4987 0.012286 13.6468C0.012286 13.6468 -0.624804 20.7745 7.27642 28.5563C10.8687 32.1699 14.8862 35.6041 21.4988 41C28.1113 35.6041 32.1289 32.1699 35.7211 28.5563C43.6221 20.7745 42.9864 13.6468 42.9864 13.6468Z" fill="#EC1C24"/>
</svg>
