<svg width="42" height="42" viewBox="0 0 42 42" fill="none" xmlns="http://www.w3.org/2000/svg">
<g clip-path="url(#clip0_7764_17481)">
<path d="M20.9997 41.3432C32.2351 41.3432 41.3432 32.2351 41.3432 20.9997C41.3432 9.76433 32.2351 0.65625 20.9997 0.65625C9.76433 0.65625 0.65625 9.76433 0.65625 20.9997C0.65625 32.2351 9.76433 41.3432 20.9997 41.3432Z" fill="#F6CB79"/>
<path d="M23.9533 38.3892C12.7179 38.3892 3.60986 29.2811 3.60986 18.0457C3.60986 13.1803 5.32012 8.71552 8.16923 5.21484C3.58615 8.94504 0.656738 14.629 0.656738 20.9989C0.656738 32.2342 9.76473 41.3424 21.0002 41.3424C27.3702 41.3424 33.0541 38.4129 36.7842 33.8297C33.2835 36.6789 28.8188 38.3892 23.9533 38.3892Z" fill="#EDA418"/>
<path d="M11.1562 19.1961C10.7032 19.1961 10.3359 18.8288 10.3359 18.3758C10.3359 17.9233 10.7025 17.5561 11.1549 17.5555C11.1902 17.5555 14.7232 17.5183 15.6563 15.4176C15.8396 15.0042 16.3235 14.8158 16.7394 15.001C17.1534 15.1849 17.3398 15.67 17.1559 16.0841C15.7883 19.1608 11.3447 19.1961 11.1562 19.1961Z" fill="#B77901"/>
<path d="M30.8431 19.196C30.6546 19.196 26.2109 19.1607 24.8433 16.0841C24.6594 15.67 24.8459 15.1849 25.2599 15.001C25.6745 14.8158 26.1584 15.0042 26.3429 15.4176C27.276 17.5183 30.809 17.5555 30.8443 17.5555C31.2968 17.5573 31.6633 17.9246 31.6627 18.3771C31.6621 18.8294 31.2956 19.196 30.8431 19.196Z" fill="#B77901"/>
<path d="M13.1253 28.875H2.62549C2.26275 28.875 1.96924 29.1685 1.96924 29.5312C1.96924 29.894 2.26275 30.1875 2.62549 30.1875H13.1253V28.875Z" fill="#FDF1DA"/>
<path d="M13.1252 23.8789L0.836681 20.368C0.491248 20.2718 0.125308 20.4699 0.0253118 20.8192C-0.0740279 21.1671 0.127851 21.5305 0.476483 21.6305L13.1251 25.2444L13.1252 23.8789Z" fill="#FDF1DA"/>
<path d="M28.875 28.875H39.3748C39.7376 28.875 40.0311 29.1685 40.0311 29.5312C40.0311 29.894 39.7376 30.1875 39.3748 30.1875H28.875V28.875Z" fill="#FDF1DA"/>
<path d="M28.875 23.8789L41.1635 20.368C41.5089 20.2718 41.8749 20.4699 41.9749 20.8192C42.0742 21.1671 41.8723 21.5305 41.5237 21.6305L28.8751 25.2444L28.875 23.8789Z" fill="#FDF1DA"/>
<path d="M11.8125 23.625V31.3161C11.8125 32.2215 12.4306 33.0092 13.3082 33.2321C18.3555 34.5141 23.6442 34.5141 28.6915 33.2321C29.5691 33.0092 30.1872 32.2214 30.1872 31.3161V23.625C30.1872 22.9001 29.5996 22.3125 28.8747 22.3125H13.1249C12.4 22.3125 11.8125 22.9001 11.8125 23.625Z" fill="white"/>
</g>
<defs>
<clipPath id="clip0_7764_17481">
<rect width="42" height="42" fill="white"/>
</clipPath>
</defs>
</svg>
