<svg width="390" height="439" viewBox="0 0 390 439" fill="none" xmlns="http://www.w3.org/2000/svg">
<g clip-path="url(#clip0_6612_16594)">
<path opacity="0.5" d="M-424 -44C-354.521 164.64 -197 318.598 -127.521 345.674C-58.0422 372.749 -25 362.014 42.5 222.507C110 83 367.331 -63.3 493.731 39.5" stroke="url(#paint0_radial_6612_16594)" stroke-width="12"/>
</g>
<g clip-path="url(#clip1_6612_16594)">
<g filter="url(#filter0_d_6612_16594)">
<circle cx="330" cy="279" r="60" fill="white"/>
</g>
<circle cx="329.88" cy="278.88" r="44.88" fill="white"/>
<path d="M322.962 272.917V269.476C322.962 268.554 322.591 267.669 321.93 267.017C321.27 266.364 320.374 265.997 319.439 265.997H302.144C301.682 265.997 301.224 266.087 300.796 266.262C300.369 266.437 299.981 266.694 299.653 267.017C299.326 267.34 299.067 267.723 298.89 268.145C298.713 268.567 298.622 269.019 298.623 269.476V314.234C298.622 314.691 298.713 315.143 298.89 315.565C299.067 315.987 299.327 316.37 299.654 316.693C299.981 317.016 300.37 317.273 300.797 317.447C301.225 317.622 301.683 317.712 302.146 317.712H361.787C362.249 317.712 362.708 317.622 363.135 317.447C363.563 317.273 363.951 317.016 364.278 316.693C364.606 316.37 364.865 315.987 365.042 315.565C365.219 315.143 365.31 314.691 365.31 314.234V279.874C365.31 279.417 365.219 278.965 365.042 278.542C364.865 278.12 364.606 277.737 364.278 277.414C363.951 277.091 363.563 276.834 363.135 276.66C362.708 276.485 362.249 276.395 361.787 276.395H326.483C325.549 276.394 324.654 276.027 323.994 275.375C323.334 274.723 322.963 273.839 322.962 272.917Z" fill="#387E1B"/>
<path d="M363.046 239.13L322.772 239.206C322.523 239.206 322.321 239.406 322.321 239.653L322.419 290.119C322.42 290.365 322.622 290.564 322.872 290.564L363.145 290.487C363.395 290.487 363.597 290.287 363.596 290.041L363.498 239.575C363.498 239.328 363.295 239.129 363.046 239.13Z" fill="#F2F2F2"/>
<path opacity="0.23" d="M358.229 256.4L331.289 256.451L331.291 257.248L358.23 257.197L358.229 256.4Z" fill="#0E2E01"/>
<path opacity="0.23" d="M358.235 260.004L326.582 260.064L326.583 260.72L358.237 260.66L358.235 260.004Z" fill="#0E2E01"/>
<path opacity="0.23" d="M358.241 263.941L326.588 264.001L326.589 264.657L358.243 264.597L358.241 263.941Z" fill="#0E2E01"/>
<path opacity="0.23" d="M358.251 268.244L326.598 268.304L326.599 268.96L358.252 268.9L358.251 268.244Z" fill="#0E2E01"/>
<path d="M346.537 276.529L326.614 276.567L326.616 277.223L346.539 277.185L346.537 276.529Z" fill="#E6E6E7"/>
<path opacity="0.23" d="M346.529 272.602L326.606 272.64L326.607 273.296L346.53 273.258L346.529 272.602Z" fill="#0E2E01"/>
<path d="M358.274 279.968L326.621 280.028L326.622 280.684L358.275 280.624L358.274 279.968Z" fill="#E6E6E7"/>
<path d="M358.282 283.906L326.628 283.966L326.63 284.622L358.283 284.562L358.282 283.906Z" fill="#E6E6E7"/>
<path d="M358.29 288.208L326.637 288.268L326.638 288.924L358.291 288.864L358.29 288.208Z" fill="#E6E6E7"/>
<path d="M359.143 243.183L326.36 243.245L326.38 253.41L359.163 253.348L359.143 243.183Z" fill="#3E8BEF"/>
<path d="M357.955 269.538L348.114 269.556L348.133 279.034L357.973 279.015L357.955 269.538Z" fill="#82AFE9"/>
<path d="M319.598 272.917V269.476C319.598 269.019 319.507 268.567 319.33 268.145C319.153 267.723 318.893 267.339 318.566 267.016C318.239 266.693 317.85 266.437 317.423 266.262C316.995 266.087 316.537 265.997 316.074 265.997H298.78C297.845 265.998 296.95 266.365 296.289 267.017C295.629 267.669 295.258 268.554 295.258 269.476V314.234C295.258 315.156 295.629 316.041 296.29 316.693C296.95 317.345 297.847 317.712 298.781 317.712H358.422C358.885 317.712 359.343 317.622 359.771 317.447C360.198 317.273 360.587 317.016 360.914 316.694C361.241 316.371 361.501 315.987 361.678 315.565C361.855 315.143 361.947 314.691 361.947 314.234V279.874C361.947 279.417 361.855 278.964 361.678 278.542C361.501 278.12 361.241 277.737 360.914 277.414C360.587 277.091 360.198 276.834 359.771 276.66C359.343 276.485 358.885 276.395 358.422 276.395H323.129C322.666 276.396 322.207 276.306 321.779 276.132C321.35 275.958 320.961 275.702 320.633 275.379C320.305 275.056 320.045 274.672 319.867 274.25C319.689 273.827 319.598 273.374 319.598 272.917Z" fill="#82C167"/>
<path d="M300.436 350.752C301.871 350.752 302.968 351.171 303.725 352.007C304.483 352.835 304.862 353.958 304.862 355.376C304.862 356.777 304.483 357.899 303.725 358.745C302.977 359.582 301.88 360 300.436 360H297.582V350.752H300.436ZM300.37 358.917C301.497 358.917 302.321 358.595 302.84 357.952C303.369 357.301 303.633 356.433 303.633 355.35C303.633 354.275 303.369 353.421 302.84 352.787C302.321 352.153 301.497 351.836 300.37 351.836H298.785V358.917H300.37ZM309.344 360.132C308.393 360.132 307.601 359.806 306.967 359.155C306.341 358.494 306.029 357.675 306.029 356.697C306.029 355.702 306.341 354.883 306.967 354.24C307.592 353.588 308.384 353.262 309.344 353.262C310.296 353.262 311.088 353.588 311.722 354.24C312.357 354.892 312.674 355.711 312.674 356.697C312.674 357.684 312.357 358.503 311.722 359.155C311.097 359.806 310.304 360.132 309.344 360.132ZM307.786 358.415C308.191 358.881 308.71 359.115 309.344 359.115C309.979 359.115 310.498 358.881 310.903 358.415C311.317 357.939 311.524 357.367 311.524 356.697C311.524 356.019 311.317 355.447 310.903 354.98C310.498 354.513 309.979 354.28 309.344 354.28C308.702 354.28 308.182 354.513 307.786 354.98C307.389 355.447 307.191 356.019 307.191 356.697C307.191 357.367 307.389 357.939 307.786 358.415ZM316.924 360.132C315.937 360.132 315.14 359.811 314.532 359.168C313.934 358.525 313.634 357.715 313.634 356.737C313.634 355.733 313.942 354.905 314.559 354.253C315.175 353.593 315.959 353.262 316.91 353.262C317.668 353.262 318.324 353.474 318.879 353.897C319.443 354.311 319.782 354.887 319.896 355.627H318.734C318.645 355.24 318.438 354.918 318.113 354.663C317.787 354.407 317.386 354.28 316.91 354.28C316.294 354.28 315.787 354.513 315.391 354.98C314.995 355.447 314.797 356.032 314.797 356.737C314.797 357.424 314.99 357.992 315.378 358.441C315.765 358.89 316.281 359.115 316.924 359.115C317.875 359.115 318.487 358.692 318.76 357.847H319.923C319.799 358.542 319.465 359.097 318.918 359.511C318.381 359.925 317.716 360.132 316.924 360.132ZM326.601 353.395V360H325.557L325.451 359.207H325.359C324.91 359.824 324.271 360.132 323.443 360.132C322.721 360.132 322.14 359.908 321.699 359.458C321.259 359.009 321.039 358.371 321.039 357.543V353.395H322.188V357.292C322.188 357.899 322.329 358.357 322.611 358.666C322.902 358.965 323.276 359.115 323.734 359.115C324.227 359.115 324.637 358.952 324.962 358.626C325.288 358.291 325.451 357.803 325.451 357.16V353.395H326.601ZM328.154 360V353.395H329.198L329.303 354.187H329.396C329.819 353.571 330.413 353.262 331.179 353.262C332.051 353.262 332.65 353.65 332.976 354.425H333.055C333.487 353.65 334.165 353.262 335.09 353.262C335.742 353.262 336.266 353.461 336.662 353.857C337.058 354.253 337.256 354.826 337.256 355.574V360H336.094V355.799C336.094 355.306 335.966 354.931 335.711 354.676C335.455 354.412 335.138 354.28 334.76 354.28C334.319 354.28 333.963 354.438 333.69 354.755C333.416 355.064 333.28 355.469 333.28 355.971V360H332.117V355.891C332.117 355.372 331.99 354.975 331.734 354.702C331.488 354.421 331.171 354.28 330.783 354.28C330.396 354.28 330.052 354.425 329.753 354.716C329.453 354.997 329.303 355.407 329.303 355.944V360H328.154ZM344.593 356.565C344.593 356.627 344.584 356.763 344.566 356.975H339.639C339.674 357.635 339.872 358.168 340.233 358.573C340.603 358.978 341.092 359.181 341.699 359.181C342.131 359.181 342.497 359.088 342.796 358.903C343.104 358.71 343.316 358.432 343.43 358.071H344.553C344.412 358.723 344.086 359.229 343.575 359.59C343.065 359.952 342.439 360.132 341.699 360.132C340.757 360.132 339.986 359.824 339.388 359.207C338.789 358.591 338.489 357.776 338.489 356.763C338.489 355.715 338.789 354.87 339.388 354.227C339.986 353.584 340.739 353.262 341.647 353.262C342.492 353.262 343.192 353.549 343.747 354.121C344.311 354.694 344.593 355.508 344.593 356.565ZM342.954 354.742C342.62 354.39 342.184 354.214 341.647 354.214C341.109 354.214 340.656 354.399 340.286 354.768C339.925 355.13 339.713 355.583 339.652 356.129H343.47C343.461 355.557 343.289 355.094 342.954 354.742ZM345.907 360V353.395H346.95L347.056 354.187H347.149C347.598 353.571 348.236 353.262 349.064 353.262C349.786 353.262 350.368 353.487 350.808 353.936C351.248 354.385 351.469 355.024 351.469 355.852V360H350.319V356.103C350.319 355.495 350.174 355.042 349.883 354.742C349.601 354.434 349.232 354.28 348.774 354.28C348.289 354.28 347.88 354.447 347.545 354.782C347.219 355.108 347.056 355.592 347.056 356.235V360H345.907ZM355.259 360.132C354.634 360.132 354.194 359.978 353.938 359.67C353.692 359.353 353.568 358.965 353.568 358.507V354.333H352.168V353.395H352.617C353.005 353.395 353.278 353.324 353.436 353.183C353.595 353.033 353.674 352.778 353.674 352.417V351.598H354.731V353.395H356.382V354.333H354.731V358.349C354.731 358.903 355.008 359.181 355.563 359.181C355.775 359.181 355.995 359.146 356.224 359.075V359.987C355.872 360.084 355.55 360.132 355.259 360.132ZM359.547 360.132C358.728 360.132 358.099 359.938 357.658 359.551C357.227 359.163 356.993 358.644 356.958 357.992H358.081C358.16 358.811 358.649 359.221 359.547 359.221C359.9 359.221 360.19 359.146 360.419 358.996C360.657 358.837 360.776 358.604 360.776 358.296C360.776 357.97 360.653 357.719 360.406 357.543C360.168 357.367 359.838 357.217 359.415 357.094L358.966 356.975C358.72 356.904 358.513 356.834 358.345 356.763C358.178 356.693 357.993 356.592 357.79 356.459C357.588 356.319 357.434 356.138 357.328 355.918C357.222 355.698 357.17 355.442 357.17 355.152C357.17 354.579 357.385 354.121 357.817 353.778C358.257 353.434 358.786 353.262 359.402 353.262C360.142 353.262 360.714 353.447 361.12 353.817C361.525 354.187 361.741 354.632 361.767 355.152H360.644C360.618 354.861 360.494 354.628 360.274 354.451C360.054 354.266 359.768 354.174 359.415 354.174C359.09 354.174 358.816 354.253 358.596 354.412C358.385 354.57 358.279 354.799 358.279 355.099C358.279 355.248 358.31 355.381 358.372 355.495C358.433 355.601 358.53 355.693 358.662 355.773C358.803 355.852 358.927 355.913 359.032 355.957C359.147 356.001 359.31 356.054 359.521 356.116L359.944 356.248C360.525 356.407 360.992 356.64 361.344 356.948C361.705 357.248 361.886 357.688 361.886 358.269C361.886 358.886 361.666 359.353 361.225 359.67C360.785 359.978 360.226 360.132 359.547 360.132Z" fill="#253545"/>
<g filter="url(#filter1_d_6612_16594)">
<circle cx="51.3141" cy="127.179" r="61.6861" fill="white"/>
</g>
<ellipse cx="51.1905" cy="126.932" rx="46.1412" ry="46.0174" fill="white"/>
<path d="M42.4814 123.844C42.4814 124.589 41.8763 125.192 41.1296 125.192H26.1373L31.5578 137.694C31.8519 138.378 31.534 139.171 30.8478 139.464C30.6742 139.538 30.4937 139.573 30.3161 139.573C29.7916 139.573 29.2925 139.267 29.073 138.756L23.1918 125.192H17.6985C16.9517 125.192 16.3467 124.589 16.3467 123.844C16.3467 123.1 16.9517 122.496 17.6985 122.496H41.1296C41.8763 122.496 42.4814 123.1 42.4814 123.844Z" fill="#865B47"/>
<path d="M31.8689 92.0358C31.5445 94.0472 32.8833 95.9512 34.8899 96.3325C35.7756 96.5007 36.1103 97.5897 35.4712 98.224C34.0233 99.6612 33.9842 101.986 35.3828 103.471C36.0002 104.126 35.6292 105.204 34.7383 105.342C32.72 105.656 31.3179 107.514 31.5746 109.535C31.6878 110.427 30.7527 111.081 29.9503 110.671C28.1324 109.742 25.903 110.423 24.9192 112.209C24.485 112.997 23.3432 112.978 22.9357 112.176C22.0127 110.358 19.8075 109.603 17.9593 110.47C17.1435 110.853 16.231 110.169 16.3741 109.281C16.6985 107.269 15.3597 105.365 13.3531 104.984C12.4674 104.816 12.1327 103.727 12.7718 103.093C14.2197 101.655 14.2588 99.3302 12.8602 97.8455C12.2428 97.1901 12.6138 96.113 13.5047 95.9744C15.523 95.6605 16.9251 93.8024 16.6686 91.7812C16.5554 90.8891 17.4905 90.2352 18.2929 90.6454C20.1108 91.5745 22.3402 90.8932 23.3239 89.1077C23.7581 88.3197 24.9 88.3387 25.3075 89.141C26.2305 90.9585 28.4357 91.714 30.2839 90.8461C31.0996 90.4631 32.0122 91.148 31.8689 92.0358Z" fill="#FFDE91"/>
<path d="M30.7802 100.659C30.7802 104.328 27.7983 107.302 24.12 107.302C20.4417 107.302 17.46 104.328 17.46 100.659C17.46 96.9907 20.4418 94.0168 24.1202 94.0168C27.7985 94.0168 30.7802 96.9907 30.7802 100.659Z" fill="#FFC14F"/>
<path d="M28.1181 100.658C28.1181 102.86 26.3291 104.644 24.1221 104.644C21.915 104.644 20.126 102.86 20.126 100.658C20.126 98.4573 21.915 96.6731 24.1221 96.6731C26.3291 96.6731 28.1181 98.4575 28.1181 100.658Z" fill="#FFA90B"/>
<path d="M73.8621 143.618L66.7221 134.541L60.8384 86.0964H85.0254L88.3851 105.363C90.9028 119.802 85.3372 134.463 73.8621 143.618Z" fill="#387E1B"/>
<path d="M39.4032 161.393C39.2577 161.442 39.1097 161.466 38.9641 161.466C38.4026 161.466 37.8782 161.114 37.6857 160.555L31.8951 143.729L26.3151 160.541C26.1271 161.107 25.5988 161.466 25.032 161.466C24.8912 161.466 24.7481 161.444 24.6071 161.398C23.8983 161.163 23.514 160.401 23.7485 159.694L30.4181 139.599C30.6251 138.975 31.2457 138.603 31.8762 138.686C32.5 138.605 33.1157 138.969 33.3278 139.585L40.2431 159.68C40.4853 160.384 40.1093 161.151 39.4032 161.393Z" fill="#865B47"/>
<path d="M47.2974 86.0964H85.1476L72.5309 141.821H34.6807C39.636 124.155 43.7225 106.259 46.9252 88.1954L47.2974 86.0964Z" fill="#82C167"/>
<path d="M40.3158 141.82H34.6807C39.636 124.155 43.7225 106.259 46.9252 88.1953L47.2974 86.0964H52.9326L52.5604 88.1953C49.3575 106.259 45.2712 124.155 40.3158 141.82Z" fill="#ADDE98"/>
<path d="M74.3324 86.0964L73.9602 88.1954C70.7574 106.259 66.671 124.155 61.7157 141.82V141.821H45.4941C50.4495 124.155 54.5358 106.259 57.7387 88.1956L58.1109 86.0964H74.3324Z" fill="#62A446"/>
<path d="M86.4981 86.0946C86.4981 86.8394 85.8931 87.4428 85.1464 87.4428H47.2961C46.5494 87.4428 45.9443 86.8394 45.9443 86.0946C45.9443 85.3499 46.5494 84.7465 47.2961 84.7465H85.1464C85.8931 84.7465 86.4981 85.3499 86.4981 86.0946Z" fill="#4D8E31"/>
<path d="M68.9273 145.416H23.8675C21.8766 145.416 20.2627 143.806 20.2627 141.821C20.2627 139.835 21.8766 138.226 23.8675 138.226H72.5321L68.9273 145.416Z" fill="#ADDE98"/>
<path d="M33.0202 145.416H23.8675C21.8766 145.416 20.2627 143.806 20.2627 141.821C20.2627 139.835 21.8766 138.226 23.8675 138.226H33.0202C31.0293 138.226 29.4154 139.835 29.4154 141.821C29.4154 143.806 31.0295 145.416 33.0202 145.416Z" fill="#82C167"/>
<path d="M86.9493 122.496H76.9388C76.9197 122.496 76.9006 122.496 76.8817 122.496H52.7038C51.9571 122.496 51.3521 123.1 51.3521 123.845C51.3521 124.589 51.9571 125.193 52.7038 125.193H64.7368L70.1081 140.046L63.587 159.694C63.3524 160.4 63.7368 161.163 64.4457 161.397C64.5867 161.444 64.7298 161.466 64.8705 161.466C65.4376 161.466 65.9657 161.107 66.1537 160.541L71.5931 144.153L77.5244 160.555C77.7167 161.114 78.2414 161.466 78.8028 161.466C78.9485 161.466 79.0964 161.442 79.2419 161.392C79.9481 161.151 80.324 160.384 80.0816 159.68L72.9683 140.009L77.886 125.193H86.9495C87.6962 125.193 88.3013 124.589 88.3013 123.845C88.3013 123.1 87.696 122.496 86.9493 122.496ZM71.4835 135.903L67.6105 125.193H75.038L71.4835 135.903Z" fill="#865B47"/>
<path d="M85.619 156.912C77.1551 166.868 64.5216 173.188 50.4082 173.188C35.3137 173.188 21.9122 165.959 13.4941 154.784C14.8486 153.962 16.3362 153.245 17.9652 152.696C26.4822 149.823 30.3633 154.379 43.1986 155.752C61.8696 157.748 68.1792 149.66 81.7698 155.212C82.7242 155.602 84.1322 156.177 85.619 156.912Z" fill="#FFDE91"/>
<path d="M50.1795 173.187C35.1785 173.115 21.8699 165.903 13.4941 154.784C14.8488 153.962 16.3363 153.245 17.9653 152.696C23.6865 150.766 27.316 152.189 32.9728 153.746C32.139 153.897 31.2677 154.121 30.3418 154.433C30.3256 154.439 30.3092 154.444 30.293 154.45C27.9026 155.262 27.1734 158.279 28.8871 160.129C34.5677 166.261 41.9002 170.848 50.1795 173.187Z" fill="#FFCD71"/>
<path d="M32.5818 161.217C32.5818 162.21 31.7749 163.014 30.7794 163.014C29.784 163.014 28.9771 162.21 28.9771 161.217C28.9771 160.224 29.784 159.419 30.7794 159.419C31.7749 159.419 32.5818 160.224 32.5818 161.217ZM56.3833 164.669C55.3878 164.669 54.5809 165.473 54.5809 166.466C54.5809 167.459 55.3878 168.264 56.3833 168.264C57.3788 168.264 58.1857 167.459 58.1857 166.466C58.1857 165.473 57.3788 164.669 56.3833 164.669ZM71.3246 156.816C70.3291 156.816 69.5222 157.621 69.5222 158.613C69.5222 159.606 70.3291 160.411 71.3246 160.411C72.3201 160.411 73.127 159.606 73.127 158.613C73.127 157.621 72.3199 156.816 71.3246 156.816ZM35.8004 164.669C34.8049 164.669 33.998 165.473 33.998 166.466C33.998 167.459 34.8049 168.264 35.8004 168.264C36.7958 168.264 37.6028 167.459 37.6028 166.466C37.6028 165.473 36.7958 164.669 35.8004 164.669ZM48.1981 158.613C47.2027 158.613 46.3957 159.418 46.3957 160.411C46.3957 161.404 47.2027 162.208 48.1981 162.208C49.1936 162.208 50.0005 161.404 50.0005 160.411C50.0005 159.418 49.1936 158.613 48.1981 158.613Z" fill="#E4AB45"/>
<path d="M32.4451 208.976H37.3346V210.09H31.2363V200.582H32.4451V208.976ZM44.1919 206.559C44.1919 206.622 44.1829 206.762 44.1648 206.98H39.0986C39.1348 207.659 39.3386 208.207 39.7098 208.623C40.0901 209.04 40.5927 209.248 41.2174 209.248C41.6611 209.248 42.0369 209.153 42.3448 208.963C42.6617 208.763 42.879 208.478 42.9967 208.107H44.1512C44.0063 208.777 43.6713 209.298 43.1461 209.669C42.6209 210.04 41.978 210.226 41.2174 210.226C40.2486 210.226 39.4563 209.909 38.8406 209.275C38.2248 208.641 37.917 207.804 37.917 206.762C37.917 205.685 38.2248 204.816 38.8406 204.155C39.4563 203.494 40.2305 203.163 41.1631 203.163C42.0324 203.163 42.7522 203.457 43.3227 204.046C43.9022 204.634 44.1919 205.472 44.1919 206.559ZM42.5078 204.684C42.1637 204.322 41.7155 204.141 41.1631 204.141C40.6108 204.141 40.1445 204.331 39.7642 204.711C39.3929 205.083 39.1756 205.549 39.1122 206.11H43.0375C43.0284 205.522 42.8518 205.046 42.5078 204.684ZM51.2602 209.166H51.4368V210.09H50.8935C50.2234 210.09 49.8205 209.8 49.6847 209.221C49.1595 209.891 48.4125 210.226 47.4436 210.226C46.7735 210.226 46.2303 210.063 45.8137 209.737C45.4063 209.402 45.2025 208.917 45.2025 208.284C45.2025 207.668 45.4108 207.188 45.8273 206.844C46.2529 206.491 46.8143 206.278 47.5115 206.205L49.5352 206.015V205.635C49.5352 205.164 49.413 204.797 49.1685 204.535C48.9241 204.272 48.5754 204.141 48.1227 204.141C47.3078 204.141 46.8188 204.571 46.6558 205.431H45.4742C45.5466 204.761 45.8137 204.218 46.2755 203.801C46.7464 203.376 47.3621 203.163 48.1227 203.163C48.9105 203.163 49.5398 203.38 50.0106 203.815C50.4905 204.25 50.7305 204.865 50.7305 205.662V208.61C50.7305 208.981 50.907 209.166 51.2602 209.166ZM49.5352 207.482V206.885L47.8918 207.048C47.43 207.093 47.0633 207.215 46.7917 207.414C46.5291 207.613 46.3978 207.89 46.3978 208.243C46.3978 208.596 46.511 208.859 46.7373 209.031C46.9637 209.194 47.2534 209.275 47.6066 209.275C48.1227 209.275 48.5709 209.13 48.9512 208.84C49.3406 208.542 49.5352 208.089 49.5352 207.482ZM54.0174 210.09L51.4368 203.299H52.6727L54.7101 208.854H54.8051L56.8425 203.299H58.0784L55.4978 210.09H54.0174ZM64.6257 206.559C64.6257 206.622 64.6166 206.762 64.5985 206.98H59.5324C59.5686 207.659 59.7723 208.207 60.1436 208.623C60.5239 209.04 61.0264 209.248 61.6512 209.248C62.0949 209.248 62.4706 209.153 62.7785 208.963C63.0954 208.763 63.3127 208.478 63.4304 208.107H64.5849C64.44 208.777 64.105 209.298 63.5798 209.669C63.0547 210.04 62.4118 210.226 61.6512 210.226C60.6823 210.226 59.89 209.909 59.2743 209.275C58.6586 208.641 58.3507 207.804 58.3507 206.762C58.3507 205.685 58.6586 204.816 59.2743 204.155C59.89 203.494 60.6642 203.163 61.5968 203.163C62.4661 203.163 63.186 203.457 63.7564 204.046C64.3359 204.634 64.6257 205.472 64.6257 206.559ZM62.9415 204.684C62.5974 204.322 62.1492 204.141 61.5968 204.141C61.0445 204.141 60.5782 204.331 60.1979 204.711C59.8266 205.083 59.6093 205.549 59.5459 206.11H63.4712C63.4621 205.522 63.2856 205.046 62.9415 204.684ZM68.2883 210.226C67.4462 210.226 66.7988 210.027 66.346 209.628C65.9024 209.23 65.6624 208.696 65.6262 208.025H66.7807C66.8622 208.868 67.3647 209.289 68.2883 209.289C68.6505 209.289 68.9493 209.212 69.1847 209.058C69.4292 208.895 69.5514 208.655 69.5514 208.338C69.5514 208.003 69.4247 207.745 69.1711 207.564C68.9267 207.383 68.5871 207.229 68.1525 207.102L67.6907 206.98C67.4371 206.907 67.2244 206.835 67.0523 206.762C66.8803 206.69 66.6901 206.586 66.4819 206.45C66.2736 206.305 66.1151 206.119 66.0065 205.893C65.8978 205.667 65.8435 205.404 65.8435 205.105C65.8435 204.517 66.0653 204.046 66.509 203.693C66.9618 203.34 67.5051 203.163 68.1389 203.163C68.8995 203.163 69.488 203.353 69.9046 203.734C70.3211 204.114 70.5429 204.571 70.5701 205.105H69.4156C69.3884 204.807 69.2617 204.567 69.0353 204.385C68.8089 204.195 68.5147 204.1 68.1525 204.1C67.8174 204.1 67.5367 204.182 67.3104 204.345C67.0931 204.508 66.9844 204.743 66.9844 205.051C66.9844 205.205 67.0161 205.341 67.0795 205.458C67.1429 205.567 67.2425 205.662 67.3783 205.744C67.5232 205.825 67.6499 205.889 67.7586 205.934C67.8763 205.979 68.0438 206.033 68.2611 206.097L68.6958 206.233C69.2934 206.396 69.7733 206.636 70.1355 206.952C70.5067 207.26 70.6923 207.713 70.6923 208.311C70.6923 208.945 70.466 209.424 70.0132 209.75C69.5605 210.067 68.9855 210.226 68.2883 210.226Z" fill="#253545"/>
<g filter="url(#filter2_d_6612_16594)">
<circle cx="254" cy="93" r="70" fill="white"/>
</g>
<circle cx="253.86" cy="92.8599" r="52.36" fill="white"/>
<path d="M221.729 80.2791H284.332C285.622 80.2791 286.669 81.3254 286.669 82.6161V115.823C286.669 117.114 285.622 118.161 284.332 118.161H221.729V80.2791Z" fill="#62A446"/>
<path d="M221.729 73.5146H290.42C291.71 73.5146 292.757 74.561 292.757 75.8517V109.059C292.757 110.35 291.71 111.396 290.42 111.396H221.729V73.5146Z" fill="#ADDE98"/>
<circle cx="221.39" cy="73.8521" r="6.42632" fill="#82C167"/>
<rect x="214.964" y="73.5146" width="12.8526" height="38.5579" fill="#82C167"/>
<circle cx="221.39" cy="111.734" r="6.42632" fill="#62A446"/>
<path d="M239.651 104.153V81.8818H241.078V104.153H239.651ZM244.453 88.5633C244.349 87.6817 243.925 86.9973 243.183 86.5101C242.441 86.023 241.53 85.7794 240.451 85.7794C239.663 85.7794 238.972 85.907 238.381 86.1622C237.795 86.4173 237.337 86.7682 237.006 87.2148C236.681 87.6614 236.519 88.1689 236.519 88.7373C236.519 89.2129 236.632 89.6218 236.858 89.964C237.09 90.3004 237.386 90.5817 237.746 90.8079C238.105 91.0283 238.482 91.211 238.877 91.356C239.271 91.4951 239.634 91.6082 239.964 91.6952L241.774 92.1824C242.238 92.3042 242.754 92.4724 243.322 92.687C243.896 92.9016 244.445 93.1945 244.967 93.5657C245.494 93.9311 245.929 94.4009 246.272 94.9751C246.614 95.5493 246.785 96.254 246.785 97.0891C246.785 98.0519 246.533 98.9219 246.028 99.6991C245.529 100.476 244.798 101.094 243.836 101.552C242.879 102.01 241.716 102.239 240.347 102.239C239.071 102.239 237.966 102.034 237.032 101.622C236.104 101.21 235.374 100.636 234.84 99.8992C234.312 99.1626 234.013 98.3071 233.944 97.3327H236.171C236.229 98.0055 236.455 98.5623 236.85 99.0031C237.25 99.4381 237.754 99.7629 238.363 99.9775C238.978 100.186 239.639 100.291 240.347 100.291C241.171 100.291 241.91 100.157 242.565 99.8905C243.221 99.6179 243.74 99.2409 244.123 98.7595C244.505 98.2723 244.697 97.7039 244.697 97.0543C244.697 96.4628 244.532 95.9814 244.201 95.6102C243.87 95.239 243.435 94.9374 242.896 94.7054C242.357 94.4734 241.774 94.2704 241.147 94.0964L238.955 93.47C237.563 93.0698 236.461 92.4985 235.649 91.7561C234.837 91.0138 234.431 90.0423 234.431 88.8417C234.431 87.8441 234.701 86.9741 235.24 86.2318C235.785 85.4836 236.516 84.9036 237.432 84.4918C238.355 84.0742 239.384 83.8654 240.521 83.8654C241.669 83.8654 242.69 84.0713 243.583 84.4831C244.476 84.8891 245.184 85.4459 245.706 86.1535C246.234 86.861 246.512 87.6643 246.541 88.5633H244.453Z" fill="#F0FBEA"/>
<rect x="254.875" y="84.3368" width="29.0876" height="2.02936" fill="#F0FBEA"/>
<rect x="254.875" y="91.7789" width="22.323" height="2.02936" fill="#F0FBEA"/>
<rect x="254.875" y="99.2186" width="27.7346" height="2.02936" fill="#F0FBEA"/>
<path d="M232.875 176.544C233.903 176.544 234.725 176.842 235.341 177.438C235.958 178.034 236.266 178.815 236.266 179.781C236.266 180.788 235.947 181.589 235.31 182.185C234.684 182.771 233.836 183.064 232.767 183.064H230.27V187.333H228.914V176.544H232.875ZM232.644 181.815C233.343 181.815 233.882 181.636 234.262 181.276C234.643 180.916 234.833 180.423 234.833 179.796C234.833 179.17 234.643 178.682 234.262 178.332C233.882 177.973 233.379 177.793 232.752 177.793H230.27V181.815H232.644ZM244.133 186.285H244.334V187.333H243.717C242.957 187.333 242.5 187.004 242.345 186.347C241.75 187.107 240.902 187.487 239.802 187.487C239.042 187.487 238.426 187.302 237.953 186.933C237.49 186.552 237.259 186.003 237.259 185.283C237.259 184.585 237.496 184.04 237.968 183.65C238.451 183.249 239.088 183.007 239.879 182.925L242.176 182.709V182.278C242.176 181.744 242.037 181.327 241.76 181.029C241.482 180.731 241.087 180.582 240.573 180.582C239.648 180.582 239.093 181.071 238.908 182.047H237.568C237.65 181.286 237.953 180.67 238.477 180.197C239.011 179.714 239.71 179.473 240.573 179.473C241.467 179.473 242.181 179.719 242.715 180.213C243.26 180.706 243.532 181.404 243.532 182.309V185.653C243.532 186.075 243.733 186.285 244.133 186.285ZM242.176 184.374V183.696L240.311 183.881C239.787 183.932 239.371 184.071 239.063 184.297C238.765 184.523 238.616 184.836 238.616 185.237C238.616 185.638 238.744 185.936 239.001 186.131C239.258 186.316 239.587 186.408 239.987 186.408C240.573 186.408 241.082 186.244 241.513 185.915C241.955 185.576 242.176 185.062 242.176 184.374ZM245.967 190.57C245.649 190.57 245.284 190.513 244.873 190.4V189.368C245.202 189.44 245.479 189.476 245.705 189.476C246.497 189.476 247.046 189.095 247.355 188.335L247.755 187.333H247.293L244.334 179.627H245.736L248.11 185.931H248.218L250.468 179.627H251.871L248.634 188.535C248.572 188.72 248.511 188.869 248.449 188.982C248.398 189.106 248.3 189.275 248.156 189.491C248.012 189.717 247.853 189.897 247.678 190.03C247.504 190.174 247.262 190.298 246.954 190.4C246.656 190.513 246.327 190.57 245.967 190.57ZM255.381 187.487C254.425 187.487 253.691 187.261 253.177 186.809C252.674 186.357 252.401 185.751 252.36 184.991H253.67C253.763 185.946 254.333 186.424 255.381 186.424C255.792 186.424 256.131 186.337 256.398 186.162C256.676 185.977 256.814 185.705 256.814 185.345C256.814 184.965 256.671 184.672 256.383 184.466C256.105 184.261 255.72 184.086 255.227 183.942L254.703 183.804C254.415 183.722 254.174 183.639 253.978 183.557C253.783 183.475 253.567 183.357 253.331 183.203C253.095 183.038 252.915 182.828 252.792 182.571C252.668 182.314 252.607 182.016 252.607 181.677C252.607 181.009 252.858 180.475 253.362 180.074C253.876 179.673 254.492 179.473 255.211 179.473C256.075 179.473 256.742 179.689 257.215 180.12C257.688 180.552 257.94 181.071 257.97 181.677H256.66C256.629 181.338 256.486 181.065 256.229 180.86C255.972 180.644 255.638 180.536 255.227 180.536C254.847 180.536 254.528 180.629 254.271 180.814C254.025 180.999 253.901 181.266 253.901 181.615C253.901 181.79 253.937 181.944 254.009 182.078C254.081 182.201 254.194 182.309 254.348 182.401C254.513 182.494 254.657 182.566 254.78 182.617C254.914 182.668 255.104 182.73 255.35 182.802L255.843 182.956C256.522 183.141 257.066 183.413 257.477 183.773C257.898 184.122 258.109 184.636 258.109 185.314C258.109 186.033 257.852 186.578 257.338 186.948C256.825 187.308 256.172 187.487 255.381 187.487ZM259.584 187.333V176.39H260.925V187.333H259.584ZM263.386 178.394C263.139 178.394 262.923 178.307 262.738 178.132C262.564 177.957 262.476 177.747 262.476 177.5C262.476 177.253 262.564 177.048 262.738 176.883C262.923 176.709 263.139 176.621 263.386 176.621C263.622 176.621 263.828 176.709 264.002 176.883C264.177 177.048 264.264 177.253 264.264 177.5C264.264 177.747 264.177 177.957 264.002 178.132C263.828 178.307 263.622 178.394 263.386 178.394ZM262.708 187.333V179.627H264.049V187.333H262.708ZM269.638 179.473C270.676 179.473 271.524 179.848 272.181 180.598C272.849 181.338 273.183 182.304 273.183 183.495C273.183 184.698 272.849 185.664 272.181 186.393C271.524 187.123 270.676 187.487 269.638 187.487C268.549 187.487 267.727 187.097 267.172 186.316V190.416H265.831V179.627H266.941L267.064 180.721H267.157C267.753 179.889 268.58 179.473 269.638 179.473ZM269.469 186.301C270.167 186.301 270.737 186.044 271.179 185.53C271.621 185.006 271.842 184.328 271.842 183.495C271.842 182.653 271.621 181.97 271.179 181.446C270.737 180.922 270.167 180.66 269.469 180.66C268.78 180.66 268.225 180.922 267.804 181.446C267.383 181.959 267.172 182.643 267.172 183.495C267.172 184.328 267.383 185.006 267.804 185.53C268.225 186.044 268.78 186.301 269.469 186.301ZM277.237 187.487C276.281 187.487 275.547 187.261 275.033 186.809C274.53 186.357 274.257 185.751 274.216 184.991H275.526C275.619 185.946 276.189 186.424 277.237 186.424C277.648 186.424 277.987 186.337 278.254 186.162C278.532 185.977 278.67 185.705 278.67 185.345C278.67 184.965 278.527 184.672 278.239 184.466C277.961 184.261 277.576 184.086 277.083 183.942L276.559 183.804C276.271 183.722 276.03 183.639 275.834 183.557C275.639 183.475 275.423 183.357 275.187 183.203C274.951 183.038 274.771 182.828 274.648 182.571C274.524 182.314 274.463 182.016 274.463 181.677C274.463 181.009 274.714 180.475 275.218 180.074C275.732 179.673 276.348 179.473 277.067 179.473C277.931 179.473 278.598 179.689 279.071 180.12C279.544 180.552 279.796 181.071 279.826 181.677H278.516C278.485 181.338 278.342 181.065 278.085 180.86C277.828 180.644 277.494 180.536 277.083 180.536C276.703 180.536 276.384 180.629 276.127 180.814C275.881 180.999 275.757 181.266 275.757 181.615C275.757 181.79 275.793 181.944 275.865 182.078C275.937 182.201 276.05 182.309 276.204 182.401C276.369 182.494 276.513 182.566 276.636 182.617C276.769 182.668 276.96 182.73 277.206 182.802L277.699 182.956C278.378 183.141 278.922 183.413 279.333 183.773C279.754 184.122 279.965 184.636 279.965 185.314C279.965 186.033 279.708 186.578 279.194 186.948C278.681 187.308 278.028 187.487 277.237 187.487Z" fill="#253545"/>
<g filter="url(#filter3_d_6612_16594)">
<circle cx="130.299" cy="310.299" r="62.2993" fill="white"/>
</g>
<circle cx="130.423" cy="310.423" r="46.6008" fill="white"/>
<path d="M104.383 339.298V343.065C104.375 344.066 104.769 345.028 105.477 345.736C106.185 346.444 107.148 346.839 108.149 346.831H149.578C151.658 346.831 153.344 345.145 153.344 343.065V317.956L104.383 339.298Z" fill="#4D8E31"/>
<path d="M145.812 330.838V335.533C145.812 337.613 144.126 339.299 142.046 339.299H100.617C98.5373 339.299 96.8511 337.613 96.8511 335.533V277.784C96.8511 275.704 98.5373 274.018 100.617 274.018H142.046C144.126 274.018 145.812 275.704 145.812 277.784V330.838Z" fill="#ADDE98"/>
<path d="M106.894 291.593H103.128V281.55C103.128 280.857 102.566 280.295 101.873 280.295C101.179 280.295 100.617 280.857 100.617 281.55V292.849C100.617 293.542 101.179 294.104 101.873 294.104H106.894C107.588 294.104 108.15 293.542 108.15 292.849C108.15 292.156 107.588 291.593 106.894 291.593Z" fill="#62A446"/>
<path d="M114.426 280.295C111.611 280.295 109.405 283.328 109.405 287.2C109.405 291.071 111.611 294.104 114.426 294.104C117.242 294.104 119.448 291.071 119.448 287.2C119.448 283.328 117.242 280.295 114.426 280.295ZM114.426 291.593C113.239 291.593 111.916 289.789 111.916 287.2C111.916 284.61 113.239 282.806 114.426 282.806C115.614 282.806 116.937 284.611 116.937 287.2C116.937 289.788 115.614 291.593 114.426 291.593Z" fill="#62A446"/>
<path d="M126.917 281.154C126.747 280.638 126.266 280.29 125.724 280.29C125.182 280.29 124.701 280.638 124.532 281.154L120.765 292.452C120.546 293.111 120.903 293.823 121.561 294.042C122.22 294.261 122.931 293.904 123.151 293.246L123.702 291.594H127.749L128.3 293.246C128.442 293.672 128.8 293.99 129.24 294.08C129.68 294.17 130.135 294.019 130.433 293.683C130.731 293.348 130.827 292.878 130.686 292.452L126.917 281.154ZM124.538 289.083L125.725 285.52L126.913 289.083H124.538Z" fill="#62A446"/>
<path d="M140.79 280.295C140.097 280.295 139.535 280.857 139.535 281.55V288.004L135.61 280.94C135.333 280.44 134.752 280.191 134.198 280.335C133.644 280.479 133.258 280.978 133.258 281.55V292.849C133.258 293.542 133.82 294.104 134.513 294.104C135.207 294.104 135.769 293.542 135.769 292.849V286.395L139.693 293.459C139.915 293.858 140.335 294.104 140.79 294.104C140.897 294.105 141.003 294.091 141.105 294.064C141.659 293.921 142.046 293.421 142.046 292.849V281.55C142.046 280.857 141.484 280.295 140.79 280.295Z" fill="#62A446"/>
<path d="M118.193 302.893H101.873C101.179 302.893 100.617 302.331 100.617 301.638C100.617 300.944 101.179 300.382 101.873 300.382H118.193C118.886 300.382 119.448 300.944 119.448 301.638C119.448 302.331 118.886 302.893 118.193 302.893Z" fill="#F1FDEB"/>
<path d="M118.193 309.17H101.873C101.179 309.17 100.617 308.608 100.617 307.915C100.617 307.221 101.179 306.659 101.873 306.659H118.193C118.886 306.659 119.448 307.221 119.448 307.915C119.448 308.608 118.886 309.17 118.193 309.17Z" fill="#F1FDEB"/>
<path d="M118.193 315.447H101.873C101.179 315.447 100.617 314.885 100.617 314.192C100.617 313.498 101.179 312.936 101.873 312.936H118.193C118.886 312.936 119.448 313.498 119.448 314.192C119.448 314.885 118.886 315.447 118.193 315.447Z" fill="#F1FDEB"/>
<path d="M136.195 302.893H124.47C123.776 302.893 123.214 302.331 123.214 301.638C123.214 300.945 123.776 300.382 124.47 300.382H136.195C136.889 300.382 137.451 300.945 137.451 301.638C137.451 302.331 136.889 302.893 136.195 302.893Z" fill="#F1FDEB"/>
<path d="M129.341 309.17H124.47C123.776 309.17 123.214 308.608 123.214 307.915C123.214 307.221 123.776 306.659 124.47 306.659H129.341C130.034 306.659 130.596 307.221 130.596 307.915C130.596 308.608 130.034 309.17 129.341 309.17Z" fill="#F1FDEB"/>
<path d="M129.579 315.447H124.47C123.776 315.447 123.214 314.885 123.214 314.192C123.214 313.498 123.776 312.936 124.47 312.936H129.579C130.273 312.936 130.835 313.498 130.835 314.192C130.835 314.885 130.273 315.447 129.579 315.447Z" fill="#F1FDEB"/>
<path d="M118.193 321.726H101.873C101.179 321.726 100.617 321.164 100.617 320.47C100.617 319.777 101.179 319.215 101.873 319.215H118.193C118.886 319.215 119.448 319.777 119.448 320.47C119.448 321.164 118.886 321.726 118.193 321.726Z" fill="#F1FDEB"/>
<path d="M131.839 321.726H124.47C123.776 321.726 123.214 321.164 123.214 320.47C123.214 319.777 123.776 319.215 124.47 319.215H131.839C132.532 319.215 133.094 319.777 133.094 320.47C133.094 321.164 132.532 321.726 131.839 321.726Z" fill="#F1FDEB"/>
<path d="M113.832 333.149C113.671 333.149 113.512 333.137 113.353 333.112C112.188 332.939 111.234 332.095 110.919 330.96L110.697 330.185C110.646 329.981 110.468 329.833 110.257 329.821C110.047 329.79 109.841 329.904 109.755 330.099C109.248 331.123 108.204 331.77 107.061 331.769H103.128C102.435 331.769 101.873 331.206 101.873 330.513C101.873 329.82 102.435 329.258 103.128 329.258H107.061C107.253 329.259 107.429 329.15 107.514 328.978C108.069 327.863 109.252 327.204 110.491 327.32C111.731 327.435 112.772 328.301 113.111 329.499L113.332 330.273C113.384 330.465 113.543 330.608 113.739 330.639C113.935 330.669 114.131 330.582 114.238 330.415L115.682 328.253C116.24 327.412 117.183 326.906 118.193 326.906C119.203 326.906 120.145 327.412 120.704 328.253L121.227 329.038C121.321 329.176 121.478 329.259 121.645 329.258H125.725C126.419 329.258 126.981 329.82 126.981 330.513C126.981 331.206 126.419 331.769 125.725 331.769H121.645C120.636 331.77 119.694 331.266 119.134 330.426L118.612 329.641C118.52 329.499 118.361 329.413 118.192 329.413C118.022 329.413 117.864 329.499 117.771 329.641L116.326 331.807C115.774 332.647 114.836 333.151 113.832 333.149Z" fill="#F1FDEB"/>
<path d="M137.69 331.768H130.747C130.054 331.768 129.492 331.206 129.492 330.513C129.492 329.82 130.054 329.258 130.747 329.258H137.69C138.383 329.258 138.945 329.82 138.945 330.513C138.945 331.206 138.383 331.768 137.69 331.768Z" fill="#F1FDEB"/>
<path d="M168.817 287.184L159.848 304.024L152.089 302.894L146.553 296.943L157.122 277.108C157.502 276.393 158.203 275.906 159.006 275.799C159.808 275.691 160.612 275.977 161.167 276.567L168.43 284.282C169.167 285.066 169.324 286.233 168.817 287.184Z" fill="#0D6AE3"/>
<path d="M159.848 304.023C156.948 309.472 156.081 318.963 155.943 321.85C155.913 322.333 155.511 322.708 155.027 322.704C148.248 322.842 142.485 326.633 139.121 329.546C138.832 329.797 138.556 330.035 138.305 330.274C138.016 330.534 137.596 330.586 137.253 330.403C136.91 330.221 136.718 329.843 136.773 329.458C136.823 329.094 136.886 328.717 136.936 328.316C137.464 323.884 137.388 317.029 133.735 311.355C133.463 310.957 133.552 310.416 133.936 310.125C136.258 308.392 143.653 302.391 146.553 296.943L159.848 304.023Z" fill="#F6CB79"/>
<path d="M149.579 314.191C149.579 316.271 147.893 317.957 145.813 317.957C145.61 317.955 145.408 317.934 145.21 317.894C145.201 317.968 145.179 318.041 145.147 318.108L139.121 329.545C138.832 329.796 138.556 330.034 138.305 330.273C138.017 330.533 137.596 330.585 137.253 330.402C136.91 330.219 136.718 329.841 136.774 329.457C136.824 329.093 136.887 328.716 136.937 328.314L142.938 316.928C142.973 316.865 143.02 316.81 143.076 316.765C141.912 315.534 141.713 313.679 142.589 312.229C143.465 310.78 145.2 310.094 146.83 310.551C148.46 311.009 149.585 312.498 149.579 314.191Z" fill="#EDA418"/>
<path d="M114.046 392.78H118.984V393.905H112.825V384.303H114.046V392.78ZM123.015 394.042C122.028 394.042 121.205 393.704 120.546 393.027C119.897 392.342 119.572 391.491 119.572 390.476C119.572 389.443 119.897 388.592 120.546 387.925C121.196 387.248 122.019 386.91 123.015 386.91C124.003 386.91 124.826 387.248 125.484 387.925C126.143 388.601 126.472 389.452 126.472 390.476C126.472 391.5 126.143 392.351 125.484 393.027C124.835 393.704 124.012 394.042 123.015 394.042ZM121.397 392.259C121.817 392.744 122.357 392.986 123.015 392.986C123.674 392.986 124.213 392.744 124.634 392.259C125.064 391.765 125.279 391.171 125.279 390.476C125.279 389.772 125.064 389.177 124.634 388.693C124.213 388.208 123.674 387.966 123.015 387.966C122.348 387.966 121.808 388.208 121.397 388.693C120.985 389.177 120.779 389.772 120.779 390.476C120.779 391.171 120.985 391.765 121.397 392.259ZM133.53 392.973H133.709V393.905H133.16C132.483 393.905 132.076 393.613 131.939 393.027C131.409 393.704 130.654 394.042 129.676 394.042C128.999 394.042 128.451 393.878 128.03 393.549C127.618 393.21 127.413 392.721 127.413 392.081C127.413 391.459 127.623 390.974 128.044 390.627C128.473 390.27 129.04 390.055 129.745 389.982L131.788 389.79V389.406C131.788 388.931 131.665 388.56 131.418 388.295C131.171 388.03 130.819 387.897 130.362 387.897C129.539 387.897 129.045 388.332 128.88 389.2H127.687C127.76 388.524 128.03 387.975 128.496 387.554C128.972 387.124 129.594 386.91 130.362 386.91C131.157 386.91 131.793 387.129 132.268 387.568C132.753 388.007 132.995 388.629 132.995 389.433V392.41C132.995 392.785 133.174 392.973 133.53 392.973ZM131.788 391.272V390.668L130.129 390.833C129.662 390.878 129.292 391.002 129.017 391.203C128.752 391.404 128.62 391.683 128.62 392.04C128.62 392.396 128.734 392.662 128.963 392.835C129.191 393 129.484 393.082 129.841 393.082C130.362 393.082 130.814 392.936 131.199 392.643C131.592 392.342 131.788 391.884 131.788 391.272ZM134.743 393.905V387.047H135.826L135.936 387.87H136.032C136.498 387.23 137.161 386.91 138.021 386.91C138.771 386.91 139.374 387.143 139.832 387.609C140.289 388.075 140.518 388.738 140.518 389.598V393.905H139.324V389.859C139.324 389.228 139.173 388.757 138.871 388.446C138.579 388.126 138.195 387.966 137.719 387.966C137.216 387.966 136.791 388.139 136.444 388.487C136.105 388.825 135.936 389.328 135.936 389.996V393.905H134.743ZM144.452 394.042C143.601 394.042 142.947 393.841 142.49 393.439C142.042 393.037 141.8 392.497 141.763 391.82H142.929C143.011 392.671 143.519 393.096 144.452 393.096C144.817 393.096 145.119 393.018 145.357 392.863C145.604 392.698 145.727 392.456 145.727 392.136C145.727 391.797 145.599 391.537 145.343 391.354C145.096 391.171 144.753 391.016 144.315 390.887L143.848 390.764C143.592 390.691 143.377 390.618 143.203 390.545C143.03 390.471 142.838 390.366 142.627 390.229C142.417 390.083 142.257 389.895 142.147 389.667C142.037 389.438 141.983 389.173 141.983 388.871C141.983 388.277 142.207 387.801 142.655 387.444C143.112 387.088 143.661 386.91 144.301 386.91C145.069 386.91 145.663 387.102 146.084 387.486C146.505 387.87 146.729 388.332 146.756 388.871H145.59C145.563 388.569 145.435 388.327 145.206 388.144C144.978 387.952 144.68 387.856 144.315 387.856C143.976 387.856 143.693 387.938 143.464 388.103C143.245 388.268 143.135 388.505 143.135 388.816C143.135 388.972 143.167 389.109 143.231 389.228C143.295 389.337 143.395 389.433 143.533 389.516C143.679 389.598 143.807 389.662 143.917 389.708C144.036 389.754 144.205 389.808 144.424 389.872L144.863 390.01C145.467 390.174 145.951 390.417 146.317 390.737C146.692 391.048 146.88 391.505 146.88 392.108C146.88 392.748 146.651 393.233 146.194 393.562C145.737 393.882 145.156 394.042 144.452 394.042Z" fill="#253545"/>
</g>
<defs>
<filter id="filter0_d_6612_16594" x="257" y="210" width="146" height="146" filterUnits="userSpaceOnUse" color-interpolation-filters="sRGB">
<feFlood flood-opacity="0" result="BackgroundImageFix"/>
<feColorMatrix in="SourceAlpha" type="matrix" values="0 0 0 0 0 0 0 0 0 0 0 0 0 0 0 0 0 0 127 0" result="hardAlpha"/>
<feMorphology radius="2" operator="dilate" in="SourceAlpha" result="effect1_dropShadow_6612_16594"/>
<feOffset dy="4"/>
<feGaussianBlur stdDeviation="5.5"/>
<feComposite in2="hardAlpha" operator="out"/>
<feColorMatrix type="matrix" values="0 0 0 0 0.666875 0 0 0 0 0.649792 0 0 0 0 0.649792 0 0 0 0.12 0"/>
<feBlend mode="normal" in2="BackgroundImageFix" result="effect1_dropShadow_6612_16594"/>
<feBlend mode="normal" in="SourceGraphic" in2="effect1_dropShadow_6612_16594" result="shape"/>
</filter>
<filter id="filter1_d_6612_16594" x="-23.7374" y="56.24" width="150.103" height="150.103" filterUnits="userSpaceOnUse" color-interpolation-filters="sRGB">
<feFlood flood-opacity="0" result="BackgroundImageFix"/>
<feColorMatrix in="SourceAlpha" type="matrix" values="0 0 0 0 0 0 0 0 0 0 0 0 0 0 0 0 0 0 127 0" result="hardAlpha"/>
<feMorphology radius="2.0562" operator="dilate" in="SourceAlpha" result="effect1_dropShadow_6612_16594"/>
<feOffset dy="4.11241"/>
<feGaussianBlur stdDeviation="5.65456"/>
<feComposite in2="hardAlpha" operator="out"/>
<feColorMatrix type="matrix" values="0 0 0 0 0.666875 0 0 0 0 0.649792 0 0 0 0 0.649792 0 0 0 0.12 0"/>
<feBlend mode="normal" in2="BackgroundImageFix" result="effect1_dropShadow_6612_16594"/>
<feBlend mode="normal" in="SourceGraphic" in2="effect1_dropShadow_6612_16594" result="shape"/>
</filter>
<filter id="filter2_d_6612_16594" x="168.833" y="12.5" width="170.333" height="170.333" filterUnits="userSpaceOnUse" color-interpolation-filters="sRGB">
<feFlood flood-opacity="0" result="BackgroundImageFix"/>
<feColorMatrix in="SourceAlpha" type="matrix" values="0 0 0 0 0 0 0 0 0 0 0 0 0 0 0 0 0 0 127 0" result="hardAlpha"/>
<feMorphology radius="2.33333" operator="dilate" in="SourceAlpha" result="effect1_dropShadow_6612_16594"/>
<feOffset dy="4.66667"/>
<feGaussianBlur stdDeviation="6.41667"/>
<feComposite in2="hardAlpha" operator="out"/>
<feColorMatrix type="matrix" values="0 0 0 0 0.666875 0 0 0 0 0.649792 0 0 0 0 0.649792 0 0 0 0.12 0"/>
<feBlend mode="normal" in2="BackgroundImageFix" result="effect1_dropShadow_6612_16594"/>
<feBlend mode="normal" in="SourceGraphic" in2="effect1_dropShadow_6612_16594" result="shape"/>
</filter>
<filter id="filter3_d_6612_16594" x="54.5018" y="238.655" width="151.595" height="151.595" filterUnits="userSpaceOnUse" color-interpolation-filters="sRGB">
<feFlood flood-opacity="0" result="BackgroundImageFix"/>
<feColorMatrix in="SourceAlpha" type="matrix" values="0 0 0 0 0 0 0 0 0 0 0 0 0 0 0 0 0 0 127 0" result="hardAlpha"/>
<feMorphology radius="2.07664" operator="dilate" in="SourceAlpha" result="effect1_dropShadow_6612_16594"/>
<feOffset dy="4.15329"/>
<feGaussianBlur stdDeviation="5.71077"/>
<feComposite in2="hardAlpha" operator="out"/>
<feColorMatrix type="matrix" values="0 0 0 0 0.666875 0 0 0 0 0.649792 0 0 0 0 0.649792 0 0 0 0.12 0"/>
<feBlend mode="normal" in2="BackgroundImageFix" result="effect1_dropShadow_6612_16594"/>
<feBlend mode="normal" in="SourceGraphic" in2="effect1_dropShadow_6612_16594" result="shape"/>
</filter>
<radialGradient id="paint0_radial_6612_16594" cx="0" cy="0" r="1" gradientUnits="userSpaceOnUse" gradientTransform="translate(-1.5001 315.5) rotate(-34.0248) scale(545.973 1195.3)">
<stop offset="0.22091" stop-color="#FBCD69"/>
<stop offset="1" stop-color="#0D6AE3"/>
</radialGradient>
<clipPath id="clip0_6612_16594">
<rect width="390" height="327" fill="white"/>
</clipPath>
<clipPath id="clip1_6612_16594">
<rect width="390" height="374" fill="white" transform="translate(0 23)"/>
</clipPath>
</defs>
</svg>
