<svg width="390" height="439" viewBox="0 0 390 439" fill="none" xmlns="http://www.w3.org/2000/svg">
<g clip-path="url(#clip0_6612_16592)">
<g clip-path="url(#clip1_6612_16592)">
<path opacity="0.5" d="M391 13.4998C229.5 13.4998 162.575 79.3385 135.5 148.817C108.425 218.296 134 492.5 262.5 329.5C391 166.5 -37 64.9999 -50 -54.5001" stroke="url(#paint0_linear_6612_16592)" stroke-width="12"/>
<circle cx="321" cy="380" r="53" fill="url(#paint1_linear_6612_16592)"/>
</g>
<g filter="url(#filter0_bd_6612_16592)">
<rect x="50.6733" y="43" width="288.653" height="365" rx="12.5501" fill="url(#paint2_linear_6612_16592)"/>
<rect x="52.2421" y="44.5688" width="285.516" height="361.862" rx="10.9814" stroke="white" stroke-width="3.13754"/>
</g>
<path d="M179.028 250.145H180.19L178.407 258.198H177.026L175.301 252.261H175.22L173.506 258.198H172.126L170.331 250.145H171.516L172.85 256.46H172.931L174.599 250.72H175.934L177.579 256.46H177.671L179.028 250.145ZM183.675 258.313C182.831 258.313 182.129 258.029 181.569 257.461C181.017 256.894 180.741 256.181 180.741 255.322C180.741 254.447 181.017 253.73 181.569 253.17C182.122 252.61 182.823 252.33 183.675 252.33C184.526 252.33 185.232 252.614 185.791 253.182C186.351 253.742 186.631 254.455 186.631 255.322C186.631 256.188 186.351 256.905 185.791 257.473C185.232 258.033 184.526 258.313 183.675 258.313ZM182.398 256.725C182.727 257.101 183.153 257.289 183.675 257.289C184.196 257.289 184.626 257.097 184.963 256.714C185.301 256.33 185.469 255.866 185.469 255.322C185.469 254.769 185.301 254.305 184.963 253.93C184.633 253.546 184.204 253.354 183.675 253.354C183.153 253.354 182.727 253.546 182.398 253.93C182.068 254.305 181.903 254.769 181.903 255.322C181.903 255.874 182.068 256.342 182.398 256.725ZM187.879 258.198V252.445H188.938L189.053 253.251H189.133C189.31 252.944 189.521 252.714 189.766 252.561C190.011 252.407 190.357 252.33 190.801 252.33H191.17V253.504C190.985 253.481 190.798 253.469 190.606 253.469C190.092 253.469 189.705 253.642 189.444 253.987C189.183 254.332 189.053 254.769 189.053 255.299V258.198H187.879ZM197.131 252.445L194.773 254.758L197.131 258.198H195.831L193.979 255.54L193.266 256.242V258.198H192.092V250.03H193.266V254.746H193.346L195.716 252.445H197.131ZM201.003 252.33C201.786 252.33 202.426 252.607 202.925 253.159C203.423 253.711 203.672 254.436 203.672 255.333C203.672 256.238 203.419 256.963 202.913 257.507C202.407 258.044 201.77 258.313 201.003 258.313C200.229 258.313 199.634 258.052 199.22 257.53V260.498H198.047V252.445H199.002L199.105 253.216H199.186C199.623 252.626 200.229 252.33 201.003 252.33ZM200.831 257.289C201.329 257.289 201.732 257.109 202.039 256.748C202.345 256.388 202.499 255.916 202.499 255.333C202.499 254.743 202.345 254.267 202.039 253.907C201.732 253.538 201.329 253.354 200.831 253.354C200.34 253.354 199.949 253.535 199.657 253.895C199.366 254.255 199.22 254.735 199.22 255.333C199.22 255.916 199.366 256.388 199.657 256.748C199.956 257.109 200.348 257.289 200.831 257.289ZM209.904 257.312H210.054V258.198H209.525C208.942 258.198 208.581 257.96 208.443 257.484C208.006 258.037 207.377 258.313 206.556 258.313C205.974 258.313 205.502 258.175 205.141 257.899C204.781 257.615 204.601 257.201 204.601 256.656C204.601 256.135 204.777 255.724 205.13 255.425C205.483 255.126 205.951 254.95 206.533 254.896L208.294 254.723V254.436C208.294 254.068 208.194 253.784 207.994 253.584C207.803 253.385 207.527 253.285 207.166 253.285C206.499 253.285 206.108 253.623 205.993 254.298H204.831C204.884 253.715 205.118 253.243 205.533 252.883C205.947 252.515 206.491 252.33 207.166 252.33C207.849 252.33 208.401 252.515 208.823 252.883C209.252 253.251 209.467 253.784 209.467 254.482V256.84C209.467 257.155 209.613 257.312 209.904 257.312ZM208.294 255.989V255.563L206.925 255.701C206.572 255.732 206.292 255.824 206.085 255.977C205.878 256.131 205.774 256.342 205.774 256.61C205.774 257.132 206.092 257.392 206.729 257.392C207.143 257.392 207.507 257.277 207.822 257.047C208.136 256.817 208.294 256.464 208.294 255.989ZM211.547 260.614C211.31 260.614 211.022 260.571 210.685 260.487V259.601C210.93 259.655 211.133 259.682 211.294 259.682C211.9 259.682 212.318 259.406 212.548 258.853L212.801 258.198H212.422L210.201 252.445H211.421L213.124 256.99H213.216L214.815 252.445H216.034L213.641 259.026C213.281 260.084 212.583 260.614 211.547 260.614Z" fill="#253545"/>
<rect x="168.607" y="186.584" width="52.2923" height="52.2923" rx="12.5501" fill="url(#paint3_linear_6612_16592)"/>
<path fill-rule="evenodd" clip-rule="evenodd" d="M213.377 206.984L209.255 202.862C207.59 201.198 204.883 201.198 203.219 202.862L194.754 211.327L186.289 202.862C184.624 201.198 181.917 201.198 180.253 202.862L176.13 206.984C174.466 208.648 174.466 211.356 176.13 213.02L184.08 220.97C185.744 222.634 188.452 222.634 190.116 220.97L193.948 217.138L194.754 216.333L197.256 213.83L205.721 205.365C206.005 205.081 206.468 205.081 206.752 205.365L210.874 209.487C211.158 209.771 211.158 210.234 210.874 210.518L202.924 218.467C202.64 218.751 202.178 218.751 201.893 218.467L197.256 213.83V218.836L199.391 220.97C201.055 222.634 203.763 222.634 205.427 220.97L213.377 213.02C215.041 211.356 215.041 208.648 213.377 206.984V206.984ZM187.613 218.467C187.329 218.751 186.867 218.751 186.583 218.467L178.633 210.518C178.349 210.234 178.349 209.771 178.633 209.487L182.755 205.365C183.039 205.081 183.502 205.081 183.786 205.365L192.251 213.83L187.613 218.467Z" fill="white"/>
<g opacity="0.4">
<rect x="75.3154" y="76.467" width="52.2923" height="52.2923" rx="12.5501" fill="#9EB7C1" fill-opacity="0.7"/>
<rect x="75.3154" y="139.218" width="52.2923" height="8.36676" fill="#C5D0D5" fill-opacity="0.7"/>
<path d="M111.658 97.1224V108.104C111.658 108.728 111.41 109.326 110.969 109.768C110.528 110.209 109.929 110.457 109.305 110.457H93.6173C92.9932 110.457 92.3947 110.209 91.9534 109.768C91.5121 109.326 91.2642 108.728 91.2642 108.104V97.1224M111.658 97.1224C111.658 96.4983 111.41 95.8998 110.969 95.4585C110.528 95.0172 109.929 94.7693 109.305 94.7693H93.6173C92.9932 94.7693 92.3947 95.0172 91.9534 95.4585C91.5121 95.8998 91.2642 96.4983 91.2642 97.1224M111.658 97.1224V97.3766C111.658 97.7783 111.555 98.1734 111.359 98.5242C111.164 98.8749 110.881 99.1697 110.539 99.3804L102.695 104.207C102.324 104.436 101.897 104.557 101.461 104.557C101.025 104.557 100.598 104.436 100.227 104.207L92.3832 99.3815C92.0411 99.1708 91.7587 98.876 91.5628 98.5252C91.3669 98.1745 91.2641 97.7794 91.2642 97.3776V97.1224" stroke="#53656C" stroke-width="2.09169" stroke-linecap="round" stroke-linejoin="round"/>
</g>
<g opacity="0.4">
<rect x="75.3154" y="189.418" width="52.2923" height="52.2923" rx="12.5501" fill="#9EB7C1" fill-opacity="0.7"/>
<rect x="75.3154" y="252.169" width="52.2923" height="8.36676" fill="#C5D0D5" fill-opacity="0.7"/>
<path d="M92.0488 211.172C92.0488 209.415 92.0488 208.536 92.3908 207.865C92.6916 207.275 93.1716 206.795 93.762 206.494C94.4331 206.152 95.3117 206.152 97.0689 206.152H105.854C107.611 206.152 108.49 206.152 109.161 206.494C109.751 206.795 110.231 207.275 110.532 207.865C110.874 208.536 110.874 209.415 110.874 211.172V216.819C110.874 218.577 110.874 219.455 110.532 220.126C110.231 220.717 109.751 221.197 109.161 221.498C108.49 221.84 107.611 221.84 105.854 221.84H99.039C98.3863 221.84 98.06 221.84 97.7479 221.904C97.4709 221.96 97.203 222.054 96.9512 222.183C96.6675 222.328 96.4126 222.532 95.903 222.94L93.4082 224.935C92.973 225.284 92.7554 225.458 92.5723 225.458C92.4131 225.458 92.2624 225.386 92.1631 225.261C92.0488 225.118 92.0488 224.839 92.0488 224.282V211.172Z" stroke="#53656C" stroke-width="2.09169" stroke-linecap="round" stroke-linejoin="round"/>
</g>
<g opacity="0.4">
<rect x="262.393" y="303.415" width="52.2923" height="52.2923" rx="12.5501" fill="#9EB7C1" fill-opacity="0.7"/>
<rect x="262.393" y="366.166" width="52.2923" height="8.36676" fill="#C5D0D5" fill-opacity="0.7"/>
<path d="M288.538 334.791C291.426 334.791 293.768 332.45 293.768 329.562C293.768 326.674 291.426 324.332 288.538 324.332C285.65 324.332 283.309 326.674 283.309 329.562C283.309 332.45 285.65 334.791 288.538 334.791Z" stroke="#53656C" stroke-width="2.09169" stroke-linecap="round" stroke-linejoin="round"/>
<path d="M294.341 323.009C294.605 323.253 294.855 323.503 295.091 323.759L297.934 324.166C298.398 324.97 298.755 325.832 298.997 326.728L297.268 329.03C297.268 329.03 297.299 329.739 297.268 330.093L298.997 332.395C298.756 333.292 298.399 334.153 297.934 334.957L295.091 335.364C295.091 335.364 294.601 335.874 294.341 336.114L293.934 338.958C293.13 339.421 292.268 339.778 291.372 340.02L289.07 338.291C288.716 338.322 288.361 338.322 288.007 338.291L285.705 340.02C284.808 339.779 283.947 339.422 283.143 338.958L282.736 336.114C282.479 335.871 282.229 335.621 281.986 335.364L279.143 334.957C278.679 334.153 278.322 333.291 278.08 332.395L279.809 330.093C279.809 330.093 279.778 329.385 279.809 329.03L278.08 326.728C278.321 325.831 278.678 324.97 279.143 324.166L281.986 323.759C282.229 323.503 282.479 323.253 282.736 323.009L283.143 320.166C283.947 319.702 284.809 319.345 285.705 319.103L288.007 320.832C288.361 320.801 288.716 320.801 289.07 320.832L291.372 319.103C292.269 319.344 293.13 319.701 293.934 320.166L294.341 323.009Z" stroke="#53656C" stroke-width="2.09169" stroke-linecap="round" stroke-linejoin="round"/>
</g>
<g opacity="0.4">
<rect x="169" y="303.415" width="52.2923" height="52.2923" rx="12.5501" fill="#9EB7C1" fill-opacity="0.7"/>
<rect x="169" y="366.166" width="52.2923" height="8.36676" fill="#C5D0D5" fill-opacity="0.7"/>
<path d="M195.146 330.346C196.879 330.346 198.283 328.941 198.283 327.208C198.283 325.476 196.879 324.071 195.146 324.071C193.413 324.071 192.008 325.476 192.008 327.208C192.008 328.941 193.413 330.346 195.146 330.346Z" stroke="#53656C" stroke-width="2.09169" stroke-linecap="round" stroke-linejoin="round"/>
<path d="M202.99 327.208C202.99 334.268 195.146 339.759 195.146 339.759C195.146 339.759 187.302 334.268 187.302 327.208C187.302 325.128 188.129 323.133 189.6 321.662C191.071 320.191 193.066 319.365 195.146 319.365C197.226 319.365 199.222 320.191 200.693 321.662C202.164 323.133 202.99 325.128 202.99 327.208V327.208Z" stroke="#53656C" stroke-width="2.09169" stroke-linecap="round" stroke-linejoin="round"/>
</g>
<g opacity="0.4">
<rect x="262.393" y="76.467" width="52.2923" height="52.2923" rx="12.5501" fill="#9EB7C1" fill-opacity="0.7"/>
<rect x="262.393" y="139.218" width="52.2923" height="8.36676" fill="#C5D0D5" fill-opacity="0.7"/>
<mask id="mask0_6612_16592" style="mask-type:alpha" maskUnits="userSpaceOnUse" x="277" y="91" width="24" height="24">
<path d="M298.997 107.759V110.896C298.998 111.188 298.939 111.476 298.822 111.743C298.705 112.01 298.534 112.249 298.32 112.446C298.105 112.643 297.852 112.793 297.576 112.886C297.3 112.98 297.007 113.014 296.717 112.988C293.499 112.638 290.408 111.539 287.692 109.777C285.165 108.172 283.022 106.029 281.416 103.502C279.649 100.774 278.549 97.6674 278.206 94.4347C278.18 94.1455 278.214 93.854 278.307 93.5788C278.399 93.3036 278.548 93.0507 278.744 92.8363C278.94 92.6218 279.178 92.4504 279.444 92.3331C279.709 92.2158 279.997 92.155 280.287 92.1548H283.425C283.932 92.1498 284.424 92.3295 284.809 92.6605C285.194 92.9914 285.445 93.451 285.516 93.9536C285.649 94.9577 285.894 95.9436 286.248 96.8924C286.389 97.2668 286.419 97.6736 286.336 98.0647C286.253 98.4558 286.059 98.8148 285.778 99.0992L284.449 100.427C285.938 103.046 288.106 105.214 290.725 106.702L292.053 105.374C292.337 105.093 292.696 104.899 293.087 104.816C293.478 104.732 293.885 104.763 294.259 104.904C295.208 105.258 296.194 105.503 297.198 105.636C297.706 105.707 298.17 105.963 298.502 106.355C298.834 106.746 299.01 107.246 298.997 107.759Z" stroke="#061938" stroke-width="2.09169" stroke-linecap="round" stroke-linejoin="round"/>
</mask>
<g mask="url(#mask0_6612_16592)">
<rect x="275.988" y="90.0631" width="25.1003" height="25.1003" fill="#53656C"/>
</g>
</g>
<g opacity="0.4">
<rect x="75.3154" y="303.415" width="52.2923" height="52.2923" rx="12.5501" fill="#9EB7C1" fill-opacity="0.7"/>
<rect x="75.3154" y="366.166" width="52.2923" height="8.36676" fill="#C5D0D5" fill-opacity="0.7"/>
<path d="M111.92 327.47H91.0029M100.416 331.653H97.8009H95.1863M91.0029 325.587L91.0029 333.536C91.0029 334.707 91.0029 335.293 91.2309 335.74C91.4314 336.134 91.7514 336.454 92.145 336.655C92.5924 336.883 93.1782 336.883 94.3496 336.883L108.573 336.883C109.745 336.883 110.33 336.883 110.778 336.655C111.171 336.454 111.491 336.134 111.692 335.74C111.92 335.293 111.92 334.707 111.92 333.536V325.587C111.92 324.416 111.92 323.83 111.692 323.383C111.491 322.989 111.171 322.669 110.778 322.469C110.33 322.241 109.745 322.241 108.573 322.241L94.3496 322.241C93.1782 322.241 92.5925 322.241 92.145 322.469C91.7514 322.669 91.4314 322.989 91.2309 323.383C91.0029 323.83 91.0029 324.416 91.0029 325.587Z" stroke="#53656C" stroke-width="2.09169" stroke-linecap="round" stroke-linejoin="round"/>
</g>
<g opacity="0.4">
<rect x="169" y="76.467" width="52.2923" height="52.2923" rx="12.5501" fill="#9EB7C1" fill-opacity="0.7"/>
<rect x="169" y="139.218" width="52.2923" height="8.36676" fill="#C5D0D5" fill-opacity="0.7"/>
<g clip-path="url(#clip2_6612_16592)">
<mask id="mask1_6612_16592" style="mask-type:alpha" maskUnits="userSpaceOnUse" x="182" y="92" width="26" height="22">
<path fill-rule="evenodd" clip-rule="evenodd" d="M191.138 92.6205C191.332 92.3295 191.659 92.1548 192.008 92.1548H198.283C198.633 92.1548 198.96 92.3295 199.154 92.6205L200.935 95.2923H204.558C205.391 95.2923 206.189 95.6229 206.777 96.2113C207.365 96.7997 207.696 97.5977 207.696 98.4299V109.934C207.696 110.766 207.365 111.564 206.777 112.153C206.189 112.741 205.391 113.072 204.558 113.072H185.733C184.901 113.072 184.103 112.741 183.515 112.153C182.926 111.564 182.596 110.766 182.596 109.934V98.4299C182.596 97.5977 182.926 96.7997 183.515 96.2113C184.103 95.6229 184.901 95.2923 185.733 95.2923H189.357L191.138 92.6205ZM192.568 94.2465L190.787 96.9183C190.593 97.2092 190.266 97.384 189.917 97.384H185.733C185.456 97.384 185.19 97.4942 184.994 97.6903C184.798 97.8865 184.687 98.1525 184.687 98.4299V109.934C184.687 110.212 184.798 110.478 184.994 110.674C185.19 110.87 185.456 110.98 185.733 110.98H204.558C204.836 110.98 205.102 110.87 205.298 110.674C205.494 110.478 205.604 110.212 205.604 109.934V98.4299C205.604 98.1525 205.494 97.8865 205.298 97.6903C205.102 97.4942 204.836 97.384 204.558 97.384H200.375C200.025 97.384 199.699 97.2092 199.505 96.9183L197.724 94.2465H192.568Z" fill="#061938"/>
<path fill-rule="evenodd" clip-rule="evenodd" d="M195.146 100.522C193.413 100.522 192.008 101.926 192.008 103.659C192.008 105.392 193.413 106.797 195.146 106.797C196.879 106.797 198.283 105.392 198.283 103.659C198.283 101.926 196.879 100.522 195.146 100.522ZM189.917 103.659C189.917 100.771 192.258 98.4299 195.146 98.4299C198.034 98.4299 200.375 100.771 200.375 103.659C200.375 106.547 198.034 108.888 195.146 108.888C192.258 108.888 189.917 106.547 189.917 103.659Z" fill="#061938"/>
</mask>
<g mask="url(#mask1_6612_16592)">
<rect x="182.596" y="90.0631" width="25.1003" height="25.1003" fill="#53656C"/>
</g>
</g>
</g>
<g opacity="0.4">
<rect x="262.393" y="189.418" width="52.2923" height="52.2923" rx="12.5501" fill="#9EB7C1" fill-opacity="0.7"/>
<rect x="262.393" y="252.169" width="52.2923" height="8.36676" fill="#C5D0D5" fill-opacity="0.7"/>
<path d="M276.628 223.931H300.67C300.901 223.931 301.089 223.744 301.089 223.513V220.13C301.089 220.042 301.06 219.955 301.008 219.884L295.674 212.582C295.507 212.353 295.166 212.353 294.999 212.582L289.993 219.435C289.807 219.689 289.418 219.655 289.279 219.372L283.706 208.008C283.55 207.688 283.09 207.698 282.948 208.024L276.245 223.345C276.124 223.622 276.326 223.931 276.628 223.931Z" fill="#53656C"/>
</g>
</g>
<defs>
<filter id="filter0_bd_6612_16592" x="23.4814" y="19.9914" width="343.037" height="419.384" filterUnits="userSpaceOnUse" color-interpolation-filters="sRGB">
<feFlood flood-opacity="0" result="BackgroundImageFix"/>
<feGaussianBlur in="BackgroundImageFix" stdDeviation="10.4585"/>
<feComposite in2="SourceAlpha" operator="in" result="effect1_backgroundBlur_6612_16592"/>
<feColorMatrix in="SourceAlpha" type="matrix" values="0 0 0 0 0 0 0 0 0 0 0 0 0 0 0 0 0 0 127 0" result="hardAlpha"/>
<feMorphology radius="2.09169" operator="dilate" in="SourceAlpha" result="effect2_dropShadow_6612_16592"/>
<feOffset dy="4.18338"/>
<feGaussianBlur stdDeviation="12.5501"/>
<feColorMatrix type="matrix" values="0 0 0 0 0.882353 0 0 0 0 0.921569 0 0 0 0 0.94902 0 0 0 0.7 0"/>
<feBlend mode="normal" in2="effect1_backgroundBlur_6612_16592" result="effect2_dropShadow_6612_16592"/>
<feBlend mode="normal" in="SourceGraphic" in2="effect2_dropShadow_6612_16592" result="shape"/>
</filter>
<linearGradient id="paint0_linear_6612_16592" x1="391" y1="44.4998" x2="-20" y2="54.9998" gradientUnits="userSpaceOnUse">
<stop stop-color="#62A446"/>
<stop offset="1" stop-color="#62A446" stop-opacity="0.19"/>
</linearGradient>
<linearGradient id="paint1_linear_6612_16592" x1="260.773" y1="249.106" x2="368.379" y2="445.447" gradientUnits="userSpaceOnUse">
<stop stop-color="#F3B744"/>
<stop offset="0.902739" stop-color="#F3B744" stop-opacity="0"/>
</linearGradient>
<linearGradient id="paint2_linear_6612_16592" x1="50.6733" y1="-1.44842" x2="513.783" y2="453.633" gradientUnits="userSpaceOnUse">
<stop stop-color="#EEF5EB"/>
<stop offset="1" stop-color="#DBE6F5"/>
</linearGradient>
<linearGradient id="paint3_linear_6612_16592" x1="192.099" y1="262.448" x2="244.392" y2="215.465" gradientUnits="userSpaceOnUse">
<stop stop-color="#62A446"/>
<stop offset="0.315271" stop-color="#62A446"/>
<stop offset="1" stop-color="#FFB417"/>
</linearGradient>
<clipPath id="clip0_6612_16592">
<rect width="390" height="439" fill="white"/>
</clipPath>
<clipPath id="clip1_6612_16592">
<rect width="390" height="439" fill="white"/>
</clipPath>
<clipPath id="clip2_6612_16592">
<rect width="25.1003" height="25.1003" fill="white" transform="translate(182.596 90.0631)"/>
</clipPath>
</defs>
</svg>
