<svg width="20" height="20" viewBox="0 0 20 20" fill="none" xmlns="http://www.w3.org/2000/svg">
<path d="M11.8182 5.45508H4.54544C4.30434 5.45508 4.07311 5.55086 3.90262 5.72134C3.73213 5.89183 3.63635 6.12306 3.63635 6.36417C3.63635 6.60527 3.73213 6.83651 3.90262 7.00699C4.07311 7.17748 4.30434 7.27326 4.54544 7.27326H11.8182C12.0593 7.27326 12.2905 7.17748 12.461 7.00699C12.6315 6.83651 12.7273 6.60527 12.7273 6.36417C12.7273 6.12306 12.6315 5.89183 12.461 5.72134C12.2905 5.55086 12.0593 5.45508 11.8182 5.45508Z" fill="currentColor"/>
<path d="M11.8182 9.0918H4.54544C4.30434 9.0918 4.07311 9.18758 3.90262 9.35806C3.73213 9.52855 3.63635 9.75978 3.63635 10.0009C3.63635 10.242 3.73213 10.4732 3.90262 10.6437C4.07311 10.8142 4.30434 10.91 4.54544 10.91H11.8182C12.0593 10.91 12.2905 10.8142 12.461 10.6437C12.6315 10.4732 12.7273 10.242 12.7273 10.0009C12.7273 9.75978 12.6315 9.52855 12.461 9.35806C12.2905 9.18758 12.0593 9.0918 11.8182 9.0918Z" fill="currentColor"/>
<path d="M8.18181 12.7266H4.54544C4.30434 12.7266 4.07311 12.8223 3.90262 12.9928C3.73213 13.1633 3.63635 13.3945 3.63635 13.6357C3.63635 13.8768 3.73213 14.108 3.90262 14.2785C4.07311 14.449 4.30434 14.5447 4.54544 14.5447H8.18181C8.42291 14.5447 8.65414 14.449 8.82463 14.2785C8.99512 14.108 9.0909 13.8768 9.0909 13.6357C9.0909 13.3945 8.99512 13.1633 8.82463 12.9928C8.65414 12.8223 8.42291 12.7266 8.18181 12.7266Z" fill="currentColor"/>
<path d="M19.0909 9.09091H16.3636V2.72727C16.3636 2.00396 16.0763 1.31026 15.5648 0.7988C15.0534 0.287337 14.3597 0 13.6364 0H2.72727C2.00396 0 1.31026 0.287337 0.7988 0.7988C0.287337 1.31026 0 2.00396 0 2.72727V17.2727C0 17.996 0.287337 18.6897 0.7988 19.2012C1.31026 19.7127 2.00396 20 2.72727 20H17.2727C17.996 20 18.6897 19.7127 19.2012 19.2012C19.7127 18.6897 20 17.996 20 17.2727V10C20 9.75889 19.9042 9.52766 19.7337 9.35718C19.5632 9.18669 19.332 9.09091 19.0909 9.09091ZM14.5455 18.1818H2.72727C2.48617 18.1818 2.25494 18.086 2.08445 17.9156C1.91396 17.7451 1.81818 17.5138 1.81818 17.2727V2.72727C1.81818 2.48617 1.91396 2.25494 2.08445 2.08445C2.25494 1.91396 2.48617 1.81818 2.72727 1.81818H13.6364C13.8775 1.81818 14.1087 1.91396 14.2792 2.08445C14.4497 2.25494 14.5455 2.48617 14.5455 2.72727V18.1818ZM18.1818 17.2727C18.1818 17.5138 18.086 17.7451 17.9156 17.9156C17.7451 18.086 17.5138 18.1818 17.2727 18.1818H16.3636V10.9091H18.1818V17.2727Z" fill="currentColor"/>
</svg>
