<svg width="32" height="32" viewBox="0 0 32 32" fill="none" xmlns="http://www.w3.org/2000/svg">
<path opacity="0.2" d="M28 8V24C28 24.2652 27.8946 24.5196 27.7071 24.7071C27.5196 24.8946 27.2652 25 27 25H10.3125C10.0769 25.0001 9.84896 25.0833 9.66875 25.235L5.64375 28.7638C5.4981 28.8863 5.3205 28.9647 5.13183 28.9898C4.94315 29.0149 4.75124 28.9856 4.57862 28.9054C4.40601 28.8252 4.25987 28.6974 4.15738 28.537C4.05488 28.3766 4.00028 28.1903 4 28V8C4 7.73478 4.10536 7.48043 4.29289 7.29289C4.48043 7.10536 4.73478 7 5 7H27C27.2652 7 27.5196 7.10536 27.7071 7.29289C27.8946 7.48043 28 7.73478 28 8Z" fill="#62A446"/>
<path d="M27 6H5.00004C4.4696 6 3.9609 6.21071 3.58582 6.58579C3.21075 6.96086 3.00004 7.46957 3.00004 8V28C2.99773 28.3814 3.10562 28.7553 3.31074 29.0768C3.51585 29.3984 3.80947 29.6538 4.15629 29.8125C4.42057 29.9356 4.7085 29.9995 5.00004 30C5.46954 29.9989 5.92347 29.8315 6.28129 29.5275C6.28725 29.5236 6.29271 29.519 6.29754 29.5138L10.3125 26H27C27.5305 26 28.0392 25.7893 28.4142 25.4142C28.7893 25.0391 29 24.5304 29 24V8C29 7.46957 28.7893 6.96086 28.4142 6.58579C28.0392 6.21071 27.5305 6 27 6ZM27 24H10.3125C9.84156 23.9998 9.38562 24.1658 9.02504 24.4688L9.01004 24.4825L5.00004 28V8H27V24Z" fill="#62A446"/>
</svg>
