<svg width="16" height="16" viewBox="0 0 16 16" fill="none" xmlns="http://www.w3.org/2000/svg">
<path d="M14.656 7.14863L11.8372 9.60863L12.6816 13.2711C12.7263 13.4626 12.7135 13.663 12.6449 13.8472C12.5764 14.0315 12.455 14.1914 12.296 14.3071C12.137 14.4227 11.9474 14.489 11.751 14.4975C11.5546 14.506 11.36 14.4564 11.1916 14.3549L7.99722 12.4174L4.80972 14.3549C4.64133 14.4564 4.44675 14.506 4.25033 14.4975C4.0539 14.489 3.86434 14.4227 3.70534 14.3071C3.54634 14.1914 3.42496 14.0315 3.35638 13.8472C3.28779 13.663 3.27504 13.4626 3.31972 13.2711L4.16285 9.61238L1.34347 7.14863C1.19435 7.02002 1.08652 6.85024 1.03351 6.66059C0.980489 6.47094 0.984646 6.26986 1.04545 6.08257C1.10626 5.89527 1.22101 5.7301 1.37532 5.60776C1.52963 5.48542 1.71662 5.41137 1.91285 5.39488L5.6291 5.073L7.07972 1.613C7.15547 1.43145 7.28325 1.27637 7.44696 1.16729C7.61067 1.05821 7.803 1 7.99972 1C8.19644 1 8.38877 1.05821 8.55248 1.16729C8.71619 1.27637 8.84397 1.43145 8.91972 1.613L10.3747 5.073L14.0897 5.39488C14.2859 5.41137 14.4729 5.48542 14.6272 5.60776C14.7816 5.7301 14.8963 5.89527 14.9571 6.08257C15.0179 6.26986 15.0221 6.47094 14.9691 6.66059C14.916 6.85024 14.8082 7.02002 14.6591 7.14863H14.656Z" fill="currentColor"/>
</svg>
