<svg width="42" height="42" viewBox="0 0 42 42" fill="none" xmlns="http://www.w3.org/2000/svg">
<path d="M34.5352 13.9141V23.4624C34.5352 27.4492 27.5705 29.6147 21 29.6147C14.4295 29.6147 7.46484 27.4492 7.46484 23.4624V13.9141C7.46484 13.2495 8.00606 12.6836 8.69531 12.6836H33.3047C33.9939 12.6836 34.5352 13.2495 34.5352 13.9141Z" fill="#003049"/>
<path d="M34.5352 13.9141V23.4624C34.5352 27.4492 27.5705 29.6147 21 29.6147V12.6836H33.3047C33.9939 12.6836 34.5352 13.2495 34.5352 13.9141Z" fill="#002031"/>
<path d="M42 11.1562C42 11.6731 41.6802 12.1406 41.2123 12.3127L21.4428 19.6955C21.2954 19.7449 21.1477 19.7695 21 19.7695C20.8522 19.7695 20.7045 19.7449 20.5571 19.6955L0.787598 12.3127V9.99948L20.5571 2.61667C20.7045 2.56764 20.8522 2.54297 21 2.54297C21.1477 2.54297 21.2954 2.56764 21.4428 2.61667L41.2123 9.99948C41.6802 10.1719 42 10.6394 42 11.1562Z" fill="#6EA0BA"/>
<path d="M42 11.1562C42 11.6731 41.6802 12.1406 41.2124 12.3127L21.4428 19.6955C21.2954 19.7449 21.1477 19.7695 21 19.7695V2.54297C21.1477 2.54297 21.2954 2.56764 21.4428 2.61667L41.2124 9.99948C41.6802 10.1719 42 10.6394 42 11.1562Z" fill="#3A7492"/>
<path d="M22.2305 11.1562C22.2305 11.8452 21.6893 12.3867 21 12.3867H2.46094V30.6467L4.84785 37.8327C5.0696 38.4723 4.72481 39.1863 4.08522 39.383C3.42064 39.6048 2.7317 39.26 2.53496 38.6201L2.46094 38.399C2.36256 38.9895 1.8457 39.457 1.23047 39.457C0.541214 39.457 0 38.9155 0 38.2266V11.1562C0 10.467 0.541214 9.92578 1.23047 9.92578H21C21.6893 9.92578 22.2305 10.467 22.2305 11.1562Z" fill="#F3B744"/>
</svg>
