<svg width="205" height="205" viewBox="0 0 205 205" fill="none" xmlns="http://www.w3.org/2000/svg">
<path d="M179.373 16.0156H64.0609C61.5131 16.0184 59.0706 17.0317 57.2691 18.8332C55.4676 20.6347 54.4543 23.0773 54.4515 25.625V162.333L32.6254 183.92C32.2843 184.399 32.0816 184.963 32.0395 185.55C31.9974 186.136 32.1175 186.723 32.3868 187.246C32.656 187.769 33.064 188.208 33.5659 188.515C34.0679 188.821 34.6446 188.984 35.2327 188.984H179.373C181.921 188.982 184.364 187.968 186.165 186.167C187.967 184.365 188.98 181.923 188.983 179.375V25.625C188.98 23.0773 187.967 20.6347 186.165 18.8332C184.364 17.0317 181.921 16.0184 179.373 16.0156Z" fill="#82C167"/>
<path d="M54.4522 92.8906H25.6241C23.0755 92.8906 20.6314 93.903 18.8293 95.7051C17.0272 97.5073 16.0147 99.9514 16.0147 102.5V169.097C15.9463 173.846 17.5986 178.459 20.6664 182.085C23.7342 185.71 28.0103 188.103 32.7049 188.822C35.4183 189.178 38.1764 188.952 40.7953 188.158C43.4141 187.363 45.8334 186.02 47.8917 184.216C49.95 182.412 51.5998 180.191 52.7311 177.699C53.8624 175.207 54.4492 172.502 54.4522 169.766V92.8906Z" fill="#236609"/>
<path d="M118.513 118.516C141.51 118.516 160.153 99.8725 160.153 76.875C160.153 53.8775 141.51 35.2344 118.513 35.2344C95.5152 35.2344 76.8721 53.8775 76.8721 76.875C76.8721 99.8725 95.5152 118.516 118.513 118.516Z" fill="#ADDE98"/>
<path d="M123.88 74.0619C123.346 73.8733 122.799 73.6682 122.255 73.4664V63.6174C122.859 63.8461 123.427 64.1623 123.939 64.5559C124.568 65.1202 125.395 65.4131 126.239 65.3707C127.083 65.3282 127.876 64.954 128.445 64.3294C129.015 63.7048 129.314 62.8805 129.278 62.0362C129.243 61.1919 128.875 60.3959 128.254 59.8217C126.52 58.3962 124.458 57.4236 122.255 56.9911V55.2656C122.255 54.4161 121.917 53.6014 121.317 53.0007C120.716 52.4 119.901 52.0625 119.052 52.0625C118.202 52.0625 117.387 52.4 116.787 53.0007C116.186 53.6014 115.849 54.4161 115.849 55.2656V57.2207C113.858 57.713 112.054 58.7763 110.66 60.2798C109.265 61.7833 108.34 63.6615 107.999 65.6836C107.616 67.3753 107.706 69.1396 108.258 70.7838C108.811 72.4279 109.804 73.8888 111.13 75.0068C112.589 76.1076 114.173 77.033 115.849 77.7641V90.9506C114.364 90.6891 112.962 90.0802 111.757 89.1737C111.047 88.7112 110.182 88.5493 109.352 88.7235C108.522 88.8977 107.795 89.3938 107.331 90.103C106.866 90.8123 106.702 91.6768 106.874 92.507C107.045 93.3373 107.539 94.0655 108.247 94.5321C110.479 96.1476 113.105 97.1332 115.848 97.3854V99.2928C115.848 100.142 116.186 100.957 116.787 101.558C117.387 102.158 118.202 102.496 119.052 102.496C119.901 102.496 120.716 102.158 121.316 101.558C121.917 100.957 122.255 100.142 122.255 99.2928V97.0378C124.615 96.4042 126.745 95.1099 128.395 93.3069C130.045 91.504 131.146 89.2675 131.568 86.8603C132.06 84.1571 131.551 81.3673 130.136 79.0121C128.721 76.6568 126.497 74.8972 123.88 74.0619ZM114.294 66.869C114.493 65.8265 115.041 64.8831 115.849 64.1944V70.461C115.182 70.1713 114.651 69.639 114.362 68.972C114.073 68.305 114.049 67.5532 114.294 66.869ZM125.252 85.7984C125.094 86.7029 124.746 87.5634 124.229 88.3222C123.712 89.081 123.039 89.7206 122.255 90.1982V80.3382C123.32 80.7467 124.205 81.5195 124.754 82.5193C125.302 83.519 125.479 84.6808 125.252 85.7984Z" fill="#F1FDEB"/>
<path d="M156.95 147.344H80.0752C79.2257 147.344 78.4109 147.006 77.8102 146.406C77.2095 145.805 76.8721 144.99 76.8721 144.141C76.8721 143.291 77.2095 142.476 77.8102 141.876C78.4109 141.275 79.2257 140.938 80.0752 140.938H156.95C157.8 140.938 158.614 141.275 159.215 141.876C159.816 142.476 160.153 143.291 160.153 144.141C160.153 144.99 159.816 145.805 159.215 146.406C158.614 147.006 157.8 147.344 156.95 147.344Z" fill="#387E1B"/>
<path d="M156.95 169.766H80.0752C79.2257 169.766 78.4109 169.428 77.8102 168.827C77.2095 168.227 76.8721 167.412 76.8721 166.562C76.8721 165.713 77.2095 164.898 77.8102 164.298C78.4109 163.697 79.2257 163.359 80.0752 163.359H156.95C157.8 163.359 158.614 163.697 159.215 164.298C159.816 164.898 160.153 165.713 160.153 166.562C160.153 167.412 159.816 168.227 159.215 168.827C158.614 169.428 157.8 169.766 156.95 169.766Z" fill="#387E1B"/>
</svg>
