<svg width="21" height="19" viewBox="0 0 21 19" fill="none" xmlns="http://www.w3.org/2000/svg">
<path d="M19.1406 10.7503H16.1406C15.7428 10.7503 15.3613 10.9083 15.08 11.1897C14.7987 11.471 14.6406 11.8525 14.6406 12.2503V16.0003C14.6406 16.3981 14.7987 16.7797 15.08 17.061C15.3613 17.3423 15.7428 17.5003 16.1406 17.5003H17.6406C18.0384 17.5003 18.42 17.3423 18.7013 17.061C18.9826 16.7797 19.1406 16.3981 19.1406 16.0003V10.7503ZM19.1406 10.7503C19.1407 9.56208 18.9054 8.3856 18.4484 7.28875C17.9915 6.1919 17.3218 5.1964 16.4781 4.35969C15.6344 3.52297 14.6334 2.86161 13.5328 2.41375C12.4322 1.96589 11.2538 1.74041 10.0656 1.75031C8.87822 1.74165 7.70083 1.96805 6.60132 2.41647C5.5018 2.86488 4.50189 3.52645 3.6592 4.36304C2.81651 5.19963 2.1477 6.19471 1.69131 7.29094C1.23492 8.38717 0.999968 9.56287 1 10.7503V16.0003C1 16.3981 1.15804 16.7797 1.43934 17.061C1.72064 17.3423 2.10218 17.5003 2.5 17.5003H4C4.39782 17.5003 4.77936 17.3423 5.06066 17.061C5.34196 16.7797 5.5 16.3981 5.5 16.0003V12.2503C5.5 11.8525 5.34196 11.471 5.06066 11.1897C4.77936 10.9083 4.39782 10.7503 4 10.7503H1" stroke="currentColor" stroke-width="2" stroke-linecap="round" stroke-linejoin="round"/>
</svg>
