<svg width="186" height="140" viewBox="0 0 186 140" fill="none" xmlns="http://www.w3.org/2000/svg">
<path d="M153.674 16.7345H16.4809C12.2497 16.7345 8.19167 18.4209 5.1997 21.4228C2.20773 24.4247 0.526855 28.4961 0.526855 32.7415L0.526855 98.0006C0.526855 102.246 2.20773 106.317 5.1997 109.319C8.19167 112.321 12.2497 114.008 16.4809 114.008H28.7533C29.0969 119.93 28.2502 128.783 23.3289 140C35.5625 134.427 45.9095 125.394 53.1017 114.008H153.735C157.966 114.008 162.024 112.321 165.016 109.319C168.008 106.317 169.689 102.246 169.689 98.0006V32.7415C169.689 30.6342 169.275 28.5477 168.469 26.6016C167.663 24.6555 166.483 22.8882 164.995 21.401C163.507 19.9138 161.741 18.736 159.798 17.9352C157.855 17.1344 155.774 16.7264 153.674 16.7345Z" fill="#387E1B"/>
<path d="M32.396 0.000118406H169.589C173.82 0.000118406 177.878 1.68656 180.87 4.68845C183.862 7.69034 185.543 11.7618 185.543 16.0071V81.2662C185.543 85.5116 183.862 89.583 180.87 92.5849C177.878 95.5868 173.82 97.2732 169.589 97.2732H157.317C156.973 103.196 157.82 112.049 162.741 123.266C150.507 117.693 140.16 108.659 132.968 97.2732H32.3346C28.1033 97.2732 24.0454 95.5868 21.0534 92.5849C18.0614 89.583 16.3806 85.5116 16.3806 81.2662V16.0071C16.3805 13.8998 16.7952 11.8133 17.6008 9.86723C18.4064 7.92115 19.5871 6.15382 21.0751 4.66663C22.563 3.17944 24.3291 2.00166 26.2718 1.20086C28.2145 0.400064 30.2957 -0.00798642 32.396 0.000118406Z" fill="#82C167"/>
<path d="M111 31.1269H42.9624C42.0641 31.1269 41.2025 30.7689 40.5673 30.1315C39.9321 29.4942 39.5752 28.6298 39.5752 27.7285C39.5736 27.2818 39.6601 26.8391 39.8297 26.4261C39.9994 26.013 40.2488 25.6377 40.5637 25.3218C40.8785 25.0059 41.2526 24.7557 41.6643 24.5855C42.0759 24.4153 42.5171 24.3285 42.9624 24.3301H111C111.446 24.3285 111.887 24.4153 112.299 24.5855C112.71 24.7557 113.084 25.0059 113.399 25.3218C113.714 25.6377 113.963 26.013 114.133 26.4261C114.303 26.8391 114.389 27.2818 114.388 27.7285C114.388 28.6298 114.031 29.4942 113.396 30.1315C112.76 30.7689 111.899 31.1269 111 31.1269Z" fill="white"/>
<path d="M159.795 50.914H41.6492C41.0992 50.914 40.5716 50.6947 40.1827 50.3045C39.7937 49.9142 39.5752 49.385 39.5752 48.8331C39.5817 48.2866 39.8034 47.7649 40.192 47.3819C40.5806 46.9989 41.1045 46.7858 41.6492 46.7891H159.795C160.068 46.7875 160.339 46.8402 160.591 46.9442C160.843 47.0482 161.073 47.2014 161.266 47.3949C161.459 47.5885 161.611 47.8185 161.715 48.0717C161.819 48.325 161.871 48.5963 161.869 48.87C161.86 49.4155 161.637 49.9353 161.249 50.3176C160.861 50.6999 160.339 50.9141 159.795 50.914Z" fill="#F0FBEA"/>
<path d="M159.795 62.4521H41.6488C41.3729 62.4538 41.0994 62.3999 40.8445 62.2937C40.5897 62.1874 40.3587 62.0308 40.1653 61.8333C39.9719 61.6358 39.82 61.4014 39.7185 61.1439C39.6171 60.8864 39.5682 60.6111 39.5748 60.3343C39.5748 60.0616 39.6285 59.7916 39.7329 59.5398C39.8373 59.288 39.9903 59.0594 40.183 58.8672C40.3758 58.6749 40.6045 58.5228 40.8561 58.4196C41.1076 58.3163 41.3771 58.264 41.6488 58.2657H159.795C160.067 58.264 160.336 58.3163 160.588 58.4196C160.839 58.5228 161.068 58.6749 161.261 58.8672C161.454 59.0594 161.607 59.288 161.711 59.5398C161.815 59.7916 161.869 60.0616 161.869 60.3343C161.876 60.6111 161.827 60.8864 161.725 61.1439C161.624 61.4014 161.472 61.6358 161.279 61.8333C161.085 62.0308 160.854 62.1874 160.599 62.2937C160.344 62.3999 160.071 62.4538 159.795 62.4521Z" fill="#F0FBEA"/>
<path d="M134.023 74.7666H41.6488C41.3729 74.7683 41.0994 74.7144 40.8445 74.6081C40.5897 74.5018 40.3587 74.3453 40.1653 74.1478C39.9719 73.9503 39.82 73.7158 39.7185 73.4583C39.6171 73.2008 39.5682 72.9255 39.5748 72.6487C39.5748 72.376 39.6285 72.106 39.7329 71.8542C39.8373 71.6025 39.9903 71.3739 40.183 71.1816C40.3758 70.9894 40.6045 70.8373 40.8561 70.734C41.1076 70.6308 41.3771 70.5785 41.6488 70.5801H134.023C134.571 70.5801 135.097 70.7977 135.485 71.1852C135.874 71.5728 136.094 72.099 136.097 72.6487C136.102 72.9251 136.052 73.1996 135.95 73.4564C135.848 73.7131 135.696 73.9469 135.503 74.1441C135.31 74.3412 135.079 74.4978 134.825 74.6047C134.571 74.7116 134.298 74.7666 134.023 74.7666Z" fill="#F0FBEA"/>
<path d="M158.874 31.1269H126.414C125.516 31.1269 124.654 30.7689 124.019 30.1315C123.384 29.4942 123.027 28.6298 123.027 27.7285C123.025 27.2818 123.112 26.8391 123.281 26.4261C123.451 26.013 123.7 25.6377 124.015 25.3218C124.33 25.0059 124.704 24.7557 125.116 24.5855C125.528 24.4153 125.969 24.3285 126.414 24.3301H158.874C159.319 24.3301 159.759 24.4181 160.169 24.589C160.579 24.76 160.952 25.0105 161.265 25.3262C161.579 25.6419 161.827 26.0167 161.996 26.4289C162.165 26.8412 162.251 27.2828 162.249 27.7285C162.249 28.6277 161.894 29.4902 161.262 30.1272C160.629 30.7642 159.771 31.1236 158.874 31.1269Z" fill="white"/>
</svg>
