<svg width="57" height="56" viewBox="0 0 57 56" fill="none" xmlns="http://www.w3.org/2000/svg">
<circle cx="28.0088" cy="28" r="28" fill="#F0FBEA"/>
<mask id="mask0_5994_16351" style="mask-type:alpha" maskUnits="userSpaceOnUse" x="0" y="0" width="57" height="56">
<circle cx="28.0088" cy="28" r="28" fill="#F0FBEA"/>
</mask>
<g mask="url(#mask0_5994_16351)">
<path d="M7.57715 14.876V43.0192C7.57722 44.1448 8.02189 45.2243 8.81333 46.0202C9.60477 46.8161 10.6782 47.2632 11.7974 47.2632H50.4331C51.5524 47.2632 52.6258 46.8161 53.4172 46.0202C54.2087 45.2243 54.6533 44.1448 54.6534 43.0192V14.876H7.57715Z" fill="white"/>
<path d="M50.5541 8.7998H11.6759C10.5888 8.80003 9.54635 9.23447 8.77771 10.0076C8.00906 10.7807 7.57722 11.8292 7.57715 12.9225V14.8755H54.6534V12.9225C54.6534 11.8291 54.2215 10.7805 53.4527 10.0073C52.6839 9.23416 51.6413 8.7998 50.5541 8.7998Z" fill="#62A446"/>
<path d="M53.6697 10.3467C54.0442 10.9979 54.2408 11.7371 54.2398 12.4894V14.2794H7.57715V14.8744H54.6534V13.0846C54.6547 12.0842 54.3065 11.1152 53.6697 10.3467Z" fill="#4D8E31"/>
<path d="M39.3903 17.5498H34.9358V21.702H39.3903V17.5498Z" fill="#D6F1CA"/>
<path d="M15.1981 23.0723H10.7437V27.2245H15.1981V23.0723Z" fill="#D6F1CA"/>
<path d="M21.2462 23.0723H16.7917V27.2245H21.2462V23.0723Z" fill="#D6F1CA"/>
<path d="M27.2943 23.0723H22.8398V27.2245H27.2943V23.0723Z" fill="#D6F1CA"/>
<path d="M33.3422 23.0723H28.8877V27.2245H33.3422V23.0723Z" fill="#D6F1CA"/>
<path d="M39.39 23.0723H34.9355V27.2245H39.39V23.0723Z" fill="#D6F1CA"/>
<path d="M15.1981 28.5928H10.7437V32.745H15.1981V28.5928Z" fill="#D6F1CA"/>
<path d="M21.2462 28.5928H16.7917V32.745H21.2462V28.5928Z" fill="#D6F1CA"/>
<path d="M27.2943 28.5928H22.8398V32.745H27.2943V28.5928Z" fill="#D6F1CA"/>
<path d="M33.3422 28.5928H28.8877V32.745H33.3422V28.5928Z" fill="#D6F1CA"/>
<path d="M39.39 28.5928H34.9355V32.745H39.39V28.5928Z" fill="#D6F1CA"/>
<path d="M15.1981 34.1162H10.7437V38.2684H15.1981V34.1162Z" fill="#D6F1CA"/>
<path d="M21.2462 34.1162H16.7917V38.2684H21.2462V34.1162Z" fill="#D6F1CA"/>
<path d="M27.2943 34.1162H22.8398V38.2684H27.2943V34.1162Z" fill="#D6F1CA"/>
<path d="M33.3422 34.1162H28.8877V38.2684H33.3422V34.1162Z" fill="#D6F1CA"/>
<path d="M39.39 34.1162H34.9355V38.2684H39.39V34.1162Z" fill="#D6F1CA"/>
<path d="M15.1981 39.6377H10.7437V43.7899H15.1981V39.6377Z" fill="#D6F1CA"/>
<path d="M21.2462 39.6377H16.7917V43.7899H21.2462V39.6377Z" fill="#D6F1CA"/>
<path d="M27.2943 39.6377H22.8398V43.7899H27.2943V39.6377Z" fill="#D6F1CA"/>
<path d="M33.3422 39.6377H28.8877V43.7899H33.3422V39.6377Z" fill="#D6F1CA"/>
<path d="M39.39 39.6377H34.9355V43.7899H39.39V39.6377Z" fill="#D6F1CA"/>
<path d="M45.4379 17.5498H40.9834V21.702H45.4379V17.5498Z" fill="#ADDE98"/>
<path d="M51.486 17.5498H47.0315V21.702H51.486V17.5498Z" fill="#ADDE98"/>
<path d="M45.4379 23.0723H40.9834V27.2245H45.4379V23.0723Z" fill="#ADDE98"/>
<path d="M51.486 23.0723H47.0315V27.2245H51.486V23.0723Z" fill="#ADDE98"/>
<path d="M45.4379 28.5928H40.9834V32.745H45.4379V28.5928Z" fill="#ADDE98"/>
<path d="M51.486 28.5928H47.0315V32.745H51.486V28.5928Z" fill="#ADDE98"/>
<path d="M45.4379 34.1162H40.9834V38.2684H45.4379V34.1162Z" fill="#ADDE98"/>
<path d="M51.486 34.1162H47.0315V38.2684H51.486V34.1162Z" fill="#ADDE98"/>
<path d="M45.4379 39.6377H40.9834V43.7899H45.4379V39.6377Z" fill="#ADDE98"/>
<path d="M51.486 39.6377H47.0315V43.7899H51.486V39.6377Z" fill="#ADDE98"/>
<path opacity="0.05" d="M7.74023 44.1589C7.99553 45.0534 8.53333 45.84 9.27242 46.4C10.0115 46.96 10.9117 47.2629 11.8371 47.263H50.3925C51.5225 47.263 52.6062 46.8115 53.4053 46.008C54.2043 45.2044 54.6533 44.1146 54.6533 42.9782V17.9072C50.8912 26.4816 39.117 44.9773 7.74023 44.1589Z" fill="black"/>
<path d="M12.1046 9.73286H50.6597C51.3003 9.73238 51.9327 9.87739 52.5097 10.1571C53.0868 10.4368 53.5936 10.8439 53.9923 11.3481C53.6663 10.6659 53.1556 10.0901 52.5188 9.68684C51.882 9.28355 51.145 9.06918 50.3925 9.06836H11.837C9.63512 9.06836 7.84375 10.8696 7.84375 13.0846V14.0168C7.84405 12.8805 8.29309 11.7909 9.09211 10.9875C9.89114 10.1842 10.9747 9.73286 12.1046 9.73286Z" fill="#82C167"/>
<path d="M17.0683 11.2412H15.6517C15.1285 11.2412 14.7043 11.6678 14.7043 12.1939V12.2716C14.7043 12.7978 15.1285 13.2243 15.6517 13.2243H17.0683C17.5915 13.2243 18.0156 12.7978 18.0156 12.2716V12.1939C18.0156 11.6678 17.5915 11.2412 17.0683 11.2412Z" fill="#387E1B"/>
<path d="M15.4798 6.39941H15.4373C15.1498 6.39941 14.9167 6.63379 14.9167 6.92291V12.2468C14.9167 12.5359 15.1498 12.7703 15.4373 12.7703H15.4798C15.7673 12.7703 16.0004 12.5359 16.0004 12.2468V6.92291C16.0004 6.63379 15.7673 6.39941 15.4798 6.39941Z" fill="#D6F1CA"/>
<path d="M17.283 6.39941H17.2405C16.953 6.39941 16.72 6.63379 16.72 6.92291V12.2468C16.72 12.5359 16.953 12.7703 17.2405 12.7703H17.283C17.5705 12.7703 17.8036 12.5359 17.8036 12.2468V6.92291C17.8036 6.63379 17.5705 6.39941 17.283 6.39941Z" fill="#D6F1CA"/>
<path d="M15.4586 6.39941C15.4098 6.39949 15.3613 6.40631 15.3145 6.41968C15.4287 6.45134 15.5294 6.51981 15.6012 6.61457C15.6729 6.70934 15.7118 6.82517 15.7119 6.9443V12.2254C15.7118 12.3445 15.6729 12.4603 15.6011 12.5551C15.5293 12.6499 15.4286 12.7183 15.3145 12.75C15.3614 12.7633 15.4099 12.7701 15.4586 12.7703C15.5298 12.7704 15.6003 12.7563 15.6661 12.729C15.7319 12.7016 15.7917 12.6615 15.8421 12.6109C15.8924 12.5603 15.9324 12.5002 15.9596 12.4341C15.9869 12.3679 16.0009 12.297 16.0009 12.2254V6.9443C16.0009 6.8727 15.9869 6.8018 15.9596 6.73565C15.9324 6.66951 15.8924 6.60941 15.8421 6.55881C15.7917 6.5082 15.7319 6.46808 15.6661 6.44073C15.6003 6.41338 15.5298 6.39934 15.4586 6.39941Z" fill="#BFBFBF"/>
<path d="M17.2618 6.39941C17.2131 6.39949 17.1646 6.40631 17.1177 6.41968C17.2319 6.45134 17.3326 6.5198 17.4044 6.61457C17.4762 6.70934 17.515 6.82517 17.5151 6.9443V12.2254C17.515 12.3445 17.4761 12.4603 17.4043 12.5551C17.3325 12.6499 17.2318 12.7183 17.1177 12.75C17.1646 12.7633 17.2131 12.7701 17.2618 12.7703C17.4055 12.7703 17.5433 12.7129 17.6449 12.6107C17.7465 12.5085 17.8036 12.3699 17.8036 12.2254V6.9443C17.8036 6.79979 17.7465 6.66119 17.6449 6.55901C17.5433 6.45682 17.4055 6.39941 17.2618 6.39941V6.39941Z" fill="#BFBFBF"/>
<path d="M26.905 11.2412H25.4883C24.9651 11.2412 24.541 11.6678 24.541 12.1939V12.2716C24.541 12.7978 24.9651 13.2243 25.4883 13.2243H26.905C27.4282 13.2243 27.8523 12.7978 27.8523 12.2716V12.1939C27.8523 11.6678 27.4282 11.2412 26.905 11.2412Z" fill="#387E1B"/>
<path d="M25.3162 6.39941H25.2737C24.9862 6.39941 24.7532 6.63379 24.7532 6.92291V12.2468C24.7532 12.5359 24.9862 12.7703 25.2737 12.7703H25.3162C25.6037 12.7703 25.8368 12.5359 25.8368 12.2468V6.92291C25.8368 6.63379 25.6037 6.39941 25.3162 6.39941Z" fill="#D6F1CA"/>
<path d="M27.1197 6.39941H27.0772C26.7897 6.39941 26.5566 6.63379 26.5566 6.92291V12.2468C26.5566 12.5359 26.7897 12.7703 27.0772 12.7703H27.1197C27.4072 12.7703 27.6403 12.5359 27.6403 12.2468V6.92291C27.6403 6.63379 27.4072 6.39941 27.1197 6.39941Z" fill="#D6F1CA"/>
<path d="M25.2951 6.39941C25.2468 6.39964 25.1988 6.40646 25.1523 6.41968C25.2665 6.45134 25.3673 6.5198 25.439 6.61457C25.5108 6.70934 25.5497 6.82517 25.5497 6.9443V12.2254C25.5497 12.3445 25.5108 12.4603 25.439 12.5551C25.3672 12.6499 25.2665 12.7183 25.1523 12.75C25.1993 12.7632 25.2477 12.7701 25.2965 12.7703C25.4399 12.7699 25.5774 12.7124 25.6787 12.6102C25.78 12.5081 25.8369 12.3697 25.8369 12.2254V6.9443C25.8369 6.79979 25.7798 6.66119 25.6782 6.55901C25.5766 6.45682 25.4388 6.39941 25.2951 6.39941V6.39941Z" fill="#BFBFBF"/>
<path d="M27.0985 6.39941C27.0497 6.3995 27.0011 6.40631 26.9541 6.41968C27.0684 6.45129 27.1691 6.51973 27.241 6.6145C27.3128 6.70927 27.3517 6.82513 27.3518 6.9443V12.2254C27.3517 12.3446 27.3127 12.4604 27.2409 12.5552C27.1691 12.6499 27.0683 12.7184 26.9541 12.75C27.0011 12.7633 27.0497 12.7701 27.0985 12.7703C27.1696 12.7703 27.2401 12.7562 27.3058 12.7288C27.3715 12.7014 27.4312 12.6613 27.4815 12.6107C27.5318 12.5601 27.5717 12.5 27.5989 12.4339C27.6261 12.3678 27.6401 12.297 27.64 12.2254V6.9443C27.6401 6.87276 27.6261 6.80191 27.5989 6.7358C27.5717 6.6697 27.5318 6.60963 27.4815 6.55902C27.4312 6.50842 27.3715 6.46828 27.3058 6.4409C27.2401 6.41351 27.1696 6.39941 27.0985 6.39941V6.39941Z" fill="#BFBFBF"/>
<path d="M36.7414 11.2412H35.3248C34.8016 11.2412 34.3774 11.6678 34.3774 12.1939V12.2716C34.3774 12.7978 34.8016 13.2243 35.3248 13.2243H36.7414C37.2646 13.2243 37.6887 12.7978 37.6887 12.2716V12.1939C37.6887 11.6678 37.2646 11.2412 36.7414 11.2412Z" fill="#387E1B"/>
<path d="M35.1529 6.39941H35.1104C34.8229 6.39941 34.5898 6.63379 34.5898 6.92291V12.2468C34.5898 12.5359 34.8229 12.7703 35.1104 12.7703H35.1529C35.4404 12.7703 35.6735 12.5359 35.6735 12.2468V6.92291C35.6735 6.63379 35.4404 6.39941 35.1529 6.39941Z" fill="#D6F1CA"/>
<path d="M36.9561 6.39941H36.9136C36.6261 6.39941 36.3931 6.63379 36.3931 6.92291V12.2468C36.3931 12.5359 36.6261 12.7703 36.9136 12.7703H36.9561C37.2436 12.7703 37.4767 12.5359 37.4767 12.2468V6.92291C37.4767 6.63379 37.2436 6.39941 36.9561 6.39941Z" fill="#D6F1CA"/>
<path d="M35.1317 6.39942C35.0829 6.39952 35.0343 6.40634 34.9873 6.41968C35.1016 6.45129 35.2023 6.51973 35.2742 6.6145C35.346 6.70927 35.3849 6.82513 35.385 6.9443V12.2254C35.3849 12.3446 35.3459 12.4604 35.2741 12.5552C35.2023 12.6499 35.1015 12.7184 34.9873 12.75C35.0343 12.7632 35.0829 12.7701 35.1317 12.7703C35.203 12.7705 35.2736 12.7565 35.3395 12.7292C35.4054 12.7019 35.4653 12.6618 35.5157 12.6112C35.5662 12.5606 35.6062 12.5005 35.6335 12.4343C35.6609 12.3681 35.6749 12.2971 35.6749 12.2254V6.9443C35.6749 6.87263 35.6609 6.80166 35.6335 6.73546C35.6062 6.66926 35.5662 6.60913 35.5157 6.55851C35.4653 6.5079 35.4054 6.46779 35.3395 6.44049C35.2736 6.41319 35.203 6.39923 35.1317 6.39942Z" fill="#BFBFBF"/>
<path d="M36.9342 6.39941C36.8854 6.39952 36.8368 6.40634 36.7898 6.41968C36.904 6.45129 37.0048 6.51973 37.0767 6.6145C37.1485 6.70927 37.1874 6.82513 37.1875 6.9443V12.2254C37.1874 12.3446 37.1484 12.4604 37.0766 12.5552C37.0048 12.6499 36.904 12.7184 36.7898 12.75C36.8368 12.7632 36.8854 12.7701 36.9342 12.7703C37.0054 12.7704 37.0759 12.7563 37.1417 12.729C37.2075 12.7016 37.2673 12.6615 37.3177 12.6109C37.368 12.5603 37.408 12.5002 37.4353 12.4341C37.4625 12.3679 37.4766 12.297 37.4766 12.2254V6.9443C37.4766 6.8727 37.4625 6.8018 37.4353 6.73565C37.408 6.66951 37.368 6.60941 37.3177 6.55881C37.2673 6.5082 37.2075 6.46808 37.1417 6.44073C37.0759 6.41338 37.0054 6.39934 36.9342 6.39941Z" fill="#BFBFBF"/>
<path d="M46.5778 11.2412H45.1612C44.638 11.2412 44.2139 11.6678 44.2139 12.1939V12.2716C44.2139 12.7978 44.638 13.2243 45.1612 13.2243H46.5778C47.101 13.2243 47.5251 12.7978 47.5251 12.2716V12.1939C47.5251 11.6678 47.101 11.2412 46.5778 11.2412Z" fill="#387E1B"/>
<path d="M44.9893 6.39941H44.9468C44.6593 6.39941 44.4263 6.63379 44.4263 6.92291V12.2468C44.4263 12.5359 44.6593 12.7703 44.9468 12.7703H44.9893C45.2768 12.7703 45.5099 12.5359 45.5099 12.2468V6.92291C45.5099 6.63379 45.2768 6.39941 44.9893 6.39941Z" fill="#D6F1CA"/>
<path d="M46.7926 6.39941H46.75C46.4625 6.39941 46.2295 6.63379 46.2295 6.92291V12.2468C46.2295 12.5359 46.4625 12.7703 46.75 12.7703H46.7926C47.08 12.7703 47.3131 12.5359 47.3131 12.2468V6.92291C47.3131 6.63379 47.08 6.39941 46.7926 6.39941Z" fill="#D6F1CA"/>
<path d="M44.9681 6.39941C44.9194 6.39949 44.8709 6.40631 44.824 6.41968C44.9382 6.45134 45.0389 6.5198 45.1107 6.61457C45.1825 6.70934 45.2213 6.82517 45.2214 6.9443V12.2254C45.2213 12.3445 45.1824 12.4603 45.1106 12.5551C45.0388 12.6499 44.9381 12.7183 44.824 12.75C44.8709 12.7633 44.9194 12.7701 44.9681 12.7703C45.1118 12.7703 45.2496 12.7129 45.3512 12.6107C45.4528 12.5085 45.5099 12.3699 45.5099 12.2254V6.9443C45.5099 6.79979 45.4528 6.66119 45.3512 6.55901C45.2496 6.45682 45.1118 6.39941 44.9681 6.39941V6.39941Z" fill="#BFBFBF"/>
<path d="M46.7713 6.39941C46.7226 6.39949 46.6741 6.40631 46.6272 6.41968C46.7414 6.45134 46.8421 6.5198 46.9139 6.61457C46.9857 6.70934 47.0246 6.82517 47.0246 6.9443V12.2254C47.0245 12.3445 46.9856 12.4603 46.9138 12.5551C46.8421 12.6499 46.7414 12.7183 46.6272 12.75C46.6741 12.7633 46.7226 12.7701 46.7713 12.7703C46.915 12.7703 47.0528 12.7129 47.1544 12.6107C47.256 12.5085 47.3131 12.3699 47.3131 12.2254V6.9443C47.3131 6.79979 47.256 6.66119 47.1544 6.55901C47.0528 6.45682 46.915 6.39941 46.7713 6.39941V6.39941Z" fill="#BFBFBF"/>
<path opacity="0.15" d="M16.773 22.4482C8.96946 22.4482 2.64355 28.809 2.64355 36.6583C2.64355 40.826 4.42765 44.5747 7.2696 47.1739L26.1782 47.2631C29.0772 44.6608 30.9025 40.8742 30.9025 36.6583C30.9025 28.8104 24.5766 22.4482 16.773 22.4482Z" fill="black"/>
<path d="M7.22616 24.225L6.81644 23.6058L6.0849 24.095C5.98908 24.1592 5.87652 24.1935 5.76138 24.1935C5.72266 24.1934 5.68405 24.1896 5.64608 24.182C5.49418 24.1511 5.36064 24.0609 5.27471 23.9312L4.39372 22.5991C4.35104 22.5347 4.32141 22.4626 4.30652 22.3867C4.29162 22.3108 4.29175 22.2328 4.30691 22.1569C4.32207 22.0811 4.35195 22.0091 4.39484 21.9449C4.43773 21.8807 4.49279 21.8256 4.55687 21.7829L7.03194 20.1274C7.16103 20.0412 7.31888 20.01 7.4708 20.0408C7.62272 20.0715 7.75628 20.1617 7.84212 20.2915L8.72451 21.6247C8.76719 21.689 8.79682 21.7612 8.81172 21.8371C8.82661 21.913 8.82648 21.991 8.81132 22.0668C8.79617 22.1427 8.76628 22.2147 8.72339 22.2789C8.6805 22.3431 8.62544 22.3982 8.56136 22.4409L7.79091 22.956L8.20034 23.5751C10.2389 22.3297 12.5588 21.626 14.9421 21.5301V20.3219H13.1743C13.0193 20.3219 12.8706 20.26 12.7611 20.1498C12.6515 20.0395 12.5899 19.8901 12.5899 19.7342V17.6121C12.5899 17.4562 12.6515 17.3067 12.7611 17.1965C12.8706 17.0863 13.0193 17.0244 13.1743 17.0244H17.9517C18.1067 17.0244 18.2553 17.0863 18.3649 17.1965C18.4745 17.3067 18.536 17.4562 18.536 17.6121V19.7342C18.536 19.8901 18.4745 20.0395 18.3649 20.1498C18.2553 20.26 18.1067 20.3219 17.9517 20.3219H16.1094V21.5287C23.6479 21.8383 29.6859 28.1011 29.6859 35.7568C29.6859 43.6093 23.3331 49.9982 15.5251 49.9982C7.71703 49.9982 1.36426 43.6093 1.36426 35.7568C1.36426 31.0195 3.677 26.8155 7.22616 24.225Z" fill="#003049"/>
<path opacity="0.25" d="M25.2572 25.4248C27.6399 27.9742 29.1016 31.4031 29.1016 35.1694C29.1016 43.0219 22.7488 49.4108 14.9408 49.4108C11.1767 49.4108 7.75127 47.9258 5.2124 45.5085C7.79717 48.272 11.4639 50.001 15.5252 50.001C23.3332 50.001 29.686 43.6121 29.686 35.7596C29.686 31.6941 27.983 28.022 25.2572 25.4248Z" fill="black"/>
<g opacity="0.25">
<path d="M7.60778 20.7989C7.58574 20.7657 7.5574 20.7371 7.52437 20.7148C7.49134 20.6925 7.45428 20.6771 7.41529 20.6692C7.3763 20.6614 7.33616 20.6613 7.29716 20.6691C7.25816 20.6769 7.22106 20.6923 7.18799 20.7145L4.71293 22.3697C4.68122 22.391 4.65378 22.4181 4.63205 22.4496L4.62841 22.444C4.6063 22.4108 4.59093 22.3735 4.58318 22.3342C4.57544 22.295 4.57546 22.2546 4.58326 22.2154C4.59106 22.1762 4.60648 22.1389 4.62864 22.1057C4.65079 22.0725 4.67925 22.044 4.71237 22.0218L7.18743 20.3666C7.2205 20.3444 7.2576 20.329 7.2966 20.3212C7.3356 20.3135 7.37574 20.3135 7.41473 20.3213C7.45372 20.3292 7.49078 20.3447 7.52381 20.3669C7.55684 20.3892 7.58518 20.4178 7.60722 20.4511L8.48793 21.7829C8.52144 21.8337 8.53899 21.8934 8.53829 21.9543C8.53759 22.0153 8.51868 22.0746 8.48401 22.1246L7.60778 20.7989Z" fill="white"/>
<path d="M17.9518 17.657H13.1744C13.0942 17.6571 13.0172 17.6892 12.9605 17.7462C12.9037 17.8032 12.8717 17.8806 12.8716 17.9613V17.6128C12.8717 17.5321 12.9037 17.4548 12.9605 17.3978C13.0172 17.3407 13.0942 17.3087 13.1744 17.3086H17.9518C18.0321 17.3087 18.109 17.3407 18.1657 17.3978C18.2224 17.4548 18.2543 17.5322 18.2544 17.6128V17.9604C18.2541 17.8799 18.2221 17.8028 18.1654 17.7459C18.1087 17.6891 18.0319 17.6571 17.9518 17.657Z" fill="white"/>
<path d="M14.9282 21.8115C11.3522 21.9615 8.0101 23.478 5.51601 26.0836C3.0124 28.6992 1.63354 32.1342 1.63354 35.7562C1.63354 35.8125 1.63494 35.8688 1.6355 35.9251C1.68028 32.3695 3.05354 29.0042 5.51601 26.4318C8.0101 23.8256 11.3522 22.3088 14.9282 22.1586V21.8115Z" fill="white"/>
</g>
<path d="M15.4877 48.0036C22.213 48.0036 27.6649 42.5207 27.6649 35.7572C27.6649 28.9937 22.213 23.5107 15.4877 23.5107C8.76245 23.5107 3.31055 28.9937 3.31055 35.7572C3.31055 42.5207 8.76245 48.0036 15.4877 48.0036Z" fill="white"/>
<path opacity="0.1" d="M4.56039 36.4317C4.56039 29.6789 10.0229 24.1853 16.7376 24.1853C18.4986 24.183 20.2389 24.5672 21.8371 25.311C19.9273 24.131 17.7292 23.5074 15.4877 23.5098C8.77309 23.5117 3.31055 29.0056 3.31055 35.7584C3.31055 40.6807 6.21379 44.9337 10.3881 46.8777C6.89524 44.7226 4.56039 40.8462 4.56039 36.4317Z" fill="black"/>
<path d="M24.623 30.4746L24.6138 30.4583C22.7944 27.3019 19.4034 25.171 15.5251 25.1572V35.7572L24.623 30.4746Z" fill="#FFB552"/>
<path d="M15.5252 25.917C15.4882 25.917 15.4516 25.9097 15.4174 25.8955C15.3832 25.8813 15.3521 25.8604 15.326 25.8341C15.2998 25.8078 15.279 25.7766 15.2649 25.7423C15.2507 25.7079 15.2434 25.671 15.2434 25.6338V24.6848C15.2434 24.6096 15.2731 24.5375 15.326 24.4844C15.3788 24.4312 15.4505 24.4014 15.5252 24.4014C15.6 24.4014 15.6716 24.4312 15.7245 24.4844C15.7773 24.5375 15.807 24.6096 15.807 24.6848V25.6338C15.807 25.671 15.7998 25.7079 15.7856 25.7423C15.7714 25.7766 15.7507 25.8078 15.7245 25.8341C15.6983 25.8604 15.6672 25.8813 15.6331 25.8955C15.5989 25.9097 15.5622 25.917 15.5252 25.917Z" fill="#003049"/>
<path d="M15.5252 47.1152C15.4505 47.1152 15.3788 47.0854 15.326 47.0322C15.2731 46.9791 15.2434 46.907 15.2434 46.8318V45.883C15.2434 45.8079 15.2731 45.7358 15.326 45.6826C15.3788 45.6295 15.4505 45.5996 15.5252 45.5996C15.6 45.5996 15.6716 45.6295 15.7245 45.6826C15.7773 45.7358 15.807 45.8079 15.807 45.883V46.8318C15.807 46.869 15.7998 46.9059 15.7856 46.9403C15.7714 46.9746 15.7507 47.0059 15.7245 47.0322C15.6983 47.0585 15.6673 47.0794 15.6331 47.0936C15.5989 47.1079 15.5622 47.1152 15.5252 47.1152Z" fill="#003049"/>
<path d="M10.4915 27.2725C10.442 27.2727 10.3934 27.2598 10.3506 27.2351C10.3077 27.2104 10.272 27.1748 10.2471 27.1318L9.77531 26.31C9.73779 26.2448 9.72755 26.1673 9.74683 26.0946C9.76612 26.0218 9.81336 25.9597 9.87816 25.922C9.94295 25.8843 10.02 25.874 10.0923 25.8934C10.1647 25.9128 10.2264 25.9603 10.2639 26.0254L10.7358 26.8473C10.7604 26.8904 10.7734 26.9392 10.7734 26.9889C10.7734 27.0386 10.7604 27.0875 10.7357 27.1305C10.711 27.1736 10.6755 27.2094 10.6328 27.2343C10.59 27.2592 10.5415 27.2724 10.492 27.2725H10.4915Z" fill="#003049"/>
<path d="M21.0312 45.6327C20.9818 45.633 20.9332 45.6202 20.8903 45.5954C20.8475 45.5707 20.8119 45.535 20.7872 45.492L20.3153 44.6702C20.2791 44.6051 20.2697 44.5284 20.2893 44.4564C20.309 44.3845 20.356 44.3233 20.4202 44.286C20.4844 44.2487 20.5606 44.2384 20.6324 44.2573C20.7041 44.2761 20.7656 44.3226 20.8034 44.3867L21.275 45.2086C21.2996 45.2517 21.3126 45.3005 21.3126 45.3502C21.3126 45.3999 21.2996 45.4488 21.2749 45.4918C21.2502 45.5349 21.2147 45.5707 21.172 45.5956C21.1292 45.6205 21.0807 45.6337 21.0312 45.6338V45.6327Z" fill="#003049"/>
<path d="M6.80543 30.9786C6.75627 30.9786 6.70799 30.9655 6.66551 30.9407L5.84776 30.4661C5.81523 30.4478 5.78665 30.4231 5.76368 30.3936C5.7407 30.364 5.72378 30.3302 5.71391 30.294C5.70404 30.2578 5.7014 30.22 5.70616 30.1828C5.71092 30.1456 5.72297 30.1097 5.74162 30.0772C5.76027 30.0448 5.78515 30.0163 5.81481 29.9936C5.84447 29.9708 5.87833 29.9542 5.91442 29.9448C5.95051 29.9353 5.98811 29.9331 6.02504 29.9383C6.06198 29.9436 6.09751 29.9561 6.12958 29.9753L6.94676 30.4498C7.00051 30.481 7.0425 30.5292 7.06623 30.5869C7.08995 30.6446 7.09408 30.7085 7.07797 30.7688C7.06186 30.8291 7.02642 30.8823 6.97714 30.9203C6.92786 30.9582 6.8675 30.9787 6.80543 30.9786Z" fill="#003049"/>
<path d="M25.0615 41.5783C25.0123 41.5782 24.9641 41.5651 24.9215 41.5403L24.1044 41.0657C24.0718 41.0474 24.0432 41.0227 24.0203 40.9932C23.9973 40.9636 23.9804 40.9298 23.9705 40.8936C23.9606 40.8574 23.958 40.8196 23.9628 40.7824C23.9675 40.7452 23.9796 40.7093 23.9982 40.6769C24.0169 40.6444 24.0417 40.6159 24.0714 40.5932C24.1011 40.5704 24.1349 40.5539 24.171 40.5444C24.2071 40.5349 24.2447 40.5327 24.2816 40.5379C24.3186 40.5432 24.3541 40.5557 24.3862 40.5749L25.2034 41.0494C25.257 41.0806 25.2989 41.1286 25.3227 41.1862C25.3464 41.2437 25.3507 41.3075 25.3347 41.3677C25.3188 41.4279 25.2836 41.4812 25.2346 41.5192C25.1855 41.5573 25.1254 41.578 25.0634 41.5783H25.0615Z" fill="#003049"/>
<path d="M5.45675 36.0413H4.51335C4.47562 36.0425 4.43802 36.0361 4.40281 36.0224C4.3676 36.0087 4.33548 35.988 4.30836 35.9616C4.28125 35.9351 4.25969 35.9035 4.24497 35.8685C4.23024 35.8336 4.22266 35.796 4.22266 35.758C4.22266 35.7201 4.23024 35.6825 4.24497 35.6475C4.25969 35.6125 4.28125 35.5809 4.30836 35.5545C4.33548 35.5281 4.3676 35.5074 4.40281 35.4937C4.43802 35.48 4.47562 35.4736 4.51335 35.4748H5.45675C5.49449 35.4736 5.53208 35.48 5.5673 35.4937C5.60251 35.5074 5.63463 35.5281 5.66174 35.5545C5.68886 35.5809 5.71042 35.6125 5.72514 35.6475C5.73986 35.6825 5.74745 35.7201 5.74745 35.758C5.74745 35.796 5.73986 35.8336 5.72514 35.8685C5.71042 35.9035 5.68886 35.9351 5.66174 35.9616C5.63463 35.988 5.60251 36.0087 5.5673 36.0224C5.53208 36.0361 5.49449 36.0425 5.45675 36.0413Z" fill="#003049"/>
<path d="M26.5374 36.0413H25.5937C25.5559 36.0425 25.5183 36.0361 25.4831 36.0224C25.4479 36.0087 25.4158 35.988 25.3887 35.9616C25.3616 35.9351 25.34 35.9035 25.3253 35.8685C25.3106 35.8336 25.303 35.796 25.303 35.758C25.303 35.7201 25.3106 35.6825 25.3253 35.6475C25.34 35.6125 25.3616 35.5809 25.3887 35.5545C25.4158 35.5281 25.4479 35.5074 25.4831 35.4937C25.5183 35.48 25.5559 35.4736 25.5937 35.4748H26.5374C26.5751 35.4736 26.6127 35.48 26.6479 35.4937C26.6831 35.5074 26.7152 35.5281 26.7423 35.5545C26.7695 35.5809 26.791 35.6125 26.8057 35.6475C26.8205 35.6825 26.8281 35.7201 26.8281 35.758C26.8281 35.796 26.8205 35.8336 26.8057 35.8685C26.791 35.9035 26.7695 35.9351 26.7423 35.9616C26.7152 35.988 26.6831 36.0087 26.6479 36.0224C26.6127 36.0361 26.5751 36.0425 26.5374 36.0413Z" fill="#003049"/>
<path d="M5.98881 41.5787C5.92686 41.5785 5.86671 41.5577 5.81767 41.5197C5.76862 41.4816 5.73341 41.4284 5.71749 41.3682C5.70156 41.3079 5.70579 41.2441 5.72954 41.1866C5.7533 41.1291 5.79523 41.081 5.84888 41.0498L6.66606 40.5753C6.73072 40.5388 6.80707 40.5294 6.87857 40.5492C6.95007 40.5689 7.01095 40.6162 7.04803 40.6808C7.0851 40.7453 7.09538 40.822 7.07663 40.8941C7.05789 40.9663 7.01163 41.0281 6.94788 41.0662L6.13069 41.5407C6.08755 41.5657 6.0386 41.5788 5.98881 41.5787Z" fill="#003049"/>
<path d="M24.2449 30.9781C24.183 30.9779 24.1228 30.9571 24.0738 30.9191C24.0247 30.881 23.9895 30.8278 23.9736 30.7676C23.9577 30.7074 23.9619 30.6436 23.9856 30.586C24.0094 30.5285 24.0513 30.4804 24.105 30.4493L24.9222 29.9747C24.9868 29.9382 25.0632 29.9288 25.1347 29.9486C25.2062 29.9683 25.2671 30.0156 25.3041 30.0802C25.3412 30.1447 25.3515 30.2214 25.3327 30.2936C25.314 30.3657 25.2677 30.4275 25.204 30.4656L24.3857 30.9412C24.3428 30.9658 24.2942 30.9785 24.2449 30.9781Z" fill="#003049"/>
<path d="M10.0189 45.6338C9.96951 45.6337 9.92098 45.6205 9.87821 45.5956C9.83544 45.5707 9.79993 45.5349 9.77525 45.4918C9.75056 45.4488 9.73756 45.3999 9.73755 45.3502C9.73754 45.3005 9.75052 45.2517 9.77518 45.2086L10.247 44.3867C10.2849 44.3226 10.3463 44.2761 10.4181 44.2573C10.4898 44.2384 10.566 44.2487 10.6302 44.286C10.6945 44.3233 10.7415 44.3845 10.7611 44.4564C10.7807 44.5284 10.7714 44.6051 10.7351 44.6702L10.2638 45.4912C10.2391 45.5345 10.2035 45.5706 10.1605 45.5956C10.1175 45.6207 10.0686 45.6339 10.0189 45.6338Z" fill="#003049"/>
<path d="M20.5592 27.2725C20.5097 27.2724 20.4611 27.2593 20.4183 27.2344C20.3755 27.2095 20.34 27.1737 20.3152 27.1306C20.2905 27.0875 20.2776 27.0386 20.2776 26.9889C20.2776 26.9391 20.2907 26.8903 20.3154 26.8472L20.7864 26.0254C20.8049 25.9931 20.8296 25.9649 20.8589 25.9423C20.8883 25.9196 20.9218 25.903 20.9575 25.8934C20.9932 25.8838 21.0305 25.8814 21.0672 25.8862C21.1038 25.8911 21.1392 25.9032 21.1712 25.9218C21.2033 25.9404 21.2313 25.9652 21.2538 25.9947C21.2763 26.0242 21.2929 26.0579 21.3024 26.0938C21.312 26.1298 21.3144 26.1672 21.3096 26.2041C21.3047 26.241 21.2927 26.2766 21.2742 26.3088L20.8027 27.1306C20.778 27.1736 20.7425 27.2093 20.6998 27.2342C20.657 27.2591 20.6086 27.2723 20.5592 27.2725Z" fill="#003049"/>
<path d="M21.8198 32.082L16.376 34.424C16.08 34.2248 15.7263 34.1309 15.3711 34.1571C15.016 34.1833 14.6797 34.3282 14.4157 34.5686C14.1518 34.8091 13.9754 35.1314 13.9144 35.4842C13.8535 35.8371 13.9116 36.2003 14.0794 36.5162C14.2473 36.8321 14.5153 37.0825 14.8409 37.2276C15.1665 37.3727 15.531 37.4042 15.8764 37.3171C16.2219 37.23 16.5285 37.0293 16.7475 36.7468C16.9665 36.4644 17.0853 36.1165 17.0852 35.7583C17.0852 35.7226 17.0852 35.6874 17.0812 35.6519L21.8198 32.082Z" fill="#003049"/>
<path d="M15.4878 36.4417C15.3543 36.4418 15.2237 36.402 15.1127 36.3274C15.0016 36.2528 14.9151 36.1468 14.8639 36.0228C14.8128 35.8987 14.7994 35.7622 14.8255 35.6305C14.8515 35.4988 14.9158 35.3778 15.0102 35.2828C15.1046 35.1879 15.2249 35.1232 15.3559 35.097C15.4869 35.0708 15.6226 35.0843 15.746 35.1357C15.8693 35.1871 15.9747 35.2742 16.0489 35.3859C16.123 35.4975 16.1626 35.6288 16.1625 35.7631C16.1623 35.943 16.0912 36.1155 15.9647 36.2427C15.8382 36.3699 15.6667 36.4415 15.4878 36.4417Z" fill="white"/>
</g>
</svg>
