<svg width="46" height="51" viewBox="0 0 46 51" fill="none" xmlns="http://www.w3.org/2000/svg">
<path d="M21.8437 9.30078H14.9917V15.6878H21.8437V9.30078Z" fill="#D6F1CA"/>
<path d="M31.1469 9.30078H24.2949V15.6878H31.1469V9.30078Z" fill="#D6F1CA"/>
<path d="M21.8437 17.793H14.9917V24.18H21.8437V17.793Z" fill="#D6F1CA"/>
<path d="M31.1469 17.793H24.2949V24.18H31.1469V17.793Z" fill="#D6F1CA"/>
<path d="M40.4502 17.793H33.5981V24.18H40.4502V17.793Z" fill="#D6F1CA"/>
<path d="M21.8437 26.293H14.9917V32.68H21.8437V26.293Z" fill="#D6F1CA"/>
<path d="M31.1469 26.293H24.2949V32.68H31.1469V26.293Z" fill="#D6F1CA"/>
<path d="M40.4502 26.293H33.5981V32.68H40.4502V26.293Z" fill="#D6F1CA"/>
<path d="M21.8437 34.7812H14.9917V41.1683H21.8437V34.7812Z" fill="#D6F1CA"/>
<path d="M31.1469 34.7812H24.2949V41.1683H31.1469V34.7812Z" fill="#D6F1CA"/>
<path d="M40.4502 34.7812H33.5981V41.1683H40.4502V34.7812Z" fill="#D6F1CA"/>
<path opacity="0.15" d="M24.2656 8.34375C12.2619 8.34375 2.53125 18.128 2.53125 30.2021C2.53125 36.613 5.27559 42.3792 9.64716 46.3774L38.7329 46.5146C43.1923 42.5117 45.9999 36.687 45.9999 30.2021C45.9999 18.1302 36.2692 8.34375 24.2656 8.34375Z" fill="black"/>
<path d="M9.5809 11.0762L8.95067 10.1237L7.82539 10.8762C7.678 10.9749 7.50486 11.0277 7.32774 11.0277C7.26819 11.0276 7.20879 11.0217 7.15039 11.0099C6.91672 10.9624 6.71131 10.8237 6.57913 10.6242L5.22397 8.57511C5.15833 8.47615 5.11274 8.36514 5.08983 8.24843C5.06692 8.13172 5.06712 8.01162 5.09044 7.89499C5.11375 7.77837 5.15971 7.66751 5.22569 7.56878C5.29167 7.47004 5.37637 7.38537 5.47494 7.3196L9.28215 4.77309C9.48072 4.64045 9.72353 4.59253 9.95722 4.63986C10.1909 4.68719 10.3964 4.82589 10.5284 5.02549L11.8857 7.0763C11.9514 7.17526 11.9969 7.28627 12.0199 7.40298C12.0428 7.51968 12.0426 7.63979 12.0192 7.75642C11.9959 7.87304 11.95 7.9839 11.884 8.08263C11.818 8.18137 11.7333 8.26604 11.6347 8.3318L10.4496 9.12407L11.0794 10.0765C14.2152 8.16078 17.7837 7.07831 21.4498 6.93083V5.07225H18.7304C18.492 5.07225 18.2634 4.97701 18.0948 4.80748C17.9263 4.63796 17.8316 4.40803 17.8316 4.16828V0.903965C17.8316 0.664219 17.9263 0.434292 18.0948 0.264766C18.2634 0.0952398 18.492 0 18.7304 0H26.0792C26.3176 0 26.5463 0.0952398 26.7148 0.264766C26.8834 0.434292 26.9781 0.664219 26.9781 0.903965V4.16828C26.9781 4.40803 26.8834 4.63796 26.7148 4.80748C26.5463 4.97701 26.3176 5.07225 26.0792 5.07225H23.2454V6.92867C34.8413 7.40489 44.129 17.0385 44.129 28.8147C44.129 40.8936 34.357 50.7212 22.3465 50.7212C10.336 50.7212 0.563965 40.8936 0.563965 28.8147C0.563965 21.5276 4.12149 15.0609 9.5809 11.0762Z" fill="#003049"/>
<path opacity="0.25" d="M37.3164 12.918C40.9815 16.8395 43.23 22.1139 43.23 27.9074C43.23 39.9863 33.458 49.8139 21.4474 49.8139C15.6574 49.8139 10.3883 47.5297 6.48291 43.8112C10.4589 48.0622 16.0991 50.7217 22.3463 50.7217C34.3568 50.7217 44.1288 40.8941 44.1288 28.8153C44.1288 22.5616 41.5093 16.9131 37.3164 12.918Z" fill="black"/>
<g opacity="0.25">
<path d="M10.1683 5.81406C10.1344 5.76286 10.0908 5.71888 10.04 5.68464C9.98916 5.6504 9.93214 5.62657 9.87217 5.61451C9.8122 5.60244 9.75045 5.60239 9.69045 5.61434C9.63046 5.6263 9.5734 5.65003 9.52253 5.68418L5.71532 8.23026C5.66655 8.26302 5.62434 8.30474 5.59091 8.35321L5.58532 8.34455C5.55131 8.29342 5.52766 8.23603 5.51574 8.17569C5.50383 8.11534 5.50387 8.05322 5.51586 7.9929C5.52786 7.93257 5.55158 7.87521 5.58566 7.82412C5.61974 7.77303 5.66351 7.7292 5.71446 7.69515L9.52167 5.14907C9.57254 5.11492 9.6296 5.09119 9.68959 5.07924C9.74959 5.06728 9.81133 5.06734 9.87131 5.0794C9.93128 5.09146 9.9883 5.1153 10.0391 5.14954C10.0899 5.18378 10.1335 5.22775 10.1674 5.27895L11.5221 7.32759C11.5737 7.40569 11.6007 7.49758 11.5996 7.59132C11.5985 7.68505 11.5694 7.77629 11.5161 7.85318L10.1683 5.81406Z" fill="white"/>
<path d="M26.0792 0.981284H18.7304C18.607 0.981399 18.4887 1.03073 18.4014 1.11846C18.314 1.20619 18.2649 1.32516 18.2646 1.44929V0.913313C18.2649 0.789187 18.314 0.670217 18.4014 0.582487C18.4887 0.494757 18.607 0.445427 18.7304 0.445312H26.0792C26.2026 0.445427 26.3209 0.494771 26.4082 0.582513C26.4954 0.670256 26.5445 0.789227 26.5446 0.913313V1.44799C26.5441 1.32413 26.4949 1.20549 26.4077 1.11803C26.3205 1.03056 26.2024 0.981398 26.0792 0.981284Z" fill="white"/>
<path d="M21.4287 7.375C15.928 7.60575 10.7871 9.9384 6.95063 13.9465C3.09952 17.9697 0.978516 23.2537 0.978516 28.8251C0.978516 28.9117 0.980668 28.9983 0.981529 29.0849C1.05041 23.6156 3.1628 18.439 6.95063 14.482C10.7871 10.4731 15.928 8.13999 21.4287 7.90881V7.375Z" fill="white"/>
</g>
<path d="M22.2889 47.6561C32.6339 47.6561 41.0201 39.2221 41.0201 28.8183C41.0201 18.4144 32.6339 9.98047 22.2889 9.98047C11.9439 9.98047 3.55762 18.4144 3.55762 28.8183C3.55762 39.2221 11.9439 47.6561 22.2889 47.6561Z" fill="white"/>
<path opacity="0.1" d="M5.48016 29.8495C5.48016 19.4621 13.8828 11.0117 24.2114 11.0117C26.9203 11.0083 29.5973 11.5992 32.0557 12.7434C29.118 10.9283 25.7368 9.96908 22.2889 9.97267C11.9603 9.9757 3.55762 18.4266 3.55762 28.8139C3.55762 36.3855 8.02347 42.9276 14.4446 45.9178C9.0717 42.6029 5.48016 36.6401 5.48016 29.8495Z" fill="black"/>
<path d="M36.3413 20.695L36.3271 20.6699C33.5285 15.8146 28.3123 12.5368 22.3467 12.5156V28.8208L36.3413 20.695Z" fill="#FFB552"/>
<path d="M22.3461 13.679C22.2892 13.6791 22.2328 13.6678 22.1802 13.646C22.1276 13.6241 22.0799 13.592 22.0396 13.5516C21.9993 13.5111 21.9674 13.4631 21.9456 13.4102C21.9238 13.3574 21.9126 13.3007 21.9126 13.2435V11.7836C21.9126 11.668 21.9583 11.5571 22.0396 11.4753C22.1209 11.3936 22.2311 11.3477 22.3461 11.3477C22.4611 11.3477 22.5713 11.3936 22.6526 11.4753C22.7339 11.5571 22.7796 11.668 22.7796 11.7836V13.2435C22.7796 13.3007 22.7684 13.3574 22.7466 13.4102C22.7248 13.4631 22.6929 13.5111 22.6526 13.5516C22.6123 13.592 22.5645 13.6241 22.512 13.646C22.4594 13.6678 22.403 13.6791 22.3461 13.679Z" fill="#003049"/>
<path d="M22.3461 46.2884C22.2311 46.2884 22.1209 46.2424 22.0396 46.1607C21.9583 46.0789 21.9126 45.968 21.9126 45.8524V44.393C21.9126 44.2774 21.9583 44.1665 22.0396 44.0847C22.1209 44.003 22.2311 43.957 22.3461 43.957C22.4611 43.957 22.5713 44.003 22.6526 44.0847C22.7339 44.1665 22.7796 44.2774 22.7796 44.393V45.8524C22.7796 45.9097 22.7684 45.9664 22.7466 46.0193C22.7248 46.0721 22.6929 46.1202 22.6526 46.1607C22.6124 46.2012 22.5646 46.2333 22.512 46.2552C22.4594 46.2771 22.403 46.2884 22.3461 46.2884Z" fill="#003049"/>
<path d="M14.6034 15.7612C14.5274 15.7615 14.4527 15.7416 14.3867 15.7036C14.3207 15.6656 14.2659 15.6108 14.2276 15.5448L13.5018 14.2806C13.4441 14.1803 13.4283 14.0612 13.458 13.9492C13.4877 13.8373 13.5603 13.7418 13.66 13.6838C13.7597 13.6257 13.8782 13.6099 13.9895 13.6397C14.1008 13.6696 14.1957 13.7427 14.2534 13.8429L14.9792 15.1071C15.0172 15.1733 15.0371 15.2485 15.0371 15.3249C15.0371 15.4014 15.0171 15.4765 14.9791 15.5428C14.9412 15.609 14.8866 15.6641 14.8208 15.7024C14.755 15.7407 14.6803 15.761 14.6043 15.7612H14.6034Z" fill="#003049"/>
<path d="M30.8158 44.0089C30.7398 44.0093 30.665 43.9895 30.5991 43.9515C30.5332 43.9135 30.4784 43.8586 30.4404 43.7924L29.7146 42.5282C29.6588 42.4282 29.6445 42.3101 29.6746 42.1995C29.7048 42.0889 29.7771 41.9947 29.8759 41.9373C29.9747 41.88 30.0919 41.8641 30.2023 41.8931C30.3126 41.9221 30.4072 41.9936 30.4654 42.0923L31.1908 43.3564C31.2287 43.4227 31.2487 43.4978 31.2487 43.5743C31.2486 43.6508 31.2286 43.7259 31.1907 43.7921C31.1527 43.8584 31.0981 43.9134 31.0323 43.9518C30.9665 43.9901 30.8919 44.0104 30.8158 44.0106V44.0089Z" fill="#003049"/>
<path d="M8.93373 21.4639C8.85811 21.4639 8.78384 21.4437 8.71849 21.4055L7.46061 20.6755C7.41058 20.6473 7.36661 20.6093 7.33127 20.5639C7.29593 20.5184 7.26991 20.4664 7.25472 20.4107C7.23953 20.3551 7.23548 20.297 7.2428 20.2397C7.25011 20.1825 7.26866 20.1273 7.29735 20.0773C7.32604 20.0274 7.3643 19.9836 7.40993 19.9486C7.45556 19.9137 7.50764 19.8881 7.56315 19.8735C7.61866 19.859 7.6765 19.8556 7.73331 19.8636C7.79012 19.8717 7.84478 19.891 7.89411 19.9205L9.15113 20.6504C9.2338 20.6984 9.2984 20.7726 9.33489 20.8613C9.37139 20.95 9.37774 21.0484 9.35296 21.1411C9.32818 21.2338 9.27365 21.3157 9.19785 21.3741C9.12205 21.4325 9.02921 21.464 8.93373 21.4639Z" fill="#003049"/>
<path d="M37.0159 37.7686C36.9403 37.7685 36.866 37.7483 36.8006 37.7101L35.5436 36.9802C35.4936 36.952 35.4496 36.914 35.4143 36.8686C35.3789 36.8231 35.3529 36.7711 35.3377 36.7154C35.3225 36.6598 35.3185 36.6017 35.3258 36.5444C35.3331 36.4872 35.3517 36.432 35.3804 36.382C35.409 36.3321 35.4473 36.2883 35.4929 36.2533C35.5386 36.2183 35.5906 36.1928 35.6462 36.1782C35.7017 36.1636 35.7595 36.1603 35.8163 36.1683C35.8731 36.1764 35.9278 36.1957 35.9771 36.2252L37.2341 36.9551C37.3167 37.003 37.3812 37.077 37.4177 37.1655C37.4542 37.254 37.4608 37.3521 37.4362 37.4447C37.4117 37.5373 37.3576 37.6193 37.2821 37.6778C37.2067 37.7363 37.1142 37.7682 37.0189 37.7686H37.0159Z" fill="#003049"/>
<path d="M6.85877 29.2506H5.40761C5.34956 29.2525 5.29173 29.2425 5.23757 29.2215C5.1834 29.2004 5.13399 29.1686 5.09229 29.128C5.05058 29.0873 5.01741 29.0387 4.99477 28.9849C4.97212 28.9311 4.96045 28.8733 4.96045 28.8149C4.96045 28.7565 4.97212 28.6986 4.99477 28.6449C5.01741 28.5911 5.05058 28.5424 5.09229 28.5018C5.13399 28.4611 5.1834 28.4293 5.23757 28.4083C5.29173 28.3872 5.34956 28.3773 5.40761 28.3791H6.85877C6.91682 28.3773 6.97464 28.3872 7.02881 28.4083C7.08298 28.4293 7.13238 28.4611 7.17409 28.5018C7.2158 28.5424 7.24896 28.5911 7.27161 28.6449C7.29426 28.6986 7.30593 28.7565 7.30593 28.8149C7.30593 28.8733 7.29426 28.9311 7.27161 28.9849C7.24896 29.0387 7.2158 29.0873 7.17409 29.128C7.13238 29.1686 7.08298 29.2004 7.02881 29.2215C6.97464 29.2425 6.91682 29.2525 6.85877 29.2506Z" fill="#003049"/>
<path d="M39.285 29.2506H37.8334C37.7753 29.2525 37.7175 29.2425 37.6633 29.2215C37.6092 29.2004 37.5598 29.1686 37.5181 29.128C37.4764 29.0873 37.4432 29.0387 37.4205 28.9849C37.3979 28.9311 37.3862 28.8733 37.3862 28.8149C37.3862 28.7565 37.3979 28.6986 37.4205 28.6449C37.4432 28.5911 37.4764 28.5424 37.5181 28.5018C37.5598 28.4611 37.6092 28.4293 37.6633 28.4083C37.7175 28.3872 37.7753 28.3773 37.8334 28.3791H39.285C39.343 28.3773 39.4009 28.3872 39.455 28.4083C39.5092 28.4293 39.5586 28.4611 39.6003 28.5018C39.642 28.5424 39.6752 28.5911 39.6978 28.6449C39.7205 28.6986 39.7321 28.7565 39.7321 28.8149C39.7321 28.8733 39.7205 28.9311 39.6978 28.9849C39.6752 29.0387 39.642 29.0873 39.6003 29.128C39.5586 29.1686 39.5092 29.2004 39.455 29.2215C39.4009 29.2425 39.343 29.2525 39.285 29.2506Z" fill="#003049"/>
<path d="M7.67754 37.7671C7.58225 37.7668 7.48973 37.7349 7.41429 37.6764C7.33885 37.6178 7.28469 37.5359 7.26018 37.4433C7.23568 37.3507 7.2422 37.2525 7.27873 37.164C7.31527 37.0755 7.37978 37.0016 7.46229 36.9537L8.71931 36.2237C8.81877 36.1676 8.93622 36.1532 9.0462 36.1835C9.15618 36.2139 9.24983 36.2866 9.30686 36.3859C9.36389 36.4853 9.3797 36.6032 9.35086 36.7142C9.32203 36.8251 9.25087 36.9202 9.15281 36.9788L7.89579 37.7087C7.82943 37.7472 7.75414 37.7673 7.67754 37.7671Z" fill="#003049"/>
<path d="M35.7596 21.4664C35.6643 21.466 35.5718 21.4341 35.4963 21.3756C35.4209 21.317 35.3667 21.2351 35.3422 21.1425C35.3177 21.0499 35.3242 20.9518 35.3608 20.8633C35.3973 20.7747 35.4618 20.7008 35.5443 20.6529L36.8013 19.923C36.9008 19.8668 37.0182 19.8524 37.1282 19.8827C37.2382 19.9131 37.3319 19.9858 37.3889 20.0852C37.4459 20.1845 37.4617 20.3024 37.4329 20.4134C37.4041 20.5244 37.3329 20.6194 37.2348 20.678L35.9761 21.4097C35.9102 21.4474 35.8355 21.467 35.7596 21.4664Z" fill="#003049"/>
<path d="M13.8767 44.0106C13.8007 44.0104 13.726 43.9901 13.6602 43.9518C13.5944 43.9134 13.5398 43.8584 13.5018 43.7921C13.4639 43.7259 13.4439 43.6508 13.4438 43.5743C13.4438 43.4978 13.4638 43.4227 13.5017 43.3564L14.2275 42.0923C14.2858 41.9936 14.3803 41.9221 14.4906 41.8931C14.601 41.8641 14.7183 41.88 14.817 41.9373C14.9158 41.9947 14.9881 42.0889 15.0183 42.1995C15.0485 42.3101 15.0341 42.4282 14.9783 42.5282L14.2534 43.7911C14.2154 43.8578 14.1605 43.9132 14.0944 43.9518C14.0282 43.9903 13.9531 44.0106 13.8767 44.0106Z" fill="#003049"/>
<path d="M30.0899 15.7611C30.0138 15.761 29.9391 15.7408 29.8732 15.7025C29.8073 15.6642 29.7527 15.6091 29.7147 15.5428C29.6767 15.4766 29.6567 15.4014 29.6567 15.3249C29.6568 15.2483 29.6769 15.1732 29.7149 15.1069L30.4394 13.8428C30.4679 13.7932 30.5058 13.7498 30.551 13.715C30.5961 13.6801 30.6476 13.6546 30.7026 13.6398C30.7576 13.625 30.8149 13.6213 30.8713 13.6287C30.9277 13.6362 30.9821 13.6548 31.0314 13.6834C31.0806 13.7121 31.1238 13.7502 31.1584 13.7956C31.1931 13.841 31.2185 13.8928 31.2332 13.9481C31.2479 14.0034 31.2516 14.061 31.2442 14.1177C31.2367 14.1745 31.2182 14.2292 31.1898 14.2787L30.4644 15.5429C30.4264 15.609 30.3719 15.664 30.3061 15.7023C30.2404 15.7406 30.1658 15.7609 30.0899 15.7611Z" fill="#003049"/>
<path d="M32.0285 23.1641L23.6547 26.7665C23.1994 26.4602 22.6553 26.3157 22.109 26.356C21.5627 26.3964 21.0454 26.6192 20.6394 26.989C20.2334 27.3589 19.962 27.8546 19.8683 28.3974C19.7745 28.9402 19.8639 29.499 20.1221 29.9848C20.3803 30.4707 20.7926 30.8559 21.2935 31.0791C21.7943 31.3023 22.3549 31.3507 22.8863 31.2167C23.4176 31.0828 23.8892 30.774 24.2261 30.3396C24.563 29.9052 24.7458 29.37 24.7456 28.819C24.7456 28.7641 24.7456 28.7099 24.7396 28.6554L32.0285 23.1641Z" fill="#003049"/>
<path d="M22.2892 29.8619C22.0839 29.862 21.883 29.8008 21.7122 29.6861C21.5414 29.5714 21.4083 29.4083 21.3296 29.2175C21.251 29.0267 21.2304 28.8167 21.2704 28.6141C21.3105 28.4115 21.4094 28.2254 21.5546 28.0793C21.6998 27.9332 21.8849 27.8338 22.0864 27.7935C22.2878 27.7532 22.4966 27.7739 22.6864 27.853C22.8761 27.9321 23.0383 28.066 23.1523 28.2378C23.2664 28.4096 23.3272 28.6115 23.3271 28.8181C23.3268 29.0948 23.2173 29.3601 23.0228 29.5558C22.8282 29.7515 22.5644 29.8616 22.2892 29.8619Z" fill="white"/>
</svg>
