<svg width="40" height="40" viewBox="0 0 40 40" fill="none" xmlns="http://www.w3.org/2000/svg">
<path d="M20 40C31.0457 40 40 31.0457 40 20C40 8.95431 31.0457 0 20 0C8.95431 0 0 8.95431 0 20C0 31.0457 8.95431 40 20 40Z" fill="#D9EFFF"/>
<path d="M30.3333 19.5026H24.5C22.6717 19.5026 21.1667 21.0076 21.1667 22.8359C21.1667 24.6643 22.6717 26.1693 24.5 26.1693H27.8333V28.6693C27.8333 29.1268 27.4575 29.5026 27 29.5026H13.6667C12.295 29.5026 11.1667 28.3743 11.1667 27.0026V14.5026C11.1667 13.1309 12.295 12.0026 13.6667 12.0026H15.3333C15.7908 12.0026 16.1667 11.6268 16.1667 11.1693C16.1667 10.7118 15.7908 10.3359 15.3333 10.3359H13.6667C11.3808 10.3359 9.5 12.2168 9.5 14.5026V27.0026C9.5 29.2884 11.3808 31.1693 13.6667 31.1693H27C28.3717 31.1693 29.5 30.0409 29.5 28.6693V26.1693H30.3333C30.7908 26.1693 31.1667 25.7934 31.1667 25.3359V20.3359C31.1667 19.8784 30.7908 19.5026 30.3333 19.5026ZM29.5 24.5026H24.5C23.5858 24.5026 22.8333 23.7501 22.8333 22.8359C22.8333 21.9218 23.5858 21.1693 24.5 21.1693H29.5V24.5026Z" fill="#32A7FE"/>
<path d="M13.3667 13.7265C12.4367 14.1323 12.7442 15.3348 13.6667 15.3348H27.0001C27.4576 15.3348 27.8334 15.7106 27.8334 16.1681V17.0015C27.8334 17.459 28.2092 17.8348 28.6667 17.8348C29.1242 17.8348 29.5001 17.459 29.5001 17.0015V16.1681C29.4992 15.5056 29.2359 14.8698 28.7667 14.4015C28.2984 13.9323 27.6626 13.669 27.0001 13.6681H26.7334L25.2751 10.0265C25.1059 9.60562 24.6226 9.39562 24.2001 9.55979L13.3667 13.7265ZM24.9334 13.6681H18.1584L24.0334 11.4098L24.9334 13.6681Z" fill="#32A7FE"/>
</svg>
