<svg width="64" height="64" viewBox="0 0 64 64" fill="none" xmlns="http://www.w3.org/2000/svg">
<circle cx="32" cy="32" r="32" fill="#232323" fill-opacity="0.9"/>
<path d="M26.75 22.25H37.25C37.4489 22.25 37.6397 22.329 37.7803 22.4697C37.921 22.6103 38 22.8011 38 23V27.2469C37.9993 27.409 37.9468 27.5667 37.85 27.6969L35.9 30.3031C35.8032 30.4333 35.7507 30.591 35.75 30.7531V41C35.75 41.1989 35.671 41.3897 35.5303 41.5303C35.3897 41.671 35.1989 41.75 35 41.75H29C28.8011 41.75 28.6103 41.671 28.4697 41.5303C28.329 41.3897 28.25 41.1989 28.25 41V30.7531C28.2493 30.591 28.1968 30.4333 28.1 30.3031L26.15 27.6969C26.0532 27.5667 26.0007 27.409 26 27.2469V23C26 22.8011 26.079 22.6103 26.2197 22.4697C26.3603 22.329 26.5511 22.25 26.75 22.25V22.25Z" stroke="white" stroke-width="2" stroke-linecap="round" stroke-linejoin="round"/>
<path d="M32 31.25V34.25" stroke="white" stroke-width="2" stroke-linecap="round" stroke-linejoin="round"/>
<path d="M26 26H38" stroke="white" stroke-width="2" stroke-linecap="round" stroke-linejoin="round"/>
</svg>
