<svg width="198" height="198" viewBox="0 0 198 198" fill="none" xmlns="http://www.w3.org/2000/svg">
<circle cx="99" cy="99" r="99" fill="#F0FBEA"/>
<mask id="mask0_8504_17489" style="mask-type:alpha" maskUnits="userSpaceOnUse" x="0" y="0" width="198" height="198">
<circle cx="99" cy="99" r="99" fill="#F0FBEA"/>
</mask>
<g mask="url(#mask0_8504_17489)">
<g opacity="0.5">
<path d="M131.273 178.241H119.647C119.647 177.845 119.808 177.465 120.092 177.184C120.377 176.904 120.764 176.746 121.167 176.746H129.755C130.158 176.746 130.545 176.904 130.83 177.184C131.115 177.464 131.275 177.845 131.275 178.241H131.273Z" fill="#D6F1CA"/>
<path d="M128.518 176.746H122.399L124.389 120.965L125.724 121.839L128.518 176.746Z" fill="#D6F1CA"/>
<path d="M130.408 178.241H118.779C118.78 177.845 118.94 177.464 119.225 177.184C119.51 176.904 119.897 176.746 120.3 176.746H128.888C129.291 176.746 129.677 176.904 129.962 177.184C130.247 177.465 130.407 177.845 130.408 178.241V178.241Z" fill="#D6F1CA"/>
<path d="M124.593 121.456L153.852 138.081L153.533 136.444C153.471 136.119 153.291 135.828 153.025 135.626L133.91 121.069C133.737 120.937 133.536 120.848 133.321 120.809C133.106 120.77 132.886 120.781 132.676 120.843L128.842 121.968C128.663 122.02 128.475 122.036 128.29 122.015C128.104 121.994 127.925 121.935 127.763 121.843L125.215 120.395L124.593 121.456Z" fill="#D6F1CA"/>
<path d="M123.973 120.398L94.7139 137.023L96.3114 137.568C96.6288 137.676 96.9756 137.667 97.2863 137.541L119.652 128.534C119.855 128.452 120.035 128.324 120.178 128.16C120.321 127.996 120.421 127.801 120.472 127.591L121.395 123.766C121.439 123.586 121.519 123.416 121.631 123.268C121.744 123.12 121.885 122.996 122.048 122.903L124.593 121.457L123.973 120.398Z" fill="#D6F1CA"/>
<path d="M125.214 120.403V87.1602L123.934 88.2495C123.681 88.4652 123.516 88.7645 123.471 89.0913L120.215 112.655C120.185 112.868 120.207 113.085 120.279 113.287C120.352 113.49 120.472 113.673 120.63 113.822L123.54 116.524C123.677 116.651 123.785 116.803 123.86 116.973C123.934 117.142 123.972 117.325 123.972 117.509V120.403H125.214Z" fill="#D6F1CA"/>
<path d="M127.402 176.746H121.786L123.774 120.965H125.412L127.402 176.746Z" fill="#D6F1CA"/>
<path d="M125.991 121.292C126.173 120.531 125.694 119.769 124.921 119.589C124.148 119.41 123.373 119.881 123.191 120.642C123.008 121.403 123.487 122.165 124.26 122.345C125.033 122.524 125.808 122.053 125.991 121.292Z" fill="#D6F1CA"/>
<path d="M124.496 122.175C125.22 122.175 125.807 121.597 125.807 120.885C125.807 120.172 125.22 119.594 124.496 119.594C123.771 119.594 123.184 120.172 123.184 120.885C123.184 121.597 123.771 122.175 124.496 122.175Z" fill="#D6F1CA"/>
<path d="M95.2326 137.202L123.184 120.883L123.159 120.863L94.7139 137.025L95.2326 137.202Z" fill="#D6F1CA"/>
<path d="M127.402 176.379H121.799V176.741H127.402V176.379Z" fill="#D6F1CA"/>
<path d="M124.799 87.5062L125.184 119.715L125.214 119.702V87.1523L124.799 87.5062Z" fill="#D6F1CA"/>
<path d="M153.75 137.552L125.411 121.891L125.407 121.921L153.853 138.083L153.75 137.552Z" fill="#D6F1CA"/>
<path d="M169.475 178.246H150.859C150.859 177.932 150.922 177.62 151.044 177.329C151.167 177.039 151.346 176.775 151.572 176.553C151.798 176.33 152.066 176.154 152.362 176.034C152.657 175.913 152.974 175.851 153.293 175.852H167.042C167.687 175.852 168.306 176.104 168.762 176.553C169.219 177.002 169.475 177.611 169.475 178.246V178.246Z" fill="#82C167"/>
<path d="M165.065 175.85H155.269L158.453 86.5469L160.593 87.9461L165.065 175.85Z" fill="#82C167"/>
<path d="M168.091 178.246H149.477C149.477 177.611 149.733 177.002 150.189 176.553C150.646 176.104 151.265 175.852 151.91 175.852H165.659C166.304 175.852 166.923 176.104 167.379 176.553C167.836 177.002 168.092 177.611 168.093 178.246H168.091Z" fill="#D6F1CA"/>
<path d="M158.782 87.3414L205.625 113.957L205.055 111.036C204.992 110.711 204.812 110.42 204.546 110.217L173.365 86.4628C173.193 86.3313 172.991 86.2423 172.776 86.203C172.561 86.1636 172.34 86.1752 172.131 86.2368L165.244 88.262C165.065 88.3147 164.876 88.3307 164.691 88.3093C164.505 88.2878 164.326 88.2293 164.164 88.1372L159.776 85.6445L158.782 87.3414Z" fill="#D6F1CA"/>
<path d="M157.792 85.6445L110.946 112.259L113.801 113.234C114.117 113.341 114.463 113.332 114.772 113.207L151.921 98.245L153.882 90.1226L158.782 87.3414L157.792 85.6445Z" fill="#D6F1CA"/>
<path d="M159.775 85.6401V32.4102L157.488 34.3536C157.235 34.5693 157.07 34.8687 157.026 35.1954L151.712 73.6472C151.683 73.8604 151.705 74.0774 151.778 74.2805C151.85 74.4836 151.97 74.6669 152.128 74.8153L157.35 79.6687C157.486 79.7953 157.595 79.9479 157.669 80.1173C157.744 80.2867 157.782 80.4692 157.782 80.6537V85.6381L159.775 85.6401Z" fill="#D6F1CA"/>
<path d="M163.278 175.85H154.287L157.47 86.5469H160.094L163.278 175.85Z" fill="#D6F1CA"/>
<path d="M160.909 87.4065C161.396 86.2505 160.838 84.9252 159.663 84.4463C158.488 83.9675 157.142 84.5165 156.655 85.6725C156.169 86.8285 156.726 88.1538 157.901 88.6326C159.076 89.1115 160.423 88.5625 160.909 87.4065Z" fill="#82C167"/>
<path d="M160.566 87.1998C161.01 86.1456 160.501 84.937 159.43 84.5003C158.358 84.0636 157.13 84.5642 156.687 85.6185C156.243 86.6727 156.752 87.8813 157.823 88.318C158.894 88.7547 160.122 88.2541 160.566 87.1998Z" fill="#D6F1CA"/>
<path d="M111.776 112.536L156.526 86.4096L156.485 86.3789L110.946 112.254L111.776 112.536Z" fill="#82C167"/>
<path d="M163.278 175.266H154.308V175.846H163.278V175.266Z" fill="#82C167"/>
<path d="M159.112 32.9768L159.728 84.5416L159.775 84.5221V32.4102L159.112 32.9768Z" fill="#82C167"/>
<path d="M205.459 113.102L160.092 88.0273L160.086 88.0775L205.625 113.951L205.459 113.102Z" fill="#82C167"/>
<path d="M31.2712 99.5928C31.2712 93.6692 26.3919 88.8672 20.373 88.8672C14.354 88.8672 9.47473 93.6692 9.47473 99.5928V124.28C9.47473 130.204 14.354 135.006 20.373 135.006C26.3919 135.006 31.2712 130.204 31.2712 124.28V99.5928Z" fill="#D6F1CA"/>
<path d="M20.968 178.294H19.779V106.019C19.7793 105.864 19.842 105.715 19.9534 105.605C20.0649 105.496 20.2159 105.434 20.3735 105.434V105.434C20.5311 105.434 20.6822 105.496 20.7936 105.605C20.905 105.715 20.9677 105.864 20.968 106.019V178.294Z" fill="#ADDE98"/>
<path d="M20.968 115.815L17.6618 110.179C17.583 110.045 17.4531 109.947 17.3008 109.907C17.1485 109.866 16.9862 109.888 16.8496 109.965C16.713 110.043 16.6133 110.17 16.5725 110.32C16.5316 110.47 16.553 110.63 16.6318 110.764L19.938 116.4L20.968 115.815Z" fill="#ADDE98"/>
<path d="M20.8038 122.553L24.11 116.918C24.1522 116.851 24.1803 116.777 24.1927 116.7C24.2051 116.622 24.2015 116.543 24.1822 116.467C24.1629 116.391 24.1282 116.319 24.0802 116.256C24.0322 116.194 23.9719 116.141 23.9029 116.102C23.8338 116.063 23.7575 116.037 23.6783 116.028C23.5992 116.018 23.5189 116.024 23.4422 116.046C23.3655 116.067 23.294 116.104 23.232 116.153C23.1699 116.203 23.1186 116.264 23.081 116.333L19.779 121.968L20.8038 122.553Z" fill="#ADDE98"/>
<path d="M62.0425 78.2872C62.0425 70.7655 55.8465 64.668 48.2034 64.668C40.5603 64.668 34.3643 70.7655 34.3643 78.2872V109.638C34.3643 117.16 40.5603 123.258 48.2034 123.258C55.8465 123.258 62.0425 117.16 62.0425 109.638V78.2872Z" fill="#D6F1CA"/>
<path d="M48.9579 178.234H47.4488V86.4545C47.4487 86.3569 47.4681 86.2603 47.5059 86.1701C47.5438 86.0798 47.5994 85.9979 47.6694 85.9288C47.7395 85.8597 47.8227 85.8049 47.9144 85.7676C48.006 85.7302 48.1042 85.7109 48.2034 85.7109V85.7109C48.3025 85.7109 48.4008 85.7302 48.4924 85.7676C48.584 85.8049 48.6672 85.8597 48.7373 85.9288C48.8074 85.9979 48.8629 86.0798 48.9008 86.1701C48.9387 86.2603 48.9581 86.3569 48.9579 86.4545V178.234Z" fill="#ADDE98"/>
<path d="M48.958 98.8986L44.76 91.7387C44.7105 91.6542 44.6445 91.5802 44.5659 91.5208C44.4872 91.4614 44.3975 91.4178 44.3017 91.3925C44.206 91.3673 44.1061 91.3608 44.0079 91.3735C43.9096 91.3862 43.8148 91.4179 43.729 91.4666C43.6431 91.5154 43.5679 91.5803 43.5075 91.6577C43.4471 91.7351 43.4029 91.8234 43.3772 91.9176C43.3515 92.0118 43.345 92.1101 43.3579 92.2068C43.3708 92.3036 43.403 92.3968 43.4525 92.4813L47.6505 99.6412L48.958 98.8986Z" fill="#ADDE98"/>
<path d="M48.7563 107.454L52.9543 100.295C53.0545 100.124 53.0817 99.9211 53.03 99.7307C52.9782 99.5404 52.8517 99.378 52.6783 99.2794C52.505 99.1808 52.2989 99.154 52.1054 99.2049C51.9119 99.2559 51.747 99.3803 51.6468 99.551L47.4488 106.711L48.7563 107.454Z" fill="#ADDE98"/>
<path d="M27.0961 174.241C27.7311 173.654 28.0211 172.983 27.7706 172.511C27.4588 171.926 26.4195 171.837 25.3167 172.248C25.3728 172.106 25.4258 171.96 25.4736 171.81C26.064 169.955 25.7262 168.201 24.7211 167.891C23.74 167.584 22.4865 168.771 21.8775 170.55C21.3734 168.514 20.0773 167.073 18.9672 167.336C17.9206 167.577 17.4082 169.234 17.745 171.133C16.2129 170.468 14.7308 170.52 14.2631 171.324C13.7756 172.155 14.5354 173.504 15.9822 174.488C15.2962 174.714 14.8243 175.128 14.7599 175.647C14.6809 176.285 15.2359 176.914 16.1173 177.302C16.0684 177.419 16.0568 177.547 16.0841 177.67C16.1766 178.055 16.6713 178.292 17.3188 178.317H25.5973V178.311C25.7564 178.289 25.8759 178.224 25.9164 178.117C25.9284 178.079 25.9322 178.039 25.9276 177.999C25.9229 177.959 25.9099 177.92 25.8894 177.885C26.3197 177.844 26.6429 177.681 26.75 177.397C26.8321 177.18 26.7697 176.928 26.5982 176.681C27.7155 176.608 28.573 176.126 28.6021 175.506C28.626 174.96 28.0003 174.467 27.0961 174.241Z" fill="#ADDE98"/>
<path d="M44.3048 170.821C45.473 169.741 46.0072 168.508 45.5468 167.64C44.9762 166.565 43.069 166.4 41.0328 167.157C41.1368 166.897 41.2331 166.628 41.3218 166.35C42.4069 162.94 41.7874 159.714 39.9374 159.143C38.1341 158.588 35.8288 160.761 34.7083 164.03C33.7802 160.285 31.398 157.645 29.3556 158.117C27.4318 158.562 26.4891 161.61 27.1085 165.103C24.2908 163.876 21.5718 163.978 20.7061 165.453C19.8091 166.981 21.206 169.463 23.8678 171.272C22.605 171.688 21.7381 172.448 21.6197 173.404C21.4731 174.576 22.4948 175.733 24.1141 176.447C24.024 176.661 24.003 176.898 24.0538 177.125C24.2222 177.832 25.1327 178.268 26.3228 178.313H41.5494V178.301C41.8425 178.263 42.0608 178.141 42.1356 177.946C42.1583 177.876 42.1656 177.801 42.157 177.728C42.1484 177.654 42.1241 177.583 42.0857 177.52C42.8777 177.445 43.4733 177.136 43.6687 176.623C43.8204 176.222 43.7061 175.759 43.3901 175.305C45.446 175.17 47.0279 174.282 47.0757 173.143C47.1193 172.145 45.9677 171.236 44.3048 170.821Z" fill="#D6F1CA"/>
<path d="M146.659 171.59C145.62 170.627 145.144 169.53 145.554 168.756C146.061 167.799 147.76 167.653 149.573 168.327C149.481 168.095 149.395 167.854 149.316 167.611C148.35 164.574 148.9 161.701 150.548 161.194C152.154 160.698 154.207 162.634 155.205 165.545C156.036 162.209 158.152 159.859 159.971 160.279C161.684 160.676 162.523 163.39 161.972 166.5C164.481 165.41 166.903 165.497 167.674 166.807C168.472 168.168 167.228 170.379 164.858 171.989C165.982 172.359 166.754 173.037 166.86 173.887C166.99 174.931 166.08 175.96 164.638 176.597C164.717 176.788 164.736 176.998 164.692 177.2C164.541 177.83 163.73 178.223 162.67 178.26H149.114V178.248C148.852 178.215 148.658 178.106 148.594 177.932C148.574 177.87 148.568 177.803 148.575 177.738C148.583 177.673 148.604 177.61 148.638 177.553C147.933 177.485 147.403 177.211 147.23 176.754C147.093 176.397 147.195 175.985 147.477 175.581C145.647 175.46 144.24 174.672 144.196 173.656C144.153 172.768 145.179 171.959 146.659 171.59Z" fill="#D6F1CA"/>
<path d="M162.131 175.579C161.715 175.19 161.519 174.746 161.685 174.433C161.893 174.047 162.576 173.988 163.309 174.261C163.271 174.166 163.236 174.069 163.205 173.97C162.814 172.743 163.037 171.582 163.702 171.377C164.351 171.173 165.18 171.959 165.584 173.135C165.917 171.787 166.775 170.838 167.51 171.008C168.202 171.169 168.541 172.265 168.318 173.521C169.332 173.081 170.311 173.112 170.621 173.647C170.945 174.197 170.442 175.09 169.484 175.741C169.939 175.89 170.25 176.164 170.293 176.508C170.346 176.929 169.981 177.345 169.395 177.602C169.428 177.68 169.435 177.765 169.417 177.847C169.357 178.1 169.029 178.256 168.601 178.274H163.123C163.079 178.273 163.037 178.261 163.001 178.238C162.964 178.216 162.935 178.184 162.915 178.146C162.906 178.121 162.904 178.094 162.907 178.068C162.91 178.041 162.918 178.016 162.932 177.993C162.648 177.966 162.433 177.855 162.364 177.671C162.341 177.589 162.338 177.504 162.356 177.421C162.374 177.338 162.413 177.261 162.468 177.196C161.728 177.148 161.16 176.829 161.141 176.419C161.118 176.055 161.533 175.728 162.131 175.579Z" fill="#ADDE98"/>
<path d="M96.2116 171.978C95.2315 171.072 94.7835 170.034 95.1722 169.308C95.6503 168.406 97.2509 168.268 98.9607 168.899C98.8734 168.679 98.7927 168.453 98.7185 168.221C97.807 165.357 98.3277 162.651 99.8805 162.173C101.394 161.706 103.329 163.53 104.269 166.274C105.048 163.13 107.048 160.915 108.762 161.312C110.376 161.685 111.167 164.243 110.648 167.175C113.013 166.152 115.295 166.228 116.022 167.468C116.775 168.751 115.606 170.834 113.368 172.352C114.427 172.701 115.156 173.34 115.255 174.141C115.377 175.126 114.52 176.096 113.16 176.698C113.236 176.878 113.254 177.077 113.211 177.267C113.07 177.861 112.306 178.227 111.306 178.266H98.5221V178.255C98.2757 178.223 98.0928 178.122 98.0305 177.957C98.0112 177.898 98.0049 177.836 98.0119 177.775C98.0189 177.713 98.039 177.654 98.071 177.6C97.4068 177.537 96.9079 177.278 96.7437 176.847C96.6159 176.51 96.7115 176.122 96.9765 175.741C95.2512 175.627 93.926 174.884 93.8834 173.926C93.8501 173.089 94.8167 172.327 96.2116 171.978Z" fill="#D6F1CA"/>
<path d="M110.397 174.707C109.841 174.195 109.587 173.606 109.806 173.194C110.078 172.682 110.984 172.605 111.952 172.964C111.902 172.84 111.857 172.712 111.814 172.58C111.295 170.959 111.593 169.426 112.473 169.155C113.33 168.89 114.426 169.924 114.959 171.478C115.4 169.697 116.532 168.442 117.504 168.667C118.419 168.878 118.867 170.327 118.572 171.988C119.912 171.406 121.204 171.452 121.616 172.154C122.043 172.881 121.379 174.06 120.113 174.915C120.712 175.113 121.125 175.475 121.181 175.929C121.251 176.486 120.765 177.036 119.995 177.375C120.038 177.477 120.048 177.59 120.024 177.697C119.943 178.034 119.511 178.242 118.944 178.263H111.71V178.269C111.652 178.268 111.596 178.252 111.547 178.223C111.498 178.193 111.458 178.151 111.431 178.1C111.42 178.067 111.416 178.031 111.42 177.996C111.424 177.96 111.436 177.926 111.455 177.896C111.079 177.86 110.795 177.714 110.702 177.469C110.63 177.279 110.685 177.06 110.834 176.843C109.857 176.779 109.106 176.358 109.082 175.821C109.061 175.335 109.609 174.903 110.397 174.707Z" fill="#ADDE98"/>
<path d="M117.586 89.9279C117.499 89.9276 117.412 89.9408 117.329 89.9667C117.329 89.9248 117.329 89.8818 117.329 89.8399C117.329 89.4116 117.171 88.9979 116.885 88.675C116.599 88.3522 116.204 88.142 115.773 88.0832C115.341 88.0244 114.903 88.121 114.539 88.3551C114.174 88.5892 113.908 88.9451 113.789 89.3571C113.686 89.3287 113.579 89.3142 113.471 89.3142C113.167 89.3231 112.879 89.4482 112.667 89.6629C112.455 89.8776 112.337 90.1651 112.337 90.4643C112.337 90.7636 112.455 91.0511 112.667 91.2658C112.879 91.4805 113.167 91.6056 113.471 91.6145H113.532H117.586C117.808 91.6069 118.019 91.5147 118.173 91.3574C118.327 91.2001 118.414 90.9899 118.414 90.7712C118.414 90.5525 118.327 90.3423 118.173 90.185C118.019 90.0277 117.808 89.9355 117.586 89.9279V89.9279Z" fill="#D6F1CA"/>
<path d="M86.0997 70.5477C85.63 70.5469 85.169 70.6721 84.7662 70.9098C84.5479 69.9764 83.9851 69.156 83.1869 68.6079C82.3887 68.0598 81.4121 67.823 80.4466 67.9435C79.9253 66.7996 79.021 65.8663 77.8848 65.2993C76.7486 64.7323 75.4491 64.566 74.2033 64.8281C72.9575 65.0902 71.8408 65.7649 71.0395 66.7396C70.2382 67.7142 69.8008 68.9299 69.8004 70.1836C69.8004 70.2153 69.8004 70.248 69.8004 70.2797C69.4111 70.0986 68.9854 70.006 68.5549 70.0087C68.1243 70.0114 67.6998 70.1094 67.3129 70.2953C66.926 70.4813 66.5866 70.7505 66.3197 71.083C66.0528 71.4155 65.8653 71.8028 65.771 72.2163C65.6768 72.6297 65.6782 73.0588 65.7753 73.4716C65.8723 73.8845 66.0624 74.2705 66.3316 74.6013C66.6007 74.9321 66.942 75.199 67.3301 75.3824C67.7183 75.5659 68.1434 75.661 68.5739 75.6609H86.0997C86.7888 75.6609 87.4497 75.3915 87.937 74.9119C88.4243 74.4324 88.6981 73.782 88.6981 73.1038C88.6981 72.4256 88.4243 71.7752 87.937 71.2956C87.4497 70.8161 86.7888 70.5467 86.0997 70.5467V70.5477Z" fill="#D6F1CA"/>
<path d="M59.3891 131.411C59.6984 131.41 60.002 131.492 60.2673 131.649C60.4003 131.088 60.7225 130.588 61.1814 130.23C61.6403 129.873 62.2087 129.679 62.794 129.68C62.9007 129.68 63.0073 129.687 63.1131 129.7C63.4558 128.948 64.0505 128.333 64.798 127.96C65.5454 127.587 66.4003 127.478 67.2199 127.65C68.0395 127.822 68.7742 128.266 69.3014 128.907C69.8285 129.549 70.1162 130.348 70.1163 131.173V131.237C70.3723 131.118 70.6521 131.058 70.935 131.06C71.2179 131.062 71.4967 131.126 71.7508 131.249C72.0049 131.371 72.2278 131.548 72.4031 131.767C72.5783 131.985 72.7014 132.24 72.7633 132.512C72.8252 132.783 72.8243 133.065 72.7606 133.336C72.697 133.608 72.5722 133.861 72.3955 134.079C72.2188 134.296 71.9948 134.472 71.7399 134.593C71.485 134.713 71.2058 134.776 70.9229 134.777H59.3891C58.9359 134.777 58.5013 134.6 58.1808 134.284C57.8604 133.969 57.6804 133.541 57.6804 133.095C57.6804 132.649 57.8604 132.221 58.1808 131.906C58.5013 131.591 58.9359 131.414 59.3891 131.414V131.411Z" fill="#D6F1CA"/>
<path d="M174.052 168.202L174.025 168.304C173.964 168.512 173.88 168.714 173.776 168.905C173.586 169.312 173.273 169.652 172.881 169.88C172.489 170.108 172.035 170.213 171.581 170.18C171.36 170.177 171.141 170.152 170.926 170.104L170.822 170.078L170.85 169.975C170.911 169.767 170.994 169.566 171.098 169.375C171.289 168.968 171.602 168.627 171.994 168.4C172.386 168.172 172.84 168.067 173.295 168.1C173.515 168.102 173.734 168.128 173.948 168.175L174.052 168.202ZM171.089 169.922C171.373 169.971 172.151 170.06 172.773 169.699C173.394 169.338 173.693 168.625 173.786 168.356C173.501 168.307 172.724 168.218 172.101 168.579C171.479 168.94 171.182 169.653 171.089 169.922V169.922Z" fill="#ADDE98"/>
<path d="M172.568 170.649C171.58 171.017 170.478 170.531 170.478 170.531C170.478 170.531 170.979 169.45 171.969 169.082C172.958 168.715 174.059 169.202 174.059 169.202C174.059 169.202 173.558 170.282 172.568 170.649Z" fill="#D6F1CA"/>
<path d="M170.452 156.504V156.635C170.443 156.904 170.404 157.172 170.337 157.433C170.233 157.842 170.013 158.432 169.556 158.877C169.099 159.322 168.5 159.529 168.079 159.626C167.813 159.688 167.54 159.722 167.266 159.728H167.133V159.597C167.144 159.328 167.183 159.06 167.25 158.799C167.354 158.39 167.572 157.799 168.029 157.355C168.487 156.911 169.085 156.702 169.507 156.606C169.773 156.544 170.046 156.51 170.319 156.504H170.452ZM167.406 159.463C167.764 159.437 168.731 159.313 169.369 158.692C170.007 158.071 170.149 157.122 170.179 156.77C169.82 156.794 168.855 156.92 168.215 157.541C167.576 158.162 167.436 159.111 167.406 159.463Z" fill="#ADDE98"/>
<path d="M169.415 159.903C168.334 160.64 166.855 160.382 166.855 160.382C166.855 160.382 167.128 158.929 168.206 158.191C169.284 157.454 170.766 157.712 170.766 157.712C170.766 157.712 170.495 159.165 169.415 159.903Z" fill="#D6F1CA"/>
<path d="M33.2761 153.078L33.3603 153.149C33.53 153.299 33.6829 153.467 33.8166 153.649C34.1165 154.008 34.2978 154.448 34.3362 154.912C34.3747 155.375 34.2684 155.839 34.0317 156.241C33.9298 156.442 33.8065 156.632 33.6638 156.807L33.5921 156.891L33.5079 156.82C33.3387 156.669 33.1862 156.501 33.0526 156.32C32.7527 155.961 32.5714 155.52 32.533 155.057C32.4945 154.594 32.6008 154.13 32.8375 153.728C32.9397 153.527 33.0627 153.337 33.2044 153.161L33.2761 153.078ZM33.5661 156.576C33.7417 156.338 34.1772 155.664 34.1169 154.929C34.0567 154.195 33.5152 153.6 33.3021 153.395C33.1275 153.634 32.6909 154.309 32.7523 155.042C32.8136 155.775 33.3509 156.37 33.563 156.576H33.5661Z" fill="#ADDE98"/>
<path d="M34.9214 155.543C34.8175 156.617 33.8623 157.407 33.8623 157.407C33.8623 157.407 33.0651 156.458 33.1649 155.384C33.2647 154.31 34.223 153.52 34.223 153.52C34.223 153.52 35.0202 154.469 34.9214 155.543Z" fill="#D6F1CA"/>
<path d="M12.2426 165.481L12.3351 165.475C12.5267 165.467 12.7187 165.48 12.9077 165.512C13.299 165.567 13.6676 165.726 13.9741 165.972C14.2635 166.237 14.4744 166.574 14.5842 166.948C14.6432 167.127 14.6823 167.312 14.7006 167.5L14.7079 167.592L14.6144 167.598C14.4227 167.605 14.2307 167.592 14.0417 167.56C13.6507 167.505 13.2823 167.346 12.9753 167.101C12.6863 166.836 12.4758 166.499 12.3662 166.125C12.3078 165.945 12.2684 165.76 12.2488 165.572L12.2426 165.481ZM14.5042 167.418C14.4678 167.173 14.3275 166.515 13.8525 166.109C13.3775 165.703 12.6968 165.657 12.4452 165.655C12.4826 165.899 12.623 166.557 13.0969 166.963C13.5709 167.369 14.2558 167.413 14.5042 167.415V167.418Z" fill="#ADDE98"/>
<path d="M14.707 166.01C15.288 166.713 15.183 167.749 15.183 167.749C15.183 167.749 14.1363 167.639 13.5564 166.93C12.9764 166.221 13.0804 165.191 13.0804 165.191C13.0804 165.191 14.126 165.306 14.707 166.01Z" fill="#D6F1CA"/>
<path d="M142.564 162.684H142.668C142.883 162.684 143.098 162.707 143.308 162.751C143.749 162.816 144.159 163.012 144.483 163.314C144.807 163.615 145.029 164.006 145.121 164.436C145.178 164.64 145.213 164.85 145.225 165.062V165.164H145.121C144.905 165.164 144.691 165.141 144.48 165.096C144.04 165.031 143.629 164.835 143.305 164.534C142.981 164.232 142.759 163.84 142.668 163.411C142.611 163.207 142.576 162.997 142.564 162.786V162.684ZM145.007 164.958C144.977 164.682 144.85 163.936 144.337 163.461C143.824 162.986 143.063 162.901 142.778 162.888C142.808 163.164 142.934 163.911 143.447 164.386C143.961 164.86 144.729 164.944 145.007 164.958Z" fill="#ADDE98"/>
<path d="M145.303 163.396C145.926 164.214 145.756 165.361 145.756 165.361C145.756 165.361 144.588 165.19 143.969 164.375C143.351 163.56 143.516 162.41 143.516 162.41C143.516 162.41 144.684 162.581 145.303 163.396Z" fill="#D6F1CA"/>
</g>
<path d="M116.897 130.409C118.33 126.226 119.242 121.886 119.613 117.484L110.616 113.167C110.616 111.721 110.573 110.266 110.441 108.804C110.405 108.298 110.336 107.802 110.28 107.3L118.745 102.001C117.882 97.6717 116.491 93.462 114.602 89.4648L104.602 90.1846C103.631 88.4733 102.546 86.8279 101.354 85.2593L106.006 76.4906C103.061 73.1774 99.7284 70.2234 96.078 67.6907L87.7783 73.2581C86.0721 72.2599 84.3039 71.3695 82.4844 70.5922L82.0918 60.6948C77.8715 59.2797 73.494 58.3749 69.0544 58L64.6937 66.922C63.2356 66.9087 61.7776 66.9642 60.2903 67.0909C59.7766 67.1353 59.2719 67.1997 58.7694 67.2575L53.4284 58.8642C49.0542 59.7251 44.8004 61.1043 40.759 62.972L41.488 72.8849C39.7622 73.8503 38.1024 74.9272 36.5193 76.1084L27.661 71.4852C24.3127 74.401 21.331 77.7053 18.7803 81.327L24.4062 89.5337C23.395 91.2202 22.4958 92.9701 21.7143 94.7723L11.7142 95.1589C10.2849 99.3427 9.37349 103.683 9 108.084L18.0041 112.403C18.0041 113.847 18.0423 115.302 18.1701 116.764C18.215 117.271 18.2778 117.764 18.3473 118.268L9.87035 123.565C10.7402 127.893 12.132 132.102 14.0158 136.101L24.0114 135.384C24.9878 137.092 26.0742 138.736 27.264 140.307L22.6071 149.071C25.5495 152.389 28.8844 155.344 32.5399 157.873L40.8285 152.306C42.5326 153.308 44.301 154.198 46.1224 154.972L46.515 164.869C50.7361 166.286 55.1155 167.189 59.5568 167.559L63.9265 158.64C65.3801 158.64 66.8539 158.6 68.3321 158.475C68.8391 158.433 69.3416 158.364 69.8395 158.302L75.1873 166.702C79.5612 165.842 83.8149 164.464 87.8568 162.598L87.1322 152.692C88.8538 151.721 90.5132 150.645 92.1009 149.471L100.955 154.081C104.3 151.164 107.28 147.861 109.833 144.243L104.225 136.037C105.229 134.343 106.128 132.591 106.917 130.789L116.897 130.409ZM64.3101 145.108C46.3108 145.108 31.6718 130.607 31.6718 112.783C31.6718 94.9589 46.3108 80.4606 64.3101 80.4606C82.3094 80.4606 96.9461 94.9611 96.9461 112.783C96.9461 130.605 82.3049 145.108 64.3101 145.108Z" fill="#4D8E31"/>
<path d="M34.0025 112.784C34.0025 129.333 47.5939 142.798 64.3101 142.798C81.0263 142.798 94.611 129.333 94.611 112.784C94.611 96.2348 81.0218 82.7695 64.3101 82.7695C47.5984 82.7695 34.0025 96.2348 34.0025 112.784ZM87.1165 110.813C87.5112 115.282 86.5589 119.766 84.3802 123.698C82.2014 127.631 78.894 130.835 74.8763 132.906C70.8586 134.977 66.3111 135.821 61.8089 135.332C57.3066 134.843 53.052 133.043 49.5829 130.159C46.1139 127.275 43.5864 123.437 42.3201 119.13C41.0537 114.823 41.1054 110.241 42.4687 105.963C43.8319 101.686 46.4454 97.9045 49.9786 95.098C53.5118 92.2914 57.806 90.5857 62.3182 90.1964C68.367 89.674 74.3777 91.5525 79.0281 95.4188C83.6786 99.2851 86.588 104.822 87.1165 110.813Z" fill="#62A446"/>
<path d="M122.09 155.919C121.982 161.007 123.4 166.011 126.164 170.301C128.928 174.59 132.914 177.971 137.619 180.017C142.323 182.062 147.534 182.68 152.593 181.792C157.653 180.904 162.332 178.55 166.04 175.028C169.748 171.506 172.319 166.974 173.426 162.005C174.533 157.036 174.128 151.853 172.261 147.113C170.394 142.372 167.15 138.286 162.938 135.372C158.726 132.457 153.737 130.845 148.6 130.739C141.715 130.605 135.058 133.18 130.088 137.901C125.118 142.621 122.242 149.101 122.09 155.919ZM161.74 148.039C162.782 149.824 163.458 151.794 163.731 153.838C164.004 155.881 163.867 157.958 163.329 159.949C162.792 161.94 161.863 163.807 160.597 165.443C159.331 167.079 157.752 168.452 155.95 169.483C154.148 170.515 152.158 171.185 150.095 171.455C148.032 171.725 145.935 171.59 143.924 171.057C141.914 170.525 140.029 169.605 138.377 168.351C136.725 167.097 135.339 165.533 134.297 163.748C130.188 156.539 132.651 147.051 139.759 142.692C141.552 141.593 143.547 140.86 145.629 140.534C147.71 140.208 149.837 140.297 151.883 140.795C153.93 141.293 155.856 142.19 157.549 143.434C159.241 144.678 160.666 146.243 161.74 148.039Z" fill="#4D8E31"/>
<path d="M189.8 160.541C190.096 157.538 190.065 154.511 189.706 151.514L182.64 149.842C182.261 147.986 181.74 146.161 181.083 144.383L186.261 139.313C185.003 136.562 183.446 133.955 181.617 131.538L174.645 133.602C173.395 132.168 172.028 130.839 170.558 129.627L172.488 122.687C170.009 120.931 167.347 119.446 164.547 118.257L159.54 123.5C157.738 122.884 155.889 122.411 154.01 122.087L152.16 115.12C149.134 114.828 146.084 114.865 143.066 115.231L141.361 122.227C139.489 122.588 137.65 123.101 135.863 123.762L130.749 118.652C129.359 119.268 128.007 119.963 126.697 120.732C125.39 121.498 124.124 122.333 122.906 123.233L124.972 130.138C123.529 131.379 122.188 132.732 120.962 134.184L113.954 132.28C112.185 134.729 110.69 137.362 109.495 140.131L114.782 145.09C114.164 146.876 113.691 148.708 113.366 150.568L106.323 152.399C106.023 155.4 106.055 158.424 106.417 161.418L113.492 163.085C113.862 164.943 114.377 166.77 115.033 168.55L109.86 173.615C110.482 174.987 111.184 176.323 111.962 177.614C112.736 178.912 113.581 180.168 114.492 181.375L121.475 179.318C122.728 180.746 124.093 182.073 125.558 183.286L123.64 190.235C126.109 191.989 128.766 193.47 131.561 194.652L136.576 189.418C138.379 190.037 140.231 190.507 142.113 190.822L143.957 197.806C146.986 198.096 150.039 198.063 153.062 197.709L154.744 190.704C156.62 190.342 158.463 189.828 160.253 189.167L165.386 194.294C166.77 193.677 168.118 192.983 169.423 192.215C170.729 191.448 171.99 190.61 173.201 189.704L171.126 182.799C172.569 181.559 173.909 180.206 175.134 178.754L182.149 180.656C183.922 178.207 185.418 175.574 186.611 172.802L181.321 167.832C181.945 166.05 182.421 164.221 182.746 162.363L189.8 160.541ZM147.49 183.301C142.131 183.19 136.927 181.507 132.534 178.465C128.141 175.424 124.758 171.161 122.811 166.216C120.865 161.27 120.443 155.864 121.598 150.681C122.754 145.498 125.435 140.77 129.304 137.096C133.172 133.423 138.053 130.967 143.331 130.041C148.608 129.114 154.044 129.758 158.952 131.891C163.859 134.025 168.018 137.551 170.902 142.025C173.786 146.499 175.266 151.719 175.155 157.026C174.997 164.142 171.996 170.905 166.809 175.831C161.623 180.757 154.674 183.444 147.49 183.301Z" fill="#62A446"/>
<path d="M31.6718 112.783C31.6718 130.607 46.3108 145.108 64.3101 145.108C82.3094 145.108 96.9461 130.607 96.9461 112.783C96.9461 94.9592 82.3049 80.4609 64.3101 80.4609C46.3153 80.4609 31.6718 94.9615 31.6718 112.783ZM94.611 112.783C94.611 129.332 81.0218 142.797 64.3101 142.797C47.5984 142.797 34.0025 129.332 34.0025 112.783C34.0025 96.2345 47.5939 82.7692 64.3101 82.7692C81.0263 82.7692 94.611 96.2345 94.611 112.783Z" fill="white"/>
<path d="M120.966 155.895C120.853 161.202 122.332 166.423 125.216 170.898C128.099 175.373 132.258 178.901 137.165 181.035C142.073 183.169 147.51 183.814 152.788 182.888C158.065 181.962 162.947 179.506 166.816 175.832C170.685 172.158 173.367 167.43 174.522 162.247C175.678 157.063 175.256 151.657 173.309 146.711C171.362 141.765 167.978 137.502 163.584 134.461C159.191 131.42 153.986 129.737 148.627 129.626C141.444 129.485 134.498 132.172 129.312 137.096C124.127 142.021 121.125 148.781 120.966 155.895ZM174.029 157.006C173.921 162.093 172.293 167.034 169.35 171.204C166.407 175.375 162.281 178.587 157.495 180.436C152.708 182.284 147.476 182.685 142.459 181.588C137.442 180.492 132.867 177.946 129.311 174.274C125.755 170.602 123.378 165.968 122.481 160.958C121.584 155.948 122.208 150.787 124.272 146.128C126.337 141.469 129.75 137.521 134.08 134.783C138.411 132.045 143.464 130.64 148.6 130.746C155.485 130.895 162.028 133.743 166.795 138.665C171.563 143.587 174.164 150.18 174.029 156.999V157.006Z" fill="white"/>
<path d="M45.0036 33.1529C44.935 36.4157 45.8355 39.6257 47.5913 42.3768C49.3471 45.1278 51.8792 47.2964 54.8675 48.6083C57.8558 49.9201 61.166 50.3163 64.3795 49.7468C67.593 49.1772 70.5654 47.6675 72.9209 45.4085C75.2763 43.1495 76.9089 40.2428 77.6122 37.0559C78.3156 33.869 78.0581 30.545 76.8723 27.5045C75.6865 24.464 73.6256 21.8434 70.9504 19.9741C68.2751 18.1049 65.1056 17.071 61.8428 17.0032C57.4697 16.9169 53.2409 18.5687 50.084 21.5962C46.9272 24.6238 45.1001 28.7799 45.0036 33.1529ZM70.1897 28.0988C70.8512 29.2434 71.2808 30.5071 71.454 31.8177C71.6272 33.1284 71.5405 34.4603 71.199 35.7375C70.8574 37.0146 70.2676 38.212 69.4633 39.2612C68.659 40.3104 67.6559 41.1909 66.5114 41.8525C65.3668 42.5141 64.1031 42.9437 62.7924 43.1169C61.4818 43.29 60.1499 43.2034 58.8728 42.8618C57.5956 42.5202 56.3983 41.9305 55.3491 41.1262C54.2999 40.3219 53.4193 39.3188 52.7578 38.1742C50.1474 33.5504 51.7119 27.4647 56.2274 24.6691C57.3657 23.9646 58.6331 23.4941 59.9554 23.2853C61.2778 23.0764 62.6285 23.1333 63.9285 23.4527C65.2286 23.772 66.452 24.3474 67.527 25.1452C68.6021 25.9429 69.5073 26.947 70.1897 28.0988Z" fill="#4D8E31"/>
<path d="M88.8708 36.1012C89.0614 34.1851 89.0411 32.2544 88.8102 30.3426L84.2613 29.2753C84.0169 28.0914 83.6819 26.9273 83.2591 25.7929L86.5921 22.5586C85.7823 20.8033 84.78 19.1399 83.6028 17.5979L79.1146 18.9146C78.3096 18.0003 77.4296 17.1523 76.4835 16.379L77.7254 11.9513C76.13 10.8313 74.4161 9.88375 72.6133 9.12509L69.3902 12.47C68.23 12.0768 67.0397 11.7754 65.8305 11.5686L64.6391 7.12382C62.6909 6.9377 60.7278 6.96147 58.7848 7.19469L57.6873 11.6579C56.482 11.888 55.2982 12.2156 54.1479 12.6372L50.8554 9.37738C49.961 9.77043 49.0902 10.2134 48.2474 10.704C47.4055 11.1929 46.5908 11.7256 45.8069 12.2999L47.1369 16.705C46.2079 17.4968 45.3445 18.3598 44.5549 19.286L40.0435 18.0713C38.9047 19.634 37.9421 21.3135 37.1727 23.0801L40.5764 26.2436C40.179 27.3832 39.8743 28.5519 39.6652 29.7388L35.1308 30.9067C34.9381 32.8213 34.9584 34.7508 35.1914 36.661L39.7461 37.724C39.9843 38.9097 40.316 40.0754 40.7382 41.2107L37.4081 44.4422C37.8085 45.3176 38.2603 46.1694 38.7612 46.9934C39.2596 47.8215 39.8034 48.6226 40.3901 49.3929L44.8856 48.0805C45.6918 48.9913 46.5707 49.8378 47.5138 50.6118L46.2791 55.0453C47.8688 56.1644 49.5787 57.1093 51.3781 57.8629L54.6071 54.5237C55.7676 54.9192 56.9598 55.2188 58.1711 55.4194L59.3581 59.8755C61.3086 60.0602 63.2737 60.0393 65.2197 59.8132L66.3027 55.3443C67.5104 55.1136 68.6966 54.7856 69.8494 54.3635L73.1534 57.6347C74.0447 57.2411 74.9126 56.7982 75.7528 56.3081C76.5931 55.819 77.405 55.2843 78.1846 54.7065L76.8488 50.3014C77.7777 49.51 78.6407 48.6469 79.4294 47.7205L83.9451 48.9337C85.0864 47.3718 86.0496 45.6917 86.8173 43.9234L83.4122 40.7529C83.8139 39.6161 84.1205 38.4491 84.3292 37.2634L88.8708 36.1012ZM61.6326 50.6218C58.183 50.5504 54.8325 49.4767 52.0047 47.5365C49.1769 45.5963 46.9987 42.8767 45.7456 39.7216C44.4925 36.5665 44.2207 33.1175 44.9647 29.8108C45.7086 26.5041 47.4348 23.4881 49.9251 21.1443C52.4154 18.8004 55.5578 17.2339 58.9551 16.6428C62.3525 16.0517 65.8521 16.4626 69.0115 17.8236C72.1708 19.1845 74.8481 21.4343 76.7048 24.2886C78.5615 27.1428 79.5142 30.4733 79.4424 33.859C79.3412 38.3984 77.409 42.713 74.07 45.8558C70.731 48.9985 66.2579 50.7126 61.6326 50.6218Z" fill="#62A446"/>
<path d="M44.0039 33.1314C43.931 36.5919 44.886 39.9963 46.748 42.9141C48.61 45.8319 51.2954 48.132 54.4647 49.5235C57.6339 50.915 61.1446 51.3355 64.5528 50.7316C67.961 50.1278 71.1137 48.5269 73.612 46.1313C76.1103 43.7356 77.8421 40.653 78.5884 37.2731C79.3347 33.8932 79.0619 30.3679 77.8046 27.143C76.5474 23.9181 74.362 21.1385 71.5249 19.1556C68.6879 17.1728 65.3265 16.0758 61.866 16.0035C57.2276 15.9114 52.742 17.663 49.3934 20.874C46.0448 24.085 44.1065 28.4931 44.0039 33.1314ZM78.2695 33.8556C78.2 37.1725 77.1485 40.3943 75.248 43.1136C73.3476 45.8329 70.6834 47.9276 67.5925 49.1328C64.5016 50.338 61.1227 50.5996 57.8831 49.8844C54.6435 49.1693 51.6887 47.5096 49.3924 45.1152C47.096 42.7208 45.5613 39.6992 44.9821 36.4325C44.403 33.1659 44.8055 29.8008 46.1388 26.7629C47.4721 23.725 49.6763 21.1507 52.4726 19.3655C55.2689 17.5803 58.5318 16.6644 61.8486 16.7335C66.2945 16.8309 70.5201 18.6878 73.5986 21.8969C76.677 25.106 78.3568 29.4052 78.2695 33.8513V33.8556Z" fill="white"/>
</g>
</svg>
