<svg width="20" height="20" viewBox="0 0 20 20" fill="none" xmlns="http://www.w3.org/2000/svg">
<g clip-path="url(#clip0_11929_3524)">
<path d="M17.5 11.8755V16.2505C17.5 16.582 17.3683 16.9 17.1339 17.1344C16.8995 17.3688 16.5815 17.5005 16.25 17.5005H3.75C3.41848 17.5005 3.10054 17.3688 2.86612 17.1344C2.6317 16.9 2.5 16.582 2.5 16.2505V11.8755C2.5 11.7097 2.56585 11.5508 2.68306 11.4336C2.80027 11.3163 2.95924 11.2505 3.125 11.2505C3.29076 11.2505 3.44973 11.3163 3.56694 11.4336C3.68415 11.5508 3.75 11.7097 3.75 11.8755V16.2505H16.25V11.8755C16.25 11.7097 16.3158 11.5508 16.4331 11.4336C16.5503 11.3163 16.7092 11.2505 16.875 11.2505C17.0408 11.2505 17.1997 11.3163 17.3169 11.4336C17.4342 11.5508 17.5 11.7097 17.5 11.8755ZM7.31719 6.69268L9.375 4.63409V11.8755C9.375 12.0413 9.44085 12.2002 9.55806 12.3174C9.67527 12.4346 9.83424 12.5005 10 12.5005C10.1658 12.5005 10.3247 12.4346 10.4419 12.3174C10.5592 12.2002 10.625 12.0413 10.625 11.8755V4.63409L12.6828 6.69268C12.8001 6.80996 12.9591 6.87584 13.125 6.87584C13.2909 6.87584 13.4499 6.80996 13.5672 6.69268C13.6845 6.5754 13.7503 6.41634 13.7503 6.25049C13.7503 6.08464 13.6845 5.92558 13.5672 5.8083L10.4422 2.6833C10.3841 2.62519 10.3152 2.57909 10.2393 2.54764C10.1635 2.51619 10.0821 2.5 10 2.5C9.91787 2.5 9.83654 2.51619 9.76066 2.54764C9.68479 2.57909 9.61586 2.62519 9.55781 2.6833L6.43281 5.8083C6.31554 5.92558 6.24965 6.08464 6.24965 6.25049C6.24965 6.41634 6.31554 6.5754 6.43281 6.69268C6.55009 6.80996 6.70915 6.87584 6.875 6.87584C7.04085 6.87584 7.19991 6.80996 7.31719 6.69268Z" fill="#62A446"/>
</g>
<defs>
<clipPath id="clip0_11929_3524">
<rect width="20" height="20" fill="white"/>
</clipPath>
</defs>
</svg>
