<svg width="48" height="49" viewBox="0 0 48 49" fill="none" xmlns="http://www.w3.org/2000/svg">
<path d="M12.0225 28.2118C12.0276 28.3134 12.012 28.415 11.9766 28.5104C11.9412 28.6057 11.8867 28.6929 11.8166 28.7666C11.7464 28.8402 11.662 28.8988 11.5685 28.9389C11.4749 28.9789 11.3742 28.9994 11.2725 28.9993H3.00002C2.66146 28.9998 2.33269 28.8858 2.06716 28.6757C1.80163 28.4657 1.61497 28.172 1.53752 27.8424C1.4893 27.6168 1.49152 27.3834 1.54403 27.1588C1.59654 26.9341 1.69804 26.7239 1.84127 26.5431C3.16466 24.788 4.92056 23.4062 6.93752 22.5324C6.05201 21.7251 5.37284 20.7173 4.95691 19.5934C4.54098 18.4696 4.40039 17.2625 4.54692 16.0732C4.69345 14.8838 5.12283 13.7469 5.79909 12.7577C6.47536 11.7684 7.37883 10.9556 8.43383 10.3873C9.48882 9.81898 10.6646 9.51175 11.8628 9.49132C13.0609 9.4709 14.2465 9.73786 15.3203 10.2699C16.3941 10.8019 17.3247 11.5834 18.0343 12.549C18.7439 13.5147 19.2118 14.6363 19.3988 15.8199C19.4229 15.9791 19.3944 16.1418 19.3176 16.2833C19.2407 16.4248 19.1198 16.5373 18.9731 16.6037C16.8926 17.5655 15.1306 19.1024 13.8951 21.033C12.6595 22.9635 12.002 25.2072 12 27.4993C12 27.7393 12 27.9756 12.0225 28.2118ZM46.1475 26.5412C44.8272 24.7882 43.0753 23.4071 41.0625 22.5324C41.948 21.7251 42.6272 20.7173 43.0431 19.5934C43.4591 18.4696 43.5997 17.2625 43.4531 16.0732C43.3066 14.8838 42.8772 13.7469 42.201 12.7577C41.5247 11.7684 40.6212 10.9556 39.5662 10.3873C38.5112 9.81898 37.3354 9.51175 36.1373 9.49132C34.9391 9.4709 33.7535 9.73786 32.6797 10.2699C31.606 10.8019 30.6753 11.5834 29.9657 12.549C29.2561 13.5147 28.7883 14.6363 28.6013 15.8199C28.5771 15.9791 28.6056 16.1418 28.6825 16.2833C28.7593 16.4248 28.8802 16.5373 29.0269 16.6037C31.1074 17.5655 32.8694 19.1024 34.1049 21.033C35.3405 22.9635 35.9981 25.2072 36 27.4993C36 27.7393 36 27.9756 35.9775 28.2118C35.9724 28.3134 35.9881 28.415 36.0235 28.5104C36.0589 28.6057 36.1133 28.6929 36.1835 28.7666C36.2536 28.8402 36.338 28.8988 36.4316 28.9389C36.5251 28.9789 36.6258 28.9994 36.7275 28.9993H45C45.3386 28.9998 45.6674 28.8858 45.9329 28.6757C46.1984 28.4657 46.3851 28.172 46.4625 27.8424C46.511 27.6164 46.5088 27.3825 46.4559 27.1575C46.4031 26.9324 46.301 26.722 46.1569 26.5412H46.1475ZM29.46 34.6374C30.9536 33.4936 32.0511 31.9106 32.5985 30.1107C33.1458 28.3109 33.1154 26.3848 32.5116 24.6032C31.9077 22.8215 30.7607 21.2739 29.2318 20.1777C27.703 19.0816 25.869 18.4921 23.9878 18.4921C22.1066 18.4921 20.2727 19.0816 18.7438 20.1777C17.215 21.2739 16.068 22.8215 15.4641 24.6032C14.8603 26.3848 14.8299 28.3109 15.3772 30.1107C15.9245 31.9106 17.0221 33.4936 18.5156 34.6374C15.8654 35.7857 13.6524 37.7523 12.2006 40.2493C12.069 40.4774 11.9997 40.7361 11.9997 40.9994C11.9997 41.2627 12.069 41.5214 12.2007 41.7495C12.3324 41.9775 12.5218 42.1668 12.7499 42.2985C12.978 42.4301 13.2367 42.4994 13.5 42.4993H34.5C34.7634 42.4994 35.0221 42.4301 35.2501 42.2985C35.4782 42.1668 35.6676 41.9775 35.7993 41.7495C35.931 41.5214 36.0003 41.2627 36.0004 40.9994C36.0004 40.7361 35.9311 40.4774 35.7994 40.2493C34.3445 37.7507 32.1274 35.784 29.4731 34.6374H29.46Z" fill="#62A446"/>
</svg>
