<svg width="57" height="56" viewBox="0 0 57 56" fill="none" xmlns="http://www.w3.org/2000/svg">
<ellipse cx="28.375" cy="27.9999" rx="28" ry="27.9274" fill="#D6F1CA"/>
<g clip-path="url(#clip0_335_9166)">
<path d="M30.4137 37.2096L20.7683 43.2909L21.8081 35.8771L24.4971 32.3738L29.0407 33.6621L30.4137 37.2096Z" fill="#4D8E31"/>
<path d="M12.7108 21.8032C11.9487 22.0247 11.7478 23.0102 12.3622 23.5124L17.3823 27.6154L28.7321 23.717L44 12.709L12.7108 21.8032Z" fill="#82C167"/>
<path d="M24.4968 32.3737L31.9737 38.4847L35.8633 41.664C36.4287 42.1263 37.2829 41.8342 37.447 41.1225L43.9998 12.709L28.9953 23.8979L24.4968 32.3737Z" fill="#82C167"/>
<path d="M44 12.709L24.497 32.3737L20.7683 43.2908L17.3823 27.6154L44 12.709Z" fill="#62A446"/>
</g>
<defs>
<clipPath id="clip0_335_9166">
<rect width="32" height="32" fill="white" transform="translate(12 11.9998)"/>
</clipPath>
</defs>
</svg>
