<svg width="404" height="239" viewBox="0 0 404 239" fill="none" xmlns="http://www.w3.org/2000/svg">
<g filter="url(#filter0_bd_3081_18624)">
<rect x="23" y="19" width="358" height="193" rx="18" fill="url(#paint0_linear_3081_18624)" fill-opacity="0.5"/>
<rect x="24.5" y="20.5" width="355" height="190" rx="16.5" stroke="white" stroke-width="3"/>
</g>
<path d="M58.584 152L50.648 142.016H48.952V152H45.592V129.6H48.952V138.976H50.648L57.752 129.6H61.592L53.496 140.32V140.48L62.456 152H58.584ZM68.6455 152.32C66.5762 152.32 64.9868 151.851 63.8775 150.912C62.7682 149.952 62.1708 148.661 62.0855 147.04H65.2215C65.3922 148.896 66.5228 149.824 68.6135 149.824C69.4242 149.824 70.0855 149.664 70.5975 149.344C71.1308 149.003 71.3975 148.491 71.3975 147.808C71.3975 147.083 71.1202 146.528 70.5655 146.144C70.0322 145.76 69.2642 145.429 68.2615 145.152L67.0135 144.832C66.3948 144.661 65.8722 144.491 65.4455 144.32C65.0188 144.149 64.5602 143.904 64.0695 143.584C63.5788 143.243 63.2055 142.805 62.9495 142.272C62.6935 141.717 62.5655 141.077 62.5655 140.352C62.5655 138.923 63.1095 137.792 64.1975 136.96C65.2855 136.107 66.6188 135.68 68.1975 135.68C70.0962 135.68 71.5468 136.139 72.5495 137.056C73.5735 137.952 74.1282 139.051 74.2135 140.352H71.0775C70.9922 139.691 70.6935 139.168 70.1815 138.784C69.6908 138.379 69.0402 138.176 68.2295 138.176C67.5042 138.176 66.8962 138.357 66.4055 138.72C65.9362 139.061 65.7015 139.552 65.7015 140.192C65.7015 140.832 65.9362 141.301 66.4055 141.6C66.8748 141.899 67.6002 142.187 68.5815 142.464L69.7975 142.784C71.2482 143.168 72.4002 143.744 73.2535 144.512C74.1068 145.259 74.5335 146.325 74.5335 147.712C74.5335 149.227 73.9788 150.379 72.8695 151.168C71.7602 151.936 70.3522 152.32 68.6455 152.32ZM84.2438 135.68C86.0571 135.68 87.5078 136.245 88.5958 137.376C89.6838 138.485 90.2278 140.053 90.2278 142.08V152H86.9638V142.784C86.9638 141.376 86.6224 140.32 85.9398 139.616C85.2784 138.891 84.4038 138.528 83.3158 138.528C82.1851 138.528 81.2358 138.912 80.4678 139.68C79.7211 140.427 79.3478 141.547 79.3478 143.04V152H76.0838V129.28H79.3478V137.92H79.5718C80.6811 136.427 82.2384 135.68 84.2438 135.68ZM106.861 152.32C104.472 152.32 102.573 151.424 101.165 149.632C99.7572 147.84 99.0532 145.205 99.0532 141.728C99.0532 138.293 99.7572 135.68 101.165 133.888C102.595 132.075 104.493 131.168 106.861 131.168C109.229 131.168 111.107 132.075 112.493 133.888C113.88 135.68 114.573 138.315 114.573 141.792C114.573 145.269 113.88 147.893 112.493 149.664C111.107 151.435 109.229 152.32 106.861 152.32ZM103.693 147.584C104.504 148.843 105.56 149.472 106.861 149.472C108.163 149.472 109.197 148.843 109.965 147.584C110.733 146.304 111.117 144.363 111.117 141.76C111.117 139.157 110.723 137.216 109.933 135.936C109.165 134.656 108.141 134.016 106.861 134.016C105.56 134.016 104.504 134.656 103.693 135.936C102.904 137.216 102.509 139.157 102.509 141.76C102.509 144.384 102.904 146.325 103.693 147.584ZM119.778 151.552C119.372 151.957 118.882 152.16 118.306 152.16C117.73 152.16 117.228 151.957 116.802 151.552C116.396 151.125 116.194 150.635 116.194 150.08C116.194 149.483 116.396 148.981 116.802 148.576C117.228 148.171 117.73 147.968 118.306 147.968C118.882 147.968 119.372 148.171 119.778 148.576C120.183 148.981 120.386 149.483 120.386 150.08C120.386 150.635 120.183 151.125 119.778 151.552ZM129.709 152.32C127.319 152.32 125.421 151.424 124.013 149.632C122.605 147.84 121.901 145.205 121.901 141.728C121.901 138.293 122.605 135.68 124.013 133.888C125.442 132.075 127.341 131.168 129.709 131.168C132.077 131.168 133.954 132.075 135.341 133.888C136.727 135.68 137.421 138.315 137.421 141.792C137.421 145.269 136.727 147.893 135.341 149.664C133.954 151.435 132.077 152.32 129.709 152.32ZM126.541 147.584C127.351 148.843 128.407 149.472 129.709 149.472C131.01 149.472 132.045 148.843 132.813 147.584C133.581 146.304 133.965 144.363 133.965 141.76C133.965 139.157 133.57 137.216 132.781 135.936C132.013 134.656 130.989 134.016 129.709 134.016C128.407 134.016 127.351 134.656 126.541 135.936C125.751 137.216 125.357 139.157 125.357 141.76C125.357 144.384 125.751 146.325 126.541 147.584ZM147.289 152.32C144.899 152.32 143.001 151.424 141.593 149.632C140.185 147.84 139.481 145.205 139.481 141.728C139.481 138.293 140.185 135.68 141.593 133.888C143.022 132.075 144.921 131.168 147.289 131.168C149.657 131.168 151.534 132.075 152.921 133.888C154.307 135.68 155.001 138.315 155.001 141.792C155.001 145.269 154.307 147.893 152.921 149.664C151.534 151.435 149.657 152.32 147.289 152.32ZM144.121 147.584C144.931 148.843 145.987 149.472 147.289 149.472C148.59 149.472 149.625 148.843 150.393 147.584C151.161 146.304 151.545 144.363 151.545 141.76C151.545 139.157 151.15 137.216 150.361 135.936C149.593 134.656 148.569 134.016 147.289 134.016C145.987 134.016 144.931 134.656 144.121 135.936C143.331 137.216 142.937 139.157 142.937 141.76C142.937 144.384 143.331 146.325 144.121 147.584Z" fill="#253545"/>
<path d="M55.496 97.8H56.888L54.392 109H52.712L50.216 100.44H50.104L47.608 109H45.928L43.416 97.8H44.84L46.792 106.952H46.904L49.352 98.6H50.968L53.4 106.952H53.512L55.496 97.8ZM63.7386 107.912H63.9466V109H63.3066C62.5173 109 62.0426 108.659 61.8826 107.976C61.264 108.765 60.384 109.16 59.2426 109.16C58.4533 109.16 57.8133 108.968 57.3226 108.584C56.8426 108.189 56.6026 107.619 56.6026 106.872C56.6026 106.147 56.848 105.581 57.3386 105.176C57.84 104.76 58.5013 104.509 59.3226 104.424L61.7066 104.2V103.752C61.7066 103.197 61.5626 102.765 61.2746 102.456C60.9866 102.147 60.576 101.992 60.0426 101.992C59.0826 101.992 58.5066 102.499 58.3146 103.512H56.9226C57.008 102.723 57.3226 102.083 57.8666 101.592C58.4213 101.091 59.1466 100.84 60.0426 100.84C60.9706 100.84 61.712 101.096 62.2666 101.608C62.832 102.12 63.1146 102.845 63.1146 103.784V107.256C63.1146 107.693 63.3226 107.912 63.7386 107.912ZM61.7066 105.928V105.224L59.7706 105.416C59.2266 105.469 58.7946 105.613 58.4746 105.848C58.1653 106.083 58.0106 106.408 58.0106 106.824C58.0106 107.24 58.144 107.549 58.4106 107.752C58.6773 107.944 59.0186 108.04 59.4346 108.04C60.0426 108.04 60.5706 107.869 61.0186 107.528C61.4773 107.176 61.7066 106.643 61.7066 105.928ZM64.5437 109V97.64H65.9358V109H64.5437ZM67.1463 109V97.64H68.5383V109H67.1463ZM76.8059 104.84C76.8059 104.915 76.7952 105.08 76.7739 105.336H70.8059C70.8485 106.136 71.0885 106.781 71.5259 107.272C71.9739 107.763 72.5659 108.008 73.3019 108.008C73.8245 108.008 74.2672 107.896 74.6299 107.672C75.0032 107.437 75.2592 107.101 75.3979 106.664H76.7579C76.5872 107.453 76.1925 108.067 75.5739 108.504C74.9552 108.941 74.1979 109.16 73.3019 109.16C72.1605 109.16 71.2272 108.787 70.5019 108.04C69.7765 107.293 69.4139 106.307 69.4139 105.08C69.4139 103.811 69.7765 102.787 70.5019 102.008C71.2272 101.229 72.1392 100.84 73.2379 100.84C74.2619 100.84 75.1099 101.187 75.7819 101.88C76.4645 102.573 76.8059 103.56 76.8059 104.84ZM74.8219 102.632C74.4165 102.205 73.8885 101.992 73.2379 101.992C72.5872 101.992 72.0379 102.216 71.5899 102.664C71.1525 103.101 70.8965 103.651 70.8219 104.312H75.4459C75.4352 103.619 75.2272 103.059 74.8219 102.632ZM80.4828 109.16C79.7254 109.16 79.1921 108.973 78.8828 108.6C78.5841 108.216 78.4348 107.747 78.4348 107.192V102.136H76.7388V101H77.2828C77.7521 101 78.0828 100.915 78.2748 100.744C78.4668 100.563 78.5628 100.253 78.5628 99.816V98.824H79.8428V101H81.8428V102.136H79.8428V107C79.8428 107.672 80.1788 108.008 80.8508 108.008C81.1068 108.008 81.3734 107.965 81.6508 107.88V108.984C81.2241 109.101 80.8348 109.16 80.4828 109.16ZM91.5856 103.16C92.8336 103.629 93.4576 104.557 93.4576 105.944C93.4576 106.904 93.1536 107.656 92.5456 108.2C91.9483 108.733 91.1163 109 90.0496 109H85.9376V97.8H90.0176C91.0523 97.8 91.8363 98.0507 92.3696 98.552C92.903 99.0427 93.1696 99.72 93.1696 100.584C93.1696 101.757 92.6416 102.589 91.5856 103.08V103.16ZM87.3616 99V102.632H89.8416C90.439 102.632 90.903 102.467 91.2336 102.136C91.5643 101.795 91.7296 101.341 91.7296 100.776C91.7296 100.221 91.559 99.7893 91.2176 99.48C90.887 99.16 90.4443 99 89.8896 99H87.3616ZM89.9376 107.8C90.5776 107.8 91.079 107.624 91.4416 107.272C91.8043 106.92 91.9856 106.451 91.9856 105.864C91.9856 105.267 91.799 104.781 91.4256 104.408C91.0523 104.024 90.551 103.832 89.9216 103.832H87.3616V107.8H89.9376ZM101.081 107.912H101.289V109H100.649C99.8598 109 99.3851 108.659 99.2251 107.976C98.6065 108.765 97.7265 109.16 96.5851 109.16C95.7958 109.16 95.1558 108.968 94.6651 108.584C94.1851 108.189 93.9451 107.619 93.9451 106.872C93.9451 106.147 94.1905 105.581 94.6811 105.176C95.1825 104.76 95.8438 104.509 96.6651 104.424L99.0491 104.2V103.752C99.0491 103.197 98.9051 102.765 98.6171 102.456C98.3291 102.147 97.9185 101.992 97.3851 101.992C96.4251 101.992 95.8491 102.499 95.6571 103.512H94.2651C94.3505 102.723 94.6651 102.083 95.2091 101.592C95.7638 101.091 96.4891 100.84 97.3851 100.84C98.3131 100.84 99.0545 101.096 99.6091 101.608C100.174 102.12 100.457 102.845 100.457 103.784V107.256C100.457 107.693 100.665 107.912 101.081 107.912ZM99.0491 105.928V105.224L97.1131 105.416C96.5691 105.469 96.1371 105.613 95.8171 105.848C95.5078 106.083 95.3531 106.408 95.3531 106.824C95.3531 107.24 95.4865 107.549 95.7531 107.752C96.0198 107.944 96.3611 108.04 96.7771 108.04C97.3851 108.04 97.9131 107.869 98.3611 107.528C98.8198 107.176 99.0491 106.643 99.0491 105.928ZM101.886 109V97.64H103.278V109H101.886ZM111.317 107.912H111.525V109H110.885C110.096 109 109.621 108.659 109.461 107.976C108.843 108.765 107.963 109.16 106.821 109.16C106.032 109.16 105.392 108.968 104.901 108.584C104.421 108.189 104.181 107.619 104.181 106.872C104.181 106.147 104.427 105.581 104.917 105.176C105.419 104.76 106.08 104.509 106.901 104.424L109.285 104.2V103.752C109.285 103.197 109.141 102.765 108.853 102.456C108.565 102.147 108.155 101.992 107.621 101.992C106.661 101.992 106.085 102.499 105.893 103.512H104.501C104.587 102.723 104.901 102.083 105.445 101.592C106 101.091 106.725 100.84 107.621 100.84C108.549 100.84 109.291 101.096 109.845 101.608C110.411 102.12 110.693 102.845 110.693 103.784V107.256C110.693 107.693 110.901 107.912 111.317 107.912ZM109.285 105.928V105.224L107.349 105.416C106.805 105.469 106.373 105.613 106.053 105.848C105.744 106.083 105.589 106.408 105.589 106.824C105.589 107.24 105.723 107.549 105.989 107.752C106.256 107.944 106.597 108.04 107.013 108.04C107.621 108.04 108.149 107.869 108.597 107.528C109.056 107.176 109.285 106.643 109.285 105.928ZM112.091 109V101H113.355L113.483 101.96H113.595C114.139 101.213 114.913 100.84 115.915 100.84C116.79 100.84 117.494 101.112 118.027 101.656C118.561 102.2 118.827 102.973 118.827 103.976V109H117.435V104.28C117.435 103.544 117.259 102.995 116.907 102.632C116.566 102.259 116.118 102.072 115.563 102.072C114.977 102.072 114.481 102.275 114.075 102.68C113.681 103.075 113.483 103.661 113.483 104.44V109H112.091ZM123.655 109.16C122.461 109.16 121.495 108.771 120.759 107.992C120.034 107.213 119.671 106.232 119.671 105.048C119.671 103.832 120.045 102.829 120.791 102.04C121.538 101.24 122.487 100.84 123.639 100.84C124.557 100.84 125.351 101.096 126.023 101.608C126.706 102.109 127.117 102.808 127.255 103.704H125.847C125.741 103.235 125.49 102.845 125.095 102.536C124.701 102.227 124.215 102.072 123.639 102.072C122.893 102.072 122.279 102.355 121.799 102.92C121.319 103.485 121.079 104.195 121.079 105.048C121.079 105.88 121.314 106.568 121.783 107.112C122.253 107.656 122.877 107.928 123.655 107.928C124.807 107.928 125.549 107.416 125.879 106.392H127.287C127.138 107.235 126.733 107.907 126.071 108.408C125.421 108.909 124.615 109.16 123.655 109.16ZM135.056 104.84C135.056 104.915 135.046 105.08 135.024 105.336H129.056C129.099 106.136 129.339 106.781 129.776 107.272C130.224 107.763 130.816 108.008 131.552 108.008C132.075 108.008 132.518 107.896 132.88 107.672C133.254 107.437 133.51 107.101 133.648 106.664H135.008C134.838 107.453 134.443 108.067 133.824 108.504C133.206 108.941 132.448 109.16 131.552 109.16C130.411 109.16 129.478 108.787 128.752 108.04C128.027 107.293 127.664 106.307 127.664 105.08C127.664 103.811 128.027 102.787 128.752 102.008C129.478 101.229 130.39 100.84 131.488 100.84C132.512 100.84 133.36 101.187 134.032 101.88C134.715 102.573 135.056 103.56 135.056 104.84ZM133.072 102.632C132.667 102.205 132.139 101.992 131.488 101.992C130.838 101.992 130.288 102.216 129.84 102.664C129.403 103.101 129.147 103.651 129.072 104.312H133.696C133.686 103.619 133.478 103.059 133.072 102.632Z" fill="#253545"/>
<path d="M79.1046 46.9327L81.4013 52.6568L83.6986 46.9327C83.7129 46.8999 83.7364 46.8719 83.7662 46.8521C83.796 46.8323 83.8308 46.8214 83.8666 46.8208H85.3981C85.4124 46.8216 85.4262 46.8256 85.4386 46.8325C85.4511 46.8395 85.4618 46.8492 85.4699 46.8609C85.478 46.8726 85.4833 46.886 85.4854 46.9001C85.4876 46.9142 85.4864 46.9286 85.4822 46.9421L82.1018 55.2534C82.0891 55.2855 82.0673 55.3131 82.0391 55.333C82.011 55.3529 81.9776 55.3641 81.9431 55.3654H81.0093C80.9748 55.3641 80.9415 55.3529 80.9133 55.333C80.8851 55.3131 80.8633 55.2855 80.8506 55.2534L78.4787 49.3709L76.1162 55.2537C76.1059 55.2873 76.0848 55.3165 76.056 55.3367C76.0273 55.357 75.9927 55.3672 75.9576 55.3656H75.024C74.9892 55.3657 74.9553 55.3549 74.9269 55.3349C74.8984 55.3148 74.8769 55.2864 74.8653 55.2537L71.4382 46.9429C71.4319 46.9302 71.4289 46.916 71.4296 46.9018C71.4302 46.8875 71.4345 46.8737 71.442 46.8616C71.4494 46.8494 71.4598 46.8394 71.4723 46.8324C71.4847 46.8254 71.4986 46.8217 71.5129 46.8216H73.0527C73.0872 46.8228 73.1206 46.834 73.1488 46.8539C73.1769 46.8738 73.1987 46.9015 73.2114 46.9335L75.5081 52.6576L77.8158 46.9327C77.8274 46.9 77.8489 46.8716 77.8774 46.8515C77.9058 46.8315 77.9397 46.8207 77.9745 46.8208H78.9083C78.9487 46.8155 78.9898 46.8236 79.0251 46.8438C79.0605 46.864 79.0883 46.8953 79.1043 46.9327H79.1046Z" fill="#49A747"/>
<path d="M90.8523 46.6442C91.4397 46.6289 92.024 46.7334 92.5696 46.9515C93.1152 47.1696 93.6106 47.4966 94.0256 47.9126C94.4406 48.3285 94.7665 48.8247 94.9833 49.3708C95.2001 49.9169 95.3033 50.5015 95.2866 51.0888C95.2866 52.2602 94.8212 53.3837 93.9929 54.212C93.1646 55.0403 92.0412 55.5056 90.8698 55.5056C89.6984 55.5056 88.575 55.0403 87.7467 54.212C86.9184 53.3837 86.4531 52.2602 86.4531 51.0888C86.4379 50.5049 86.5409 49.9238 86.756 49.3807C86.9712 48.8376 87.2939 48.3435 87.7049 47.9283C88.1158 47.5131 88.6065 47.1854 89.1474 46.9647C89.6883 46.744 90.2682 46.635 90.8523 46.6442ZM90.8523 53.9088C91.2151 53.9092 91.5741 53.8361 91.9079 53.694C92.2416 53.5519 92.5431 53.3437 92.7943 53.082C93.0454 52.8202 93.241 52.5104 93.3693 52.1711C93.4975 51.8318 93.5558 51.47 93.5405 51.1076C93.5405 50.3944 93.2572 49.7104 92.7529 49.206C92.2485 48.7017 91.5645 48.4184 90.8513 48.4184C90.1381 48.4184 89.454 48.7017 88.9497 49.206C88.4454 49.7104 88.162 50.3944 88.162 51.1076C88.1468 51.4702 88.2051 51.8321 88.3335 52.1716C88.4619 52.511 88.6576 52.821 88.909 53.0827C89.1604 53.3445 89.4622 53.5526 89.7962 53.6946C90.1301 53.8366 90.4894 53.9095 90.8523 53.9088Z" fill="#49A747"/>
<path d="M102.365 48.1573C102.361 48.1807 102.353 48.2032 102.341 48.2235C102.329 48.2437 102.313 48.2613 102.293 48.2752C102.274 48.2891 102.253 48.2991 102.23 48.3045C102.207 48.3099 102.183 48.3106 102.159 48.3066C101.994 48.2959 101.829 48.2959 101.663 48.3066C101.19 48.3351 100.73 48.4816 100.328 48.7328C99.9249 48.9839 99.5912 49.3318 99.3571 49.7447V55.2163C99.3585 55.24 99.3548 55.2637 99.3464 55.2858C99.3379 55.308 99.3249 55.3281 99.3082 55.3449C99.2914 55.3616 99.2713 55.3747 99.2491 55.3831C99.227 55.3915 99.2033 55.3952 99.1796 55.3938H97.8081C97.7845 55.3952 97.7608 55.3915 97.7386 55.3831C97.7165 55.3747 97.6964 55.3616 97.6796 55.3449C97.6628 55.3281 97.6498 55.308 97.6414 55.2858C97.6329 55.2637 97.6293 55.24 97.6306 55.2163V46.9993C97.6293 46.9756 97.6329 46.952 97.6414 46.9298C97.6498 46.9077 97.6628 46.8875 97.6796 46.8708C97.6964 46.854 97.7165 46.841 97.7386 46.8326C97.7608 46.8241 97.7845 46.8205 97.8081 46.8218H99.134C99.1568 46.8218 99.1795 46.8264 99.2005 46.8355C99.2216 46.8445 99.2405 46.8577 99.2563 46.8743C99.272 46.891 99.2842 46.9106 99.292 46.9321C99.2999 46.9536 99.3033 46.9765 99.302 46.9993V47.8024C99.6049 47.4285 99.99 47.1295 100.427 46.9287C100.865 46.7279 101.342 46.6307 101.823 46.6446H102.327C102.35 46.6456 102.372 46.6514 102.392 46.6617C102.413 46.6719 102.43 46.6864 102.445 46.7041C102.459 46.7218 102.469 46.7423 102.474 46.7643C102.48 46.7863 102.481 46.8092 102.477 46.8315L102.365 48.1573Z" fill="#49A747"/>
<path d="M112.683 55.3656H110.694C110.627 55.3652 110.563 55.3384 110.516 55.291L106.352 51.1822V55.1882C106.353 55.211 106.35 55.2339 106.342 55.2554C106.334 55.2769 106.322 55.2965 106.306 55.3131C106.29 55.3298 106.271 55.343 106.25 55.352C106.229 55.361 106.207 55.3657 106.184 55.3656H104.8C104.753 55.3656 104.708 55.3469 104.675 55.3137C104.642 55.2804 104.623 55.2352 104.623 55.1882V42.629C104.625 42.5834 104.645 42.5404 104.679 42.5091C104.712 42.4778 104.756 42.4605 104.802 42.4609H106.185C106.23 42.4609 106.272 42.4787 106.304 42.5102C106.335 42.5417 106.353 42.5844 106.353 42.629V50.0991L109.844 46.8962C109.891 46.8559 109.95 46.8329 110.012 46.831H112.094C112.113 46.8279 112.132 46.8311 112.148 46.84C112.165 46.849 112.178 46.8631 112.185 46.8802C112.193 46.8974 112.194 46.9165 112.189 46.9346C112.185 46.9527 112.174 46.9688 112.16 46.9803L108.051 50.7153L112.72 55.2534C112.73 55.2732 112.731 55.2961 112.724 55.317C112.717 55.338 112.702 55.3554 112.683 55.3654V55.3656Z" fill="#49A747"/>
<path d="M116.175 59.726H114.792C114.769 59.7261 114.746 59.7214 114.725 59.7124C114.704 59.7034 114.685 59.6902 114.669 59.6735C114.654 59.6569 114.641 59.6373 114.634 59.6158C114.626 59.5943 114.622 59.5714 114.624 59.5486V46.9988C114.622 46.976 114.626 46.9531 114.634 46.9316C114.641 46.9101 114.654 46.8905 114.669 46.8739C114.685 46.8572 114.704 46.844 114.725 46.835C114.746 46.826 114.769 46.8213 114.792 46.8214H116.117C116.165 46.8214 116.21 46.84 116.243 46.8733C116.276 46.9066 116.295 46.9518 116.295 46.9988V47.6059C117.041 46.9784 117.992 46.6461 118.967 46.6721C119.7 46.6623 120.422 46.8493 121.058 47.2136C121.735 47.6086 122.297 48.1726 122.69 48.8503C123.083 49.528 123.293 50.2962 123.299 51.0795C123.306 51.8629 123.109 52.6344 122.727 53.3187C122.346 54.0029 121.793 54.5762 121.124 54.9825C120.467 55.3495 119.728 55.5422 118.976 55.5421C118.031 55.5588 117.114 55.2263 116.399 54.6083V59.5486C116.4 59.5764 116.394 59.604 116.383 59.6293C116.371 59.6546 116.353 59.6767 116.332 59.694C116.31 59.7113 116.284 59.7232 116.257 59.7288C116.23 59.7343 116.201 59.7334 116.175 59.726H116.175ZM116.352 52.7315C116.623 53.1008 116.975 53.4026 117.382 53.6132C117.788 53.8237 118.238 53.9374 118.696 53.9454C119.439 53.9454 120.151 53.6502 120.677 53.1249C121.202 52.5996 121.497 51.8871 121.497 51.1441C121.506 50.7786 121.441 50.4151 121.307 50.0751C121.173 49.735 120.972 49.4253 120.716 49.1642C120.46 48.9031 120.154 48.6959 119.817 48.555C119.48 48.414 119.118 48.3421 118.752 48.3435C118.281 48.345 117.817 48.4554 117.396 48.6659C116.975 48.8765 116.608 49.1816 116.325 49.5573L116.352 52.7315Z" fill="#49A747"/>
<path d="M131.853 54.5999C131.12 55.2239 130.183 55.5562 129.22 55.5337C128.468 55.5349 127.728 55.3419 127.072 54.9734C126.402 54.5675 125.847 53.9955 125.462 53.3125C125.077 52.6296 124.875 51.8589 124.875 51.075C124.875 50.291 125.077 49.5203 125.462 48.8374C125.847 48.1545 126.402 47.5824 127.072 47.1765C127.708 46.8101 128.431 46.6229 129.164 46.635C130.138 46.6111 131.087 46.9431 131.834 47.5688V46.9991C131.833 46.9762 131.837 46.9534 131.844 46.9319C131.852 46.9104 131.864 46.8907 131.88 46.8741C131.896 46.8575 131.915 46.8443 131.936 46.8352C131.957 46.8262 131.98 46.8216 132.002 46.8216H133.328C133.375 46.8216 133.421 46.8403 133.454 46.8736C133.487 46.9069 133.506 46.952 133.506 46.9991V55.1882C133.506 55.2353 133.487 55.2804 133.454 55.3137C133.421 55.347 133.375 55.3657 133.328 55.3657H132.021C131.998 55.3657 131.975 55.3611 131.954 55.352C131.933 55.343 131.914 55.3298 131.899 55.3132C131.883 55.2965 131.871 55.2769 131.863 55.2554C131.855 55.2339 131.852 55.211 131.853 55.1882L131.853 54.5999ZM131.797 49.4923C131.511 49.1168 131.142 48.8121 130.72 48.6016C130.297 48.3912 129.832 48.2806 129.36 48.2785C128.994 48.2771 128.632 48.349 128.295 48.4899C127.958 48.6309 127.652 48.838 127.396 49.099C127.14 49.36 126.939 49.6697 126.805 50.0097C126.671 50.3497 126.606 50.7132 126.615 51.0786C126.615 51.8216 126.91 52.5341 127.435 53.0594C127.96 53.5847 128.673 53.8798 129.416 53.8798C129.874 53.8846 130.328 53.7834 130.741 53.5843C131.154 53.3851 131.515 53.0932 131.797 52.7315L131.797 49.4923Z" fill="#49A747"/>
<path d="M136.643 59.6049L138.902 54.4692L135.308 46.943C135.301 46.9302 135.298 46.916 135.299 46.9018C135.3 46.8876 135.304 46.8738 135.311 46.8616C135.319 46.8495 135.329 46.8394 135.342 46.8324C135.354 46.8254 135.368 46.8217 135.382 46.8216H136.942C136.991 46.8221 137.038 46.8363 137.08 46.8627C137.121 46.8891 137.154 46.9266 137.175 46.9709L139.771 52.4517L142.18 46.9239C142.193 46.8928 142.215 46.8664 142.243 46.8481C142.272 46.8297 142.305 46.8203 142.339 46.8211H143.917C143.931 46.8212 143.945 46.8249 143.957 46.8319C143.97 46.8389 143.98 46.849 143.988 46.8611C143.995 46.8732 143.999 46.8871 144 46.9013C144.001 46.9155 143.998 46.9297 143.991 46.9424L138.473 59.6235C138.46 59.6546 138.438 59.681 138.41 59.6993C138.381 59.7177 138.348 59.7271 138.314 59.7263H136.727C136.713 59.7256 136.699 59.7216 136.687 59.7146C136.674 59.7077 136.663 59.698 136.655 59.6863C136.647 59.6746 136.642 59.6612 136.64 59.6471C136.637 59.633 136.639 59.6185 136.643 59.6049Z" fill="#49A747"/>
<path d="M65.6958 48.1847L63.2686 45.7575C63.0359 45.5223 62.7589 45.3356 62.4536 45.2082C62.1482 45.0808 61.8207 45.0152 61.4898 45.0152C61.159 45.0152 60.8314 45.0808 60.5261 45.2082C60.2208 45.3356 59.9437 45.5223 59.711 45.7575L54.7149 50.7432L49.7193 45.757C49.4866 45.5218 49.2095 45.3351 48.9042 45.2077C48.5989 45.0803 48.2713 45.0146 47.9405 45.0146C47.6096 45.0146 47.2821 45.0803 46.9768 45.2077C46.6714 45.3351 46.3944 45.5218 46.1617 45.757L43.7345 48.1842C43.2641 48.6567 43 49.2962 43 49.963C43 50.6297 43.2641 51.2693 43.7345 51.7417L48.4028 56.4109C48.8753 56.8813 49.5149 57.1454 50.1816 57.1454C50.8483 57.1454 51.4879 56.8813 51.9604 56.4109L54.2015 54.1697L54.6778 53.6934L56.1524 52.2186L61.1486 47.2323C61.2291 47.1519 61.3383 47.1068 61.4521 47.1068C61.5659 47.1068 61.6751 47.1519 61.7556 47.2323L64.1829 49.6596C64.2633 49.7401 64.3085 49.8493 64.3085 49.9631C64.3085 50.0769 64.2633 50.1861 64.1829 50.2666L59.5145 54.936C59.434 55.0164 59.3248 55.0616 59.211 55.0616C59.0972 55.0616 58.988 55.0164 58.9075 54.936L56.1715 52.2V55.1505L57.4503 56.4672C57.9228 56.9376 58.5624 57.2017 59.2291 57.2017C59.8958 57.2017 60.5354 56.9376 61.0079 56.4672L65.6773 51.7984C65.9199 51.5647 66.1133 51.2848 66.2459 50.9751C66.3786 50.6655 66.4478 50.3324 66.4496 49.9955C66.4513 49.6586 66.3856 49.3248 66.2561 49.0138C66.1267 48.7028 65.9363 48.4209 65.6961 48.1847H65.6958ZM50.4662 54.9545C50.3857 55.035 50.2765 55.0801 50.1627 55.0801C50.0489 55.0801 49.9397 55.035 49.8592 54.9545L45.1908 50.2857C45.1104 50.2051 45.0652 50.096 45.0652 49.9821C45.0652 49.8683 45.1104 49.7592 45.1908 49.6786L47.6653 47.2321C47.7458 47.1517 47.855 47.1065 47.9688 47.1065C48.0826 47.1065 48.1918 47.1517 48.2723 47.2321L53.2677 52.2186L50.4662 54.9545Z" fill="#FCB319"/>
<defs>
<filter id="filter0_bd_3081_18624" x="0" y="-1" width="404" height="240" filterUnits="userSpaceOnUse" color-interpolation-filters="sRGB">
<feFlood flood-opacity="0" result="BackgroundImageFix"/>
<feGaussianBlur in="BackgroundImageFix" stdDeviation="10"/>
<feComposite in2="SourceAlpha" operator="in" result="effect1_backgroundBlur_3081_18624"/>
<feColorMatrix in="SourceAlpha" type="matrix" values="0 0 0 0 0 0 0 0 0 0 0 0 0 0 0 0 0 0 127 0" result="hardAlpha"/>
<feMorphology radius="1" operator="erode" in="SourceAlpha" result="effect2_dropShadow_3081_18624"/>
<feOffset dy="4"/>
<feGaussianBlur stdDeviation="12"/>
<feColorMatrix type="matrix" values="0 0 0 0 0.879167 0 0 0 0 0.747292 0 0 0 0 0.747292 0 0 0 0.25 0"/>
<feBlend mode="normal" in2="effect1_backgroundBlur_3081_18624" result="effect2_dropShadow_3081_18624"/>
<feBlend mode="normal" in="SourceGraphic" in2="effect2_dropShadow_3081_18624" result="shape"/>
</filter>
<linearGradient id="paint0_linear_3081_18624" x1="36.685" y1="21.872" x2="148.198" y2="294.351" gradientUnits="userSpaceOnUse">
<stop stop-color="#F2F3F3"/>
<stop offset="1" stop-color="#EEF5EB"/>
</linearGradient>
</defs>
</svg>
