<svg width="32" height="32" viewBox="0 0 32 32" fill="none" xmlns="http://www.w3.org/2000/svg">
<circle cx="16" cy="16" r="16" fill="#F1FDEB"/>
<g clip-path="url(#clip0_3914_1955)">
<path d="M23.5 17.8755V22.2505C23.5 22.582 23.3683 22.9 23.1339 23.1344C22.8995 23.3688 22.5815 23.5005 22.25 23.5005H9.75C9.41848 23.5005 9.10054 23.3688 8.86612 23.1344C8.6317 22.9 8.5 22.582 8.5 22.2505V17.8755C8.5 17.7097 8.56585 17.5508 8.68306 17.4336C8.80027 17.3163 8.95924 17.2505 9.125 17.2505C9.29076 17.2505 9.44973 17.3163 9.56694 17.4336C9.68415 17.5508 9.75 17.7097 9.75 17.8755V22.2505H22.25V17.8755C22.25 17.7097 22.3158 17.5508 22.4331 17.4336C22.5503 17.3163 22.7092 17.2505 22.875 17.2505C23.0408 17.2505 23.1997 17.3163 23.3169 17.4336C23.4342 17.5508 23.5 17.7097 23.5 17.8755ZM13.3172 12.6927L15.375 10.6341V17.8755C15.375 18.0413 15.4408 18.2002 15.5581 18.3174C15.6753 18.4346 15.8342 18.5005 16 18.5005C16.1658 18.5005 16.3247 18.4346 16.4419 18.3174C16.5592 18.2002 16.625 18.0413 16.625 17.8755V10.6341L18.6828 12.6927C18.8001 12.81 18.9591 12.8758 19.125 12.8758C19.2909 12.8758 19.4499 12.81 19.5672 12.6927C19.6845 12.5754 19.7503 12.4163 19.7503 12.2505C19.7503 12.0846 19.6845 11.9256 19.5672 11.8083L16.4422 8.6833C16.3841 8.62519 16.3152 8.57909 16.2393 8.54764C16.1635 8.51619 16.0821 8.5 16 8.5C15.9179 8.5 15.8365 8.51619 15.7607 8.54764C15.6848 8.57909 15.6159 8.62519 15.5578 8.6833L12.4328 11.8083C12.3155 11.9256 12.2497 12.0846 12.2497 12.2505C12.2497 12.4163 12.3155 12.5754 12.4328 12.6927C12.5501 12.81 12.7091 12.8758 12.875 12.8758C13.0409 12.8758 13.1999 12.81 13.3172 12.6927Z" fill="#62A446"/>
</g>
<defs>
<clipPath id="clip0_3914_1955">
<rect width="20" height="20" fill="white" transform="translate(6 6)"/>
</clipPath>
</defs>
</svg>
