<svg width="57" height="56" viewBox="0 0 57 56" fill="none" xmlns="http://www.w3.org/2000/svg">
<circle cx="28.625" cy="28" r="28" fill="#D6F1CA"/>
<g clip-path="url(#clip0_583_14240)">
<path d="M14.1035 35.1724H43.8966V41.7931H14.1035V35.1724Z" fill="#F3B744"/>
<path d="M45 42.8967C44.9982 43.5053 44.5052 43.9983 43.8966 44.0001H14.1035C13.8107 44.0017 13.5299 43.8842 13.3255 43.6746C13.116 43.4702 12.9985 43.1894 13 42.8967C13.0018 42.288 13.4948 41.795 14.1035 41.7932H43.8966C44.5041 41.7977 44.9955 42.2891 45 42.8967Z" fill="#236609"/>
<path d="M16.8622 20.8276V32.9655H14.6553V20.7559L16.8622 20.8276Z" fill="#174604"/>
<path d="M43.3448 20.7559V32.9655H41.1379V20.8276L43.3448 20.7559Z" fill="#174604"/>
<path d="M21.4966 12L19.2897 17.5172L19.069 18.069V18.6207C19.069 19.8395 18.0809 20.8276 16.8621 20.8276H15.2069C14.6214 20.8283 14.0596 20.596 13.6456 20.182C13.2315 19.768 12.9993 19.2062 13 18.6207C13.001 18.2609 13.1043 17.9088 13.2979 17.6055L16.051 13.28C16.554 12.4827 17.4311 11.9994 18.3738 12L21.4966 12Z" fill="#62A446"/>
<path d="M25.6898 12V18.6207C25.6898 19.8395 24.7017 20.8276 23.4829 20.8276H21.276C20.0572 20.8276 19.0691 19.8395 19.0691 18.6207V18.069L21.4967 12H25.6898Z" fill="#ADDE98"/>
<path d="M32.3104 12V18.6207C32.3104 19.8395 31.3223 20.8276 30.1035 20.8276H27.8966C26.6778 20.8276 25.6897 19.8395 25.6897 18.6207V12H32.3104Z" fill="#62A446"/>
<path d="M38.931 18.069V18.6207C38.931 19.8395 37.9429 20.8276 36.7241 20.8276H34.5172C33.2984 20.8276 32.3103 19.8395 32.3103 18.6207V12H36.5034L38.931 18.069Z" fill="#ADDE98"/>
<path d="M45 18.6207C45.0007 19.2062 44.7684 19.768 44.3544 20.182C43.9404 20.596 43.3786 20.8283 42.7931 20.8276H41.1379C39.9191 20.8276 38.931 19.8395 38.931 18.6207V18.069L38.7103 17.5172L36.5034 12L39.6262 12C40.5689 11.9994 41.4459 12.4827 41.9489 13.28L44.702 17.6055C44.8957 17.9088 44.999 18.2609 45 18.6207Z" fill="#62A446"/>
<path d="M43.8966 32.9656H14.1034C13.494 32.9656 13 33.4596 13 34.069C13 34.6784 13.494 35.1725 14.1034 35.1725H43.8966C44.506 35.1725 45 34.6784 45 34.069C45 33.4596 44.506 32.9656 43.8966 32.9656Z" fill="#236609"/>
</g>
<defs>
<clipPath id="clip0_583_14240">
<rect width="32" height="32" fill="white" transform="translate(13 12)"/>
</clipPath>
</defs>
</svg>
