<svg width="57" height="56" viewBox="0 0 57 56" fill="none" xmlns="http://www.w3.org/2000/svg">
<circle cx="28.5416" cy="28" r="28" fill="#D6F1CA"/>
<path d="M41 14.5H23C22.6023 14.5004 22.221 14.6586 21.9398 14.9398C21.6586 15.221 21.5004 15.6023 21.5 16V37.3398L18.093 40.7095C18.0397 40.7843 18.0081 40.8723 18.0015 40.9639C17.995 41.0555 18.0137 41.1471 18.0557 41.2287C18.0978 41.3103 18.1614 41.3788 18.2398 41.4267C18.3182 41.4745 18.4082 41.4999 18.5 41.5H41C41.3977 41.4996 41.779 41.3414 42.0602 41.0602C42.3414 40.779 42.4996 40.3977 42.5 40V16C42.4996 15.6023 42.3414 15.221 42.0602 14.9398C41.779 14.6586 41.3977 14.5004 41 14.5Z" fill="#82C167"/>
<path d="M21.5001 26.5H17.0001C16.6023 26.5 16.2207 26.658 15.9394 26.9393C15.6581 27.2206 15.5001 27.6022 15.5001 28V38.3956C15.4894 39.1369 15.7473 39.857 16.2262 40.423C16.7051 40.9889 17.3725 41.3625 18.1054 41.4746C18.5289 41.5303 18.9595 41.4949 19.3683 41.3709C19.7771 41.247 20.1547 41.0372 20.476 40.7557C20.7973 40.4741 21.0548 40.1273 21.2314 39.7383C21.408 39.3494 21.4996 38.9272 21.5001 38.5V26.5Z" fill="#62A446"/>
<path d="M31.5 30.5C35.0899 30.5 38 27.5899 38 24C38 20.4101 35.0899 17.5 31.5 17.5C27.9101 17.5 25 20.4101 25 24C25 27.5899 27.9101 30.5 31.5 30.5Z" fill="#ADDE98"/>
<path d="M32.3377 23.5615C32.2544 23.5321 32.169 23.5 32.0841 23.4685V21.9311C32.1784 21.9668 32.267 22.0162 32.347 22.0776C32.4452 22.1657 32.5742 22.2114 32.706 22.2048C32.8377 22.1982 32.9615 22.1398 33.0504 22.0423C33.1393 21.9448 33.186 21.8161 33.1804 21.6843C33.1748 21.5525 33.1174 21.4283 33.0206 21.3386C32.7498 21.1161 32.428 20.9643 32.0841 20.8968V20.6274C32.0841 20.4948 32.0314 20.3677 31.9376 20.2739C31.8439 20.1801 31.7167 20.1274 31.5841 20.1274C31.4515 20.1274 31.3243 20.1801 31.2305 20.2739C31.1368 20.3677 31.0841 20.4948 31.0841 20.6274V20.9326C30.7733 21.0095 30.4918 21.1754 30.2741 21.4101C30.0564 21.6448 29.912 21.938 29.8587 22.2537C29.799 22.5177 29.8131 22.7931 29.8993 23.0498C29.9855 23.3064 30.1405 23.5345 30.3475 23.709C30.5753 23.8808 30.8225 24.0253 31.0841 24.1394V26.1978C30.8523 26.157 30.6335 26.0619 30.4454 25.9204C30.3345 25.8482 30.1995 25.8229 30.0699 25.8501C29.9404 25.8773 29.827 25.9548 29.7545 26.0655C29.6819 26.1762 29.6563 26.3111 29.6831 26.4407C29.7099 26.5703 29.787 26.684 29.8976 26.7568C30.246 27.009 30.6558 27.1629 31.0841 27.2022V27.5C31.0841 27.6326 31.1367 27.7598 31.2305 27.8535C31.3243 27.9473 31.4514 28 31.5841 28C31.7167 28 31.8438 27.9473 31.9376 27.8535C32.0314 27.7598 32.0841 27.6326 32.0841 27.5V27.148C32.4525 27.0491 32.7851 26.847 33.0426 26.5656C33.3001 26.2842 33.472 25.935 33.5379 25.5593C33.6147 25.1373 33.5352 24.7019 33.3143 24.3342C33.0935 23.9666 32.7463 23.6919 32.3377 23.5615ZM30.8414 22.4387C30.8724 22.276 30.958 22.1287 31.0841 22.0212V22.9994C30.98 22.9542 30.8971 22.8711 30.852 22.767C30.807 22.6629 30.8032 22.5455 30.8414 22.4387ZM32.5519 25.3935C32.5273 25.5347 32.4729 25.669 32.3922 25.7875C32.3115 25.9059 32.2065 26.0058 32.0841 26.0803V24.5412C32.2503 24.605 32.3885 24.7256 32.4741 24.8817C32.5598 25.0377 32.5873 25.2191 32.5519 25.3935Z" fill="#F1FDEB"/>
<path d="M37.5 35H25.5C25.3674 35 25.2402 34.9473 25.1464 34.8536C25.0527 34.7598 25 34.6326 25 34.5C25 34.3674 25.0527 34.2402 25.1464 34.1464C25.2402 34.0527 25.3674 34 25.5 34H37.5C37.6326 34 37.7598 34.0527 37.8536 34.1464C37.9473 34.2402 38 34.3674 38 34.5C38 34.6326 37.9473 34.7598 37.8536 34.8536C37.7598 34.9473 37.6326 35 37.5 35Z" fill="#387E1B"/>
<path d="M37.5 38.5H25.5C25.3674 38.5 25.2402 38.4473 25.1464 38.3536C25.0527 38.2598 25 38.1326 25 38C25 37.8674 25.0527 37.7402 25.1464 37.6464C25.2402 37.5527 25.3674 37.5 25.5 37.5H37.5C37.6326 37.5 37.7598 37.5527 37.8536 37.6464C37.9473 37.7402 38 37.8674 38 38C38 38.1326 37.9473 38.2598 37.8536 38.3536C37.7598 38.4473 37.6326 38.5 37.5 38.5Z" fill="#387E1B"/>
</svg>
