<svg width="57" height="56" viewBox="0 0 57 56" fill="none" xmlns="http://www.w3.org/2000/svg">
<circle cx="28.4584" cy="28" r="28" fill="#D6F1CA"/>
<g clip-path="url(#clip0_583_14190)">
<path d="M25.0378 37.7881V42.7925C25.0378 43.155 24.7435 43.4493 24.381 43.4493H20.0333C19.6708 43.4493 19.3766 43.155 19.3766 42.7925V37.7881H25.0378Z" fill="#62A446"/>
<path d="M19.3766 37.7881H25.0378V42.497C23.8201 42.168 22.6531 41.6944 21.5668 41.083C20.7794 40.6396 20.0465 40.1326 19.3766 39.5685V37.7881Z" fill="#4D8E31"/>
<path d="M39.0187 37.7881V42.7925C39.0187 43.155 38.7252 43.4493 38.362 43.4493H34.0143C33.6518 43.4493 33.3575 43.155 33.3575 42.7925V37.7881H39.0187Z" fill="#62A446"/>
<path d="M39.0187 37.7881V39.5751C37.3894 40.9464 35.4559 41.9387 33.3575 42.5022V37.7881H39.0187Z" fill="#4D8E31"/>
<path d="M40.7966 24.5193C40.3832 24.5193 40.0961 24.4508 40.0714 24.4447C39.8138 24.3811 39.6566 24.1207 39.7202 23.8631C39.7837 23.6062 40.043 23.4492 40.2999 23.5113C40.3209 23.5162 41.2343 23.7203 42.001 23.2374C42.5198 22.9105 42.8727 22.3314 43.0499 21.5162C43.1063 21.2569 43.3622 21.0926 43.6215 21.1487C43.8808 21.2051 44.0453 21.461 43.9889 21.7202C43.7536 22.8029 43.2531 23.5894 42.5014 24.0578C41.9038 24.4302 41.2681 24.5193 40.7966 24.5193Z" fill="#F6CB79"/>
<path d="M42.6327 30.3516C42.6327 36.8909 36.6196 42.1915 29.2022 42.1915C23.8898 42.1915 19.2985 39.4726 17.1194 35.5275H12.6568C12.2943 35.5275 12 35.2339 12 34.8708V29.2181C12 28.8556 12.2943 28.5614 12.6568 28.5614H15.9234C16.9026 22.872 22.4745 18.5125 29.2022 18.5125C36.6196 18.5125 42.6327 23.8131 42.6327 30.3516Z" fill="#82C167"/>
<path d="M42.6328 30.3517C42.6328 36.8909 36.6196 42.1916 29.2023 42.1916C25.5002 42.1916 22.1488 40.8715 19.7195 38.7351C21.9669 40.2286 24.7633 41.1139 27.7942 41.1139C35.2115 41.1139 41.2247 35.8133 41.2247 29.274C41.2247 25.9988 39.7155 23.0336 37.277 20.8906C40.5299 23.0512 42.6328 26.4847 42.6328 30.3517Z" fill="#62A446"/>
<path d="M14.5994 28.5613V35.5274H12.6568C12.2943 35.5275 12 35.2338 12 34.8707V29.2181C12 28.8556 12.2943 28.5613 12.6568 28.5613H14.5994V28.5613Z" fill="#F6CB79"/>
<path d="M22.7536 24.4654C22.7536 21.7724 20.5705 19.5894 17.8776 19.5894V24.4654H22.7536Z" fill="#82C167"/>
<path d="M18.547 28.669C18.2816 28.669 18.0635 28.4539 18.0635 28.1885C18.0635 27.9231 18.2755 27.708 18.5409 27.708H18.547C18.8124 27.708 19.0275 27.9231 19.0275 28.1885C19.0275 28.4539 18.8124 28.669 18.547 28.669Z" fill="#236609"/>
<path d="M38.4803 27.3748C38.4794 27.3748 38.4786 27.3748 38.4778 27.3748C38.2124 27.3734 37.9984 27.1572 37.9998 26.8919L38.0006 26.721C38.002 26.4565 38.2168 26.2429 38.4811 26.2429C38.4819 26.2429 38.4828 26.2429 38.4836 26.2429C38.749 26.2443 38.963 26.4605 38.9616 26.7259L38.9608 26.8967C38.9593 27.1613 38.7445 27.3748 38.4803 27.3748Z" fill="#62A446"/>
<path d="M38.4746 29.2389C38.4737 29.2389 38.4729 29.2389 38.472 29.2389C38.2066 29.2375 37.9927 29.0213 37.994 28.7559L37.9949 28.585C37.9963 28.3205 38.2111 28.1069 38.4753 28.1069C38.4762 28.1069 38.477 28.1069 38.4779 28.1069C38.7433 28.1083 38.9573 28.3245 38.9559 28.5899L38.955 28.7608C38.9536 29.0253 38.7388 29.2389 38.4746 29.2389Z" fill="#62A446"/>
<path d="M39.4953 28.2248C39.4944 28.2248 39.4936 28.2248 39.4928 28.2248L39.3219 28.2239C39.0565 28.2226 38.8425 28.0064 38.8439 27.741C38.8453 27.4765 39.0601 27.2629 39.3243 27.2629C39.3252 27.2629 39.326 27.2629 39.3269 27.2629L39.4978 27.2638C39.7631 27.2652 39.9771 27.4814 39.9758 27.7468C39.9744 28.0113 39.7595 28.2248 39.4953 28.2248Z" fill="#62A446"/>
<path d="M37.6313 28.2187C37.6305 28.2187 37.6296 28.2187 37.6287 28.2187L37.4579 28.2178C37.1925 28.2165 36.9785 28.0003 36.9799 27.7349C36.9812 27.4704 37.1961 27.2568 37.4603 27.2568C37.4611 27.2568 37.462 27.2568 37.4629 27.2568L37.6337 27.2577C37.8991 27.2591 38.1131 27.4753 38.1117 27.7406C38.1104 28.0052 37.8955 28.2187 37.6313 28.2187Z" fill="#62A446"/>
<path d="M35.9706 24.1746H25.5113C25.0085 24.1746 24.6008 23.767 24.6008 23.2642C24.6008 22.7614 25.0085 22.3538 25.5113 22.3538H35.9706C36.4735 22.3538 36.8811 22.7614 36.8811 23.2642C36.8811 23.767 36.4735 24.1746 35.9706 24.1746Z" fill="#236609"/>
<path d="M31.248 23.8292C34.5145 23.8292 37.1626 21.1812 37.1626 17.9146C37.1626 14.6481 34.5145 12 31.248 12C27.9814 12 25.3334 14.6481 25.3334 17.9146C25.3334 21.1812 27.9814 23.8292 31.248 23.8292Z" fill="#F3B744"/>
<path d="M31.248 23.8292C34.5145 23.8292 37.1626 21.1812 37.1626 17.9146C37.1626 14.6481 34.5145 12 31.248 12C27.9814 12 25.3334 14.6481 25.3334 17.9146C25.3334 21.1812 27.9814 23.8292 31.248 23.8292Z" fill="#F3B744"/>
<path d="M31.2466 12C30.9915 12 30.7402 12.0161 30.4935 12.0475C33.4045 12.4175 35.6551 14.9032 35.6551 17.9147C35.6551 20.9261 33.4045 23.4119 30.4935 23.7818C30.7401 23.8131 30.9915 23.8293 31.2466 23.8293C34.5132 23.8293 37.1612 21.1812 37.1612 17.9147C37.1612 14.648 34.5132 12 31.2466 12Z" fill="#EDA418"/>
<path d="M31.2471 22.3229C33.6819 22.3229 35.6556 20.3491 35.6556 17.9144C35.6556 15.4796 33.6819 13.5059 31.2471 13.5059C28.8124 13.5059 26.8386 15.4796 26.8386 17.9144C26.8386 20.3491 28.8124 22.3229 31.2471 22.3229Z" fill="#DC9101"/>
<path d="M30.2475 15.8965C30.6503 15.8965 30.9825 16.038 31.2305 16.2125C31.2408 16.2198 31.2543 16.2198 31.2647 16.2125C31.5127 16.038 31.8449 15.8965 32.2476 15.8965C33.0887 15.8965 33.7477 16.6331 33.7477 17.5734C33.7477 18.1757 33.4528 19.3392 31.4773 20.3674C31.4053 20.4052 31.3264 20.4239 31.2476 20.4239C31.1687 20.4239 31.0899 20.4052 31.0178 20.3674C29.0424 19.3392 28.7474 18.1757 28.7474 17.5734C28.7474 16.6331 29.4064 15.8965 30.2475 15.8965Z" fill="#F3B744"/>
</g>
<defs>
<clipPath id="clip0_583_14190">
<rect width="32" height="32" fill="white" transform="translate(12 12)"/>
</clipPath>
</defs>
</svg>
