<svg width="41" height="40" viewBox="0 0 41 40" fill="none" xmlns="http://www.w3.org/2000/svg">
<circle cx="20.5" cy="20" r="20" fill="#D6F1CA"/>
<g clip-path="url(#clip0_628_18750)">
<path d="M24.7859 22.8646C24.3094 22.8645 23.8377 22.9602 23.3988 23.1461C22.9598 23.332 22.5626 23.6043 22.2305 23.9469L18.1144 21.2945C18.4382 20.4621 18.4382 19.5381 18.1144 18.7056L22.2305 16.0532C22.8488 16.6882 23.6802 17.0704 24.5635 17.1257C25.4469 17.181 26.3192 16.9054 27.0115 16.3525C27.7037 15.7996 28.1665 15.0087 28.3102 14.133C28.4538 13.2574 28.268 12.3596 27.7889 11.6135C27.3098 10.8674 26.5714 10.3262 25.7169 10.095C24.8624 9.86368 23.9527 9.95874 23.1642 10.3617C22.3757 10.7647 21.7645 11.4469 21.4491 12.276C21.1337 13.1051 21.1366 14.0221 21.4573 14.8492L17.3412 17.5016C16.8456 16.9914 16.2094 16.641 15.5141 16.4952C14.8188 16.3494 14.0959 16.4148 13.4378 16.683C12.7798 16.9512 12.2165 17.4101 11.8199 18.0009C11.4233 18.5918 11.2114 19.2878 11.2114 20.0001C11.2114 20.7123 11.4233 21.4083 11.8199 21.9992C12.2165 22.59 12.7798 23.0489 13.4378 23.3171C14.0959 23.5854 14.8188 23.6507 15.5141 23.5049C16.2094 23.3591 16.8456 23.0087 17.3412 22.4985L21.4573 25.1509C21.1815 25.8639 21.1407 26.6468 21.3409 27.3847C21.541 28.1227 21.9715 28.777 22.5693 29.252C23.1672 29.7269 23.901 29.9974 24.6633 30.0239C25.4257 30.0504 26.1764 29.8315 26.8057 29.3993C27.4349 28.9671 27.9096 28.3442 28.1603 27.622C28.4109 26.8997 28.4244 26.1159 28.1986 25.3854C27.9728 24.6549 27.5197 24.0161 26.9056 23.5625C26.2915 23.1089 25.5486 22.8643 24.7859 22.8646ZM24.7859 11.4063C25.2097 11.4063 25.624 11.5323 25.9764 11.7684C26.3288 12.0045 26.6034 12.34 26.7656 12.7326C26.9278 13.1252 26.9702 13.5572 26.8875 13.9739C26.8049 14.3907 26.6008 14.7735 26.3011 15.0739C26.0014 15.3744 25.6196 15.579 25.2039 15.6619C24.7882 15.7448 24.3574 15.7023 23.9658 15.5397C23.5743 15.3771 23.2396 15.1017 23.0041 14.7484C22.7687 14.3951 22.643 13.9797 22.643 13.5548C22.643 12.985 22.8688 12.4385 23.2706 12.0356C23.6725 11.6327 24.2175 11.4063 24.7859 11.4063ZM14.7859 22.1485C14.362 22.1485 13.9477 22.0225 13.5954 21.7864C13.243 21.5503 12.9683 21.2148 12.8061 20.8222C12.6439 20.4297 12.6015 19.9977 12.6842 19.5809C12.7669 19.1642 12.9709 18.7814 13.2706 18.4809C13.5703 18.1804 13.9521 17.9758 14.3678 17.8929C14.7835 17.81 15.2143 17.8526 15.6059 18.0152C15.9975 18.1778 16.3321 18.4531 16.5676 18.8065C16.803 19.1598 16.9287 19.5751 16.9287 20.0001C16.9287 20.5699 16.703 21.1163 16.3011 21.5192C15.8992 21.9221 15.3542 22.1485 14.7859 22.1485ZM24.7859 28.5938C24.362 28.5938 23.9477 28.4678 23.5954 28.2317C23.243 27.9956 22.9683 27.6601 22.8061 27.2675C22.6439 26.8749 22.6015 26.443 22.6842 26.0262C22.7669 25.6094 22.9709 25.2266 23.2706 24.9262C23.5703 24.6257 23.9521 24.4211 24.3678 24.3382C24.7835 24.2553 25.2143 24.2978 25.6059 24.4605C25.9975 24.6231 26.3321 24.8984 26.5676 25.2517C26.803 25.605 26.9287 26.0204 26.9287 26.4453C26.9287 27.0151 26.703 27.5616 26.3011 27.9645C25.8992 28.3674 25.3542 28.5938 24.7859 28.5938Z" fill="#62A446"/>
</g>
<defs>
<clipPath id="clip0_628_18750">
<rect width="22.8571" height="22.9166" fill="white" transform="translate(9.07129 8.54175)"/>
</clipPath>
</defs>
</svg>
