<svg width="41" height="40" viewBox="0 0 41 40" fill="none" xmlns="http://www.w3.org/2000/svg">
<circle cx="20.5" cy="20" r="20" fill="#D6F1CA"/>
<g clip-path="url(#clip0_628_18760)">
<path d="M29.0716 22.143V27.143C29.0716 27.5219 28.9211 27.8852 28.6531 28.1531C28.3852 28.4211 28.0219 28.5716 27.643 28.5716H13.3573C12.9784 28.5716 12.615 28.4211 12.3471 28.1531C12.0792 27.8852 11.9287 27.5219 11.9287 27.143V22.143C11.9287 21.9536 12.004 21.7719 12.1379 21.6379C12.2719 21.504 12.4536 21.4287 12.643 21.4287C12.8324 21.4287 13.0141 21.504 13.1481 21.6379C13.282 21.7719 13.3573 21.9536 13.3573 22.143V27.143H27.643V22.143C27.643 21.9536 27.7183 21.7719 27.8522 21.6379C27.9862 21.504 28.1678 21.4287 28.3573 21.4287C28.5467 21.4287 28.7284 21.504 28.8624 21.6379C28.9963 21.7719 29.0716 21.9536 29.0716 22.143ZM19.9948 22.6484C20.0611 22.7148 20.1399 22.7675 20.2266 22.8034C20.3133 22.8393 20.4063 22.8578 20.5001 22.8578C20.594 22.8578 20.687 22.8393 20.7737 22.8034C20.8604 22.7675 20.9392 22.7148 21.0055 22.6484L24.5769 19.0769C24.6433 19.0106 24.6959 18.9318 24.7318 18.8451C24.7678 18.7584 24.7863 18.6654 24.7863 18.5716C24.7863 18.4777 24.7678 18.3848 24.7318 18.2981C24.6959 18.2114 24.6433 18.1326 24.5769 18.0662C24.5106 17.9998 24.4318 17.9472 24.3451 17.9113C24.2584 17.8754 24.1654 17.8569 24.0716 17.8569C23.9777 17.8569 23.8848 17.8754 23.7981 17.9113C23.7114 17.9472 23.6326 17.9998 23.5662 18.0662L21.2144 20.4189V12.143C21.2144 11.9536 21.1392 11.7719 21.0052 11.6379C20.8713 11.504 20.6896 11.4287 20.5001 11.4287C20.3107 11.4287 20.129 11.504 19.9951 11.6379C19.8611 11.7719 19.7859 11.9536 19.7859 12.143V20.4189L17.4341 18.0662C17.3 17.9322 17.1183 17.8569 16.9287 17.8569C16.7392 17.8569 16.5574 17.9322 16.4234 18.0662C16.2893 18.2002 16.214 18.382 16.214 18.5716C16.214 18.7611 16.2893 18.9429 16.4234 19.0769L19.9948 22.6484Z" fill="#62A446"/>
</g>
<defs>
<clipPath id="clip0_628_18760">
<rect width="22.8571" height="22.8571" fill="white" transform="translate(9.07129 8.57153)"/>
</clipPath>
</defs>
</svg>
