<svg width="32" height="32" viewBox="0 0 32 32" fill="none" xmlns="http://www.w3.org/2000/svg">
<circle cx="16" cy="16" r="15.5" fill="white" stroke="#E3E9EC"/>
<path d="M25.8941 13.6921L23.7409 11.5389C23.5344 11.3302 23.2887 11.1646 23.0178 11.0516C22.747 10.9385 22.4564 10.8803 22.1629 10.8803C21.8694 10.8803 21.5788 10.9385 21.3079 11.0516C21.037 11.1646 20.7913 11.3302 20.5849 11.5389L16.1526 15.9618L11.7209 11.5384C11.5144 11.3298 11.2687 11.1642 10.9978 11.0511C10.7269 10.9381 10.4364 10.8799 10.1429 10.8799C9.84935 10.8799 9.55877 10.9381 9.2879 11.0511C9.01704 11.1642 8.77128 11.3298 8.56485 11.5384L6.4116 13.6917C5.99429 14.1108 5.76001 14.6782 5.76001 15.2697C5.76001 15.8611 5.99429 16.4285 6.4116 16.8477L10.553 20.9898C10.9722 21.4071 11.5396 21.6414 12.131 21.6414C12.7225 21.6414 13.2899 21.4071 13.709 20.9898L15.6972 19.0016L16.1197 18.5791L17.4279 17.2707L21.8601 12.8473C21.9316 12.7759 22.0284 12.7358 22.1294 12.7358C22.2304 12.7358 22.3272 12.7759 22.3987 12.8473L24.5519 15.0005C24.6233 15.072 24.6633 15.1688 24.6633 15.2698C24.6633 15.3708 24.6233 15.4676 24.5519 15.5391L20.4105 19.6814C20.3391 19.7527 20.2422 19.7928 20.1412 19.7928C20.0403 19.7928 19.9434 19.7527 19.872 19.6814L17.4448 17.2542V19.8717L18.5793 21.0398C18.9985 21.4571 19.5659 21.6914 20.1573 21.6914C20.7488 21.6914 21.3162 21.4571 21.7353 21.0398L25.8777 16.8979C26.0929 16.6906 26.2645 16.4423 26.3821 16.1676C26.4998 15.8929 26.5612 15.5974 26.5628 15.2985C26.5643 14.9997 26.506 14.7036 26.3912 14.4277C26.2764 14.1518 26.1074 13.9017 25.8944 13.6921H25.8941ZM12.3835 19.6978C12.3121 19.7692 12.2152 19.8093 12.1142 19.8093C12.0133 19.8093 11.9164 19.7692 11.845 19.6978L7.70355 15.556C7.6322 15.4845 7.59213 15.3877 7.59213 15.2867C7.59213 15.1857 7.6322 15.0889 7.70355 15.0174L9.8987 12.847C9.97016 12.7757 10.067 12.7356 10.168 12.7356C10.2689 12.7356 10.3658 12.7757 10.4372 12.847L14.8688 17.2707L12.3835 19.6978Z" fill="#FCB319"/>
</svg>
