<svg width="152" height="168" viewBox="0 0 152 168" fill="none" xmlns="http://www.w3.org/2000/svg">
<path d="M140.53 60.5939C140.127 60.5714 139.74 60.4328 139.415 60.1953C139.091 59.9578 138.845 59.6317 138.706 59.2573C138.567 58.8828 138.542 58.4763 138.633 58.0879C138.725 57.6995 138.93 57.3461 139.222 57.0713L145.848 50.7614C146.045 50.57 146.278 50.4193 146.535 50.3181C146.791 50.2169 147.065 50.1673 147.341 50.1722C147.617 50.1771 147.889 50.2364 148.142 50.3465C148.394 50.4567 148.622 50.6156 148.812 50.8139C149.001 51.0122 149.149 51.2459 149.246 51.5013C149.344 51.7568 149.388 52.0288 149.378 52.3015C149.367 52.5743 149.302 52.8422 149.186 53.0896C149.069 53.3371 148.904 53.5591 148.7 53.7427L142.066 60.0526C141.86 60.2415 141.618 60.3869 141.354 60.48C141.09 60.5731 140.809 60.6118 140.53 60.5939Z" fill="#D6F1CA"/>
<path d="M136.191 57.2902C135.657 57.259 135.155 57.0247 134.791 56.6362C134.427 56.2478 134.229 55.7352 134.239 55.2058L134.345 49.8654C134.356 49.324 134.582 48.8086 134.976 48.4318C135.369 48.055 135.897 47.8472 136.445 47.8537C136.994 47.8685 137.515 48.0962 137.895 48.4877C138.276 48.8793 138.486 49.4031 138.479 49.9462L138.381 55.2866C138.368 55.8288 138.14 56.344 137.745 56.7207C137.35 57.0973 136.821 57.3048 136.273 57.2983L136.191 57.2902Z" fill="#D6F1CA"/>
<path d="M143.699 65.0142C143.169 64.9677 142.676 64.7211 142.324 64.3255C141.972 63.9299 141.788 63.4156 141.809 62.8891C141.83 62.3626 142.055 61.8643 142.437 61.4973C142.82 61.1304 143.33 60.9229 143.863 60.918L149.272 61.023C149.554 61.0118 149.836 61.058 150.1 61.1586C150.364 61.2591 150.605 61.4121 150.807 61.6079C151.009 61.8037 151.168 62.0383 151.275 62.2973C151.382 62.5563 151.435 62.8342 151.429 63.114C151.423 63.3937 151.36 63.6693 151.243 63.924C151.126 64.1786 150.957 64.4068 150.747 64.5946C150.537 64.7824 150.291 64.9258 150.023 65.016C149.756 65.1062 149.472 65.1413 149.19 65.1192L143.797 65.0142H143.699Z" fill="#D6F1CA"/>
<path d="M114.834 87.117C112.91 87.117 111.065 86.3611 109.704 85.0157C108.344 83.6702 107.579 81.8454 107.579 79.9426V42.3353C107.571 34.9112 104.583 27.794 99.2717 22.5467C93.9607 17.2994 86.7608 14.3509 79.2532 14.3488H71.8999C64.3923 14.3509 57.1924 17.2994 51.8814 22.5467C46.5704 27.794 43.5825 34.9112 43.5738 42.3353V80.4209C43.5738 82.3237 42.8094 84.1485 41.4488 85.4939C40.0882 86.8394 38.2428 87.5953 36.3186 87.5953C34.3944 87.5953 32.5491 86.8394 31.1885 85.4939C29.8279 84.1485 29.0635 82.3237 29.0635 80.4209V42.3353C29.0765 31.107 33.5945 20.3427 41.6258 12.4053C49.6571 4.46801 60.5452 0.00641371 71.8999 0L79.2532 0C90.6036 0.01283 101.485 4.47726 109.511 12.4139C117.537 20.3505 122.052 31.1112 122.065 42.3353V79.9426C122.063 81.8405 121.301 83.6605 119.946 85.0048C118.592 86.3491 116.754 87.1085 114.834 87.117Z" fill="#003049"/>
<path d="M126.363 59.2617H24.7903C17.9226 59.2617 12.3552 64.7671 12.3552 71.5583V155.704C12.3552 162.495 17.9226 168 24.7903 168H126.363C133.23 168 138.798 162.495 138.798 155.704V71.5583C138.798 64.7671 133.23 59.2617 126.363 59.2617Z" fill="#ADDE98"/>
<path d="M126.354 59.2617H75.5762V168H126.354C129.653 168 132.817 166.705 135.15 164.399C137.483 162.093 138.795 158.966 138.797 155.704V71.5664C138.797 68.303 137.486 65.1733 135.153 62.8657C132.819 60.5581 129.654 59.2617 126.354 59.2617Z" fill="#ADDE98"/>
<path d="M117.293 96H32.9603C30.3071 96 28.1562 98.1269 28.1562 100.751V126.782C28.1562 129.406 30.3071 131.533 32.9603 131.533H117.293C119.947 131.533 122.097 129.406 122.097 126.782V100.751C122.097 98.1269 119.947 96 117.293 96Z" fill="#003049"/>
<path d="M17.0901 37.2279C16.4458 37.2301 15.8076 37.1063 15.212 36.8635C14.6164 36.6207 14.0752 36.2638 13.6197 35.8134C13.1642 35.3629 12.8033 34.8278 12.5578 34.2388C12.3123 33.6499 12.187 33.0187 12.1892 32.3817V32.2498C12.1892 31.6246 11.9381 31.0251 11.491 30.583C11.044 30.1409 10.4377 29.8926 9.80545 29.8926C9.17324 29.8926 8.56692 30.1409 8.11988 30.583C7.67284 31.0251 7.4217 31.6246 7.4217 32.2498V32.3817C7.4217 33.667 6.90536 34.8996 5.98627 35.8085C5.06718 36.7174 3.82063 37.2279 2.52084 37.2279C1.89383 37.213 1.2846 37.4347 0.817023 37.8481C0.34945 38.2615 0.0586425 38.8355 0.0037335 39.4533C-0.0144254 39.7738 0.0337916 40.0945 0.145429 40.3959C0.257066 40.6973 0.429772 40.973 0.652959 41.206C0.876147 41.4391 1.14511 41.6246 1.44337 41.7512C1.74163 41.8778 2.0629 41.9429 2.38748 41.9424H2.52084C3.82063 41.9424 5.06718 42.453 5.98627 43.3618C6.90536 44.2707 7.4217 45.5033 7.4217 46.7887V46.9205C7.4217 47.5457 7.67284 48.1453 8.11988 48.5873C8.56692 49.0294 9.17324 49.2777 9.80545 49.2777C10.4377 49.2777 11.044 49.0294 11.491 48.5873C11.9381 48.1453 12.1892 47.5457 12.1892 46.9205V46.7887C12.1892 45.5033 12.7055 44.2707 13.6246 43.3618C14.5437 42.453 15.7903 41.9424 17.0901 41.9424H17.2234C17.5473 41.9405 17.8675 41.8739 18.1646 41.7464C18.4618 41.619 18.7298 41.4334 18.9525 41.2009C19.1752 40.9683 19.348 40.6936 19.4605 40.3933C19.573 40.0929 19.6229 39.7732 19.6072 39.4533C19.5484 38.8369 19.2565 38.2653 18.7898 37.8526C18.3231 37.44 17.716 37.2169 17.0901 37.2279ZM9.80545 41.6786C9.38674 41.6786 8.97743 41.5558 8.62928 41.3258C8.28114 41.0958 8.00979 40.7688 7.84956 40.3863C7.68933 40.0038 7.6474 39.5828 7.72909 39.1767C7.81077 38.7707 8.0124 38.3976 8.30848 38.1049C8.60455 37.8121 8.98177 37.6127 9.39243 37.5319C9.8031 37.4511 10.2288 37.4926 10.6156 37.651C11.0024 37.8095 11.3331 38.0778 11.5657 38.4221C11.7983 38.7664 11.9225 39.1711 11.9225 39.5852C11.9225 40.1404 11.6994 40.6729 11.3024 41.0655C10.9054 41.4581 10.3669 41.6786 9.80545 41.6786Z" fill="#F3B744"/>
<path d="M46.2815 114.52L45.1775 113.893L46.2893 113.258C46.5762 113.08 46.782 112.799 46.8636 112.474C46.9452 112.149 46.8961 111.805 46.7267 111.515C46.5573 111.226 46.2808 111.012 45.9553 110.92C45.6298 110.827 45.2808 110.863 44.9817 111.02L43.8699 111.655V110.393C43.8838 110.215 43.8605 110.037 43.8013 109.868C43.7421 109.7 43.6483 109.546 43.5259 109.415C43.4035 109.284 43.2551 109.18 43.0899 109.108C42.9248 109.037 42.7465 109 42.5662 109C42.386 109 42.2077 109.037 42.0426 109.108C41.8774 109.18 41.729 109.284 41.6066 109.415C41.4841 109.546 41.3904 109.7 41.3312 109.868C41.272 110.037 41.2486 110.215 41.2626 110.393V111.655L40.1586 111.02C40.0097 110.928 39.8436 110.866 39.6701 110.839C39.4966 110.811 39.3193 110.819 39.1488 110.861C38.9783 110.902 38.818 110.978 38.6776 111.082C38.5372 111.187 38.4196 111.318 38.3317 111.469C38.2438 111.619 38.1874 111.785 38.166 111.958C38.1446 112.13 38.1585 112.305 38.207 112.472C38.2555 112.639 38.3375 112.795 38.4481 112.93C38.5588 113.065 38.6958 113.176 38.851 113.258L39.9628 113.893L38.851 114.52C38.6958 114.601 38.5588 114.713 38.4481 114.848C38.3375 114.983 38.2555 115.138 38.207 115.305C38.1585 115.472 38.1446 115.647 38.166 115.82C38.1874 115.992 38.2438 116.159 38.3317 116.309C38.4196 116.459 38.5372 116.591 38.6776 116.695C38.818 116.8 38.9783 116.875 39.1488 116.917C39.3193 116.959 39.4966 116.966 39.6701 116.939C39.8436 116.911 40.0097 116.85 40.1586 116.757L41.2626 116.123V117.392C41.288 117.717 41.4364 118.02 41.6781 118.241C41.9198 118.463 42.2369 118.585 42.5662 118.585C42.8955 118.585 43.2127 118.463 43.4544 118.241C43.696 118.02 43.8444 117.717 43.8699 117.392V116.123L44.9817 116.757C45.2798 116.902 45.6223 116.929 45.9397 116.833C46.2572 116.737 46.5258 116.525 46.6911 116.24C46.8565 115.956 46.9062 115.62 46.8301 115.3C46.754 114.981 46.5579 114.702 46.2815 114.52Z" fill="white"/>
<path d="M68.2815 114.52L67.1775 113.893L68.2893 113.258C68.5762 113.08 68.782 112.799 68.8636 112.474C68.9452 112.149 68.8961 111.805 68.7267 111.515C68.5573 111.226 68.2808 111.012 67.9553 110.92C67.6298 110.827 67.2808 110.863 66.9817 111.02L65.8699 111.655V110.393C65.8838 110.215 65.8605 110.037 65.8013 109.868C65.7421 109.7 65.6483 109.546 65.5259 109.415C65.4035 109.284 65.2551 109.18 65.0899 109.108C64.9248 109.037 64.7465 109 64.5662 109C64.386 109 64.2077 109.037 64.0426 109.108C63.8774 109.18 63.729 109.284 63.6066 109.415C63.4841 109.546 63.3904 109.7 63.3312 109.868C63.272 110.037 63.2486 110.215 63.2626 110.393V111.655L62.1586 111.02C62.0097 110.928 61.8436 110.866 61.6701 110.839C61.4966 110.811 61.3193 110.819 61.1488 110.861C60.9783 110.902 60.818 110.978 60.6776 111.082C60.5372 111.187 60.4196 111.318 60.3317 111.469C60.2438 111.619 60.1874 111.785 60.166 111.958C60.1446 112.13 60.1585 112.305 60.207 112.472C60.2555 112.639 60.3375 112.795 60.4481 112.93C60.5588 113.065 60.6958 113.176 60.851 113.258L61.9628 113.893L60.851 114.52C60.6958 114.601 60.5588 114.713 60.4481 114.848C60.3375 114.983 60.2555 115.138 60.207 115.305C60.1585 115.472 60.1446 115.647 60.166 115.82C60.1874 115.992 60.2438 116.159 60.3317 116.309C60.4196 116.459 60.5372 116.591 60.6776 116.695C60.818 116.8 60.9783 116.875 61.1488 116.917C61.3193 116.959 61.4966 116.966 61.6701 116.939C61.8436 116.911 62.0097 116.85 62.1586 116.757L63.2626 116.123V117.392C63.288 117.717 63.4364 118.02 63.6781 118.241C63.9198 118.463 64.2369 118.585 64.5662 118.585C64.8955 118.585 65.2127 118.463 65.4544 118.241C65.696 118.02 65.8444 117.717 65.8699 117.392V116.123L66.9817 116.757C67.2798 116.902 67.6223 116.929 67.9397 116.833C68.2572 116.737 68.5258 116.525 68.6911 116.24C68.8565 115.956 68.9062 115.62 68.8301 115.3C68.754 114.981 68.5579 114.702 68.2815 114.52Z" fill="white"/>
<path d="M90.2815 114.52L89.1775 113.893L90.2893 113.258C90.5762 113.08 90.782 112.799 90.8636 112.474C90.9452 112.149 90.8961 111.805 90.7267 111.515C90.5573 111.226 90.2808 111.012 89.9553 110.92C89.6298 110.827 89.2808 110.863 88.9817 111.02L87.8699 111.655V110.393C87.8838 110.215 87.8605 110.037 87.8013 109.868C87.7421 109.7 87.6483 109.546 87.5259 109.415C87.4035 109.284 87.2551 109.18 87.0899 109.108C86.9248 109.037 86.7465 109 86.5662 109C86.386 109 86.2077 109.037 86.0426 109.108C85.8774 109.18 85.729 109.284 85.6066 109.415C85.4841 109.546 85.3904 109.7 85.3312 109.868C85.272 110.037 85.2486 110.215 85.2626 110.393V111.655L84.1586 111.02C84.0097 110.928 83.8436 110.866 83.6701 110.839C83.4966 110.811 83.3193 110.819 83.1488 110.861C82.9783 110.902 82.818 110.978 82.6776 111.082C82.5372 111.187 82.4196 111.318 82.3317 111.469C82.2438 111.619 82.1874 111.785 82.166 111.958C82.1446 112.13 82.1585 112.305 82.207 112.472C82.2555 112.639 82.3375 112.795 82.4481 112.93C82.5588 113.065 82.6958 113.176 82.851 113.258L83.9628 113.893L82.851 114.52C82.6958 114.601 82.5588 114.713 82.4481 114.848C82.3375 114.983 82.2555 115.138 82.207 115.305C82.1585 115.472 82.1446 115.647 82.166 115.82C82.1874 115.992 82.2438 116.159 82.3317 116.309C82.4196 116.459 82.5372 116.591 82.6776 116.695C82.818 116.8 82.9783 116.875 83.1488 116.917C83.3193 116.959 83.4966 116.966 83.6701 116.939C83.8436 116.911 84.0097 116.85 84.1586 116.757L85.2626 116.123V117.392C85.288 117.717 85.4364 118.02 85.6781 118.241C85.9198 118.463 86.2369 118.585 86.5662 118.585C86.8955 118.585 87.2127 118.463 87.4544 118.241C87.696 118.02 87.8444 117.717 87.8699 117.392V116.123L88.9817 116.757C89.2798 116.902 89.6223 116.929 89.9397 116.833C90.2572 116.737 90.5258 116.525 90.6911 116.24C90.8565 115.956 90.9062 115.62 90.8301 115.3C90.754 114.981 90.5579 114.702 90.2815 114.52Z" fill="white"/>
<path d="M112.281 114.52L111.177 113.893L112.289 113.258C112.576 113.08 112.782 112.799 112.864 112.474C112.945 112.149 112.896 111.805 112.727 111.515C112.557 111.226 112.281 111.012 111.955 110.92C111.63 110.827 111.281 110.863 110.982 111.02L109.87 111.655V110.393C109.884 110.215 109.86 110.037 109.801 109.868C109.742 109.7 109.648 109.546 109.526 109.415C109.403 109.284 109.255 109.18 109.09 109.108C108.925 109.037 108.746 109 108.566 109C108.386 109 108.208 109.037 108.043 109.108C107.877 109.18 107.729 109.284 107.607 109.415C107.484 109.546 107.39 109.7 107.331 109.868C107.272 110.037 107.249 110.215 107.263 110.393V111.655L106.159 111.02C106.01 110.928 105.844 110.866 105.67 110.839C105.497 110.811 105.319 110.819 105.149 110.861C104.978 110.902 104.818 110.978 104.678 111.082C104.537 111.187 104.42 111.318 104.332 111.469C104.244 111.619 104.187 111.785 104.166 111.958C104.145 112.13 104.159 112.305 104.207 112.472C104.255 112.639 104.337 112.795 104.448 112.93C104.559 113.065 104.696 113.176 104.851 113.258L105.963 113.893L104.851 114.52C104.696 114.601 104.559 114.713 104.448 114.848C104.337 114.983 104.255 115.138 104.207 115.305C104.159 115.472 104.145 115.647 104.166 115.82C104.187 115.992 104.244 116.159 104.332 116.309C104.42 116.459 104.537 116.591 104.678 116.695C104.818 116.8 104.978 116.875 105.149 116.917C105.319 116.959 105.497 116.966 105.67 116.939C105.844 116.911 106.01 116.85 106.159 116.757L107.263 116.123V117.392C107.288 117.717 107.436 118.02 107.678 118.241C107.92 118.463 108.237 118.585 108.566 118.585C108.896 118.585 109.213 118.463 109.454 118.241C109.696 118.02 109.844 117.717 109.87 117.392V116.123L110.982 116.757C111.28 116.902 111.622 116.929 111.94 116.833C112.257 116.737 112.526 116.525 112.691 116.24C112.856 115.956 112.906 115.62 112.83 115.3C112.754 114.981 112.558 114.702 112.281 114.52Z" fill="white"/>
</svg>
