<svg width="404" height="239" viewBox="0 0 404 239" fill="none" xmlns="http://www.w3.org/2000/svg">
<g filter="url(#filter0_bd_42_10)">
<rect x="23" y="19" width="358" height="193" rx="18" fill="url(#paint0_linear_42_10)" fill-opacity="0.5"/>
<rect x="24.5" y="20.5" width="355" height="190" rx="16.5" stroke="white" stroke-width="3"/>
</g>
<path d="M58.584 152H62.456L53.496 140.48V140.32L61.592 129.6H57.752L50.648 138.976H48.952V129.6H45.592V152H48.952V142.016H50.648L58.584 152ZM69.458 152.32C72.658 152.32 75.346 150.912 75.346 147.712C75.346 144.672 73.074 143.456 70.61 142.784L69.394 142.464C67.826 142.016 66.514 141.6 66.514 140.192C66.514 138.88 67.634 138.176 69.042 138.176C70.706 138.176 71.73 139.072 71.89 140.352H75.026C74.866 137.984 73.042 135.68 69.01 135.68C66.002 135.68 63.378 137.376 63.378 140.352C63.378 143.424 65.842 144.288 67.826 144.832L69.074 145.152C70.738 145.6 72.21 146.208 72.21 147.808C72.21 149.248 70.898 149.824 69.426 149.824C67.666 149.824 66.226 149.088 66.034 147.04H62.898C63.058 150.176 65.202 152.32 69.458 152.32ZM85.2125 135.68C82.7485 135.68 81.4365 136.704 80.5405 137.92H80.3165V129.28H77.0525V152H80.3165V143.04C80.3165 139.872 82.2045 138.528 84.2845 138.528C86.3325 138.528 87.9325 139.84 87.9325 142.784V152H91.1965V142.08C91.1965 137.952 88.7645 135.68 85.2125 135.68ZM111.094 141.44V141.248C112.438 140.576 113.91 139.296 113.91 136.896C113.91 133.344 110.87 131.168 107.318 131.168C103.702 131.168 100.47 133.376 100.31 136.832H103.51C103.894 134.88 105.366 133.856 107.158 133.856C109.206 133.856 110.582 135.136 110.582 137.056C110.582 139.008 109.174 140.224 107.126 140.224H105.366V142.784H107.254C109.718 142.784 111.158 144.192 111.158 146.144C111.158 148.096 109.558 149.536 107.158 149.536C104.662 149.536 103.574 147.936 103.318 146.144H100.022C100.31 149.92 102.838 152.32 107.19 152.32C111.606 152.32 114.582 149.76 114.582 146.304C114.582 143.84 113.142 142.112 111.094 141.44ZM124.379 152.32C128.923 152.32 132.091 148.992 132.091 141.792C132.091 134.624 128.955 131.168 124.379 131.168C119.803 131.168 116.571 134.624 116.571 141.728C116.571 148.928 119.803 152.32 124.379 152.32ZM124.379 149.472C121.947 149.472 120.027 147.264 120.027 141.76C120.027 136.288 121.947 134.016 124.379 134.016C126.811 134.016 128.635 136.32 128.635 141.76C128.635 147.168 126.843 149.472 124.379 149.472ZM136.2 148C135.016 148 134.088 148.832 134.088 150.144C134.088 151.52 135.112 152.256 136.072 152.16C136.008 153.344 135.144 154.464 134.12 155.328L135.016 156.416C136.552 155.456 138.408 153.6 138.408 150.816C138.408 149.216 137.608 148 136.2 148ZM148.101 152.32C152.645 152.32 155.813 148.992 155.813 141.792C155.813 134.624 152.677 131.168 148.101 131.168C143.525 131.168 140.293 134.624 140.293 141.728C140.293 148.928 143.525 152.32 148.101 152.32ZM148.101 149.472C145.669 149.472 143.749 147.264 143.749 141.76C143.749 136.288 145.669 134.016 148.101 134.016C150.533 134.016 152.357 136.32 152.357 141.76C152.357 147.168 150.565 149.472 148.101 149.472ZM165.619 152.32C170.163 152.32 173.331 148.992 173.331 141.792C173.331 134.624 170.195 131.168 165.619 131.168C161.043 131.168 157.811 134.624 157.811 141.728C157.811 148.928 161.043 152.32 165.619 152.32ZM165.619 149.472C163.187 149.472 161.267 147.264 161.267 141.76C161.267 136.288 163.187 134.016 165.619 134.016C168.051 134.016 169.875 136.32 169.875 141.76C169.875 147.168 168.083 149.472 165.619 149.472ZM183.136 152.32C187.68 152.32 190.848 148.992 190.848 141.792C190.848 134.624 187.712 131.168 183.136 131.168C178.56 131.168 175.328 134.624 175.328 141.728C175.328 148.928 178.56 152.32 183.136 152.32ZM183.136 149.472C180.704 149.472 178.784 147.264 178.784 141.76C178.784 136.288 180.704 134.016 183.136 134.016C185.568 134.016 187.392 136.32 187.392 141.76C187.392 147.168 185.6 149.472 183.136 149.472Z" fill="#253545"/>
<path d="M55.496 97.8H56.888L54.392 109H52.712L50.216 100.44H50.104L47.608 109H45.928L43.416 97.8H44.84L46.792 106.952H46.904L49.352 98.6H50.968L53.4 106.952H53.512L55.496 97.8ZM63.7386 107.912H63.9466V109H63.3066C62.5173 109 62.0426 108.659 61.8826 107.976C61.264 108.765 60.384 109.16 59.2426 109.16C58.4533 109.16 57.8133 108.968 57.3226 108.584C56.8426 108.189 56.6026 107.619 56.6026 106.872C56.6026 106.147 56.848 105.581 57.3386 105.176C57.84 104.76 58.5013 104.509 59.3226 104.424L61.7066 104.2V103.752C61.7066 103.197 61.5626 102.765 61.2746 102.456C60.9866 102.147 60.576 101.992 60.0426 101.992C59.0826 101.992 58.5066 102.499 58.3146 103.512H56.9226C57.008 102.723 57.3226 102.083 57.8666 101.592C58.4213 101.091 59.1466 100.84 60.0426 100.84C60.9706 100.84 61.712 101.096 62.2666 101.608C62.832 102.12 63.1146 102.845 63.1146 103.784V107.256C63.1146 107.693 63.3226 107.912 63.7386 107.912ZM61.7066 105.928V105.224L59.7706 105.416C59.2266 105.469 58.7946 105.613 58.4746 105.848C58.1653 106.083 58.0106 106.408 58.0106 106.824C58.0106 107.24 58.144 107.549 58.4106 107.752C58.6773 107.944 59.0186 108.04 59.4346 108.04C60.0426 108.04 60.5706 107.869 61.0186 107.528C61.4773 107.176 61.7066 106.643 61.7066 105.928ZM64.5437 109V97.64H65.9358V109H64.5437ZM67.1463 109V97.64H68.5383V109H67.1463ZM76.8059 104.84C76.8059 104.915 76.7952 105.08 76.7739 105.336H70.8059C70.8485 106.136 71.0885 106.781 71.5259 107.272C71.9739 107.763 72.5659 108.008 73.3019 108.008C73.8245 108.008 74.2672 107.896 74.6299 107.672C75.0032 107.437 75.2592 107.101 75.3979 106.664H76.7579C76.5872 107.453 76.1925 108.067 75.5739 108.504C74.9552 108.941 74.1979 109.16 73.3019 109.16C72.1605 109.16 71.2272 108.787 70.5019 108.04C69.7765 107.293 69.4139 106.307 69.4139 105.08C69.4139 103.811 69.7765 102.787 70.5019 102.008C71.2272 101.229 72.1392 100.84 73.2379 100.84C74.2619 100.84 75.1099 101.187 75.7819 101.88C76.4645 102.573 76.8059 103.56 76.8059 104.84ZM74.8219 102.632C74.4165 102.205 73.8885 101.992 73.2379 101.992C72.5872 101.992 72.0379 102.216 71.5899 102.664C71.1525 103.101 70.8965 103.651 70.8219 104.312H75.4459C75.4352 103.619 75.2272 103.059 74.8219 102.632ZM80.4828 109.16C79.7254 109.16 79.1921 108.973 78.8828 108.6C78.5841 108.216 78.4348 107.747 78.4348 107.192V102.136H76.7388V101H77.2828C77.7521 101 78.0828 100.915 78.2748 100.744C78.4668 100.563 78.5628 100.253 78.5628 99.816V98.824H79.8428V101H81.8428V102.136H79.8428V107C79.8428 107.672 80.1788 108.008 80.8508 108.008C81.1068 108.008 81.3734 107.965 81.6508 107.88V108.984C81.2241 109.101 80.8348 109.16 80.4828 109.16ZM91.5856 103.16C92.8336 103.629 93.4576 104.557 93.4576 105.944C93.4576 106.904 93.1536 107.656 92.5456 108.2C91.9483 108.733 91.1163 109 90.0496 109H85.9376V97.8H90.0176C91.0523 97.8 91.8363 98.0507 92.3696 98.552C92.903 99.0427 93.1696 99.72 93.1696 100.584C93.1696 101.757 92.6416 102.589 91.5856 103.08V103.16ZM87.3616 99V102.632H89.8416C90.439 102.632 90.903 102.467 91.2336 102.136C91.5643 101.795 91.7296 101.341 91.7296 100.776C91.7296 100.221 91.559 99.7893 91.2176 99.48C90.887 99.16 90.4443 99 89.8896 99H87.3616ZM89.9376 107.8C90.5776 107.8 91.079 107.624 91.4416 107.272C91.8043 106.92 91.9856 106.451 91.9856 105.864C91.9856 105.267 91.799 104.781 91.4256 104.408C91.0523 104.024 90.551 103.832 89.9216 103.832H87.3616V107.8H89.9376ZM101.081 107.912H101.289V109H100.649C99.8598 109 99.3851 108.659 99.2251 107.976C98.6065 108.765 97.7265 109.16 96.5851 109.16C95.7958 109.16 95.1558 108.968 94.6651 108.584C94.1851 108.189 93.9451 107.619 93.9451 106.872C93.9451 106.147 94.1905 105.581 94.6811 105.176C95.1825 104.76 95.8438 104.509 96.6651 104.424L99.0491 104.2V103.752C99.0491 103.197 98.9051 102.765 98.6171 102.456C98.3291 102.147 97.9185 101.992 97.3851 101.992C96.4251 101.992 95.8491 102.499 95.6571 103.512H94.2651C94.3505 102.723 94.6651 102.083 95.2091 101.592C95.7638 101.091 96.4891 100.84 97.3851 100.84C98.3131 100.84 99.0545 101.096 99.6091 101.608C100.174 102.12 100.457 102.845 100.457 103.784V107.256C100.457 107.693 100.665 107.912 101.081 107.912ZM99.0491 105.928V105.224L97.1131 105.416C96.5691 105.469 96.1371 105.613 95.8171 105.848C95.5078 106.083 95.3531 106.408 95.3531 106.824C95.3531 107.24 95.4865 107.549 95.7531 107.752C96.0198 107.944 96.3611 108.04 96.7771 108.04C97.3851 108.04 97.9131 107.869 98.3611 107.528C98.8198 107.176 99.0491 106.643 99.0491 105.928ZM101.886 109V97.64H103.278V109H101.886ZM111.317 107.912H111.525V109H110.885C110.096 109 109.621 108.659 109.461 107.976C108.843 108.765 107.963 109.16 106.821 109.16C106.032 109.16 105.392 108.968 104.901 108.584C104.421 108.189 104.181 107.619 104.181 106.872C104.181 106.147 104.427 105.581 104.917 105.176C105.419 104.76 106.08 104.509 106.901 104.424L109.285 104.2V103.752C109.285 103.197 109.141 102.765 108.853 102.456C108.565 102.147 108.155 101.992 107.621 101.992C106.661 101.992 106.085 102.499 105.893 103.512H104.501C104.587 102.723 104.901 102.083 105.445 101.592C106 101.091 106.725 100.84 107.621 100.84C108.549 100.84 109.291 101.096 109.845 101.608C110.411 102.12 110.693 102.845 110.693 103.784V107.256C110.693 107.693 110.901 107.912 111.317 107.912ZM109.285 105.928V105.224L107.349 105.416C106.805 105.469 106.373 105.613 106.053 105.848C105.744 106.083 105.589 106.408 105.589 106.824C105.589 107.24 105.723 107.549 105.989 107.752C106.256 107.944 106.597 108.04 107.013 108.04C107.621 108.04 108.149 107.869 108.597 107.528C109.056 107.176 109.285 106.643 109.285 105.928ZM112.091 109V101H113.355L113.483 101.96H113.595C114.139 101.213 114.913 100.84 115.915 100.84C116.79 100.84 117.494 101.112 118.027 101.656C118.561 102.2 118.827 102.973 118.827 103.976V109H117.435V104.28C117.435 103.544 117.259 102.995 116.907 102.632C116.566 102.259 116.118 102.072 115.563 102.072C114.977 102.072 114.481 102.275 114.075 102.68C113.681 103.075 113.483 103.661 113.483 104.44V109H112.091ZM123.655 109.16C122.461 109.16 121.495 108.771 120.759 107.992C120.034 107.213 119.671 106.232 119.671 105.048C119.671 103.832 120.045 102.829 120.791 102.04C121.538 101.24 122.487 100.84 123.639 100.84C124.557 100.84 125.351 101.096 126.023 101.608C126.706 102.109 127.117 102.808 127.255 103.704H125.847C125.741 103.235 125.49 102.845 125.095 102.536C124.701 102.227 124.215 102.072 123.639 102.072C122.893 102.072 122.279 102.355 121.799 102.92C121.319 103.485 121.079 104.195 121.079 105.048C121.079 105.88 121.314 106.568 121.783 107.112C122.253 107.656 122.877 107.928 123.655 107.928C124.807 107.928 125.549 107.416 125.879 106.392H127.287C127.138 107.235 126.733 107.907 126.071 108.408C125.421 108.909 124.615 109.16 123.655 109.16ZM135.056 104.84C135.056 104.915 135.046 105.08 135.024 105.336H129.056C129.099 106.136 129.339 106.781 129.776 107.272C130.224 107.763 130.816 108.008 131.552 108.008C132.075 108.008 132.518 107.896 132.88 107.672C133.254 107.437 133.51 107.101 133.648 106.664H135.008C134.838 107.453 134.443 108.067 133.824 108.504C133.206 108.941 132.448 109.16 131.552 109.16C130.411 109.16 129.478 108.787 128.752 108.04C128.027 107.293 127.664 106.307 127.664 105.08C127.664 103.811 128.027 102.787 128.752 102.008C129.478 101.229 130.39 100.84 131.488 100.84C132.512 100.84 133.36 101.187 134.032 101.88C134.715 102.573 135.056 103.56 135.056 104.84ZM133.072 102.632C132.667 102.205 132.139 101.992 131.488 101.992C130.838 101.992 130.288 102.216 129.84 102.664C129.403 103.101 129.147 103.651 129.072 104.312H133.696C133.686 103.619 133.478 103.059 133.072 102.632Z" fill="#253545"/>
<path d="M79.1045 46.9329L81.4013 52.6569L83.6985 46.9329C83.7128 46.9001 83.7363 46.8721 83.7661 46.8522C83.7959 46.8324 83.8308 46.8215 83.8666 46.8209H85.3981C85.4123 46.8217 85.4261 46.8257 85.4386 46.8326C85.451 46.8396 85.4617 46.8493 85.4698 46.861C85.4779 46.8727 85.4832 46.8861 85.4854 46.9002C85.4875 46.9143 85.4864 46.9287 85.4821 46.9423L82.1018 55.2535C82.089 55.2856 82.0673 55.3132 82.0391 55.3331C82.0109 55.353 81.9775 55.3643 81.9431 55.3655H81.0092C80.9748 55.3643 80.9414 55.353 80.9132 55.3331C80.885 55.3132 80.8633 55.2856 80.8506 55.2535L78.4787 49.371L76.1162 55.2538C76.1059 55.2874 76.0847 55.3166 76.056 55.3369C76.0273 55.3571 75.9926 55.3673 75.9575 55.3657H75.0239C74.9892 55.3658 74.9552 55.3551 74.9268 55.335C74.8984 55.3149 74.8769 55.2866 74.8653 55.2538L71.4382 46.943C71.4319 46.9303 71.4289 46.9161 71.4295 46.9019C71.4302 46.8877 71.4344 46.8738 71.4419 46.8617C71.4494 46.8496 71.4598 46.8395 71.4722 46.8325C71.4846 46.8255 71.4986 46.8218 71.5128 46.8217H73.0527C73.0871 46.8229 73.1205 46.8342 73.1487 46.854C73.1769 46.8739 73.1986 46.9016 73.2114 46.9336L75.5081 52.6577L77.8158 46.9329C77.8274 46.9001 77.8489 46.8717 77.8773 46.8516C77.9057 46.8316 77.9397 46.8208 77.9744 46.8209H78.9083C78.9487 46.8156 78.9897 46.8237 79.0251 46.8439C79.0605 46.8642 79.0883 46.8954 79.1043 46.9329H79.1045Z" fill="#49A747"/>
<path d="M90.8524 46.644C91.4398 46.6287 92.0241 46.7333 92.5697 46.9514C93.1153 47.1695 93.6107 47.4965 94.0257 47.9124C94.4407 48.3284 94.7665 48.8246 94.9833 49.3707C95.2001 49.9168 95.3033 50.5014 95.2866 51.0887C95.2866 52.2601 94.8213 53.3835 93.993 54.2118C93.1647 55.0401 92.0413 55.5055 90.8699 55.5055C89.6985 55.5055 88.5751 55.0401 87.7468 54.2118C86.9185 53.3835 86.4531 52.2601 86.4531 51.0887C86.4379 50.5047 86.541 49.9237 86.7561 49.3806C86.9712 48.8374 87.294 48.3434 87.7049 47.9282C88.1159 47.513 88.6065 47.1852 89.1474 46.9645C89.6883 46.7439 90.2683 46.6348 90.8524 46.644V46.644ZM90.8524 53.9087C91.2151 53.909 91.5742 53.836 91.9079 53.6938C92.2417 53.5517 92.5432 53.3436 92.7943 53.0818C93.0455 52.8201 93.2411 52.5103 93.3693 52.171C93.4976 51.8317 93.5558 51.4699 93.5406 51.1075C93.5406 50.3943 93.2573 49.7103 92.7529 49.2059C92.2486 48.7016 91.5646 48.4183 90.8513 48.4183C90.1381 48.4183 89.4541 48.7016 88.9498 49.2059C88.4454 49.7103 88.1621 50.3943 88.1621 51.1075C88.1468 51.4701 88.2052 51.832 88.3335 52.1715C88.4619 52.5109 88.6577 52.8209 88.9091 53.0826C89.1605 53.3443 89.4622 53.5525 89.7962 53.6945C90.1302 53.8364 90.4895 53.9093 90.8524 53.9087V53.9087Z" fill="#49A747"/>
<path d="M102.365 48.1576C102.361 48.181 102.353 48.2035 102.341 48.2237C102.329 48.244 102.313 48.2616 102.293 48.2755C102.274 48.2894 102.253 48.2993 102.23 48.3047C102.207 48.3101 102.183 48.3108 102.159 48.3069C101.994 48.2962 101.829 48.2962 101.663 48.3069C101.19 48.3354 100.73 48.4818 100.328 48.733C99.9249 48.9841 99.5912 49.332 99.3571 49.7449V55.2166C99.3585 55.2403 99.3548 55.2639 99.3464 55.2861C99.3379 55.3082 99.3249 55.3284 99.3082 55.3451C99.2914 55.3619 99.2713 55.3749 99.2491 55.3833C99.227 55.3918 99.2033 55.3954 99.1796 55.3941H97.8081C97.7845 55.3954 97.7608 55.3918 97.7386 55.3833C97.7165 55.3749 97.6964 55.3619 97.6796 55.3451C97.6628 55.3284 97.6498 55.3082 97.6414 55.2861C97.6329 55.2639 97.6293 55.2403 97.6306 55.2166V46.9996C97.6293 46.9759 97.6329 46.9522 97.6414 46.9301C97.6498 46.9079 97.6628 46.8878 97.6796 46.871C97.6964 46.8543 97.7165 46.8412 97.7386 46.8328C97.7608 46.8244 97.7845 46.8207 97.8081 46.8221H99.134C99.1568 46.822 99.1795 46.8267 99.2005 46.8357C99.2216 46.8447 99.2405 46.858 99.2563 46.8746C99.272 46.8912 99.2842 46.9109 99.292 46.9323C99.2999 46.9538 99.3033 46.9767 99.302 46.9996V47.8026C99.6049 47.4287 99.99 47.1297 100.427 46.9289C100.865 46.7281 101.342 46.6309 101.823 46.6449H102.327C102.35 46.6458 102.372 46.6517 102.392 46.6619C102.413 46.6722 102.43 46.6867 102.445 46.7044C102.459 46.7221 102.469 46.7426 102.474 46.7646C102.48 46.7865 102.481 46.8094 102.477 46.8317L102.365 48.1576Z" fill="#49A747"/>
<path d="M112.683 55.3656H110.694C110.627 55.3652 110.563 55.3384 110.516 55.291L106.352 51.1822V55.1882C106.353 55.211 106.35 55.2339 106.342 55.2554C106.334 55.2769 106.322 55.2965 106.306 55.3131C106.29 55.3298 106.271 55.343 106.25 55.352C106.229 55.361 106.207 55.3657 106.184 55.3656H104.8C104.753 55.3656 104.708 55.3469 104.675 55.3137C104.642 55.2804 104.623 55.2352 104.623 55.1882V42.629C104.625 42.5834 104.645 42.5404 104.679 42.5091C104.712 42.4778 104.756 42.4605 104.802 42.4609H106.185C106.23 42.4609 106.272 42.4787 106.304 42.5102C106.335 42.5417 106.353 42.5844 106.353 42.629V50.0991L109.844 46.8962C109.891 46.8559 109.95 46.8329 110.012 46.831H112.094C112.113 46.8279 112.132 46.8311 112.148 46.84C112.165 46.849 112.178 46.8631 112.185 46.8802C112.193 46.8974 112.194 46.9165 112.189 46.9346C112.185 46.9527 112.174 46.9688 112.16 46.9803L108.051 50.7153L112.72 55.2534C112.73 55.2732 112.731 55.2961 112.724 55.317C112.717 55.338 112.702 55.3554 112.683 55.3654V55.3656Z" fill="#49A747"/>
<path d="M116.175 59.7263H114.792C114.769 59.7263 114.746 59.7217 114.725 59.7127C114.704 59.7036 114.685 59.6904 114.669 59.6738C114.654 59.6572 114.641 59.6375 114.634 59.616C114.626 59.5945 114.622 59.5717 114.624 59.5488V46.9991C114.622 46.9762 114.626 46.9533 114.634 46.9319C114.641 46.9104 114.654 46.8907 114.669 46.8741C114.685 46.8575 114.704 46.8443 114.725 46.8352C114.746 46.8262 114.769 46.8216 114.792 46.8216H116.117C116.165 46.8216 116.21 46.8403 116.243 46.8736C116.276 46.9069 116.295 46.952 116.295 46.9991V47.6061C117.041 46.9786 117.992 46.6464 118.967 46.6723C119.7 46.6625 120.422 46.8496 121.058 47.2139C121.735 47.6089 122.297 48.1728 122.69 48.8506C123.083 49.5283 123.293 50.2965 123.299 51.0798C123.306 51.8631 123.109 52.6347 122.727 53.3189C122.346 54.0031 121.793 54.5765 121.124 54.9828C120.467 55.3498 119.728 55.5424 118.976 55.5423C118.031 55.5591 117.114 55.2266 116.399 54.6085V59.5488C116.4 59.5766 116.394 59.6043 116.383 59.6296C116.371 59.6548 116.353 59.677 116.332 59.6943C116.31 59.7115 116.284 59.7234 116.257 59.729C116.23 59.7346 116.201 59.7336 116.175 59.7263H116.175ZM116.352 52.7317C116.623 53.1011 116.975 53.4028 117.382 53.6134C117.788 53.824 118.238 53.9377 118.696 53.9456C119.439 53.9456 120.151 53.6505 120.677 53.1251C121.202 52.5998 121.497 51.8873 121.497 51.1444C121.506 50.7789 121.441 50.4154 121.307 50.0753C121.173 49.7352 120.972 49.4255 120.716 49.1644C120.46 48.9033 120.154 48.6962 119.817 48.5552C119.48 48.4143 119.118 48.3423 118.752 48.3437C118.281 48.3452 117.817 48.4556 117.396 48.6662C116.975 48.8767 116.608 49.1818 116.325 49.5576L116.352 52.7317Z" fill="#49A747"/>
<path d="M131.853 54.5999C131.12 55.2239 130.183 55.5562 129.22 55.5337C128.468 55.5349 127.728 55.3419 127.072 54.9734C126.402 54.5675 125.847 53.9955 125.462 53.3125C125.077 52.6296 124.875 51.8589 124.875 51.075C124.875 50.291 125.077 49.5203 125.462 48.8374C125.847 48.1545 126.402 47.5824 127.072 47.1765C127.708 46.8101 128.431 46.6229 129.164 46.635C130.138 46.6111 131.087 46.9431 131.834 47.5688V46.9991C131.833 46.9762 131.836 46.9534 131.844 46.9319C131.852 46.9104 131.864 46.8907 131.88 46.8741C131.896 46.8575 131.915 46.8443 131.936 46.8352C131.957 46.8262 131.98 46.8216 132.002 46.8216H133.328C133.375 46.8216 133.42 46.8403 133.454 46.8736C133.487 46.9069 133.506 46.952 133.506 46.9991V55.1882C133.506 55.2353 133.487 55.2804 133.454 55.3137C133.42 55.347 133.375 55.3657 133.328 55.3657H132.021C131.998 55.3657 131.975 55.3611 131.954 55.352C131.933 55.343 131.914 55.3298 131.899 55.3132C131.883 55.2965 131.871 55.2769 131.863 55.2554C131.855 55.2339 131.852 55.211 131.853 55.1882L131.853 54.5999ZM131.797 49.4923C131.511 49.1168 131.142 48.8121 130.72 48.6016C130.297 48.3912 129.832 48.2806 129.36 48.2785C128.994 48.2771 128.632 48.349 128.295 48.4899C127.958 48.6309 127.652 48.838 127.396 49.099C127.14 49.36 126.939 49.6697 126.805 50.0097C126.671 50.3497 126.606 50.7132 126.615 51.0786C126.615 51.8216 126.91 52.5341 127.435 53.0594C127.96 53.5847 128.673 53.8798 129.416 53.8798C129.874 53.8846 130.328 53.7834 130.741 53.5843C131.154 53.3851 131.515 53.0932 131.797 52.7315L131.797 49.4923Z" fill="#49A747"/>
<path d="M136.643 59.6047L138.902 54.4689L135.308 46.9427C135.301 46.93 135.298 46.9158 135.299 46.9016C135.3 46.8873 135.304 46.8735 135.311 46.8614C135.319 46.8492 135.329 46.8392 135.342 46.8322C135.354 46.8252 135.368 46.8215 135.382 46.8214H136.942C136.991 46.8218 137.038 46.8361 137.08 46.8625C137.121 46.8889 137.154 46.9264 137.175 46.9707L139.771 52.4515L142.18 46.9237C142.193 46.8926 142.215 46.8662 142.243 46.8478C142.272 46.8295 142.305 46.8201 142.339 46.8208H143.917C143.931 46.821 143.945 46.8247 143.957 46.8317C143.97 46.8387 143.98 46.8487 143.988 46.8609C143.995 46.873 143.999 46.8868 144 46.901C144.001 46.9153 143.998 46.9294 143.991 46.9422L138.473 59.6232C138.46 59.6543 138.438 59.6807 138.41 59.6991C138.381 59.7174 138.348 59.7268 138.314 59.7261H136.727C136.713 59.7253 136.699 59.7213 136.687 59.7144C136.674 59.7075 136.663 59.6978 136.655 59.6861C136.647 59.6743 136.642 59.6609 136.64 59.6468C136.637 59.6327 136.639 59.6183 136.643 59.6047Z" fill="#49A747"/>
<path d="M65.6958 48.1847L63.2686 45.7575C63.0359 45.5223 62.7589 45.3356 62.4536 45.2082C62.1482 45.0808 61.8207 45.0152 61.4898 45.0152C61.159 45.0152 60.8314 45.0808 60.5261 45.2082C60.2208 45.3356 59.9437 45.5223 59.711 45.7575L54.7149 50.7432L49.7193 45.757C49.4866 45.5218 49.2095 45.3351 48.9042 45.2077C48.5989 45.0803 48.2713 45.0146 47.9405 45.0146C47.6096 45.0146 47.2821 45.0803 46.9768 45.2077C46.6714 45.3351 46.3944 45.5218 46.1617 45.757L43.7345 48.1842C43.2641 48.6567 43 49.2962 43 49.963C43 50.6297 43.2641 51.2693 43.7345 51.7417L48.4028 56.4109C48.8753 56.8813 49.5149 57.1454 50.1816 57.1454C50.8483 57.1454 51.4879 56.8813 51.9604 56.4109L54.2015 54.1697L54.6778 53.6934L56.1524 52.2186L61.1486 47.2323C61.2291 47.1519 61.3383 47.1068 61.4521 47.1068C61.5659 47.1068 61.6751 47.1519 61.7556 47.2323L64.1829 49.6596C64.2633 49.7401 64.3085 49.8493 64.3085 49.9631C64.3085 50.0769 64.2633 50.1861 64.1829 50.2666L59.5145 54.936C59.434 55.0164 59.3248 55.0616 59.211 55.0616C59.0972 55.0616 58.988 55.0164 58.9075 54.936L56.1715 52.2V55.1505L57.4503 56.4672C57.9228 56.9376 58.5624 57.2017 59.2291 57.2017C59.8958 57.2017 60.5354 56.9376 61.0079 56.4672L65.6773 51.7984C65.9199 51.5647 66.1133 51.2848 66.2459 50.9751C66.3786 50.6655 66.4478 50.3324 66.4496 49.9955C66.4513 49.6586 66.3856 49.3248 66.2561 49.0138C66.1267 48.7028 65.9363 48.4209 65.6961 48.1847H65.6958ZM50.4662 54.9545C50.3857 55.035 50.2765 55.0801 50.1627 55.0801C50.0489 55.0801 49.9397 55.035 49.8592 54.9545L45.1908 50.2857C45.1104 50.2051 45.0652 50.096 45.0652 49.9821C45.0652 49.8683 45.1104 49.7592 45.1908 49.6786L47.6653 47.2321C47.7458 47.1517 47.855 47.1065 47.9688 47.1065C48.0826 47.1065 48.1918 47.1517 48.2723 47.2321L53.2677 52.2186L50.4662 54.9545Z" fill="#FCB319"/>
<defs>
<filter id="filter0_bd_42_10" x="0" y="-1" width="404" height="240" filterUnits="userSpaceOnUse" color-interpolation-filters="sRGB">
<feFlood flood-opacity="0" result="BackgroundImageFix"/>
<feGaussianBlur in="BackgroundImageFix" stdDeviation="10"/>
<feComposite in2="SourceAlpha" operator="in" result="effect1_backgroundBlur_42_10"/>
<feColorMatrix in="SourceAlpha" type="matrix" values="0 0 0 0 0 0 0 0 0 0 0 0 0 0 0 0 0 0 127 0" result="hardAlpha"/>
<feMorphology radius="1" operator="erode" in="SourceAlpha" result="effect2_dropShadow_42_10"/>
<feOffset dy="4"/>
<feGaussianBlur stdDeviation="12"/>
<feColorMatrix type="matrix" values="0 0 0 0 0.879167 0 0 0 0 0.747292 0 0 0 0 0.747292 0 0 0 0.25 0"/>
<feBlend mode="normal" in2="effect1_backgroundBlur_42_10" result="effect2_dropShadow_42_10"/>
<feBlend mode="normal" in="SourceGraphic" in2="effect2_dropShadow_42_10" result="shape"/>
</filter>
<linearGradient id="paint0_linear_42_10" x1="36.685" y1="21.872" x2="148.198" y2="294.351" gradientUnits="userSpaceOnUse">
<stop stop-color="#F2F3F3"/>
<stop offset="1" stop-color="#EEF5EB"/>
</linearGradient>
</defs>
</svg>
