<svg width="40" height="40" viewBox="0 0 40 40" fill="none" xmlns="http://www.w3.org/2000/svg">

<path fill-rule="evenodd" clip-rule="evenodd" d="M31.1785 8.82214C31.8294 9.47301 31.8294 10.5283 31.1785 11.1792L11.1785 31.1792C10.5276 31.83 9.47236 31.83 8.82149 31.1792C8.17061 30.5283 8.17061 29.473 8.82149 28.8221L28.8215 8.82214C29.4724 8.17127 30.5276 8.17127 31.1785 8.82214Z" fill="currentColor"/>
<path fill-rule="evenodd" clip-rule="evenodd" d="M8.82149 8.82214C9.47236 8.17127 10.5276 8.17127 11.1785 8.82214L31.1785 28.8221C31.8294 29.473 31.8294 30.5283 31.1785 31.1792C30.5276 31.83 29.4724 31.83 28.8215 31.1792L8.82149 11.1792C8.17061 10.5283 8.17061 9.47301 8.82149 8.82214Z" fill="currentColor"/>

</svg>
