<svg width="393" height="239" viewBox="0 0 393 239" fill="none" xmlns="http://www.w3.org/2000/svg">
<g filter="url(#filter0_bd_319_13081)">
<rect x="16" y="19" width="358" height="193" rx="18" fill="url(#paint0_linear_319_13081)" fill-opacity="0.5"/>
<rect x="17.5" y="20.5" width="355" height="190" rx="16.5" stroke="white" stroke-width="3"/>
</g>
<path d="M51.584 152H55.456L46.496 140.48V140.32L54.592 129.6H50.752L43.648 138.976H41.952V129.6H38.592V152H41.952V142.016H43.648L51.584 152ZM62.458 152.32C65.658 152.32 68.346 150.912 68.346 147.712C68.346 144.672 66.074 143.456 63.61 142.784L62.394 142.464C60.826 142.016 59.514 141.6 59.514 140.192C59.514 138.88 60.634 138.176 62.042 138.176C63.706 138.176 64.73 139.072 64.89 140.352H68.026C67.866 137.984 66.042 135.68 62.01 135.68C59.002 135.68 56.378 137.376 56.378 140.352C56.378 143.424 58.842 144.288 60.826 144.832L62.074 145.152C63.738 145.6 65.21 146.208 65.21 147.808C65.21 149.248 63.898 149.824 62.426 149.824C60.666 149.824 59.226 149.088 59.034 147.04H55.898C56.058 150.176 58.202 152.32 62.458 152.32ZM78.2125 135.68C75.7485 135.68 74.4365 136.704 73.5405 137.92H73.3165V129.28H70.0525V152H73.3165V143.04C73.3165 139.872 75.2045 138.528 77.2845 138.528C79.3325 138.528 80.9325 139.84 80.9325 142.784V152H84.1965V142.08C84.1965 137.952 81.7645 135.68 78.2125 135.68ZM104.094 141.44V141.248C105.438 140.576 106.91 139.296 106.91 136.896C106.91 133.344 103.87 131.168 100.318 131.168C96.702 131.168 93.47 133.376 93.31 136.832H96.51C96.894 134.88 98.366 133.856 100.158 133.856C102.206 133.856 103.582 135.136 103.582 137.056C103.582 139.008 102.174 140.224 100.126 140.224H98.366V142.784H100.254C102.718 142.784 104.158 144.192 104.158 146.144C104.158 148.096 102.558 149.536 100.158 149.536C97.662 149.536 96.574 147.936 96.318 146.144H93.022C93.31 149.92 95.838 152.32 100.19 152.32C104.606 152.32 107.582 149.76 107.582 146.304C107.582 143.84 106.142 142.112 104.094 141.44ZM117.379 152.32C121.923 152.32 125.091 148.992 125.091 141.792C125.091 134.624 121.955 131.168 117.379 131.168C112.803 131.168 109.571 134.624 109.571 141.728C109.571 148.928 112.803 152.32 117.379 152.32ZM117.379 149.472C114.947 149.472 113.027 147.264 113.027 141.76C113.027 136.288 114.947 134.016 117.379 134.016C119.811 134.016 121.635 136.32 121.635 141.76C121.635 147.168 119.843 149.472 117.379 149.472ZM129.2 148C128.016 148 127.088 148.832 127.088 150.144C127.088 151.52 128.112 152.256 129.072 152.16C129.008 153.344 128.144 154.464 127.12 155.328L128.016 156.416C129.552 155.456 131.408 153.6 131.408 150.816C131.408 149.216 130.608 148 129.2 148ZM141.101 152.32C145.645 152.32 148.813 148.992 148.813 141.792C148.813 134.624 145.677 131.168 141.101 131.168C136.525 131.168 133.293 134.624 133.293 141.728C133.293 148.928 136.525 152.32 141.101 152.32ZM141.101 149.472C138.669 149.472 136.749 147.264 136.749 141.76C136.749 136.288 138.669 134.016 141.101 134.016C143.533 134.016 145.357 136.32 145.357 141.76C145.357 147.168 143.565 149.472 141.101 149.472ZM158.619 152.32C163.163 152.32 166.331 148.992 166.331 141.792C166.331 134.624 163.195 131.168 158.619 131.168C154.043 131.168 150.811 134.624 150.811 141.728C150.811 148.928 154.043 152.32 158.619 152.32ZM158.619 149.472C156.187 149.472 154.267 147.264 154.267 141.76C154.267 136.288 156.187 134.016 158.619 134.016C161.051 134.016 162.875 136.32 162.875 141.76C162.875 147.168 161.083 149.472 158.619 149.472ZM176.136 152.32C180.68 152.32 183.848 148.992 183.848 141.792C183.848 134.624 180.712 131.168 176.136 131.168C171.56 131.168 168.328 134.624 168.328 141.728C168.328 148.928 171.56 152.32 176.136 152.32ZM176.136 149.472C173.704 149.472 171.784 147.264 171.784 141.76C171.784 136.288 173.704 134.016 176.136 134.016C178.568 134.016 180.392 136.32 180.392 141.76C180.392 147.168 178.6 149.472 176.136 149.472Z" fill="#253545"/>
<path d="M48.496 97.8H49.888L47.392 109H45.712L43.216 100.44H43.104L40.608 109H38.928L36.416 97.8H37.84L39.792 106.952H39.904L42.352 98.6H43.968L46.4 106.952H46.512L48.496 97.8ZM56.7386 107.912H56.9466V109H56.3066C55.5173 109 55.0426 108.659 54.8826 107.976C54.264 108.765 53.384 109.16 52.2426 109.16C51.4533 109.16 50.8133 108.968 50.3226 108.584C49.8426 108.189 49.6026 107.619 49.6026 106.872C49.6026 106.147 49.848 105.581 50.3386 105.176C50.84 104.76 51.5013 104.509 52.3226 104.424L54.7066 104.2V103.752C54.7066 103.197 54.5626 102.765 54.2746 102.456C53.9866 102.147 53.576 101.992 53.0426 101.992C52.0826 101.992 51.5066 102.499 51.3146 103.512H49.9226C50.008 102.723 50.3226 102.083 50.8666 101.592C51.4213 101.091 52.1466 100.84 53.0426 100.84C53.9706 100.84 54.712 101.096 55.2666 101.608C55.832 102.12 56.1146 102.845 56.1146 103.784V107.256C56.1146 107.693 56.3226 107.912 56.7386 107.912ZM54.7066 105.928V105.224L52.7706 105.416C52.2266 105.469 51.7946 105.613 51.4746 105.848C51.1653 106.083 51.0106 106.408 51.0106 106.824C51.0106 107.24 51.144 107.549 51.4106 107.752C51.6773 107.944 52.0186 108.04 52.4346 108.04C53.0426 108.04 53.5706 107.869 54.0186 107.528C54.4773 107.176 54.7066 106.643 54.7066 105.928ZM57.5437 109V97.64H58.9358V109H57.5437ZM60.1463 109V97.64H61.5383V109H60.1463ZM69.8059 104.84C69.8059 104.915 69.7952 105.08 69.7739 105.336H63.8059C63.8485 106.136 64.0885 106.781 64.5259 107.272C64.9739 107.763 65.5659 108.008 66.3019 108.008C66.8245 108.008 67.2672 107.896 67.6299 107.672C68.0032 107.437 68.2592 107.101 68.3979 106.664H69.7579C69.5872 107.453 69.1925 108.067 68.5739 108.504C67.9552 108.941 67.1979 109.16 66.3019 109.16C65.1605 109.16 64.2272 108.787 63.5019 108.04C62.7765 107.293 62.4139 106.307 62.4139 105.08C62.4139 103.811 62.7765 102.787 63.5019 102.008C64.2272 101.229 65.1392 100.84 66.2379 100.84C67.2619 100.84 68.1099 101.187 68.7819 101.88C69.4645 102.573 69.8059 103.56 69.8059 104.84ZM67.8219 102.632C67.4165 102.205 66.8885 101.992 66.2379 101.992C65.5872 101.992 65.0379 102.216 64.5899 102.664C64.1525 103.101 63.8965 103.651 63.8219 104.312H68.4459C68.4352 103.619 68.2272 103.059 67.8219 102.632ZM73.4828 109.16C72.7254 109.16 72.1921 108.973 71.8828 108.6C71.5841 108.216 71.4348 107.747 71.4348 107.192V102.136H69.7388V101H70.2828C70.7521 101 71.0828 100.915 71.2748 100.744C71.4668 100.563 71.5628 100.253 71.5628 99.816V98.824H72.8428V101H74.8428V102.136H72.8428V107C72.8428 107.672 73.1788 108.008 73.8508 108.008C74.1068 108.008 74.3734 107.965 74.6508 107.88V108.984C74.2241 109.101 73.8348 109.16 73.4828 109.16ZM84.5856 103.16C85.8336 103.629 86.4576 104.557 86.4576 105.944C86.4576 106.904 86.1536 107.656 85.5456 108.2C84.9483 108.733 84.1163 109 83.0496 109H78.9376V97.8H83.0176C84.0523 97.8 84.8363 98.0507 85.3696 98.552C85.903 99.0427 86.1696 99.72 86.1696 100.584C86.1696 101.757 85.6416 102.589 84.5856 103.08V103.16ZM80.3616 99V102.632H82.8416C83.439 102.632 83.903 102.467 84.2336 102.136C84.5643 101.795 84.7296 101.341 84.7296 100.776C84.7296 100.221 84.559 99.7893 84.2176 99.48C83.887 99.16 83.4443 99 82.8896 99H80.3616ZM82.9376 107.8C83.5776 107.8 84.079 107.624 84.4416 107.272C84.8043 106.92 84.9856 106.451 84.9856 105.864C84.9856 105.267 84.799 104.781 84.4256 104.408C84.0523 104.024 83.551 103.832 82.9216 103.832H80.3616V107.8H82.9376ZM94.0811 107.912H94.2891V109H93.6491C92.8598 109 92.3851 108.659 92.2251 107.976C91.6065 108.765 90.7265 109.16 89.5851 109.16C88.7958 109.16 88.1558 108.968 87.6651 108.584C87.1851 108.189 86.9451 107.619 86.9451 106.872C86.9451 106.147 87.1905 105.581 87.6811 105.176C88.1825 104.76 88.8438 104.509 89.6651 104.424L92.0491 104.2V103.752C92.0491 103.197 91.9051 102.765 91.6171 102.456C91.3291 102.147 90.9185 101.992 90.3851 101.992C89.4251 101.992 88.8491 102.499 88.6571 103.512H87.2651C87.3505 102.723 87.6651 102.083 88.2091 101.592C88.7638 101.091 89.4891 100.84 90.3851 100.84C91.3131 100.84 92.0545 101.096 92.6091 101.608C93.1745 102.12 93.4571 102.845 93.4571 103.784V107.256C93.4571 107.693 93.6651 107.912 94.0811 107.912ZM92.0491 105.928V105.224L90.1131 105.416C89.5691 105.469 89.1371 105.613 88.8171 105.848C88.5078 106.083 88.3531 106.408 88.3531 106.824C88.3531 107.24 88.4865 107.549 88.7531 107.752C89.0198 107.944 89.3611 108.04 89.7771 108.04C90.3851 108.04 90.9131 107.869 91.3611 107.528C91.8198 107.176 92.0491 106.643 92.0491 105.928ZM94.8863 109V97.64H96.2783V109H94.8863ZM104.317 107.912H104.525V109H103.885C103.096 109 102.621 108.659 102.461 107.976C101.843 108.765 100.963 109.16 99.8214 109.16C99.032 109.16 98.392 108.968 97.9014 108.584C97.4214 108.189 97.1814 107.619 97.1814 106.872C97.1814 106.147 97.4267 105.581 97.9174 105.176C98.4187 104.76 99.08 104.509 99.9014 104.424L102.285 104.2V103.752C102.285 103.197 102.141 102.765 101.853 102.456C101.565 102.147 101.155 101.992 100.621 101.992C99.6614 101.992 99.0854 102.499 98.8934 103.512H97.5014C97.5867 102.723 97.9014 102.083 98.4454 101.592C99 101.091 99.7254 100.84 100.621 100.84C101.549 100.84 102.291 101.096 102.845 101.608C103.411 102.12 103.693 102.845 103.693 103.784V107.256C103.693 107.693 103.901 107.912 104.317 107.912ZM102.285 105.928V105.224L100.349 105.416C99.8054 105.469 99.3734 105.613 99.0534 105.848C98.744 106.083 98.5894 106.408 98.5894 106.824C98.5894 107.24 98.7227 107.549 98.9894 107.752C99.256 107.944 99.5974 108.04 100.013 108.04C100.621 108.04 101.149 107.869 101.597 107.528C102.056 107.176 102.285 106.643 102.285 105.928ZM105.091 109V101H106.355L106.483 101.96H106.595C107.139 101.213 107.913 100.84 108.915 100.84C109.79 100.84 110.494 101.112 111.027 101.656C111.561 102.2 111.827 102.973 111.827 103.976V109H110.435V104.28C110.435 103.544 110.259 102.995 109.907 102.632C109.566 102.259 109.118 102.072 108.563 102.072C107.977 102.072 107.481 102.275 107.075 102.68C106.681 103.075 106.483 103.661 106.483 104.44V109H105.091ZM116.655 109.16C115.461 109.16 114.495 108.771 113.759 107.992C113.034 107.213 112.671 106.232 112.671 105.048C112.671 103.832 113.045 102.829 113.791 102.04C114.538 101.24 115.487 100.84 116.639 100.84C117.557 100.84 118.351 101.096 119.023 101.608C119.706 102.109 120.117 102.808 120.255 103.704H118.847C118.741 103.235 118.49 102.845 118.095 102.536C117.701 102.227 117.215 102.072 116.639 102.072C115.893 102.072 115.279 102.355 114.799 102.92C114.319 103.485 114.079 104.195 114.079 105.048C114.079 105.88 114.314 106.568 114.783 107.112C115.253 107.656 115.877 107.928 116.655 107.928C117.807 107.928 118.549 107.416 118.879 106.392H120.287C120.138 107.235 119.733 107.907 119.071 108.408C118.421 108.909 117.615 109.16 116.655 109.16ZM128.056 104.84C128.056 104.915 128.046 105.08 128.024 105.336H122.056C122.099 106.136 122.339 106.781 122.776 107.272C123.224 107.763 123.816 108.008 124.552 108.008C125.075 108.008 125.518 107.896 125.88 107.672C126.254 107.437 126.51 107.101 126.648 106.664H128.008C127.838 107.453 127.443 108.067 126.824 108.504C126.206 108.941 125.448 109.16 124.552 109.16C123.411 109.16 122.478 108.787 121.752 108.04C121.027 107.293 120.664 106.307 120.664 105.08C120.664 103.811 121.027 102.787 121.752 102.008C122.478 101.229 123.39 100.84 124.488 100.84C125.512 100.84 126.36 101.187 127.032 101.88C127.715 102.573 128.056 103.56 128.056 104.84ZM126.072 102.632C125.667 102.205 125.139 101.992 124.488 101.992C123.838 101.992 123.288 102.216 122.84 102.664C122.403 103.101 122.147 103.651 122.072 104.312H126.696C126.686 103.619 126.478 103.059 126.072 102.632Z" fill="#253545"/>
<path d="M282.464 59L281.44 55.944H276.992L275.968 59H274.416L278.32 47.8H280.112L284.016 59H282.464ZM277.408 54.696H281.008L279.264 49.512H279.152L277.408 54.696ZM285.222 59V51H286.486L286.614 51.96H286.726C287.27 51.2133 288.043 50.84 289.046 50.84C289.921 50.84 290.625 51.112 291.158 51.656C291.691 52.2 291.958 52.9733 291.958 53.976V59H290.566V54.28C290.566 53.544 290.39 52.9947 290.038 52.632C289.697 52.2587 289.249 52.072 288.694 52.072C288.107 52.072 287.611 52.2747 287.206 52.68C286.811 53.0747 286.614 53.6613 286.614 54.44V59H285.222ZM293.824 59V51H295.088L295.216 51.96H295.328C295.872 51.2133 296.645 50.84 297.648 50.84C298.522 50.84 299.226 51.112 299.76 51.656C300.293 52.2 300.56 52.9733 300.56 53.976V59H299.168V54.28C299.168 53.544 298.992 52.9947 298.64 52.632C298.298 52.2587 297.85 52.072 297.296 52.072C296.709 52.072 296.213 52.2747 295.808 52.68C295.413 53.0747 295.216 53.6613 295.216 54.44V59H293.824ZM315.873 57.512C314.828 58.6107 313.516 59.16 311.937 59.16C310.358 59.16 309.041 58.616 307.985 57.528C306.929 56.4293 306.401 55.0533 306.401 53.4C306.401 51.7573 306.929 50.3867 307.985 49.288C309.041 48.1893 310.358 47.64 311.937 47.64C313.505 47.64 314.817 48.1893 315.873 49.288C316.929 50.3867 317.457 51.7573 317.457 53.4C317.457 55.032 316.929 56.4027 315.873 57.512ZM309.041 56.552C309.82 57.3947 310.785 57.816 311.937 57.816C313.089 57.816 314.049 57.3947 314.817 56.552C315.596 55.6987 315.985 54.648 315.985 53.4C315.985 52.152 315.596 51.1067 314.817 50.264C314.049 49.4107 313.089 48.984 311.937 48.984C310.785 48.984 309.82 49.4107 309.041 50.264C308.262 51.1067 307.873 52.152 307.873 53.4C307.873 54.648 308.262 55.6987 309.041 56.552ZM319.301 59V51H320.565L320.693 51.96H320.805C321.317 51.2133 322.037 50.84 322.965 50.84C324.021 50.84 324.747 51.3093 325.141 52.248H325.237C325.76 51.3093 326.581 50.84 327.701 50.84C328.491 50.84 329.125 51.08 329.605 51.56C330.085 52.04 330.325 52.7333 330.325 53.64V59H328.917V53.912C328.917 53.3147 328.763 52.8613 328.453 52.552C328.144 52.232 327.76 52.072 327.301 52.072C326.768 52.072 326.336 52.264 326.005 52.648C325.675 53.0213 325.509 53.512 325.509 54.12V59H324.101V54.024C324.101 53.3947 323.947 52.9147 323.637 52.584C323.339 52.2427 322.955 52.072 322.485 52.072C322.016 52.072 321.6 52.248 321.237 52.6C320.875 52.9413 320.693 53.4373 320.693 54.088V59H319.301ZM338.997 57.912H339.205V59H338.565C337.776 59 337.301 58.6587 337.141 57.976C336.523 58.7653 335.643 59.16 334.501 59.16C333.712 59.16 333.072 58.968 332.581 58.584C332.101 58.1893 331.861 57.6187 331.861 56.872C331.861 56.1467 332.107 55.5813 332.597 55.176C333.099 54.76 333.76 54.5093 334.581 54.424L336.965 54.2V53.752C336.965 53.1973 336.821 52.7653 336.533 52.456C336.245 52.1467 335.835 51.992 335.301 51.992C334.341 51.992 333.765 52.4987 333.573 53.512H332.181C332.267 52.7227 332.581 52.0827 333.125 51.592C333.68 51.0907 334.405 50.84 335.301 50.84C336.229 50.84 336.971 51.096 337.525 51.608C338.091 52.12 338.373 52.8453 338.373 53.784V57.256C338.373 57.6933 338.581 57.912 338.997 57.912ZM336.965 55.928V55.224L335.029 55.416C334.485 55.4693 334.053 55.6133 333.733 55.848C333.424 56.0827 333.269 56.408 333.269 56.824C333.269 57.24 333.403 57.5493 333.669 57.752C333.936 57.944 334.277 58.04 334.693 58.04C335.301 58.04 335.829 57.8693 336.277 57.528C336.736 57.176 336.965 56.6427 336.965 55.928ZM340.411 59V51H341.675L341.803 52.104H341.915C342.15 51.6987 342.438 51.3893 342.779 51.176C343.121 50.952 343.595 50.84 344.203 50.84H344.667V52.248C344.507 52.2267 344.267 52.216 343.947 52.216C343.265 52.216 342.737 52.456 342.363 52.936C341.99 53.4053 341.803 54.0293 341.803 54.808V59H340.411ZM352.477 54.84C352.477 54.9147 352.466 55.08 352.445 55.336H346.477C346.519 56.136 346.759 56.7813 347.197 57.272C347.645 57.7627 348.237 58.008 348.973 58.008C349.495 58.008 349.938 57.896 350.301 57.672C350.674 57.4373 350.93 57.1013 351.069 56.664H352.429C352.258 57.4533 351.863 58.0667 351.245 58.504C350.626 58.9413 349.869 59.16 348.973 59.16C347.831 59.16 346.898 58.7867 346.173 58.04C345.447 57.2933 345.085 56.3067 345.085 55.08C345.085 53.8107 345.447 52.7867 346.173 52.008C346.898 51.2293 347.81 50.84 348.909 50.84C349.933 50.84 350.781 51.1867 351.453 51.88C352.135 52.5733 352.477 53.56 352.477 54.84ZM350.493 52.632C350.087 52.2053 349.559 51.992 348.909 51.992C348.258 51.992 347.709 52.216 347.261 52.664C346.823 53.1013 346.567 53.6507 346.493 54.312H351.117C351.106 53.6187 350.898 53.0587 350.493 52.632Z" fill="#253545"/>
<defs>
<filter id="filter0_bd_319_13081" x="-7" y="-1" width="404" height="240" filterUnits="userSpaceOnUse" color-interpolation-filters="sRGB">
<feFlood flood-opacity="0" result="BackgroundImageFix"/>
<feGaussianBlur in="BackgroundImageFix" stdDeviation="10"/>
<feComposite in2="SourceAlpha" operator="in" result="effect1_backgroundBlur_319_13081"/>
<feColorMatrix in="SourceAlpha" type="matrix" values="0 0 0 0 0 0 0 0 0 0 0 0 0 0 0 0 0 0 127 0" result="hardAlpha"/>
<feMorphology radius="1" operator="erode" in="SourceAlpha" result="effect2_dropShadow_319_13081"/>
<feOffset dy="4"/>
<feGaussianBlur stdDeviation="12"/>
<feColorMatrix type="matrix" values="0 0 0 0 0.879167 0 0 0 0 0.747292 0 0 0 0 0.747292 0 0 0 0.25 0"/>
<feBlend mode="normal" in2="effect1_backgroundBlur_319_13081" result="effect2_dropShadow_319_13081"/>
<feBlend mode="normal" in="SourceGraphic" in2="effect2_dropShadow_319_13081" result="shape"/>
</filter>
<linearGradient id="paint0_linear_319_13081" x1="29.685" y1="21.872" x2="141.198" y2="294.351" gradientUnits="userSpaceOnUse">
<stop stop-color="#F2F3F3"/>
<stop offset="1" stop-color="#EEF5EB"/>
</linearGradient>
</defs>
</svg>
